<?xml version="1.0" encoding="utf-8"?>
<Project name="TheHomeRun" themeId="0" version="65538" templateID="SimpleProjectTemplate">
  <MediaItems>
    <MediaItem id="1627" filePath="F:\CSCI-4809\maya\projects\default\images\home_run.1626.jpg" arWidth="1024" arHeight="768" duration="0" songTitle="" songArtist="" songAlbum="" />
    <MediaItem id="1628" filePath="F:\CSCI-4809\maya\projects\default\images\home_run.1627.jpg" arWidth="1024" arHeight="768" duration="0" songTitle="" songArtist="" songAlbum="" />
    <MediaItem id="1" filePath="F:\CSCI-4809\maya\projects\default\images\home_run.0000.jpg" arWidth="1024" arHeight="768" duration="0" songTitle="" songArtist="" songAlbum="" />
    <MediaItem id="1629" filePath="F:\CSCI-4809\maya\projects\default\images\home_run.1628.jpg" arWidth="1024" arHeight="768" duration="0" songTitle="" songArtist="" songAlbum="" />
    <MediaItem id="2" filePath="F:\CSCI-4809\maya\projects\default\images\home_run.0001.jpg" arWidth="1024" arHeight="768" duration="0" songTitle="" songArtist="" songAlbum="" />
    <MediaItem id="1630" filePath="F:\CSCI-4809\maya\projects\default\images\home_run.1629.jpg" arWidth="1024" arHeight="768" duration="0" songTitle="" songArtist="" songAlbum="" />
    <MediaItem id="3" filePath="F:\CSCI-4809\maya\projects\default\images\home_run.0002.jpg" arWidth="1024" arHeight="768" duration="0" songTitle="" songArtist="" songAlbum="" />
    <MediaItem id="1631" filePath="F:\CSCI-4809\maya\projects\default\images\home_run.1630.jpg" arWidth="1024" arHeight="768" duration="0" songTitle="" songArtist="" songAlbum="" />
    <MediaItem id="4" filePath="F:\CSCI-4809\maya\projects\default\images\home_run.0003.jpg" arWidth="1024" arHeight="768" duration="0" songTitle="" songArtist="" songAlbum="" />
    <MediaItem id="1632" filePath="F:\CSCI-4809\maya\projects\default\images\home_run.1631.jpg" arWidth="1024" arHeight="768" duration="0" songTitle="" songArtist="" songAlbum="" />
    <MediaItem id="5" filePath="F:\CSCI-4809\maya\projects\default\images\home_run.0004.jpg" arWidth="1024" arHeight="768" duration="0" songTitle="" songArtist="" songAlbum="" />
    <MediaItem id="1633" filePath="F:\CSCI-4809\maya\projects\default\images\home_run.1632.jpg" arWidth="1024" arHeight="768" duration="0" songTitle="" songArtist="" songAlbum="" />
    <MediaItem id="6" filePath="F:\CSCI-4809\maya\projects\default\images\home_run.0005.jpg" arWidth="1024" arHeight="768" duration="0" songTitle="" songArtist="" songAlbum="" />
    <MediaItem id="1634" filePath="F:\CSCI-4809\maya\projects\default\images\home_run.1633.jpg" arWidth="1024" arHeight="768" duration="0" songTitle="" songArtist="" songAlbum="" />
    <MediaItem id="7" filePath="F:\CSCI-4809\maya\projects\default\images\home_run.0006.jpg" arWidth="1024" arHeight="768" duration="0" songTitle="" songArtist="" songAlbum="" />
    <MediaItem id="1635" filePath="F:\CSCI-4809\maya\projects\default\images\home_run.1634.jpg" arWidth="1024" arHeight="768" duration="0" songTitle="" songArtist="" songAlbum="" />
    <MediaItem id="8" filePath="F:\CSCI-4809\maya\projects\default\images\home_run.0007.jpg" arWidth="1024" arHeight="768" duration="0" songTitle="" songArtist="" songAlbum="" />
    <MediaItem id="1636" filePath="F:\CSCI-4809\maya\projects\default\images\home_run.1635.jpg" arWidth="1024" arHeight="768" duration="0" songTitle="" songArtist="" songAlbum="" />
    <MediaItem id="9" filePath="F:\CSCI-4809\maya\projects\default\images\home_run.0008.jpg" arWidth="1024" arHeight="768" duration="0" songTitle="" songArtist="" songAlbum="" />
    <MediaItem id="1637" filePath="F:\CSCI-4809\maya\projects\default\images\home_run.1636.jpg" arWidth="1024" arHeight="768" duration="0" songTitle="" songArtist="" songAlbum="" />
    <MediaItem id="10" filePath="F:\CSCI-4809\maya\projects\default\images\home_run.0009.jpg" arWidth="1024" arHeight="768" duration="0" songTitle="" songArtist="" songAlbum="" />
    <MediaItem id="1638" filePath="F:\CSCI-4809\maya\projects\default\images\home_run.1637.jpg" arWidth="1024" arHeight="768" duration="0" songTitle="" songArtist="" songAlbum="" />
    <MediaItem id="11" filePath="F:\CSCI-4809\maya\projects\default\images\home_run.0010.jpg" arWidth="1024" arHeight="768" duration="0" songTitle="" songArtist="" songAlbum="" />
    <MediaItem id="1639" filePath="F:\CSCI-4809\maya\projects\default\images\home_run.1638.jpg" arWidth="1024" arHeight="768" duration="0" songTitle="" songArtist="" songAlbum="" />
    <MediaItem id="12" filePath="F:\CSCI-4809\maya\projects\default\images\home_run.0011.jpg" arWidth="1024" arHeight="768" duration="0" songTitle="" songArtist="" songAlbum="" />
    <MediaItem id="1640" filePath="F:\CSCI-4809\maya\projects\default\images\home_run.1639.jpg" arWidth="1024" arHeight="768" duration="0" songTitle="" songArtist="" songAlbum="" />
    <MediaItem id="13" filePath="F:\CSCI-4809\maya\projects\default\images\home_run.0012.jpg" arWidth="1024" arHeight="768" duration="0" songTitle="" songArtist="" songAlbum="" />
    <MediaItem id="1641" filePath="F:\CSCI-4809\maya\projects\default\images\home_run.1640.jpg" arWidth="1024" arHeight="768" duration="0" songTitle="" songArtist="" songAlbum="" />
    <MediaItem id="14" filePath="F:\CSCI-4809\maya\projects\default\images\home_run.0013.jpg" arWidth="1024" arHeight="768" duration="0" songTitle="" songArtist="" songAlbum="" />
    <MediaItem id="1642" filePath="F:\CSCI-4809\maya\projects\default\images\home_run.1641.jpg" arWidth="1024" arHeight="768" duration="0" songTitle="" songArtist="" songAlbum="" />
    <MediaItem id="15" filePath="F:\CSCI-4809\maya\projects\default\images\home_run.0014.jpg" arWidth="1024" arHeight="768" duration="0" songTitle="" songArtist="" songAlbum="" />
    <MediaItem id="1643" filePath="F:\CSCI-4809\maya\projects\default\images\home_run.1642.jpg" arWidth="1024" arHeight="768" duration="0" songTitle="" songArtist="" songAlbum="" />
    <MediaItem id="16" filePath="F:\CSCI-4809\maya\projects\default\images\home_run.0015.jpg" arWidth="1024" arHeight="768" duration="0" songTitle="" songArtist="" songAlbum="" />
    <MediaItem id="1644" filePath="F:\CSCI-4809\maya\projects\default\images\home_run.1643.jpg" arWidth="1024" arHeight="768" duration="0" songTitle="" songArtist="" songAlbum="" />
    <MediaItem id="17" filePath="F:\CSCI-4809\maya\projects\default\images\home_run.0016.jpg" arWidth="1024" arHeight="768" duration="0" songTitle="" songArtist="" songAlbum="" />
    <MediaItem id="1645" filePath="F:\CSCI-4809\maya\projects\default\images\home_run.1644.jpg" arWidth="1024" arHeight="768" duration="0" songTitle="" songArtist="" songAlbum="" />
    <MediaItem id="18" filePath="F:\CSCI-4809\maya\projects\default\images\home_run.0017.jpg" arWidth="1024" arHeight="768" duration="0" songTitle="" songArtist="" songAlbum="" />
    <MediaItem id="1646" filePath="F:\CSCI-4809\maya\projects\default\images\home_run.1645.jpg" arWidth="1024" arHeight="768" duration="0" songTitle="" songArtist="" songAlbum="" />
    <MediaItem id="19" filePath="F:\CSCI-4809\maya\projects\default\images\home_run.0018.jpg" arWidth="1024" arHeight="768" duration="0" songTitle="" songArtist="" songAlbum="" />
    <MediaItem id="1647" filePath="F:\CSCI-4809\maya\projects\default\images\home_run.1646.jpg" arWidth="1024" arHeight="768" duration="0" songTitle="" songArtist="" songAlbum="" />
    <MediaItem id="20" filePath="F:\CSCI-4809\maya\projects\default\images\home_run.0019.jpg" arWidth="1024" arHeight="768" duration="0" songTitle="" songArtist="" songAlbum="" />
    <MediaItem id="1648" filePath="F:\CSCI-4809\maya\projects\default\images\home_run.1647.jpg" arWidth="1024" arHeight="768" duration="0" songTitle="" songArtist="" songAlbum="" />
    <MediaItem id="21" filePath="F:\CSCI-4809\maya\projects\default\images\home_run.0020.jpg" arWidth="1024" arHeight="768" duration="0" songTitle="" songArtist="" songAlbum="" />
    <MediaItem id="1649" filePath="F:\CSCI-4809\maya\projects\default\images\home_run.1648.jpg" arWidth="1024" arHeight="768" duration="0" songTitle="" songArtist="" songAlbum="" />
    <MediaItem id="22" filePath="F:\CSCI-4809\maya\projects\default\images\home_run.0021.jpg" arWidth="1024" arHeight="768" duration="0" songTitle="" songArtist="" songAlbum="" />
    <MediaItem id="1650" filePath="F:\CSCI-4809\maya\projects\default\images\home_run.1649.jpg" arWidth="1024" arHeight="768" duration="0" songTitle="" songArtist="" songAlbum="" />
    <MediaItem id="23" filePath="F:\CSCI-4809\maya\projects\default\images\home_run.0022.jpg" arWidth="1024" arHeight="768" duration="0" songTitle="" songArtist="" songAlbum="" />
    <MediaItem id="1651" filePath="F:\CSCI-4809\maya\projects\default\images\home_run.1650.jpg" arWidth="1024" arHeight="768" duration="0" songTitle="" songArtist="" songAlbum="" />
    <MediaItem id="24" filePath="F:\CSCI-4809\maya\projects\default\images\home_run.0023.jpg" arWidth="1024" arHeight="768" duration="0" songTitle="" songArtist="" songAlbum="" />
    <MediaItem id="1652" filePath="F:\CSCI-4809\maya\projects\default\images\home_run.1651.jpg" arWidth="1024" arHeight="768" duration="0" songTitle="" songArtist="" songAlbum="" />
    <MediaItem id="25" filePath="F:\CSCI-4809\maya\projects\default\images\home_run.0024.jpg" arWidth="1024" arHeight="768" duration="0" songTitle="" songArtist="" songAlbum="" />
    <MediaItem id="1653" filePath="F:\CSCI-4809\maya\projects\default\images\home_run.1652.jpg" arWidth="1024" arHeight="768" duration="0" songTitle="" songArtist="" songAlbum="" />
    <MediaItem id="26" filePath="F:\CSCI-4809\maya\projects\default\images\home_run.0025.jpg" arWidth="1024" arHeight="768" duration="0" songTitle="" songArtist="" songAlbum="" />
    <MediaItem id="1654" filePath="F:\CSCI-4809\maya\projects\default\images\home_run.1653.jpg" arWidth="1024" arHeight="768" duration="0" songTitle="" songArtist="" songAlbum="" />
    <MediaItem id="27" filePath="F:\CSCI-4809\maya\projects\default\images\home_run.0026.jpg" arWidth="1024" arHeight="768" duration="0" songTitle="" songArtist="" songAlbum="" />
    <MediaItem id="1655" filePath="F:\CSCI-4809\maya\projects\default\images\home_run.1654.jpg" arWidth="1024" arHeight="768" duration="0" songTitle="" songArtist="" songAlbum="" />
    <MediaItem id="28" filePath="F:\CSCI-4809\maya\projects\default\images\home_run.0027.jpg" arWidth="1024" arHeight="768" duration="0" songTitle="" songArtist="" songAlbum="" />
    <MediaItem id="1656" filePath="F:\CSCI-4809\maya\projects\default\images\home_run.1655.jpg" arWidth="1024" arHeight="768" duration="0" songTitle="" songArtist="" songAlbum="" />
    <MediaItem id="29" filePath="F:\CSCI-4809\maya\projects\default\images\home_run.0028.jpg" arWidth="1024" arHeight="768" duration="0" songTitle="" songArtist="" songAlbum="" />
    <MediaItem id="1657" filePath="F:\CSCI-4809\maya\projects\default\images\home_run.1656.jpg" arWidth="1024" arHeight="768" duration="0" songTitle="" songArtist="" songAlbum="" />
    <MediaItem id="30" filePath="F:\CSCI-4809\maya\projects\default\images\home_run.0029.jpg" arWidth="1024" arHeight="768" duration="0" songTitle="" songArtist="" songAlbum="" />
    <MediaItem id="1658" filePath="F:\CSCI-4809\maya\projects\default\images\home_run.1657.jpg" arWidth="1024" arHeight="768" duration="0" songTitle="" songArtist="" songAlbum="" />
    <MediaItem id="31" filePath="F:\CSCI-4809\maya\projects\default\images\home_run.0030.jpg" arWidth="1024" arHeight="768" duration="0" songTitle="" songArtist="" songAlbum="" />
    <MediaItem id="1659" filePath="F:\CSCI-4809\maya\projects\default\images\home_run.1658.jpg" arWidth="1024" arHeight="768" duration="0" songTitle="" songArtist="" songAlbum="" />
    <MediaItem id="32" filePath="F:\CSCI-4809\maya\projects\default\images\home_run.0031.jpg" arWidth="1024" arHeight="768" duration="0" songTitle="" songArtist="" songAlbum="" />
    <MediaItem id="1660" filePath="F:\CSCI-4809\maya\projects\default\images\home_run.1659.jpg" arWidth="1024" arHeight="768" duration="0" songTitle="" songArtist="" songAlbum="" />
    <MediaItem id="33" filePath="F:\CSCI-4809\maya\projects\default\images\home_run.0032.jpg" arWidth="1024" arHeight="768" duration="0" songTitle="" songArtist="" songAlbum="" />
    <MediaItem id="1661" filePath="F:\CSCI-4809\maya\projects\default\images\home_run.1660.jpg" arWidth="1024" arHeight="768" duration="0" songTitle="" songArtist="" songAlbum="" />
    <MediaItem id="34" filePath="F:\CSCI-4809\maya\projects\default\images\home_run.0033.jpg" arWidth="1024" arHeight="768" duration="0" songTitle="" songArtist="" songAlbum="" />
    <MediaItem id="1662" filePath="F:\CSCI-4809\maya\projects\default\images\home_run.1661.jpg" arWidth="1024" arHeight="768" duration="0" songTitle="" songArtist="" songAlbum="" />
    <MediaItem id="35" filePath="F:\CSCI-4809\maya\projects\default\images\home_run.0034.jpg" arWidth="1024" arHeight="768" duration="0" songTitle="" songArtist="" songAlbum="" />
    <MediaItem id="1663" filePath="F:\CSCI-4809\maya\projects\default\images\home_run.1662.jpg" arWidth="1024" arHeight="768" duration="0" songTitle="" songArtist="" songAlbum="" />
    <MediaItem id="36" filePath="F:\CSCI-4809\maya\projects\default\images\home_run.0035.jpg" arWidth="1024" arHeight="768" duration="0" songTitle="" songArtist="" songAlbum="" />
    <MediaItem id="1664" filePath="F:\CSCI-4809\maya\projects\default\images\home_run.1663.jpg" arWidth="1024" arHeight="768" duration="0" songTitle="" songArtist="" songAlbum="" />
    <MediaItem id="37" filePath="F:\CSCI-4809\maya\projects\default\images\home_run.0036.jpg" arWidth="1024" arHeight="768" duration="0" songTitle="" songArtist="" songAlbum="" />
    <MediaItem id="1665" filePath="F:\CSCI-4809\maya\projects\default\images\home_run.1664.jpg" arWidth="1024" arHeight="768" duration="0" songTitle="" songArtist="" songAlbum="" />
    <MediaItem id="38" filePath="F:\CSCI-4809\maya\projects\default\images\home_run.0037.jpg" arWidth="1024" arHeight="768" duration="0" songTitle="" songArtist="" songAlbum="" />
    <MediaItem id="1666" filePath="F:\CSCI-4809\maya\projects\default\images\home_run.1665.jpg" arWidth="1024" arHeight="768" duration="0" songTitle="" songArtist="" songAlbum="" />
    <MediaItem id="39" filePath="F:\CSCI-4809\maya\projects\default\images\home_run.0038.jpg" arWidth="1024" arHeight="768" duration="0" songTitle="" songArtist="" songAlbum="" />
    <MediaItem id="1667" filePath="F:\CSCI-4809\maya\projects\default\images\home_run.1666.jpg" arWidth="1024" arHeight="768" duration="0" songTitle="" songArtist="" songAlbum="" />
    <MediaItem id="40" filePath="F:\CSCI-4809\maya\projects\default\images\home_run.0039.jpg" arWidth="1024" arHeight="768" duration="0" songTitle="" songArtist="" songAlbum="" />
    <MediaItem id="1668" filePath="F:\CSCI-4809\maya\projects\default\images\home_run.1667.jpg" arWidth="1024" arHeight="768" duration="0" songTitle="" songArtist="" songAlbum="" />
    <MediaItem id="41" filePath="F:\CSCI-4809\maya\projects\default\images\home_run.0040.jpg" arWidth="1024" arHeight="768" duration="0" songTitle="" songArtist="" songAlbum="" />
    <MediaItem id="1669" filePath="F:\CSCI-4809\maya\projects\default\images\home_run.1668.jpg" arWidth="1024" arHeight="768" duration="0" songTitle="" songArtist="" songAlbum="" />
    <MediaItem id="42" filePath="F:\CSCI-4809\maya\projects\default\images\home_run.0041.jpg" arWidth="1024" arHeight="768" duration="0" songTitle="" songArtist="" songAlbum="" />
    <MediaItem id="1670" filePath="F:\CSCI-4809\maya\projects\default\images\home_run.1669.jpg" arWidth="1024" arHeight="768" duration="0" songTitle="" songArtist="" songAlbum="" />
    <MediaItem id="43" filePath="F:\CSCI-4809\maya\projects\default\images\home_run.0042.jpg" arWidth="1024" arHeight="768" duration="0" songTitle="" songArtist="" songAlbum="" />
    <MediaItem id="1671" filePath="F:\CSCI-4809\maya\projects\default\images\home_run.1670.jpg" arWidth="1024" arHeight="768" duration="0" songTitle="" songArtist="" songAlbum="" />
    <MediaItem id="44" filePath="F:\CSCI-4809\maya\projects\default\images\home_run.0043.jpg" arWidth="1024" arHeight="768" duration="0" songTitle="" songArtist="" songAlbum="" />
    <MediaItem id="1672" filePath="F:\CSCI-4809\maya\projects\default\images\home_run.1671.jpg" arWidth="1024" arHeight="768" duration="0" songTitle="" songArtist="" songAlbum="" />
    <MediaItem id="45" filePath="F:\CSCI-4809\maya\projects\default\images\home_run.0044.jpg" arWidth="1024" arHeight="768" duration="0" songTitle="" songArtist="" songAlbum="" />
    <MediaItem id="1673" filePath="F:\CSCI-4809\maya\projects\default\images\home_run.1672.jpg" arWidth="1024" arHeight="768" duration="0" songTitle="" songArtist="" songAlbum="" />
    <MediaItem id="46" filePath="F:\CSCI-4809\maya\projects\default\images\home_run.0045.jpg" arWidth="1024" arHeight="768" duration="0" songTitle="" songArtist="" songAlbum="" />
    <MediaItem id="1674" filePath="F:\CSCI-4809\maya\projects\default\images\home_run.1673.jpg" arWidth="1024" arHeight="768" duration="0" songTitle="" songArtist="" songAlbum="" />
    <MediaItem id="47" filePath="F:\CSCI-4809\maya\projects\default\images\home_run.0046.jpg" arWidth="1024" arHeight="768" duration="0" songTitle="" songArtist="" songAlbum="" />
    <MediaItem id="1675" filePath="F:\CSCI-4809\maya\projects\default\images\home_run.1674.jpg" arWidth="1024" arHeight="768" duration="0" songTitle="" songArtist="" songAlbum="" />
    <MediaItem id="48" filePath="F:\CSCI-4809\maya\projects\default\images\home_run.0047.jpg" arWidth="1024" arHeight="768" duration="0" songTitle="" songArtist="" songAlbum="" />
    <MediaItem id="1676" filePath="F:\CSCI-4809\maya\projects\default\images\home_run.1675.jpg" arWidth="1024" arHeight="768" duration="0" songTitle="" songArtist="" songAlbum="" />
    <MediaItem id="49" filePath="F:\CSCI-4809\maya\projects\default\images\home_run.0048.jpg" arWidth="1024" arHeight="768" duration="0" songTitle="" songArtist="" songAlbum="" />
    <MediaItem id="1677" filePath="F:\CSCI-4809\maya\projects\default\images\home_run.1676.jpg" arWidth="1024" arHeight="768" duration="0" songTitle="" songArtist="" songAlbum="" />
    <MediaItem id="50" filePath="F:\CSCI-4809\maya\projects\default\images\home_run.0049.jpg" arWidth="1024" arHeight="768" duration="0" songTitle="" songArtist="" songAlbum="" />
    <MediaItem id="1678" filePath="F:\CSCI-4809\maya\projects\default\images\home_run.1677.jpg" arWidth="1024" arHeight="768" duration="0" songTitle="" songArtist="" songAlbum="" />
    <MediaItem id="51" filePath="F:\CSCI-4809\maya\projects\default\images\home_run.0050.jpg" arWidth="1024" arHeight="768" duration="0" songTitle="" songArtist="" songAlbum="" />
    <MediaItem id="1679" filePath="F:\CSCI-4809\maya\projects\default\images\home_run.1678.jpg" arWidth="1024" arHeight="768" duration="0" songTitle="" songArtist="" songAlbum="" />
    <MediaItem id="52" filePath="F:\CSCI-4809\maya\projects\default\images\home_run.0051.jpg" arWidth="1024" arHeight="768" duration="0" songTitle="" songArtist="" songAlbum="" />
    <MediaItem id="1680" filePath="F:\CSCI-4809\maya\projects\default\images\home_run.1679.jpg" arWidth="1024" arHeight="768" duration="0" songTitle="" songArtist="" songAlbum="" />
    <MediaItem id="53" filePath="F:\CSCI-4809\maya\projects\default\images\home_run.0052.jpg" arWidth="1024" arHeight="768" duration="0" songTitle="" songArtist="" songAlbum="" />
    <MediaItem id="1681" filePath="F:\CSCI-4809\maya\projects\default\images\home_run.1680.jpg" arWidth="1024" arHeight="768" duration="0" songTitle="" songArtist="" songAlbum="" />
    <MediaItem id="54" filePath="F:\CSCI-4809\maya\projects\default\images\home_run.0053.jpg" arWidth="1024" arHeight="768" duration="0" songTitle="" songArtist="" songAlbum="" />
    <MediaItem id="1682" filePath="F:\CSCI-4809\maya\projects\default\images\home_run.1681.jpg" arWidth="1024" arHeight="768" duration="0" songTitle="" songArtist="" songAlbum="" />
    <MediaItem id="55" filePath="F:\CSCI-4809\maya\projects\default\images\home_run.0054.jpg" arWidth="1024" arHeight="768" duration="0" songTitle="" songArtist="" songAlbum="" />
    <MediaItem id="1683" filePath="F:\CSCI-4809\maya\projects\default\images\home_run.1682.jpg" arWidth="1024" arHeight="768" duration="0" songTitle="" songArtist="" songAlbum="" />
    <MediaItem id="56" filePath="F:\CSCI-4809\maya\projects\default\images\home_run.0055.jpg" arWidth="1024" arHeight="768" duration="0" songTitle="" songArtist="" songAlbum="" />
    <MediaItem id="1684" filePath="F:\CSCI-4809\maya\projects\default\images\home_run.1683.jpg" arWidth="1024" arHeight="768" duration="0" songTitle="" songArtist="" songAlbum="" />
    <MediaItem id="57" filePath="F:\CSCI-4809\maya\projects\default\images\home_run.0056.jpg" arWidth="1024" arHeight="768" duration="0" songTitle="" songArtist="" songAlbum="" />
    <MediaItem id="1685" filePath="F:\CSCI-4809\maya\projects\default\images\home_run.1684.jpg" arWidth="1024" arHeight="768" duration="0" songTitle="" songArtist="" songAlbum="" />
    <MediaItem id="58" filePath="F:\CSCI-4809\maya\projects\default\images\home_run.0057.jpg" arWidth="1024" arHeight="768" duration="0" songTitle="" songArtist="" songAlbum="" />
    <MediaItem id="1686" filePath="F:\CSCI-4809\maya\projects\default\images\home_run.1685.jpg" arWidth="1024" arHeight="768" duration="0" songTitle="" songArtist="" songAlbum="" />
    <MediaItem id="59" filePath="F:\CSCI-4809\maya\projects\default\images\home_run.0058.jpg" arWidth="1024" arHeight="768" duration="0" songTitle="" songArtist="" songAlbum="" />
    <MediaItem id="1687" filePath="F:\CSCI-4809\maya\projects\default\images\home_run.1686.jpg" arWidth="1024" arHeight="768" duration="0" songTitle="" songArtist="" songAlbum="" />
    <MediaItem id="60" filePath="F:\CSCI-4809\maya\projects\default\images\home_run.0059.jpg" arWidth="1024" arHeight="768" duration="0" songTitle="" songArtist="" songAlbum="" />
    <MediaItem id="1688" filePath="F:\CSCI-4809\maya\projects\default\images\home_run.1687.jpg" arWidth="1024" arHeight="768" duration="0" songTitle="" songArtist="" songAlbum="" />
    <MediaItem id="61" filePath="F:\CSCI-4809\maya\projects\default\images\home_run.0060.jpg" arWidth="1024" arHeight="768" duration="0" songTitle="" songArtist="" songAlbum="" />
    <MediaItem id="1689" filePath="F:\CSCI-4809\maya\projects\default\images\home_run.1688.jpg" arWidth="1024" arHeight="768" duration="0" songTitle="" songArtist="" songAlbum="" />
    <MediaItem id="62" filePath="F:\CSCI-4809\maya\projects\default\images\home_run.0061.jpg" arWidth="1024" arHeight="768" duration="0" songTitle="" songArtist="" songAlbum="" />
    <MediaItem id="1690" filePath="F:\CSCI-4809\maya\projects\default\images\home_run.1689.jpg" arWidth="1024" arHeight="768" duration="0" songTitle="" songArtist="" songAlbum="" />
    <MediaItem id="63" filePath="F:\CSCI-4809\maya\projects\default\images\home_run.0062.jpg" arWidth="1024" arHeight="768" duration="0" songTitle="" songArtist="" songAlbum="" />
    <MediaItem id="1691" filePath="F:\CSCI-4809\maya\projects\default\images\home_run.1690.jpg" arWidth="1024" arHeight="768" duration="0" songTitle="" songArtist="" songAlbum="" />
    <MediaItem id="64" filePath="F:\CSCI-4809\maya\projects\default\images\home_run.0063.jpg" arWidth="1024" arHeight="768" duration="0" songTitle="" songArtist="" songAlbum="" />
    <MediaItem id="1692" filePath="F:\CSCI-4809\maya\projects\default\images\home_run.1691.jpg" arWidth="1024" arHeight="768" duration="0" songTitle="" songArtist="" songAlbum="" />
    <MediaItem id="65" filePath="F:\CSCI-4809\maya\projects\default\images\home_run.0064.jpg" arWidth="1024" arHeight="768" duration="0" songTitle="" songArtist="" songAlbum="" />
    <MediaItem id="1693" filePath="F:\CSCI-4809\maya\projects\default\images\home_run.1692.jpg" arWidth="1024" arHeight="768" duration="0" songTitle="" songArtist="" songAlbum="" />
    <MediaItem id="66" filePath="F:\CSCI-4809\maya\projects\default\images\home_run.0065.jpg" arWidth="1024" arHeight="768" duration="0" songTitle="" songArtist="" songAlbum="" />
    <MediaItem id="1694" filePath="F:\CSCI-4809\maya\projects\default\images\home_run.1693.jpg" arWidth="1024" arHeight="768" duration="0" songTitle="" songArtist="" songAlbum="" />
    <MediaItem id="67" filePath="F:\CSCI-4809\maya\projects\default\images\home_run.0066.jpg" arWidth="1024" arHeight="768" duration="0" songTitle="" songArtist="" songAlbum="" />
    <MediaItem id="1695" filePath="F:\CSCI-4809\maya\projects\default\images\home_run.1694.jpg" arWidth="1024" arHeight="768" duration="0" songTitle="" songArtist="" songAlbum="" />
    <MediaItem id="68" filePath="F:\CSCI-4809\maya\projects\default\images\home_run.0067.jpg" arWidth="1024" arHeight="768" duration="0" songTitle="" songArtist="" songAlbum="" />
    <MediaItem id="1696" filePath="F:\CSCI-4809\maya\projects\default\images\home_run.1695.jpg" arWidth="1024" arHeight="768" duration="0" songTitle="" songArtist="" songAlbum="" />
    <MediaItem id="69" filePath="F:\CSCI-4809\maya\projects\default\images\home_run.0068.jpg" arWidth="1024" arHeight="768" duration="0" songTitle="" songArtist="" songAlbum="" />
    <MediaItem id="1697" filePath="F:\CSCI-4809\maya\projects\default\images\home_run.1696.jpg" arWidth="1024" arHeight="768" duration="0" songTitle="" songArtist="" songAlbum="" />
    <MediaItem id="70" filePath="F:\CSCI-4809\maya\projects\default\images\home_run.0069.jpg" arWidth="1024" arHeight="768" duration="0" songTitle="" songArtist="" songAlbum="" />
    <MediaItem id="1698" filePath="F:\CSCI-4809\maya\projects\default\images\home_run.1697.jpg" arWidth="1024" arHeight="768" duration="0" songTitle="" songArtist="" songAlbum="" />
    <MediaItem id="71" filePath="F:\CSCI-4809\maya\projects\default\images\home_run.0070.jpg" arWidth="1024" arHeight="768" duration="0" songTitle="" songArtist="" songAlbum="" />
    <MediaItem id="1699" filePath="F:\CSCI-4809\maya\projects\default\images\home_run.1698.jpg" arWidth="1024" arHeight="768" duration="0" songTitle="" songArtist="" songAlbum="" />
    <MediaItem id="72" filePath="F:\CSCI-4809\maya\projects\default\images\home_run.0071.jpg" arWidth="1024" arHeight="768" duration="0" songTitle="" songArtist="" songAlbum="" />
    <MediaItem id="1700" filePath="F:\CSCI-4809\maya\projects\default\images\home_run.1699.jpg" arWidth="1024" arHeight="768" duration="0" songTitle="" songArtist="" songAlbum="" />
    <MediaItem id="73" filePath="F:\CSCI-4809\maya\projects\default\images\home_run.0072.jpg" arWidth="1024" arHeight="768" duration="0" songTitle="" songArtist="" songAlbum="" />
    <MediaItem id="1701" filePath="F:\CSCI-4809\maya\projects\default\images\home_run.1700.jpg" arWidth="1024" arHeight="768" duration="0" songTitle="" songArtist="" songAlbum="" />
    <MediaItem id="74" filePath="F:\CSCI-4809\maya\projects\default\images\home_run.0073.jpg" arWidth="1024" arHeight="768" duration="0" songTitle="" songArtist="" songAlbum="" />
    <MediaItem id="1702" filePath="F:\CSCI-4809\maya\projects\default\images\home_run.1701.jpg" arWidth="1024" arHeight="768" duration="0" songTitle="" songArtist="" songAlbum="" />
    <MediaItem id="75" filePath="F:\CSCI-4809\maya\projects\default\images\home_run.0074.jpg" arWidth="1024" arHeight="768" duration="0" songTitle="" songArtist="" songAlbum="" />
    <MediaItem id="1703" filePath="F:\CSCI-4809\maya\projects\default\images\home_run.1702.jpg" arWidth="1024" arHeight="768" duration="0" songTitle="" songArtist="" songAlbum="" />
    <MediaItem id="76" filePath="F:\CSCI-4809\maya\projects\default\images\home_run.0075.jpg" arWidth="1024" arHeight="768" duration="0" songTitle="" songArtist="" songAlbum="" />
    <MediaItem id="1704" filePath="F:\CSCI-4809\maya\projects\default\images\home_run.1703.jpg" arWidth="1024" arHeight="768" duration="0" songTitle="" songArtist="" songAlbum="" />
    <MediaItem id="77" filePath="F:\CSCI-4809\maya\projects\default\images\home_run.0076.jpg" arWidth="1024" arHeight="768" duration="0" songTitle="" songArtist="" songAlbum="" />
    <MediaItem id="1705" filePath="F:\CSCI-4809\maya\projects\default\images\home_run.1704.jpg" arWidth="1024" arHeight="768" duration="0" songTitle="" songArtist="" songAlbum="" />
    <MediaItem id="78" filePath="F:\CSCI-4809\maya\projects\default\images\home_run.0077.jpg" arWidth="1024" arHeight="768" duration="0" songTitle="" songArtist="" songAlbum="" />
    <MediaItem id="1706" filePath="F:\CSCI-4809\maya\projects\default\images\home_run.1705.jpg" arWidth="1024" arHeight="768" duration="0" songTitle="" songArtist="" songAlbum="" />
    <MediaItem id="79" filePath="F:\CSCI-4809\maya\projects\default\images\home_run.0078.jpg" arWidth="1024" arHeight="768" duration="0" songTitle="" songArtist="" songAlbum="" />
    <MediaItem id="1707" filePath="F:\CSCI-4809\maya\projects\default\images\home_run.1706.jpg" arWidth="1024" arHeight="768" duration="0" songTitle="" songArtist="" songAlbum="" />
    <MediaItem id="80" filePath="F:\CSCI-4809\maya\projects\default\images\home_run.0079.jpg" arWidth="1024" arHeight="768" duration="0" songTitle="" songArtist="" songAlbum="" />
    <MediaItem id="1708" filePath="F:\CSCI-4809\maya\projects\default\images\home_run.1707.jpg" arWidth="1024" arHeight="768" duration="0" songTitle="" songArtist="" songAlbum="" />
    <MediaItem id="81" filePath="F:\CSCI-4809\maya\projects\default\images\home_run.0080.jpg" arWidth="1024" arHeight="768" duration="0" songTitle="" songArtist="" songAlbum="" />
    <MediaItem id="1709" filePath="F:\CSCI-4809\maya\projects\default\images\home_run.1708.jpg" arWidth="1024" arHeight="768" duration="0" songTitle="" songArtist="" songAlbum="" />
    <MediaItem id="82" filePath="F:\CSCI-4809\maya\projects\default\images\home_run.0081.jpg" arWidth="1024" arHeight="768" duration="0" songTitle="" songArtist="" songAlbum="" />
    <MediaItem id="1710" filePath="F:\CSCI-4809\maya\projects\default\images\home_run.1709.jpg" arWidth="1024" arHeight="768" duration="0" songTitle="" songArtist="" songAlbum="" />
    <MediaItem id="83" filePath="F:\CSCI-4809\maya\projects\default\images\home_run.0082.jpg" arWidth="1024" arHeight="768" duration="0" songTitle="" songArtist="" songAlbum="" />
    <MediaItem id="1711" filePath="F:\CSCI-4809\maya\projects\default\images\home_run.1710.jpg" arWidth="1024" arHeight="768" duration="0" songTitle="" songArtist="" songAlbum="" />
    <MediaItem id="84" filePath="F:\CSCI-4809\maya\projects\default\images\home_run.0083.jpg" arWidth="1024" arHeight="768" duration="0" songTitle="" songArtist="" songAlbum="" />
    <MediaItem id="1712" filePath="F:\CSCI-4809\maya\projects\default\images\home_run.1711.jpg" arWidth="1024" arHeight="768" duration="0" songTitle="" songArtist="" songAlbum="" />
    <MediaItem id="85" filePath="F:\CSCI-4809\maya\projects\default\images\home_run.0084.jpg" arWidth="1024" arHeight="768" duration="0" songTitle="" songArtist="" songAlbum="" />
    <MediaItem id="1713" filePath="F:\CSCI-4809\maya\projects\default\images\home_run.1712.jpg" arWidth="1024" arHeight="768" duration="0" songTitle="" songArtist="" songAlbum="" />
    <MediaItem id="86" filePath="F:\CSCI-4809\maya\projects\default\images\home_run.0085.jpg" arWidth="1024" arHeight="768" duration="0" songTitle="" songArtist="" songAlbum="" />
    <MediaItem id="1714" filePath="F:\CSCI-4809\maya\projects\default\images\home_run.1713.jpg" arWidth="1024" arHeight="768" duration="0" songTitle="" songArtist="" songAlbum="" />
    <MediaItem id="87" filePath="F:\CSCI-4809\maya\projects\default\images\home_run.0086.jpg" arWidth="1024" arHeight="768" duration="0" songTitle="" songArtist="" songAlbum="" />
    <MediaItem id="1715" filePath="F:\CSCI-4809\maya\projects\default\images\home_run.1714.jpg" arWidth="1024" arHeight="768" duration="0" songTitle="" songArtist="" songAlbum="" />
    <MediaItem id="88" filePath="F:\CSCI-4809\maya\projects\default\images\home_run.0087.jpg" arWidth="1024" arHeight="768" duration="0" songTitle="" songArtist="" songAlbum="" />
    <MediaItem id="1716" filePath="F:\CSCI-4809\maya\projects\default\images\home_run.1715.jpg" arWidth="1024" arHeight="768" duration="0" songTitle="" songArtist="" songAlbum="" />
    <MediaItem id="89" filePath="F:\CSCI-4809\maya\projects\default\images\home_run.0088.jpg" arWidth="1024" arHeight="768" duration="0" songTitle="" songArtist="" songAlbum="" />
    <MediaItem id="1717" filePath="F:\CSCI-4809\maya\projects\default\images\home_run.1716.jpg" arWidth="1024" arHeight="768" duration="0" songTitle="" songArtist="" songAlbum="" />
    <MediaItem id="90" filePath="F:\CSCI-4809\maya\projects\default\images\home_run.0089.jpg" arWidth="1024" arHeight="768" duration="0" songTitle="" songArtist="" songAlbum="" />
    <MediaItem id="1718" filePath="F:\CSCI-4809\maya\projects\default\images\home_run.1717.jpg" arWidth="1024" arHeight="768" duration="0" songTitle="" songArtist="" songAlbum="" />
    <MediaItem id="91" filePath="F:\CSCI-4809\maya\projects\default\images\home_run.0090.jpg" arWidth="1024" arHeight="768" duration="0" songTitle="" songArtist="" songAlbum="" />
    <MediaItem id="1719" filePath="F:\CSCI-4809\maya\projects\default\images\home_run.1718.jpg" arWidth="1024" arHeight="768" duration="0" songTitle="" songArtist="" songAlbum="" />
    <MediaItem id="92" filePath="F:\CSCI-4809\maya\projects\default\images\home_run.0091.jpg" arWidth="1024" arHeight="768" duration="0" songTitle="" songArtist="" songAlbum="" />
    <MediaItem id="1720" filePath="F:\CSCI-4809\maya\projects\default\images\home_run.1719.jpg" arWidth="1024" arHeight="768" duration="0" songTitle="" songArtist="" songAlbum="" />
    <MediaItem id="93" filePath="F:\CSCI-4809\maya\projects\default\images\home_run.0092.jpg" arWidth="1024" arHeight="768" duration="0" songTitle="" songArtist="" songAlbum="" />
    <MediaItem id="1721" filePath="F:\CSCI-4809\maya\projects\default\images\home_run.1720.jpg" arWidth="1024" arHeight="768" duration="0" songTitle="" songArtist="" songAlbum="" />
    <MediaItem id="94" filePath="F:\CSCI-4809\maya\projects\default\images\home_run.0093.jpg" arWidth="1024" arHeight="768" duration="0" songTitle="" songArtist="" songAlbum="" />
    <MediaItem id="1722" filePath="F:\CSCI-4809\maya\projects\default\images\home_run.1721.jpg" arWidth="1024" arHeight="768" duration="0" songTitle="" songArtist="" songAlbum="" />
    <MediaItem id="95" filePath="F:\CSCI-4809\maya\projects\default\images\home_run.0094.jpg" arWidth="1024" arHeight="768" duration="0" songTitle="" songArtist="" songAlbum="" />
    <MediaItem id="1723" filePath="F:\CSCI-4809\maya\projects\default\images\home_run.1722.jpg" arWidth="1024" arHeight="768" duration="0" songTitle="" songArtist="" songAlbum="" />
    <MediaItem id="96" filePath="F:\CSCI-4809\maya\projects\default\images\home_run.0095.jpg" arWidth="1024" arHeight="768" duration="0" songTitle="" songArtist="" songAlbum="" />
    <MediaItem id="1724" filePath="F:\CSCI-4809\maya\projects\default\images\home_run.1723.jpg" arWidth="1024" arHeight="768" duration="0" songTitle="" songArtist="" songAlbum="" />
    <MediaItem id="97" filePath="F:\CSCI-4809\maya\projects\default\images\home_run.0096.jpg" arWidth="1024" arHeight="768" duration="0" songTitle="" songArtist="" songAlbum="" />
    <MediaItem id="1725" filePath="F:\CSCI-4809\maya\projects\default\images\home_run.1724.jpg" arWidth="1024" arHeight="768" duration="0" songTitle="" songArtist="" songAlbum="" />
    <MediaItem id="98" filePath="F:\CSCI-4809\maya\projects\default\images\home_run.0097.jpg" arWidth="1024" arHeight="768" duration="0" songTitle="" songArtist="" songAlbum="" />
    <MediaItem id="1726" filePath="F:\CSCI-4809\maya\projects\default\images\home_run.1725.jpg" arWidth="1024" arHeight="768" duration="0" songTitle="" songArtist="" songAlbum="" />
    <MediaItem id="99" filePath="F:\CSCI-4809\maya\projects\default\images\home_run.0098.jpg" arWidth="1024" arHeight="768" duration="0" songTitle="" songArtist="" songAlbum="" />
    <MediaItem id="1727" filePath="F:\CSCI-4809\maya\projects\default\images\home_run.1726.jpg" arWidth="1024" arHeight="768" duration="0" songTitle="" songArtist="" songAlbum="" />
    <MediaItem id="100" filePath="F:\CSCI-4809\maya\projects\default\images\home_run.0099.jpg" arWidth="1024" arHeight="768" duration="0" songTitle="" songArtist="" songAlbum="" />
    <MediaItem id="1728" filePath="F:\CSCI-4809\maya\projects\default\images\home_run.1727.jpg" arWidth="1024" arHeight="768" duration="0" songTitle="" songArtist="" songAlbum="" />
    <MediaItem id="101" filePath="F:\CSCI-4809\maya\projects\default\images\home_run.0100.jpg" arWidth="1024" arHeight="768" duration="0" songTitle="" songArtist="" songAlbum="" />
    <MediaItem id="1729" filePath="F:\CSCI-4809\maya\projects\default\images\home_run.1728.jpg" arWidth="1024" arHeight="768" duration="0" songTitle="" songArtist="" songAlbum="" />
    <MediaItem id="102" filePath="F:\CSCI-4809\maya\projects\default\images\home_run.0101.jpg" arWidth="1024" arHeight="768" duration="0" songTitle="" songArtist="" songAlbum="" />
    <MediaItem id="1730" filePath="F:\CSCI-4809\maya\projects\default\images\home_run.1729.jpg" arWidth="1024" arHeight="768" duration="0" songTitle="" songArtist="" songAlbum="" />
    <MediaItem id="103" filePath="F:\CSCI-4809\maya\projects\default\images\home_run.0102.jpg" arWidth="1024" arHeight="768" duration="0" songTitle="" songArtist="" songAlbum="" />
    <MediaItem id="1731" filePath="F:\CSCI-4809\maya\projects\default\images\home_run.1730.jpg" arWidth="1024" arHeight="768" duration="0" songTitle="" songArtist="" songAlbum="" />
    <MediaItem id="104" filePath="F:\CSCI-4809\maya\projects\default\images\home_run.0103.jpg" arWidth="1024" arHeight="768" duration="0" songTitle="" songArtist="" songAlbum="" />
    <MediaItem id="1732" filePath="F:\CSCI-4809\maya\projects\default\images\home_run.1731.jpg" arWidth="1024" arHeight="768" duration="0" songTitle="" songArtist="" songAlbum="" />
    <MediaItem id="105" filePath="F:\CSCI-4809\maya\projects\default\images\home_run.0104.jpg" arWidth="1024" arHeight="768" duration="0" songTitle="" songArtist="" songAlbum="" />
    <MediaItem id="1733" filePath="F:\CSCI-4809\maya\projects\default\images\home_run.1732.jpg" arWidth="1024" arHeight="768" duration="0" songTitle="" songArtist="" songAlbum="" />
    <MediaItem id="106" filePath="F:\CSCI-4809\maya\projects\default\images\home_run.0105.jpg" arWidth="1024" arHeight="768" duration="0" songTitle="" songArtist="" songAlbum="" />
    <MediaItem id="1734" filePath="F:\CSCI-4809\maya\projects\default\images\home_run.1733.jpg" arWidth="1024" arHeight="768" duration="0" songTitle="" songArtist="" songAlbum="" />
    <MediaItem id="107" filePath="F:\CSCI-4809\maya\projects\default\images\home_run.0106.jpg" arWidth="1024" arHeight="768" duration="0" songTitle="" songArtist="" songAlbum="" />
    <MediaItem id="1735" filePath="F:\CSCI-4809\maya\projects\default\images\home_run.1734.jpg" arWidth="1024" arHeight="768" duration="0" songTitle="" songArtist="" songAlbum="" />
    <MediaItem id="108" filePath="F:\CSCI-4809\maya\projects\default\images\home_run.0107.jpg" arWidth="1024" arHeight="768" duration="0" songTitle="" songArtist="" songAlbum="" />
    <MediaItem id="1736" filePath="F:\CSCI-4809\maya\projects\default\images\home_run.1735.jpg" arWidth="1024" arHeight="768" duration="0" songTitle="" songArtist="" songAlbum="" />
    <MediaItem id="109" filePath="F:\CSCI-4809\maya\projects\default\images\home_run.0108.jpg" arWidth="1024" arHeight="768" duration="0" songTitle="" songArtist="" songAlbum="" />
    <MediaItem id="1737" filePath="F:\CSCI-4809\maya\projects\default\images\home_run.1736.jpg" arWidth="1024" arHeight="768" duration="0" songTitle="" songArtist="" songAlbum="" />
    <MediaItem id="110" filePath="F:\CSCI-4809\maya\projects\default\images\home_run.0109.jpg" arWidth="1024" arHeight="768" duration="0" songTitle="" songArtist="" songAlbum="" />
    <MediaItem id="1738" filePath="F:\CSCI-4809\maya\projects\default\images\home_run.1737.jpg" arWidth="1024" arHeight="768" duration="0" songTitle="" songArtist="" songAlbum="" />
    <MediaItem id="111" filePath="F:\CSCI-4809\maya\projects\default\images\home_run.0110.jpg" arWidth="1024" arHeight="768" duration="0" songTitle="" songArtist="" songAlbum="" />
    <MediaItem id="1739" filePath="F:\CSCI-4809\maya\projects\default\images\home_run.1738.jpg" arWidth="1024" arHeight="768" duration="0" songTitle="" songArtist="" songAlbum="" />
    <MediaItem id="112" filePath="F:\CSCI-4809\maya\projects\default\images\home_run.0111.jpg" arWidth="1024" arHeight="768" duration="0" songTitle="" songArtist="" songAlbum="" />
    <MediaItem id="1740" filePath="F:\CSCI-4809\maya\projects\default\images\home_run.1739.jpg" arWidth="1024" arHeight="768" duration="0" songTitle="" songArtist="" songAlbum="" />
    <MediaItem id="113" filePath="F:\CSCI-4809\maya\projects\default\images\home_run.0112.jpg" arWidth="1024" arHeight="768" duration="0" songTitle="" songArtist="" songAlbum="" />
    <MediaItem id="1741" filePath="F:\CSCI-4809\maya\projects\default\images\home_run.1740.jpg" arWidth="1024" arHeight="768" duration="0" songTitle="" songArtist="" songAlbum="" />
    <MediaItem id="114" filePath="F:\CSCI-4809\maya\projects\default\images\home_run.0113.jpg" arWidth="1024" arHeight="768" duration="0" songTitle="" songArtist="" songAlbum="" />
    <MediaItem id="1742" filePath="F:\CSCI-4809\maya\projects\default\images\home_run.1741.jpg" arWidth="1024" arHeight="768" duration="0" songTitle="" songArtist="" songAlbum="" />
    <MediaItem id="115" filePath="F:\CSCI-4809\maya\projects\default\images\home_run.0114.jpg" arWidth="1024" arHeight="768" duration="0" songTitle="" songArtist="" songAlbum="" />
    <MediaItem id="1743" filePath="F:\CSCI-4809\maya\projects\default\images\home_run.1742.jpg" arWidth="1024" arHeight="768" duration="0" songTitle="" songArtist="" songAlbum="" />
    <MediaItem id="116" filePath="F:\CSCI-4809\maya\projects\default\images\home_run.0115.jpg" arWidth="1024" arHeight="768" duration="0" songTitle="" songArtist="" songAlbum="" />
    <MediaItem id="1744" filePath="F:\CSCI-4809\maya\projects\default\images\home_run.1743.jpg" arWidth="1024" arHeight="768" duration="0" songTitle="" songArtist="" songAlbum="" />
    <MediaItem id="117" filePath="F:\CSCI-4809\maya\projects\default\images\home_run.0116.jpg" arWidth="1024" arHeight="768" duration="0" songTitle="" songArtist="" songAlbum="" />
    <MediaItem id="1745" filePath="F:\CSCI-4809\maya\projects\default\images\home_run.1744.jpg" arWidth="1024" arHeight="768" duration="0" songTitle="" songArtist="" songAlbum="" />
    <MediaItem id="118" filePath="F:\CSCI-4809\maya\projects\default\images\home_run.0117.jpg" arWidth="1024" arHeight="768" duration="0" songTitle="" songArtist="" songAlbum="" />
    <MediaItem id="1746" filePath="F:\CSCI-4809\maya\projects\default\images\home_run.1745.jpg" arWidth="1024" arHeight="768" duration="0" songTitle="" songArtist="" songAlbum="" />
    <MediaItem id="119" filePath="F:\CSCI-4809\maya\projects\default\images\home_run.0118.jpg" arWidth="1024" arHeight="768" duration="0" songTitle="" songArtist="" songAlbum="" />
    <MediaItem id="1747" filePath="F:\CSCI-4809\maya\projects\default\images\home_run.1746.jpg" arWidth="1024" arHeight="768" duration="0" songTitle="" songArtist="" songAlbum="" />
    <MediaItem id="120" filePath="F:\CSCI-4809\maya\projects\default\images\home_run.0119.jpg" arWidth="1024" arHeight="768" duration="0" songTitle="" songArtist="" songAlbum="" />
    <MediaItem id="1748" filePath="F:\CSCI-4809\maya\projects\default\images\home_run.1747.jpg" arWidth="1024" arHeight="768" duration="0" songTitle="" songArtist="" songAlbum="" />
    <MediaItem id="121" filePath="F:\CSCI-4809\maya\projects\default\images\home_run.0120.jpg" arWidth="1024" arHeight="768" duration="0" songTitle="" songArtist="" songAlbum="" />
    <MediaItem id="1749" filePath="F:\CSCI-4809\maya\projects\default\images\home_run.1748.jpg" arWidth="1024" arHeight="768" duration="0" songTitle="" songArtist="" songAlbum="" />
    <MediaItem id="122" filePath="F:\CSCI-4809\maya\projects\default\images\home_run.0121.jpg" arWidth="1024" arHeight="768" duration="0" songTitle="" songArtist="" songAlbum="" />
    <MediaItem id="1750" filePath="F:\CSCI-4809\maya\projects\default\images\home_run.1749.jpg" arWidth="1024" arHeight="768" duration="0" songTitle="" songArtist="" songAlbum="" />
    <MediaItem id="123" filePath="F:\CSCI-4809\maya\projects\default\images\home_run.0122.jpg" arWidth="1024" arHeight="768" duration="0" songTitle="" songArtist="" songAlbum="" />
    <MediaItem id="1751" filePath="F:\CSCI-4809\maya\projects\default\images\home_run.1750.jpg" arWidth="1024" arHeight="768" duration="0" songTitle="" songArtist="" songAlbum="" />
    <MediaItem id="124" filePath="F:\CSCI-4809\maya\projects\default\images\home_run.0123.jpg" arWidth="1024" arHeight="768" duration="0" songTitle="" songArtist="" songAlbum="" />
    <MediaItem id="1752" filePath="F:\CSCI-4809\maya\projects\default\images\home_run.1751.jpg" arWidth="1024" arHeight="768" duration="0" songTitle="" songArtist="" songAlbum="" />
    <MediaItem id="125" filePath="F:\CSCI-4809\maya\projects\default\images\home_run.0124.jpg" arWidth="1024" arHeight="768" duration="0" songTitle="" songArtist="" songAlbum="" />
    <MediaItem id="1753" filePath="F:\CSCI-4809\maya\projects\default\images\home_run.1752.jpg" arWidth="1024" arHeight="768" duration="0" songTitle="" songArtist="" songAlbum="" />
    <MediaItem id="126" filePath="F:\CSCI-4809\maya\projects\default\images\home_run.0125.jpg" arWidth="1024" arHeight="768" duration="0" songTitle="" songArtist="" songAlbum="" />
    <MediaItem id="1754" filePath="F:\CSCI-4809\maya\projects\default\images\home_run.1753.jpg" arWidth="1024" arHeight="768" duration="0" songTitle="" songArtist="" songAlbum="" />
    <MediaItem id="127" filePath="F:\CSCI-4809\maya\projects\default\images\home_run.0126.jpg" arWidth="1024" arHeight="768" duration="0" songTitle="" songArtist="" songAlbum="" />
    <MediaItem id="1755" filePath="F:\CSCI-4809\maya\projects\default\images\home_run.1754.jpg" arWidth="1024" arHeight="768" duration="0" songTitle="" songArtist="" songAlbum="" />
    <MediaItem id="128" filePath="F:\CSCI-4809\maya\projects\default\images\home_run.0127.jpg" arWidth="1024" arHeight="768" duration="0" songTitle="" songArtist="" songAlbum="" />
    <MediaItem id="1756" filePath="F:\CSCI-4809\maya\projects\default\images\home_run.1755.jpg" arWidth="1024" arHeight="768" duration="0" songTitle="" songArtist="" songAlbum="" />
    <MediaItem id="129" filePath="F:\CSCI-4809\maya\projects\default\images\home_run.0128.jpg" arWidth="1024" arHeight="768" duration="0" songTitle="" songArtist="" songAlbum="" />
    <MediaItem id="1757" filePath="F:\CSCI-4809\maya\projects\default\images\home_run.1756.jpg" arWidth="1024" arHeight="768" duration="0" songTitle="" songArtist="" songAlbum="" />
    <MediaItem id="130" filePath="F:\CSCI-4809\maya\projects\default\images\home_run.0129.jpg" arWidth="1024" arHeight="768" duration="0" songTitle="" songArtist="" songAlbum="" />
    <MediaItem id="1758" filePath="F:\CSCI-4809\maya\projects\default\images\home_run.1757.jpg" arWidth="1024" arHeight="768" duration="0" songTitle="" songArtist="" songAlbum="" />
    <MediaItem id="131" filePath="F:\CSCI-4809\maya\projects\default\images\home_run.0130.jpg" arWidth="1024" arHeight="768" duration="0" songTitle="" songArtist="" songAlbum="" />
    <MediaItem id="1759" filePath="F:\CSCI-4809\maya\projects\default\images\home_run.1758.jpg" arWidth="1024" arHeight="768" duration="0" songTitle="" songArtist="" songAlbum="" />
    <MediaItem id="132" filePath="F:\CSCI-4809\maya\projects\default\images\home_run.0131.jpg" arWidth="1024" arHeight="768" duration="0" songTitle="" songArtist="" songAlbum="" />
    <MediaItem id="1760" filePath="F:\CSCI-4809\maya\projects\default\images\home_run.1759.jpg" arWidth="1024" arHeight="768" duration="0" songTitle="" songArtist="" songAlbum="" />
    <MediaItem id="133" filePath="F:\CSCI-4809\maya\projects\default\images\home_run.0132.jpg" arWidth="1024" arHeight="768" duration="0" songTitle="" songArtist="" songAlbum="" />
    <MediaItem id="1761" filePath="F:\CSCI-4809\maya\projects\default\images\home_run.1760.jpg" arWidth="1024" arHeight="768" duration="0" songTitle="" songArtist="" songAlbum="" />
    <MediaItem id="134" filePath="F:\CSCI-4809\maya\projects\default\images\home_run.0133.jpg" arWidth="1024" arHeight="768" duration="0" songTitle="" songArtist="" songAlbum="" />
    <MediaItem id="1762" filePath="F:\CSCI-4809\maya\projects\default\images\home_run.1761.jpg" arWidth="1024" arHeight="768" duration="0" songTitle="" songArtist="" songAlbum="" />
    <MediaItem id="135" filePath="F:\CSCI-4809\maya\projects\default\images\home_run.0134.jpg" arWidth="1024" arHeight="768" duration="0" songTitle="" songArtist="" songAlbum="" />
    <MediaItem id="1763" filePath="F:\CSCI-4809\maya\projects\default\images\home_run.1762.jpg" arWidth="1024" arHeight="768" duration="0" songTitle="" songArtist="" songAlbum="" />
    <MediaItem id="136" filePath="F:\CSCI-4809\maya\projects\default\images\home_run.0135.jpg" arWidth="1024" arHeight="768" duration="0" songTitle="" songArtist="" songAlbum="" />
    <MediaItem id="1764" filePath="F:\CSCI-4809\maya\projects\default\images\home_run.1763.jpg" arWidth="1024" arHeight="768" duration="0" songTitle="" songArtist="" songAlbum="" />
    <MediaItem id="137" filePath="F:\CSCI-4809\maya\projects\default\images\home_run.0136.jpg" arWidth="1024" arHeight="768" duration="0" songTitle="" songArtist="" songAlbum="" />
    <MediaItem id="1765" filePath="F:\CSCI-4809\maya\projects\default\images\home_run.1764.jpg" arWidth="1024" arHeight="768" duration="0" songTitle="" songArtist="" songAlbum="" />
    <MediaItem id="138" filePath="F:\CSCI-4809\maya\projects\default\images\home_run.0137.jpg" arWidth="1024" arHeight="768" duration="0" songTitle="" songArtist="" songAlbum="" />
    <MediaItem id="1766" filePath="F:\CSCI-4809\maya\projects\default\images\home_run.1765.jpg" arWidth="1024" arHeight="768" duration="0" songTitle="" songArtist="" songAlbum="" />
    <MediaItem id="139" filePath="F:\CSCI-4809\maya\projects\default\images\home_run.0138.jpg" arWidth="1024" arHeight="768" duration="0" songTitle="" songArtist="" songAlbum="" />
    <MediaItem id="1767" filePath="F:\CSCI-4809\maya\projects\default\images\home_run.1766.jpg" arWidth="1024" arHeight="768" duration="0" songTitle="" songArtist="" songAlbum="" />
    <MediaItem id="140" filePath="F:\CSCI-4809\maya\projects\default\images\home_run.0139.jpg" arWidth="1024" arHeight="768" duration="0" songTitle="" songArtist="" songAlbum="" />
    <MediaItem id="1768" filePath="F:\CSCI-4809\maya\projects\default\images\home_run.1767.jpg" arWidth="1024" arHeight="768" duration="0" songTitle="" songArtist="" songAlbum="" />
    <MediaItem id="141" filePath="F:\CSCI-4809\maya\projects\default\images\home_run.0140.jpg" arWidth="1024" arHeight="768" duration="0" songTitle="" songArtist="" songAlbum="" />
    <MediaItem id="1769" filePath="F:\CSCI-4809\maya\projects\default\images\home_run.1768.jpg" arWidth="1024" arHeight="768" duration="0" songTitle="" songArtist="" songAlbum="" />
    <MediaItem id="142" filePath="F:\CSCI-4809\maya\projects\default\images\home_run.0141.jpg" arWidth="1024" arHeight="768" duration="0" songTitle="" songArtist="" songAlbum="" />
    <MediaItem id="1770" filePath="F:\CSCI-4809\maya\projects\default\images\home_run.1769.jpg" arWidth="1024" arHeight="768" duration="0" songTitle="" songArtist="" songAlbum="" />
    <MediaItem id="143" filePath="F:\CSCI-4809\maya\projects\default\images\home_run.0142.jpg" arWidth="1024" arHeight="768" duration="0" songTitle="" songArtist="" songAlbum="" />
    <MediaItem id="1771" filePath="F:\CSCI-4809\maya\projects\default\images\home_run.1770.jpg" arWidth="1024" arHeight="768" duration="0" songTitle="" songArtist="" songAlbum="" />
    <MediaItem id="144" filePath="F:\CSCI-4809\maya\projects\default\images\home_run.0143.jpg" arWidth="1024" arHeight="768" duration="0" songTitle="" songArtist="" songAlbum="" />
    <MediaItem id="1772" filePath="F:\CSCI-4809\maya\projects\default\images\home_run.1771.jpg" arWidth="1024" arHeight="768" duration="0" songTitle="" songArtist="" songAlbum="" />
    <MediaItem id="145" filePath="F:\CSCI-4809\maya\projects\default\images\home_run.0144.jpg" arWidth="1024" arHeight="768" duration="0" songTitle="" songArtist="" songAlbum="" />
    <MediaItem id="1773" filePath="F:\CSCI-4809\maya\projects\default\images\home_run.1772.jpg" arWidth="1024" arHeight="768" duration="0" songTitle="" songArtist="" songAlbum="" />
    <MediaItem id="146" filePath="F:\CSCI-4809\maya\projects\default\images\home_run.0145.jpg" arWidth="1024" arHeight="768" duration="0" songTitle="" songArtist="" songAlbum="" />
    <MediaItem id="1774" filePath="F:\CSCI-4809\maya\projects\default\images\home_run.1773.jpg" arWidth="1024" arHeight="768" duration="0" songTitle="" songArtist="" songAlbum="" />
    <MediaItem id="147" filePath="F:\CSCI-4809\maya\projects\default\images\home_run.0146.jpg" arWidth="1024" arHeight="768" duration="0" songTitle="" songArtist="" songAlbum="" />
    <MediaItem id="1775" filePath="F:\CSCI-4809\maya\projects\default\images\home_run.1774.jpg" arWidth="1024" arHeight="768" duration="0" songTitle="" songArtist="" songAlbum="" />
    <MediaItem id="148" filePath="F:\CSCI-4809\maya\projects\default\images\home_run.0147.jpg" arWidth="1024" arHeight="768" duration="0" songTitle="" songArtist="" songAlbum="" />
    <MediaItem id="1776" filePath="F:\CSCI-4809\maya\projects\default\images\home_run.1775.jpg" arWidth="1024" arHeight="768" duration="0" songTitle="" songArtist="" songAlbum="" />
    <MediaItem id="149" filePath="F:\CSCI-4809\maya\projects\default\images\home_run.0148.jpg" arWidth="1024" arHeight="768" duration="0" songTitle="" songArtist="" songAlbum="" />
    <MediaItem id="1777" filePath="F:\CSCI-4809\maya\projects\default\images\home_run.1776.jpg" arWidth="1024" arHeight="768" duration="0" songTitle="" songArtist="" songAlbum="" />
    <MediaItem id="150" filePath="F:\CSCI-4809\maya\projects\default\images\home_run.0149.jpg" arWidth="1024" arHeight="768" duration="0" songTitle="" songArtist="" songAlbum="" />
    <MediaItem id="1778" filePath="F:\CSCI-4809\maya\projects\default\images\home_run.1777.jpg" arWidth="1024" arHeight="768" duration="0" songTitle="" songArtist="" songAlbum="" />
    <MediaItem id="151" filePath="F:\CSCI-4809\maya\projects\default\images\home_run.0150.jpg" arWidth="1024" arHeight="768" duration="0" songTitle="" songArtist="" songAlbum="" />
    <MediaItem id="1779" filePath="F:\CSCI-4809\maya\projects\default\images\home_run.1778.jpg" arWidth="1024" arHeight="768" duration="0" songTitle="" songArtist="" songAlbum="" />
    <MediaItem id="152" filePath="F:\CSCI-4809\maya\projects\default\images\home_run.0151.jpg" arWidth="1024" arHeight="768" duration="0" songTitle="" songArtist="" songAlbum="" />
    <MediaItem id="1780" filePath="F:\CSCI-4809\maya\projects\default\images\home_run.1779.jpg" arWidth="1024" arHeight="768" duration="0" songTitle="" songArtist="" songAlbum="" />
    <MediaItem id="153" filePath="F:\CSCI-4809\maya\projects\default\images\home_run.0152.jpg" arWidth="1024" arHeight="768" duration="0" songTitle="" songArtist="" songAlbum="" />
    <MediaItem id="1781" filePath="F:\CSCI-4809\maya\projects\default\images\home_run.1780.jpg" arWidth="1024" arHeight="768" duration="0" songTitle="" songArtist="" songAlbum="" />
    <MediaItem id="154" filePath="F:\CSCI-4809\maya\projects\default\images\home_run.0153.jpg" arWidth="1024" arHeight="768" duration="0" songTitle="" songArtist="" songAlbum="" />
    <MediaItem id="1782" filePath="F:\CSCI-4809\maya\projects\default\images\home_run.1781.jpg" arWidth="1024" arHeight="768" duration="0" songTitle="" songArtist="" songAlbum="" />
    <MediaItem id="155" filePath="F:\CSCI-4809\maya\projects\default\images\home_run.0154.jpg" arWidth="1024" arHeight="768" duration="0" songTitle="" songArtist="" songAlbum="" />
    <MediaItem id="1783" filePath="F:\CSCI-4809\maya\projects\default\images\home_run.1782.jpg" arWidth="1024" arHeight="768" duration="0" songTitle="" songArtist="" songAlbum="" />
    <MediaItem id="156" filePath="F:\CSCI-4809\maya\projects\default\images\home_run.0155.jpg" arWidth="1024" arHeight="768" duration="0" songTitle="" songArtist="" songAlbum="" />
    <MediaItem id="1784" filePath="F:\CSCI-4809\maya\projects\default\images\home_run.1783.jpg" arWidth="1024" arHeight="768" duration="0" songTitle="" songArtist="" songAlbum="" />
    <MediaItem id="157" filePath="F:\CSCI-4809\maya\projects\default\images\home_run.0156.jpg" arWidth="1024" arHeight="768" duration="0" songTitle="" songArtist="" songAlbum="" />
    <MediaItem id="1785" filePath="F:\CSCI-4809\maya\projects\default\images\home_run.1784.jpg" arWidth="1024" arHeight="768" duration="0" songTitle="" songArtist="" songAlbum="" />
    <MediaItem id="158" filePath="F:\CSCI-4809\maya\projects\default\images\home_run.0157.jpg" arWidth="1024" arHeight="768" duration="0" songTitle="" songArtist="" songAlbum="" />
    <MediaItem id="1786" filePath="F:\CSCI-4809\maya\projects\default\images\home_run.1785.jpg" arWidth="1024" arHeight="768" duration="0" songTitle="" songArtist="" songAlbum="" />
    <MediaItem id="159" filePath="F:\CSCI-4809\maya\projects\default\images\home_run.0158.jpg" arWidth="1024" arHeight="768" duration="0" songTitle="" songArtist="" songAlbum="" />
    <MediaItem id="1787" filePath="F:\CSCI-4809\maya\projects\default\images\home_run.1786.jpg" arWidth="1024" arHeight="768" duration="0" songTitle="" songArtist="" songAlbum="" />
    <MediaItem id="160" filePath="F:\CSCI-4809\maya\projects\default\images\home_run.0159.jpg" arWidth="1024" arHeight="768" duration="0" songTitle="" songArtist="" songAlbum="" />
    <MediaItem id="1788" filePath="F:\CSCI-4809\maya\projects\default\images\home_run.1787.jpg" arWidth="1024" arHeight="768" duration="0" songTitle="" songArtist="" songAlbum="" />
    <MediaItem id="161" filePath="F:\CSCI-4809\maya\projects\default\images\home_run.0160.jpg" arWidth="1024" arHeight="768" duration="0" songTitle="" songArtist="" songAlbum="" />
    <MediaItem id="1789" filePath="F:\CSCI-4809\maya\projects\default\images\home_run.1788.jpg" arWidth="1024" arHeight="768" duration="0" songTitle="" songArtist="" songAlbum="" />
    <MediaItem id="162" filePath="F:\CSCI-4809\maya\projects\default\images\home_run.0161.jpg" arWidth="1024" arHeight="768" duration="0" songTitle="" songArtist="" songAlbum="" />
    <MediaItem id="1790" filePath="F:\CSCI-4809\maya\projects\default\images\home_run.1789.jpg" arWidth="1024" arHeight="768" duration="0" songTitle="" songArtist="" songAlbum="" />
    <MediaItem id="163" filePath="F:\CSCI-4809\maya\projects\default\images\home_run.0162.jpg" arWidth="1024" arHeight="768" duration="0" songTitle="" songArtist="" songAlbum="" />
    <MediaItem id="1791" filePath="F:\CSCI-4809\maya\projects\default\images\home_run.1790.jpg" arWidth="1024" arHeight="768" duration="0" songTitle="" songArtist="" songAlbum="" />
    <MediaItem id="164" filePath="F:\CSCI-4809\maya\projects\default\images\home_run.0163.jpg" arWidth="1024" arHeight="768" duration="0" songTitle="" songArtist="" songAlbum="" />
    <MediaItem id="1792" filePath="F:\CSCI-4809\maya\projects\default\images\home_run.1791.jpg" arWidth="1024" arHeight="768" duration="0" songTitle="" songArtist="" songAlbum="" />
    <MediaItem id="165" filePath="F:\CSCI-4809\maya\projects\default\images\home_run.0164.jpg" arWidth="1024" arHeight="768" duration="0" songTitle="" songArtist="" songAlbum="" />
    <MediaItem id="1793" filePath="F:\CSCI-4809\maya\projects\default\images\home_run.1792.jpg" arWidth="1024" arHeight="768" duration="0" songTitle="" songArtist="" songAlbum="" />
    <MediaItem id="166" filePath="F:\CSCI-4809\maya\projects\default\images\home_run.0165.jpg" arWidth="1024" arHeight="768" duration="0" songTitle="" songArtist="" songAlbum="" />
    <MediaItem id="1794" filePath="F:\CSCI-4809\maya\projects\default\images\home_run.1793.jpg" arWidth="1024" arHeight="768" duration="0" songTitle="" songArtist="" songAlbum="" />
    <MediaItem id="167" filePath="F:\CSCI-4809\maya\projects\default\images\home_run.0166.jpg" arWidth="1024" arHeight="768" duration="0" songTitle="" songArtist="" songAlbum="" />
    <MediaItem id="1795" filePath="F:\CSCI-4809\maya\projects\default\images\home_run.1794.jpg" arWidth="1024" arHeight="768" duration="0" songTitle="" songArtist="" songAlbum="" />
    <MediaItem id="168" filePath="F:\CSCI-4809\maya\projects\default\images\home_run.0167.jpg" arWidth="1024" arHeight="768" duration="0" songTitle="" songArtist="" songAlbum="" />
    <MediaItem id="1796" filePath="F:\CSCI-4809\maya\projects\default\images\home_run.1795.jpg" arWidth="1024" arHeight="768" duration="0" songTitle="" songArtist="" songAlbum="" />
    <MediaItem id="169" filePath="F:\CSCI-4809\maya\projects\default\images\home_run.0168.jpg" arWidth="1024" arHeight="768" duration="0" songTitle="" songArtist="" songAlbum="" />
    <MediaItem id="1797" filePath="F:\CSCI-4809\maya\projects\default\images\home_run.1796.jpg" arWidth="1024" arHeight="768" duration="0" songTitle="" songArtist="" songAlbum="" />
    <MediaItem id="170" filePath="F:\CSCI-4809\maya\projects\default\images\home_run.0169.jpg" arWidth="1024" arHeight="768" duration="0" songTitle="" songArtist="" songAlbum="" />
    <MediaItem id="1798" filePath="F:\CSCI-4809\maya\projects\default\images\home_run.1797.jpg" arWidth="1024" arHeight="768" duration="0" songTitle="" songArtist="" songAlbum="" />
    <MediaItem id="171" filePath="F:\CSCI-4809\maya\projects\default\images\home_run.0170.jpg" arWidth="1024" arHeight="768" duration="0" songTitle="" songArtist="" songAlbum="" />
    <MediaItem id="1799" filePath="F:\CSCI-4809\maya\projects\default\images\home_run.1798.jpg" arWidth="1024" arHeight="768" duration="0" songTitle="" songArtist="" songAlbum="" />
    <MediaItem id="172" filePath="F:\CSCI-4809\maya\projects\default\images\home_run.0171.jpg" arWidth="1024" arHeight="768" duration="0" songTitle="" songArtist="" songAlbum="" />
    <MediaItem id="1800" filePath="F:\CSCI-4809\maya\projects\default\images\home_run.1799.jpg" arWidth="1024" arHeight="768" duration="0" songTitle="" songArtist="" songAlbum="" />
    <MediaItem id="173" filePath="F:\CSCI-4809\maya\projects\default\images\home_run.0172.jpg" arWidth="1024" arHeight="768" duration="0" songTitle="" songArtist="" songAlbum="" />
    <MediaItem id="1801" filePath="F:\CSCI-4809\maya\projects\default\images\home_run.1800.jpg" arWidth="1024" arHeight="768" duration="0" songTitle="" songArtist="" songAlbum="" />
    <MediaItem id="174" filePath="F:\CSCI-4809\maya\projects\default\images\home_run.0173.jpg" arWidth="1024" arHeight="768" duration="0" songTitle="" songArtist="" songAlbum="" />
    <MediaItem id="1802" filePath="F:\CSCI-4809\maya\projects\default\images\home_run.1801.jpg" arWidth="1024" arHeight="768" duration="0" songTitle="" songArtist="" songAlbum="" />
    <MediaItem id="175" filePath="F:\CSCI-4809\maya\projects\default\images\home_run.0174.jpg" arWidth="1024" arHeight="768" duration="0" songTitle="" songArtist="" songAlbum="" />
    <MediaItem id="1803" filePath="F:\CSCI-4809\maya\projects\default\images\home_run.1802.jpg" arWidth="1024" arHeight="768" duration="0" songTitle="" songArtist="" songAlbum="" />
    <MediaItem id="176" filePath="F:\CSCI-4809\maya\projects\default\images\home_run.0175.jpg" arWidth="1024" arHeight="768" duration="0" songTitle="" songArtist="" songAlbum="" />
    <MediaItem id="1804" filePath="F:\CSCI-4809\maya\projects\default\images\home_run.1803.jpg" arWidth="1024" arHeight="768" duration="0" songTitle="" songArtist="" songAlbum="" />
    <MediaItem id="177" filePath="F:\CSCI-4809\maya\projects\default\images\home_run.0176.jpg" arWidth="1024" arHeight="768" duration="0" songTitle="" songArtist="" songAlbum="" />
    <MediaItem id="1805" filePath="F:\CSCI-4809\maya\projects\default\images\home_run.1804.jpg" arWidth="1024" arHeight="768" duration="0" songTitle="" songArtist="" songAlbum="" />
    <MediaItem id="178" filePath="F:\CSCI-4809\maya\projects\default\images\home_run.0177.jpg" arWidth="1024" arHeight="768" duration="0" songTitle="" songArtist="" songAlbum="" />
    <MediaItem id="1806" filePath="F:\CSCI-4809\maya\projects\default\images\home_run.1805.jpg" arWidth="1024" arHeight="768" duration="0" songTitle="" songArtist="" songAlbum="" />
    <MediaItem id="179" filePath="F:\CSCI-4809\maya\projects\default\images\home_run.0178.jpg" arWidth="1024" arHeight="768" duration="0" songTitle="" songArtist="" songAlbum="" />
    <MediaItem id="1807" filePath="F:\CSCI-4809\maya\projects\default\images\home_run.1806.jpg" arWidth="1024" arHeight="768" duration="0" songTitle="" songArtist="" songAlbum="" />
    <MediaItem id="180" filePath="F:\CSCI-4809\maya\projects\default\images\home_run.0179.jpg" arWidth="1024" arHeight="768" duration="0" songTitle="" songArtist="" songAlbum="" />
    <MediaItem id="1808" filePath="F:\CSCI-4809\maya\projects\default\images\home_run.1807.jpg" arWidth="1024" arHeight="768" duration="0" songTitle="" songArtist="" songAlbum="" />
    <MediaItem id="181" filePath="F:\CSCI-4809\maya\projects\default\images\home_run.0180.jpg" arWidth="1024" arHeight="768" duration="0" songTitle="" songArtist="" songAlbum="" />
    <MediaItem id="1809" filePath="F:\CSCI-4809\maya\projects\default\images\home_run.1808.jpg" arWidth="1024" arHeight="768" duration="0" songTitle="" songArtist="" songAlbum="" />
    <MediaItem id="182" filePath="F:\CSCI-4809\maya\projects\default\images\home_run.0181.jpg" arWidth="1024" arHeight="768" duration="0" songTitle="" songArtist="" songAlbum="" />
    <MediaItem id="1810" filePath="F:\CSCI-4809\maya\projects\default\images\home_run.1809.jpg" arWidth="1024" arHeight="768" duration="0" songTitle="" songArtist="" songAlbum="" />
    <MediaItem id="183" filePath="F:\CSCI-4809\maya\projects\default\images\home_run.0182.jpg" arWidth="1024" arHeight="768" duration="0" songTitle="" songArtist="" songAlbum="" />
    <MediaItem id="1811" filePath="F:\CSCI-4809\maya\projects\default\images\home_run.1810.jpg" arWidth="1024" arHeight="768" duration="0" songTitle="" songArtist="" songAlbum="" />
    <MediaItem id="184" filePath="F:\CSCI-4809\maya\projects\default\images\home_run.0183.jpg" arWidth="1024" arHeight="768" duration="0" songTitle="" songArtist="" songAlbum="" />
    <MediaItem id="1812" filePath="F:\CSCI-4809\maya\projects\default\images\home_run.1811.jpg" arWidth="1024" arHeight="768" duration="0" songTitle="" songArtist="" songAlbum="" />
    <MediaItem id="185" filePath="F:\CSCI-4809\maya\projects\default\images\home_run.0184.jpg" arWidth="1024" arHeight="768" duration="0" songTitle="" songArtist="" songAlbum="" />
    <MediaItem id="1813" filePath="F:\CSCI-4809\maya\projects\default\images\home_run.1812.jpg" arWidth="1024" arHeight="768" duration="0" songTitle="" songArtist="" songAlbum="" />
    <MediaItem id="186" filePath="F:\CSCI-4809\maya\projects\default\images\home_run.0185.jpg" arWidth="1024" arHeight="768" duration="0" songTitle="" songArtist="" songAlbum="" />
    <MediaItem id="1814" filePath="F:\CSCI-4809\maya\projects\default\images\home_run.1813.jpg" arWidth="1024" arHeight="768" duration="0" songTitle="" songArtist="" songAlbum="" />
    <MediaItem id="187" filePath="F:\CSCI-4809\maya\projects\default\images\home_run.0186.jpg" arWidth="1024" arHeight="768" duration="0" songTitle="" songArtist="" songAlbum="" />
    <MediaItem id="1815" filePath="F:\CSCI-4809\maya\projects\default\images\home_run.1814.jpg" arWidth="1024" arHeight="768" duration="0" songTitle="" songArtist="" songAlbum="" />
    <MediaItem id="188" filePath="F:\CSCI-4809\maya\projects\default\images\home_run.0187.jpg" arWidth="1024" arHeight="768" duration="0" songTitle="" songArtist="" songAlbum="" />
    <MediaItem id="1816" filePath="F:\CSCI-4809\maya\projects\default\images\home_run.1815.jpg" arWidth="1024" arHeight="768" duration="0" songTitle="" songArtist="" songAlbum="" />
    <MediaItem id="189" filePath="F:\CSCI-4809\maya\projects\default\images\home_run.0188.jpg" arWidth="1024" arHeight="768" duration="0" songTitle="" songArtist="" songAlbum="" />
    <MediaItem id="1817" filePath="F:\CSCI-4809\maya\projects\default\images\home_run.1816.jpg" arWidth="1024" arHeight="768" duration="0" songTitle="" songArtist="" songAlbum="" />
    <MediaItem id="190" filePath="F:\CSCI-4809\maya\projects\default\images\home_run.0189.jpg" arWidth="1024" arHeight="768" duration="0" songTitle="" songArtist="" songAlbum="" />
    <MediaItem id="1818" filePath="F:\CSCI-4809\maya\projects\default\images\home_run.1817.jpg" arWidth="1024" arHeight="768" duration="0" songTitle="" songArtist="" songAlbum="" />
    <MediaItem id="191" filePath="F:\CSCI-4809\maya\projects\default\images\home_run.0190.jpg" arWidth="1024" arHeight="768" duration="0" songTitle="" songArtist="" songAlbum="" />
    <MediaItem id="1819" filePath="F:\CSCI-4809\maya\projects\default\images\home_run.1818.jpg" arWidth="1024" arHeight="768" duration="0" songTitle="" songArtist="" songAlbum="" />
    <MediaItem id="192" filePath="F:\CSCI-4809\maya\projects\default\images\home_run.0191.jpg" arWidth="1024" arHeight="768" duration="0" songTitle="" songArtist="" songAlbum="" />
    <MediaItem id="1820" filePath="F:\CSCI-4809\maya\projects\default\images\home_run.1819.jpg" arWidth="1024" arHeight="768" duration="0" songTitle="" songArtist="" songAlbum="" />
    <MediaItem id="193" filePath="F:\CSCI-4809\maya\projects\default\images\home_run.0192.jpg" arWidth="1024" arHeight="768" duration="0" songTitle="" songArtist="" songAlbum="" />
    <MediaItem id="1821" filePath="F:\CSCI-4809\maya\projects\default\images\home_run.1820.jpg" arWidth="1024" arHeight="768" duration="0" songTitle="" songArtist="" songAlbum="" />
    <MediaItem id="194" filePath="F:\CSCI-4809\maya\projects\default\images\home_run.0193.jpg" arWidth="1024" arHeight="768" duration="0" songTitle="" songArtist="" songAlbum="" />
    <MediaItem id="1822" filePath="F:\CSCI-4809\maya\projects\default\images\home_run.1821.jpg" arWidth="1024" arHeight="768" duration="0" songTitle="" songArtist="" songAlbum="" />
    <MediaItem id="195" filePath="F:\CSCI-4809\maya\projects\default\images\home_run.0194.jpg" arWidth="1024" arHeight="768" duration="0" songTitle="" songArtist="" songAlbum="" />
    <MediaItem id="1823" filePath="F:\CSCI-4809\maya\projects\default\images\home_run.1822.jpg" arWidth="1024" arHeight="768" duration="0" songTitle="" songArtist="" songAlbum="" />
    <MediaItem id="196" filePath="F:\CSCI-4809\maya\projects\default\images\home_run.0195.jpg" arWidth="1024" arHeight="768" duration="0" songTitle="" songArtist="" songAlbum="" />
    <MediaItem id="1824" filePath="F:\CSCI-4809\maya\projects\default\images\home_run.1823.jpg" arWidth="1024" arHeight="768" duration="0" songTitle="" songArtist="" songAlbum="" />
    <MediaItem id="197" filePath="F:\CSCI-4809\maya\projects\default\images\home_run.0196.jpg" arWidth="1024" arHeight="768" duration="0" songTitle="" songArtist="" songAlbum="" />
    <MediaItem id="1825" filePath="F:\CSCI-4809\maya\projects\default\images\home_run.1824.jpg" arWidth="1024" arHeight="768" duration="0" songTitle="" songArtist="" songAlbum="" />
    <MediaItem id="198" filePath="F:\CSCI-4809\maya\projects\default\images\home_run.0197.jpg" arWidth="1024" arHeight="768" duration="0" songTitle="" songArtist="" songAlbum="" />
    <MediaItem id="1826" filePath="F:\CSCI-4809\maya\projects\default\images\home_run.1825.jpg" arWidth="1024" arHeight="768" duration="0" songTitle="" songArtist="" songAlbum="" />
    <MediaItem id="199" filePath="F:\CSCI-4809\maya\projects\default\images\home_run.0198.jpg" arWidth="1024" arHeight="768" duration="0" songTitle="" songArtist="" songAlbum="" />
    <MediaItem id="1827" filePath="F:\CSCI-4809\maya\projects\default\images\home_run.1826.jpg" arWidth="1024" arHeight="768" duration="0" songTitle="" songArtist="" songAlbum="" />
    <MediaItem id="200" filePath="F:\CSCI-4809\maya\projects\default\images\home_run.0199.jpg" arWidth="1024" arHeight="768" duration="0" songTitle="" songArtist="" songAlbum="" />
    <MediaItem id="1828" filePath="F:\CSCI-4809\maya\projects\default\images\home_run.1827.jpg" arWidth="1024" arHeight="768" duration="0" songTitle="" songArtist="" songAlbum="" />
    <MediaItem id="201" filePath="F:\CSCI-4809\maya\projects\default\images\home_run.0200.jpg" arWidth="1024" arHeight="768" duration="0" songTitle="" songArtist="" songAlbum="" />
    <MediaItem id="1829" filePath="F:\CSCI-4809\maya\projects\default\images\home_run.1828.jpg" arWidth="1024" arHeight="768" duration="0" songTitle="" songArtist="" songAlbum="" />
    <MediaItem id="202" filePath="F:\CSCI-4809\maya\projects\default\images\home_run.0201.jpg" arWidth="1024" arHeight="768" duration="0" songTitle="" songArtist="" songAlbum="" />
    <MediaItem id="1830" filePath="F:\CSCI-4809\maya\projects\default\images\home_run.1829.jpg" arWidth="1024" arHeight="768" duration="0" songTitle="" songArtist="" songAlbum="" />
    <MediaItem id="203" filePath="F:\CSCI-4809\maya\projects\default\images\home_run.0202.jpg" arWidth="1024" arHeight="768" duration="0" songTitle="" songArtist="" songAlbum="" />
    <MediaItem id="1831" filePath="F:\CSCI-4809\maya\projects\default\images\home_run.1830.jpg" arWidth="1024" arHeight="768" duration="0" songTitle="" songArtist="" songAlbum="" />
    <MediaItem id="204" filePath="F:\CSCI-4809\maya\projects\default\images\home_run.0203.jpg" arWidth="1024" arHeight="768" duration="0" songTitle="" songArtist="" songAlbum="" />
    <MediaItem id="1832" filePath="F:\CSCI-4809\maya\projects\default\images\home_run.1831.jpg" arWidth="1024" arHeight="768" duration="0" songTitle="" songArtist="" songAlbum="" />
    <MediaItem id="205" filePath="F:\CSCI-4809\maya\projects\default\images\home_run.0204.jpg" arWidth="1024" arHeight="768" duration="0" songTitle="" songArtist="" songAlbum="" />
    <MediaItem id="1833" filePath="F:\CSCI-4809\maya\projects\default\images\home_run.1832.jpg" arWidth="1024" arHeight="768" duration="0" songTitle="" songArtist="" songAlbum="" />
    <MediaItem id="206" filePath="F:\CSCI-4809\maya\projects\default\images\home_run.0205.jpg" arWidth="1024" arHeight="768" duration="0" songTitle="" songArtist="" songAlbum="" />
    <MediaItem id="1834" filePath="F:\CSCI-4809\maya\projects\default\images\home_run.1833.jpg" arWidth="1024" arHeight="768" duration="0" songTitle="" songArtist="" songAlbum="" />
    <MediaItem id="207" filePath="F:\CSCI-4809\maya\projects\default\images\home_run.0206.jpg" arWidth="1024" arHeight="768" duration="0" songTitle="" songArtist="" songAlbum="" />
    <MediaItem id="1835" filePath="F:\CSCI-4809\maya\projects\default\images\home_run.1834.jpg" arWidth="1024" arHeight="768" duration="0" songTitle="" songArtist="" songAlbum="" />
    <MediaItem id="208" filePath="F:\CSCI-4809\maya\projects\default\images\home_run.0207.jpg" arWidth="1024" arHeight="768" duration="0" songTitle="" songArtist="" songAlbum="" />
    <MediaItem id="1836" filePath="F:\CSCI-4809\maya\projects\default\images\home_run.1835.jpg" arWidth="1024" arHeight="768" duration="0" songTitle="" songArtist="" songAlbum="" />
    <MediaItem id="209" filePath="F:\CSCI-4809\maya\projects\default\images\home_run.0208.jpg" arWidth="1024" arHeight="768" duration="0" songTitle="" songArtist="" songAlbum="" />
    <MediaItem id="1837" filePath="F:\CSCI-4809\maya\projects\default\images\home_run.1836.jpg" arWidth="1024" arHeight="768" duration="0" songTitle="" songArtist="" songAlbum="" />
    <MediaItem id="210" filePath="F:\CSCI-4809\maya\projects\default\images\home_run.0209.jpg" arWidth="1024" arHeight="768" duration="0" songTitle="" songArtist="" songAlbum="" />
    <MediaItem id="1838" filePath="F:\CSCI-4809\maya\projects\default\images\home_run.1837.jpg" arWidth="1024" arHeight="768" duration="0" songTitle="" songArtist="" songAlbum="" />
    <MediaItem id="211" filePath="F:\CSCI-4809\maya\projects\default\images\home_run.0210.jpg" arWidth="1024" arHeight="768" duration="0" songTitle="" songArtist="" songAlbum="" />
    <MediaItem id="1839" filePath="F:\CSCI-4809\maya\projects\default\images\home_run.1838.jpg" arWidth="1024" arHeight="768" duration="0" songTitle="" songArtist="" songAlbum="" />
    <MediaItem id="212" filePath="F:\CSCI-4809\maya\projects\default\images\home_run.0211.jpg" arWidth="1024" arHeight="768" duration="0" songTitle="" songArtist="" songAlbum="" />
    <MediaItem id="1840" filePath="F:\CSCI-4809\maya\projects\default\images\home_run.1839.jpg" arWidth="1024" arHeight="768" duration="0" songTitle="" songArtist="" songAlbum="" />
    <MediaItem id="213" filePath="F:\CSCI-4809\maya\projects\default\images\home_run.0212.jpg" arWidth="1024" arHeight="768" duration="0" songTitle="" songArtist="" songAlbum="" />
    <MediaItem id="1841" filePath="F:\CSCI-4809\maya\projects\default\images\home_run.1840.jpg" arWidth="1024" arHeight="768" duration="0" songTitle="" songArtist="" songAlbum="" />
    <MediaItem id="214" filePath="F:\CSCI-4809\maya\projects\default\images\home_run.0213.jpg" arWidth="1024" arHeight="768" duration="0" songTitle="" songArtist="" songAlbum="" />
    <MediaItem id="1842" filePath="F:\CSCI-4809\maya\projects\default\images\home_run.1841.jpg" arWidth="1024" arHeight="768" duration="0" songTitle="" songArtist="" songAlbum="" />
    <MediaItem id="215" filePath="F:\CSCI-4809\maya\projects\default\images\home_run.0214.jpg" arWidth="1024" arHeight="768" duration="0" songTitle="" songArtist="" songAlbum="" />
    <MediaItem id="1843" filePath="F:\CSCI-4809\maya\projects\default\images\home_run.1842.jpg" arWidth="1024" arHeight="768" duration="0" songTitle="" songArtist="" songAlbum="" />
    <MediaItem id="216" filePath="F:\CSCI-4809\maya\projects\default\images\home_run.0215.jpg" arWidth="1024" arHeight="768" duration="0" songTitle="" songArtist="" songAlbum="" />
    <MediaItem id="1844" filePath="F:\CSCI-4809\maya\projects\default\images\home_run.1843.jpg" arWidth="1024" arHeight="768" duration="0" songTitle="" songArtist="" songAlbum="" />
    <MediaItem id="217" filePath="F:\CSCI-4809\maya\projects\default\images\home_run.0216.jpg" arWidth="1024" arHeight="768" duration="0" songTitle="" songArtist="" songAlbum="" />
    <MediaItem id="1845" filePath="F:\CSCI-4809\maya\projects\default\images\home_run.1844.jpg" arWidth="1024" arHeight="768" duration="0" songTitle="" songArtist="" songAlbum="" />
    <MediaItem id="218" filePath="F:\CSCI-4809\maya\projects\default\images\home_run.0217.jpg" arWidth="1024" arHeight="768" duration="0" songTitle="" songArtist="" songAlbum="" />
    <MediaItem id="1846" filePath="F:\CSCI-4809\maya\projects\default\images\home_run.1845.jpg" arWidth="1024" arHeight="768" duration="0" songTitle="" songArtist="" songAlbum="" />
    <MediaItem id="219" filePath="F:\CSCI-4809\maya\projects\default\images\home_run.0218.jpg" arWidth="1024" arHeight="768" duration="0" songTitle="" songArtist="" songAlbum="" />
    <MediaItem id="1847" filePath="F:\CSCI-4809\maya\projects\default\images\home_run.1846.jpg" arWidth="1024" arHeight="768" duration="0" songTitle="" songArtist="" songAlbum="" />
    <MediaItem id="220" filePath="F:\CSCI-4809\maya\projects\default\images\home_run.0219.jpg" arWidth="1024" arHeight="768" duration="0" songTitle="" songArtist="" songAlbum="" />
    <MediaItem id="1848" filePath="F:\CSCI-4809\maya\projects\default\images\home_run.1847.jpg" arWidth="1024" arHeight="768" duration="0" songTitle="" songArtist="" songAlbum="" />
    <MediaItem id="221" filePath="F:\CSCI-4809\maya\projects\default\images\home_run.0220.jpg" arWidth="1024" arHeight="768" duration="0" songTitle="" songArtist="" songAlbum="" />
    <MediaItem id="1849" filePath="F:\CSCI-4809\maya\projects\default\images\home_run.1848.jpg" arWidth="1024" arHeight="768" duration="0" songTitle="" songArtist="" songAlbum="" />
    <MediaItem id="222" filePath="F:\CSCI-4809\maya\projects\default\images\home_run.0221.jpg" arWidth="1024" arHeight="768" duration="0" songTitle="" songArtist="" songAlbum="" />
    <MediaItem id="1850" filePath="F:\CSCI-4809\maya\projects\default\images\home_run.1849.jpg" arWidth="1024" arHeight="768" duration="0" songTitle="" songArtist="" songAlbum="" />
    <MediaItem id="223" filePath="F:\CSCI-4809\maya\projects\default\images\home_run.0222.jpg" arWidth="1024" arHeight="768" duration="0" songTitle="" songArtist="" songAlbum="" />
    <MediaItem id="1851" filePath="F:\CSCI-4809\maya\projects\default\images\home_run.1850.jpg" arWidth="1024" arHeight="768" duration="0" songTitle="" songArtist="" songAlbum="" />
    <MediaItem id="224" filePath="F:\CSCI-4809\maya\projects\default\images\home_run.0223.jpg" arWidth="1024" arHeight="768" duration="0" songTitle="" songArtist="" songAlbum="" />
    <MediaItem id="1852" filePath="F:\CSCI-4809\maya\projects\default\images\home_run.1851.jpg" arWidth="1024" arHeight="768" duration="0" songTitle="" songArtist="" songAlbum="" />
    <MediaItem id="225" filePath="F:\CSCI-4809\maya\projects\default\images\home_run.0224.jpg" arWidth="1024" arHeight="768" duration="0" songTitle="" songArtist="" songAlbum="" />
    <MediaItem id="1853" filePath="F:\CSCI-4809\maya\projects\default\images\home_run.1852.jpg" arWidth="1024" arHeight="768" duration="0" songTitle="" songArtist="" songAlbum="" />
    <MediaItem id="226" filePath="F:\CSCI-4809\maya\projects\default\images\home_run.0225.jpg" arWidth="1024" arHeight="768" duration="0" songTitle="" songArtist="" songAlbum="" />
    <MediaItem id="1854" filePath="F:\CSCI-4809\maya\projects\default\images\home_run.1853.jpg" arWidth="1024" arHeight="768" duration="0" songTitle="" songArtist="" songAlbum="" />
    <MediaItem id="227" filePath="F:\CSCI-4809\maya\projects\default\images\home_run.0226.jpg" arWidth="1024" arHeight="768" duration="0" songTitle="" songArtist="" songAlbum="" />
    <MediaItem id="1855" filePath="F:\CSCI-4809\maya\projects\default\images\home_run.1854.jpg" arWidth="1024" arHeight="768" duration="0" songTitle="" songArtist="" songAlbum="" />
    <MediaItem id="228" filePath="F:\CSCI-4809\maya\projects\default\images\home_run.0227.jpg" arWidth="1024" arHeight="768" duration="0" songTitle="" songArtist="" songAlbum="" />
    <MediaItem id="1856" filePath="F:\CSCI-4809\maya\projects\default\images\home_run.1855.jpg" arWidth="1024" arHeight="768" duration="0" songTitle="" songArtist="" songAlbum="" />
    <MediaItem id="229" filePath="F:\CSCI-4809\maya\projects\default\images\home_run.0228.jpg" arWidth="1024" arHeight="768" duration="0" songTitle="" songArtist="" songAlbum="" />
    <MediaItem id="1857" filePath="F:\CSCI-4809\maya\projects\default\images\home_run.1856.jpg" arWidth="1024" arHeight="768" duration="0" songTitle="" songArtist="" songAlbum="" />
    <MediaItem id="230" filePath="F:\CSCI-4809\maya\projects\default\images\home_run.0229.jpg" arWidth="1024" arHeight="768" duration="0" songTitle="" songArtist="" songAlbum="" />
    <MediaItem id="1858" filePath="F:\CSCI-4809\maya\projects\default\images\home_run.1857.jpg" arWidth="1024" arHeight="768" duration="0" songTitle="" songArtist="" songAlbum="" />
    <MediaItem id="231" filePath="F:\CSCI-4809\maya\projects\default\images\home_run.0230.jpg" arWidth="1024" arHeight="768" duration="0" songTitle="" songArtist="" songAlbum="" />
    <MediaItem id="1859" filePath="F:\CSCI-4809\maya\projects\default\images\home_run.1858.jpg" arWidth="1024" arHeight="768" duration="0" songTitle="" songArtist="" songAlbum="" />
    <MediaItem id="232" filePath="F:\CSCI-4809\maya\projects\default\images\home_run.0231.jpg" arWidth="1024" arHeight="768" duration="0" songTitle="" songArtist="" songAlbum="" />
    <MediaItem id="1860" filePath="F:\CSCI-4809\maya\projects\default\images\home_run.1859.jpg" arWidth="1024" arHeight="768" duration="0" songTitle="" songArtist="" songAlbum="" />
    <MediaItem id="233" filePath="F:\CSCI-4809\maya\projects\default\images\home_run.0232.jpg" arWidth="1024" arHeight="768" duration="0" songTitle="" songArtist="" songAlbum="" />
    <MediaItem id="1861" filePath="F:\CSCI-4809\maya\projects\default\images\home_run.1860.jpg" arWidth="1024" arHeight="768" duration="0" songTitle="" songArtist="" songAlbum="" />
    <MediaItem id="234" filePath="F:\CSCI-4809\maya\projects\default\images\home_run.0233.jpg" arWidth="1024" arHeight="768" duration="0" songTitle="" songArtist="" songAlbum="" />
    <MediaItem id="1862" filePath="F:\CSCI-4809\maya\projects\default\images\home_run.1861.jpg" arWidth="1024" arHeight="768" duration="0" songTitle="" songArtist="" songAlbum="" />
    <MediaItem id="235" filePath="F:\CSCI-4809\maya\projects\default\images\home_run.0234.jpg" arWidth="1024" arHeight="768" duration="0" songTitle="" songArtist="" songAlbum="" />
    <MediaItem id="1863" filePath="F:\CSCI-4809\maya\projects\default\images\home_run.1862.jpg" arWidth="1024" arHeight="768" duration="0" songTitle="" songArtist="" songAlbum="" />
    <MediaItem id="236" filePath="F:\CSCI-4809\maya\projects\default\images\home_run.0235.jpg" arWidth="1024" arHeight="768" duration="0" songTitle="" songArtist="" songAlbum="" />
    <MediaItem id="1864" filePath="F:\CSCI-4809\maya\projects\default\images\home_run.1863.jpg" arWidth="1024" arHeight="768" duration="0" songTitle="" songArtist="" songAlbum="" />
    <MediaItem id="237" filePath="F:\CSCI-4809\maya\projects\default\images\home_run.0236.jpg" arWidth="1024" arHeight="768" duration="0" songTitle="" songArtist="" songAlbum="" />
    <MediaItem id="1865" filePath="F:\CSCI-4809\maya\projects\default\images\home_run.1864.jpg" arWidth="1024" arHeight="768" duration="0" songTitle="" songArtist="" songAlbum="" />
    <MediaItem id="238" filePath="F:\CSCI-4809\maya\projects\default\images\home_run.0237.jpg" arWidth="1024" arHeight="768" duration="0" songTitle="" songArtist="" songAlbum="" />
    <MediaItem id="1866" filePath="F:\CSCI-4809\maya\projects\default\images\home_run.1865.jpg" arWidth="1024" arHeight="768" duration="0" songTitle="" songArtist="" songAlbum="" />
    <MediaItem id="239" filePath="F:\CSCI-4809\maya\projects\default\images\home_run.0238.jpg" arWidth="1024" arHeight="768" duration="0" songTitle="" songArtist="" songAlbum="" />
    <MediaItem id="1867" filePath="F:\CSCI-4809\maya\projects\default\images\home_run.1866.jpg" arWidth="1024" arHeight="768" duration="0" songTitle="" songArtist="" songAlbum="" />
    <MediaItem id="240" filePath="F:\CSCI-4809\maya\projects\default\images\home_run.0239.jpg" arWidth="1024" arHeight="768" duration="0" songTitle="" songArtist="" songAlbum="" />
    <MediaItem id="1868" filePath="F:\CSCI-4809\maya\projects\default\images\home_run.1867.jpg" arWidth="1024" arHeight="768" duration="0" songTitle="" songArtist="" songAlbum="" />
    <MediaItem id="241" filePath="F:\CSCI-4809\maya\projects\default\images\home_run.0240.jpg" arWidth="1024" arHeight="768" duration="0" songTitle="" songArtist="" songAlbum="" />
    <MediaItem id="1869" filePath="F:\CSCI-4809\maya\projects\default\images\home_run.1868.jpg" arWidth="1024" arHeight="768" duration="0" songTitle="" songArtist="" songAlbum="" />
    <MediaItem id="242" filePath="F:\CSCI-4809\maya\projects\default\images\home_run.0241.jpg" arWidth="1024" arHeight="768" duration="0" songTitle="" songArtist="" songAlbum="" />
    <MediaItem id="1870" filePath="F:\CSCI-4809\maya\projects\default\images\home_run.1869.jpg" arWidth="1024" arHeight="768" duration="0" songTitle="" songArtist="" songAlbum="" />
    <MediaItem id="243" filePath="F:\CSCI-4809\maya\projects\default\images\home_run.0242.jpg" arWidth="1024" arHeight="768" duration="0" songTitle="" songArtist="" songAlbum="" />
    <MediaItem id="1871" filePath="F:\CSCI-4809\maya\projects\default\images\home_run.1870.jpg" arWidth="1024" arHeight="768" duration="0" songTitle="" songArtist="" songAlbum="" />
    <MediaItem id="244" filePath="F:\CSCI-4809\maya\projects\default\images\home_run.0243.jpg" arWidth="1024" arHeight="768" duration="0" songTitle="" songArtist="" songAlbum="" />
    <MediaItem id="1872" filePath="F:\CSCI-4809\maya\projects\default\images\home_run.1871.jpg" arWidth="1024" arHeight="768" duration="0" songTitle="" songArtist="" songAlbum="" />
    <MediaItem id="245" filePath="F:\CSCI-4809\maya\projects\default\images\home_run.0244.jpg" arWidth="1024" arHeight="768" duration="0" songTitle="" songArtist="" songAlbum="" />
    <MediaItem id="1873" filePath="F:\CSCI-4809\maya\projects\default\images\home_run.1872.jpg" arWidth="1024" arHeight="768" duration="0" songTitle="" songArtist="" songAlbum="" />
    <MediaItem id="246" filePath="F:\CSCI-4809\maya\projects\default\images\home_run.0245.jpg" arWidth="1024" arHeight="768" duration="0" songTitle="" songArtist="" songAlbum="" />
    <MediaItem id="1874" filePath="F:\CSCI-4809\maya\projects\default\images\home_run.1873.jpg" arWidth="1024" arHeight="768" duration="0" songTitle="" songArtist="" songAlbum="" />
    <MediaItem id="247" filePath="F:\CSCI-4809\maya\projects\default\images\home_run.0246.jpg" arWidth="1024" arHeight="768" duration="0" songTitle="" songArtist="" songAlbum="" />
    <MediaItem id="1875" filePath="F:\CSCI-4809\maya\projects\default\images\home_run.1874.jpg" arWidth="1024" arHeight="768" duration="0" songTitle="" songArtist="" songAlbum="" />
    <MediaItem id="248" filePath="F:\CSCI-4809\maya\projects\default\images\home_run.0247.jpg" arWidth="1024" arHeight="768" duration="0" songTitle="" songArtist="" songAlbum="" />
    <MediaItem id="1876" filePath="F:\CSCI-4809\maya\projects\default\images\home_run.1875.jpg" arWidth="1024" arHeight="768" duration="0" songTitle="" songArtist="" songAlbum="" />
    <MediaItem id="249" filePath="F:\CSCI-4809\maya\projects\default\images\home_run.0248.jpg" arWidth="1024" arHeight="768" duration="0" songTitle="" songArtist="" songAlbum="" />
    <MediaItem id="1877" filePath="F:\CSCI-4809\maya\projects\default\images\home_run.1876.jpg" arWidth="1024" arHeight="768" duration="0" songTitle="" songArtist="" songAlbum="" />
    <MediaItem id="250" filePath="F:\CSCI-4809\maya\projects\default\images\home_run.0249.jpg" arWidth="1024" arHeight="768" duration="0" songTitle="" songArtist="" songAlbum="" />
    <MediaItem id="1878" filePath="F:\CSCI-4809\maya\projects\default\images\home_run.1877.jpg" arWidth="1024" arHeight="768" duration="0" songTitle="" songArtist="" songAlbum="" />
    <MediaItem id="251" filePath="F:\CSCI-4809\maya\projects\default\images\home_run.0250.jpg" arWidth="1024" arHeight="768" duration="0" songTitle="" songArtist="" songAlbum="" />
    <MediaItem id="1879" filePath="F:\CSCI-4809\maya\projects\default\images\home_run.1878.jpg" arWidth="1024" arHeight="768" duration="0" songTitle="" songArtist="" songAlbum="" />
    <MediaItem id="252" filePath="F:\CSCI-4809\maya\projects\default\images\home_run.0251.jpg" arWidth="1024" arHeight="768" duration="0" songTitle="" songArtist="" songAlbum="" />
    <MediaItem id="1880" filePath="F:\CSCI-4809\maya\projects\default\images\home_run.1879.jpg" arWidth="1024" arHeight="768" duration="0" songTitle="" songArtist="" songAlbum="" />
    <MediaItem id="253" filePath="F:\CSCI-4809\maya\projects\default\images\home_run.0252.jpg" arWidth="1024" arHeight="768" duration="0" songTitle="" songArtist="" songAlbum="" />
    <MediaItem id="1881" filePath="F:\CSCI-4809\maya\projects\default\images\home_run.1880.jpg" arWidth="1024" arHeight="768" duration="0" songTitle="" songArtist="" songAlbum="" />
    <MediaItem id="254" filePath="F:\CSCI-4809\maya\projects\default\images\home_run.0253.jpg" arWidth="1024" arHeight="768" duration="0" songTitle="" songArtist="" songAlbum="" />
    <MediaItem id="1882" filePath="F:\CSCI-4809\maya\projects\default\images\home_run.1881.jpg" arWidth="1024" arHeight="768" duration="0" songTitle="" songArtist="" songAlbum="" />
    <MediaItem id="255" filePath="F:\CSCI-4809\maya\projects\default\images\home_run.0254.jpg" arWidth="1024" arHeight="768" duration="0" songTitle="" songArtist="" songAlbum="" />
    <MediaItem id="1883" filePath="F:\CSCI-4809\maya\projects\default\images\home_run.1882.jpg" arWidth="1024" arHeight="768" duration="0" songTitle="" songArtist="" songAlbum="" />
    <MediaItem id="256" filePath="F:\CSCI-4809\maya\projects\default\images\home_run.0255.jpg" arWidth="1024" arHeight="768" duration="0" songTitle="" songArtist="" songAlbum="" />
    <MediaItem id="1884" filePath="F:\CSCI-4809\maya\projects\default\images\home_run.1883.jpg" arWidth="1024" arHeight="768" duration="0" songTitle="" songArtist="" songAlbum="" />
    <MediaItem id="257" filePath="F:\CSCI-4809\maya\projects\default\images\home_run.0256.jpg" arWidth="1024" arHeight="768" duration="0" songTitle="" songArtist="" songAlbum="" />
    <MediaItem id="1885" filePath="F:\CSCI-4809\maya\projects\default\images\home_run.1884.jpg" arWidth="1024" arHeight="768" duration="0" songTitle="" songArtist="" songAlbum="" />
    <MediaItem id="258" filePath="F:\CSCI-4809\maya\projects\default\images\home_run.0257.jpg" arWidth="1024" arHeight="768" duration="0" songTitle="" songArtist="" songAlbum="" />
    <MediaItem id="1886" filePath="F:\CSCI-4809\maya\projects\default\images\home_run.1885.jpg" arWidth="1024" arHeight="768" duration="0" songTitle="" songArtist="" songAlbum="" />
    <MediaItem id="259" filePath="F:\CSCI-4809\maya\projects\default\images\home_run.0258.jpg" arWidth="1024" arHeight="768" duration="0" songTitle="" songArtist="" songAlbum="" />
    <MediaItem id="1887" filePath="F:\CSCI-4809\maya\projects\default\images\home_run.1886.jpg" arWidth="1024" arHeight="768" duration="0" songTitle="" songArtist="" songAlbum="" />
    <MediaItem id="260" filePath="F:\CSCI-4809\maya\projects\default\images\home_run.0259.jpg" arWidth="1024" arHeight="768" duration="0" songTitle="" songArtist="" songAlbum="" />
    <MediaItem id="1888" filePath="F:\CSCI-4809\maya\projects\default\images\home_run.1887.jpg" arWidth="1024" arHeight="768" duration="0" songTitle="" songArtist="" songAlbum="" />
    <MediaItem id="261" filePath="F:\CSCI-4809\maya\projects\default\images\home_run.0260.jpg" arWidth="1024" arHeight="768" duration="0" songTitle="" songArtist="" songAlbum="" />
    <MediaItem id="1889" filePath="F:\CSCI-4809\maya\projects\default\images\home_run.1888.jpg" arWidth="1024" arHeight="768" duration="0" songTitle="" songArtist="" songAlbum="" />
    <MediaItem id="262" filePath="F:\CSCI-4809\maya\projects\default\images\home_run.0261.jpg" arWidth="1024" arHeight="768" duration="0" songTitle="" songArtist="" songAlbum="" />
    <MediaItem id="1890" filePath="F:\CSCI-4809\maya\projects\default\images\home_run.1889.jpg" arWidth="1024" arHeight="768" duration="0" songTitle="" songArtist="" songAlbum="" />
    <MediaItem id="263" filePath="F:\CSCI-4809\maya\projects\default\images\home_run.0262.jpg" arWidth="1024" arHeight="768" duration="0" songTitle="" songArtist="" songAlbum="" />
    <MediaItem id="1891" filePath="F:\CSCI-4809\maya\projects\default\images\home_run.1890.jpg" arWidth="1024" arHeight="768" duration="0" songTitle="" songArtist="" songAlbum="" />
    <MediaItem id="264" filePath="F:\CSCI-4809\maya\projects\default\images\home_run.0263.jpg" arWidth="1024" arHeight="768" duration="0" songTitle="" songArtist="" songAlbum="" />
    <MediaItem id="1892" filePath="F:\CSCI-4809\maya\projects\default\images\home_run.1891.jpg" arWidth="1024" arHeight="768" duration="0" songTitle="" songArtist="" songAlbum="" />
    <MediaItem id="265" filePath="F:\CSCI-4809\maya\projects\default\images\home_run.0264.jpg" arWidth="1024" arHeight="768" duration="0" songTitle="" songArtist="" songAlbum="" />
    <MediaItem id="1893" filePath="F:\CSCI-4809\maya\projects\default\images\home_run.1892.jpg" arWidth="1024" arHeight="768" duration="0" songTitle="" songArtist="" songAlbum="" />
    <MediaItem id="266" filePath="F:\CSCI-4809\maya\projects\default\images\home_run.0265.jpg" arWidth="1024" arHeight="768" duration="0" songTitle="" songArtist="" songAlbum="" />
    <MediaItem id="1894" filePath="F:\CSCI-4809\maya\projects\default\images\home_run.1893.jpg" arWidth="1024" arHeight="768" duration="0" songTitle="" songArtist="" songAlbum="" />
    <MediaItem id="267" filePath="F:\CSCI-4809\maya\projects\default\images\home_run.0266.jpg" arWidth="1024" arHeight="768" duration="0" songTitle="" songArtist="" songAlbum="" />
    <MediaItem id="1895" filePath="F:\CSCI-4809\maya\projects\default\images\home_run.1894.jpg" arWidth="1024" arHeight="768" duration="0" songTitle="" songArtist="" songAlbum="" />
    <MediaItem id="268" filePath="F:\CSCI-4809\maya\projects\default\images\home_run.0267.jpg" arWidth="1024" arHeight="768" duration="0" songTitle="" songArtist="" songAlbum="" />
    <MediaItem id="1896" filePath="F:\CSCI-4809\maya\projects\default\images\home_run.1895.jpg" arWidth="1024" arHeight="768" duration="0" songTitle="" songArtist="" songAlbum="" />
    <MediaItem id="269" filePath="F:\CSCI-4809\maya\projects\default\images\home_run.0268.jpg" arWidth="1024" arHeight="768" duration="0" songTitle="" songArtist="" songAlbum="" />
    <MediaItem id="1897" filePath="F:\CSCI-4809\maya\projects\default\images\home_run.1896.jpg" arWidth="1024" arHeight="768" duration="0" songTitle="" songArtist="" songAlbum="" />
    <MediaItem id="270" filePath="F:\CSCI-4809\maya\projects\default\images\home_run.0269.jpg" arWidth="1024" arHeight="768" duration="0" songTitle="" songArtist="" songAlbum="" />
    <MediaItem id="1898" filePath="F:\CSCI-4809\maya\projects\default\images\home_run.1897.jpg" arWidth="1024" arHeight="768" duration="0" songTitle="" songArtist="" songAlbum="" />
    <MediaItem id="271" filePath="F:\CSCI-4809\maya\projects\default\images\home_run.0270.jpg" arWidth="1024" arHeight="768" duration="0" songTitle="" songArtist="" songAlbum="" />
    <MediaItem id="1899" filePath="F:\CSCI-4809\maya\projects\default\images\home_run.1898.jpg" arWidth="1024" arHeight="768" duration="0" songTitle="" songArtist="" songAlbum="" />
    <MediaItem id="272" filePath="F:\CSCI-4809\maya\projects\default\images\home_run.0271.jpg" arWidth="1024" arHeight="768" duration="0" songTitle="" songArtist="" songAlbum="" />
    <MediaItem id="1900" filePath="F:\CSCI-4809\maya\projects\default\images\home_run.1899.jpg" arWidth="1024" arHeight="768" duration="0" songTitle="" songArtist="" songAlbum="" />
    <MediaItem id="273" filePath="F:\CSCI-4809\maya\projects\default\images\home_run.0272.jpg" arWidth="1024" arHeight="768" duration="0" songTitle="" songArtist="" songAlbum="" />
    <MediaItem id="1901" filePath="F:\CSCI-4809\maya\projects\default\images\home_run.1900.jpg" arWidth="1024" arHeight="768" duration="0" songTitle="" songArtist="" songAlbum="" />
    <MediaItem id="274" filePath="F:\CSCI-4809\maya\projects\default\images\home_run.0273.jpg" arWidth="1024" arHeight="768" duration="0" songTitle="" songArtist="" songAlbum="" />
    <MediaItem id="1902" filePath="F:\CSCI-4809\maya\projects\default\images\home_run.1901.jpg" arWidth="1024" arHeight="768" duration="0" songTitle="" songArtist="" songAlbum="" />
    <MediaItem id="275" filePath="F:\CSCI-4809\maya\projects\default\images\home_run.0274.jpg" arWidth="1024" arHeight="768" duration="0" songTitle="" songArtist="" songAlbum="" />
    <MediaItem id="1903" filePath="F:\CSCI-4809\maya\projects\default\images\home_run.1902.jpg" arWidth="1024" arHeight="768" duration="0" songTitle="" songArtist="" songAlbum="" />
    <MediaItem id="276" filePath="F:\CSCI-4809\maya\projects\default\images\home_run.0275.jpg" arWidth="1024" arHeight="768" duration="0" songTitle="" songArtist="" songAlbum="" />
    <MediaItem id="1904" filePath="F:\CSCI-4809\maya\projects\default\images\home_run.1903.jpg" arWidth="1024" arHeight="768" duration="0" songTitle="" songArtist="" songAlbum="" />
    <MediaItem id="277" filePath="F:\CSCI-4809\maya\projects\default\images\home_run.0276.jpg" arWidth="1024" arHeight="768" duration="0" songTitle="" songArtist="" songAlbum="" />
    <MediaItem id="1905" filePath="F:\CSCI-4809\maya\projects\default\images\home_run.1904.jpg" arWidth="1024" arHeight="768" duration="0" songTitle="" songArtist="" songAlbum="" />
    <MediaItem id="278" filePath="F:\CSCI-4809\maya\projects\default\images\home_run.0277.jpg" arWidth="1024" arHeight="768" duration="0" songTitle="" songArtist="" songAlbum="" />
    <MediaItem id="1906" filePath="F:\CSCI-4809\maya\projects\default\images\home_run.1905.jpg" arWidth="1024" arHeight="768" duration="0" songTitle="" songArtist="" songAlbum="" />
    <MediaItem id="279" filePath="F:\CSCI-4809\maya\projects\default\images\home_run.0278.jpg" arWidth="1024" arHeight="768" duration="0" songTitle="" songArtist="" songAlbum="" />
    <MediaItem id="1907" filePath="F:\CSCI-4809\maya\projects\default\images\home_run.1906.jpg" arWidth="1024" arHeight="768" duration="0" songTitle="" songArtist="" songAlbum="" />
    <MediaItem id="280" filePath="F:\CSCI-4809\maya\projects\default\images\home_run.0279.jpg" arWidth="1024" arHeight="768" duration="0" songTitle="" songArtist="" songAlbum="" />
    <MediaItem id="1908" filePath="F:\CSCI-4809\maya\projects\default\images\home_run.1907.jpg" arWidth="1024" arHeight="768" duration="0" songTitle="" songArtist="" songAlbum="" />
    <MediaItem id="281" filePath="F:\CSCI-4809\maya\projects\default\images\home_run.0280.jpg" arWidth="1024" arHeight="768" duration="0" songTitle="" songArtist="" songAlbum="" />
    <MediaItem id="1909" filePath="F:\CSCI-4809\maya\projects\default\images\home_run.1908.jpg" arWidth="1024" arHeight="768" duration="0" songTitle="" songArtist="" songAlbum="" />
    <MediaItem id="282" filePath="F:\CSCI-4809\maya\projects\default\images\home_run.0281.jpg" arWidth="1024" arHeight="768" duration="0" songTitle="" songArtist="" songAlbum="" />
    <MediaItem id="1910" filePath="F:\CSCI-4809\maya\projects\default\images\home_run.1909.jpg" arWidth="1024" arHeight="768" duration="0" songTitle="" songArtist="" songAlbum="" />
    <MediaItem id="283" filePath="F:\CSCI-4809\maya\projects\default\images\home_run.0282.jpg" arWidth="1024" arHeight="768" duration="0" songTitle="" songArtist="" songAlbum="" />
    <MediaItem id="1911" filePath="F:\CSCI-4809\maya\projects\default\images\home_run.1910.jpg" arWidth="1024" arHeight="768" duration="0" songTitle="" songArtist="" songAlbum="" />
    <MediaItem id="284" filePath="F:\CSCI-4809\maya\projects\default\images\home_run.0283.jpg" arWidth="1024" arHeight="768" duration="0" songTitle="" songArtist="" songAlbum="" />
    <MediaItem id="1912" filePath="F:\CSCI-4809\maya\projects\default\images\home_run.1911.jpg" arWidth="1024" arHeight="768" duration="0" songTitle="" songArtist="" songAlbum="" />
    <MediaItem id="285" filePath="F:\CSCI-4809\maya\projects\default\images\home_run.0284.jpg" arWidth="1024" arHeight="768" duration="0" songTitle="" songArtist="" songAlbum="" />
    <MediaItem id="1913" filePath="F:\CSCI-4809\maya\projects\default\images\home_run.1912.jpg" arWidth="1024" arHeight="768" duration="0" songTitle="" songArtist="" songAlbum="" />
    <MediaItem id="286" filePath="F:\CSCI-4809\maya\projects\default\images\home_run.0285.jpg" arWidth="1024" arHeight="768" duration="0" songTitle="" songArtist="" songAlbum="" />
    <MediaItem id="1914" filePath="F:\CSCI-4809\maya\projects\default\images\home_run.1913.jpg" arWidth="1024" arHeight="768" duration="0" songTitle="" songArtist="" songAlbum="" />
    <MediaItem id="287" filePath="F:\CSCI-4809\maya\projects\default\images\home_run.0286.jpg" arWidth="1024" arHeight="768" duration="0" songTitle="" songArtist="" songAlbum="" />
    <MediaItem id="1915" filePath="F:\CSCI-4809\maya\projects\default\images\home_run.1914.jpg" arWidth="1024" arHeight="768" duration="0" songTitle="" songArtist="" songAlbum="" />
    <MediaItem id="288" filePath="F:\CSCI-4809\maya\projects\default\images\home_run.0287.jpg" arWidth="1024" arHeight="768" duration="0" songTitle="" songArtist="" songAlbum="" />
    <MediaItem id="1916" filePath="F:\CSCI-4809\maya\projects\default\images\home_run.1915.jpg" arWidth="1024" arHeight="768" duration="0" songTitle="" songArtist="" songAlbum="" />
    <MediaItem id="289" filePath="F:\CSCI-4809\maya\projects\default\images\home_run.0288.jpg" arWidth="1024" arHeight="768" duration="0" songTitle="" songArtist="" songAlbum="" />
    <MediaItem id="1917" filePath="F:\CSCI-4809\maya\projects\default\images\home_run.1916.jpg" arWidth="1024" arHeight="768" duration="0" songTitle="" songArtist="" songAlbum="" />
    <MediaItem id="290" filePath="F:\CSCI-4809\maya\projects\default\images\home_run.0289.jpg" arWidth="1024" arHeight="768" duration="0" songTitle="" songArtist="" songAlbum="" />
    <MediaItem id="1918" filePath="F:\CSCI-4809\maya\projects\default\images\home_run.1917.jpg" arWidth="1024" arHeight="768" duration="0" songTitle="" songArtist="" songAlbum="" />
    <MediaItem id="291" filePath="F:\CSCI-4809\maya\projects\default\images\home_run.0290.jpg" arWidth="1024" arHeight="768" duration="0" songTitle="" songArtist="" songAlbum="" />
    <MediaItem id="1919" filePath="F:\CSCI-4809\maya\projects\default\images\home_run.1918.jpg" arWidth="1024" arHeight="768" duration="0" songTitle="" songArtist="" songAlbum="" />
    <MediaItem id="292" filePath="F:\CSCI-4809\maya\projects\default\images\home_run.0291.jpg" arWidth="1024" arHeight="768" duration="0" songTitle="" songArtist="" songAlbum="" />
    <MediaItem id="1920" filePath="F:\CSCI-4809\maya\projects\default\images\home_run.1919.jpg" arWidth="1024" arHeight="768" duration="0" songTitle="" songArtist="" songAlbum="" />
    <MediaItem id="293" filePath="F:\CSCI-4809\maya\projects\default\images\home_run.0292.jpg" arWidth="1024" arHeight="768" duration="0" songTitle="" songArtist="" songAlbum="" />
    <MediaItem id="1921" filePath="F:\CSCI-4809\maya\projects\default\images\home_run.1920.jpg" arWidth="1024" arHeight="768" duration="0" songTitle="" songArtist="" songAlbum="" />
    <MediaItem id="294" filePath="F:\CSCI-4809\maya\projects\default\images\home_run.0293.jpg" arWidth="1024" arHeight="768" duration="0" songTitle="" songArtist="" songAlbum="" />
    <MediaItem id="1922" filePath="F:\CSCI-4809\maya\projects\default\images\home_run.1921.jpg" arWidth="1024" arHeight="768" duration="0" songTitle="" songArtist="" songAlbum="" />
    <MediaItem id="295" filePath="F:\CSCI-4809\maya\projects\default\images\home_run.0294.jpg" arWidth="1024" arHeight="768" duration="0" songTitle="" songArtist="" songAlbum="" />
    <MediaItem id="1923" filePath="F:\CSCI-4809\maya\projects\default\images\home_run.1922.jpg" arWidth="1024" arHeight="768" duration="0" songTitle="" songArtist="" songAlbum="" />
    <MediaItem id="296" filePath="F:\CSCI-4809\maya\projects\default\images\home_run.0295.jpg" arWidth="1024" arHeight="768" duration="0" songTitle="" songArtist="" songAlbum="" />
    <MediaItem id="1924" filePath="F:\CSCI-4809\maya\projects\default\images\home_run.1923.jpg" arWidth="1024" arHeight="768" duration="0" songTitle="" songArtist="" songAlbum="" />
    <MediaItem id="297" filePath="F:\CSCI-4809\maya\projects\default\images\home_run.0296.jpg" arWidth="1024" arHeight="768" duration="0" songTitle="" songArtist="" songAlbum="" />
    <MediaItem id="1925" filePath="F:\CSCI-4809\maya\projects\default\images\home_run.1924.jpg" arWidth="1024" arHeight="768" duration="0" songTitle="" songArtist="" songAlbum="" />
    <MediaItem id="298" filePath="F:\CSCI-4809\maya\projects\default\images\home_run.0297.jpg" arWidth="1024" arHeight="768" duration="0" songTitle="" songArtist="" songAlbum="" />
    <MediaItem id="1926" filePath="F:\CSCI-4809\maya\projects\default\images\home_run.1925.jpg" arWidth="1024" arHeight="768" duration="0" songTitle="" songArtist="" songAlbum="" />
    <MediaItem id="299" filePath="F:\CSCI-4809\maya\projects\default\images\home_run.0298.jpg" arWidth="1024" arHeight="768" duration="0" songTitle="" songArtist="" songAlbum="" />
    <MediaItem id="1927" filePath="F:\CSCI-4809\maya\projects\default\images\home_run.1926.jpg" arWidth="1024" arHeight="768" duration="0" songTitle="" songArtist="" songAlbum="" />
    <MediaItem id="300" filePath="F:\CSCI-4809\maya\projects\default\images\home_run.0299.jpg" arWidth="1024" arHeight="768" duration="0" songTitle="" songArtist="" songAlbum="" />
    <MediaItem id="1928" filePath="F:\CSCI-4809\maya\projects\default\images\home_run.1927.jpg" arWidth="1024" arHeight="768" duration="0" songTitle="" songArtist="" songAlbum="" />
    <MediaItem id="301" filePath="F:\CSCI-4809\maya\projects\default\images\home_run.0300.jpg" arWidth="1024" arHeight="768" duration="0" songTitle="" songArtist="" songAlbum="" />
    <MediaItem id="1929" filePath="F:\CSCI-4809\maya\projects\default\images\home_run.1928.jpg" arWidth="1024" arHeight="768" duration="0" songTitle="" songArtist="" songAlbum="" />
    <MediaItem id="302" filePath="F:\CSCI-4809\maya\projects\default\images\home_run.0301.jpg" arWidth="1024" arHeight="768" duration="0" songTitle="" songArtist="" songAlbum="" />
    <MediaItem id="1930" filePath="F:\CSCI-4809\maya\projects\default\images\home_run.1929.jpg" arWidth="1024" arHeight="768" duration="0" songTitle="" songArtist="" songAlbum="" />
    <MediaItem id="303" filePath="F:\CSCI-4809\maya\projects\default\images\home_run.0302.jpg" arWidth="1024" arHeight="768" duration="0" songTitle="" songArtist="" songAlbum="" />
    <MediaItem id="1931" filePath="F:\CSCI-4809\maya\projects\default\images\home_run.1930.jpg" arWidth="1024" arHeight="768" duration="0" songTitle="" songArtist="" songAlbum="" />
    <MediaItem id="304" filePath="F:\CSCI-4809\maya\projects\default\images\home_run.0303.jpg" arWidth="1024" arHeight="768" duration="0" songTitle="" songArtist="" songAlbum="" />
    <MediaItem id="1932" filePath="F:\CSCI-4809\maya\projects\default\images\home_run.1931.jpg" arWidth="1024" arHeight="768" duration="0" songTitle="" songArtist="" songAlbum="" />
    <MediaItem id="305" filePath="F:\CSCI-4809\maya\projects\default\images\home_run.0304.jpg" arWidth="1024" arHeight="768" duration="0" songTitle="" songArtist="" songAlbum="" />
    <MediaItem id="1933" filePath="F:\CSCI-4809\maya\projects\default\images\home_run.1932.jpg" arWidth="1024" arHeight="768" duration="0" songTitle="" songArtist="" songAlbum="" />
    <MediaItem id="306" filePath="F:\CSCI-4809\maya\projects\default\images\home_run.0305.jpg" arWidth="1024" arHeight="768" duration="0" songTitle="" songArtist="" songAlbum="" />
    <MediaItem id="1934" filePath="F:\CSCI-4809\maya\projects\default\images\home_run.1933.jpg" arWidth="1024" arHeight="768" duration="0" songTitle="" songArtist="" songAlbum="" />
    <MediaItem id="307" filePath="F:\CSCI-4809\maya\projects\default\images\home_run.0306.jpg" arWidth="1024" arHeight="768" duration="0" songTitle="" songArtist="" songAlbum="" />
    <MediaItem id="1935" filePath="F:\CSCI-4809\maya\projects\default\images\home_run.1934.jpg" arWidth="1024" arHeight="768" duration="0" songTitle="" songArtist="" songAlbum="" />
    <MediaItem id="308" filePath="F:\CSCI-4809\maya\projects\default\images\home_run.0307.jpg" arWidth="1024" arHeight="768" duration="0" songTitle="" songArtist="" songAlbum="" />
    <MediaItem id="1936" filePath="F:\CSCI-4809\maya\projects\default\images\home_run.1935.jpg" arWidth="1024" arHeight="768" duration="0" songTitle="" songArtist="" songAlbum="" />
    <MediaItem id="309" filePath="F:\CSCI-4809\maya\projects\default\images\home_run.0308.jpg" arWidth="1024" arHeight="768" duration="0" songTitle="" songArtist="" songAlbum="" />
    <MediaItem id="1937" filePath="F:\CSCI-4809\maya\projects\default\images\home_run.1936.jpg" arWidth="1024" arHeight="768" duration="0" songTitle="" songArtist="" songAlbum="" />
    <MediaItem id="310" filePath="F:\CSCI-4809\maya\projects\default\images\home_run.0309.jpg" arWidth="1024" arHeight="768" duration="0" songTitle="" songArtist="" songAlbum="" />
    <MediaItem id="1938" filePath="F:\CSCI-4809\maya\projects\default\images\home_run.1937.jpg" arWidth="1024" arHeight="768" duration="0" songTitle="" songArtist="" songAlbum="" />
    <MediaItem id="311" filePath="F:\CSCI-4809\maya\projects\default\images\home_run.0310.jpg" arWidth="1024" arHeight="768" duration="0" songTitle="" songArtist="" songAlbum="" />
    <MediaItem id="1939" filePath="F:\CSCI-4809\maya\projects\default\images\home_run.1938.jpg" arWidth="1024" arHeight="768" duration="0" songTitle="" songArtist="" songAlbum="" />
    <MediaItem id="312" filePath="F:\CSCI-4809\maya\projects\default\images\home_run.0311.jpg" arWidth="1024" arHeight="768" duration="0" songTitle="" songArtist="" songAlbum="" />
    <MediaItem id="1940" filePath="F:\CSCI-4809\maya\projects\default\images\home_run.1939.jpg" arWidth="1024" arHeight="768" duration="0" songTitle="" songArtist="" songAlbum="" />
    <MediaItem id="313" filePath="F:\CSCI-4809\maya\projects\default\images\home_run.0312.jpg" arWidth="1024" arHeight="768" duration="0" songTitle="" songArtist="" songAlbum="" />
    <MediaItem id="1941" filePath="F:\CSCI-4809\maya\projects\default\images\home_run.1940.jpg" arWidth="1024" arHeight="768" duration="0" songTitle="" songArtist="" songAlbum="" />
    <MediaItem id="314" filePath="F:\CSCI-4809\maya\projects\default\images\home_run.0313.jpg" arWidth="1024" arHeight="768" duration="0" songTitle="" songArtist="" songAlbum="" />
    <MediaItem id="1942" filePath="F:\CSCI-4809\maya\projects\default\images\home_run.1941.jpg" arWidth="1024" arHeight="768" duration="0" songTitle="" songArtist="" songAlbum="" />
    <MediaItem id="315" filePath="F:\CSCI-4809\maya\projects\default\images\home_run.0314.jpg" arWidth="1024" arHeight="768" duration="0" songTitle="" songArtist="" songAlbum="" />
    <MediaItem id="1943" filePath="F:\CSCI-4809\maya\projects\default\images\home_run.1942.jpg" arWidth="1024" arHeight="768" duration="0" songTitle="" songArtist="" songAlbum="" />
    <MediaItem id="316" filePath="F:\CSCI-4809\maya\projects\default\images\home_run.0315.jpg" arWidth="1024" arHeight="768" duration="0" songTitle="" songArtist="" songAlbum="" />
    <MediaItem id="1944" filePath="F:\CSCI-4809\maya\projects\default\images\home_run.1943.jpg" arWidth="1024" arHeight="768" duration="0" songTitle="" songArtist="" songAlbum="" />
    <MediaItem id="317" filePath="F:\CSCI-4809\maya\projects\default\images\home_run.0316.jpg" arWidth="1024" arHeight="768" duration="0" songTitle="" songArtist="" songAlbum="" />
    <MediaItem id="1945" filePath="F:\CSCI-4809\maya\projects\default\images\home_run.1944.jpg" arWidth="1024" arHeight="768" duration="0" songTitle="" songArtist="" songAlbum="" />
    <MediaItem id="318" filePath="F:\CSCI-4809\maya\projects\default\images\home_run.0317.jpg" arWidth="1024" arHeight="768" duration="0" songTitle="" songArtist="" songAlbum="" />
    <MediaItem id="1946" filePath="F:\CSCI-4809\maya\projects\default\images\home_run.1945.jpg" arWidth="1024" arHeight="768" duration="0" songTitle="" songArtist="" songAlbum="" />
    <MediaItem id="319" filePath="F:\CSCI-4809\maya\projects\default\images\home_run.0318.jpg" arWidth="1024" arHeight="768" duration="0" songTitle="" songArtist="" songAlbum="" />
    <MediaItem id="1947" filePath="F:\CSCI-4809\maya\projects\default\images\home_run.1946.jpg" arWidth="1024" arHeight="768" duration="0" songTitle="" songArtist="" songAlbum="" />
    <MediaItem id="320" filePath="F:\CSCI-4809\maya\projects\default\images\home_run.0319.jpg" arWidth="1024" arHeight="768" duration="0" songTitle="" songArtist="" songAlbum="" />
    <MediaItem id="1948" filePath="F:\CSCI-4809\maya\projects\default\images\home_run.1947.jpg" arWidth="1024" arHeight="768" duration="0" songTitle="" songArtist="" songAlbum="" />
    <MediaItem id="321" filePath="F:\CSCI-4809\maya\projects\default\images\home_run.0320.jpg" arWidth="1024" arHeight="768" duration="0" songTitle="" songArtist="" songAlbum="" />
    <MediaItem id="1949" filePath="F:\CSCI-4809\maya\projects\default\images\home_run.1948.jpg" arWidth="1024" arHeight="768" duration="0" songTitle="" songArtist="" songAlbum="" />
    <MediaItem id="322" filePath="F:\CSCI-4809\maya\projects\default\images\home_run.0321.jpg" arWidth="1024" arHeight="768" duration="0" songTitle="" songArtist="" songAlbum="" />
    <MediaItem id="1950" filePath="F:\CSCI-4809\maya\projects\default\images\home_run.1949.jpg" arWidth="1024" arHeight="768" duration="0" songTitle="" songArtist="" songAlbum="" />
    <MediaItem id="323" filePath="F:\CSCI-4809\maya\projects\default\images\home_run.0322.jpg" arWidth="1024" arHeight="768" duration="0" songTitle="" songArtist="" songAlbum="" />
    <MediaItem id="1951" filePath="F:\CSCI-4809\maya\projects\default\images\home_run.1950.jpg" arWidth="1024" arHeight="768" duration="0" songTitle="" songArtist="" songAlbum="" />
    <MediaItem id="324" filePath="F:\CSCI-4809\maya\projects\default\images\home_run.0323.jpg" arWidth="1024" arHeight="768" duration="0" songTitle="" songArtist="" songAlbum="" />
    <MediaItem id="1952" filePath="F:\CSCI-4809\maya\projects\default\images\home_run.1951.jpg" arWidth="1024" arHeight="768" duration="0" songTitle="" songArtist="" songAlbum="" />
    <MediaItem id="325" filePath="F:\CSCI-4809\maya\projects\default\images\home_run.0324.jpg" arWidth="1024" arHeight="768" duration="0" songTitle="" songArtist="" songAlbum="" />
    <MediaItem id="1953" filePath="F:\CSCI-4809\maya\projects\default\images\home_run.1952.jpg" arWidth="1024" arHeight="768" duration="0" songTitle="" songArtist="" songAlbum="" />
    <MediaItem id="326" filePath="F:\CSCI-4809\maya\projects\default\images\home_run.0325.jpg" arWidth="1024" arHeight="768" duration="0" songTitle="" songArtist="" songAlbum="" />
    <MediaItem id="1954" filePath="F:\CSCI-4809\maya\projects\default\images\home_run.1953.jpg" arWidth="1024" arHeight="768" duration="0" songTitle="" songArtist="" songAlbum="" />
    <MediaItem id="327" filePath="F:\CSCI-4809\maya\projects\default\images\home_run.0326.jpg" arWidth="1024" arHeight="768" duration="0" songTitle="" songArtist="" songAlbum="" />
    <MediaItem id="1955" filePath="F:\CSCI-4809\maya\projects\default\images\home_run.1954.jpg" arWidth="1024" arHeight="768" duration="0" songTitle="" songArtist="" songAlbum="" />
    <MediaItem id="328" filePath="F:\CSCI-4809\maya\projects\default\images\home_run.0327.jpg" arWidth="1024" arHeight="768" duration="0" songTitle="" songArtist="" songAlbum="" />
    <MediaItem id="1956" filePath="F:\CSCI-4809\maya\projects\default\images\home_run.1955.jpg" arWidth="1024" arHeight="768" duration="0" songTitle="" songArtist="" songAlbum="" />
    <MediaItem id="329" filePath="F:\CSCI-4809\maya\projects\default\images\home_run.0328.jpg" arWidth="1024" arHeight="768" duration="0" songTitle="" songArtist="" songAlbum="" />
    <MediaItem id="1957" filePath="F:\CSCI-4809\maya\projects\default\images\home_run.1956.jpg" arWidth="1024" arHeight="768" duration="0" songTitle="" songArtist="" songAlbum="" />
    <MediaItem id="330" filePath="F:\CSCI-4809\maya\projects\default\images\home_run.0329.jpg" arWidth="1024" arHeight="768" duration="0" songTitle="" songArtist="" songAlbum="" />
    <MediaItem id="1958" filePath="F:\CSCI-4809\maya\projects\default\images\home_run.1957.jpg" arWidth="1024" arHeight="768" duration="0" songTitle="" songArtist="" songAlbum="" />
    <MediaItem id="331" filePath="F:\CSCI-4809\maya\projects\default\images\home_run.0330.jpg" arWidth="1024" arHeight="768" duration="0" songTitle="" songArtist="" songAlbum="" />
    <MediaItem id="1959" filePath="F:\CSCI-4809\maya\projects\default\images\home_run.1958.jpg" arWidth="1024" arHeight="768" duration="0" songTitle="" songArtist="" songAlbum="" />
    <MediaItem id="332" filePath="F:\CSCI-4809\maya\projects\default\images\home_run.0331.jpg" arWidth="1024" arHeight="768" duration="0" songTitle="" songArtist="" songAlbum="" />
    <MediaItem id="1960" filePath="F:\CSCI-4809\maya\projects\default\images\home_run.1959.jpg" arWidth="1024" arHeight="768" duration="0" songTitle="" songArtist="" songAlbum="" />
    <MediaItem id="333" filePath="F:\CSCI-4809\maya\projects\default\images\home_run.0332.jpg" arWidth="1024" arHeight="768" duration="0" songTitle="" songArtist="" songAlbum="" />
    <MediaItem id="1961" filePath="F:\CSCI-4809\maya\projects\default\images\home_run.1960.jpg" arWidth="1024" arHeight="768" duration="0" songTitle="" songArtist="" songAlbum="" />
    <MediaItem id="334" filePath="F:\CSCI-4809\maya\projects\default\images\home_run.0333.jpg" arWidth="1024" arHeight="768" duration="0" songTitle="" songArtist="" songAlbum="" />
    <MediaItem id="1962" filePath="F:\CSCI-4809\maya\projects\default\images\home_run.1961.jpg" arWidth="1024" arHeight="768" duration="0" songTitle="" songArtist="" songAlbum="" />
    <MediaItem id="335" filePath="F:\CSCI-4809\maya\projects\default\images\home_run.0334.jpg" arWidth="1024" arHeight="768" duration="0" songTitle="" songArtist="" songAlbum="" />
    <MediaItem id="1963" filePath="F:\CSCI-4809\maya\projects\default\images\home_run.1962.jpg" arWidth="1024" arHeight="768" duration="0" songTitle="" songArtist="" songAlbum="" />
    <MediaItem id="336" filePath="F:\CSCI-4809\maya\projects\default\images\home_run.0335.jpg" arWidth="1024" arHeight="768" duration="0" songTitle="" songArtist="" songAlbum="" />
    <MediaItem id="1964" filePath="F:\CSCI-4809\maya\projects\default\images\home_run.1963.jpg" arWidth="1024" arHeight="768" duration="0" songTitle="" songArtist="" songAlbum="" />
    <MediaItem id="337" filePath="F:\CSCI-4809\maya\projects\default\images\home_run.0336.jpg" arWidth="1024" arHeight="768" duration="0" songTitle="" songArtist="" songAlbum="" />
    <MediaItem id="1965" filePath="F:\CSCI-4809\maya\projects\default\images\home_run.1964.jpg" arWidth="1024" arHeight="768" duration="0" songTitle="" songArtist="" songAlbum="" />
    <MediaItem id="338" filePath="F:\CSCI-4809\maya\projects\default\images\home_run.0337.jpg" arWidth="1024" arHeight="768" duration="0" songTitle="" songArtist="" songAlbum="" />
    <MediaItem id="1966" filePath="F:\CSCI-4809\maya\projects\default\images\home_run.1965.jpg" arWidth="1024" arHeight="768" duration="0" songTitle="" songArtist="" songAlbum="" />
    <MediaItem id="339" filePath="F:\CSCI-4809\maya\projects\default\images\home_run.0338.jpg" arWidth="1024" arHeight="768" duration="0" songTitle="" songArtist="" songAlbum="" />
    <MediaItem id="1967" filePath="F:\CSCI-4809\maya\projects\default\images\home_run.1966.jpg" arWidth="1024" arHeight="768" duration="0" songTitle="" songArtist="" songAlbum="" />
    <MediaItem id="340" filePath="F:\CSCI-4809\maya\projects\default\images\home_run.0339.jpg" arWidth="1024" arHeight="768" duration="0" songTitle="" songArtist="" songAlbum="" />
    <MediaItem id="1968" filePath="F:\CSCI-4809\maya\projects\default\images\home_run.1967.jpg" arWidth="1024" arHeight="768" duration="0" songTitle="" songArtist="" songAlbum="" />
    <MediaItem id="341" filePath="F:\CSCI-4809\maya\projects\default\images\home_run.0340.jpg" arWidth="1024" arHeight="768" duration="0" songTitle="" songArtist="" songAlbum="" />
    <MediaItem id="1969" filePath="F:\CSCI-4809\maya\projects\default\images\home_run.1968.jpg" arWidth="1024" arHeight="768" duration="0" songTitle="" songArtist="" songAlbum="" />
    <MediaItem id="342" filePath="F:\CSCI-4809\maya\projects\default\images\home_run.0341.jpg" arWidth="1024" arHeight="768" duration="0" songTitle="" songArtist="" songAlbum="" />
    <MediaItem id="1970" filePath="F:\CSCI-4809\maya\projects\default\images\home_run.1969.jpg" arWidth="1024" arHeight="768" duration="0" songTitle="" songArtist="" songAlbum="" />
    <MediaItem id="343" filePath="F:\CSCI-4809\maya\projects\default\images\home_run.0342.jpg" arWidth="1024" arHeight="768" duration="0" songTitle="" songArtist="" songAlbum="" />
    <MediaItem id="1971" filePath="F:\CSCI-4809\maya\projects\default\images\home_run.1970.jpg" arWidth="1024" arHeight="768" duration="0" songTitle="" songArtist="" songAlbum="" />
    <MediaItem id="344" filePath="F:\CSCI-4809\maya\projects\default\images\home_run.0343.jpg" arWidth="1024" arHeight="768" duration="0" songTitle="" songArtist="" songAlbum="" />
    <MediaItem id="1972" filePath="F:\CSCI-4809\maya\projects\default\images\home_run.1971.jpg" arWidth="1024" arHeight="768" duration="0" songTitle="" songArtist="" songAlbum="" />
    <MediaItem id="345" filePath="F:\CSCI-4809\maya\projects\default\images\home_run.0344.jpg" arWidth="1024" arHeight="768" duration="0" songTitle="" songArtist="" songAlbum="" />
    <MediaItem id="1973" filePath="F:\CSCI-4809\maya\projects\default\images\home_run.1972.jpg" arWidth="1024" arHeight="768" duration="0" songTitle="" songArtist="" songAlbum="" />
    <MediaItem id="346" filePath="F:\CSCI-4809\maya\projects\default\images\home_run.0345.jpg" arWidth="1024" arHeight="768" duration="0" songTitle="" songArtist="" songAlbum="" />
    <MediaItem id="1974" filePath="F:\CSCI-4809\maya\projects\default\images\home_run.1973.jpg" arWidth="1024" arHeight="768" duration="0" songTitle="" songArtist="" songAlbum="" />
    <MediaItem id="347" filePath="F:\CSCI-4809\maya\projects\default\images\home_run.0346.jpg" arWidth="1024" arHeight="768" duration="0" songTitle="" songArtist="" songAlbum="" />
    <MediaItem id="1975" filePath="F:\CSCI-4809\maya\projects\default\images\home_run.1974.jpg" arWidth="1024" arHeight="768" duration="0" songTitle="" songArtist="" songAlbum="" />
    <MediaItem id="348" filePath="F:\CSCI-4809\maya\projects\default\images\home_run.0347.jpg" arWidth="1024" arHeight="768" duration="0" songTitle="" songArtist="" songAlbum="" />
    <MediaItem id="1976" filePath="F:\CSCI-4809\maya\projects\default\images\home_run.1975.jpg" arWidth="1024" arHeight="768" duration="0" songTitle="" songArtist="" songAlbum="" />
    <MediaItem id="349" filePath="F:\CSCI-4809\maya\projects\default\images\home_run.0348.jpg" arWidth="1024" arHeight="768" duration="0" songTitle="" songArtist="" songAlbum="" />
    <MediaItem id="1977" filePath="F:\CSCI-4809\maya\projects\default\images\home_run.1976.jpg" arWidth="1024" arHeight="768" duration="0" songTitle="" songArtist="" songAlbum="" />
    <MediaItem id="350" filePath="F:\CSCI-4809\maya\projects\default\images\home_run.0349.jpg" arWidth="1024" arHeight="768" duration="0" songTitle="" songArtist="" songAlbum="" />
    <MediaItem id="1978" filePath="F:\CSCI-4809\maya\projects\default\images\home_run.1977.jpg" arWidth="1024" arHeight="768" duration="0" songTitle="" songArtist="" songAlbum="" />
    <MediaItem id="351" filePath="F:\CSCI-4809\maya\projects\default\images\home_run.0350.jpg" arWidth="1024" arHeight="768" duration="0" songTitle="" songArtist="" songAlbum="" />
    <MediaItem id="1979" filePath="F:\CSCI-4809\maya\projects\default\images\home_run.1978.jpg" arWidth="1024" arHeight="768" duration="0" songTitle="" songArtist="" songAlbum="" />
    <MediaItem id="352" filePath="F:\CSCI-4809\maya\projects\default\images\home_run.0351.jpg" arWidth="1024" arHeight="768" duration="0" songTitle="" songArtist="" songAlbum="" />
    <MediaItem id="1980" filePath="F:\CSCI-4809\maya\projects\default\images\home_run.1979.jpg" arWidth="1024" arHeight="768" duration="0" songTitle="" songArtist="" songAlbum="" />
    <MediaItem id="353" filePath="F:\CSCI-4809\maya\projects\default\images\home_run.0352.jpg" arWidth="1024" arHeight="768" duration="0" songTitle="" songArtist="" songAlbum="" />
    <MediaItem id="1981" filePath="F:\CSCI-4809\maya\projects\default\images\home_run.1980.jpg" arWidth="1024" arHeight="768" duration="0" songTitle="" songArtist="" songAlbum="" />
    <MediaItem id="354" filePath="F:\CSCI-4809\maya\projects\default\images\home_run.0353.jpg" arWidth="1024" arHeight="768" duration="0" songTitle="" songArtist="" songAlbum="" />
    <MediaItem id="1982" filePath="F:\CSCI-4809\maya\projects\default\images\home_run.1981.jpg" arWidth="1024" arHeight="768" duration="0" songTitle="" songArtist="" songAlbum="" />
    <MediaItem id="355" filePath="F:\CSCI-4809\maya\projects\default\images\home_run.0354.jpg" arWidth="1024" arHeight="768" duration="0" songTitle="" songArtist="" songAlbum="" />
    <MediaItem id="1983" filePath="F:\CSCI-4809\maya\projects\default\images\home_run.1982.jpg" arWidth="1024" arHeight="768" duration="0" songTitle="" songArtist="" songAlbum="" />
    <MediaItem id="356" filePath="F:\CSCI-4809\maya\projects\default\images\home_run.0355.jpg" arWidth="1024" arHeight="768" duration="0" songTitle="" songArtist="" songAlbum="" />
    <MediaItem id="1984" filePath="F:\CSCI-4809\maya\projects\default\images\home_run.1983.jpg" arWidth="1024" arHeight="768" duration="0" songTitle="" songArtist="" songAlbum="" />
    <MediaItem id="357" filePath="F:\CSCI-4809\maya\projects\default\images\home_run.0356.jpg" arWidth="1024" arHeight="768" duration="0" songTitle="" songArtist="" songAlbum="" />
    <MediaItem id="1985" filePath="F:\CSCI-4809\maya\projects\default\images\home_run.1984.jpg" arWidth="1024" arHeight="768" duration="0" songTitle="" songArtist="" songAlbum="" />
    <MediaItem id="358" filePath="F:\CSCI-4809\maya\projects\default\images\home_run.0357.jpg" arWidth="1024" arHeight="768" duration="0" songTitle="" songArtist="" songAlbum="" />
    <MediaItem id="1986" filePath="F:\CSCI-4809\maya\projects\default\images\home_run.1985.jpg" arWidth="1024" arHeight="768" duration="0" songTitle="" songArtist="" songAlbum="" />
    <MediaItem id="359" filePath="F:\CSCI-4809\maya\projects\default\images\home_run.0358.jpg" arWidth="1024" arHeight="768" duration="0" songTitle="" songArtist="" songAlbum="" />
    <MediaItem id="1987" filePath="F:\CSCI-4809\maya\projects\default\images\home_run.1986.jpg" arWidth="1024" arHeight="768" duration="0" songTitle="" songArtist="" songAlbum="" />
    <MediaItem id="360" filePath="F:\CSCI-4809\maya\projects\default\images\home_run.0359.jpg" arWidth="1024" arHeight="768" duration="0" songTitle="" songArtist="" songAlbum="" />
    <MediaItem id="1988" filePath="F:\CSCI-4809\maya\projects\default\images\home_run.1987.jpg" arWidth="1024" arHeight="768" duration="0" songTitle="" songArtist="" songAlbum="" />
    <MediaItem id="361" filePath="F:\CSCI-4809\maya\projects\default\images\home_run.0360.jpg" arWidth="1024" arHeight="768" duration="0" songTitle="" songArtist="" songAlbum="" />
    <MediaItem id="1989" filePath="F:\CSCI-4809\maya\projects\default\images\home_run.1988.jpg" arWidth="1024" arHeight="768" duration="0" songTitle="" songArtist="" songAlbum="" />
    <MediaItem id="362" filePath="F:\CSCI-4809\maya\projects\default\images\home_run.0361.jpg" arWidth="1024" arHeight="768" duration="0" songTitle="" songArtist="" songAlbum="" />
    <MediaItem id="1990" filePath="F:\CSCI-4809\maya\projects\default\images\home_run.1989.jpg" arWidth="1024" arHeight="768" duration="0" songTitle="" songArtist="" songAlbum="" />
    <MediaItem id="363" filePath="F:\CSCI-4809\maya\projects\default\images\home_run.0362.jpg" arWidth="1024" arHeight="768" duration="0" songTitle="" songArtist="" songAlbum="" />
    <MediaItem id="1991" filePath="F:\CSCI-4809\maya\projects\default\images\home_run.1990.jpg" arWidth="1024" arHeight="768" duration="0" songTitle="" songArtist="" songAlbum="" />
    <MediaItem id="364" filePath="F:\CSCI-4809\maya\projects\default\images\home_run.0363.jpg" arWidth="1024" arHeight="768" duration="0" songTitle="" songArtist="" songAlbum="" />
    <MediaItem id="1992" filePath="F:\CSCI-4809\maya\projects\default\images\home_run.1991.jpg" arWidth="1024" arHeight="768" duration="0" songTitle="" songArtist="" songAlbum="" />
    <MediaItem id="365" filePath="F:\CSCI-4809\maya\projects\default\images\home_run.0364.jpg" arWidth="1024" arHeight="768" duration="0" songTitle="" songArtist="" songAlbum="" />
    <MediaItem id="1993" filePath="F:\CSCI-4809\maya\projects\default\images\home_run.1992.jpg" arWidth="1024" arHeight="768" duration="0" songTitle="" songArtist="" songAlbum="" />
    <MediaItem id="366" filePath="F:\CSCI-4809\maya\projects\default\images\home_run.0365.jpg" arWidth="1024" arHeight="768" duration="0" songTitle="" songArtist="" songAlbum="" />
    <MediaItem id="1994" filePath="F:\CSCI-4809\maya\projects\default\images\home_run.1993.jpg" arWidth="1024" arHeight="768" duration="0" songTitle="" songArtist="" songAlbum="" />
    <MediaItem id="367" filePath="F:\CSCI-4809\maya\projects\default\images\home_run.0366.jpg" arWidth="1024" arHeight="768" duration="0" songTitle="" songArtist="" songAlbum="" />
    <MediaItem id="1995" filePath="F:\CSCI-4809\maya\projects\default\images\home_run.1994.jpg" arWidth="1024" arHeight="768" duration="0" songTitle="" songArtist="" songAlbum="" />
    <MediaItem id="368" filePath="F:\CSCI-4809\maya\projects\default\images\home_run.0367.jpg" arWidth="1024" arHeight="768" duration="0" songTitle="" songArtist="" songAlbum="" />
    <MediaItem id="1996" filePath="F:\CSCI-4809\maya\projects\default\images\home_run.1995.jpg" arWidth="1024" arHeight="768" duration="0" songTitle="" songArtist="" songAlbum="" />
    <MediaItem id="369" filePath="F:\CSCI-4809\maya\projects\default\images\home_run.0368.jpg" arWidth="1024" arHeight="768" duration="0" songTitle="" songArtist="" songAlbum="" />
    <MediaItem id="1997" filePath="F:\CSCI-4809\maya\projects\default\images\home_run.1996.jpg" arWidth="1024" arHeight="768" duration="0" songTitle="" songArtist="" songAlbum="" />
    <MediaItem id="370" filePath="F:\CSCI-4809\maya\projects\default\images\home_run.0369.jpg" arWidth="1024" arHeight="768" duration="0" songTitle="" songArtist="" songAlbum="" />
    <MediaItem id="1998" filePath="F:\CSCI-4809\maya\projects\default\images\home_run.1997.jpg" arWidth="1024" arHeight="768" duration="0" songTitle="" songArtist="" songAlbum="" />
    <MediaItem id="371" filePath="F:\CSCI-4809\maya\projects\default\images\home_run.0370.jpg" arWidth="1024" arHeight="768" duration="0" songTitle="" songArtist="" songAlbum="" />
    <MediaItem id="1999" filePath="F:\CSCI-4809\maya\projects\default\images\home_run.1998.jpg" arWidth="1024" arHeight="768" duration="0" songTitle="" songArtist="" songAlbum="" />
    <MediaItem id="372" filePath="F:\CSCI-4809\maya\projects\default\images\home_run.0371.jpg" arWidth="1024" arHeight="768" duration="0" songTitle="" songArtist="" songAlbum="" />
    <MediaItem id="2000" filePath="F:\CSCI-4809\maya\projects\default\images\home_run.1999.jpg" arWidth="1024" arHeight="768" duration="0" songTitle="" songArtist="" songAlbum="" />
    <MediaItem id="373" filePath="F:\CSCI-4809\maya\projects\default\images\home_run.0372.jpg" arWidth="1024" arHeight="768" duration="0" songTitle="" songArtist="" songAlbum="" />
    <MediaItem id="2001" filePath="F:\CSCI-4809\maya\projects\default\images\home_run.2000.jpg" arWidth="1024" arHeight="768" duration="0" songTitle="" songArtist="" songAlbum="" />
    <MediaItem id="374" filePath="F:\CSCI-4809\maya\projects\default\images\home_run.0373.jpg" arWidth="1024" arHeight="768" duration="0" songTitle="" songArtist="" songAlbum="" />
    <MediaItem id="2002" filePath="F:\CSCI-4809\maya\projects\default\images\home_run.2001.jpg" arWidth="1024" arHeight="768" duration="0" songTitle="" songArtist="" songAlbum="" />
    <MediaItem id="375" filePath="F:\CSCI-4809\maya\projects\default\images\home_run.0374.jpg" arWidth="1024" arHeight="768" duration="0" songTitle="" songArtist="" songAlbum="" />
    <MediaItem id="2003" filePath="F:\CSCI-4809\maya\projects\default\images\home_run.2002.jpg" arWidth="1024" arHeight="768" duration="0" songTitle="" songArtist="" songAlbum="" />
    <MediaItem id="376" filePath="F:\CSCI-4809\maya\projects\default\images\home_run.0375.jpg" arWidth="1024" arHeight="768" duration="0" songTitle="" songArtist="" songAlbum="" />
    <MediaItem id="2004" filePath="F:\CSCI-4809\maya\projects\default\images\home_run.2003.jpg" arWidth="1024" arHeight="768" duration="0" songTitle="" songArtist="" songAlbum="" />
    <MediaItem id="377" filePath="F:\CSCI-4809\maya\projects\default\images\home_run.0376.jpg" arWidth="1024" arHeight="768" duration="0" songTitle="" songArtist="" songAlbum="" />
    <MediaItem id="2005" filePath="F:\CSCI-4809\maya\projects\default\images\home_run.2004.jpg" arWidth="1024" arHeight="768" duration="0" songTitle="" songArtist="" songAlbum="" />
    <MediaItem id="378" filePath="F:\CSCI-4809\maya\projects\default\images\home_run.0377.jpg" arWidth="1024" arHeight="768" duration="0" songTitle="" songArtist="" songAlbum="" />
    <MediaItem id="2006" filePath="F:\CSCI-4809\maya\projects\default\images\home_run.2005.jpg" arWidth="1024" arHeight="768" duration="0" songTitle="" songArtist="" songAlbum="" />
    <MediaItem id="379" filePath="F:\CSCI-4809\maya\projects\default\images\home_run.0378.jpg" arWidth="1024" arHeight="768" duration="0" songTitle="" songArtist="" songAlbum="" />
    <MediaItem id="2007" filePath="F:\CSCI-4809\maya\projects\default\images\home_run.2006.jpg" arWidth="1024" arHeight="768" duration="0" songTitle="" songArtist="" songAlbum="" />
    <MediaItem id="380" filePath="F:\CSCI-4809\maya\projects\default\images\home_run.0379.jpg" arWidth="1024" arHeight="768" duration="0" songTitle="" songArtist="" songAlbum="" />
    <MediaItem id="2008" filePath="F:\CSCI-4809\maya\projects\default\images\home_run.2007.jpg" arWidth="1024" arHeight="768" duration="0" songTitle="" songArtist="" songAlbum="" />
    <MediaItem id="381" filePath="F:\CSCI-4809\maya\projects\default\images\home_run.0380.jpg" arWidth="1024" arHeight="768" duration="0" songTitle="" songArtist="" songAlbum="" />
    <MediaItem id="2009" filePath="F:\CSCI-4809\maya\projects\default\images\home_run.2008.jpg" arWidth="1024" arHeight="768" duration="0" songTitle="" songArtist="" songAlbum="" />
    <MediaItem id="382" filePath="F:\CSCI-4809\maya\projects\default\images\home_run.0381.jpg" arWidth="1024" arHeight="768" duration="0" songTitle="" songArtist="" songAlbum="" />
    <MediaItem id="2010" filePath="F:\CSCI-4809\maya\projects\default\images\home_run.2009.jpg" arWidth="1024" arHeight="768" duration="0" songTitle="" songArtist="" songAlbum="" />
    <MediaItem id="383" filePath="F:\CSCI-4809\maya\projects\default\images\home_run.0382.jpg" arWidth="1024" arHeight="768" duration="0" songTitle="" songArtist="" songAlbum="" />
    <MediaItem id="2011" filePath="F:\CSCI-4809\maya\projects\default\images\home_run.2010.jpg" arWidth="1024" arHeight="768" duration="0" songTitle="" songArtist="" songAlbum="" />
    <MediaItem id="384" filePath="F:\CSCI-4809\maya\projects\default\images\home_run.0383.jpg" arWidth="1024" arHeight="768" duration="0" songTitle="" songArtist="" songAlbum="" />
    <MediaItem id="2012" filePath="F:\CSCI-4809\maya\projects\default\images\home_run.2011.jpg" arWidth="1024" arHeight="768" duration="0" songTitle="" songArtist="" songAlbum="" />
    <MediaItem id="385" filePath="F:\CSCI-4809\maya\projects\default\images\home_run.0384.jpg" arWidth="1024" arHeight="768" duration="0" songTitle="" songArtist="" songAlbum="" />
    <MediaItem id="2013" filePath="F:\CSCI-4809\maya\projects\default\images\home_run.2012.jpg" arWidth="1024" arHeight="768" duration="0" songTitle="" songArtist="" songAlbum="" />
    <MediaItem id="386" filePath="F:\CSCI-4809\maya\projects\default\images\home_run.0385.jpg" arWidth="1024" arHeight="768" duration="0" songTitle="" songArtist="" songAlbum="" />
    <MediaItem id="2014" filePath="F:\CSCI-4809\maya\projects\default\images\home_run.2013.jpg" arWidth="1024" arHeight="768" duration="0" songTitle="" songArtist="" songAlbum="" />
    <MediaItem id="387" filePath="F:\CSCI-4809\maya\projects\default\images\home_run.0386.jpg" arWidth="1024" arHeight="768" duration="0" songTitle="" songArtist="" songAlbum="" />
    <MediaItem id="2015" filePath="F:\CSCI-4809\maya\projects\default\images\home_run.2014.jpg" arWidth="1024" arHeight="768" duration="0" songTitle="" songArtist="" songAlbum="" />
    <MediaItem id="388" filePath="F:\CSCI-4809\maya\projects\default\images\home_run.0387.jpg" arWidth="1024" arHeight="768" duration="0" songTitle="" songArtist="" songAlbum="" />
    <MediaItem id="2016" filePath="F:\CSCI-4809\maya\projects\default\images\home_run.2015.jpg" arWidth="1024" arHeight="768" duration="0" songTitle="" songArtist="" songAlbum="" />
    <MediaItem id="389" filePath="F:\CSCI-4809\maya\projects\default\images\home_run.0388.jpg" arWidth="1024" arHeight="768" duration="0" songTitle="" songArtist="" songAlbum="" />
    <MediaItem id="2017" filePath="F:\CSCI-4809\maya\projects\default\images\home_run.2016.jpg" arWidth="1024" arHeight="768" duration="0" songTitle="" songArtist="" songAlbum="" />
    <MediaItem id="390" filePath="F:\CSCI-4809\maya\projects\default\images\home_run.0389.jpg" arWidth="1024" arHeight="768" duration="0" songTitle="" songArtist="" songAlbum="" />
    <MediaItem id="2018" filePath="F:\CSCI-4809\maya\projects\default\images\home_run.2017.jpg" arWidth="1024" arHeight="768" duration="0" songTitle="" songArtist="" songAlbum="" />
    <MediaItem id="391" filePath="F:\CSCI-4809\maya\projects\default\images\home_run.0390.jpg" arWidth="1024" arHeight="768" duration="0" songTitle="" songArtist="" songAlbum="" />
    <MediaItem id="2019" filePath="F:\CSCI-4809\maya\projects\default\images\home_run.2018.jpg" arWidth="1024" arHeight="768" duration="0" songTitle="" songArtist="" songAlbum="" />
    <MediaItem id="392" filePath="F:\CSCI-4809\maya\projects\default\images\home_run.0391.jpg" arWidth="1024" arHeight="768" duration="0" songTitle="" songArtist="" songAlbum="" />
    <MediaItem id="2020" filePath="F:\CSCI-4809\maya\projects\default\images\home_run.2019.jpg" arWidth="1024" arHeight="768" duration="0" songTitle="" songArtist="" songAlbum="" />
    <MediaItem id="393" filePath="F:\CSCI-4809\maya\projects\default\images\home_run.0392.jpg" arWidth="1024" arHeight="768" duration="0" songTitle="" songArtist="" songAlbum="" />
    <MediaItem id="2021" filePath="F:\CSCI-4809\maya\projects\default\images\home_run.2020.jpg" arWidth="1024" arHeight="768" duration="0" songTitle="" songArtist="" songAlbum="" />
    <MediaItem id="394" filePath="F:\CSCI-4809\maya\projects\default\images\home_run.0393.jpg" arWidth="1024" arHeight="768" duration="0" songTitle="" songArtist="" songAlbum="" />
    <MediaItem id="2022" filePath="F:\CSCI-4809\maya\projects\default\images\home_run.2021.jpg" arWidth="1024" arHeight="768" duration="0" songTitle="" songArtist="" songAlbum="" />
    <MediaItem id="395" filePath="F:\CSCI-4809\maya\projects\default\images\home_run.0394.jpg" arWidth="1024" arHeight="768" duration="0" songTitle="" songArtist="" songAlbum="" />
    <MediaItem id="2023" filePath="F:\CSCI-4809\maya\projects\default\images\home_run.2022.jpg" arWidth="1024" arHeight="768" duration="0" songTitle="" songArtist="" songAlbum="" />
    <MediaItem id="396" filePath="F:\CSCI-4809\maya\projects\default\images\home_run.0395.jpg" arWidth="1024" arHeight="768" duration="0" songTitle="" songArtist="" songAlbum="" />
    <MediaItem id="2024" filePath="F:\CSCI-4809\maya\projects\default\images\home_run.2023.jpg" arWidth="1024" arHeight="768" duration="0" songTitle="" songArtist="" songAlbum="" />
    <MediaItem id="397" filePath="F:\CSCI-4809\maya\projects\default\images\home_run.0396.jpg" arWidth="1024" arHeight="768" duration="0" songTitle="" songArtist="" songAlbum="" />
    <MediaItem id="2025" filePath="F:\CSCI-4809\maya\projects\default\images\home_run.2024.jpg" arWidth="1024" arHeight="768" duration="0" songTitle="" songArtist="" songAlbum="" />
    <MediaItem id="398" filePath="F:\CSCI-4809\maya\projects\default\images\home_run.0397.jpg" arWidth="1024" arHeight="768" duration="0" songTitle="" songArtist="" songAlbum="" />
    <MediaItem id="2026" filePath="F:\CSCI-4809\maya\projects\default\images\home_run.2025.jpg" arWidth="1024" arHeight="768" duration="0" songTitle="" songArtist="" songAlbum="" />
    <MediaItem id="399" filePath="F:\CSCI-4809\maya\projects\default\images\home_run.0398.jpg" arWidth="1024" arHeight="768" duration="0" songTitle="" songArtist="" songAlbum="" />
    <MediaItem id="2027" filePath="F:\CSCI-4809\maya\projects\default\images\home_run.2026.jpg" arWidth="1024" arHeight="768" duration="0" songTitle="" songArtist="" songAlbum="" />
    <MediaItem id="400" filePath="F:\CSCI-4809\maya\projects\default\images\home_run.0399.jpg" arWidth="1024" arHeight="768" duration="0" songTitle="" songArtist="" songAlbum="" />
    <MediaItem id="2028" filePath="F:\CSCI-4809\maya\projects\default\images\home_run.2027.jpg" arWidth="1024" arHeight="768" duration="0" songTitle="" songArtist="" songAlbum="" />
    <MediaItem id="401" filePath="F:\CSCI-4809\maya\projects\default\images\home_run.0400.jpg" arWidth="1024" arHeight="768" duration="0" songTitle="" songArtist="" songAlbum="" />
    <MediaItem id="2029" filePath="F:\CSCI-4809\maya\projects\default\images\home_run.2028.jpg" arWidth="1024" arHeight="768" duration="0" songTitle="" songArtist="" songAlbum="" />
    <MediaItem id="402" filePath="F:\CSCI-4809\maya\projects\default\images\home_run.0401.jpg" arWidth="1024" arHeight="768" duration="0" songTitle="" songArtist="" songAlbum="" />
    <MediaItem id="2030" filePath="F:\CSCI-4809\maya\projects\default\images\home_run.2029.jpg" arWidth="1024" arHeight="768" duration="0" songTitle="" songArtist="" songAlbum="" />
    <MediaItem id="403" filePath="F:\CSCI-4809\maya\projects\default\images\home_run.0402.jpg" arWidth="1024" arHeight="768" duration="0" songTitle="" songArtist="" songAlbum="" />
    <MediaItem id="2031" filePath="F:\CSCI-4809\maya\projects\default\images\home_run.2030.jpg" arWidth="1024" arHeight="768" duration="0" songTitle="" songArtist="" songAlbum="" />
    <MediaItem id="404" filePath="F:\CSCI-4809\maya\projects\default\images\home_run.0403.jpg" arWidth="1024" arHeight="768" duration="0" songTitle="" songArtist="" songAlbum="" />
    <MediaItem id="2032" filePath="F:\CSCI-4809\maya\projects\default\images\home_run.2031.jpg" arWidth="1024" arHeight="768" duration="0" songTitle="" songArtist="" songAlbum="" />
    <MediaItem id="405" filePath="F:\CSCI-4809\maya\projects\default\images\home_run.0404.jpg" arWidth="1024" arHeight="768" duration="0" songTitle="" songArtist="" songAlbum="" />
    <MediaItem id="2033" filePath="F:\CSCI-4809\maya\projects\default\images\home_run.2032.jpg" arWidth="1024" arHeight="768" duration="0" songTitle="" songArtist="" songAlbum="" />
    <MediaItem id="406" filePath="F:\CSCI-4809\maya\projects\default\images\home_run.0405.jpg" arWidth="1024" arHeight="768" duration="0" songTitle="" songArtist="" songAlbum="" />
    <MediaItem id="2034" filePath="F:\CSCI-4809\maya\projects\default\images\home_run.2033.jpg" arWidth="1024" arHeight="768" duration="0" songTitle="" songArtist="" songAlbum="" />
    <MediaItem id="407" filePath="F:\CSCI-4809\maya\projects\default\images\home_run.0406.jpg" arWidth="1024" arHeight="768" duration="0" songTitle="" songArtist="" songAlbum="" />
    <MediaItem id="2035" filePath="F:\CSCI-4809\maya\projects\default\images\home_run.2034.jpg" arWidth="1024" arHeight="768" duration="0" songTitle="" songArtist="" songAlbum="" />
    <MediaItem id="408" filePath="F:\CSCI-4809\maya\projects\default\images\home_run.0407.jpg" arWidth="1024" arHeight="768" duration="0" songTitle="" songArtist="" songAlbum="" />
    <MediaItem id="2036" filePath="F:\CSCI-4809\maya\projects\default\images\home_run.2035.jpg" arWidth="1024" arHeight="768" duration="0" songTitle="" songArtist="" songAlbum="" />
    <MediaItem id="409" filePath="F:\CSCI-4809\maya\projects\default\images\home_run.0408.jpg" arWidth="1024" arHeight="768" duration="0" songTitle="" songArtist="" songAlbum="" />
    <MediaItem id="2037" filePath="F:\CSCI-4809\maya\projects\default\images\home_run.2036.jpg" arWidth="1024" arHeight="768" duration="0" songTitle="" songArtist="" songAlbum="" />
    <MediaItem id="410" filePath="F:\CSCI-4809\maya\projects\default\images\home_run.0409.jpg" arWidth="1024" arHeight="768" duration="0" songTitle="" songArtist="" songAlbum="" />
    <MediaItem id="2038" filePath="F:\CSCI-4809\maya\projects\default\images\home_run.2037.jpg" arWidth="1024" arHeight="768" duration="0" songTitle="" songArtist="" songAlbum="" />
    <MediaItem id="411" filePath="F:\CSCI-4809\maya\projects\default\images\home_run.0410.jpg" arWidth="1024" arHeight="768" duration="0" songTitle="" songArtist="" songAlbum="" />
    <MediaItem id="2039" filePath="F:\CSCI-4809\maya\projects\default\images\home_run.2038.jpg" arWidth="1024" arHeight="768" duration="0" songTitle="" songArtist="" songAlbum="" />
    <MediaItem id="412" filePath="F:\CSCI-4809\maya\projects\default\images\home_run.0411.jpg" arWidth="1024" arHeight="768" duration="0" songTitle="" songArtist="" songAlbum="" />
    <MediaItem id="2040" filePath="F:\CSCI-4809\maya\projects\default\images\home_run.2039.jpg" arWidth="1024" arHeight="768" duration="0" songTitle="" songArtist="" songAlbum="" />
    <MediaItem id="413" filePath="F:\CSCI-4809\maya\projects\default\images\home_run.0412.jpg" arWidth="1024" arHeight="768" duration="0" songTitle="" songArtist="" songAlbum="" />
    <MediaItem id="2041" filePath="F:\CSCI-4809\maya\projects\default\images\home_run.2040.jpg" arWidth="1024" arHeight="768" duration="0" songTitle="" songArtist="" songAlbum="" />
    <MediaItem id="414" filePath="F:\CSCI-4809\maya\projects\default\images\home_run.0413.jpg" arWidth="1024" arHeight="768" duration="0" songTitle="" songArtist="" songAlbum="" />
    <MediaItem id="2042" filePath="F:\CSCI-4809\maya\projects\default\images\home_run.2041.jpg" arWidth="1024" arHeight="768" duration="0" songTitle="" songArtist="" songAlbum="" />
    <MediaItem id="415" filePath="F:\CSCI-4809\maya\projects\default\images\home_run.0414.jpg" arWidth="1024" arHeight="768" duration="0" songTitle="" songArtist="" songAlbum="" />
    <MediaItem id="2043" filePath="F:\CSCI-4809\maya\projects\default\images\home_run.2042.jpg" arWidth="1024" arHeight="768" duration="0" songTitle="" songArtist="" songAlbum="" />
    <MediaItem id="416" filePath="F:\CSCI-4809\maya\projects\default\images\home_run.0415.jpg" arWidth="1024" arHeight="768" duration="0" songTitle="" songArtist="" songAlbum="" />
    <MediaItem id="2044" filePath="F:\CSCI-4809\maya\projects\default\images\home_run.2043.jpg" arWidth="1024" arHeight="768" duration="0" songTitle="" songArtist="" songAlbum="" />
    <MediaItem id="417" filePath="F:\CSCI-4809\maya\projects\default\images\home_run.0416.jpg" arWidth="1024" arHeight="768" duration="0" songTitle="" songArtist="" songAlbum="" />
    <MediaItem id="2045" filePath="F:\CSCI-4809\maya\projects\default\images\home_run.2044.jpg" arWidth="1024" arHeight="768" duration="0" songTitle="" songArtist="" songAlbum="" />
    <MediaItem id="418" filePath="F:\CSCI-4809\maya\projects\default\images\home_run.0417.jpg" arWidth="1024" arHeight="768" duration="0" songTitle="" songArtist="" songAlbum="" />
    <MediaItem id="2046" filePath="F:\CSCI-4809\maya\projects\default\images\home_run.2045.jpg" arWidth="1024" arHeight="768" duration="0" songTitle="" songArtist="" songAlbum="" />
    <MediaItem id="419" filePath="F:\CSCI-4809\maya\projects\default\images\home_run.0418.jpg" arWidth="1024" arHeight="768" duration="0" songTitle="" songArtist="" songAlbum="" />
    <MediaItem id="2047" filePath="F:\CSCI-4809\maya\projects\default\images\home_run.2046.jpg" arWidth="1024" arHeight="768" duration="0" songTitle="" songArtist="" songAlbum="" />
    <MediaItem id="420" filePath="F:\CSCI-4809\maya\projects\default\images\home_run.0419.jpg" arWidth="1024" arHeight="768" duration="0" songTitle="" songArtist="" songAlbum="" />
    <MediaItem id="2048" filePath="F:\CSCI-4809\maya\projects\default\images\home_run.2047.jpg" arWidth="1024" arHeight="768" duration="0" songTitle="" songArtist="" songAlbum="" />
    <MediaItem id="421" filePath="F:\CSCI-4809\maya\projects\default\images\home_run.0420.jpg" arWidth="1024" arHeight="768" duration="0" songTitle="" songArtist="" songAlbum="" />
    <MediaItem id="2049" filePath="F:\CSCI-4809\maya\projects\default\images\home_run.2048.jpg" arWidth="1024" arHeight="768" duration="0" songTitle="" songArtist="" songAlbum="" />
    <MediaItem id="422" filePath="F:\CSCI-4809\maya\projects\default\images\home_run.0421.jpg" arWidth="1024" arHeight="768" duration="0" songTitle="" songArtist="" songAlbum="" />
    <MediaItem id="2050" filePath="F:\CSCI-4809\maya\projects\default\images\home_run.2049.jpg" arWidth="1024" arHeight="768" duration="0" songTitle="" songArtist="" songAlbum="" />
    <MediaItem id="423" filePath="F:\CSCI-4809\maya\projects\default\images\home_run.0422.jpg" arWidth="1024" arHeight="768" duration="0" songTitle="" songArtist="" songAlbum="" />
    <MediaItem id="2051" filePath="F:\CSCI-4809\maya\projects\default\images\home_run.2050.jpg" arWidth="1024" arHeight="768" duration="0" songTitle="" songArtist="" songAlbum="" />
    <MediaItem id="424" filePath="F:\CSCI-4809\maya\projects\default\images\home_run.0423.jpg" arWidth="1024" arHeight="768" duration="0" songTitle="" songArtist="" songAlbum="" />
    <MediaItem id="2052" filePath="F:\CSCI-4809\maya\projects\default\images\home_run.2051.jpg" arWidth="1024" arHeight="768" duration="0" songTitle="" songArtist="" songAlbum="" />
    <MediaItem id="425" filePath="F:\CSCI-4809\maya\projects\default\images\home_run.0424.jpg" arWidth="1024" arHeight="768" duration="0" songTitle="" songArtist="" songAlbum="" />
    <MediaItem id="2053" filePath="F:\CSCI-4809\maya\projects\default\images\home_run.2052.jpg" arWidth="1024" arHeight="768" duration="0" songTitle="" songArtist="" songAlbum="" />
    <MediaItem id="426" filePath="F:\CSCI-4809\maya\projects\default\images\home_run.0425.jpg" arWidth="1024" arHeight="768" duration="0" songTitle="" songArtist="" songAlbum="" />
    <MediaItem id="2054" filePath="F:\CSCI-4809\maya\projects\default\images\home_run.2053.jpg" arWidth="1024" arHeight="768" duration="0" songTitle="" songArtist="" songAlbum="" />
    <MediaItem id="427" filePath="F:\CSCI-4809\maya\projects\default\images\home_run.0426.jpg" arWidth="1024" arHeight="768" duration="0" songTitle="" songArtist="" songAlbum="" />
    <MediaItem id="2055" filePath="F:\CSCI-4809\maya\projects\default\images\home_run.2054.jpg" arWidth="1024" arHeight="768" duration="0" songTitle="" songArtist="" songAlbum="" />
    <MediaItem id="428" filePath="F:\CSCI-4809\maya\projects\default\images\home_run.0427.jpg" arWidth="1024" arHeight="768" duration="0" songTitle="" songArtist="" songAlbum="" />
    <MediaItem id="2056" filePath="F:\CSCI-4809\maya\projects\default\images\home_run.2055.jpg" arWidth="1024" arHeight="768" duration="0" songTitle="" songArtist="" songAlbum="" />
    <MediaItem id="429" filePath="F:\CSCI-4809\maya\projects\default\images\home_run.0428.jpg" arWidth="1024" arHeight="768" duration="0" songTitle="" songArtist="" songAlbum="" />
    <MediaItem id="2057" filePath="F:\CSCI-4809\maya\projects\default\images\home_run.2056.jpg" arWidth="1024" arHeight="768" duration="0" songTitle="" songArtist="" songAlbum="" />
    <MediaItem id="430" filePath="F:\CSCI-4809\maya\projects\default\images\home_run.0429.jpg" arWidth="1024" arHeight="768" duration="0" songTitle="" songArtist="" songAlbum="" />
    <MediaItem id="2058" filePath="F:\CSCI-4809\maya\projects\default\images\home_run.2057.jpg" arWidth="1024" arHeight="768" duration="0" songTitle="" songArtist="" songAlbum="" />
    <MediaItem id="431" filePath="F:\CSCI-4809\maya\projects\default\images\home_run.0430.jpg" arWidth="1024" arHeight="768" duration="0" songTitle="" songArtist="" songAlbum="" />
    <MediaItem id="2059" filePath="F:\CSCI-4809\maya\projects\default\images\home_run.2058.jpg" arWidth="1024" arHeight="768" duration="0" songTitle="" songArtist="" songAlbum="" />
    <MediaItem id="432" filePath="F:\CSCI-4809\maya\projects\default\images\home_run.0431.jpg" arWidth="1024" arHeight="768" duration="0" songTitle="" songArtist="" songAlbum="" />
    <MediaItem id="2060" filePath="F:\CSCI-4809\maya\projects\default\images\home_run.2059.jpg" arWidth="1024" arHeight="768" duration="0" songTitle="" songArtist="" songAlbum="" />
    <MediaItem id="433" filePath="F:\CSCI-4809\maya\projects\default\images\home_run.0432.jpg" arWidth="1024" arHeight="768" duration="0" songTitle="" songArtist="" songAlbum="" />
    <MediaItem id="2061" filePath="F:\CSCI-4809\maya\projects\default\images\home_run.2060.jpg" arWidth="1024" arHeight="768" duration="0" songTitle="" songArtist="" songAlbum="" />
    <MediaItem id="434" filePath="F:\CSCI-4809\maya\projects\default\images\home_run.0433.jpg" arWidth="1024" arHeight="768" duration="0" songTitle="" songArtist="" songAlbum="" />
    <MediaItem id="2062" filePath="F:\CSCI-4809\maya\projects\default\images\home_run.2061.jpg" arWidth="1024" arHeight="768" duration="0" songTitle="" songArtist="" songAlbum="" />
    <MediaItem id="435" filePath="F:\CSCI-4809\maya\projects\default\images\home_run.0434.jpg" arWidth="1024" arHeight="768" duration="0" songTitle="" songArtist="" songAlbum="" />
    <MediaItem id="2063" filePath="F:\CSCI-4809\maya\projects\default\images\home_run.2062.jpg" arWidth="1024" arHeight="768" duration="0" songTitle="" songArtist="" songAlbum="" />
    <MediaItem id="436" filePath="F:\CSCI-4809\maya\projects\default\images\home_run.0435.jpg" arWidth="1024" arHeight="768" duration="0" songTitle="" songArtist="" songAlbum="" />
    <MediaItem id="2064" filePath="F:\CSCI-4809\maya\projects\default\images\home_run.2063.jpg" arWidth="1024" arHeight="768" duration="0" songTitle="" songArtist="" songAlbum="" />
    <MediaItem id="437" filePath="F:\CSCI-4809\maya\projects\default\images\home_run.0436.jpg" arWidth="1024" arHeight="768" duration="0" songTitle="" songArtist="" songAlbum="" />
    <MediaItem id="2065" filePath="F:\CSCI-4809\maya\projects\default\images\home_run.2064.jpg" arWidth="1024" arHeight="768" duration="0" songTitle="" songArtist="" songAlbum="" />
    <MediaItem id="438" filePath="F:\CSCI-4809\maya\projects\default\images\home_run.0437.jpg" arWidth="1024" arHeight="768" duration="0" songTitle="" songArtist="" songAlbum="" />
    <MediaItem id="2066" filePath="F:\CSCI-4809\maya\projects\default\images\home_run.2065.jpg" arWidth="1024" arHeight="768" duration="0" songTitle="" songArtist="" songAlbum="" />
    <MediaItem id="439" filePath="F:\CSCI-4809\maya\projects\default\images\home_run.0438.jpg" arWidth="1024" arHeight="768" duration="0" songTitle="" songArtist="" songAlbum="" />
    <MediaItem id="2067" filePath="F:\CSCI-4809\maya\projects\default\images\home_run.2066.jpg" arWidth="1024" arHeight="768" duration="0" songTitle="" songArtist="" songAlbum="" />
    <MediaItem id="440" filePath="F:\CSCI-4809\maya\projects\default\images\home_run.0439.jpg" arWidth="1024" arHeight="768" duration="0" songTitle="" songArtist="" songAlbum="" />
    <MediaItem id="2068" filePath="F:\CSCI-4809\maya\projects\default\images\home_run.2067.jpg" arWidth="1024" arHeight="768" duration="0" songTitle="" songArtist="" songAlbum="" />
    <MediaItem id="441" filePath="F:\CSCI-4809\maya\projects\default\images\home_run.0440.jpg" arWidth="1024" arHeight="768" duration="0" songTitle="" songArtist="" songAlbum="" />
    <MediaItem id="2069" filePath="F:\CSCI-4809\maya\projects\default\images\home_run.2068.jpg" arWidth="1024" arHeight="768" duration="0" songTitle="" songArtist="" songAlbum="" />
    <MediaItem id="442" filePath="F:\CSCI-4809\maya\projects\default\images\home_run.0441.jpg" arWidth="1024" arHeight="768" duration="0" songTitle="" songArtist="" songAlbum="" />
    <MediaItem id="2070" filePath="F:\CSCI-4809\maya\projects\default\images\home_run.2069.jpg" arWidth="1024" arHeight="768" duration="0" songTitle="" songArtist="" songAlbum="" />
    <MediaItem id="443" filePath="F:\CSCI-4809\maya\projects\default\images\home_run.0442.jpg" arWidth="1024" arHeight="768" duration="0" songTitle="" songArtist="" songAlbum="" />
    <MediaItem id="2071" filePath="F:\CSCI-4809\maya\projects\default\images\home_run.2070.jpg" arWidth="1024" arHeight="768" duration="0" songTitle="" songArtist="" songAlbum="" />
    <MediaItem id="444" filePath="F:\CSCI-4809\maya\projects\default\images\home_run.0443.jpg" arWidth="1024" arHeight="768" duration="0" songTitle="" songArtist="" songAlbum="" />
    <MediaItem id="2072" filePath="F:\CSCI-4809\maya\projects\default\images\home_run.2071.jpg" arWidth="1024" arHeight="768" duration="0" songTitle="" songArtist="" songAlbum="" />
    <MediaItem id="445" filePath="F:\CSCI-4809\maya\projects\default\images\home_run.0444.jpg" arWidth="1024" arHeight="768" duration="0" songTitle="" songArtist="" songAlbum="" />
    <MediaItem id="2073" filePath="F:\CSCI-4809\maya\projects\default\images\home_run.2072.jpg" arWidth="1024" arHeight="768" duration="0" songTitle="" songArtist="" songAlbum="" />
    <MediaItem id="446" filePath="F:\CSCI-4809\maya\projects\default\images\home_run.0445.jpg" arWidth="1024" arHeight="768" duration="0" songTitle="" songArtist="" songAlbum="" />
    <MediaItem id="2074" filePath="F:\CSCI-4809\maya\projects\default\images\home_run.2073.jpg" arWidth="1024" arHeight="768" duration="0" songTitle="" songArtist="" songAlbum="" />
    <MediaItem id="447" filePath="F:\CSCI-4809\maya\projects\default\images\home_run.0446.jpg" arWidth="1024" arHeight="768" duration="0" songTitle="" songArtist="" songAlbum="" />
    <MediaItem id="2075" filePath="F:\CSCI-4809\maya\projects\default\images\home_run.2074.jpg" arWidth="1024" arHeight="768" duration="0" songTitle="" songArtist="" songAlbum="" />
    <MediaItem id="448" filePath="F:\CSCI-4809\maya\projects\default\images\home_run.0447.jpg" arWidth="1024" arHeight="768" duration="0" songTitle="" songArtist="" songAlbum="" />
    <MediaItem id="2076" filePath="F:\CSCI-4809\maya\projects\default\images\home_run.2075.jpg" arWidth="1024" arHeight="768" duration="0" songTitle="" songArtist="" songAlbum="" />
    <MediaItem id="449" filePath="F:\CSCI-4809\maya\projects\default\images\home_run.0448.jpg" arWidth="1024" arHeight="768" duration="0" songTitle="" songArtist="" songAlbum="" />
    <MediaItem id="2077" filePath="F:\CSCI-4809\maya\projects\default\images\home_run.2076.jpg" arWidth="1024" arHeight="768" duration="0" songTitle="" songArtist="" songAlbum="" />
    <MediaItem id="450" filePath="F:\CSCI-4809\maya\projects\default\images\home_run.0449.jpg" arWidth="1024" arHeight="768" duration="0" songTitle="" songArtist="" songAlbum="" />
    <MediaItem id="2078" filePath="F:\CSCI-4809\maya\projects\default\images\home_run.2077.jpg" arWidth="1024" arHeight="768" duration="0" songTitle="" songArtist="" songAlbum="" />
    <MediaItem id="451" filePath="F:\CSCI-4809\maya\projects\default\images\home_run.0450.jpg" arWidth="1024" arHeight="768" duration="0" songTitle="" songArtist="" songAlbum="" />
    <MediaItem id="2079" filePath="F:\CSCI-4809\maya\projects\default\images\home_run.2078.jpg" arWidth="1024" arHeight="768" duration="0" songTitle="" songArtist="" songAlbum="" />
    <MediaItem id="452" filePath="F:\CSCI-4809\maya\projects\default\images\home_run.0451.jpg" arWidth="1024" arHeight="768" duration="0" songTitle="" songArtist="" songAlbum="" />
    <MediaItem id="2080" filePath="F:\CSCI-4809\maya\projects\default\images\home_run.2079.jpg" arWidth="1024" arHeight="768" duration="0" songTitle="" songArtist="" songAlbum="" />
    <MediaItem id="453" filePath="F:\CSCI-4809\maya\projects\default\images\home_run.0452.jpg" arWidth="1024" arHeight="768" duration="0" songTitle="" songArtist="" songAlbum="" />
    <MediaItem id="2081" filePath="F:\CSCI-4809\maya\projects\default\images\home_run.2080.jpg" arWidth="1024" arHeight="768" duration="0" songTitle="" songArtist="" songAlbum="" />
    <MediaItem id="454" filePath="F:\CSCI-4809\maya\projects\default\images\home_run.0453.jpg" arWidth="1024" arHeight="768" duration="0" songTitle="" songArtist="" songAlbum="" />
    <MediaItem id="2082" filePath="F:\CSCI-4809\maya\projects\default\images\home_run.2081.jpg" arWidth="1024" arHeight="768" duration="0" songTitle="" songArtist="" songAlbum="" />
    <MediaItem id="455" filePath="F:\CSCI-4809\maya\projects\default\images\home_run.0454.jpg" arWidth="1024" arHeight="768" duration="0" songTitle="" songArtist="" songAlbum="" />
    <MediaItem id="2083" filePath="F:\CSCI-4809\maya\projects\default\images\home_run.2082.jpg" arWidth="1024" arHeight="768" duration="0" songTitle="" songArtist="" songAlbum="" />
    <MediaItem id="456" filePath="F:\CSCI-4809\maya\projects\default\images\home_run.0455.jpg" arWidth="1024" arHeight="768" duration="0" songTitle="" songArtist="" songAlbum="" />
    <MediaItem id="2084" filePath="F:\CSCI-4809\maya\projects\default\images\home_run.2083.jpg" arWidth="1024" arHeight="768" duration="0" songTitle="" songArtist="" songAlbum="" />
    <MediaItem id="457" filePath="F:\CSCI-4809\maya\projects\default\images\home_run.0456.jpg" arWidth="1024" arHeight="768" duration="0" songTitle="" songArtist="" songAlbum="" />
    <MediaItem id="2085" filePath="F:\CSCI-4809\maya\projects\default\images\home_run.2084.jpg" arWidth="1024" arHeight="768" duration="0" songTitle="" songArtist="" songAlbum="" />
    <MediaItem id="458" filePath="F:\CSCI-4809\maya\projects\default\images\home_run.0457.jpg" arWidth="1024" arHeight="768" duration="0" songTitle="" songArtist="" songAlbum="" />
    <MediaItem id="2086" filePath="F:\CSCI-4809\maya\projects\default\images\home_run.2085.jpg" arWidth="1024" arHeight="768" duration="0" songTitle="" songArtist="" songAlbum="" />
    <MediaItem id="459" filePath="F:\CSCI-4809\maya\projects\default\images\home_run.0458.jpg" arWidth="1024" arHeight="768" duration="0" songTitle="" songArtist="" songAlbum="" />
    <MediaItem id="2087" filePath="F:\CSCI-4809\maya\projects\default\images\home_run.2086.jpg" arWidth="1024" arHeight="768" duration="0" songTitle="" songArtist="" songAlbum="" />
    <MediaItem id="460" filePath="F:\CSCI-4809\maya\projects\default\images\home_run.0459.jpg" arWidth="1024" arHeight="768" duration="0" songTitle="" songArtist="" songAlbum="" />
    <MediaItem id="2088" filePath="F:\CSCI-4809\maya\projects\default\images\home_run.2087.jpg" arWidth="1024" arHeight="768" duration="0" songTitle="" songArtist="" songAlbum="" />
    <MediaItem id="461" filePath="F:\CSCI-4809\maya\projects\default\images\home_run.0460.jpg" arWidth="1024" arHeight="768" duration="0" songTitle="" songArtist="" songAlbum="" />
    <MediaItem id="2089" filePath="F:\CSCI-4809\maya\projects\default\images\home_run.2088.jpg" arWidth="1024" arHeight="768" duration="0" songTitle="" songArtist="" songAlbum="" />
    <MediaItem id="462" filePath="F:\CSCI-4809\maya\projects\default\images\home_run.0461.jpg" arWidth="1024" arHeight="768" duration="0" songTitle="" songArtist="" songAlbum="" />
    <MediaItem id="2090" filePath="F:\CSCI-4809\maya\projects\default\images\home_run.2089.jpg" arWidth="1024" arHeight="768" duration="0" songTitle="" songArtist="" songAlbum="" />
    <MediaItem id="463" filePath="F:\CSCI-4809\maya\projects\default\images\home_run.0462.jpg" arWidth="1024" arHeight="768" duration="0" songTitle="" songArtist="" songAlbum="" />
    <MediaItem id="2091" filePath="F:\CSCI-4809\maya\projects\default\images\home_run.2090.jpg" arWidth="1024" arHeight="768" duration="0" songTitle="" songArtist="" songAlbum="" />
    <MediaItem id="464" filePath="F:\CSCI-4809\maya\projects\default\images\home_run.0463.jpg" arWidth="1024" arHeight="768" duration="0" songTitle="" songArtist="" songAlbum="" />
    <MediaItem id="2092" filePath="F:\CSCI-4809\maya\projects\default\images\home_run.2091.jpg" arWidth="1024" arHeight="768" duration="0" songTitle="" songArtist="" songAlbum="" />
    <MediaItem id="465" filePath="F:\CSCI-4809\maya\projects\default\images\home_run.0464.jpg" arWidth="1024" arHeight="768" duration="0" songTitle="" songArtist="" songAlbum="" />
    <MediaItem id="2093" filePath="F:\CSCI-4809\maya\projects\default\images\home_run.2092.jpg" arWidth="1024" arHeight="768" duration="0" songTitle="" songArtist="" songAlbum="" />
    <MediaItem id="466" filePath="F:\CSCI-4809\maya\projects\default\images\home_run.0465.jpg" arWidth="1024" arHeight="768" duration="0" songTitle="" songArtist="" songAlbum="" />
    <MediaItem id="2094" filePath="F:\CSCI-4809\maya\projects\default\images\home_run.2093.jpg" arWidth="1024" arHeight="768" duration="0" songTitle="" songArtist="" songAlbum="" />
    <MediaItem id="467" filePath="F:\CSCI-4809\maya\projects\default\images\home_run.0466.jpg" arWidth="1024" arHeight="768" duration="0" songTitle="" songArtist="" songAlbum="" />
    <MediaItem id="2095" filePath="F:\CSCI-4809\maya\projects\default\images\home_run.2094.jpg" arWidth="1024" arHeight="768" duration="0" songTitle="" songArtist="" songAlbum="" />
    <MediaItem id="468" filePath="F:\CSCI-4809\maya\projects\default\images\home_run.0467.jpg" arWidth="1024" arHeight="768" duration="0" songTitle="" songArtist="" songAlbum="" />
    <MediaItem id="2096" filePath="F:\CSCI-4809\maya\projects\default\images\home_run.2095.jpg" arWidth="1024" arHeight="768" duration="0" songTitle="" songArtist="" songAlbum="" />
    <MediaItem id="469" filePath="F:\CSCI-4809\maya\projects\default\images\home_run.0468.jpg" arWidth="1024" arHeight="768" duration="0" songTitle="" songArtist="" songAlbum="" />
    <MediaItem id="2097" filePath="F:\CSCI-4809\maya\projects\default\images\home_run.2096.jpg" arWidth="1024" arHeight="768" duration="0" songTitle="" songArtist="" songAlbum="" />
    <MediaItem id="470" filePath="F:\CSCI-4809\maya\projects\default\images\home_run.0469.jpg" arWidth="1024" arHeight="768" duration="0" songTitle="" songArtist="" songAlbum="" />
    <MediaItem id="2098" filePath="F:\CSCI-4809\maya\projects\default\images\home_run.2097.jpg" arWidth="1024" arHeight="768" duration="0" songTitle="" songArtist="" songAlbum="" />
    <MediaItem id="471" filePath="F:\CSCI-4809\maya\projects\default\images\home_run.0470.jpg" arWidth="1024" arHeight="768" duration="0" songTitle="" songArtist="" songAlbum="" />
    <MediaItem id="2099" filePath="F:\CSCI-4809\maya\projects\default\images\home_run.2098.jpg" arWidth="1024" arHeight="768" duration="0" songTitle="" songArtist="" songAlbum="" />
    <MediaItem id="472" filePath="F:\CSCI-4809\maya\projects\default\images\home_run.0471.jpg" arWidth="1024" arHeight="768" duration="0" songTitle="" songArtist="" songAlbum="" />
    <MediaItem id="2100" filePath="F:\CSCI-4809\maya\projects\default\images\home_run.2099.jpg" arWidth="1024" arHeight="768" duration="0" songTitle="" songArtist="" songAlbum="" />
    <MediaItem id="473" filePath="F:\CSCI-4809\maya\projects\default\images\home_run.0472.jpg" arWidth="1024" arHeight="768" duration="0" songTitle="" songArtist="" songAlbum="" />
    <MediaItem id="2101" filePath="F:\CSCI-4809\maya\projects\default\images\home_run.2100.jpg" arWidth="1024" arHeight="768" duration="0" songTitle="" songArtist="" songAlbum="" />
    <MediaItem id="474" filePath="F:\CSCI-4809\maya\projects\default\images\home_run.0473.jpg" arWidth="1024" arHeight="768" duration="0" songTitle="" songArtist="" songAlbum="" />
    <MediaItem id="2102" filePath="F:\CSCI-4809\BillMazeroski1960WalkoffHomerun.wav" arWidth="0" arHeight="0" duration="167.99346929999999" songTitle="" songArtist="" songAlbum="" />
    <MediaItem id="475" filePath="F:\CSCI-4809\maya\projects\default\images\home_run.0474.jpg" arWidth="1024" arHeight="768" duration="0" songTitle="" songArtist="" songAlbum="" />
    <MediaItem id="476" filePath="F:\CSCI-4809\maya\projects\default\images\home_run.0475.jpg" arWidth="1024" arHeight="768" duration="0" songTitle="" songArtist="" songAlbum="" />
    <MediaItem id="477" filePath="F:\CSCI-4809\maya\projects\default\images\home_run.0476.jpg" arWidth="1024" arHeight="768" duration="0" songTitle="" songArtist="" songAlbum="" />
    <MediaItem id="478" filePath="F:\CSCI-4809\maya\projects\default\images\home_run.0477.jpg" arWidth="1024" arHeight="768" duration="0" songTitle="" songArtist="" songAlbum="" />
    <MediaItem id="479" filePath="F:\CSCI-4809\maya\projects\default\images\home_run.0478.jpg" arWidth="1024" arHeight="768" duration="0" songTitle="" songArtist="" songAlbum="" />
    <MediaItem id="480" filePath="F:\CSCI-4809\maya\projects\default\images\home_run.0479.jpg" arWidth="1024" arHeight="768" duration="0" songTitle="" songArtist="" songAlbum="" />
    <MediaItem id="481" filePath="F:\CSCI-4809\maya\projects\default\images\home_run.0480.jpg" arWidth="1024" arHeight="768" duration="0" songTitle="" songArtist="" songAlbum="" />
    <MediaItem id="482" filePath="F:\CSCI-4809\maya\projects\default\images\home_run.0481.jpg" arWidth="1024" arHeight="768" duration="0" songTitle="" songArtist="" songAlbum="" />
    <MediaItem id="483" filePath="F:\CSCI-4809\maya\projects\default\images\home_run.0482.jpg" arWidth="1024" arHeight="768" duration="0" songTitle="" songArtist="" songAlbum="" />
    <MediaItem id="484" filePath="F:\CSCI-4809\maya\projects\default\images\home_run.0483.jpg" arWidth="1024" arHeight="768" duration="0" songTitle="" songArtist="" songAlbum="" />
    <MediaItem id="485" filePath="F:\CSCI-4809\maya\projects\default\images\home_run.0484.jpg" arWidth="1024" arHeight="768" duration="0" songTitle="" songArtist="" songAlbum="" />
    <MediaItem id="486" filePath="F:\CSCI-4809\maya\projects\default\images\home_run.0485.jpg" arWidth="1024" arHeight="768" duration="0" songTitle="" songArtist="" songAlbum="" />
    <MediaItem id="487" filePath="F:\CSCI-4809\maya\projects\default\images\home_run.0486.jpg" arWidth="1024" arHeight="768" duration="0" songTitle="" songArtist="" songAlbum="" />
    <MediaItem id="488" filePath="F:\CSCI-4809\maya\projects\default\images\home_run.0487.jpg" arWidth="1024" arHeight="768" duration="0" songTitle="" songArtist="" songAlbum="" />
    <MediaItem id="489" filePath="F:\CSCI-4809\maya\projects\default\images\home_run.0488.jpg" arWidth="1024" arHeight="768" duration="0" songTitle="" songArtist="" songAlbum="" />
    <MediaItem id="490" filePath="F:\CSCI-4809\maya\projects\default\images\home_run.0489.jpg" arWidth="1024" arHeight="768" duration="0" songTitle="" songArtist="" songAlbum="" />
    <MediaItem id="491" filePath="F:\CSCI-4809\maya\projects\default\images\home_run.0490.jpg" arWidth="1024" arHeight="768" duration="0" songTitle="" songArtist="" songAlbum="" />
    <MediaItem id="492" filePath="F:\CSCI-4809\maya\projects\default\images\home_run.0491.jpg" arWidth="1024" arHeight="768" duration="0" songTitle="" songArtist="" songAlbum="" />
    <MediaItem id="493" filePath="F:\CSCI-4809\maya\projects\default\images\home_run.0492.jpg" arWidth="1024" arHeight="768" duration="0" songTitle="" songArtist="" songAlbum="" />
    <MediaItem id="494" filePath="F:\CSCI-4809\maya\projects\default\images\home_run.0493.jpg" arWidth="1024" arHeight="768" duration="0" songTitle="" songArtist="" songAlbum="" />
    <MediaItem id="495" filePath="F:\CSCI-4809\maya\projects\default\images\home_run.0494.jpg" arWidth="1024" arHeight="768" duration="0" songTitle="" songArtist="" songAlbum="" />
    <MediaItem id="496" filePath="F:\CSCI-4809\maya\projects\default\images\home_run.0495.jpg" arWidth="1024" arHeight="768" duration="0" songTitle="" songArtist="" songAlbum="" />
    <MediaItem id="497" filePath="F:\CSCI-4809\maya\projects\default\images\home_run.0496.jpg" arWidth="1024" arHeight="768" duration="0" songTitle="" songArtist="" songAlbum="" />
    <MediaItem id="498" filePath="F:\CSCI-4809\maya\projects\default\images\home_run.0497.jpg" arWidth="1024" arHeight="768" duration="0" songTitle="" songArtist="" songAlbum="" />
    <MediaItem id="499" filePath="F:\CSCI-4809\maya\projects\default\images\home_run.0498.jpg" arWidth="1024" arHeight="768" duration="0" songTitle="" songArtist="" songAlbum="" />
    <MediaItem id="500" filePath="F:\CSCI-4809\maya\projects\default\images\home_run.0499.jpg" arWidth="1024" arHeight="768" duration="0" songTitle="" songArtist="" songAlbum="" />
    <MediaItem id="501" filePath="F:\CSCI-4809\maya\projects\default\images\home_run.0500.jpg" arWidth="1024" arHeight="768" duration="0" songTitle="" songArtist="" songAlbum="" />
    <MediaItem id="502" filePath="F:\CSCI-4809\maya\projects\default\images\home_run.0501.jpg" arWidth="1024" arHeight="768" duration="0" songTitle="" songArtist="" songAlbum="" />
    <MediaItem id="503" filePath="F:\CSCI-4809\maya\projects\default\images\home_run.0502.jpg" arWidth="1024" arHeight="768" duration="0" songTitle="" songArtist="" songAlbum="" />
    <MediaItem id="504" filePath="F:\CSCI-4809\maya\projects\default\images\home_run.0503.jpg" arWidth="1024" arHeight="768" duration="0" songTitle="" songArtist="" songAlbum="" />
    <MediaItem id="505" filePath="F:\CSCI-4809\maya\projects\default\images\home_run.0504.jpg" arWidth="1024" arHeight="768" duration="0" songTitle="" songArtist="" songAlbum="" />
    <MediaItem id="506" filePath="F:\CSCI-4809\maya\projects\default\images\home_run.0505.jpg" arWidth="1024" arHeight="768" duration="0" songTitle="" songArtist="" songAlbum="" />
    <MediaItem id="507" filePath="F:\CSCI-4809\maya\projects\default\images\home_run.0506.jpg" arWidth="1024" arHeight="768" duration="0" songTitle="" songArtist="" songAlbum="" />
    <MediaItem id="508" filePath="F:\CSCI-4809\maya\projects\default\images\home_run.0507.jpg" arWidth="1024" arHeight="768" duration="0" songTitle="" songArtist="" songAlbum="" />
    <MediaItem id="509" filePath="F:\CSCI-4809\maya\projects\default\images\home_run.0508.jpg" arWidth="1024" arHeight="768" duration="0" songTitle="" songArtist="" songAlbum="" />
    <MediaItem id="510" filePath="F:\CSCI-4809\maya\projects\default\images\home_run.0509.jpg" arWidth="1024" arHeight="768" duration="0" songTitle="" songArtist="" songAlbum="" />
    <MediaItem id="511" filePath="F:\CSCI-4809\maya\projects\default\images\home_run.0510.jpg" arWidth="1024" arHeight="768" duration="0" songTitle="" songArtist="" songAlbum="" />
    <MediaItem id="512" filePath="F:\CSCI-4809\maya\projects\default\images\home_run.0511.jpg" arWidth="1024" arHeight="768" duration="0" songTitle="" songArtist="" songAlbum="" />
    <MediaItem id="513" filePath="F:\CSCI-4809\maya\projects\default\images\home_run.0512.jpg" arWidth="1024" arHeight="768" duration="0" songTitle="" songArtist="" songAlbum="" />
    <MediaItem id="514" filePath="F:\CSCI-4809\maya\projects\default\images\home_run.0513.jpg" arWidth="1024" arHeight="768" duration="0" songTitle="" songArtist="" songAlbum="" />
    <MediaItem id="515" filePath="F:\CSCI-4809\maya\projects\default\images\home_run.0514.jpg" arWidth="1024" arHeight="768" duration="0" songTitle="" songArtist="" songAlbum="" />
    <MediaItem id="516" filePath="F:\CSCI-4809\maya\projects\default\images\home_run.0515.jpg" arWidth="1024" arHeight="768" duration="0" songTitle="" songArtist="" songAlbum="" />
    <MediaItem id="517" filePath="F:\CSCI-4809\maya\projects\default\images\home_run.0516.jpg" arWidth="1024" arHeight="768" duration="0" songTitle="" songArtist="" songAlbum="" />
    <MediaItem id="518" filePath="F:\CSCI-4809\maya\projects\default\images\home_run.0517.jpg" arWidth="1024" arHeight="768" duration="0" songTitle="" songArtist="" songAlbum="" />
    <MediaItem id="519" filePath="F:\CSCI-4809\maya\projects\default\images\home_run.0518.jpg" arWidth="1024" arHeight="768" duration="0" songTitle="" songArtist="" songAlbum="" />
    <MediaItem id="520" filePath="F:\CSCI-4809\maya\projects\default\images\home_run.0519.jpg" arWidth="1024" arHeight="768" duration="0" songTitle="" songArtist="" songAlbum="" />
    <MediaItem id="521" filePath="F:\CSCI-4809\maya\projects\default\images\home_run.0520.jpg" arWidth="1024" arHeight="768" duration="0" songTitle="" songArtist="" songAlbum="" />
    <MediaItem id="522" filePath="F:\CSCI-4809\maya\projects\default\images\home_run.0521.jpg" arWidth="1024" arHeight="768" duration="0" songTitle="" songArtist="" songAlbum="" />
    <MediaItem id="523" filePath="F:\CSCI-4809\maya\projects\default\images\home_run.0522.jpg" arWidth="1024" arHeight="768" duration="0" songTitle="" songArtist="" songAlbum="" />
    <MediaItem id="524" filePath="F:\CSCI-4809\maya\projects\default\images\home_run.0523.jpg" arWidth="1024" arHeight="768" duration="0" songTitle="" songArtist="" songAlbum="" />
    <MediaItem id="525" filePath="F:\CSCI-4809\maya\projects\default\images\home_run.0524.jpg" arWidth="1024" arHeight="768" duration="0" songTitle="" songArtist="" songAlbum="" />
    <MediaItem id="526" filePath="F:\CSCI-4809\maya\projects\default\images\home_run.0525.jpg" arWidth="1024" arHeight="768" duration="0" songTitle="" songArtist="" songAlbum="" />
    <MediaItem id="527" filePath="F:\CSCI-4809\maya\projects\default\images\home_run.0526.jpg" arWidth="1024" arHeight="768" duration="0" songTitle="" songArtist="" songAlbum="" />
    <MediaItem id="528" filePath="F:\CSCI-4809\maya\projects\default\images\home_run.0527.jpg" arWidth="1024" arHeight="768" duration="0" songTitle="" songArtist="" songAlbum="" />
    <MediaItem id="529" filePath="F:\CSCI-4809\maya\projects\default\images\home_run.0528.jpg" arWidth="1024" arHeight="768" duration="0" songTitle="" songArtist="" songAlbum="" />
    <MediaItem id="530" filePath="F:\CSCI-4809\maya\projects\default\images\home_run.0529.jpg" arWidth="1024" arHeight="768" duration="0" songTitle="" songArtist="" songAlbum="" />
    <MediaItem id="531" filePath="F:\CSCI-4809\maya\projects\default\images\home_run.0530.jpg" arWidth="1024" arHeight="768" duration="0" songTitle="" songArtist="" songAlbum="" />
    <MediaItem id="532" filePath="F:\CSCI-4809\maya\projects\default\images\home_run.0531.jpg" arWidth="1024" arHeight="768" duration="0" songTitle="" songArtist="" songAlbum="" />
    <MediaItem id="533" filePath="F:\CSCI-4809\maya\projects\default\images\home_run.0532.jpg" arWidth="1024" arHeight="768" duration="0" songTitle="" songArtist="" songAlbum="" />
    <MediaItem id="534" filePath="F:\CSCI-4809\maya\projects\default\images\home_run.0533.jpg" arWidth="1024" arHeight="768" duration="0" songTitle="" songArtist="" songAlbum="" />
    <MediaItem id="535" filePath="F:\CSCI-4809\maya\projects\default\images\home_run.0534.jpg" arWidth="1024" arHeight="768" duration="0" songTitle="" songArtist="" songAlbum="" />
    <MediaItem id="536" filePath="F:\CSCI-4809\maya\projects\default\images\home_run.0535.jpg" arWidth="1024" arHeight="768" duration="0" songTitle="" songArtist="" songAlbum="" />
    <MediaItem id="537" filePath="F:\CSCI-4809\maya\projects\default\images\home_run.0536.jpg" arWidth="1024" arHeight="768" duration="0" songTitle="" songArtist="" songAlbum="" />
    <MediaItem id="538" filePath="F:\CSCI-4809\maya\projects\default\images\home_run.0537.jpg" arWidth="1024" arHeight="768" duration="0" songTitle="" songArtist="" songAlbum="" />
    <MediaItem id="539" filePath="F:\CSCI-4809\maya\projects\default\images\home_run.0538.jpg" arWidth="1024" arHeight="768" duration="0" songTitle="" songArtist="" songAlbum="" />
    <MediaItem id="540" filePath="F:\CSCI-4809\maya\projects\default\images\home_run.0539.jpg" arWidth="1024" arHeight="768" duration="0" songTitle="" songArtist="" songAlbum="" />
    <MediaItem id="541" filePath="F:\CSCI-4809\maya\projects\default\images\home_run.0540.jpg" arWidth="1024" arHeight="768" duration="0" songTitle="" songArtist="" songAlbum="" />
    <MediaItem id="542" filePath="F:\CSCI-4809\maya\projects\default\images\home_run.0541.jpg" arWidth="1024" arHeight="768" duration="0" songTitle="" songArtist="" songAlbum="" />
    <MediaItem id="543" filePath="F:\CSCI-4809\maya\projects\default\images\home_run.0542.jpg" arWidth="1024" arHeight="768" duration="0" songTitle="" songArtist="" songAlbum="" />
    <MediaItem id="544" filePath="F:\CSCI-4809\maya\projects\default\images\home_run.0543.jpg" arWidth="1024" arHeight="768" duration="0" songTitle="" songArtist="" songAlbum="" />
    <MediaItem id="545" filePath="F:\CSCI-4809\maya\projects\default\images\home_run.0544.jpg" arWidth="1024" arHeight="768" duration="0" songTitle="" songArtist="" songAlbum="" />
    <MediaItem id="546" filePath="F:\CSCI-4809\maya\projects\default\images\home_run.0545.jpg" arWidth="1024" arHeight="768" duration="0" songTitle="" songArtist="" songAlbum="" />
    <MediaItem id="547" filePath="F:\CSCI-4809\maya\projects\default\images\home_run.0546.jpg" arWidth="1024" arHeight="768" duration="0" songTitle="" songArtist="" songAlbum="" />
    <MediaItem id="548" filePath="F:\CSCI-4809\maya\projects\default\images\home_run.0547.jpg" arWidth="1024" arHeight="768" duration="0" songTitle="" songArtist="" songAlbum="" />
    <MediaItem id="549" filePath="F:\CSCI-4809\maya\projects\default\images\home_run.0548.jpg" arWidth="1024" arHeight="768" duration="0" songTitle="" songArtist="" songAlbum="" />
    <MediaItem id="550" filePath="F:\CSCI-4809\maya\projects\default\images\home_run.0549.jpg" arWidth="1024" arHeight="768" duration="0" songTitle="" songArtist="" songAlbum="" />
    <MediaItem id="551" filePath="F:\CSCI-4809\maya\projects\default\images\home_run.0550.jpg" arWidth="1024" arHeight="768" duration="0" songTitle="" songArtist="" songAlbum="" />
    <MediaItem id="552" filePath="F:\CSCI-4809\maya\projects\default\images\home_run.0551.jpg" arWidth="1024" arHeight="768" duration="0" songTitle="" songArtist="" songAlbum="" />
    <MediaItem id="553" filePath="F:\CSCI-4809\maya\projects\default\images\home_run.0552.jpg" arWidth="1024" arHeight="768" duration="0" songTitle="" songArtist="" songAlbum="" />
    <MediaItem id="554" filePath="F:\CSCI-4809\maya\projects\default\images\home_run.0553.jpg" arWidth="1024" arHeight="768" duration="0" songTitle="" songArtist="" songAlbum="" />
    <MediaItem id="555" filePath="F:\CSCI-4809\maya\projects\default\images\home_run.0554.jpg" arWidth="1024" arHeight="768" duration="0" songTitle="" songArtist="" songAlbum="" />
    <MediaItem id="556" filePath="F:\CSCI-4809\maya\projects\default\images\home_run.0555.jpg" arWidth="1024" arHeight="768" duration="0" songTitle="" songArtist="" songAlbum="" />
    <MediaItem id="557" filePath="F:\CSCI-4809\maya\projects\default\images\home_run.0556.jpg" arWidth="1024" arHeight="768" duration="0" songTitle="" songArtist="" songAlbum="" />
    <MediaItem id="558" filePath="F:\CSCI-4809\maya\projects\default\images\home_run.0557.jpg" arWidth="1024" arHeight="768" duration="0" songTitle="" songArtist="" songAlbum="" />
    <MediaItem id="559" filePath="F:\CSCI-4809\maya\projects\default\images\home_run.0558.jpg" arWidth="1024" arHeight="768" duration="0" songTitle="" songArtist="" songAlbum="" />
    <MediaItem id="560" filePath="F:\CSCI-4809\maya\projects\default\images\home_run.0559.jpg" arWidth="1024" arHeight="768" duration="0" songTitle="" songArtist="" songAlbum="" />
    <MediaItem id="561" filePath="F:\CSCI-4809\maya\projects\default\images\home_run.0560.jpg" arWidth="1024" arHeight="768" duration="0" songTitle="" songArtist="" songAlbum="" />
    <MediaItem id="562" filePath="F:\CSCI-4809\maya\projects\default\images\home_run.0561.jpg" arWidth="1024" arHeight="768" duration="0" songTitle="" songArtist="" songAlbum="" />
    <MediaItem id="563" filePath="F:\CSCI-4809\maya\projects\default\images\home_run.0562.jpg" arWidth="1024" arHeight="768" duration="0" songTitle="" songArtist="" songAlbum="" />
    <MediaItem id="564" filePath="F:\CSCI-4809\maya\projects\default\images\home_run.0563.jpg" arWidth="1024" arHeight="768" duration="0" songTitle="" songArtist="" songAlbum="" />
    <MediaItem id="565" filePath="F:\CSCI-4809\maya\projects\default\images\home_run.0564.jpg" arWidth="1024" arHeight="768" duration="0" songTitle="" songArtist="" songAlbum="" />
    <MediaItem id="566" filePath="F:\CSCI-4809\maya\projects\default\images\home_run.0565.jpg" arWidth="1024" arHeight="768" duration="0" songTitle="" songArtist="" songAlbum="" />
    <MediaItem id="567" filePath="F:\CSCI-4809\maya\projects\default\images\home_run.0566.jpg" arWidth="1024" arHeight="768" duration="0" songTitle="" songArtist="" songAlbum="" />
    <MediaItem id="568" filePath="F:\CSCI-4809\maya\projects\default\images\home_run.0567.jpg" arWidth="1024" arHeight="768" duration="0" songTitle="" songArtist="" songAlbum="" />
    <MediaItem id="569" filePath="F:\CSCI-4809\maya\projects\default\images\home_run.0568.jpg" arWidth="1024" arHeight="768" duration="0" songTitle="" songArtist="" songAlbum="" />
    <MediaItem id="570" filePath="F:\CSCI-4809\maya\projects\default\images\home_run.0569.jpg" arWidth="1024" arHeight="768" duration="0" songTitle="" songArtist="" songAlbum="" />
    <MediaItem id="571" filePath="F:\CSCI-4809\maya\projects\default\images\home_run.0570.jpg" arWidth="1024" arHeight="768" duration="0" songTitle="" songArtist="" songAlbum="" />
    <MediaItem id="572" filePath="F:\CSCI-4809\maya\projects\default\images\home_run.0571.jpg" arWidth="1024" arHeight="768" duration="0" songTitle="" songArtist="" songAlbum="" />
    <MediaItem id="573" filePath="F:\CSCI-4809\maya\projects\default\images\home_run.0572.jpg" arWidth="1024" arHeight="768" duration="0" songTitle="" songArtist="" songAlbum="" />
    <MediaItem id="574" filePath="F:\CSCI-4809\maya\projects\default\images\home_run.0573.jpg" arWidth="1024" arHeight="768" duration="0" songTitle="" songArtist="" songAlbum="" />
    <MediaItem id="575" filePath="F:\CSCI-4809\maya\projects\default\images\home_run.0574.jpg" arWidth="1024" arHeight="768" duration="0" songTitle="" songArtist="" songAlbum="" />
    <MediaItem id="576" filePath="F:\CSCI-4809\maya\projects\default\images\home_run.0575.jpg" arWidth="1024" arHeight="768" duration="0" songTitle="" songArtist="" songAlbum="" />
    <MediaItem id="577" filePath="F:\CSCI-4809\maya\projects\default\images\home_run.0576.jpg" arWidth="1024" arHeight="768" duration="0" songTitle="" songArtist="" songAlbum="" />
    <MediaItem id="578" filePath="F:\CSCI-4809\maya\projects\default\images\home_run.0577.jpg" arWidth="1024" arHeight="768" duration="0" songTitle="" songArtist="" songAlbum="" />
    <MediaItem id="579" filePath="F:\CSCI-4809\maya\projects\default\images\home_run.0578.jpg" arWidth="1024" arHeight="768" duration="0" songTitle="" songArtist="" songAlbum="" />
    <MediaItem id="580" filePath="F:\CSCI-4809\maya\projects\default\images\home_run.0579.jpg" arWidth="1024" arHeight="768" duration="0" songTitle="" songArtist="" songAlbum="" />
    <MediaItem id="581" filePath="F:\CSCI-4809\maya\projects\default\images\home_run.0580.jpg" arWidth="1024" arHeight="768" duration="0" songTitle="" songArtist="" songAlbum="" />
    <MediaItem id="582" filePath="F:\CSCI-4809\maya\projects\default\images\home_run.0581.jpg" arWidth="1024" arHeight="768" duration="0" songTitle="" songArtist="" songAlbum="" />
    <MediaItem id="583" filePath="F:\CSCI-4809\maya\projects\default\images\home_run.0582.jpg" arWidth="1024" arHeight="768" duration="0" songTitle="" songArtist="" songAlbum="" />
    <MediaItem id="584" filePath="F:\CSCI-4809\maya\projects\default\images\home_run.0583.jpg" arWidth="1024" arHeight="768" duration="0" songTitle="" songArtist="" songAlbum="" />
    <MediaItem id="585" filePath="F:\CSCI-4809\maya\projects\default\images\home_run.0584.jpg" arWidth="1024" arHeight="768" duration="0" songTitle="" songArtist="" songAlbum="" />
    <MediaItem id="586" filePath="F:\CSCI-4809\maya\projects\default\images\home_run.0585.jpg" arWidth="1024" arHeight="768" duration="0" songTitle="" songArtist="" songAlbum="" />
    <MediaItem id="587" filePath="F:\CSCI-4809\maya\projects\default\images\home_run.0586.jpg" arWidth="1024" arHeight="768" duration="0" songTitle="" songArtist="" songAlbum="" />
    <MediaItem id="588" filePath="F:\CSCI-4809\maya\projects\default\images\home_run.0587.jpg" arWidth="1024" arHeight="768" duration="0" songTitle="" songArtist="" songAlbum="" />
    <MediaItem id="589" filePath="F:\CSCI-4809\maya\projects\default\images\home_run.0588.jpg" arWidth="1024" arHeight="768" duration="0" songTitle="" songArtist="" songAlbum="" />
    <MediaItem id="590" filePath="F:\CSCI-4809\maya\projects\default\images\home_run.0589.jpg" arWidth="1024" arHeight="768" duration="0" songTitle="" songArtist="" songAlbum="" />
    <MediaItem id="591" filePath="F:\CSCI-4809\maya\projects\default\images\home_run.0590.jpg" arWidth="1024" arHeight="768" duration="0" songTitle="" songArtist="" songAlbum="" />
    <MediaItem id="592" filePath="F:\CSCI-4809\maya\projects\default\images\home_run.0591.jpg" arWidth="1024" arHeight="768" duration="0" songTitle="" songArtist="" songAlbum="" />
    <MediaItem id="593" filePath="F:\CSCI-4809\maya\projects\default\images\home_run.0592.jpg" arWidth="1024" arHeight="768" duration="0" songTitle="" songArtist="" songAlbum="" />
    <MediaItem id="594" filePath="F:\CSCI-4809\maya\projects\default\images\home_run.0593.jpg" arWidth="1024" arHeight="768" duration="0" songTitle="" songArtist="" songAlbum="" />
    <MediaItem id="595" filePath="F:\CSCI-4809\maya\projects\default\images\home_run.0594.jpg" arWidth="1024" arHeight="768" duration="0" songTitle="" songArtist="" songAlbum="" />
    <MediaItem id="596" filePath="F:\CSCI-4809\maya\projects\default\images\home_run.0595.jpg" arWidth="1024" arHeight="768" duration="0" songTitle="" songArtist="" songAlbum="" />
    <MediaItem id="597" filePath="F:\CSCI-4809\maya\projects\default\images\home_run.0596.jpg" arWidth="1024" arHeight="768" duration="0" songTitle="" songArtist="" songAlbum="" />
    <MediaItem id="598" filePath="F:\CSCI-4809\maya\projects\default\images\home_run.0597.jpg" arWidth="1024" arHeight="768" duration="0" songTitle="" songArtist="" songAlbum="" />
    <MediaItem id="599" filePath="F:\CSCI-4809\maya\projects\default\images\home_run.0598.jpg" arWidth="1024" arHeight="768" duration="0" songTitle="" songArtist="" songAlbum="" />
    <MediaItem id="600" filePath="F:\CSCI-4809\maya\projects\default\images\home_run.0599.jpg" arWidth="1024" arHeight="768" duration="0" songTitle="" songArtist="" songAlbum="" />
    <MediaItem id="601" filePath="F:\CSCI-4809\maya\projects\default\images\home_run.0600.jpg" arWidth="1024" arHeight="768" duration="0" songTitle="" songArtist="" songAlbum="" />
    <MediaItem id="602" filePath="F:\CSCI-4809\maya\projects\default\images\home_run.0601.jpg" arWidth="1024" arHeight="768" duration="0" songTitle="" songArtist="" songAlbum="" />
    <MediaItem id="603" filePath="F:\CSCI-4809\maya\projects\default\images\home_run.0602.jpg" arWidth="1024" arHeight="768" duration="0" songTitle="" songArtist="" songAlbum="" />
    <MediaItem id="604" filePath="F:\CSCI-4809\maya\projects\default\images\home_run.0603.jpg" arWidth="1024" arHeight="768" duration="0" songTitle="" songArtist="" songAlbum="" />
    <MediaItem id="605" filePath="F:\CSCI-4809\maya\projects\default\images\home_run.0604.jpg" arWidth="1024" arHeight="768" duration="0" songTitle="" songArtist="" songAlbum="" />
    <MediaItem id="606" filePath="F:\CSCI-4809\maya\projects\default\images\home_run.0605.jpg" arWidth="1024" arHeight="768" duration="0" songTitle="" songArtist="" songAlbum="" />
    <MediaItem id="607" filePath="F:\CSCI-4809\maya\projects\default\images\home_run.0606.jpg" arWidth="1024" arHeight="768" duration="0" songTitle="" songArtist="" songAlbum="" />
    <MediaItem id="608" filePath="F:\CSCI-4809\maya\projects\default\images\home_run.0607.jpg" arWidth="1024" arHeight="768" duration="0" songTitle="" songArtist="" songAlbum="" />
    <MediaItem id="609" filePath="F:\CSCI-4809\maya\projects\default\images\home_run.0608.jpg" arWidth="1024" arHeight="768" duration="0" songTitle="" songArtist="" songAlbum="" />
    <MediaItem id="610" filePath="F:\CSCI-4809\maya\projects\default\images\home_run.0609.jpg" arWidth="1024" arHeight="768" duration="0" songTitle="" songArtist="" songAlbum="" />
    <MediaItem id="611" filePath="F:\CSCI-4809\maya\projects\default\images\home_run.0610.jpg" arWidth="1024" arHeight="768" duration="0" songTitle="" songArtist="" songAlbum="" />
    <MediaItem id="612" filePath="F:\CSCI-4809\maya\projects\default\images\home_run.0611.jpg" arWidth="1024" arHeight="768" duration="0" songTitle="" songArtist="" songAlbum="" />
    <MediaItem id="613" filePath="F:\CSCI-4809\maya\projects\default\images\home_run.0612.jpg" arWidth="1024" arHeight="768" duration="0" songTitle="" songArtist="" songAlbum="" />
    <MediaItem id="614" filePath="F:\CSCI-4809\maya\projects\default\images\home_run.0613.jpg" arWidth="1024" arHeight="768" duration="0" songTitle="" songArtist="" songAlbum="" />
    <MediaItem id="615" filePath="F:\CSCI-4809\maya\projects\default\images\home_run.0614.jpg" arWidth="1024" arHeight="768" duration="0" songTitle="" songArtist="" songAlbum="" />
    <MediaItem id="616" filePath="F:\CSCI-4809\maya\projects\default\images\home_run.0615.jpg" arWidth="1024" arHeight="768" duration="0" songTitle="" songArtist="" songAlbum="" />
    <MediaItem id="617" filePath="F:\CSCI-4809\maya\projects\default\images\home_run.0616.jpg" arWidth="1024" arHeight="768" duration="0" songTitle="" songArtist="" songAlbum="" />
    <MediaItem id="618" filePath="F:\CSCI-4809\maya\projects\default\images\home_run.0617.jpg" arWidth="1024" arHeight="768" duration="0" songTitle="" songArtist="" songAlbum="" />
    <MediaItem id="619" filePath="F:\CSCI-4809\maya\projects\default\images\home_run.0618.jpg" arWidth="1024" arHeight="768" duration="0" songTitle="" songArtist="" songAlbum="" />
    <MediaItem id="620" filePath="F:\CSCI-4809\maya\projects\default\images\home_run.0619.jpg" arWidth="1024" arHeight="768" duration="0" songTitle="" songArtist="" songAlbum="" />
    <MediaItem id="621" filePath="F:\CSCI-4809\maya\projects\default\images\home_run.0620.jpg" arWidth="1024" arHeight="768" duration="0" songTitle="" songArtist="" songAlbum="" />
    <MediaItem id="622" filePath="F:\CSCI-4809\maya\projects\default\images\home_run.0621.jpg" arWidth="1024" arHeight="768" duration="0" songTitle="" songArtist="" songAlbum="" />
    <MediaItem id="623" filePath="F:\CSCI-4809\maya\projects\default\images\home_run.0622.jpg" arWidth="1024" arHeight="768" duration="0" songTitle="" songArtist="" songAlbum="" />
    <MediaItem id="624" filePath="F:\CSCI-4809\maya\projects\default\images\home_run.0623.jpg" arWidth="1024" arHeight="768" duration="0" songTitle="" songArtist="" songAlbum="" />
    <MediaItem id="625" filePath="F:\CSCI-4809\maya\projects\default\images\home_run.0624.jpg" arWidth="1024" arHeight="768" duration="0" songTitle="" songArtist="" songAlbum="" />
    <MediaItem id="626" filePath="F:\CSCI-4809\maya\projects\default\images\home_run.0625.jpg" arWidth="1024" arHeight="768" duration="0" songTitle="" songArtist="" songAlbum="" />
    <MediaItem id="627" filePath="F:\CSCI-4809\maya\projects\default\images\home_run.0626.jpg" arWidth="1024" arHeight="768" duration="0" songTitle="" songArtist="" songAlbum="" />
    <MediaItem id="628" filePath="F:\CSCI-4809\maya\projects\default\images\home_run.0627.jpg" arWidth="1024" arHeight="768" duration="0" songTitle="" songArtist="" songAlbum="" />
    <MediaItem id="629" filePath="F:\CSCI-4809\maya\projects\default\images\home_run.0628.jpg" arWidth="1024" arHeight="768" duration="0" songTitle="" songArtist="" songAlbum="" />
    <MediaItem id="630" filePath="F:\CSCI-4809\maya\projects\default\images\home_run.0629.jpg" arWidth="1024" arHeight="768" duration="0" songTitle="" songArtist="" songAlbum="" />
    <MediaItem id="631" filePath="F:\CSCI-4809\maya\projects\default\images\home_run.0630.jpg" arWidth="1024" arHeight="768" duration="0" songTitle="" songArtist="" songAlbum="" />
    <MediaItem id="632" filePath="F:\CSCI-4809\maya\projects\default\images\home_run.0631.jpg" arWidth="1024" arHeight="768" duration="0" songTitle="" songArtist="" songAlbum="" />
    <MediaItem id="633" filePath="F:\CSCI-4809\maya\projects\default\images\home_run.0632.jpg" arWidth="1024" arHeight="768" duration="0" songTitle="" songArtist="" songAlbum="" />
    <MediaItem id="634" filePath="F:\CSCI-4809\maya\projects\default\images\home_run.0633.jpg" arWidth="1024" arHeight="768" duration="0" songTitle="" songArtist="" songAlbum="" />
    <MediaItem id="635" filePath="F:\CSCI-4809\maya\projects\default\images\home_run.0634.jpg" arWidth="1024" arHeight="768" duration="0" songTitle="" songArtist="" songAlbum="" />
    <MediaItem id="636" filePath="F:\CSCI-4809\maya\projects\default\images\home_run.0635.jpg" arWidth="1024" arHeight="768" duration="0" songTitle="" songArtist="" songAlbum="" />
    <MediaItem id="637" filePath="F:\CSCI-4809\maya\projects\default\images\home_run.0636.jpg" arWidth="1024" arHeight="768" duration="0" songTitle="" songArtist="" songAlbum="" />
    <MediaItem id="638" filePath="F:\CSCI-4809\maya\projects\default\images\home_run.0637.jpg" arWidth="1024" arHeight="768" duration="0" songTitle="" songArtist="" songAlbum="" />
    <MediaItem id="639" filePath="F:\CSCI-4809\maya\projects\default\images\home_run.0638.jpg" arWidth="1024" arHeight="768" duration="0" songTitle="" songArtist="" songAlbum="" />
    <MediaItem id="640" filePath="F:\CSCI-4809\maya\projects\default\images\home_run.0639.jpg" arWidth="1024" arHeight="768" duration="0" songTitle="" songArtist="" songAlbum="" />
    <MediaItem id="641" filePath="F:\CSCI-4809\maya\projects\default\images\home_run.0640.jpg" arWidth="1024" arHeight="768" duration="0" songTitle="" songArtist="" songAlbum="" />
    <MediaItem id="642" filePath="F:\CSCI-4809\maya\projects\default\images\home_run.0641.jpg" arWidth="1024" arHeight="768" duration="0" songTitle="" songArtist="" songAlbum="" />
    <MediaItem id="643" filePath="F:\CSCI-4809\maya\projects\default\images\home_run.0642.jpg" arWidth="1024" arHeight="768" duration="0" songTitle="" songArtist="" songAlbum="" />
    <MediaItem id="644" filePath="F:\CSCI-4809\maya\projects\default\images\home_run.0643.jpg" arWidth="1024" arHeight="768" duration="0" songTitle="" songArtist="" songAlbum="" />
    <MediaItem id="645" filePath="F:\CSCI-4809\maya\projects\default\images\home_run.0644.jpg" arWidth="1024" arHeight="768" duration="0" songTitle="" songArtist="" songAlbum="" />
    <MediaItem id="646" filePath="F:\CSCI-4809\maya\projects\default\images\home_run.0645.jpg" arWidth="1024" arHeight="768" duration="0" songTitle="" songArtist="" songAlbum="" />
    <MediaItem id="647" filePath="F:\CSCI-4809\maya\projects\default\images\home_run.0646.jpg" arWidth="1024" arHeight="768" duration="0" songTitle="" songArtist="" songAlbum="" />
    <MediaItem id="648" filePath="F:\CSCI-4809\maya\projects\default\images\home_run.0647.jpg" arWidth="1024" arHeight="768" duration="0" songTitle="" songArtist="" songAlbum="" />
    <MediaItem id="649" filePath="F:\CSCI-4809\maya\projects\default\images\home_run.0648.jpg" arWidth="1024" arHeight="768" duration="0" songTitle="" songArtist="" songAlbum="" />
    <MediaItem id="650" filePath="F:\CSCI-4809\maya\projects\default\images\home_run.0649.jpg" arWidth="1024" arHeight="768" duration="0" songTitle="" songArtist="" songAlbum="" />
    <MediaItem id="651" filePath="F:\CSCI-4809\maya\projects\default\images\home_run.0650.jpg" arWidth="1024" arHeight="768" duration="0" songTitle="" songArtist="" songAlbum="" />
    <MediaItem id="652" filePath="F:\CSCI-4809\maya\projects\default\images\home_run.0651.jpg" arWidth="1024" arHeight="768" duration="0" songTitle="" songArtist="" songAlbum="" />
    <MediaItem id="653" filePath="F:\CSCI-4809\maya\projects\default\images\home_run.0652.jpg" arWidth="1024" arHeight="768" duration="0" songTitle="" songArtist="" songAlbum="" />
    <MediaItem id="654" filePath="F:\CSCI-4809\maya\projects\default\images\home_run.0653.jpg" arWidth="1024" arHeight="768" duration="0" songTitle="" songArtist="" songAlbum="" />
    <MediaItem id="655" filePath="F:\CSCI-4809\maya\projects\default\images\home_run.0654.jpg" arWidth="1024" arHeight="768" duration="0" songTitle="" songArtist="" songAlbum="" />
    <MediaItem id="656" filePath="F:\CSCI-4809\maya\projects\default\images\home_run.0655.jpg" arWidth="1024" arHeight="768" duration="0" songTitle="" songArtist="" songAlbum="" />
    <MediaItem id="657" filePath="F:\CSCI-4809\maya\projects\default\images\home_run.0656.jpg" arWidth="1024" arHeight="768" duration="0" songTitle="" songArtist="" songAlbum="" />
    <MediaItem id="658" filePath="F:\CSCI-4809\maya\projects\default\images\home_run.0657.jpg" arWidth="1024" arHeight="768" duration="0" songTitle="" songArtist="" songAlbum="" />
    <MediaItem id="659" filePath="F:\CSCI-4809\maya\projects\default\images\home_run.0658.jpg" arWidth="1024" arHeight="768" duration="0" songTitle="" songArtist="" songAlbum="" />
    <MediaItem id="660" filePath="F:\CSCI-4809\maya\projects\default\images\home_run.0659.jpg" arWidth="1024" arHeight="768" duration="0" songTitle="" songArtist="" songAlbum="" />
    <MediaItem id="661" filePath="F:\CSCI-4809\maya\projects\default\images\home_run.0660.jpg" arWidth="1024" arHeight="768" duration="0" songTitle="" songArtist="" songAlbum="" />
    <MediaItem id="662" filePath="F:\CSCI-4809\maya\projects\default\images\home_run.0661.jpg" arWidth="1024" arHeight="768" duration="0" songTitle="" songArtist="" songAlbum="" />
    <MediaItem id="663" filePath="F:\CSCI-4809\maya\projects\default\images\home_run.0662.jpg" arWidth="1024" arHeight="768" duration="0" songTitle="" songArtist="" songAlbum="" />
    <MediaItem id="664" filePath="F:\CSCI-4809\maya\projects\default\images\home_run.0663.jpg" arWidth="1024" arHeight="768" duration="0" songTitle="" songArtist="" songAlbum="" />
    <MediaItem id="665" filePath="F:\CSCI-4809\maya\projects\default\images\home_run.0664.jpg" arWidth="1024" arHeight="768" duration="0" songTitle="" songArtist="" songAlbum="" />
    <MediaItem id="666" filePath="F:\CSCI-4809\maya\projects\default\images\home_run.0665.jpg" arWidth="1024" arHeight="768" duration="0" songTitle="" songArtist="" songAlbum="" />
    <MediaItem id="667" filePath="F:\CSCI-4809\maya\projects\default\images\home_run.0666.jpg" arWidth="1024" arHeight="768" duration="0" songTitle="" songArtist="" songAlbum="" />
    <MediaItem id="668" filePath="F:\CSCI-4809\maya\projects\default\images\home_run.0667.jpg" arWidth="1024" arHeight="768" duration="0" songTitle="" songArtist="" songAlbum="" />
    <MediaItem id="669" filePath="F:\CSCI-4809\maya\projects\default\images\home_run.0668.jpg" arWidth="1024" arHeight="768" duration="0" songTitle="" songArtist="" songAlbum="" />
    <MediaItem id="670" filePath="F:\CSCI-4809\maya\projects\default\images\home_run.0669.jpg" arWidth="1024" arHeight="768" duration="0" songTitle="" songArtist="" songAlbum="" />
    <MediaItem id="671" filePath="F:\CSCI-4809\maya\projects\default\images\home_run.0670.jpg" arWidth="1024" arHeight="768" duration="0" songTitle="" songArtist="" songAlbum="" />
    <MediaItem id="672" filePath="F:\CSCI-4809\maya\projects\default\images\home_run.0671.jpg" arWidth="1024" arHeight="768" duration="0" songTitle="" songArtist="" songAlbum="" />
    <MediaItem id="673" filePath="F:\CSCI-4809\maya\projects\default\images\home_run.0672.jpg" arWidth="1024" arHeight="768" duration="0" songTitle="" songArtist="" songAlbum="" />
    <MediaItem id="674" filePath="F:\CSCI-4809\maya\projects\default\images\home_run.0673.jpg" arWidth="1024" arHeight="768" duration="0" songTitle="" songArtist="" songAlbum="" />
    <MediaItem id="675" filePath="F:\CSCI-4809\maya\projects\default\images\home_run.0674.jpg" arWidth="1024" arHeight="768" duration="0" songTitle="" songArtist="" songAlbum="" />
    <MediaItem id="676" filePath="F:\CSCI-4809\maya\projects\default\images\home_run.0675.jpg" arWidth="1024" arHeight="768" duration="0" songTitle="" songArtist="" songAlbum="" />
    <MediaItem id="677" filePath="F:\CSCI-4809\maya\projects\default\images\home_run.0676.jpg" arWidth="1024" arHeight="768" duration="0" songTitle="" songArtist="" songAlbum="" />
    <MediaItem id="678" filePath="F:\CSCI-4809\maya\projects\default\images\home_run.0677.jpg" arWidth="1024" arHeight="768" duration="0" songTitle="" songArtist="" songAlbum="" />
    <MediaItem id="679" filePath="F:\CSCI-4809\maya\projects\default\images\home_run.0678.jpg" arWidth="1024" arHeight="768" duration="0" songTitle="" songArtist="" songAlbum="" />
    <MediaItem id="680" filePath="F:\CSCI-4809\maya\projects\default\images\home_run.0679.jpg" arWidth="1024" arHeight="768" duration="0" songTitle="" songArtist="" songAlbum="" />
    <MediaItem id="681" filePath="F:\CSCI-4809\maya\projects\default\images\home_run.0680.jpg" arWidth="1024" arHeight="768" duration="0" songTitle="" songArtist="" songAlbum="" />
    <MediaItem id="682" filePath="F:\CSCI-4809\maya\projects\default\images\home_run.0681.jpg" arWidth="1024" arHeight="768" duration="0" songTitle="" songArtist="" songAlbum="" />
    <MediaItem id="683" filePath="F:\CSCI-4809\maya\projects\default\images\home_run.0682.jpg" arWidth="1024" arHeight="768" duration="0" songTitle="" songArtist="" songAlbum="" />
    <MediaItem id="684" filePath="F:\CSCI-4809\maya\projects\default\images\home_run.0683.jpg" arWidth="1024" arHeight="768" duration="0" songTitle="" songArtist="" songAlbum="" />
    <MediaItem id="685" filePath="F:\CSCI-4809\maya\projects\default\images\home_run.0684.jpg" arWidth="1024" arHeight="768" duration="0" songTitle="" songArtist="" songAlbum="" />
    <MediaItem id="686" filePath="F:\CSCI-4809\maya\projects\default\images\home_run.0685.jpg" arWidth="1024" arHeight="768" duration="0" songTitle="" songArtist="" songAlbum="" />
    <MediaItem id="687" filePath="F:\CSCI-4809\maya\projects\default\images\home_run.0686.jpg" arWidth="1024" arHeight="768" duration="0" songTitle="" songArtist="" songAlbum="" />
    <MediaItem id="688" filePath="F:\CSCI-4809\maya\projects\default\images\home_run.0687.jpg" arWidth="1024" arHeight="768" duration="0" songTitle="" songArtist="" songAlbum="" />
    <MediaItem id="689" filePath="F:\CSCI-4809\maya\projects\default\images\home_run.0688.jpg" arWidth="1024" arHeight="768" duration="0" songTitle="" songArtist="" songAlbum="" />
    <MediaItem id="690" filePath="F:\CSCI-4809\maya\projects\default\images\home_run.0689.jpg" arWidth="1024" arHeight="768" duration="0" songTitle="" songArtist="" songAlbum="" />
    <MediaItem id="691" filePath="F:\CSCI-4809\maya\projects\default\images\home_run.0690.jpg" arWidth="1024" arHeight="768" duration="0" songTitle="" songArtist="" songAlbum="" />
    <MediaItem id="692" filePath="F:\CSCI-4809\maya\projects\default\images\home_run.0691.jpg" arWidth="1024" arHeight="768" duration="0" songTitle="" songArtist="" songAlbum="" />
    <MediaItem id="693" filePath="F:\CSCI-4809\maya\projects\default\images\home_run.0692.jpg" arWidth="1024" arHeight="768" duration="0" songTitle="" songArtist="" songAlbum="" />
    <MediaItem id="694" filePath="F:\CSCI-4809\maya\projects\default\images\home_run.0693.jpg" arWidth="1024" arHeight="768" duration="0" songTitle="" songArtist="" songAlbum="" />
    <MediaItem id="695" filePath="F:\CSCI-4809\maya\projects\default\images\home_run.0694.jpg" arWidth="1024" arHeight="768" duration="0" songTitle="" songArtist="" songAlbum="" />
    <MediaItem id="696" filePath="F:\CSCI-4809\maya\projects\default\images\home_run.0695.jpg" arWidth="1024" arHeight="768" duration="0" songTitle="" songArtist="" songAlbum="" />
    <MediaItem id="697" filePath="F:\CSCI-4809\maya\projects\default\images\home_run.0696.jpg" arWidth="1024" arHeight="768" duration="0" songTitle="" songArtist="" songAlbum="" />
    <MediaItem id="698" filePath="F:\CSCI-4809\maya\projects\default\images\home_run.0697.jpg" arWidth="1024" arHeight="768" duration="0" songTitle="" songArtist="" songAlbum="" />
    <MediaItem id="699" filePath="F:\CSCI-4809\maya\projects\default\images\home_run.0698.jpg" arWidth="1024" arHeight="768" duration="0" songTitle="" songArtist="" songAlbum="" />
    <MediaItem id="700" filePath="F:\CSCI-4809\maya\projects\default\images\home_run.0699.jpg" arWidth="1024" arHeight="768" duration="0" songTitle="" songArtist="" songAlbum="" />
    <MediaItem id="701" filePath="F:\CSCI-4809\maya\projects\default\images\home_run.0700.jpg" arWidth="1024" arHeight="768" duration="0" songTitle="" songArtist="" songAlbum="" />
    <MediaItem id="702" filePath="F:\CSCI-4809\maya\projects\default\images\home_run.0701.jpg" arWidth="1024" arHeight="768" duration="0" songTitle="" songArtist="" songAlbum="" />
    <MediaItem id="703" filePath="F:\CSCI-4809\maya\projects\default\images\home_run.0702.jpg" arWidth="1024" arHeight="768" duration="0" songTitle="" songArtist="" songAlbum="" />
    <MediaItem id="704" filePath="F:\CSCI-4809\maya\projects\default\images\home_run.0703.jpg" arWidth="1024" arHeight="768" duration="0" songTitle="" songArtist="" songAlbum="" />
    <MediaItem id="705" filePath="F:\CSCI-4809\maya\projects\default\images\home_run.0704.jpg" arWidth="1024" arHeight="768" duration="0" songTitle="" songArtist="" songAlbum="" />
    <MediaItem id="706" filePath="F:\CSCI-4809\maya\projects\default\images\home_run.0705.jpg" arWidth="1024" arHeight="768" duration="0" songTitle="" songArtist="" songAlbum="" />
    <MediaItem id="707" filePath="F:\CSCI-4809\maya\projects\default\images\home_run.0706.jpg" arWidth="1024" arHeight="768" duration="0" songTitle="" songArtist="" songAlbum="" />
    <MediaItem id="708" filePath="F:\CSCI-4809\maya\projects\default\images\home_run.0707.jpg" arWidth="1024" arHeight="768" duration="0" songTitle="" songArtist="" songAlbum="" />
    <MediaItem id="709" filePath="F:\CSCI-4809\maya\projects\default\images\home_run.0708.jpg" arWidth="1024" arHeight="768" duration="0" songTitle="" songArtist="" songAlbum="" />
    <MediaItem id="710" filePath="F:\CSCI-4809\maya\projects\default\images\home_run.0709.jpg" arWidth="1024" arHeight="768" duration="0" songTitle="" songArtist="" songAlbum="" />
    <MediaItem id="711" filePath="F:\CSCI-4809\maya\projects\default\images\home_run.0710.jpg" arWidth="1024" arHeight="768" duration="0" songTitle="" songArtist="" songAlbum="" />
    <MediaItem id="712" filePath="F:\CSCI-4809\maya\projects\default\images\home_run.0711.jpg" arWidth="1024" arHeight="768" duration="0" songTitle="" songArtist="" songAlbum="" />
    <MediaItem id="713" filePath="F:\CSCI-4809\maya\projects\default\images\home_run.0712.jpg" arWidth="1024" arHeight="768" duration="0" songTitle="" songArtist="" songAlbum="" />
    <MediaItem id="714" filePath="F:\CSCI-4809\maya\projects\default\images\home_run.0713.jpg" arWidth="1024" arHeight="768" duration="0" songTitle="" songArtist="" songAlbum="" />
    <MediaItem id="715" filePath="F:\CSCI-4809\maya\projects\default\images\home_run.0714.jpg" arWidth="1024" arHeight="768" duration="0" songTitle="" songArtist="" songAlbum="" />
    <MediaItem id="716" filePath="F:\CSCI-4809\maya\projects\default\images\home_run.0715.jpg" arWidth="1024" arHeight="768" duration="0" songTitle="" songArtist="" songAlbum="" />
    <MediaItem id="717" filePath="F:\CSCI-4809\maya\projects\default\images\home_run.0716.jpg" arWidth="1024" arHeight="768" duration="0" songTitle="" songArtist="" songAlbum="" />
    <MediaItem id="718" filePath="F:\CSCI-4809\maya\projects\default\images\home_run.0717.jpg" arWidth="1024" arHeight="768" duration="0" songTitle="" songArtist="" songAlbum="" />
    <MediaItem id="719" filePath="F:\CSCI-4809\maya\projects\default\images\home_run.0718.jpg" arWidth="1024" arHeight="768" duration="0" songTitle="" songArtist="" songAlbum="" />
    <MediaItem id="720" filePath="F:\CSCI-4809\maya\projects\default\images\home_run.0719.jpg" arWidth="1024" arHeight="768" duration="0" songTitle="" songArtist="" songAlbum="" />
    <MediaItem id="721" filePath="F:\CSCI-4809\maya\projects\default\images\home_run.0720.jpg" arWidth="1024" arHeight="768" duration="0" songTitle="" songArtist="" songAlbum="" />
    <MediaItem id="722" filePath="F:\CSCI-4809\maya\projects\default\images\home_run.0721.jpg" arWidth="1024" arHeight="768" duration="0" songTitle="" songArtist="" songAlbum="" />
    <MediaItem id="723" filePath="F:\CSCI-4809\maya\projects\default\images\home_run.0722.jpg" arWidth="1024" arHeight="768" duration="0" songTitle="" songArtist="" songAlbum="" />
    <MediaItem id="724" filePath="F:\CSCI-4809\maya\projects\default\images\home_run.0723.jpg" arWidth="1024" arHeight="768" duration="0" songTitle="" songArtist="" songAlbum="" />
    <MediaItem id="725" filePath="F:\CSCI-4809\maya\projects\default\images\home_run.0724.jpg" arWidth="1024" arHeight="768" duration="0" songTitle="" songArtist="" songAlbum="" />
    <MediaItem id="726" filePath="F:\CSCI-4809\maya\projects\default\images\home_run.0725.jpg" arWidth="1024" arHeight="768" duration="0" songTitle="" songArtist="" songAlbum="" />
    <MediaItem id="727" filePath="F:\CSCI-4809\maya\projects\default\images\home_run.0726.jpg" arWidth="1024" arHeight="768" duration="0" songTitle="" songArtist="" songAlbum="" />
    <MediaItem id="728" filePath="F:\CSCI-4809\maya\projects\default\images\home_run.0727.jpg" arWidth="1024" arHeight="768" duration="0" songTitle="" songArtist="" songAlbum="" />
    <MediaItem id="729" filePath="F:\CSCI-4809\maya\projects\default\images\home_run.0728.jpg" arWidth="1024" arHeight="768" duration="0" songTitle="" songArtist="" songAlbum="" />
    <MediaItem id="730" filePath="F:\CSCI-4809\maya\projects\default\images\home_run.0729.jpg" arWidth="1024" arHeight="768" duration="0" songTitle="" songArtist="" songAlbum="" />
    <MediaItem id="731" filePath="F:\CSCI-4809\maya\projects\default\images\home_run.0730.jpg" arWidth="1024" arHeight="768" duration="0" songTitle="" songArtist="" songAlbum="" />
    <MediaItem id="732" filePath="F:\CSCI-4809\maya\projects\default\images\home_run.0731.jpg" arWidth="1024" arHeight="768" duration="0" songTitle="" songArtist="" songAlbum="" />
    <MediaItem id="733" filePath="F:\CSCI-4809\maya\projects\default\images\home_run.0732.jpg" arWidth="1024" arHeight="768" duration="0" songTitle="" songArtist="" songAlbum="" />
    <MediaItem id="734" filePath="F:\CSCI-4809\maya\projects\default\images\home_run.0733.jpg" arWidth="1024" arHeight="768" duration="0" songTitle="" songArtist="" songAlbum="" />
    <MediaItem id="735" filePath="F:\CSCI-4809\maya\projects\default\images\home_run.0734.jpg" arWidth="1024" arHeight="768" duration="0" songTitle="" songArtist="" songAlbum="" />
    <MediaItem id="736" filePath="F:\CSCI-4809\maya\projects\default\images\home_run.0735.jpg" arWidth="1024" arHeight="768" duration="0" songTitle="" songArtist="" songAlbum="" />
    <MediaItem id="737" filePath="F:\CSCI-4809\maya\projects\default\images\home_run.0736.jpg" arWidth="1024" arHeight="768" duration="0" songTitle="" songArtist="" songAlbum="" />
    <MediaItem id="738" filePath="F:\CSCI-4809\maya\projects\default\images\home_run.0737.jpg" arWidth="1024" arHeight="768" duration="0" songTitle="" songArtist="" songAlbum="" />
    <MediaItem id="739" filePath="F:\CSCI-4809\maya\projects\default\images\home_run.0738.jpg" arWidth="1024" arHeight="768" duration="0" songTitle="" songArtist="" songAlbum="" />
    <MediaItem id="740" filePath="F:\CSCI-4809\maya\projects\default\images\home_run.0739.jpg" arWidth="1024" arHeight="768" duration="0" songTitle="" songArtist="" songAlbum="" />
    <MediaItem id="741" filePath="F:\CSCI-4809\maya\projects\default\images\home_run.0740.jpg" arWidth="1024" arHeight="768" duration="0" songTitle="" songArtist="" songAlbum="" />
    <MediaItem id="742" filePath="F:\CSCI-4809\maya\projects\default\images\home_run.0741.jpg" arWidth="1024" arHeight="768" duration="0" songTitle="" songArtist="" songAlbum="" />
    <MediaItem id="743" filePath="F:\CSCI-4809\maya\projects\default\images\home_run.0742.jpg" arWidth="1024" arHeight="768" duration="0" songTitle="" songArtist="" songAlbum="" />
    <MediaItem id="744" filePath="F:\CSCI-4809\maya\projects\default\images\home_run.0743.jpg" arWidth="1024" arHeight="768" duration="0" songTitle="" songArtist="" songAlbum="" />
    <MediaItem id="745" filePath="F:\CSCI-4809\maya\projects\default\images\home_run.0744.jpg" arWidth="1024" arHeight="768" duration="0" songTitle="" songArtist="" songAlbum="" />
    <MediaItem id="746" filePath="F:\CSCI-4809\maya\projects\default\images\home_run.0745.jpg" arWidth="1024" arHeight="768" duration="0" songTitle="" songArtist="" songAlbum="" />
    <MediaItem id="747" filePath="F:\CSCI-4809\maya\projects\default\images\home_run.0746.jpg" arWidth="1024" arHeight="768" duration="0" songTitle="" songArtist="" songAlbum="" />
    <MediaItem id="748" filePath="F:\CSCI-4809\maya\projects\default\images\home_run.0747.jpg" arWidth="1024" arHeight="768" duration="0" songTitle="" songArtist="" songAlbum="" />
    <MediaItem id="749" filePath="F:\CSCI-4809\maya\projects\default\images\home_run.0748.jpg" arWidth="1024" arHeight="768" duration="0" songTitle="" songArtist="" songAlbum="" />
    <MediaItem id="750" filePath="F:\CSCI-4809\maya\projects\default\images\home_run.0749.jpg" arWidth="1024" arHeight="768" duration="0" songTitle="" songArtist="" songAlbum="" />
    <MediaItem id="751" filePath="F:\CSCI-4809\maya\projects\default\images\home_run.0750.jpg" arWidth="1024" arHeight="768" duration="0" songTitle="" songArtist="" songAlbum="" />
    <MediaItem id="752" filePath="F:\CSCI-4809\maya\projects\default\images\home_run.0751.jpg" arWidth="1024" arHeight="768" duration="0" songTitle="" songArtist="" songAlbum="" />
    <MediaItem id="753" filePath="F:\CSCI-4809\maya\projects\default\images\home_run.0752.jpg" arWidth="1024" arHeight="768" duration="0" songTitle="" songArtist="" songAlbum="" />
    <MediaItem id="754" filePath="F:\CSCI-4809\maya\projects\default\images\home_run.0753.jpg" arWidth="1024" arHeight="768" duration="0" songTitle="" songArtist="" songAlbum="" />
    <MediaItem id="755" filePath="F:\CSCI-4809\maya\projects\default\images\home_run.0754.jpg" arWidth="1024" arHeight="768" duration="0" songTitle="" songArtist="" songAlbum="" />
    <MediaItem id="756" filePath="F:\CSCI-4809\maya\projects\default\images\home_run.0755.jpg" arWidth="1024" arHeight="768" duration="0" songTitle="" songArtist="" songAlbum="" />
    <MediaItem id="757" filePath="F:\CSCI-4809\maya\projects\default\images\home_run.0756.jpg" arWidth="1024" arHeight="768" duration="0" songTitle="" songArtist="" songAlbum="" />
    <MediaItem id="758" filePath="F:\CSCI-4809\maya\projects\default\images\home_run.0757.jpg" arWidth="1024" arHeight="768" duration="0" songTitle="" songArtist="" songAlbum="" />
    <MediaItem id="759" filePath="F:\CSCI-4809\maya\projects\default\images\home_run.0758.jpg" arWidth="1024" arHeight="768" duration="0" songTitle="" songArtist="" songAlbum="" />
    <MediaItem id="760" filePath="F:\CSCI-4809\maya\projects\default\images\home_run.0759.jpg" arWidth="1024" arHeight="768" duration="0" songTitle="" songArtist="" songAlbum="" />
    <MediaItem id="761" filePath="F:\CSCI-4809\maya\projects\default\images\home_run.0760.jpg" arWidth="1024" arHeight="768" duration="0" songTitle="" songArtist="" songAlbum="" />
    <MediaItem id="762" filePath="F:\CSCI-4809\maya\projects\default\images\home_run.0761.jpg" arWidth="1024" arHeight="768" duration="0" songTitle="" songArtist="" songAlbum="" />
    <MediaItem id="763" filePath="F:\CSCI-4809\maya\projects\default\images\home_run.0762.jpg" arWidth="1024" arHeight="768" duration="0" songTitle="" songArtist="" songAlbum="" />
    <MediaItem id="764" filePath="F:\CSCI-4809\maya\projects\default\images\home_run.0763.jpg" arWidth="1024" arHeight="768" duration="0" songTitle="" songArtist="" songAlbum="" />
    <MediaItem id="765" filePath="F:\CSCI-4809\maya\projects\default\images\home_run.0764.jpg" arWidth="1024" arHeight="768" duration="0" songTitle="" songArtist="" songAlbum="" />
    <MediaItem id="766" filePath="F:\CSCI-4809\maya\projects\default\images\home_run.0765.jpg" arWidth="1024" arHeight="768" duration="0" songTitle="" songArtist="" songAlbum="" />
    <MediaItem id="767" filePath="F:\CSCI-4809\maya\projects\default\images\home_run.0766.jpg" arWidth="1024" arHeight="768" duration="0" songTitle="" songArtist="" songAlbum="" />
    <MediaItem id="768" filePath="F:\CSCI-4809\maya\projects\default\images\home_run.0767.jpg" arWidth="1024" arHeight="768" duration="0" songTitle="" songArtist="" songAlbum="" />
    <MediaItem id="769" filePath="F:\CSCI-4809\maya\projects\default\images\home_run.0768.jpg" arWidth="1024" arHeight="768" duration="0" songTitle="" songArtist="" songAlbum="" />
    <MediaItem id="770" filePath="F:\CSCI-4809\maya\projects\default\images\home_run.0769.jpg" arWidth="1024" arHeight="768" duration="0" songTitle="" songArtist="" songAlbum="" />
    <MediaItem id="771" filePath="F:\CSCI-4809\maya\projects\default\images\home_run.0770.jpg" arWidth="1024" arHeight="768" duration="0" songTitle="" songArtist="" songAlbum="" />
    <MediaItem id="772" filePath="F:\CSCI-4809\maya\projects\default\images\home_run.0771.jpg" arWidth="1024" arHeight="768" duration="0" songTitle="" songArtist="" songAlbum="" />
    <MediaItem id="773" filePath="F:\CSCI-4809\maya\projects\default\images\home_run.0772.jpg" arWidth="1024" arHeight="768" duration="0" songTitle="" songArtist="" songAlbum="" />
    <MediaItem id="774" filePath="F:\CSCI-4809\maya\projects\default\images\home_run.0773.jpg" arWidth="1024" arHeight="768" duration="0" songTitle="" songArtist="" songAlbum="" />
    <MediaItem id="775" filePath="F:\CSCI-4809\maya\projects\default\images\home_run.0774.jpg" arWidth="1024" arHeight="768" duration="0" songTitle="" songArtist="" songAlbum="" />
    <MediaItem id="776" filePath="F:\CSCI-4809\maya\projects\default\images\home_run.0775.jpg" arWidth="1024" arHeight="768" duration="0" songTitle="" songArtist="" songAlbum="" />
    <MediaItem id="777" filePath="F:\CSCI-4809\maya\projects\default\images\home_run.0776.jpg" arWidth="1024" arHeight="768" duration="0" songTitle="" songArtist="" songAlbum="" />
    <MediaItem id="778" filePath="F:\CSCI-4809\maya\projects\default\images\home_run.0777.jpg" arWidth="1024" arHeight="768" duration="0" songTitle="" songArtist="" songAlbum="" />
    <MediaItem id="779" filePath="F:\CSCI-4809\maya\projects\default\images\home_run.0778.jpg" arWidth="1024" arHeight="768" duration="0" songTitle="" songArtist="" songAlbum="" />
    <MediaItem id="780" filePath="F:\CSCI-4809\maya\projects\default\images\home_run.0779.jpg" arWidth="1024" arHeight="768" duration="0" songTitle="" songArtist="" songAlbum="" />
    <MediaItem id="781" filePath="F:\CSCI-4809\maya\projects\default\images\home_run.0780.jpg" arWidth="1024" arHeight="768" duration="0" songTitle="" songArtist="" songAlbum="" />
    <MediaItem id="782" filePath="F:\CSCI-4809\maya\projects\default\images\home_run.0781.jpg" arWidth="1024" arHeight="768" duration="0" songTitle="" songArtist="" songAlbum="" />
    <MediaItem id="783" filePath="F:\CSCI-4809\maya\projects\default\images\home_run.0782.jpg" arWidth="1024" arHeight="768" duration="0" songTitle="" songArtist="" songAlbum="" />
    <MediaItem id="784" filePath="F:\CSCI-4809\maya\projects\default\images\home_run.0783.jpg" arWidth="1024" arHeight="768" duration="0" songTitle="" songArtist="" songAlbum="" />
    <MediaItem id="785" filePath="F:\CSCI-4809\maya\projects\default\images\home_run.0784.jpg" arWidth="1024" arHeight="768" duration="0" songTitle="" songArtist="" songAlbum="" />
    <MediaItem id="786" filePath="F:\CSCI-4809\maya\projects\default\images\home_run.0785.jpg" arWidth="1024" arHeight="768" duration="0" songTitle="" songArtist="" songAlbum="" />
    <MediaItem id="787" filePath="F:\CSCI-4809\maya\projects\default\images\home_run.0786.jpg" arWidth="1024" arHeight="768" duration="0" songTitle="" songArtist="" songAlbum="" />
    <MediaItem id="788" filePath="F:\CSCI-4809\maya\projects\default\images\home_run.0787.jpg" arWidth="1024" arHeight="768" duration="0" songTitle="" songArtist="" songAlbum="" />
    <MediaItem id="789" filePath="F:\CSCI-4809\maya\projects\default\images\home_run.0788.jpg" arWidth="1024" arHeight="768" duration="0" songTitle="" songArtist="" songAlbum="" />
    <MediaItem id="790" filePath="F:\CSCI-4809\maya\projects\default\images\home_run.0789.jpg" arWidth="1024" arHeight="768" duration="0" songTitle="" songArtist="" songAlbum="" />
    <MediaItem id="791" filePath="F:\CSCI-4809\maya\projects\default\images\home_run.0790.jpg" arWidth="1024" arHeight="768" duration="0" songTitle="" songArtist="" songAlbum="" />
    <MediaItem id="792" filePath="F:\CSCI-4809\maya\projects\default\images\home_run.0791.jpg" arWidth="1024" arHeight="768" duration="0" songTitle="" songArtist="" songAlbum="" />
    <MediaItem id="793" filePath="F:\CSCI-4809\maya\projects\default\images\home_run.0792.jpg" arWidth="1024" arHeight="768" duration="0" songTitle="" songArtist="" songAlbum="" />
    <MediaItem id="794" filePath="F:\CSCI-4809\maya\projects\default\images\home_run.0793.jpg" arWidth="1024" arHeight="768" duration="0" songTitle="" songArtist="" songAlbum="" />
    <MediaItem id="795" filePath="F:\CSCI-4809\maya\projects\default\images\home_run.0794.jpg" arWidth="1024" arHeight="768" duration="0" songTitle="" songArtist="" songAlbum="" />
    <MediaItem id="796" filePath="F:\CSCI-4809\maya\projects\default\images\home_run.0795.jpg" arWidth="1024" arHeight="768" duration="0" songTitle="" songArtist="" songAlbum="" />
    <MediaItem id="797" filePath="F:\CSCI-4809\maya\projects\default\images\home_run.0796.jpg" arWidth="1024" arHeight="768" duration="0" songTitle="" songArtist="" songAlbum="" />
    <MediaItem id="798" filePath="F:\CSCI-4809\maya\projects\default\images\home_run.0797.jpg" arWidth="1024" arHeight="768" duration="0" songTitle="" songArtist="" songAlbum="" />
    <MediaItem id="799" filePath="F:\CSCI-4809\maya\projects\default\images\home_run.0798.jpg" arWidth="1024" arHeight="768" duration="0" songTitle="" songArtist="" songAlbum="" />
    <MediaItem id="800" filePath="F:\CSCI-4809\maya\projects\default\images\home_run.0799.jpg" arWidth="1024" arHeight="768" duration="0" songTitle="" songArtist="" songAlbum="" />
    <MediaItem id="801" filePath="F:\CSCI-4809\maya\projects\default\images\home_run.0800.jpg" arWidth="1024" arHeight="768" duration="0" songTitle="" songArtist="" songAlbum="" />
    <MediaItem id="802" filePath="F:\CSCI-4809\maya\projects\default\images\home_run.0801.jpg" arWidth="1024" arHeight="768" duration="0" songTitle="" songArtist="" songAlbum="" />
    <MediaItem id="803" filePath="F:\CSCI-4809\maya\projects\default\images\home_run.0802.jpg" arWidth="1024" arHeight="768" duration="0" songTitle="" songArtist="" songAlbum="" />
    <MediaItem id="804" filePath="F:\CSCI-4809\maya\projects\default\images\home_run.0803.jpg" arWidth="1024" arHeight="768" duration="0" songTitle="" songArtist="" songAlbum="" />
    <MediaItem id="805" filePath="F:\CSCI-4809\maya\projects\default\images\home_run.0804.jpg" arWidth="1024" arHeight="768" duration="0" songTitle="" songArtist="" songAlbum="" />
    <MediaItem id="806" filePath="F:\CSCI-4809\maya\projects\default\images\home_run.0805.jpg" arWidth="1024" arHeight="768" duration="0" songTitle="" songArtist="" songAlbum="" />
    <MediaItem id="807" filePath="F:\CSCI-4809\maya\projects\default\images\home_run.0806.jpg" arWidth="1024" arHeight="768" duration="0" songTitle="" songArtist="" songAlbum="" />
    <MediaItem id="808" filePath="F:\CSCI-4809\maya\projects\default\images\home_run.0807.jpg" arWidth="1024" arHeight="768" duration="0" songTitle="" songArtist="" songAlbum="" />
    <MediaItem id="809" filePath="F:\CSCI-4809\maya\projects\default\images\home_run.0808.jpg" arWidth="1024" arHeight="768" duration="0" songTitle="" songArtist="" songAlbum="" />
    <MediaItem id="810" filePath="F:\CSCI-4809\maya\projects\default\images\home_run.0809.jpg" arWidth="1024" arHeight="768" duration="0" songTitle="" songArtist="" songAlbum="" />
    <MediaItem id="811" filePath="F:\CSCI-4809\maya\projects\default\images\home_run.0810.jpg" arWidth="1024" arHeight="768" duration="0" songTitle="" songArtist="" songAlbum="" />
    <MediaItem id="812" filePath="F:\CSCI-4809\maya\projects\default\images\home_run.0811.jpg" arWidth="1024" arHeight="768" duration="0" songTitle="" songArtist="" songAlbum="" />
    <MediaItem id="813" filePath="F:\CSCI-4809\maya\projects\default\images\home_run.0812.jpg" arWidth="1024" arHeight="768" duration="0" songTitle="" songArtist="" songAlbum="" />
    <MediaItem id="814" filePath="F:\CSCI-4809\maya\projects\default\images\home_run.0813.jpg" arWidth="1024" arHeight="768" duration="0" songTitle="" songArtist="" songAlbum="" />
    <MediaItem id="815" filePath="F:\CSCI-4809\maya\projects\default\images\home_run.0814.jpg" arWidth="1024" arHeight="768" duration="0" songTitle="" songArtist="" songAlbum="" />
    <MediaItem id="816" filePath="F:\CSCI-4809\maya\projects\default\images\home_run.0815.jpg" arWidth="1024" arHeight="768" duration="0" songTitle="" songArtist="" songAlbum="" />
    <MediaItem id="817" filePath="F:\CSCI-4809\maya\projects\default\images\home_run.0816.jpg" arWidth="1024" arHeight="768" duration="0" songTitle="" songArtist="" songAlbum="" />
    <MediaItem id="818" filePath="F:\CSCI-4809\maya\projects\default\images\home_run.0817.jpg" arWidth="1024" arHeight="768" duration="0" songTitle="" songArtist="" songAlbum="" />
    <MediaItem id="819" filePath="F:\CSCI-4809\maya\projects\default\images\home_run.0818.jpg" arWidth="1024" arHeight="768" duration="0" songTitle="" songArtist="" songAlbum="" />
    <MediaItem id="820" filePath="F:\CSCI-4809\maya\projects\default\images\home_run.0819.jpg" arWidth="1024" arHeight="768" duration="0" songTitle="" songArtist="" songAlbum="" />
    <MediaItem id="821" filePath="F:\CSCI-4809\maya\projects\default\images\home_run.0820.jpg" arWidth="1024" arHeight="768" duration="0" songTitle="" songArtist="" songAlbum="" />
    <MediaItem id="822" filePath="F:\CSCI-4809\maya\projects\default\images\home_run.0821.jpg" arWidth="1024" arHeight="768" duration="0" songTitle="" songArtist="" songAlbum="" />
    <MediaItem id="823" filePath="F:\CSCI-4809\maya\projects\default\images\home_run.0822.jpg" arWidth="1024" arHeight="768" duration="0" songTitle="" songArtist="" songAlbum="" />
    <MediaItem id="824" filePath="F:\CSCI-4809\maya\projects\default\images\home_run.0823.jpg" arWidth="1024" arHeight="768" duration="0" songTitle="" songArtist="" songAlbum="" />
    <MediaItem id="825" filePath="F:\CSCI-4809\maya\projects\default\images\home_run.0824.jpg" arWidth="1024" arHeight="768" duration="0" songTitle="" songArtist="" songAlbum="" />
    <MediaItem id="826" filePath="F:\CSCI-4809\maya\projects\default\images\home_run.0825.jpg" arWidth="1024" arHeight="768" duration="0" songTitle="" songArtist="" songAlbum="" />
    <MediaItem id="827" filePath="F:\CSCI-4809\maya\projects\default\images\home_run.0826.jpg" arWidth="1024" arHeight="768" duration="0" songTitle="" songArtist="" songAlbum="" />
    <MediaItem id="828" filePath="F:\CSCI-4809\maya\projects\default\images\home_run.0827.jpg" arWidth="1024" arHeight="768" duration="0" songTitle="" songArtist="" songAlbum="" />
    <MediaItem id="829" filePath="F:\CSCI-4809\maya\projects\default\images\home_run.0828.jpg" arWidth="1024" arHeight="768" duration="0" songTitle="" songArtist="" songAlbum="" />
    <MediaItem id="830" filePath="F:\CSCI-4809\maya\projects\default\images\home_run.0829.jpg" arWidth="1024" arHeight="768" duration="0" songTitle="" songArtist="" songAlbum="" />
    <MediaItem id="831" filePath="F:\CSCI-4809\maya\projects\default\images\home_run.0830.jpg" arWidth="1024" arHeight="768" duration="0" songTitle="" songArtist="" songAlbum="" />
    <MediaItem id="832" filePath="F:\CSCI-4809\maya\projects\default\images\home_run.0831.jpg" arWidth="1024" arHeight="768" duration="0" songTitle="" songArtist="" songAlbum="" />
    <MediaItem id="833" filePath="F:\CSCI-4809\maya\projects\default\images\home_run.0832.jpg" arWidth="1024" arHeight="768" duration="0" songTitle="" songArtist="" songAlbum="" />
    <MediaItem id="834" filePath="F:\CSCI-4809\maya\projects\default\images\home_run.0833.jpg" arWidth="1024" arHeight="768" duration="0" songTitle="" songArtist="" songAlbum="" />
    <MediaItem id="835" filePath="F:\CSCI-4809\maya\projects\default\images\home_run.0834.jpg" arWidth="1024" arHeight="768" duration="0" songTitle="" songArtist="" songAlbum="" />
    <MediaItem id="836" filePath="F:\CSCI-4809\maya\projects\default\images\home_run.0835.jpg" arWidth="1024" arHeight="768" duration="0" songTitle="" songArtist="" songAlbum="" />
    <MediaItem id="837" filePath="F:\CSCI-4809\maya\projects\default\images\home_run.0836.jpg" arWidth="1024" arHeight="768" duration="0" songTitle="" songArtist="" songAlbum="" />
    <MediaItem id="838" filePath="F:\CSCI-4809\maya\projects\default\images\home_run.0837.jpg" arWidth="1024" arHeight="768" duration="0" songTitle="" songArtist="" songAlbum="" />
    <MediaItem id="839" filePath="F:\CSCI-4809\maya\projects\default\images\home_run.0838.jpg" arWidth="1024" arHeight="768" duration="0" songTitle="" songArtist="" songAlbum="" />
    <MediaItem id="840" filePath="F:\CSCI-4809\maya\projects\default\images\home_run.0839.jpg" arWidth="1024" arHeight="768" duration="0" songTitle="" songArtist="" songAlbum="" />
    <MediaItem id="841" filePath="F:\CSCI-4809\maya\projects\default\images\home_run.0840.jpg" arWidth="1024" arHeight="768" duration="0" songTitle="" songArtist="" songAlbum="" />
    <MediaItem id="842" filePath="F:\CSCI-4809\maya\projects\default\images\home_run.0841.jpg" arWidth="1024" arHeight="768" duration="0" songTitle="" songArtist="" songAlbum="" />
    <MediaItem id="843" filePath="F:\CSCI-4809\maya\projects\default\images\home_run.0842.jpg" arWidth="1024" arHeight="768" duration="0" songTitle="" songArtist="" songAlbum="" />
    <MediaItem id="844" filePath="F:\CSCI-4809\maya\projects\default\images\home_run.0843.jpg" arWidth="1024" arHeight="768" duration="0" songTitle="" songArtist="" songAlbum="" />
    <MediaItem id="845" filePath="F:\CSCI-4809\maya\projects\default\images\home_run.0844.jpg" arWidth="1024" arHeight="768" duration="0" songTitle="" songArtist="" songAlbum="" />
    <MediaItem id="846" filePath="F:\CSCI-4809\maya\projects\default\images\home_run.0845.jpg" arWidth="1024" arHeight="768" duration="0" songTitle="" songArtist="" songAlbum="" />
    <MediaItem id="847" filePath="F:\CSCI-4809\maya\projects\default\images\home_run.0846.jpg" arWidth="1024" arHeight="768" duration="0" songTitle="" songArtist="" songAlbum="" />
    <MediaItem id="848" filePath="F:\CSCI-4809\maya\projects\default\images\home_run.0847.jpg" arWidth="1024" arHeight="768" duration="0" songTitle="" songArtist="" songAlbum="" />
    <MediaItem id="849" filePath="F:\CSCI-4809\maya\projects\default\images\home_run.0848.jpg" arWidth="1024" arHeight="768" duration="0" songTitle="" songArtist="" songAlbum="" />
    <MediaItem id="850" filePath="F:\CSCI-4809\maya\projects\default\images\home_run.0849.jpg" arWidth="1024" arHeight="768" duration="0" songTitle="" songArtist="" songAlbum="" />
    <MediaItem id="851" filePath="F:\CSCI-4809\maya\projects\default\images\home_run.0850.jpg" arWidth="1024" arHeight="768" duration="0" songTitle="" songArtist="" songAlbum="" />
    <MediaItem id="852" filePath="F:\CSCI-4809\maya\projects\default\images\home_run.0851.jpg" arWidth="1024" arHeight="768" duration="0" songTitle="" songArtist="" songAlbum="" />
    <MediaItem id="853" filePath="F:\CSCI-4809\maya\projects\default\images\home_run.0852.jpg" arWidth="1024" arHeight="768" duration="0" songTitle="" songArtist="" songAlbum="" />
    <MediaItem id="854" filePath="F:\CSCI-4809\maya\projects\default\images\home_run.0853.jpg" arWidth="1024" arHeight="768" duration="0" songTitle="" songArtist="" songAlbum="" />
    <MediaItem id="855" filePath="F:\CSCI-4809\maya\projects\default\images\home_run.0854.jpg" arWidth="1024" arHeight="768" duration="0" songTitle="" songArtist="" songAlbum="" />
    <MediaItem id="856" filePath="F:\CSCI-4809\maya\projects\default\images\home_run.0855.jpg" arWidth="1024" arHeight="768" duration="0" songTitle="" songArtist="" songAlbum="" />
    <MediaItem id="857" filePath="F:\CSCI-4809\maya\projects\default\images\home_run.0856.jpg" arWidth="1024" arHeight="768" duration="0" songTitle="" songArtist="" songAlbum="" />
    <MediaItem id="858" filePath="F:\CSCI-4809\maya\projects\default\images\home_run.0857.jpg" arWidth="1024" arHeight="768" duration="0" songTitle="" songArtist="" songAlbum="" />
    <MediaItem id="859" filePath="F:\CSCI-4809\maya\projects\default\images\home_run.0858.jpg" arWidth="1024" arHeight="768" duration="0" songTitle="" songArtist="" songAlbum="" />
    <MediaItem id="860" filePath="F:\CSCI-4809\maya\projects\default\images\home_run.0859.jpg" arWidth="1024" arHeight="768" duration="0" songTitle="" songArtist="" songAlbum="" />
    <MediaItem id="861" filePath="F:\CSCI-4809\maya\projects\default\images\home_run.0860.jpg" arWidth="1024" arHeight="768" duration="0" songTitle="" songArtist="" songAlbum="" />
    <MediaItem id="862" filePath="F:\CSCI-4809\maya\projects\default\images\home_run.0861.jpg" arWidth="1024" arHeight="768" duration="0" songTitle="" songArtist="" songAlbum="" />
    <MediaItem id="863" filePath="F:\CSCI-4809\maya\projects\default\images\home_run.0862.jpg" arWidth="1024" arHeight="768" duration="0" songTitle="" songArtist="" songAlbum="" />
    <MediaItem id="864" filePath="F:\CSCI-4809\maya\projects\default\images\home_run.0863.jpg" arWidth="1024" arHeight="768" duration="0" songTitle="" songArtist="" songAlbum="" />
    <MediaItem id="865" filePath="F:\CSCI-4809\maya\projects\default\images\home_run.0864.jpg" arWidth="1024" arHeight="768" duration="0" songTitle="" songArtist="" songAlbum="" />
    <MediaItem id="866" filePath="F:\CSCI-4809\maya\projects\default\images\home_run.0865.jpg" arWidth="1024" arHeight="768" duration="0" songTitle="" songArtist="" songAlbum="" />
    <MediaItem id="867" filePath="F:\CSCI-4809\maya\projects\default\images\home_run.0866.jpg" arWidth="1024" arHeight="768" duration="0" songTitle="" songArtist="" songAlbum="" />
    <MediaItem id="868" filePath="F:\CSCI-4809\maya\projects\default\images\home_run.0867.jpg" arWidth="1024" arHeight="768" duration="0" songTitle="" songArtist="" songAlbum="" />
    <MediaItem id="869" filePath="F:\CSCI-4809\maya\projects\default\images\home_run.0868.jpg" arWidth="1024" arHeight="768" duration="0" songTitle="" songArtist="" songAlbum="" />
    <MediaItem id="870" filePath="F:\CSCI-4809\maya\projects\default\images\home_run.0869.jpg" arWidth="1024" arHeight="768" duration="0" songTitle="" songArtist="" songAlbum="" />
    <MediaItem id="871" filePath="F:\CSCI-4809\maya\projects\default\images\home_run.0870.jpg" arWidth="1024" arHeight="768" duration="0" songTitle="" songArtist="" songAlbum="" />
    <MediaItem id="872" filePath="F:\CSCI-4809\maya\projects\default\images\home_run.0871.jpg" arWidth="1024" arHeight="768" duration="0" songTitle="" songArtist="" songAlbum="" />
    <MediaItem id="873" filePath="F:\CSCI-4809\maya\projects\default\images\home_run.0872.jpg" arWidth="1024" arHeight="768" duration="0" songTitle="" songArtist="" songAlbum="" />
    <MediaItem id="874" filePath="F:\CSCI-4809\maya\projects\default\images\home_run.0873.jpg" arWidth="1024" arHeight="768" duration="0" songTitle="" songArtist="" songAlbum="" />
    <MediaItem id="875" filePath="F:\CSCI-4809\maya\projects\default\images\home_run.0874.jpg" arWidth="1024" arHeight="768" duration="0" songTitle="" songArtist="" songAlbum="" />
    <MediaItem id="876" filePath="F:\CSCI-4809\maya\projects\default\images\home_run.0875.jpg" arWidth="1024" arHeight="768" duration="0" songTitle="" songArtist="" songAlbum="" />
    <MediaItem id="877" filePath="F:\CSCI-4809\maya\projects\default\images\home_run.0876.jpg" arWidth="1024" arHeight="768" duration="0" songTitle="" songArtist="" songAlbum="" />
    <MediaItem id="878" filePath="F:\CSCI-4809\maya\projects\default\images\home_run.0877.jpg" arWidth="1024" arHeight="768" duration="0" songTitle="" songArtist="" songAlbum="" />
    <MediaItem id="879" filePath="F:\CSCI-4809\maya\projects\default\images\home_run.0878.jpg" arWidth="1024" arHeight="768" duration="0" songTitle="" songArtist="" songAlbum="" />
    <MediaItem id="880" filePath="F:\CSCI-4809\maya\projects\default\images\home_run.0879.jpg" arWidth="1024" arHeight="768" duration="0" songTitle="" songArtist="" songAlbum="" />
    <MediaItem id="881" filePath="F:\CSCI-4809\maya\projects\default\images\home_run.0880.jpg" arWidth="1024" arHeight="768" duration="0" songTitle="" songArtist="" songAlbum="" />
    <MediaItem id="882" filePath="F:\CSCI-4809\maya\projects\default\images\home_run.0881.jpg" arWidth="1024" arHeight="768" duration="0" songTitle="" songArtist="" songAlbum="" />
    <MediaItem id="883" filePath="F:\CSCI-4809\maya\projects\default\images\home_run.0882.jpg" arWidth="1024" arHeight="768" duration="0" songTitle="" songArtist="" songAlbum="" />
    <MediaItem id="884" filePath="F:\CSCI-4809\maya\projects\default\images\home_run.0883.jpg" arWidth="1024" arHeight="768" duration="0" songTitle="" songArtist="" songAlbum="" />
    <MediaItem id="885" filePath="F:\CSCI-4809\maya\projects\default\images\home_run.0884.jpg" arWidth="1024" arHeight="768" duration="0" songTitle="" songArtist="" songAlbum="" />
    <MediaItem id="886" filePath="F:\CSCI-4809\maya\projects\default\images\home_run.0885.jpg" arWidth="1024" arHeight="768" duration="0" songTitle="" songArtist="" songAlbum="" />
    <MediaItem id="887" filePath="F:\CSCI-4809\maya\projects\default\images\home_run.0886.jpg" arWidth="1024" arHeight="768" duration="0" songTitle="" songArtist="" songAlbum="" />
    <MediaItem id="888" filePath="F:\CSCI-4809\maya\projects\default\images\home_run.0887.jpg" arWidth="1024" arHeight="768" duration="0" songTitle="" songArtist="" songAlbum="" />
    <MediaItem id="889" filePath="F:\CSCI-4809\maya\projects\default\images\home_run.0888.jpg" arWidth="1024" arHeight="768" duration="0" songTitle="" songArtist="" songAlbum="" />
    <MediaItem id="890" filePath="F:\CSCI-4809\maya\projects\default\images\home_run.0889.jpg" arWidth="1024" arHeight="768" duration="0" songTitle="" songArtist="" songAlbum="" />
    <MediaItem id="891" filePath="F:\CSCI-4809\maya\projects\default\images\home_run.0890.jpg" arWidth="1024" arHeight="768" duration="0" songTitle="" songArtist="" songAlbum="" />
    <MediaItem id="892" filePath="F:\CSCI-4809\maya\projects\default\images\home_run.0891.jpg" arWidth="1024" arHeight="768" duration="0" songTitle="" songArtist="" songAlbum="" />
    <MediaItem id="893" filePath="F:\CSCI-4809\maya\projects\default\images\home_run.0892.jpg" arWidth="1024" arHeight="768" duration="0" songTitle="" songArtist="" songAlbum="" />
    <MediaItem id="894" filePath="F:\CSCI-4809\maya\projects\default\images\home_run.0893.jpg" arWidth="1024" arHeight="768" duration="0" songTitle="" songArtist="" songAlbum="" />
    <MediaItem id="895" filePath="F:\CSCI-4809\maya\projects\default\images\home_run.0894.jpg" arWidth="1024" arHeight="768" duration="0" songTitle="" songArtist="" songAlbum="" />
    <MediaItem id="896" filePath="F:\CSCI-4809\maya\projects\default\images\home_run.0895.jpg" arWidth="1024" arHeight="768" duration="0" songTitle="" songArtist="" songAlbum="" />
    <MediaItem id="897" filePath="F:\CSCI-4809\maya\projects\default\images\home_run.0896.jpg" arWidth="1024" arHeight="768" duration="0" songTitle="" songArtist="" songAlbum="" />
    <MediaItem id="898" filePath="F:\CSCI-4809\maya\projects\default\images\home_run.0897.jpg" arWidth="1024" arHeight="768" duration="0" songTitle="" songArtist="" songAlbum="" />
    <MediaItem id="899" filePath="F:\CSCI-4809\maya\projects\default\images\home_run.0898.jpg" arWidth="1024" arHeight="768" duration="0" songTitle="" songArtist="" songAlbum="" />
    <MediaItem id="900" filePath="F:\CSCI-4809\maya\projects\default\images\home_run.0899.jpg" arWidth="1024" arHeight="768" duration="0" songTitle="" songArtist="" songAlbum="" />
    <MediaItem id="901" filePath="F:\CSCI-4809\maya\projects\default\images\home_run.0900.jpg" arWidth="1024" arHeight="768" duration="0" songTitle="" songArtist="" songAlbum="" />
    <MediaItem id="902" filePath="F:\CSCI-4809\maya\projects\default\images\home_run.0901.jpg" arWidth="1024" arHeight="768" duration="0" songTitle="" songArtist="" songAlbum="" />
    <MediaItem id="903" filePath="F:\CSCI-4809\maya\projects\default\images\home_run.0902.jpg" arWidth="1024" arHeight="768" duration="0" songTitle="" songArtist="" songAlbum="" />
    <MediaItem id="904" filePath="F:\CSCI-4809\maya\projects\default\images\home_run.0903.jpg" arWidth="1024" arHeight="768" duration="0" songTitle="" songArtist="" songAlbum="" />
    <MediaItem id="905" filePath="F:\CSCI-4809\maya\projects\default\images\home_run.0904.jpg" arWidth="1024" arHeight="768" duration="0" songTitle="" songArtist="" songAlbum="" />
    <MediaItem id="906" filePath="F:\CSCI-4809\maya\projects\default\images\home_run.0905.jpg" arWidth="1024" arHeight="768" duration="0" songTitle="" songArtist="" songAlbum="" />
    <MediaItem id="907" filePath="F:\CSCI-4809\maya\projects\default\images\home_run.0906.jpg" arWidth="1024" arHeight="768" duration="0" songTitle="" songArtist="" songAlbum="" />
    <MediaItem id="908" filePath="F:\CSCI-4809\maya\projects\default\images\home_run.0907.jpg" arWidth="1024" arHeight="768" duration="0" songTitle="" songArtist="" songAlbum="" />
    <MediaItem id="909" filePath="F:\CSCI-4809\maya\projects\default\images\home_run.0908.jpg" arWidth="1024" arHeight="768" duration="0" songTitle="" songArtist="" songAlbum="" />
    <MediaItem id="910" filePath="F:\CSCI-4809\maya\projects\default\images\home_run.0909.jpg" arWidth="1024" arHeight="768" duration="0" songTitle="" songArtist="" songAlbum="" />
    <MediaItem id="911" filePath="F:\CSCI-4809\maya\projects\default\images\home_run.0910.jpg" arWidth="1024" arHeight="768" duration="0" songTitle="" songArtist="" songAlbum="" />
    <MediaItem id="912" filePath="F:\CSCI-4809\maya\projects\default\images\home_run.0911.jpg" arWidth="1024" arHeight="768" duration="0" songTitle="" songArtist="" songAlbum="" />
    <MediaItem id="913" filePath="F:\CSCI-4809\maya\projects\default\images\home_run.0912.jpg" arWidth="1024" arHeight="768" duration="0" songTitle="" songArtist="" songAlbum="" />
    <MediaItem id="914" filePath="F:\CSCI-4809\maya\projects\default\images\home_run.0913.jpg" arWidth="1024" arHeight="768" duration="0" songTitle="" songArtist="" songAlbum="" />
    <MediaItem id="915" filePath="F:\CSCI-4809\maya\projects\default\images\home_run.0914.jpg" arWidth="1024" arHeight="768" duration="0" songTitle="" songArtist="" songAlbum="" />
    <MediaItem id="916" filePath="F:\CSCI-4809\maya\projects\default\images\home_run.0915.jpg" arWidth="1024" arHeight="768" duration="0" songTitle="" songArtist="" songAlbum="" />
    <MediaItem id="917" filePath="F:\CSCI-4809\maya\projects\default\images\home_run.0916.jpg" arWidth="1024" arHeight="768" duration="0" songTitle="" songArtist="" songAlbum="" />
    <MediaItem id="918" filePath="F:\CSCI-4809\maya\projects\default\images\home_run.0917.jpg" arWidth="1024" arHeight="768" duration="0" songTitle="" songArtist="" songAlbum="" />
    <MediaItem id="919" filePath="F:\CSCI-4809\maya\projects\default\images\home_run.0918.jpg" arWidth="1024" arHeight="768" duration="0" songTitle="" songArtist="" songAlbum="" />
    <MediaItem id="920" filePath="F:\CSCI-4809\maya\projects\default\images\home_run.0919.jpg" arWidth="1024" arHeight="768" duration="0" songTitle="" songArtist="" songAlbum="" />
    <MediaItem id="921" filePath="F:\CSCI-4809\maya\projects\default\images\home_run.0920.jpg" arWidth="1024" arHeight="768" duration="0" songTitle="" songArtist="" songAlbum="" />
    <MediaItem id="922" filePath="F:\CSCI-4809\maya\projects\default\images\home_run.0921.jpg" arWidth="1024" arHeight="768" duration="0" songTitle="" songArtist="" songAlbum="" />
    <MediaItem id="923" filePath="F:\CSCI-4809\maya\projects\default\images\home_run.0922.jpg" arWidth="1024" arHeight="768" duration="0" songTitle="" songArtist="" songAlbum="" />
    <MediaItem id="924" filePath="F:\CSCI-4809\maya\projects\default\images\home_run.0923.jpg" arWidth="1024" arHeight="768" duration="0" songTitle="" songArtist="" songAlbum="" />
    <MediaItem id="925" filePath="F:\CSCI-4809\maya\projects\default\images\home_run.0924.jpg" arWidth="1024" arHeight="768" duration="0" songTitle="" songArtist="" songAlbum="" />
    <MediaItem id="926" filePath="F:\CSCI-4809\maya\projects\default\images\home_run.0925.jpg" arWidth="1024" arHeight="768" duration="0" songTitle="" songArtist="" songAlbum="" />
    <MediaItem id="927" filePath="F:\CSCI-4809\maya\projects\default\images\home_run.0926.jpg" arWidth="1024" arHeight="768" duration="0" songTitle="" songArtist="" songAlbum="" />
    <MediaItem id="928" filePath="F:\CSCI-4809\maya\projects\default\images\home_run.0927.jpg" arWidth="1024" arHeight="768" duration="0" songTitle="" songArtist="" songAlbum="" />
    <MediaItem id="929" filePath="F:\CSCI-4809\maya\projects\default\images\home_run.0928.jpg" arWidth="1024" arHeight="768" duration="0" songTitle="" songArtist="" songAlbum="" />
    <MediaItem id="930" filePath="F:\CSCI-4809\maya\projects\default\images\home_run.0929.jpg" arWidth="1024" arHeight="768" duration="0" songTitle="" songArtist="" songAlbum="" />
    <MediaItem id="931" filePath="F:\CSCI-4809\maya\projects\default\images\home_run.0930.jpg" arWidth="1024" arHeight="768" duration="0" songTitle="" songArtist="" songAlbum="" />
    <MediaItem id="932" filePath="F:\CSCI-4809\maya\projects\default\images\home_run.0931.jpg" arWidth="1024" arHeight="768" duration="0" songTitle="" songArtist="" songAlbum="" />
    <MediaItem id="933" filePath="F:\CSCI-4809\maya\projects\default\images\home_run.0932.jpg" arWidth="1024" arHeight="768" duration="0" songTitle="" songArtist="" songAlbum="" />
    <MediaItem id="934" filePath="F:\CSCI-4809\maya\projects\default\images\home_run.0933.jpg" arWidth="1024" arHeight="768" duration="0" songTitle="" songArtist="" songAlbum="" />
    <MediaItem id="935" filePath="F:\CSCI-4809\maya\projects\default\images\home_run.0934.jpg" arWidth="1024" arHeight="768" duration="0" songTitle="" songArtist="" songAlbum="" />
    <MediaItem id="936" filePath="F:\CSCI-4809\maya\projects\default\images\home_run.0935.jpg" arWidth="1024" arHeight="768" duration="0" songTitle="" songArtist="" songAlbum="" />
    <MediaItem id="937" filePath="F:\CSCI-4809\maya\projects\default\images\home_run.0936.jpg" arWidth="1024" arHeight="768" duration="0" songTitle="" songArtist="" songAlbum="" />
    <MediaItem id="938" filePath="F:\CSCI-4809\maya\projects\default\images\home_run.0937.jpg" arWidth="1024" arHeight="768" duration="0" songTitle="" songArtist="" songAlbum="" />
    <MediaItem id="939" filePath="F:\CSCI-4809\maya\projects\default\images\home_run.0938.jpg" arWidth="1024" arHeight="768" duration="0" songTitle="" songArtist="" songAlbum="" />
    <MediaItem id="940" filePath="F:\CSCI-4809\maya\projects\default\images\home_run.0939.jpg" arWidth="1024" arHeight="768" duration="0" songTitle="" songArtist="" songAlbum="" />
    <MediaItem id="941" filePath="F:\CSCI-4809\maya\projects\default\images\home_run.0940.jpg" arWidth="1024" arHeight="768" duration="0" songTitle="" songArtist="" songAlbum="" />
    <MediaItem id="942" filePath="F:\CSCI-4809\maya\projects\default\images\home_run.0941.jpg" arWidth="1024" arHeight="768" duration="0" songTitle="" songArtist="" songAlbum="" />
    <MediaItem id="943" filePath="F:\CSCI-4809\maya\projects\default\images\home_run.0942.jpg" arWidth="1024" arHeight="768" duration="0" songTitle="" songArtist="" songAlbum="" />
    <MediaItem id="944" filePath="F:\CSCI-4809\maya\projects\default\images\home_run.0943.jpg" arWidth="1024" arHeight="768" duration="0" songTitle="" songArtist="" songAlbum="" />
    <MediaItem id="945" filePath="F:\CSCI-4809\maya\projects\default\images\home_run.0944.jpg" arWidth="1024" arHeight="768" duration="0" songTitle="" songArtist="" songAlbum="" />
    <MediaItem id="946" filePath="F:\CSCI-4809\maya\projects\default\images\home_run.0945.jpg" arWidth="1024" arHeight="768" duration="0" songTitle="" songArtist="" songAlbum="" />
    <MediaItem id="947" filePath="F:\CSCI-4809\maya\projects\default\images\home_run.0946.jpg" arWidth="1024" arHeight="768" duration="0" songTitle="" songArtist="" songAlbum="" />
    <MediaItem id="948" filePath="F:\CSCI-4809\maya\projects\default\images\home_run.0947.jpg" arWidth="1024" arHeight="768" duration="0" songTitle="" songArtist="" songAlbum="" />
    <MediaItem id="949" filePath="F:\CSCI-4809\maya\projects\default\images\home_run.0948.jpg" arWidth="1024" arHeight="768" duration="0" songTitle="" songArtist="" songAlbum="" />
    <MediaItem id="950" filePath="F:\CSCI-4809\maya\projects\default\images\home_run.0949.jpg" arWidth="1024" arHeight="768" duration="0" songTitle="" songArtist="" songAlbum="" />
    <MediaItem id="951" filePath="F:\CSCI-4809\maya\projects\default\images\home_run.0950.jpg" arWidth="1024" arHeight="768" duration="0" songTitle="" songArtist="" songAlbum="" />
    <MediaItem id="952" filePath="F:\CSCI-4809\maya\projects\default\images\home_run.0951.jpg" arWidth="1024" arHeight="768" duration="0" songTitle="" songArtist="" songAlbum="" />
    <MediaItem id="953" filePath="F:\CSCI-4809\maya\projects\default\images\home_run.0952.jpg" arWidth="1024" arHeight="768" duration="0" songTitle="" songArtist="" songAlbum="" />
    <MediaItem id="954" filePath="F:\CSCI-4809\maya\projects\default\images\home_run.0953.jpg" arWidth="1024" arHeight="768" duration="0" songTitle="" songArtist="" songAlbum="" />
    <MediaItem id="955" filePath="F:\CSCI-4809\maya\projects\default\images\home_run.0954.jpg" arWidth="1024" arHeight="768" duration="0" songTitle="" songArtist="" songAlbum="" />
    <MediaItem id="956" filePath="F:\CSCI-4809\maya\projects\default\images\home_run.0955.jpg" arWidth="1024" arHeight="768" duration="0" songTitle="" songArtist="" songAlbum="" />
    <MediaItem id="957" filePath="F:\CSCI-4809\maya\projects\default\images\home_run.0956.jpg" arWidth="1024" arHeight="768" duration="0" songTitle="" songArtist="" songAlbum="" />
    <MediaItem id="958" filePath="F:\CSCI-4809\maya\projects\default\images\home_run.0957.jpg" arWidth="1024" arHeight="768" duration="0" songTitle="" songArtist="" songAlbum="" />
    <MediaItem id="959" filePath="F:\CSCI-4809\maya\projects\default\images\home_run.0958.jpg" arWidth="1024" arHeight="768" duration="0" songTitle="" songArtist="" songAlbum="" />
    <MediaItem id="960" filePath="F:\CSCI-4809\maya\projects\default\images\home_run.0959.jpg" arWidth="1024" arHeight="768" duration="0" songTitle="" songArtist="" songAlbum="" />
    <MediaItem id="961" filePath="F:\CSCI-4809\maya\projects\default\images\home_run.0960.jpg" arWidth="1024" arHeight="768" duration="0" songTitle="" songArtist="" songAlbum="" />
    <MediaItem id="962" filePath="F:\CSCI-4809\maya\projects\default\images\home_run.0961.jpg" arWidth="1024" arHeight="768" duration="0" songTitle="" songArtist="" songAlbum="" />
    <MediaItem id="963" filePath="F:\CSCI-4809\maya\projects\default\images\home_run.0962.jpg" arWidth="1024" arHeight="768" duration="0" songTitle="" songArtist="" songAlbum="" />
    <MediaItem id="964" filePath="F:\CSCI-4809\maya\projects\default\images\home_run.0963.jpg" arWidth="1024" arHeight="768" duration="0" songTitle="" songArtist="" songAlbum="" />
    <MediaItem id="965" filePath="F:\CSCI-4809\maya\projects\default\images\home_run.0964.jpg" arWidth="1024" arHeight="768" duration="0" songTitle="" songArtist="" songAlbum="" />
    <MediaItem id="966" filePath="F:\CSCI-4809\maya\projects\default\images\home_run.0965.jpg" arWidth="1024" arHeight="768" duration="0" songTitle="" songArtist="" songAlbum="" />
    <MediaItem id="967" filePath="F:\CSCI-4809\maya\projects\default\images\home_run.0966.jpg" arWidth="1024" arHeight="768" duration="0" songTitle="" songArtist="" songAlbum="" />
    <MediaItem id="968" filePath="F:\CSCI-4809\maya\projects\default\images\home_run.0967.jpg" arWidth="1024" arHeight="768" duration="0" songTitle="" songArtist="" songAlbum="" />
    <MediaItem id="969" filePath="F:\CSCI-4809\maya\projects\default\images\home_run.0968.jpg" arWidth="1024" arHeight="768" duration="0" songTitle="" songArtist="" songAlbum="" />
    <MediaItem id="970" filePath="F:\CSCI-4809\maya\projects\default\images\home_run.0969.jpg" arWidth="1024" arHeight="768" duration="0" songTitle="" songArtist="" songAlbum="" />
    <MediaItem id="971" filePath="F:\CSCI-4809\maya\projects\default\images\home_run.0970.jpg" arWidth="1024" arHeight="768" duration="0" songTitle="" songArtist="" songAlbum="" />
    <MediaItem id="972" filePath="F:\CSCI-4809\maya\projects\default\images\home_run.0971.jpg" arWidth="1024" arHeight="768" duration="0" songTitle="" songArtist="" songAlbum="" />
    <MediaItem id="973" filePath="F:\CSCI-4809\maya\projects\default\images\home_run.0972.jpg" arWidth="1024" arHeight="768" duration="0" songTitle="" songArtist="" songAlbum="" />
    <MediaItem id="974" filePath="F:\CSCI-4809\maya\projects\default\images\home_run.0973.jpg" arWidth="1024" arHeight="768" duration="0" songTitle="" songArtist="" songAlbum="" />
    <MediaItem id="975" filePath="F:\CSCI-4809\maya\projects\default\images\home_run.0974.jpg" arWidth="1024" arHeight="768" duration="0" songTitle="" songArtist="" songAlbum="" />
    <MediaItem id="976" filePath="F:\CSCI-4809\maya\projects\default\images\home_run.0975.jpg" arWidth="1024" arHeight="768" duration="0" songTitle="" songArtist="" songAlbum="" />
    <MediaItem id="977" filePath="F:\CSCI-4809\maya\projects\default\images\home_run.0976.jpg" arWidth="1024" arHeight="768" duration="0" songTitle="" songArtist="" songAlbum="" />
    <MediaItem id="978" filePath="F:\CSCI-4809\maya\projects\default\images\home_run.0977.jpg" arWidth="1024" arHeight="768" duration="0" songTitle="" songArtist="" songAlbum="" />
    <MediaItem id="979" filePath="F:\CSCI-4809\maya\projects\default\images\home_run.0978.jpg" arWidth="1024" arHeight="768" duration="0" songTitle="" songArtist="" songAlbum="" />
    <MediaItem id="980" filePath="F:\CSCI-4809\maya\projects\default\images\home_run.0979.jpg" arWidth="1024" arHeight="768" duration="0" songTitle="" songArtist="" songAlbum="" />
    <MediaItem id="981" filePath="F:\CSCI-4809\maya\projects\default\images\home_run.0980.jpg" arWidth="1024" arHeight="768" duration="0" songTitle="" songArtist="" songAlbum="" />
    <MediaItem id="982" filePath="F:\CSCI-4809\maya\projects\default\images\home_run.0981.jpg" arWidth="1024" arHeight="768" duration="0" songTitle="" songArtist="" songAlbum="" />
    <MediaItem id="983" filePath="F:\CSCI-4809\maya\projects\default\images\home_run.0982.jpg" arWidth="1024" arHeight="768" duration="0" songTitle="" songArtist="" songAlbum="" />
    <MediaItem id="984" filePath="F:\CSCI-4809\maya\projects\default\images\home_run.0983.jpg" arWidth="1024" arHeight="768" duration="0" songTitle="" songArtist="" songAlbum="" />
    <MediaItem id="985" filePath="F:\CSCI-4809\maya\projects\default\images\home_run.0984.jpg" arWidth="1024" arHeight="768" duration="0" songTitle="" songArtist="" songAlbum="" />
    <MediaItem id="986" filePath="F:\CSCI-4809\maya\projects\default\images\home_run.0985.jpg" arWidth="1024" arHeight="768" duration="0" songTitle="" songArtist="" songAlbum="" />
    <MediaItem id="987" filePath="F:\CSCI-4809\maya\projects\default\images\home_run.0986.jpg" arWidth="1024" arHeight="768" duration="0" songTitle="" songArtist="" songAlbum="" />
    <MediaItem id="988" filePath="F:\CSCI-4809\maya\projects\default\images\home_run.0987.jpg" arWidth="1024" arHeight="768" duration="0" songTitle="" songArtist="" songAlbum="" />
    <MediaItem id="989" filePath="F:\CSCI-4809\maya\projects\default\images\home_run.0988.jpg" arWidth="1024" arHeight="768" duration="0" songTitle="" songArtist="" songAlbum="" />
    <MediaItem id="990" filePath="F:\CSCI-4809\maya\projects\default\images\home_run.0989.jpg" arWidth="1024" arHeight="768" duration="0" songTitle="" songArtist="" songAlbum="" />
    <MediaItem id="991" filePath="F:\CSCI-4809\maya\projects\default\images\home_run.0990.jpg" arWidth="1024" arHeight="768" duration="0" songTitle="" songArtist="" songAlbum="" />
    <MediaItem id="992" filePath="F:\CSCI-4809\maya\projects\default\images\home_run.0991.jpg" arWidth="1024" arHeight="768" duration="0" songTitle="" songArtist="" songAlbum="" />
    <MediaItem id="993" filePath="F:\CSCI-4809\maya\projects\default\images\home_run.0992.jpg" arWidth="1024" arHeight="768" duration="0" songTitle="" songArtist="" songAlbum="" />
    <MediaItem id="994" filePath="F:\CSCI-4809\maya\projects\default\images\home_run.0993.jpg" arWidth="1024" arHeight="768" duration="0" songTitle="" songArtist="" songAlbum="" />
    <MediaItem id="995" filePath="F:\CSCI-4809\maya\projects\default\images\home_run.0994.jpg" arWidth="1024" arHeight="768" duration="0" songTitle="" songArtist="" songAlbum="" />
    <MediaItem id="996" filePath="F:\CSCI-4809\maya\projects\default\images\home_run.0995.jpg" arWidth="1024" arHeight="768" duration="0" songTitle="" songArtist="" songAlbum="" />
    <MediaItem id="997" filePath="F:\CSCI-4809\maya\projects\default\images\home_run.0996.jpg" arWidth="1024" arHeight="768" duration="0" songTitle="" songArtist="" songAlbum="" />
    <MediaItem id="998" filePath="F:\CSCI-4809\maya\projects\default\images\home_run.0997.jpg" arWidth="1024" arHeight="768" duration="0" songTitle="" songArtist="" songAlbum="" />
    <MediaItem id="999" filePath="F:\CSCI-4809\maya\projects\default\images\home_run.0998.jpg" arWidth="1024" arHeight="768" duration="0" songTitle="" songArtist="" songAlbum="" />
    <MediaItem id="1000" filePath="F:\CSCI-4809\maya\projects\default\images\home_run.0999.jpg" arWidth="1024" arHeight="768" duration="0" songTitle="" songArtist="" songAlbum="" />
    <MediaItem id="1001" filePath="F:\CSCI-4809\maya\projects\default\images\home_run.1000.jpg" arWidth="1024" arHeight="768" duration="0" songTitle="" songArtist="" songAlbum="" />
    <MediaItem id="1002" filePath="F:\CSCI-4809\maya\projects\default\images\home_run.1001.jpg" arWidth="1024" arHeight="768" duration="0" songTitle="" songArtist="" songAlbum="" />
    <MediaItem id="1003" filePath="F:\CSCI-4809\maya\projects\default\images\home_run.1002.jpg" arWidth="1024" arHeight="768" duration="0" songTitle="" songArtist="" songAlbum="" />
    <MediaItem id="1004" filePath="F:\CSCI-4809\maya\projects\default\images\home_run.1003.jpg" arWidth="1024" arHeight="768" duration="0" songTitle="" songArtist="" songAlbum="" />
    <MediaItem id="1005" filePath="F:\CSCI-4809\maya\projects\default\images\home_run.1004.jpg" arWidth="1024" arHeight="768" duration="0" songTitle="" songArtist="" songAlbum="" />
    <MediaItem id="1006" filePath="F:\CSCI-4809\maya\projects\default\images\home_run.1005.jpg" arWidth="1024" arHeight="768" duration="0" songTitle="" songArtist="" songAlbum="" />
    <MediaItem id="1007" filePath="F:\CSCI-4809\maya\projects\default\images\home_run.1006.jpg" arWidth="1024" arHeight="768" duration="0" songTitle="" songArtist="" songAlbum="" />
    <MediaItem id="1008" filePath="F:\CSCI-4809\maya\projects\default\images\home_run.1007.jpg" arWidth="1024" arHeight="768" duration="0" songTitle="" songArtist="" songAlbum="" />
    <MediaItem id="1009" filePath="F:\CSCI-4809\maya\projects\default\images\home_run.1008.jpg" arWidth="1024" arHeight="768" duration="0" songTitle="" songArtist="" songAlbum="" />
    <MediaItem id="1010" filePath="F:\CSCI-4809\maya\projects\default\images\home_run.1009.jpg" arWidth="1024" arHeight="768" duration="0" songTitle="" songArtist="" songAlbum="" />
    <MediaItem id="1011" filePath="F:\CSCI-4809\maya\projects\default\images\home_run.1010.jpg" arWidth="1024" arHeight="768" duration="0" songTitle="" songArtist="" songAlbum="" />
    <MediaItem id="1012" filePath="F:\CSCI-4809\maya\projects\default\images\home_run.1011.jpg" arWidth="1024" arHeight="768" duration="0" songTitle="" songArtist="" songAlbum="" />
    <MediaItem id="1013" filePath="F:\CSCI-4809\maya\projects\default\images\home_run.1012.jpg" arWidth="1024" arHeight="768" duration="0" songTitle="" songArtist="" songAlbum="" />
    <MediaItem id="1014" filePath="F:\CSCI-4809\maya\projects\default\images\home_run.1013.jpg" arWidth="1024" arHeight="768" duration="0" songTitle="" songArtist="" songAlbum="" />
    <MediaItem id="1015" filePath="F:\CSCI-4809\maya\projects\default\images\home_run.1014.jpg" arWidth="1024" arHeight="768" duration="0" songTitle="" songArtist="" songAlbum="" />
    <MediaItem id="1016" filePath="F:\CSCI-4809\maya\projects\default\images\home_run.1015.jpg" arWidth="1024" arHeight="768" duration="0" songTitle="" songArtist="" songAlbum="" />
    <MediaItem id="1017" filePath="F:\CSCI-4809\maya\projects\default\images\home_run.1016.jpg" arWidth="1024" arHeight="768" duration="0" songTitle="" songArtist="" songAlbum="" />
    <MediaItem id="1018" filePath="F:\CSCI-4809\maya\projects\default\images\home_run.1017.jpg" arWidth="1024" arHeight="768" duration="0" songTitle="" songArtist="" songAlbum="" />
    <MediaItem id="1019" filePath="F:\CSCI-4809\maya\projects\default\images\home_run.1018.jpg" arWidth="1024" arHeight="768" duration="0" songTitle="" songArtist="" songAlbum="" />
    <MediaItem id="1020" filePath="F:\CSCI-4809\maya\projects\default\images\home_run.1019.jpg" arWidth="1024" arHeight="768" duration="0" songTitle="" songArtist="" songAlbum="" />
    <MediaItem id="1021" filePath="F:\CSCI-4809\maya\projects\default\images\home_run.1020.jpg" arWidth="1024" arHeight="768" duration="0" songTitle="" songArtist="" songAlbum="" />
    <MediaItem id="1022" filePath="F:\CSCI-4809\maya\projects\default\images\home_run.1021.jpg" arWidth="1024" arHeight="768" duration="0" songTitle="" songArtist="" songAlbum="" />
    <MediaItem id="1023" filePath="F:\CSCI-4809\maya\projects\default\images\home_run.1022.jpg" arWidth="1024" arHeight="768" duration="0" songTitle="" songArtist="" songAlbum="" />
    <MediaItem id="1024" filePath="F:\CSCI-4809\maya\projects\default\images\home_run.1023.jpg" arWidth="1024" arHeight="768" duration="0" songTitle="" songArtist="" songAlbum="" />
    <MediaItem id="1025" filePath="F:\CSCI-4809\maya\projects\default\images\home_run.1024.jpg" arWidth="1024" arHeight="768" duration="0" songTitle="" songArtist="" songAlbum="" />
    <MediaItem id="1026" filePath="F:\CSCI-4809\maya\projects\default\images\home_run.1025.jpg" arWidth="1024" arHeight="768" duration="0" songTitle="" songArtist="" songAlbum="" />
    <MediaItem id="1027" filePath="F:\CSCI-4809\maya\projects\default\images\home_run.1026.jpg" arWidth="1024" arHeight="768" duration="0" songTitle="" songArtist="" songAlbum="" />
    <MediaItem id="1028" filePath="F:\CSCI-4809\maya\projects\default\images\home_run.1027.jpg" arWidth="1024" arHeight="768" duration="0" songTitle="" songArtist="" songAlbum="" />
    <MediaItem id="1029" filePath="F:\CSCI-4809\maya\projects\default\images\home_run.1028.jpg" arWidth="1024" arHeight="768" duration="0" songTitle="" songArtist="" songAlbum="" />
    <MediaItem id="1030" filePath="F:\CSCI-4809\maya\projects\default\images\home_run.1029.jpg" arWidth="1024" arHeight="768" duration="0" songTitle="" songArtist="" songAlbum="" />
    <MediaItem id="1031" filePath="F:\CSCI-4809\maya\projects\default\images\home_run.1030.jpg" arWidth="1024" arHeight="768" duration="0" songTitle="" songArtist="" songAlbum="" />
    <MediaItem id="1032" filePath="F:\CSCI-4809\maya\projects\default\images\home_run.1031.jpg" arWidth="1024" arHeight="768" duration="0" songTitle="" songArtist="" songAlbum="" />
    <MediaItem id="1033" filePath="F:\CSCI-4809\maya\projects\default\images\home_run.1032.jpg" arWidth="1024" arHeight="768" duration="0" songTitle="" songArtist="" songAlbum="" />
    <MediaItem id="1034" filePath="F:\CSCI-4809\maya\projects\default\images\home_run.1033.jpg" arWidth="1024" arHeight="768" duration="0" songTitle="" songArtist="" songAlbum="" />
    <MediaItem id="1035" filePath="F:\CSCI-4809\maya\projects\default\images\home_run.1034.jpg" arWidth="1024" arHeight="768" duration="0" songTitle="" songArtist="" songAlbum="" />
    <MediaItem id="1036" filePath="F:\CSCI-4809\maya\projects\default\images\home_run.1035.jpg" arWidth="1024" arHeight="768" duration="0" songTitle="" songArtist="" songAlbum="" />
    <MediaItem id="1037" filePath="F:\CSCI-4809\maya\projects\default\images\home_run.1036.jpg" arWidth="1024" arHeight="768" duration="0" songTitle="" songArtist="" songAlbum="" />
    <MediaItem id="1038" filePath="F:\CSCI-4809\maya\projects\default\images\home_run.1037.jpg" arWidth="1024" arHeight="768" duration="0" songTitle="" songArtist="" songAlbum="" />
    <MediaItem id="1039" filePath="F:\CSCI-4809\maya\projects\default\images\home_run.1038.jpg" arWidth="1024" arHeight="768" duration="0" songTitle="" songArtist="" songAlbum="" />
    <MediaItem id="1040" filePath="F:\CSCI-4809\maya\projects\default\images\home_run.1039.jpg" arWidth="1024" arHeight="768" duration="0" songTitle="" songArtist="" songAlbum="" />
    <MediaItem id="1041" filePath="F:\CSCI-4809\maya\projects\default\images\home_run.1040.jpg" arWidth="1024" arHeight="768" duration="0" songTitle="" songArtist="" songAlbum="" />
    <MediaItem id="1042" filePath="F:\CSCI-4809\maya\projects\default\images\home_run.1041.jpg" arWidth="1024" arHeight="768" duration="0" songTitle="" songArtist="" songAlbum="" />
    <MediaItem id="1043" filePath="F:\CSCI-4809\maya\projects\default\images\home_run.1042.jpg" arWidth="1024" arHeight="768" duration="0" songTitle="" songArtist="" songAlbum="" />
    <MediaItem id="1044" filePath="F:\CSCI-4809\maya\projects\default\images\home_run.1043.jpg" arWidth="1024" arHeight="768" duration="0" songTitle="" songArtist="" songAlbum="" />
    <MediaItem id="1045" filePath="F:\CSCI-4809\maya\projects\default\images\home_run.1044.jpg" arWidth="1024" arHeight="768" duration="0" songTitle="" songArtist="" songAlbum="" />
    <MediaItem id="1046" filePath="F:\CSCI-4809\maya\projects\default\images\home_run.1045.jpg" arWidth="1024" arHeight="768" duration="0" songTitle="" songArtist="" songAlbum="" />
    <MediaItem id="1047" filePath="F:\CSCI-4809\maya\projects\default\images\home_run.1046.jpg" arWidth="1024" arHeight="768" duration="0" songTitle="" songArtist="" songAlbum="" />
    <MediaItem id="1048" filePath="F:\CSCI-4809\maya\projects\default\images\home_run.1047.jpg" arWidth="1024" arHeight="768" duration="0" songTitle="" songArtist="" songAlbum="" />
    <MediaItem id="1049" filePath="F:\CSCI-4809\maya\projects\default\images\home_run.1048.jpg" arWidth="1024" arHeight="768" duration="0" songTitle="" songArtist="" songAlbum="" />
    <MediaItem id="1050" filePath="F:\CSCI-4809\maya\projects\default\images\home_run.1049.jpg" arWidth="1024" arHeight="768" duration="0" songTitle="" songArtist="" songAlbum="" />
    <MediaItem id="1051" filePath="F:\CSCI-4809\maya\projects\default\images\home_run.1050.jpg" arWidth="1024" arHeight="768" duration="0" songTitle="" songArtist="" songAlbum="" />
    <MediaItem id="1052" filePath="F:\CSCI-4809\maya\projects\default\images\home_run.1051.jpg" arWidth="1024" arHeight="768" duration="0" songTitle="" songArtist="" songAlbum="" />
    <MediaItem id="1053" filePath="F:\CSCI-4809\maya\projects\default\images\home_run.1052.jpg" arWidth="1024" arHeight="768" duration="0" songTitle="" songArtist="" songAlbum="" />
    <MediaItem id="1054" filePath="F:\CSCI-4809\maya\projects\default\images\home_run.1053.jpg" arWidth="1024" arHeight="768" duration="0" songTitle="" songArtist="" songAlbum="" />
    <MediaItem id="1055" filePath="F:\CSCI-4809\maya\projects\default\images\home_run.1054.jpg" arWidth="1024" arHeight="768" duration="0" songTitle="" songArtist="" songAlbum="" />
    <MediaItem id="1056" filePath="F:\CSCI-4809\maya\projects\default\images\home_run.1055.jpg" arWidth="1024" arHeight="768" duration="0" songTitle="" songArtist="" songAlbum="" />
    <MediaItem id="1057" filePath="F:\CSCI-4809\maya\projects\default\images\home_run.1056.jpg" arWidth="1024" arHeight="768" duration="0" songTitle="" songArtist="" songAlbum="" />
    <MediaItem id="1058" filePath="F:\CSCI-4809\maya\projects\default\images\home_run.1057.jpg" arWidth="1024" arHeight="768" duration="0" songTitle="" songArtist="" songAlbum="" />
    <MediaItem id="1059" filePath="F:\CSCI-4809\maya\projects\default\images\home_run.1058.jpg" arWidth="1024" arHeight="768" duration="0" songTitle="" songArtist="" songAlbum="" />
    <MediaItem id="1060" filePath="F:\CSCI-4809\maya\projects\default\images\home_run.1059.jpg" arWidth="1024" arHeight="768" duration="0" songTitle="" songArtist="" songAlbum="" />
    <MediaItem id="1061" filePath="F:\CSCI-4809\maya\projects\default\images\home_run.1060.jpg" arWidth="1024" arHeight="768" duration="0" songTitle="" songArtist="" songAlbum="" />
    <MediaItem id="1062" filePath="F:\CSCI-4809\maya\projects\default\images\home_run.1061.jpg" arWidth="1024" arHeight="768" duration="0" songTitle="" songArtist="" songAlbum="" />
    <MediaItem id="1063" filePath="F:\CSCI-4809\maya\projects\default\images\home_run.1062.jpg" arWidth="1024" arHeight="768" duration="0" songTitle="" songArtist="" songAlbum="" />
    <MediaItem id="1064" filePath="F:\CSCI-4809\maya\projects\default\images\home_run.1063.jpg" arWidth="1024" arHeight="768" duration="0" songTitle="" songArtist="" songAlbum="" />
    <MediaItem id="1065" filePath="F:\CSCI-4809\maya\projects\default\images\home_run.1064.jpg" arWidth="1024" arHeight="768" duration="0" songTitle="" songArtist="" songAlbum="" />
    <MediaItem id="1066" filePath="F:\CSCI-4809\maya\projects\default\images\home_run.1065.jpg" arWidth="1024" arHeight="768" duration="0" songTitle="" songArtist="" songAlbum="" />
    <MediaItem id="1067" filePath="F:\CSCI-4809\maya\projects\default\images\home_run.1066.jpg" arWidth="1024" arHeight="768" duration="0" songTitle="" songArtist="" songAlbum="" />
    <MediaItem id="1068" filePath="F:\CSCI-4809\maya\projects\default\images\home_run.1067.jpg" arWidth="1024" arHeight="768" duration="0" songTitle="" songArtist="" songAlbum="" />
    <MediaItem id="1069" filePath="F:\CSCI-4809\maya\projects\default\images\home_run.1068.jpg" arWidth="1024" arHeight="768" duration="0" songTitle="" songArtist="" songAlbum="" />
    <MediaItem id="1070" filePath="F:\CSCI-4809\maya\projects\default\images\home_run.1069.jpg" arWidth="1024" arHeight="768" duration="0" songTitle="" songArtist="" songAlbum="" />
    <MediaItem id="1071" filePath="F:\CSCI-4809\maya\projects\default\images\home_run.1070.jpg" arWidth="1024" arHeight="768" duration="0" songTitle="" songArtist="" songAlbum="" />
    <MediaItem id="1072" filePath="F:\CSCI-4809\maya\projects\default\images\home_run.1071.jpg" arWidth="1024" arHeight="768" duration="0" songTitle="" songArtist="" songAlbum="" />
    <MediaItem id="1073" filePath="F:\CSCI-4809\maya\projects\default\images\home_run.1072.jpg" arWidth="1024" arHeight="768" duration="0" songTitle="" songArtist="" songAlbum="" />
    <MediaItem id="1074" filePath="F:\CSCI-4809\maya\projects\default\images\home_run.1073.jpg" arWidth="1024" arHeight="768" duration="0" songTitle="" songArtist="" songAlbum="" />
    <MediaItem id="1075" filePath="F:\CSCI-4809\maya\projects\default\images\home_run.1074.jpg" arWidth="1024" arHeight="768" duration="0" songTitle="" songArtist="" songAlbum="" />
    <MediaItem id="1076" filePath="F:\CSCI-4809\maya\projects\default\images\home_run.1075.jpg" arWidth="1024" arHeight="768" duration="0" songTitle="" songArtist="" songAlbum="" />
    <MediaItem id="1077" filePath="F:\CSCI-4809\maya\projects\default\images\home_run.1076.jpg" arWidth="1024" arHeight="768" duration="0" songTitle="" songArtist="" songAlbum="" />
    <MediaItem id="1078" filePath="F:\CSCI-4809\maya\projects\default\images\home_run.1077.jpg" arWidth="1024" arHeight="768" duration="0" songTitle="" songArtist="" songAlbum="" />
    <MediaItem id="1079" filePath="F:\CSCI-4809\maya\projects\default\images\home_run.1078.jpg" arWidth="1024" arHeight="768" duration="0" songTitle="" songArtist="" songAlbum="" />
    <MediaItem id="1080" filePath="F:\CSCI-4809\maya\projects\default\images\home_run.1079.jpg" arWidth="1024" arHeight="768" duration="0" songTitle="" songArtist="" songAlbum="" />
    <MediaItem id="1081" filePath="F:\CSCI-4809\maya\projects\default\images\home_run.1080.jpg" arWidth="1024" arHeight="768" duration="0" songTitle="" songArtist="" songAlbum="" />
    <MediaItem id="1082" filePath="F:\CSCI-4809\maya\projects\default\images\home_run.1081.jpg" arWidth="1024" arHeight="768" duration="0" songTitle="" songArtist="" songAlbum="" />
    <MediaItem id="1083" filePath="F:\CSCI-4809\maya\projects\default\images\home_run.1082.jpg" arWidth="1024" arHeight="768" duration="0" songTitle="" songArtist="" songAlbum="" />
    <MediaItem id="1084" filePath="F:\CSCI-4809\maya\projects\default\images\home_run.1083.jpg" arWidth="1024" arHeight="768" duration="0" songTitle="" songArtist="" songAlbum="" />
    <MediaItem id="1085" filePath="F:\CSCI-4809\maya\projects\default\images\home_run.1084.jpg" arWidth="1024" arHeight="768" duration="0" songTitle="" songArtist="" songAlbum="" />
    <MediaItem id="1086" filePath="F:\CSCI-4809\maya\projects\default\images\home_run.1085.jpg" arWidth="1024" arHeight="768" duration="0" songTitle="" songArtist="" songAlbum="" />
    <MediaItem id="1087" filePath="F:\CSCI-4809\maya\projects\default\images\home_run.1086.jpg" arWidth="1024" arHeight="768" duration="0" songTitle="" songArtist="" songAlbum="" />
    <MediaItem id="1088" filePath="F:\CSCI-4809\maya\projects\default\images\home_run.1087.jpg" arWidth="1024" arHeight="768" duration="0" songTitle="" songArtist="" songAlbum="" />
    <MediaItem id="1089" filePath="F:\CSCI-4809\maya\projects\default\images\home_run.1088.jpg" arWidth="1024" arHeight="768" duration="0" songTitle="" songArtist="" songAlbum="" />
    <MediaItem id="1090" filePath="F:\CSCI-4809\maya\projects\default\images\home_run.1089.jpg" arWidth="1024" arHeight="768" duration="0" songTitle="" songArtist="" songAlbum="" />
    <MediaItem id="1091" filePath="F:\CSCI-4809\maya\projects\default\images\home_run.1090.jpg" arWidth="1024" arHeight="768" duration="0" songTitle="" songArtist="" songAlbum="" />
    <MediaItem id="1092" filePath="F:\CSCI-4809\maya\projects\default\images\home_run.1091.jpg" arWidth="1024" arHeight="768" duration="0" songTitle="" songArtist="" songAlbum="" />
    <MediaItem id="1093" filePath="F:\CSCI-4809\maya\projects\default\images\home_run.1092.jpg" arWidth="1024" arHeight="768" duration="0" songTitle="" songArtist="" songAlbum="" />
    <MediaItem id="1094" filePath="F:\CSCI-4809\maya\projects\default\images\home_run.1093.jpg" arWidth="1024" arHeight="768" duration="0" songTitle="" songArtist="" songAlbum="" />
    <MediaItem id="1095" filePath="F:\CSCI-4809\maya\projects\default\images\home_run.1094.jpg" arWidth="1024" arHeight="768" duration="0" songTitle="" songArtist="" songAlbum="" />
    <MediaItem id="1096" filePath="F:\CSCI-4809\maya\projects\default\images\home_run.1095.jpg" arWidth="1024" arHeight="768" duration="0" songTitle="" songArtist="" songAlbum="" />
    <MediaItem id="1097" filePath="F:\CSCI-4809\maya\projects\default\images\home_run.1096.jpg" arWidth="1024" arHeight="768" duration="0" songTitle="" songArtist="" songAlbum="" />
    <MediaItem id="1098" filePath="F:\CSCI-4809\maya\projects\default\images\home_run.1097.jpg" arWidth="1024" arHeight="768" duration="0" songTitle="" songArtist="" songAlbum="" />
    <MediaItem id="1099" filePath="F:\CSCI-4809\maya\projects\default\images\home_run.1098.jpg" arWidth="1024" arHeight="768" duration="0" songTitle="" songArtist="" songAlbum="" />
    <MediaItem id="1100" filePath="F:\CSCI-4809\maya\projects\default\images\home_run.1099.jpg" arWidth="1024" arHeight="768" duration="0" songTitle="" songArtist="" songAlbum="" />
    <MediaItem id="1101" filePath="F:\CSCI-4809\maya\projects\default\images\home_run.1100.jpg" arWidth="1024" arHeight="768" duration="0" songTitle="" songArtist="" songAlbum="" />
    <MediaItem id="1102" filePath="F:\CSCI-4809\maya\projects\default\images\home_run.1101.jpg" arWidth="1024" arHeight="768" duration="0" songTitle="" songArtist="" songAlbum="" />
    <MediaItem id="1103" filePath="F:\CSCI-4809\maya\projects\default\images\home_run.1102.jpg" arWidth="1024" arHeight="768" duration="0" songTitle="" songArtist="" songAlbum="" />
    <MediaItem id="1104" filePath="F:\CSCI-4809\maya\projects\default\images\home_run.1103.jpg" arWidth="1024" arHeight="768" duration="0" songTitle="" songArtist="" songAlbum="" />
    <MediaItem id="1105" filePath="F:\CSCI-4809\maya\projects\default\images\home_run.1104.jpg" arWidth="1024" arHeight="768" duration="0" songTitle="" songArtist="" songAlbum="" />
    <MediaItem id="1106" filePath="F:\CSCI-4809\maya\projects\default\images\home_run.1105.jpg" arWidth="1024" arHeight="768" duration="0" songTitle="" songArtist="" songAlbum="" />
    <MediaItem id="1107" filePath="F:\CSCI-4809\maya\projects\default\images\home_run.1106.jpg" arWidth="1024" arHeight="768" duration="0" songTitle="" songArtist="" songAlbum="" />
    <MediaItem id="1108" filePath="F:\CSCI-4809\maya\projects\default\images\home_run.1107.jpg" arWidth="1024" arHeight="768" duration="0" songTitle="" songArtist="" songAlbum="" />
    <MediaItem id="1109" filePath="F:\CSCI-4809\maya\projects\default\images\home_run.1108.jpg" arWidth="1024" arHeight="768" duration="0" songTitle="" songArtist="" songAlbum="" />
    <MediaItem id="1110" filePath="F:\CSCI-4809\maya\projects\default\images\home_run.1109.jpg" arWidth="1024" arHeight="768" duration="0" songTitle="" songArtist="" songAlbum="" />
    <MediaItem id="1111" filePath="F:\CSCI-4809\maya\projects\default\images\home_run.1110.jpg" arWidth="1024" arHeight="768" duration="0" songTitle="" songArtist="" songAlbum="" />
    <MediaItem id="1112" filePath="F:\CSCI-4809\maya\projects\default\images\home_run.1111.jpg" arWidth="1024" arHeight="768" duration="0" songTitle="" songArtist="" songAlbum="" />
    <MediaItem id="1113" filePath="F:\CSCI-4809\maya\projects\default\images\home_run.1112.jpg" arWidth="1024" arHeight="768" duration="0" songTitle="" songArtist="" songAlbum="" />
    <MediaItem id="1114" filePath="F:\CSCI-4809\maya\projects\default\images\home_run.1113.jpg" arWidth="1024" arHeight="768" duration="0" songTitle="" songArtist="" songAlbum="" />
    <MediaItem id="1115" filePath="F:\CSCI-4809\maya\projects\default\images\home_run.1114.jpg" arWidth="1024" arHeight="768" duration="0" songTitle="" songArtist="" songAlbum="" />
    <MediaItem id="1116" filePath="F:\CSCI-4809\maya\projects\default\images\home_run.1115.jpg" arWidth="1024" arHeight="768" duration="0" songTitle="" songArtist="" songAlbum="" />
    <MediaItem id="1117" filePath="F:\CSCI-4809\maya\projects\default\images\home_run.1116.jpg" arWidth="1024" arHeight="768" duration="0" songTitle="" songArtist="" songAlbum="" />
    <MediaItem id="1118" filePath="F:\CSCI-4809\maya\projects\default\images\home_run.1117.jpg" arWidth="1024" arHeight="768" duration="0" songTitle="" songArtist="" songAlbum="" />
    <MediaItem id="1119" filePath="F:\CSCI-4809\maya\projects\default\images\home_run.1118.jpg" arWidth="1024" arHeight="768" duration="0" songTitle="" songArtist="" songAlbum="" />
    <MediaItem id="1120" filePath="F:\CSCI-4809\maya\projects\default\images\home_run.1119.jpg" arWidth="1024" arHeight="768" duration="0" songTitle="" songArtist="" songAlbum="" />
    <MediaItem id="1121" filePath="F:\CSCI-4809\maya\projects\default\images\home_run.1120.jpg" arWidth="1024" arHeight="768" duration="0" songTitle="" songArtist="" songAlbum="" />
    <MediaItem id="1122" filePath="F:\CSCI-4809\maya\projects\default\images\home_run.1121.jpg" arWidth="1024" arHeight="768" duration="0" songTitle="" songArtist="" songAlbum="" />
    <MediaItem id="1123" filePath="F:\CSCI-4809\maya\projects\default\images\home_run.1122.jpg" arWidth="1024" arHeight="768" duration="0" songTitle="" songArtist="" songAlbum="" />
    <MediaItem id="1124" filePath="F:\CSCI-4809\maya\projects\default\images\home_run.1123.jpg" arWidth="1024" arHeight="768" duration="0" songTitle="" songArtist="" songAlbum="" />
    <MediaItem id="1125" filePath="F:\CSCI-4809\maya\projects\default\images\home_run.1124.jpg" arWidth="1024" arHeight="768" duration="0" songTitle="" songArtist="" songAlbum="" />
    <MediaItem id="1126" filePath="F:\CSCI-4809\maya\projects\default\images\home_run.1125.jpg" arWidth="1024" arHeight="768" duration="0" songTitle="" songArtist="" songAlbum="" />
    <MediaItem id="1127" filePath="F:\CSCI-4809\maya\projects\default\images\home_run.1126.jpg" arWidth="1024" arHeight="768" duration="0" songTitle="" songArtist="" songAlbum="" />
    <MediaItem id="1128" filePath="F:\CSCI-4809\maya\projects\default\images\home_run.1127.jpg" arWidth="1024" arHeight="768" duration="0" songTitle="" songArtist="" songAlbum="" />
    <MediaItem id="1129" filePath="F:\CSCI-4809\maya\projects\default\images\home_run.1128.jpg" arWidth="1024" arHeight="768" duration="0" songTitle="" songArtist="" songAlbum="" />
    <MediaItem id="1130" filePath="F:\CSCI-4809\maya\projects\default\images\home_run.1129.jpg" arWidth="1024" arHeight="768" duration="0" songTitle="" songArtist="" songAlbum="" />
    <MediaItem id="1131" filePath="F:\CSCI-4809\maya\projects\default\images\home_run.1130.jpg" arWidth="1024" arHeight="768" duration="0" songTitle="" songArtist="" songAlbum="" />
    <MediaItem id="1132" filePath="F:\CSCI-4809\maya\projects\default\images\home_run.1131.jpg" arWidth="1024" arHeight="768" duration="0" songTitle="" songArtist="" songAlbum="" />
    <MediaItem id="1133" filePath="F:\CSCI-4809\maya\projects\default\images\home_run.1132.jpg" arWidth="1024" arHeight="768" duration="0" songTitle="" songArtist="" songAlbum="" />
    <MediaItem id="1134" filePath="F:\CSCI-4809\maya\projects\default\images\home_run.1133.jpg" arWidth="1024" arHeight="768" duration="0" songTitle="" songArtist="" songAlbum="" />
    <MediaItem id="1135" filePath="F:\CSCI-4809\maya\projects\default\images\home_run.1134.jpg" arWidth="1024" arHeight="768" duration="0" songTitle="" songArtist="" songAlbum="" />
    <MediaItem id="1136" filePath="F:\CSCI-4809\maya\projects\default\images\home_run.1135.jpg" arWidth="1024" arHeight="768" duration="0" songTitle="" songArtist="" songAlbum="" />
    <MediaItem id="1137" filePath="F:\CSCI-4809\maya\projects\default\images\home_run.1136.jpg" arWidth="1024" arHeight="768" duration="0" songTitle="" songArtist="" songAlbum="" />
    <MediaItem id="1138" filePath="F:\CSCI-4809\maya\projects\default\images\home_run.1137.jpg" arWidth="1024" arHeight="768" duration="0" songTitle="" songArtist="" songAlbum="" />
    <MediaItem id="1139" filePath="F:\CSCI-4809\maya\projects\default\images\home_run.1138.jpg" arWidth="1024" arHeight="768" duration="0" songTitle="" songArtist="" songAlbum="" />
    <MediaItem id="1140" filePath="F:\CSCI-4809\maya\projects\default\images\home_run.1139.jpg" arWidth="1024" arHeight="768" duration="0" songTitle="" songArtist="" songAlbum="" />
    <MediaItem id="1141" filePath="F:\CSCI-4809\maya\projects\default\images\home_run.1140.jpg" arWidth="1024" arHeight="768" duration="0" songTitle="" songArtist="" songAlbum="" />
    <MediaItem id="1142" filePath="F:\CSCI-4809\maya\projects\default\images\home_run.1141.jpg" arWidth="1024" arHeight="768" duration="0" songTitle="" songArtist="" songAlbum="" />
    <MediaItem id="1143" filePath="F:\CSCI-4809\maya\projects\default\images\home_run.1142.jpg" arWidth="1024" arHeight="768" duration="0" songTitle="" songArtist="" songAlbum="" />
    <MediaItem id="1144" filePath="F:\CSCI-4809\maya\projects\default\images\home_run.1143.jpg" arWidth="1024" arHeight="768" duration="0" songTitle="" songArtist="" songAlbum="" />
    <MediaItem id="1145" filePath="F:\CSCI-4809\maya\projects\default\images\home_run.1144.jpg" arWidth="1024" arHeight="768" duration="0" songTitle="" songArtist="" songAlbum="" />
    <MediaItem id="1146" filePath="F:\CSCI-4809\maya\projects\default\images\home_run.1145.jpg" arWidth="1024" arHeight="768" duration="0" songTitle="" songArtist="" songAlbum="" />
    <MediaItem id="1147" filePath="F:\CSCI-4809\maya\projects\default\images\home_run.1146.jpg" arWidth="1024" arHeight="768" duration="0" songTitle="" songArtist="" songAlbum="" />
    <MediaItem id="1148" filePath="F:\CSCI-4809\maya\projects\default\images\home_run.1147.jpg" arWidth="1024" arHeight="768" duration="0" songTitle="" songArtist="" songAlbum="" />
    <MediaItem id="1149" filePath="F:\CSCI-4809\maya\projects\default\images\home_run.1148.jpg" arWidth="1024" arHeight="768" duration="0" songTitle="" songArtist="" songAlbum="" />
    <MediaItem id="1150" filePath="F:\CSCI-4809\maya\projects\default\images\home_run.1149.jpg" arWidth="1024" arHeight="768" duration="0" songTitle="" songArtist="" songAlbum="" />
    <MediaItem id="1151" filePath="F:\CSCI-4809\maya\projects\default\images\home_run.1150.jpg" arWidth="1024" arHeight="768" duration="0" songTitle="" songArtist="" songAlbum="" />
    <MediaItem id="1152" filePath="F:\CSCI-4809\maya\projects\default\images\home_run.1151.jpg" arWidth="1024" arHeight="768" duration="0" songTitle="" songArtist="" songAlbum="" />
    <MediaItem id="1153" filePath="F:\CSCI-4809\maya\projects\default\images\home_run.1152.jpg" arWidth="1024" arHeight="768" duration="0" songTitle="" songArtist="" songAlbum="" />
    <MediaItem id="1154" filePath="F:\CSCI-4809\maya\projects\default\images\home_run.1153.jpg" arWidth="1024" arHeight="768" duration="0" songTitle="" songArtist="" songAlbum="" />
    <MediaItem id="1155" filePath="F:\CSCI-4809\maya\projects\default\images\home_run.1154.jpg" arWidth="1024" arHeight="768" duration="0" songTitle="" songArtist="" songAlbum="" />
    <MediaItem id="1156" filePath="F:\CSCI-4809\maya\projects\default\images\home_run.1155.jpg" arWidth="1024" arHeight="768" duration="0" songTitle="" songArtist="" songAlbum="" />
    <MediaItem id="1157" filePath="F:\CSCI-4809\maya\projects\default\images\home_run.1156.jpg" arWidth="1024" arHeight="768" duration="0" songTitle="" songArtist="" songAlbum="" />
    <MediaItem id="1158" filePath="F:\CSCI-4809\maya\projects\default\images\home_run.1157.jpg" arWidth="1024" arHeight="768" duration="0" songTitle="" songArtist="" songAlbum="" />
    <MediaItem id="1159" filePath="F:\CSCI-4809\maya\projects\default\images\home_run.1158.jpg" arWidth="1024" arHeight="768" duration="0" songTitle="" songArtist="" songAlbum="" />
    <MediaItem id="1160" filePath="F:\CSCI-4809\maya\projects\default\images\home_run.1159.jpg" arWidth="1024" arHeight="768" duration="0" songTitle="" songArtist="" songAlbum="" />
    <MediaItem id="1161" filePath="F:\CSCI-4809\maya\projects\default\images\home_run.1160.jpg" arWidth="1024" arHeight="768" duration="0" songTitle="" songArtist="" songAlbum="" />
    <MediaItem id="1162" filePath="F:\CSCI-4809\maya\projects\default\images\home_run.1161.jpg" arWidth="1024" arHeight="768" duration="0" songTitle="" songArtist="" songAlbum="" />
    <MediaItem id="1163" filePath="F:\CSCI-4809\maya\projects\default\images\home_run.1162.jpg" arWidth="1024" arHeight="768" duration="0" songTitle="" songArtist="" songAlbum="" />
    <MediaItem id="1164" filePath="F:\CSCI-4809\maya\projects\default\images\home_run.1163.jpg" arWidth="1024" arHeight="768" duration="0" songTitle="" songArtist="" songAlbum="" />
    <MediaItem id="1165" filePath="F:\CSCI-4809\maya\projects\default\images\home_run.1164.jpg" arWidth="1024" arHeight="768" duration="0" songTitle="" songArtist="" songAlbum="" />
    <MediaItem id="1166" filePath="F:\CSCI-4809\maya\projects\default\images\home_run.1165.jpg" arWidth="1024" arHeight="768" duration="0" songTitle="" songArtist="" songAlbum="" />
    <MediaItem id="1167" filePath="F:\CSCI-4809\maya\projects\default\images\home_run.1166.jpg" arWidth="1024" arHeight="768" duration="0" songTitle="" songArtist="" songAlbum="" />
    <MediaItem id="1168" filePath="F:\CSCI-4809\maya\projects\default\images\home_run.1167.jpg" arWidth="1024" arHeight="768" duration="0" songTitle="" songArtist="" songAlbum="" />
    <MediaItem id="1169" filePath="F:\CSCI-4809\maya\projects\default\images\home_run.1168.jpg" arWidth="1024" arHeight="768" duration="0" songTitle="" songArtist="" songAlbum="" />
    <MediaItem id="1170" filePath="F:\CSCI-4809\maya\projects\default\images\home_run.1169.jpg" arWidth="1024" arHeight="768" duration="0" songTitle="" songArtist="" songAlbum="" />
    <MediaItem id="1171" filePath="F:\CSCI-4809\maya\projects\default\images\home_run.1170.jpg" arWidth="1024" arHeight="768" duration="0" songTitle="" songArtist="" songAlbum="" />
    <MediaItem id="1172" filePath="F:\CSCI-4809\maya\projects\default\images\home_run.1171.jpg" arWidth="1024" arHeight="768" duration="0" songTitle="" songArtist="" songAlbum="" />
    <MediaItem id="1173" filePath="F:\CSCI-4809\maya\projects\default\images\home_run.1172.jpg" arWidth="1024" arHeight="768" duration="0" songTitle="" songArtist="" songAlbum="" />
    <MediaItem id="1174" filePath="F:\CSCI-4809\maya\projects\default\images\home_run.1173.jpg" arWidth="1024" arHeight="768" duration="0" songTitle="" songArtist="" songAlbum="" />
    <MediaItem id="1175" filePath="F:\CSCI-4809\maya\projects\default\images\home_run.1174.jpg" arWidth="1024" arHeight="768" duration="0" songTitle="" songArtist="" songAlbum="" />
    <MediaItem id="1176" filePath="F:\CSCI-4809\maya\projects\default\images\home_run.1175.jpg" arWidth="1024" arHeight="768" duration="0" songTitle="" songArtist="" songAlbum="" />
    <MediaItem id="1177" filePath="F:\CSCI-4809\maya\projects\default\images\home_run.1176.jpg" arWidth="1024" arHeight="768" duration="0" songTitle="" songArtist="" songAlbum="" />
    <MediaItem id="1178" filePath="F:\CSCI-4809\maya\projects\default\images\home_run.1177.jpg" arWidth="1024" arHeight="768" duration="0" songTitle="" songArtist="" songAlbum="" />
    <MediaItem id="1179" filePath="F:\CSCI-4809\maya\projects\default\images\home_run.1178.jpg" arWidth="1024" arHeight="768" duration="0" songTitle="" songArtist="" songAlbum="" />
    <MediaItem id="1180" filePath="F:\CSCI-4809\maya\projects\default\images\home_run.1179.jpg" arWidth="1024" arHeight="768" duration="0" songTitle="" songArtist="" songAlbum="" />
    <MediaItem id="1181" filePath="F:\CSCI-4809\maya\projects\default\images\home_run.1180.jpg" arWidth="1024" arHeight="768" duration="0" songTitle="" songArtist="" songAlbum="" />
    <MediaItem id="1182" filePath="F:\CSCI-4809\maya\projects\default\images\home_run.1181.jpg" arWidth="1024" arHeight="768" duration="0" songTitle="" songArtist="" songAlbum="" />
    <MediaItem id="1183" filePath="F:\CSCI-4809\maya\projects\default\images\home_run.1182.jpg" arWidth="1024" arHeight="768" duration="0" songTitle="" songArtist="" songAlbum="" />
    <MediaItem id="1184" filePath="F:\CSCI-4809\maya\projects\default\images\home_run.1183.jpg" arWidth="1024" arHeight="768" duration="0" songTitle="" songArtist="" songAlbum="" />
    <MediaItem id="1185" filePath="F:\CSCI-4809\maya\projects\default\images\home_run.1184.jpg" arWidth="1024" arHeight="768" duration="0" songTitle="" songArtist="" songAlbum="" />
    <MediaItem id="1186" filePath="F:\CSCI-4809\maya\projects\default\images\home_run.1185.jpg" arWidth="1024" arHeight="768" duration="0" songTitle="" songArtist="" songAlbum="" />
    <MediaItem id="1187" filePath="F:\CSCI-4809\maya\projects\default\images\home_run.1186.jpg" arWidth="1024" arHeight="768" duration="0" songTitle="" songArtist="" songAlbum="" />
    <MediaItem id="1188" filePath="F:\CSCI-4809\maya\projects\default\images\home_run.1187.jpg" arWidth="1024" arHeight="768" duration="0" songTitle="" songArtist="" songAlbum="" />
    <MediaItem id="1189" filePath="F:\CSCI-4809\maya\projects\default\images\home_run.1188.jpg" arWidth="1024" arHeight="768" duration="0" songTitle="" songArtist="" songAlbum="" />
    <MediaItem id="1190" filePath="F:\CSCI-4809\maya\projects\default\images\home_run.1189.jpg" arWidth="1024" arHeight="768" duration="0" songTitle="" songArtist="" songAlbum="" />
    <MediaItem id="1191" filePath="F:\CSCI-4809\maya\projects\default\images\home_run.1190.jpg" arWidth="1024" arHeight="768" duration="0" songTitle="" songArtist="" songAlbum="" />
    <MediaItem id="1192" filePath="F:\CSCI-4809\maya\projects\default\images\home_run.1191.jpg" arWidth="1024" arHeight="768" duration="0" songTitle="" songArtist="" songAlbum="" />
    <MediaItem id="1193" filePath="F:\CSCI-4809\maya\projects\default\images\home_run.1192.jpg" arWidth="1024" arHeight="768" duration="0" songTitle="" songArtist="" songAlbum="" />
    <MediaItem id="1194" filePath="F:\CSCI-4809\maya\projects\default\images\home_run.1193.jpg" arWidth="1024" arHeight="768" duration="0" songTitle="" songArtist="" songAlbum="" />
    <MediaItem id="1195" filePath="F:\CSCI-4809\maya\projects\default\images\home_run.1194.jpg" arWidth="1024" arHeight="768" duration="0" songTitle="" songArtist="" songAlbum="" />
    <MediaItem id="1196" filePath="F:\CSCI-4809\maya\projects\default\images\home_run.1195.jpg" arWidth="1024" arHeight="768" duration="0" songTitle="" songArtist="" songAlbum="" />
    <MediaItem id="1197" filePath="F:\CSCI-4809\maya\projects\default\images\home_run.1196.jpg" arWidth="1024" arHeight="768" duration="0" songTitle="" songArtist="" songAlbum="" />
    <MediaItem id="1198" filePath="F:\CSCI-4809\maya\projects\default\images\home_run.1197.jpg" arWidth="1024" arHeight="768" duration="0" songTitle="" songArtist="" songAlbum="" />
    <MediaItem id="1199" filePath="F:\CSCI-4809\maya\projects\default\images\home_run.1198.jpg" arWidth="1024" arHeight="768" duration="0" songTitle="" songArtist="" songAlbum="" />
    <MediaItem id="1200" filePath="F:\CSCI-4809\maya\projects\default\images\home_run.1199.jpg" arWidth="1024" arHeight="768" duration="0" songTitle="" songArtist="" songAlbum="" />
    <MediaItem id="1201" filePath="F:\CSCI-4809\maya\projects\default\images\home_run.1200.jpg" arWidth="1024" arHeight="768" duration="0" songTitle="" songArtist="" songAlbum="" />
    <MediaItem id="1202" filePath="F:\CSCI-4809\maya\projects\default\images\home_run.1201.jpg" arWidth="1024" arHeight="768" duration="0" songTitle="" songArtist="" songAlbum="" />
    <MediaItem id="1203" filePath="F:\CSCI-4809\maya\projects\default\images\home_run.1202.jpg" arWidth="1024" arHeight="768" duration="0" songTitle="" songArtist="" songAlbum="" />
    <MediaItem id="1204" filePath="F:\CSCI-4809\maya\projects\default\images\home_run.1203.jpg" arWidth="1024" arHeight="768" duration="0" songTitle="" songArtist="" songAlbum="" />
    <MediaItem id="1205" filePath="F:\CSCI-4809\maya\projects\default\images\home_run.1204.jpg" arWidth="1024" arHeight="768" duration="0" songTitle="" songArtist="" songAlbum="" />
    <MediaItem id="1206" filePath="F:\CSCI-4809\maya\projects\default\images\home_run.1205.jpg" arWidth="1024" arHeight="768" duration="0" songTitle="" songArtist="" songAlbum="" />
    <MediaItem id="1207" filePath="F:\CSCI-4809\maya\projects\default\images\home_run.1206.jpg" arWidth="1024" arHeight="768" duration="0" songTitle="" songArtist="" songAlbum="" />
    <MediaItem id="1208" filePath="F:\CSCI-4809\maya\projects\default\images\home_run.1207.jpg" arWidth="1024" arHeight="768" duration="0" songTitle="" songArtist="" songAlbum="" />
    <MediaItem id="1209" filePath="F:\CSCI-4809\maya\projects\default\images\home_run.1208.jpg" arWidth="1024" arHeight="768" duration="0" songTitle="" songArtist="" songAlbum="" />
    <MediaItem id="1210" filePath="F:\CSCI-4809\maya\projects\default\images\home_run.1209.jpg" arWidth="1024" arHeight="768" duration="0" songTitle="" songArtist="" songAlbum="" />
    <MediaItem id="1211" filePath="F:\CSCI-4809\maya\projects\default\images\home_run.1210.jpg" arWidth="1024" arHeight="768" duration="0" songTitle="" songArtist="" songAlbum="" />
    <MediaItem id="1212" filePath="F:\CSCI-4809\maya\projects\default\images\home_run.1211.jpg" arWidth="1024" arHeight="768" duration="0" songTitle="" songArtist="" songAlbum="" />
    <MediaItem id="1213" filePath="F:\CSCI-4809\maya\projects\default\images\home_run.1212.jpg" arWidth="1024" arHeight="768" duration="0" songTitle="" songArtist="" songAlbum="" />
    <MediaItem id="1214" filePath="F:\CSCI-4809\maya\projects\default\images\home_run.1213.jpg" arWidth="1024" arHeight="768" duration="0" songTitle="" songArtist="" songAlbum="" />
    <MediaItem id="1215" filePath="F:\CSCI-4809\maya\projects\default\images\home_run.1214.jpg" arWidth="1024" arHeight="768" duration="0" songTitle="" songArtist="" songAlbum="" />
    <MediaItem id="1216" filePath="F:\CSCI-4809\maya\projects\default\images\home_run.1215.jpg" arWidth="1024" arHeight="768" duration="0" songTitle="" songArtist="" songAlbum="" />
    <MediaItem id="1217" filePath="F:\CSCI-4809\maya\projects\default\images\home_run.1216.jpg" arWidth="1024" arHeight="768" duration="0" songTitle="" songArtist="" songAlbum="" />
    <MediaItem id="1218" filePath="F:\CSCI-4809\maya\projects\default\images\home_run.1217.jpg" arWidth="1024" arHeight="768" duration="0" songTitle="" songArtist="" songAlbum="" />
    <MediaItem id="1219" filePath="F:\CSCI-4809\maya\projects\default\images\home_run.1218.jpg" arWidth="1024" arHeight="768" duration="0" songTitle="" songArtist="" songAlbum="" />
    <MediaItem id="1220" filePath="F:\CSCI-4809\maya\projects\default\images\home_run.1219.jpg" arWidth="1024" arHeight="768" duration="0" songTitle="" songArtist="" songAlbum="" />
    <MediaItem id="1221" filePath="F:\CSCI-4809\maya\projects\default\images\home_run.1220.jpg" arWidth="1024" arHeight="768" duration="0" songTitle="" songArtist="" songAlbum="" />
    <MediaItem id="1222" filePath="F:\CSCI-4809\maya\projects\default\images\home_run.1221.jpg" arWidth="1024" arHeight="768" duration="0" songTitle="" songArtist="" songAlbum="" />
    <MediaItem id="1223" filePath="F:\CSCI-4809\maya\projects\default\images\home_run.1222.jpg" arWidth="1024" arHeight="768" duration="0" songTitle="" songArtist="" songAlbum="" />
    <MediaItem id="1224" filePath="F:\CSCI-4809\maya\projects\default\images\home_run.1223.jpg" arWidth="1024" arHeight="768" duration="0" songTitle="" songArtist="" songAlbum="" />
    <MediaItem id="1225" filePath="F:\CSCI-4809\maya\projects\default\images\home_run.1224.jpg" arWidth="1024" arHeight="768" duration="0" songTitle="" songArtist="" songAlbum="" />
    <MediaItem id="1226" filePath="F:\CSCI-4809\maya\projects\default\images\home_run.1225.jpg" arWidth="1024" arHeight="768" duration="0" songTitle="" songArtist="" songAlbum="" />
    <MediaItem id="1227" filePath="F:\CSCI-4809\maya\projects\default\images\home_run.1226.jpg" arWidth="1024" arHeight="768" duration="0" songTitle="" songArtist="" songAlbum="" />
    <MediaItem id="1228" filePath="F:\CSCI-4809\maya\projects\default\images\home_run.1227.jpg" arWidth="1024" arHeight="768" duration="0" songTitle="" songArtist="" songAlbum="" />
    <MediaItem id="1229" filePath="F:\CSCI-4809\maya\projects\default\images\home_run.1228.jpg" arWidth="1024" arHeight="768" duration="0" songTitle="" songArtist="" songAlbum="" />
    <MediaItem id="1230" filePath="F:\CSCI-4809\maya\projects\default\images\home_run.1229.jpg" arWidth="1024" arHeight="768" duration="0" songTitle="" songArtist="" songAlbum="" />
    <MediaItem id="1231" filePath="F:\CSCI-4809\maya\projects\default\images\home_run.1230.jpg" arWidth="1024" arHeight="768" duration="0" songTitle="" songArtist="" songAlbum="" />
    <MediaItem id="1232" filePath="F:\CSCI-4809\maya\projects\default\images\home_run.1231.jpg" arWidth="1024" arHeight="768" duration="0" songTitle="" songArtist="" songAlbum="" />
    <MediaItem id="1233" filePath="F:\CSCI-4809\maya\projects\default\images\home_run.1232.jpg" arWidth="1024" arHeight="768" duration="0" songTitle="" songArtist="" songAlbum="" />
    <MediaItem id="1234" filePath="F:\CSCI-4809\maya\projects\default\images\home_run.1233.jpg" arWidth="1024" arHeight="768" duration="0" songTitle="" songArtist="" songAlbum="" />
    <MediaItem id="1235" filePath="F:\CSCI-4809\maya\projects\default\images\home_run.1234.jpg" arWidth="1024" arHeight="768" duration="0" songTitle="" songArtist="" songAlbum="" />
    <MediaItem id="1236" filePath="F:\CSCI-4809\maya\projects\default\images\home_run.1235.jpg" arWidth="1024" arHeight="768" duration="0" songTitle="" songArtist="" songAlbum="" />
    <MediaItem id="1237" filePath="F:\CSCI-4809\maya\projects\default\images\home_run.1236.jpg" arWidth="1024" arHeight="768" duration="0" songTitle="" songArtist="" songAlbum="" />
    <MediaItem id="1238" filePath="F:\CSCI-4809\maya\projects\default\images\home_run.1237.jpg" arWidth="1024" arHeight="768" duration="0" songTitle="" songArtist="" songAlbum="" />
    <MediaItem id="1239" filePath="F:\CSCI-4809\maya\projects\default\images\home_run.1238.jpg" arWidth="1024" arHeight="768" duration="0" songTitle="" songArtist="" songAlbum="" />
    <MediaItem id="1240" filePath="F:\CSCI-4809\maya\projects\default\images\home_run.1239.jpg" arWidth="1024" arHeight="768" duration="0" songTitle="" songArtist="" songAlbum="" />
    <MediaItem id="1241" filePath="F:\CSCI-4809\maya\projects\default\images\home_run.1240.jpg" arWidth="1024" arHeight="768" duration="0" songTitle="" songArtist="" songAlbum="" />
    <MediaItem id="1242" filePath="F:\CSCI-4809\maya\projects\default\images\home_run.1241.jpg" arWidth="1024" arHeight="768" duration="0" songTitle="" songArtist="" songAlbum="" />
    <MediaItem id="1243" filePath="F:\CSCI-4809\maya\projects\default\images\home_run.1242.jpg" arWidth="1024" arHeight="768" duration="0" songTitle="" songArtist="" songAlbum="" />
    <MediaItem id="1244" filePath="F:\CSCI-4809\maya\projects\default\images\home_run.1243.jpg" arWidth="1024" arHeight="768" duration="0" songTitle="" songArtist="" songAlbum="" />
    <MediaItem id="1245" filePath="F:\CSCI-4809\maya\projects\default\images\home_run.1244.jpg" arWidth="1024" arHeight="768" duration="0" songTitle="" songArtist="" songAlbum="" />
    <MediaItem id="1246" filePath="F:\CSCI-4809\maya\projects\default\images\home_run.1245.jpg" arWidth="1024" arHeight="768" duration="0" songTitle="" songArtist="" songAlbum="" />
    <MediaItem id="1247" filePath="F:\CSCI-4809\maya\projects\default\images\home_run.1246.jpg" arWidth="1024" arHeight="768" duration="0" songTitle="" songArtist="" songAlbum="" />
    <MediaItem id="1248" filePath="F:\CSCI-4809\maya\projects\default\images\home_run.1247.jpg" arWidth="1024" arHeight="768" duration="0" songTitle="" songArtist="" songAlbum="" />
    <MediaItem id="1249" filePath="F:\CSCI-4809\maya\projects\default\images\home_run.1248.jpg" arWidth="1024" arHeight="768" duration="0" songTitle="" songArtist="" songAlbum="" />
    <MediaItem id="1250" filePath="F:\CSCI-4809\maya\projects\default\images\home_run.1249.jpg" arWidth="1024" arHeight="768" duration="0" songTitle="" songArtist="" songAlbum="" />
    <MediaItem id="1251" filePath="F:\CSCI-4809\maya\projects\default\images\home_run.1250.jpg" arWidth="1024" arHeight="768" duration="0" songTitle="" songArtist="" songAlbum="" />
    <MediaItem id="1252" filePath="F:\CSCI-4809\maya\projects\default\images\home_run.1251.jpg" arWidth="1024" arHeight="768" duration="0" songTitle="" songArtist="" songAlbum="" />
    <MediaItem id="1253" filePath="F:\CSCI-4809\maya\projects\default\images\home_run.1252.jpg" arWidth="1024" arHeight="768" duration="0" songTitle="" songArtist="" songAlbum="" />
    <MediaItem id="1254" filePath="F:\CSCI-4809\maya\projects\default\images\home_run.1253.jpg" arWidth="1024" arHeight="768" duration="0" songTitle="" songArtist="" songAlbum="" />
    <MediaItem id="1255" filePath="F:\CSCI-4809\maya\projects\default\images\home_run.1254.jpg" arWidth="1024" arHeight="768" duration="0" songTitle="" songArtist="" songAlbum="" />
    <MediaItem id="1256" filePath="F:\CSCI-4809\maya\projects\default\images\home_run.1255.jpg" arWidth="1024" arHeight="768" duration="0" songTitle="" songArtist="" songAlbum="" />
    <MediaItem id="1257" filePath="F:\CSCI-4809\maya\projects\default\images\home_run.1256.jpg" arWidth="1024" arHeight="768" duration="0" songTitle="" songArtist="" songAlbum="" />
    <MediaItem id="1258" filePath="F:\CSCI-4809\maya\projects\default\images\home_run.1257.jpg" arWidth="1024" arHeight="768" duration="0" songTitle="" songArtist="" songAlbum="" />
    <MediaItem id="1259" filePath="F:\CSCI-4809\maya\projects\default\images\home_run.1258.jpg" arWidth="1024" arHeight="768" duration="0" songTitle="" songArtist="" songAlbum="" />
    <MediaItem id="1260" filePath="F:\CSCI-4809\maya\projects\default\images\home_run.1259.jpg" arWidth="1024" arHeight="768" duration="0" songTitle="" songArtist="" songAlbum="" />
    <MediaItem id="1261" filePath="F:\CSCI-4809\maya\projects\default\images\home_run.1260.jpg" arWidth="1024" arHeight="768" duration="0" songTitle="" songArtist="" songAlbum="" />
    <MediaItem id="1262" filePath="F:\CSCI-4809\maya\projects\default\images\home_run.1261.jpg" arWidth="1024" arHeight="768" duration="0" songTitle="" songArtist="" songAlbum="" />
    <MediaItem id="1263" filePath="F:\CSCI-4809\maya\projects\default\images\home_run.1262.jpg" arWidth="1024" arHeight="768" duration="0" songTitle="" songArtist="" songAlbum="" />
    <MediaItem id="1264" filePath="F:\CSCI-4809\maya\projects\default\images\home_run.1263.jpg" arWidth="1024" arHeight="768" duration="0" songTitle="" songArtist="" songAlbum="" />
    <MediaItem id="1265" filePath="F:\CSCI-4809\maya\projects\default\images\home_run.1264.jpg" arWidth="1024" arHeight="768" duration="0" songTitle="" songArtist="" songAlbum="" />
    <MediaItem id="1266" filePath="F:\CSCI-4809\maya\projects\default\images\home_run.1265.jpg" arWidth="1024" arHeight="768" duration="0" songTitle="" songArtist="" songAlbum="" />
    <MediaItem id="1267" filePath="F:\CSCI-4809\maya\projects\default\images\home_run.1266.jpg" arWidth="1024" arHeight="768" duration="0" songTitle="" songArtist="" songAlbum="" />
    <MediaItem id="1268" filePath="F:\CSCI-4809\maya\projects\default\images\home_run.1267.jpg" arWidth="1024" arHeight="768" duration="0" songTitle="" songArtist="" songAlbum="" />
    <MediaItem id="1269" filePath="F:\CSCI-4809\maya\projects\default\images\home_run.1268.jpg" arWidth="1024" arHeight="768" duration="0" songTitle="" songArtist="" songAlbum="" />
    <MediaItem id="1270" filePath="F:\CSCI-4809\maya\projects\default\images\home_run.1269.jpg" arWidth="1024" arHeight="768" duration="0" songTitle="" songArtist="" songAlbum="" />
    <MediaItem id="1271" filePath="F:\CSCI-4809\maya\projects\default\images\home_run.1270.jpg" arWidth="1024" arHeight="768" duration="0" songTitle="" songArtist="" songAlbum="" />
    <MediaItem id="1272" filePath="F:\CSCI-4809\maya\projects\default\images\home_run.1271.jpg" arWidth="1024" arHeight="768" duration="0" songTitle="" songArtist="" songAlbum="" />
    <MediaItem id="1273" filePath="F:\CSCI-4809\maya\projects\default\images\home_run.1272.jpg" arWidth="1024" arHeight="768" duration="0" songTitle="" songArtist="" songAlbum="" />
    <MediaItem id="1274" filePath="F:\CSCI-4809\maya\projects\default\images\home_run.1273.jpg" arWidth="1024" arHeight="768" duration="0" songTitle="" songArtist="" songAlbum="" />
    <MediaItem id="1275" filePath="F:\CSCI-4809\maya\projects\default\images\home_run.1274.jpg" arWidth="1024" arHeight="768" duration="0" songTitle="" songArtist="" songAlbum="" />
    <MediaItem id="1276" filePath="F:\CSCI-4809\maya\projects\default\images\home_run.1275.jpg" arWidth="1024" arHeight="768" duration="0" songTitle="" songArtist="" songAlbum="" />
    <MediaItem id="1277" filePath="F:\CSCI-4809\maya\projects\default\images\home_run.1276.jpg" arWidth="1024" arHeight="768" duration="0" songTitle="" songArtist="" songAlbum="" />
    <MediaItem id="1278" filePath="F:\CSCI-4809\maya\projects\default\images\home_run.1277.jpg" arWidth="1024" arHeight="768" duration="0" songTitle="" songArtist="" songAlbum="" />
    <MediaItem id="1279" filePath="F:\CSCI-4809\maya\projects\default\images\home_run.1278.jpg" arWidth="1024" arHeight="768" duration="0" songTitle="" songArtist="" songAlbum="" />
    <MediaItem id="1280" filePath="F:\CSCI-4809\maya\projects\default\images\home_run.1279.jpg" arWidth="1024" arHeight="768" duration="0" songTitle="" songArtist="" songAlbum="" />
    <MediaItem id="1281" filePath="F:\CSCI-4809\maya\projects\default\images\home_run.1280.jpg" arWidth="1024" arHeight="768" duration="0" songTitle="" songArtist="" songAlbum="" />
    <MediaItem id="1282" filePath="F:\CSCI-4809\maya\projects\default\images\home_run.1281.jpg" arWidth="1024" arHeight="768" duration="0" songTitle="" songArtist="" songAlbum="" />
    <MediaItem id="1283" filePath="F:\CSCI-4809\maya\projects\default\images\home_run.1282.jpg" arWidth="1024" arHeight="768" duration="0" songTitle="" songArtist="" songAlbum="" />
    <MediaItem id="1284" filePath="F:\CSCI-4809\maya\projects\default\images\home_run.1283.jpg" arWidth="1024" arHeight="768" duration="0" songTitle="" songArtist="" songAlbum="" />
    <MediaItem id="1285" filePath="F:\CSCI-4809\maya\projects\default\images\home_run.1284.jpg" arWidth="1024" arHeight="768" duration="0" songTitle="" songArtist="" songAlbum="" />
    <MediaItem id="1286" filePath="F:\CSCI-4809\maya\projects\default\images\home_run.1285.jpg" arWidth="1024" arHeight="768" duration="0" songTitle="" songArtist="" songAlbum="" />
    <MediaItem id="1287" filePath="F:\CSCI-4809\maya\projects\default\images\home_run.1286.jpg" arWidth="1024" arHeight="768" duration="0" songTitle="" songArtist="" songAlbum="" />
    <MediaItem id="1288" filePath="F:\CSCI-4809\maya\projects\default\images\home_run.1287.jpg" arWidth="1024" arHeight="768" duration="0" songTitle="" songArtist="" songAlbum="" />
    <MediaItem id="1289" filePath="F:\CSCI-4809\maya\projects\default\images\home_run.1288.jpg" arWidth="1024" arHeight="768" duration="0" songTitle="" songArtist="" songAlbum="" />
    <MediaItem id="1290" filePath="F:\CSCI-4809\maya\projects\default\images\home_run.1289.jpg" arWidth="1024" arHeight="768" duration="0" songTitle="" songArtist="" songAlbum="" />
    <MediaItem id="1291" filePath="F:\CSCI-4809\maya\projects\default\images\home_run.1290.jpg" arWidth="1024" arHeight="768" duration="0" songTitle="" songArtist="" songAlbum="" />
    <MediaItem id="1292" filePath="F:\CSCI-4809\maya\projects\default\images\home_run.1291.jpg" arWidth="1024" arHeight="768" duration="0" songTitle="" songArtist="" songAlbum="" />
    <MediaItem id="1293" filePath="F:\CSCI-4809\maya\projects\default\images\home_run.1292.jpg" arWidth="1024" arHeight="768" duration="0" songTitle="" songArtist="" songAlbum="" />
    <MediaItem id="1294" filePath="F:\CSCI-4809\maya\projects\default\images\home_run.1293.jpg" arWidth="1024" arHeight="768" duration="0" songTitle="" songArtist="" songAlbum="" />
    <MediaItem id="1295" filePath="F:\CSCI-4809\maya\projects\default\images\home_run.1294.jpg" arWidth="1024" arHeight="768" duration="0" songTitle="" songArtist="" songAlbum="" />
    <MediaItem id="1296" filePath="F:\CSCI-4809\maya\projects\default\images\home_run.1295.jpg" arWidth="1024" arHeight="768" duration="0" songTitle="" songArtist="" songAlbum="" />
    <MediaItem id="1297" filePath="F:\CSCI-4809\maya\projects\default\images\home_run.1296.jpg" arWidth="1024" arHeight="768" duration="0" songTitle="" songArtist="" songAlbum="" />
    <MediaItem id="1298" filePath="F:\CSCI-4809\maya\projects\default\images\home_run.1297.jpg" arWidth="1024" arHeight="768" duration="0" songTitle="" songArtist="" songAlbum="" />
    <MediaItem id="1299" filePath="F:\CSCI-4809\maya\projects\default\images\home_run.1298.jpg" arWidth="1024" arHeight="768" duration="0" songTitle="" songArtist="" songAlbum="" />
    <MediaItem id="1300" filePath="F:\CSCI-4809\maya\projects\default\images\home_run.1299.jpg" arWidth="1024" arHeight="768" duration="0" songTitle="" songArtist="" songAlbum="" />
    <MediaItem id="1301" filePath="F:\CSCI-4809\maya\projects\default\images\home_run.1300.jpg" arWidth="1024" arHeight="768" duration="0" songTitle="" songArtist="" songAlbum="" />
    <MediaItem id="1302" filePath="F:\CSCI-4809\maya\projects\default\images\home_run.1301.jpg" arWidth="1024" arHeight="768" duration="0" songTitle="" songArtist="" songAlbum="" />
    <MediaItem id="1303" filePath="F:\CSCI-4809\maya\projects\default\images\home_run.1302.jpg" arWidth="1024" arHeight="768" duration="0" songTitle="" songArtist="" songAlbum="" />
    <MediaItem id="1304" filePath="F:\CSCI-4809\maya\projects\default\images\home_run.1303.jpg" arWidth="1024" arHeight="768" duration="0" songTitle="" songArtist="" songAlbum="" />
    <MediaItem id="1305" filePath="F:\CSCI-4809\maya\projects\default\images\home_run.1304.jpg" arWidth="1024" arHeight="768" duration="0" songTitle="" songArtist="" songAlbum="" />
    <MediaItem id="1306" filePath="F:\CSCI-4809\maya\projects\default\images\home_run.1305.jpg" arWidth="1024" arHeight="768" duration="0" songTitle="" songArtist="" songAlbum="" />
    <MediaItem id="1307" filePath="F:\CSCI-4809\maya\projects\default\images\home_run.1306.jpg" arWidth="1024" arHeight="768" duration="0" songTitle="" songArtist="" songAlbum="" />
    <MediaItem id="1308" filePath="F:\CSCI-4809\maya\projects\default\images\home_run.1307.jpg" arWidth="1024" arHeight="768" duration="0" songTitle="" songArtist="" songAlbum="" />
    <MediaItem id="1309" filePath="F:\CSCI-4809\maya\projects\default\images\home_run.1308.jpg" arWidth="1024" arHeight="768" duration="0" songTitle="" songArtist="" songAlbum="" />
    <MediaItem id="1310" filePath="F:\CSCI-4809\maya\projects\default\images\home_run.1309.jpg" arWidth="1024" arHeight="768" duration="0" songTitle="" songArtist="" songAlbum="" />
    <MediaItem id="1311" filePath="F:\CSCI-4809\maya\projects\default\images\home_run.1310.jpg" arWidth="1024" arHeight="768" duration="0" songTitle="" songArtist="" songAlbum="" />
    <MediaItem id="1312" filePath="F:\CSCI-4809\maya\projects\default\images\home_run.1311.jpg" arWidth="1024" arHeight="768" duration="0" songTitle="" songArtist="" songAlbum="" />
    <MediaItem id="1313" filePath="F:\CSCI-4809\maya\projects\default\images\home_run.1312.jpg" arWidth="1024" arHeight="768" duration="0" songTitle="" songArtist="" songAlbum="" />
    <MediaItem id="1314" filePath="F:\CSCI-4809\maya\projects\default\images\home_run.1313.jpg" arWidth="1024" arHeight="768" duration="0" songTitle="" songArtist="" songAlbum="" />
    <MediaItem id="1315" filePath="F:\CSCI-4809\maya\projects\default\images\home_run.1314.jpg" arWidth="1024" arHeight="768" duration="0" songTitle="" songArtist="" songAlbum="" />
    <MediaItem id="1316" filePath="F:\CSCI-4809\maya\projects\default\images\home_run.1315.jpg" arWidth="1024" arHeight="768" duration="0" songTitle="" songArtist="" songAlbum="" />
    <MediaItem id="1317" filePath="F:\CSCI-4809\maya\projects\default\images\home_run.1316.jpg" arWidth="1024" arHeight="768" duration="0" songTitle="" songArtist="" songAlbum="" />
    <MediaItem id="1318" filePath="F:\CSCI-4809\maya\projects\default\images\home_run.1317.jpg" arWidth="1024" arHeight="768" duration="0" songTitle="" songArtist="" songAlbum="" />
    <MediaItem id="1319" filePath="F:\CSCI-4809\maya\projects\default\images\home_run.1318.jpg" arWidth="1024" arHeight="768" duration="0" songTitle="" songArtist="" songAlbum="" />
    <MediaItem id="1320" filePath="F:\CSCI-4809\maya\projects\default\images\home_run.1319.jpg" arWidth="1024" arHeight="768" duration="0" songTitle="" songArtist="" songAlbum="" />
    <MediaItem id="1321" filePath="F:\CSCI-4809\maya\projects\default\images\home_run.1320.jpg" arWidth="1024" arHeight="768" duration="0" songTitle="" songArtist="" songAlbum="" />
    <MediaItem id="1322" filePath="F:\CSCI-4809\maya\projects\default\images\home_run.1321.jpg" arWidth="1024" arHeight="768" duration="0" songTitle="" songArtist="" songAlbum="" />
    <MediaItem id="1323" filePath="F:\CSCI-4809\maya\projects\default\images\home_run.1322.jpg" arWidth="1024" arHeight="768" duration="0" songTitle="" songArtist="" songAlbum="" />
    <MediaItem id="1324" filePath="F:\CSCI-4809\maya\projects\default\images\home_run.1323.jpg" arWidth="1024" arHeight="768" duration="0" songTitle="" songArtist="" songAlbum="" />
    <MediaItem id="1325" filePath="F:\CSCI-4809\maya\projects\default\images\home_run.1324.jpg" arWidth="1024" arHeight="768" duration="0" songTitle="" songArtist="" songAlbum="" />
    <MediaItem id="1326" filePath="F:\CSCI-4809\maya\projects\default\images\home_run.1325.jpg" arWidth="1024" arHeight="768" duration="0" songTitle="" songArtist="" songAlbum="" />
    <MediaItem id="1327" filePath="F:\CSCI-4809\maya\projects\default\images\home_run.1326.jpg" arWidth="1024" arHeight="768" duration="0" songTitle="" songArtist="" songAlbum="" />
    <MediaItem id="1328" filePath="F:\CSCI-4809\maya\projects\default\images\home_run.1327.jpg" arWidth="1024" arHeight="768" duration="0" songTitle="" songArtist="" songAlbum="" />
    <MediaItem id="1329" filePath="F:\CSCI-4809\maya\projects\default\images\home_run.1328.jpg" arWidth="1024" arHeight="768" duration="0" songTitle="" songArtist="" songAlbum="" />
    <MediaItem id="1330" filePath="F:\CSCI-4809\maya\projects\default\images\home_run.1329.jpg" arWidth="1024" arHeight="768" duration="0" songTitle="" songArtist="" songAlbum="" />
    <MediaItem id="1331" filePath="F:\CSCI-4809\maya\projects\default\images\home_run.1330.jpg" arWidth="1024" arHeight="768" duration="0" songTitle="" songArtist="" songAlbum="" />
    <MediaItem id="1332" filePath="F:\CSCI-4809\maya\projects\default\images\home_run.1331.jpg" arWidth="1024" arHeight="768" duration="0" songTitle="" songArtist="" songAlbum="" />
    <MediaItem id="1333" filePath="F:\CSCI-4809\maya\projects\default\images\home_run.1332.jpg" arWidth="1024" arHeight="768" duration="0" songTitle="" songArtist="" songAlbum="" />
    <MediaItem id="1334" filePath="F:\CSCI-4809\maya\projects\default\images\home_run.1333.jpg" arWidth="1024" arHeight="768" duration="0" songTitle="" songArtist="" songAlbum="" />
    <MediaItem id="1335" filePath="F:\CSCI-4809\maya\projects\default\images\home_run.1334.jpg" arWidth="1024" arHeight="768" duration="0" songTitle="" songArtist="" songAlbum="" />
    <MediaItem id="1336" filePath="F:\CSCI-4809\maya\projects\default\images\home_run.1335.jpg" arWidth="1024" arHeight="768" duration="0" songTitle="" songArtist="" songAlbum="" />
    <MediaItem id="1337" filePath="F:\CSCI-4809\maya\projects\default\images\home_run.1336.jpg" arWidth="1024" arHeight="768" duration="0" songTitle="" songArtist="" songAlbum="" />
    <MediaItem id="1338" filePath="F:\CSCI-4809\maya\projects\default\images\home_run.1337.jpg" arWidth="1024" arHeight="768" duration="0" songTitle="" songArtist="" songAlbum="" />
    <MediaItem id="1339" filePath="F:\CSCI-4809\maya\projects\default\images\home_run.1338.jpg" arWidth="1024" arHeight="768" duration="0" songTitle="" songArtist="" songAlbum="" />
    <MediaItem id="1340" filePath="F:\CSCI-4809\maya\projects\default\images\home_run.1339.jpg" arWidth="1024" arHeight="768" duration="0" songTitle="" songArtist="" songAlbum="" />
    <MediaItem id="1341" filePath="F:\CSCI-4809\maya\projects\default\images\home_run.1340.jpg" arWidth="1024" arHeight="768" duration="0" songTitle="" songArtist="" songAlbum="" />
    <MediaItem id="1342" filePath="F:\CSCI-4809\maya\projects\default\images\home_run.1341.jpg" arWidth="1024" arHeight="768" duration="0" songTitle="" songArtist="" songAlbum="" />
    <MediaItem id="1343" filePath="F:\CSCI-4809\maya\projects\default\images\home_run.1342.jpg" arWidth="1024" arHeight="768" duration="0" songTitle="" songArtist="" songAlbum="" />
    <MediaItem id="1344" filePath="F:\CSCI-4809\maya\projects\default\images\home_run.1343.jpg" arWidth="1024" arHeight="768" duration="0" songTitle="" songArtist="" songAlbum="" />
    <MediaItem id="1345" filePath="F:\CSCI-4809\maya\projects\default\images\home_run.1344.jpg" arWidth="1024" arHeight="768" duration="0" songTitle="" songArtist="" songAlbum="" />
    <MediaItem id="1346" filePath="F:\CSCI-4809\maya\projects\default\images\home_run.1345.jpg" arWidth="1024" arHeight="768" duration="0" songTitle="" songArtist="" songAlbum="" />
    <MediaItem id="1347" filePath="F:\CSCI-4809\maya\projects\default\images\home_run.1346.jpg" arWidth="1024" arHeight="768" duration="0" songTitle="" songArtist="" songAlbum="" />
    <MediaItem id="1348" filePath="F:\CSCI-4809\maya\projects\default\images\home_run.1347.jpg" arWidth="1024" arHeight="768" duration="0" songTitle="" songArtist="" songAlbum="" />
    <MediaItem id="1349" filePath="F:\CSCI-4809\maya\projects\default\images\home_run.1348.jpg" arWidth="1024" arHeight="768" duration="0" songTitle="" songArtist="" songAlbum="" />
    <MediaItem id="1350" filePath="F:\CSCI-4809\maya\projects\default\images\home_run.1349.jpg" arWidth="1024" arHeight="768" duration="0" songTitle="" songArtist="" songAlbum="" />
    <MediaItem id="1351" filePath="F:\CSCI-4809\maya\projects\default\images\home_run.1350.jpg" arWidth="1024" arHeight="768" duration="0" songTitle="" songArtist="" songAlbum="" />
    <MediaItem id="1352" filePath="F:\CSCI-4809\maya\projects\default\images\home_run.1351.jpg" arWidth="1024" arHeight="768" duration="0" songTitle="" songArtist="" songAlbum="" />
    <MediaItem id="1353" filePath="F:\CSCI-4809\maya\projects\default\images\home_run.1352.jpg" arWidth="1024" arHeight="768" duration="0" songTitle="" songArtist="" songAlbum="" />
    <MediaItem id="1354" filePath="F:\CSCI-4809\maya\projects\default\images\home_run.1353.jpg" arWidth="1024" arHeight="768" duration="0" songTitle="" songArtist="" songAlbum="" />
    <MediaItem id="1355" filePath="F:\CSCI-4809\maya\projects\default\images\home_run.1354.jpg" arWidth="1024" arHeight="768" duration="0" songTitle="" songArtist="" songAlbum="" />
    <MediaItem id="1356" filePath="F:\CSCI-4809\maya\projects\default\images\home_run.1355.jpg" arWidth="1024" arHeight="768" duration="0" songTitle="" songArtist="" songAlbum="" />
    <MediaItem id="1357" filePath="F:\CSCI-4809\maya\projects\default\images\home_run.1356.jpg" arWidth="1024" arHeight="768" duration="0" songTitle="" songArtist="" songAlbum="" />
    <MediaItem id="1358" filePath="F:\CSCI-4809\maya\projects\default\images\home_run.1357.jpg" arWidth="1024" arHeight="768" duration="0" songTitle="" songArtist="" songAlbum="" />
    <MediaItem id="1359" filePath="F:\CSCI-4809\maya\projects\default\images\home_run.1358.jpg" arWidth="1024" arHeight="768" duration="0" songTitle="" songArtist="" songAlbum="" />
    <MediaItem id="1360" filePath="F:\CSCI-4809\maya\projects\default\images\home_run.1359.jpg" arWidth="1024" arHeight="768" duration="0" songTitle="" songArtist="" songAlbum="" />
    <MediaItem id="1361" filePath="F:\CSCI-4809\maya\projects\default\images\home_run.1360.jpg" arWidth="1024" arHeight="768" duration="0" songTitle="" songArtist="" songAlbum="" />
    <MediaItem id="1362" filePath="F:\CSCI-4809\maya\projects\default\images\home_run.1361.jpg" arWidth="1024" arHeight="768" duration="0" songTitle="" songArtist="" songAlbum="" />
    <MediaItem id="1363" filePath="F:\CSCI-4809\maya\projects\default\images\home_run.1362.jpg" arWidth="1024" arHeight="768" duration="0" songTitle="" songArtist="" songAlbum="" />
    <MediaItem id="1364" filePath="F:\CSCI-4809\maya\projects\default\images\home_run.1363.jpg" arWidth="1024" arHeight="768" duration="0" songTitle="" songArtist="" songAlbum="" />
    <MediaItem id="1365" filePath="F:\CSCI-4809\maya\projects\default\images\home_run.1364.jpg" arWidth="1024" arHeight="768" duration="0" songTitle="" songArtist="" songAlbum="" />
    <MediaItem id="1366" filePath="F:\CSCI-4809\maya\projects\default\images\home_run.1365.jpg" arWidth="1024" arHeight="768" duration="0" songTitle="" songArtist="" songAlbum="" />
    <MediaItem id="1367" filePath="F:\CSCI-4809\maya\projects\default\images\home_run.1366.jpg" arWidth="1024" arHeight="768" duration="0" songTitle="" songArtist="" songAlbum="" />
    <MediaItem id="1368" filePath="F:\CSCI-4809\maya\projects\default\images\home_run.1367.jpg" arWidth="1024" arHeight="768" duration="0" songTitle="" songArtist="" songAlbum="" />
    <MediaItem id="1369" filePath="F:\CSCI-4809\maya\projects\default\images\home_run.1368.jpg" arWidth="1024" arHeight="768" duration="0" songTitle="" songArtist="" songAlbum="" />
    <MediaItem id="1370" filePath="F:\CSCI-4809\maya\projects\default\images\home_run.1369.jpg" arWidth="1024" arHeight="768" duration="0" songTitle="" songArtist="" songAlbum="" />
    <MediaItem id="1371" filePath="F:\CSCI-4809\maya\projects\default\images\home_run.1370.jpg" arWidth="1024" arHeight="768" duration="0" songTitle="" songArtist="" songAlbum="" />
    <MediaItem id="1372" filePath="F:\CSCI-4809\maya\projects\default\images\home_run.1371.jpg" arWidth="1024" arHeight="768" duration="0" songTitle="" songArtist="" songAlbum="" />
    <MediaItem id="1373" filePath="F:\CSCI-4809\maya\projects\default\images\home_run.1372.jpg" arWidth="1024" arHeight="768" duration="0" songTitle="" songArtist="" songAlbum="" />
    <MediaItem id="1374" filePath="F:\CSCI-4809\maya\projects\default\images\home_run.1373.jpg" arWidth="1024" arHeight="768" duration="0" songTitle="" songArtist="" songAlbum="" />
    <MediaItem id="1375" filePath="F:\CSCI-4809\maya\projects\default\images\home_run.1374.jpg" arWidth="1024" arHeight="768" duration="0" songTitle="" songArtist="" songAlbum="" />
    <MediaItem id="1376" filePath="F:\CSCI-4809\maya\projects\default\images\home_run.1375.jpg" arWidth="1024" arHeight="768" duration="0" songTitle="" songArtist="" songAlbum="" />
    <MediaItem id="1377" filePath="F:\CSCI-4809\maya\projects\default\images\home_run.1376.jpg" arWidth="1024" arHeight="768" duration="0" songTitle="" songArtist="" songAlbum="" />
    <MediaItem id="1378" filePath="F:\CSCI-4809\maya\projects\default\images\home_run.1377.jpg" arWidth="1024" arHeight="768" duration="0" songTitle="" songArtist="" songAlbum="" />
    <MediaItem id="1379" filePath="F:\CSCI-4809\maya\projects\default\images\home_run.1378.jpg" arWidth="1024" arHeight="768" duration="0" songTitle="" songArtist="" songAlbum="" />
    <MediaItem id="1380" filePath="F:\CSCI-4809\maya\projects\default\images\home_run.1379.jpg" arWidth="1024" arHeight="768" duration="0" songTitle="" songArtist="" songAlbum="" />
    <MediaItem id="1381" filePath="F:\CSCI-4809\maya\projects\default\images\home_run.1380.jpg" arWidth="1024" arHeight="768" duration="0" songTitle="" songArtist="" songAlbum="" />
    <MediaItem id="1382" filePath="F:\CSCI-4809\maya\projects\default\images\home_run.1381.jpg" arWidth="1024" arHeight="768" duration="0" songTitle="" songArtist="" songAlbum="" />
    <MediaItem id="1383" filePath="F:\CSCI-4809\maya\projects\default\images\home_run.1382.jpg" arWidth="1024" arHeight="768" duration="0" songTitle="" songArtist="" songAlbum="" />
    <MediaItem id="1384" filePath="F:\CSCI-4809\maya\projects\default\images\home_run.1383.jpg" arWidth="1024" arHeight="768" duration="0" songTitle="" songArtist="" songAlbum="" />
    <MediaItem id="1385" filePath="F:\CSCI-4809\maya\projects\default\images\home_run.1384.jpg" arWidth="1024" arHeight="768" duration="0" songTitle="" songArtist="" songAlbum="" />
    <MediaItem id="1386" filePath="F:\CSCI-4809\maya\projects\default\images\home_run.1385.jpg" arWidth="1024" arHeight="768" duration="0" songTitle="" songArtist="" songAlbum="" />
    <MediaItem id="1387" filePath="F:\CSCI-4809\maya\projects\default\images\home_run.1386.jpg" arWidth="1024" arHeight="768" duration="0" songTitle="" songArtist="" songAlbum="" />
    <MediaItem id="1388" filePath="F:\CSCI-4809\maya\projects\default\images\home_run.1387.jpg" arWidth="1024" arHeight="768" duration="0" songTitle="" songArtist="" songAlbum="" />
    <MediaItem id="1389" filePath="F:\CSCI-4809\maya\projects\default\images\home_run.1388.jpg" arWidth="1024" arHeight="768" duration="0" songTitle="" songArtist="" songAlbum="" />
    <MediaItem id="1390" filePath="F:\CSCI-4809\maya\projects\default\images\home_run.1389.jpg" arWidth="1024" arHeight="768" duration="0" songTitle="" songArtist="" songAlbum="" />
    <MediaItem id="1391" filePath="F:\CSCI-4809\maya\projects\default\images\home_run.1390.jpg" arWidth="1024" arHeight="768" duration="0" songTitle="" songArtist="" songAlbum="" />
    <MediaItem id="1392" filePath="F:\CSCI-4809\maya\projects\default\images\home_run.1391.jpg" arWidth="1024" arHeight="768" duration="0" songTitle="" songArtist="" songAlbum="" />
    <MediaItem id="1393" filePath="F:\CSCI-4809\maya\projects\default\images\home_run.1392.jpg" arWidth="1024" arHeight="768" duration="0" songTitle="" songArtist="" songAlbum="" />
    <MediaItem id="1394" filePath="F:\CSCI-4809\maya\projects\default\images\home_run.1393.jpg" arWidth="1024" arHeight="768" duration="0" songTitle="" songArtist="" songAlbum="" />
    <MediaItem id="1395" filePath="F:\CSCI-4809\maya\projects\default\images\home_run.1394.jpg" arWidth="1024" arHeight="768" duration="0" songTitle="" songArtist="" songAlbum="" />
    <MediaItem id="1396" filePath="F:\CSCI-4809\maya\projects\default\images\home_run.1395.jpg" arWidth="1024" arHeight="768" duration="0" songTitle="" songArtist="" songAlbum="" />
    <MediaItem id="1397" filePath="F:\CSCI-4809\maya\projects\default\images\home_run.1396.jpg" arWidth="1024" arHeight="768" duration="0" songTitle="" songArtist="" songAlbum="" />
    <MediaItem id="1398" filePath="F:\CSCI-4809\maya\projects\default\images\home_run.1397.jpg" arWidth="1024" arHeight="768" duration="0" songTitle="" songArtist="" songAlbum="" />
    <MediaItem id="1399" filePath="F:\CSCI-4809\maya\projects\default\images\home_run.1398.jpg" arWidth="1024" arHeight="768" duration="0" songTitle="" songArtist="" songAlbum="" />
    <MediaItem id="1400" filePath="F:\CSCI-4809\maya\projects\default\images\home_run.1399.jpg" arWidth="1024" arHeight="768" duration="0" songTitle="" songArtist="" songAlbum="" />
    <MediaItem id="1401" filePath="F:\CSCI-4809\maya\projects\default\images\home_run.1400.jpg" arWidth="1024" arHeight="768" duration="0" songTitle="" songArtist="" songAlbum="" />
    <MediaItem id="1402" filePath="F:\CSCI-4809\maya\projects\default\images\home_run.1401.jpg" arWidth="1024" arHeight="768" duration="0" songTitle="" songArtist="" songAlbum="" />
    <MediaItem id="1403" filePath="F:\CSCI-4809\maya\projects\default\images\home_run.1402.jpg" arWidth="1024" arHeight="768" duration="0" songTitle="" songArtist="" songAlbum="" />
    <MediaItem id="1404" filePath="F:\CSCI-4809\maya\projects\default\images\home_run.1403.jpg" arWidth="1024" arHeight="768" duration="0" songTitle="" songArtist="" songAlbum="" />
    <MediaItem id="1405" filePath="F:\CSCI-4809\maya\projects\default\images\home_run.1404.jpg" arWidth="1024" arHeight="768" duration="0" songTitle="" songArtist="" songAlbum="" />
    <MediaItem id="1406" filePath="F:\CSCI-4809\maya\projects\default\images\home_run.1405.jpg" arWidth="1024" arHeight="768" duration="0" songTitle="" songArtist="" songAlbum="" />
    <MediaItem id="1407" filePath="F:\CSCI-4809\maya\projects\default\images\home_run.1406.jpg" arWidth="1024" arHeight="768" duration="0" songTitle="" songArtist="" songAlbum="" />
    <MediaItem id="1408" filePath="F:\CSCI-4809\maya\projects\default\images\home_run.1407.jpg" arWidth="1024" arHeight="768" duration="0" songTitle="" songArtist="" songAlbum="" />
    <MediaItem id="1409" filePath="F:\CSCI-4809\maya\projects\default\images\home_run.1408.jpg" arWidth="1024" arHeight="768" duration="0" songTitle="" songArtist="" songAlbum="" />
    <MediaItem id="1410" filePath="F:\CSCI-4809\maya\projects\default\images\home_run.1409.jpg" arWidth="1024" arHeight="768" duration="0" songTitle="" songArtist="" songAlbum="" />
    <MediaItem id="1411" filePath="F:\CSCI-4809\maya\projects\default\images\home_run.1410.jpg" arWidth="1024" arHeight="768" duration="0" songTitle="" songArtist="" songAlbum="" />
    <MediaItem id="1412" filePath="F:\CSCI-4809\maya\projects\default\images\home_run.1411.jpg" arWidth="1024" arHeight="768" duration="0" songTitle="" songArtist="" songAlbum="" />
    <MediaItem id="1413" filePath="F:\CSCI-4809\maya\projects\default\images\home_run.1412.jpg" arWidth="1024" arHeight="768" duration="0" songTitle="" songArtist="" songAlbum="" />
    <MediaItem id="1414" filePath="F:\CSCI-4809\maya\projects\default\images\home_run.1413.jpg" arWidth="1024" arHeight="768" duration="0" songTitle="" songArtist="" songAlbum="" />
    <MediaItem id="1415" filePath="F:\CSCI-4809\maya\projects\default\images\home_run.1414.jpg" arWidth="1024" arHeight="768" duration="0" songTitle="" songArtist="" songAlbum="" />
    <MediaItem id="1416" filePath="F:\CSCI-4809\maya\projects\default\images\home_run.1415.jpg" arWidth="1024" arHeight="768" duration="0" songTitle="" songArtist="" songAlbum="" />
    <MediaItem id="1417" filePath="F:\CSCI-4809\maya\projects\default\images\home_run.1416.jpg" arWidth="1024" arHeight="768" duration="0" songTitle="" songArtist="" songAlbum="" />
    <MediaItem id="1418" filePath="F:\CSCI-4809\maya\projects\default\images\home_run.1417.jpg" arWidth="1024" arHeight="768" duration="0" songTitle="" songArtist="" songAlbum="" />
    <MediaItem id="1419" filePath="F:\CSCI-4809\maya\projects\default\images\home_run.1418.jpg" arWidth="1024" arHeight="768" duration="0" songTitle="" songArtist="" songAlbum="" />
    <MediaItem id="1420" filePath="F:\CSCI-4809\maya\projects\default\images\home_run.1419.jpg" arWidth="1024" arHeight="768" duration="0" songTitle="" songArtist="" songAlbum="" />
    <MediaItem id="1421" filePath="F:\CSCI-4809\maya\projects\default\images\home_run.1420.jpg" arWidth="1024" arHeight="768" duration="0" songTitle="" songArtist="" songAlbum="" />
    <MediaItem id="1422" filePath="F:\CSCI-4809\maya\projects\default\images\home_run.1421.jpg" arWidth="1024" arHeight="768" duration="0" songTitle="" songArtist="" songAlbum="" />
    <MediaItem id="1423" filePath="F:\CSCI-4809\maya\projects\default\images\home_run.1422.jpg" arWidth="1024" arHeight="768" duration="0" songTitle="" songArtist="" songAlbum="" />
    <MediaItem id="1424" filePath="F:\CSCI-4809\maya\projects\default\images\home_run.1423.jpg" arWidth="1024" arHeight="768" duration="0" songTitle="" songArtist="" songAlbum="" />
    <MediaItem id="1425" filePath="F:\CSCI-4809\maya\projects\default\images\home_run.1424.jpg" arWidth="1024" arHeight="768" duration="0" songTitle="" songArtist="" songAlbum="" />
    <MediaItem id="1426" filePath="F:\CSCI-4809\maya\projects\default\images\home_run.1425.jpg" arWidth="1024" arHeight="768" duration="0" songTitle="" songArtist="" songAlbum="" />
    <MediaItem id="1427" filePath="F:\CSCI-4809\maya\projects\default\images\home_run.1426.jpg" arWidth="1024" arHeight="768" duration="0" songTitle="" songArtist="" songAlbum="" />
    <MediaItem id="1428" filePath="F:\CSCI-4809\maya\projects\default\images\home_run.1427.jpg" arWidth="1024" arHeight="768" duration="0" songTitle="" songArtist="" songAlbum="" />
    <MediaItem id="1429" filePath="F:\CSCI-4809\maya\projects\default\images\home_run.1428.jpg" arWidth="1024" arHeight="768" duration="0" songTitle="" songArtist="" songAlbum="" />
    <MediaItem id="1430" filePath="F:\CSCI-4809\maya\projects\default\images\home_run.1429.jpg" arWidth="1024" arHeight="768" duration="0" songTitle="" songArtist="" songAlbum="" />
    <MediaItem id="1431" filePath="F:\CSCI-4809\maya\projects\default\images\home_run.1430.jpg" arWidth="1024" arHeight="768" duration="0" songTitle="" songArtist="" songAlbum="" />
    <MediaItem id="1432" filePath="F:\CSCI-4809\maya\projects\default\images\home_run.1431.jpg" arWidth="1024" arHeight="768" duration="0" songTitle="" songArtist="" songAlbum="" />
    <MediaItem id="1433" filePath="F:\CSCI-4809\maya\projects\default\images\home_run.1432.jpg" arWidth="1024" arHeight="768" duration="0" songTitle="" songArtist="" songAlbum="" />
    <MediaItem id="1434" filePath="F:\CSCI-4809\maya\projects\default\images\home_run.1433.jpg" arWidth="1024" arHeight="768" duration="0" songTitle="" songArtist="" songAlbum="" />
    <MediaItem id="1435" filePath="F:\CSCI-4809\maya\projects\default\images\home_run.1434.jpg" arWidth="1024" arHeight="768" duration="0" songTitle="" songArtist="" songAlbum="" />
    <MediaItem id="1436" filePath="F:\CSCI-4809\maya\projects\default\images\home_run.1435.jpg" arWidth="1024" arHeight="768" duration="0" songTitle="" songArtist="" songAlbum="" />
    <MediaItem id="1437" filePath="F:\CSCI-4809\maya\projects\default\images\home_run.1436.jpg" arWidth="1024" arHeight="768" duration="0" songTitle="" songArtist="" songAlbum="" />
    <MediaItem id="1438" filePath="F:\CSCI-4809\maya\projects\default\images\home_run.1437.jpg" arWidth="1024" arHeight="768" duration="0" songTitle="" songArtist="" songAlbum="" />
    <MediaItem id="1439" filePath="F:\CSCI-4809\maya\projects\default\images\home_run.1438.jpg" arWidth="1024" arHeight="768" duration="0" songTitle="" songArtist="" songAlbum="" />
    <MediaItem id="1440" filePath="F:\CSCI-4809\maya\projects\default\images\home_run.1439.jpg" arWidth="1024" arHeight="768" duration="0" songTitle="" songArtist="" songAlbum="" />
    <MediaItem id="1441" filePath="F:\CSCI-4809\maya\projects\default\images\home_run.1440.jpg" arWidth="1024" arHeight="768" duration="0" songTitle="" songArtist="" songAlbum="" />
    <MediaItem id="1442" filePath="F:\CSCI-4809\maya\projects\default\images\home_run.1441.jpg" arWidth="1024" arHeight="768" duration="0" songTitle="" songArtist="" songAlbum="" />
    <MediaItem id="1443" filePath="F:\CSCI-4809\maya\projects\default\images\home_run.1442.jpg" arWidth="1024" arHeight="768" duration="0" songTitle="" songArtist="" songAlbum="" />
    <MediaItem id="1444" filePath="F:\CSCI-4809\maya\projects\default\images\home_run.1443.jpg" arWidth="1024" arHeight="768" duration="0" songTitle="" songArtist="" songAlbum="" />
    <MediaItem id="1445" filePath="F:\CSCI-4809\maya\projects\default\images\home_run.1444.jpg" arWidth="1024" arHeight="768" duration="0" songTitle="" songArtist="" songAlbum="" />
    <MediaItem id="1446" filePath="F:\CSCI-4809\maya\projects\default\images\home_run.1445.jpg" arWidth="1024" arHeight="768" duration="0" songTitle="" songArtist="" songAlbum="" />
    <MediaItem id="1447" filePath="F:\CSCI-4809\maya\projects\default\images\home_run.1446.jpg" arWidth="1024" arHeight="768" duration="0" songTitle="" songArtist="" songAlbum="" />
    <MediaItem id="1448" filePath="F:\CSCI-4809\maya\projects\default\images\home_run.1447.jpg" arWidth="1024" arHeight="768" duration="0" songTitle="" songArtist="" songAlbum="" />
    <MediaItem id="1449" filePath="F:\CSCI-4809\maya\projects\default\images\home_run.1448.jpg" arWidth="1024" arHeight="768" duration="0" songTitle="" songArtist="" songAlbum="" />
    <MediaItem id="1450" filePath="F:\CSCI-4809\maya\projects\default\images\home_run.1449.jpg" arWidth="1024" arHeight="768" duration="0" songTitle="" songArtist="" songAlbum="" />
    <MediaItem id="1451" filePath="F:\CSCI-4809\maya\projects\default\images\home_run.1450.jpg" arWidth="1024" arHeight="768" duration="0" songTitle="" songArtist="" songAlbum="" />
    <MediaItem id="1452" filePath="F:\CSCI-4809\maya\projects\default\images\home_run.1451.jpg" arWidth="1024" arHeight="768" duration="0" songTitle="" songArtist="" songAlbum="" />
    <MediaItem id="1453" filePath="F:\CSCI-4809\maya\projects\default\images\home_run.1452.jpg" arWidth="1024" arHeight="768" duration="0" songTitle="" songArtist="" songAlbum="" />
    <MediaItem id="1454" filePath="F:\CSCI-4809\maya\projects\default\images\home_run.1453.jpg" arWidth="1024" arHeight="768" duration="0" songTitle="" songArtist="" songAlbum="" />
    <MediaItem id="1455" filePath="F:\CSCI-4809\maya\projects\default\images\home_run.1454.jpg" arWidth="1024" arHeight="768" duration="0" songTitle="" songArtist="" songAlbum="" />
    <MediaItem id="1456" filePath="F:\CSCI-4809\maya\projects\default\images\home_run.1455.jpg" arWidth="1024" arHeight="768" duration="0" songTitle="" songArtist="" songAlbum="" />
    <MediaItem id="1457" filePath="F:\CSCI-4809\maya\projects\default\images\home_run.1456.jpg" arWidth="1024" arHeight="768" duration="0" songTitle="" songArtist="" songAlbum="" />
    <MediaItem id="1458" filePath="F:\CSCI-4809\maya\projects\default\images\home_run.1457.jpg" arWidth="1024" arHeight="768" duration="0" songTitle="" songArtist="" songAlbum="" />
    <MediaItem id="1459" filePath="F:\CSCI-4809\maya\projects\default\images\home_run.1458.jpg" arWidth="1024" arHeight="768" duration="0" songTitle="" songArtist="" songAlbum="" />
    <MediaItem id="1460" filePath="F:\CSCI-4809\maya\projects\default\images\home_run.1459.jpg" arWidth="1024" arHeight="768" duration="0" songTitle="" songArtist="" songAlbum="" />
    <MediaItem id="1461" filePath="F:\CSCI-4809\maya\projects\default\images\home_run.1460.jpg" arWidth="1024" arHeight="768" duration="0" songTitle="" songArtist="" songAlbum="" />
    <MediaItem id="1462" filePath="F:\CSCI-4809\maya\projects\default\images\home_run.1461.jpg" arWidth="1024" arHeight="768" duration="0" songTitle="" songArtist="" songAlbum="" />
    <MediaItem id="1463" filePath="F:\CSCI-4809\maya\projects\default\images\home_run.1462.jpg" arWidth="1024" arHeight="768" duration="0" songTitle="" songArtist="" songAlbum="" />
    <MediaItem id="1464" filePath="F:\CSCI-4809\maya\projects\default\images\home_run.1463.jpg" arWidth="1024" arHeight="768" duration="0" songTitle="" songArtist="" songAlbum="" />
    <MediaItem id="1465" filePath="F:\CSCI-4809\maya\projects\default\images\home_run.1464.jpg" arWidth="1024" arHeight="768" duration="0" songTitle="" songArtist="" songAlbum="" />
    <MediaItem id="1466" filePath="F:\CSCI-4809\maya\projects\default\images\home_run.1465.jpg" arWidth="1024" arHeight="768" duration="0" songTitle="" songArtist="" songAlbum="" />
    <MediaItem id="1467" filePath="F:\CSCI-4809\maya\projects\default\images\home_run.1466.jpg" arWidth="1024" arHeight="768" duration="0" songTitle="" songArtist="" songAlbum="" />
    <MediaItem id="1468" filePath="F:\CSCI-4809\maya\projects\default\images\home_run.1467.jpg" arWidth="1024" arHeight="768" duration="0" songTitle="" songArtist="" songAlbum="" />
    <MediaItem id="1469" filePath="F:\CSCI-4809\maya\projects\default\images\home_run.1468.jpg" arWidth="1024" arHeight="768" duration="0" songTitle="" songArtist="" songAlbum="" />
    <MediaItem id="1470" filePath="F:\CSCI-4809\maya\projects\default\images\home_run.1469.jpg" arWidth="1024" arHeight="768" duration="0" songTitle="" songArtist="" songAlbum="" />
    <MediaItem id="1471" filePath="F:\CSCI-4809\maya\projects\default\images\home_run.1470.jpg" arWidth="1024" arHeight="768" duration="0" songTitle="" songArtist="" songAlbum="" />
    <MediaItem id="1472" filePath="F:\CSCI-4809\maya\projects\default\images\home_run.1471.jpg" arWidth="1024" arHeight="768" duration="0" songTitle="" songArtist="" songAlbum="" />
    <MediaItem id="1473" filePath="F:\CSCI-4809\maya\projects\default\images\home_run.1472.jpg" arWidth="1024" arHeight="768" duration="0" songTitle="" songArtist="" songAlbum="" />
    <MediaItem id="1474" filePath="F:\CSCI-4809\maya\projects\default\images\home_run.1473.jpg" arWidth="1024" arHeight="768" duration="0" songTitle="" songArtist="" songAlbum="" />
    <MediaItem id="1475" filePath="F:\CSCI-4809\maya\projects\default\images\home_run.1474.jpg" arWidth="1024" arHeight="768" duration="0" songTitle="" songArtist="" songAlbum="" />
    <MediaItem id="1476" filePath="F:\CSCI-4809\maya\projects\default\images\home_run.1475.jpg" arWidth="1024" arHeight="768" duration="0" songTitle="" songArtist="" songAlbum="" />
    <MediaItem id="1477" filePath="F:\CSCI-4809\maya\projects\default\images\home_run.1476.jpg" arWidth="1024" arHeight="768" duration="0" songTitle="" songArtist="" songAlbum="" />
    <MediaItem id="1478" filePath="F:\CSCI-4809\maya\projects\default\images\home_run.1477.jpg" arWidth="1024" arHeight="768" duration="0" songTitle="" songArtist="" songAlbum="" />
    <MediaItem id="1479" filePath="F:\CSCI-4809\maya\projects\default\images\home_run.1478.jpg" arWidth="1024" arHeight="768" duration="0" songTitle="" songArtist="" songAlbum="" />
    <MediaItem id="1480" filePath="F:\CSCI-4809\maya\projects\default\images\home_run.1479.jpg" arWidth="1024" arHeight="768" duration="0" songTitle="" songArtist="" songAlbum="" />
    <MediaItem id="1481" filePath="F:\CSCI-4809\maya\projects\default\images\home_run.1480.jpg" arWidth="1024" arHeight="768" duration="0" songTitle="" songArtist="" songAlbum="" />
    <MediaItem id="1482" filePath="F:\CSCI-4809\maya\projects\default\images\home_run.1481.jpg" arWidth="1024" arHeight="768" duration="0" songTitle="" songArtist="" songAlbum="" />
    <MediaItem id="1483" filePath="F:\CSCI-4809\maya\projects\default\images\home_run.1482.jpg" arWidth="1024" arHeight="768" duration="0" songTitle="" songArtist="" songAlbum="" />
    <MediaItem id="1484" filePath="F:\CSCI-4809\maya\projects\default\images\home_run.1483.jpg" arWidth="1024" arHeight="768" duration="0" songTitle="" songArtist="" songAlbum="" />
    <MediaItem id="1485" filePath="F:\CSCI-4809\maya\projects\default\images\home_run.1484.jpg" arWidth="1024" arHeight="768" duration="0" songTitle="" songArtist="" songAlbum="" />
    <MediaItem id="1486" filePath="F:\CSCI-4809\maya\projects\default\images\home_run.1485.jpg" arWidth="1024" arHeight="768" duration="0" songTitle="" songArtist="" songAlbum="" />
    <MediaItem id="1487" filePath="F:\CSCI-4809\maya\projects\default\images\home_run.1486.jpg" arWidth="1024" arHeight="768" duration="0" songTitle="" songArtist="" songAlbum="" />
    <MediaItem id="1488" filePath="F:\CSCI-4809\maya\projects\default\images\home_run.1487.jpg" arWidth="1024" arHeight="768" duration="0" songTitle="" songArtist="" songAlbum="" />
    <MediaItem id="1489" filePath="F:\CSCI-4809\maya\projects\default\images\home_run.1488.jpg" arWidth="1024" arHeight="768" duration="0" songTitle="" songArtist="" songAlbum="" />
    <MediaItem id="1490" filePath="F:\CSCI-4809\maya\projects\default\images\home_run.1489.jpg" arWidth="1024" arHeight="768" duration="0" songTitle="" songArtist="" songAlbum="" />
    <MediaItem id="1491" filePath="F:\CSCI-4809\maya\projects\default\images\home_run.1490.jpg" arWidth="1024" arHeight="768" duration="0" songTitle="" songArtist="" songAlbum="" />
    <MediaItem id="1492" filePath="F:\CSCI-4809\maya\projects\default\images\home_run.1491.jpg" arWidth="1024" arHeight="768" duration="0" songTitle="" songArtist="" songAlbum="" />
    <MediaItem id="1493" filePath="F:\CSCI-4809\maya\projects\default\images\home_run.1492.jpg" arWidth="1024" arHeight="768" duration="0" songTitle="" songArtist="" songAlbum="" />
    <MediaItem id="1494" filePath="F:\CSCI-4809\maya\projects\default\images\home_run.1493.jpg" arWidth="1024" arHeight="768" duration="0" songTitle="" songArtist="" songAlbum="" />
    <MediaItem id="1495" filePath="F:\CSCI-4809\maya\projects\default\images\home_run.1494.jpg" arWidth="1024" arHeight="768" duration="0" songTitle="" songArtist="" songAlbum="" />
    <MediaItem id="1496" filePath="F:\CSCI-4809\maya\projects\default\images\home_run.1495.jpg" arWidth="1024" arHeight="768" duration="0" songTitle="" songArtist="" songAlbum="" />
    <MediaItem id="1497" filePath="F:\CSCI-4809\maya\projects\default\images\home_run.1496.jpg" arWidth="1024" arHeight="768" duration="0" songTitle="" songArtist="" songAlbum="" />
    <MediaItem id="1498" filePath="F:\CSCI-4809\maya\projects\default\images\home_run.1497.jpg" arWidth="1024" arHeight="768" duration="0" songTitle="" songArtist="" songAlbum="" />
    <MediaItem id="1499" filePath="F:\CSCI-4809\maya\projects\default\images\home_run.1498.jpg" arWidth="1024" arHeight="768" duration="0" songTitle="" songArtist="" songAlbum="" />
    <MediaItem id="1500" filePath="F:\CSCI-4809\maya\projects\default\images\home_run.1499.jpg" arWidth="1024" arHeight="768" duration="0" songTitle="" songArtist="" songAlbum="" />
    <MediaItem id="1501" filePath="F:\CSCI-4809\maya\projects\default\images\home_run.1500.jpg" arWidth="1024" arHeight="768" duration="0" songTitle="" songArtist="" songAlbum="" />
    <MediaItem id="1502" filePath="F:\CSCI-4809\maya\projects\default\images\home_run.1501.jpg" arWidth="1024" arHeight="768" duration="0" songTitle="" songArtist="" songAlbum="" />
    <MediaItem id="1503" filePath="F:\CSCI-4809\maya\projects\default\images\home_run.1502.jpg" arWidth="1024" arHeight="768" duration="0" songTitle="" songArtist="" songAlbum="" />
    <MediaItem id="1504" filePath="F:\CSCI-4809\maya\projects\default\images\home_run.1503.jpg" arWidth="1024" arHeight="768" duration="0" songTitle="" songArtist="" songAlbum="" />
    <MediaItem id="1505" filePath="F:\CSCI-4809\maya\projects\default\images\home_run.1504.jpg" arWidth="1024" arHeight="768" duration="0" songTitle="" songArtist="" songAlbum="" />
    <MediaItem id="1506" filePath="F:\CSCI-4809\maya\projects\default\images\home_run.1505.jpg" arWidth="1024" arHeight="768" duration="0" songTitle="" songArtist="" songAlbum="" />
    <MediaItem id="1507" filePath="F:\CSCI-4809\maya\projects\default\images\home_run.1506.jpg" arWidth="1024" arHeight="768" duration="0" songTitle="" songArtist="" songAlbum="" />
    <MediaItem id="1508" filePath="F:\CSCI-4809\maya\projects\default\images\home_run.1507.jpg" arWidth="1024" arHeight="768" duration="0" songTitle="" songArtist="" songAlbum="" />
    <MediaItem id="1509" filePath="F:\CSCI-4809\maya\projects\default\images\home_run.1508.jpg" arWidth="1024" arHeight="768" duration="0" songTitle="" songArtist="" songAlbum="" />
    <MediaItem id="1510" filePath="F:\CSCI-4809\maya\projects\default\images\home_run.1509.jpg" arWidth="1024" arHeight="768" duration="0" songTitle="" songArtist="" songAlbum="" />
    <MediaItem id="1511" filePath="F:\CSCI-4809\maya\projects\default\images\home_run.1510.jpg" arWidth="1024" arHeight="768" duration="0" songTitle="" songArtist="" songAlbum="" />
    <MediaItem id="1512" filePath="F:\CSCI-4809\maya\projects\default\images\home_run.1511.jpg" arWidth="1024" arHeight="768" duration="0" songTitle="" songArtist="" songAlbum="" />
    <MediaItem id="1513" filePath="F:\CSCI-4809\maya\projects\default\images\home_run.1512.jpg" arWidth="1024" arHeight="768" duration="0" songTitle="" songArtist="" songAlbum="" />
    <MediaItem id="1514" filePath="F:\CSCI-4809\maya\projects\default\images\home_run.1513.jpg" arWidth="1024" arHeight="768" duration="0" songTitle="" songArtist="" songAlbum="" />
    <MediaItem id="1515" filePath="F:\CSCI-4809\maya\projects\default\images\home_run.1514.jpg" arWidth="1024" arHeight="768" duration="0" songTitle="" songArtist="" songAlbum="" />
    <MediaItem id="1516" filePath="F:\CSCI-4809\maya\projects\default\images\home_run.1515.jpg" arWidth="1024" arHeight="768" duration="0" songTitle="" songArtist="" songAlbum="" />
    <MediaItem id="1517" filePath="F:\CSCI-4809\maya\projects\default\images\home_run.1516.jpg" arWidth="1024" arHeight="768" duration="0" songTitle="" songArtist="" songAlbum="" />
    <MediaItem id="1518" filePath="F:\CSCI-4809\maya\projects\default\images\home_run.1517.jpg" arWidth="1024" arHeight="768" duration="0" songTitle="" songArtist="" songAlbum="" />
    <MediaItem id="1519" filePath="F:\CSCI-4809\maya\projects\default\images\home_run.1518.jpg" arWidth="1024" arHeight="768" duration="0" songTitle="" songArtist="" songAlbum="" />
    <MediaItem id="1520" filePath="F:\CSCI-4809\maya\projects\default\images\home_run.1519.jpg" arWidth="1024" arHeight="768" duration="0" songTitle="" songArtist="" songAlbum="" />
    <MediaItem id="1521" filePath="F:\CSCI-4809\maya\projects\default\images\home_run.1520.jpg" arWidth="1024" arHeight="768" duration="0" songTitle="" songArtist="" songAlbum="" />
    <MediaItem id="1522" filePath="F:\CSCI-4809\maya\projects\default\images\home_run.1521.jpg" arWidth="1024" arHeight="768" duration="0" songTitle="" songArtist="" songAlbum="" />
    <MediaItem id="1523" filePath="F:\CSCI-4809\maya\projects\default\images\home_run.1522.jpg" arWidth="1024" arHeight="768" duration="0" songTitle="" songArtist="" songAlbum="" />
    <MediaItem id="1524" filePath="F:\CSCI-4809\maya\projects\default\images\home_run.1523.jpg" arWidth="1024" arHeight="768" duration="0" songTitle="" songArtist="" songAlbum="" />
    <MediaItem id="1525" filePath="F:\CSCI-4809\maya\projects\default\images\home_run.1524.jpg" arWidth="1024" arHeight="768" duration="0" songTitle="" songArtist="" songAlbum="" />
    <MediaItem id="1526" filePath="F:\CSCI-4809\maya\projects\default\images\home_run.1525.jpg" arWidth="1024" arHeight="768" duration="0" songTitle="" songArtist="" songAlbum="" />
    <MediaItem id="1527" filePath="F:\CSCI-4809\maya\projects\default\images\home_run.1526.jpg" arWidth="1024" arHeight="768" duration="0" songTitle="" songArtist="" songAlbum="" />
    <MediaItem id="1528" filePath="F:\CSCI-4809\maya\projects\default\images\home_run.1527.jpg" arWidth="1024" arHeight="768" duration="0" songTitle="" songArtist="" songAlbum="" />
    <MediaItem id="1529" filePath="F:\CSCI-4809\maya\projects\default\images\home_run.1528.jpg" arWidth="1024" arHeight="768" duration="0" songTitle="" songArtist="" songAlbum="" />
    <MediaItem id="1530" filePath="F:\CSCI-4809\maya\projects\default\images\home_run.1529.jpg" arWidth="1024" arHeight="768" duration="0" songTitle="" songArtist="" songAlbum="" />
    <MediaItem id="1531" filePath="F:\CSCI-4809\maya\projects\default\images\home_run.1530.jpg" arWidth="1024" arHeight="768" duration="0" songTitle="" songArtist="" songAlbum="" />
    <MediaItem id="1532" filePath="F:\CSCI-4809\maya\projects\default\images\home_run.1531.jpg" arWidth="1024" arHeight="768" duration="0" songTitle="" songArtist="" songAlbum="" />
    <MediaItem id="1533" filePath="F:\CSCI-4809\maya\projects\default\images\home_run.1532.jpg" arWidth="1024" arHeight="768" duration="0" songTitle="" songArtist="" songAlbum="" />
    <MediaItem id="1534" filePath="F:\CSCI-4809\maya\projects\default\images\home_run.1533.jpg" arWidth="1024" arHeight="768" duration="0" songTitle="" songArtist="" songAlbum="" />
    <MediaItem id="1535" filePath="F:\CSCI-4809\maya\projects\default\images\home_run.1534.jpg" arWidth="1024" arHeight="768" duration="0" songTitle="" songArtist="" songAlbum="" />
    <MediaItem id="1536" filePath="F:\CSCI-4809\maya\projects\default\images\home_run.1535.jpg" arWidth="1024" arHeight="768" duration="0" songTitle="" songArtist="" songAlbum="" />
    <MediaItem id="1537" filePath="F:\CSCI-4809\maya\projects\default\images\home_run.1536.jpg" arWidth="1024" arHeight="768" duration="0" songTitle="" songArtist="" songAlbum="" />
    <MediaItem id="1538" filePath="F:\CSCI-4809\maya\projects\default\images\home_run.1537.jpg" arWidth="1024" arHeight="768" duration="0" songTitle="" songArtist="" songAlbum="" />
    <MediaItem id="1539" filePath="F:\CSCI-4809\maya\projects\default\images\home_run.1538.jpg" arWidth="1024" arHeight="768" duration="0" songTitle="" songArtist="" songAlbum="" />
    <MediaItem id="1540" filePath="F:\CSCI-4809\maya\projects\default\images\home_run.1539.jpg" arWidth="1024" arHeight="768" duration="0" songTitle="" songArtist="" songAlbum="" />
    <MediaItem id="1541" filePath="F:\CSCI-4809\maya\projects\default\images\home_run.1540.jpg" arWidth="1024" arHeight="768" duration="0" songTitle="" songArtist="" songAlbum="" />
    <MediaItem id="1542" filePath="F:\CSCI-4809\maya\projects\default\images\home_run.1541.jpg" arWidth="1024" arHeight="768" duration="0" songTitle="" songArtist="" songAlbum="" />
    <MediaItem id="1543" filePath="F:\CSCI-4809\maya\projects\default\images\home_run.1542.jpg" arWidth="1024" arHeight="768" duration="0" songTitle="" songArtist="" songAlbum="" />
    <MediaItem id="1544" filePath="F:\CSCI-4809\maya\projects\default\images\home_run.1543.jpg" arWidth="1024" arHeight="768" duration="0" songTitle="" songArtist="" songAlbum="" />
    <MediaItem id="1545" filePath="F:\CSCI-4809\maya\projects\default\images\home_run.1544.jpg" arWidth="1024" arHeight="768" duration="0" songTitle="" songArtist="" songAlbum="" />
    <MediaItem id="1546" filePath="F:\CSCI-4809\maya\projects\default\images\home_run.1545.jpg" arWidth="1024" arHeight="768" duration="0" songTitle="" songArtist="" songAlbum="" />
    <MediaItem id="1547" filePath="F:\CSCI-4809\maya\projects\default\images\home_run.1546.jpg" arWidth="1024" arHeight="768" duration="0" songTitle="" songArtist="" songAlbum="" />
    <MediaItem id="1548" filePath="F:\CSCI-4809\maya\projects\default\images\home_run.1547.jpg" arWidth="1024" arHeight="768" duration="0" songTitle="" songArtist="" songAlbum="" />
    <MediaItem id="1549" filePath="F:\CSCI-4809\maya\projects\default\images\home_run.1548.jpg" arWidth="1024" arHeight="768" duration="0" songTitle="" songArtist="" songAlbum="" />
    <MediaItem id="1550" filePath="F:\CSCI-4809\maya\projects\default\images\home_run.1549.jpg" arWidth="1024" arHeight="768" duration="0" songTitle="" songArtist="" songAlbum="" />
    <MediaItem id="1551" filePath="F:\CSCI-4809\maya\projects\default\images\home_run.1550.jpg" arWidth="1024" arHeight="768" duration="0" songTitle="" songArtist="" songAlbum="" />
    <MediaItem id="1552" filePath="F:\CSCI-4809\maya\projects\default\images\home_run.1551.jpg" arWidth="1024" arHeight="768" duration="0" songTitle="" songArtist="" songAlbum="" />
    <MediaItem id="1553" filePath="F:\CSCI-4809\maya\projects\default\images\home_run.1552.jpg" arWidth="1024" arHeight="768" duration="0" songTitle="" songArtist="" songAlbum="" />
    <MediaItem id="1554" filePath="F:\CSCI-4809\maya\projects\default\images\home_run.1553.jpg" arWidth="1024" arHeight="768" duration="0" songTitle="" songArtist="" songAlbum="" />
    <MediaItem id="1555" filePath="F:\CSCI-4809\maya\projects\default\images\home_run.1554.jpg" arWidth="1024" arHeight="768" duration="0" songTitle="" songArtist="" songAlbum="" />
    <MediaItem id="1556" filePath="F:\CSCI-4809\maya\projects\default\images\home_run.1555.jpg" arWidth="1024" arHeight="768" duration="0" songTitle="" songArtist="" songAlbum="" />
    <MediaItem id="1557" filePath="F:\CSCI-4809\maya\projects\default\images\home_run.1556.jpg" arWidth="1024" arHeight="768" duration="0" songTitle="" songArtist="" songAlbum="" />
    <MediaItem id="1558" filePath="F:\CSCI-4809\maya\projects\default\images\home_run.1557.jpg" arWidth="1024" arHeight="768" duration="0" songTitle="" songArtist="" songAlbum="" />
    <MediaItem id="1559" filePath="F:\CSCI-4809\maya\projects\default\images\home_run.1558.jpg" arWidth="1024" arHeight="768" duration="0" songTitle="" songArtist="" songAlbum="" />
    <MediaItem id="1560" filePath="F:\CSCI-4809\maya\projects\default\images\home_run.1559.jpg" arWidth="1024" arHeight="768" duration="0" songTitle="" songArtist="" songAlbum="" />
    <MediaItem id="1561" filePath="F:\CSCI-4809\maya\projects\default\images\home_run.1560.jpg" arWidth="1024" arHeight="768" duration="0" songTitle="" songArtist="" songAlbum="" />
    <MediaItem id="1562" filePath="F:\CSCI-4809\maya\projects\default\images\home_run.1561.jpg" arWidth="1024" arHeight="768" duration="0" songTitle="" songArtist="" songAlbum="" />
    <MediaItem id="1563" filePath="F:\CSCI-4809\maya\projects\default\images\home_run.1562.jpg" arWidth="1024" arHeight="768" duration="0" songTitle="" songArtist="" songAlbum="" />
    <MediaItem id="1564" filePath="F:\CSCI-4809\maya\projects\default\images\home_run.1563.jpg" arWidth="1024" arHeight="768" duration="0" songTitle="" songArtist="" songAlbum="" />
    <MediaItem id="1565" filePath="F:\CSCI-4809\maya\projects\default\images\home_run.1564.jpg" arWidth="1024" arHeight="768" duration="0" songTitle="" songArtist="" songAlbum="" />
    <MediaItem id="1566" filePath="F:\CSCI-4809\maya\projects\default\images\home_run.1565.jpg" arWidth="1024" arHeight="768" duration="0" songTitle="" songArtist="" songAlbum="" />
    <MediaItem id="1567" filePath="F:\CSCI-4809\maya\projects\default\images\home_run.1566.jpg" arWidth="1024" arHeight="768" duration="0" songTitle="" songArtist="" songAlbum="" />
    <MediaItem id="1568" filePath="F:\CSCI-4809\maya\projects\default\images\home_run.1567.jpg" arWidth="1024" arHeight="768" duration="0" songTitle="" songArtist="" songAlbum="" />
    <MediaItem id="1569" filePath="F:\CSCI-4809\maya\projects\default\images\home_run.1568.jpg" arWidth="1024" arHeight="768" duration="0" songTitle="" songArtist="" songAlbum="" />
    <MediaItem id="1570" filePath="F:\CSCI-4809\maya\projects\default\images\home_run.1569.jpg" arWidth="1024" arHeight="768" duration="0" songTitle="" songArtist="" songAlbum="" />
    <MediaItem id="1571" filePath="F:\CSCI-4809\maya\projects\default\images\home_run.1570.jpg" arWidth="1024" arHeight="768" duration="0" songTitle="" songArtist="" songAlbum="" />
    <MediaItem id="1572" filePath="F:\CSCI-4809\maya\projects\default\images\home_run.1571.jpg" arWidth="1024" arHeight="768" duration="0" songTitle="" songArtist="" songAlbum="" />
    <MediaItem id="1573" filePath="F:\CSCI-4809\maya\projects\default\images\home_run.1572.jpg" arWidth="1024" arHeight="768" duration="0" songTitle="" songArtist="" songAlbum="" />
    <MediaItem id="1574" filePath="F:\CSCI-4809\maya\projects\default\images\home_run.1573.jpg" arWidth="1024" arHeight="768" duration="0" songTitle="" songArtist="" songAlbum="" />
    <MediaItem id="1575" filePath="F:\CSCI-4809\maya\projects\default\images\home_run.1574.jpg" arWidth="1024" arHeight="768" duration="0" songTitle="" songArtist="" songAlbum="" />
    <MediaItem id="1576" filePath="F:\CSCI-4809\maya\projects\default\images\home_run.1575.jpg" arWidth="1024" arHeight="768" duration="0" songTitle="" songArtist="" songAlbum="" />
    <MediaItem id="1577" filePath="F:\CSCI-4809\maya\projects\default\images\home_run.1576.jpg" arWidth="1024" arHeight="768" duration="0" songTitle="" songArtist="" songAlbum="" />
    <MediaItem id="1578" filePath="F:\CSCI-4809\maya\projects\default\images\home_run.1577.jpg" arWidth="1024" arHeight="768" duration="0" songTitle="" songArtist="" songAlbum="" />
    <MediaItem id="1579" filePath="F:\CSCI-4809\maya\projects\default\images\home_run.1578.jpg" arWidth="1024" arHeight="768" duration="0" songTitle="" songArtist="" songAlbum="" />
    <MediaItem id="1580" filePath="F:\CSCI-4809\maya\projects\default\images\home_run.1579.jpg" arWidth="1024" arHeight="768" duration="0" songTitle="" songArtist="" songAlbum="" />
    <MediaItem id="1581" filePath="F:\CSCI-4809\maya\projects\default\images\home_run.1580.jpg" arWidth="1024" arHeight="768" duration="0" songTitle="" songArtist="" songAlbum="" />
    <MediaItem id="1582" filePath="F:\CSCI-4809\maya\projects\default\images\home_run.1581.jpg" arWidth="1024" arHeight="768" duration="0" songTitle="" songArtist="" songAlbum="" />
    <MediaItem id="1583" filePath="F:\CSCI-4809\maya\projects\default\images\home_run.1582.jpg" arWidth="1024" arHeight="768" duration="0" songTitle="" songArtist="" songAlbum="" />
    <MediaItem id="1584" filePath="F:\CSCI-4809\maya\projects\default\images\home_run.1583.jpg" arWidth="1024" arHeight="768" duration="0" songTitle="" songArtist="" songAlbum="" />
    <MediaItem id="1585" filePath="F:\CSCI-4809\maya\projects\default\images\home_run.1584.jpg" arWidth="1024" arHeight="768" duration="0" songTitle="" songArtist="" songAlbum="" />
    <MediaItem id="1586" filePath="F:\CSCI-4809\maya\projects\default\images\home_run.1585.jpg" arWidth="1024" arHeight="768" duration="0" songTitle="" songArtist="" songAlbum="" />
    <MediaItem id="1587" filePath="F:\CSCI-4809\maya\projects\default\images\home_run.1586.jpg" arWidth="1024" arHeight="768" duration="0" songTitle="" songArtist="" songAlbum="" />
    <MediaItem id="1588" filePath="F:\CSCI-4809\maya\projects\default\images\home_run.1587.jpg" arWidth="1024" arHeight="768" duration="0" songTitle="" songArtist="" songAlbum="" />
    <MediaItem id="1589" filePath="F:\CSCI-4809\maya\projects\default\images\home_run.1588.jpg" arWidth="1024" arHeight="768" duration="0" songTitle="" songArtist="" songAlbum="" />
    <MediaItem id="1590" filePath="F:\CSCI-4809\maya\projects\default\images\home_run.1589.jpg" arWidth="1024" arHeight="768" duration="0" songTitle="" songArtist="" songAlbum="" />
    <MediaItem id="1591" filePath="F:\CSCI-4809\maya\projects\default\images\home_run.1590.jpg" arWidth="1024" arHeight="768" duration="0" songTitle="" songArtist="" songAlbum="" />
    <MediaItem id="1592" filePath="F:\CSCI-4809\maya\projects\default\images\home_run.1591.jpg" arWidth="1024" arHeight="768" duration="0" songTitle="" songArtist="" songAlbum="" />
    <MediaItem id="1593" filePath="F:\CSCI-4809\maya\projects\default\images\home_run.1592.jpg" arWidth="1024" arHeight="768" duration="0" songTitle="" songArtist="" songAlbum="" />
    <MediaItem id="1594" filePath="F:\CSCI-4809\maya\projects\default\images\home_run.1593.jpg" arWidth="1024" arHeight="768" duration="0" songTitle="" songArtist="" songAlbum="" />
    <MediaItem id="1595" filePath="F:\CSCI-4809\maya\projects\default\images\home_run.1594.jpg" arWidth="1024" arHeight="768" duration="0" songTitle="" songArtist="" songAlbum="" />
    <MediaItem id="1596" filePath="F:\CSCI-4809\maya\projects\default\images\home_run.1595.jpg" arWidth="1024" arHeight="768" duration="0" songTitle="" songArtist="" songAlbum="" />
    <MediaItem id="1597" filePath="F:\CSCI-4809\maya\projects\default\images\home_run.1596.jpg" arWidth="1024" arHeight="768" duration="0" songTitle="" songArtist="" songAlbum="" />
    <MediaItem id="1598" filePath="F:\CSCI-4809\maya\projects\default\images\home_run.1597.jpg" arWidth="1024" arHeight="768" duration="0" songTitle="" songArtist="" songAlbum="" />
    <MediaItem id="1599" filePath="F:\CSCI-4809\maya\projects\default\images\home_run.1598.jpg" arWidth="1024" arHeight="768" duration="0" songTitle="" songArtist="" songAlbum="" />
    <MediaItem id="1600" filePath="F:\CSCI-4809\maya\projects\default\images\home_run.1599.jpg" arWidth="1024" arHeight="768" duration="0" songTitle="" songArtist="" songAlbum="" />
    <MediaItem id="1601" filePath="F:\CSCI-4809\maya\projects\default\images\home_run.1600.jpg" arWidth="1024" arHeight="768" duration="0" songTitle="" songArtist="" songAlbum="" />
    <MediaItem id="1602" filePath="F:\CSCI-4809\maya\projects\default\images\home_run.1601.jpg" arWidth="1024" arHeight="768" duration="0" songTitle="" songArtist="" songAlbum="" />
    <MediaItem id="1603" filePath="F:\CSCI-4809\maya\projects\default\images\home_run.1602.jpg" arWidth="1024" arHeight="768" duration="0" songTitle="" songArtist="" songAlbum="" />
    <MediaItem id="1604" filePath="F:\CSCI-4809\maya\projects\default\images\home_run.1603.jpg" arWidth="1024" arHeight="768" duration="0" songTitle="" songArtist="" songAlbum="" />
    <MediaItem id="1605" filePath="F:\CSCI-4809\maya\projects\default\images\home_run.1604.jpg" arWidth="1024" arHeight="768" duration="0" songTitle="" songArtist="" songAlbum="" />
    <MediaItem id="1606" filePath="F:\CSCI-4809\maya\projects\default\images\home_run.1605.jpg" arWidth="1024" arHeight="768" duration="0" songTitle="" songArtist="" songAlbum="" />
    <MediaItem id="1607" filePath="F:\CSCI-4809\maya\projects\default\images\home_run.1606.jpg" arWidth="1024" arHeight="768" duration="0" songTitle="" songArtist="" songAlbum="" />
    <MediaItem id="1608" filePath="F:\CSCI-4809\maya\projects\default\images\home_run.1607.jpg" arWidth="1024" arHeight="768" duration="0" songTitle="" songArtist="" songAlbum="" />
    <MediaItem id="1609" filePath="F:\CSCI-4809\maya\projects\default\images\home_run.1608.jpg" arWidth="1024" arHeight="768" duration="0" songTitle="" songArtist="" songAlbum="" />
    <MediaItem id="1610" filePath="F:\CSCI-4809\maya\projects\default\images\home_run.1609.jpg" arWidth="1024" arHeight="768" duration="0" songTitle="" songArtist="" songAlbum="" />
    <MediaItem id="1611" filePath="F:\CSCI-4809\maya\projects\default\images\home_run.1610.jpg" arWidth="1024" arHeight="768" duration="0" songTitle="" songArtist="" songAlbum="" />
    <MediaItem id="1612" filePath="F:\CSCI-4809\maya\projects\default\images\home_run.1611.jpg" arWidth="1024" arHeight="768" duration="0" songTitle="" songArtist="" songAlbum="" />
    <MediaItem id="1613" filePath="F:\CSCI-4809\maya\projects\default\images\home_run.1612.jpg" arWidth="1024" arHeight="768" duration="0" songTitle="" songArtist="" songAlbum="" />
    <MediaItem id="1614" filePath="F:\CSCI-4809\maya\projects\default\images\home_run.1613.jpg" arWidth="1024" arHeight="768" duration="0" songTitle="" songArtist="" songAlbum="" />
    <MediaItem id="1615" filePath="F:\CSCI-4809\maya\projects\default\images\home_run.1614.jpg" arWidth="1024" arHeight="768" duration="0" songTitle="" songArtist="" songAlbum="" />
    <MediaItem id="1616" filePath="F:\CSCI-4809\maya\projects\default\images\home_run.1615.jpg" arWidth="1024" arHeight="768" duration="0" songTitle="" songArtist="" songAlbum="" />
    <MediaItem id="1617" filePath="F:\CSCI-4809\maya\projects\default\images\home_run.1616.jpg" arWidth="1024" arHeight="768" duration="0" songTitle="" songArtist="" songAlbum="" />
    <MediaItem id="1618" filePath="F:\CSCI-4809\maya\projects\default\images\home_run.1617.jpg" arWidth="1024" arHeight="768" duration="0" songTitle="" songArtist="" songAlbum="" />
    <MediaItem id="1619" filePath="F:\CSCI-4809\maya\projects\default\images\home_run.1618.jpg" arWidth="1024" arHeight="768" duration="0" songTitle="" songArtist="" songAlbum="" />
    <MediaItem id="1620" filePath="F:\CSCI-4809\maya\projects\default\images\home_run.1619.jpg" arWidth="1024" arHeight="768" duration="0" songTitle="" songArtist="" songAlbum="" />
    <MediaItem id="1621" filePath="F:\CSCI-4809\maya\projects\default\images\home_run.1620.jpg" arWidth="1024" arHeight="768" duration="0" songTitle="" songArtist="" songAlbum="" />
    <MediaItem id="1622" filePath="F:\CSCI-4809\maya\projects\default\images\home_run.1621.jpg" arWidth="1024" arHeight="768" duration="0" songTitle="" songArtist="" songAlbum="" />
    <MediaItem id="1623" filePath="F:\CSCI-4809\maya\projects\default\images\home_run.1622.jpg" arWidth="1024" arHeight="768" duration="0" songTitle="" songArtist="" songAlbum="" />
    <MediaItem id="1624" filePath="F:\CSCI-4809\maya\projects\default\images\home_run.1623.jpg" arWidth="1024" arHeight="768" duration="0" songTitle="" songArtist="" songAlbum="" />
    <MediaItem id="1625" filePath="F:\CSCI-4809\maya\projects\default\images\home_run.1624.jpg" arWidth="1024" arHeight="768" duration="0" songTitle="" songArtist="" songAlbum="" />
    <MediaItem id="1626" filePath="F:\CSCI-4809\maya\projects\default\images\home_run.1625.jpg" arWidth="1024" arHeight="768" duration="0" songTitle="" songArtist="" songAlbum="" />
  </MediaItems>
  <Extents>
    <ImageClip extentID="1627" gapBefore="0" mediaItemID="1623" duration="0.040000000000000001">
      <Effects />
      <Transitions />
      <BoundProperties>
        <BoundPropertyInt Name="rotateStepNinety" Value="0" />
      </BoundProperties>
    </ImageClip>
    <ImageClip extentID="1628" gapBefore="0" mediaItemID="1624" duration="0.040000000000000001">
      <Effects />
      <Transitions />
      <BoundProperties>
        <BoundPropertyInt Name="rotateStepNinety" Value="0" />
      </BoundProperties>
    </ImageClip>
    <ImageClip extentID="1629" gapBefore="0" mediaItemID="1625" duration="0.040000000000000001">
      <Effects />
      <Transitions />
      <BoundProperties>
        <BoundPropertyInt Name="rotateStepNinety" Value="0" />
      </BoundProperties>
    </ImageClip>
    <ImageClip extentID="1630" gapBefore="0" mediaItemID="1626" duration="0.040000000000000001">
      <Effects />
      <Transitions />
      <BoundProperties>
        <BoundPropertyInt Name="rotateStepNinety" Value="0" />
      </BoundProperties>
    </ImageClip>
    <ImageClip extentID="1631" gapBefore="0" mediaItemID="1627" duration="0.040000000000000001">
      <Effects />
      <Transitions />
      <BoundProperties>
        <BoundPropertyInt Name="rotateStepNinety" Value="0" />
      </BoundProperties>
    </ImageClip>
    <ImageClip extentID="1632" gapBefore="0" mediaItemID="1628" duration="0.040000000000000001">
      <Effects />
      <Transitions />
      <BoundProperties>
        <BoundPropertyInt Name="rotateStepNinety" Value="0" />
      </BoundProperties>
    </ImageClip>
    <ImageClip extentID="5" gapBefore="0" mediaItemID="1" duration="0.050000000000000003">
      <Effects />
      <Transitions />
      <BoundProperties>
        <BoundPropertyInt Name="rotateStepNinety" Value="0" />
      </BoundProperties>
    </ImageClip>
    <ImageClip extentID="1633" gapBefore="0" mediaItemID="1629" duration="0.040000000000000001">
      <Effects />
      <Transitions />
      <BoundProperties>
        <BoundPropertyInt Name="rotateStepNinety" Value="0" />
      </BoundProperties>
    </ImageClip>
    <ImageClip extentID="6" gapBefore="0" mediaItemID="2" duration="0.050000000000000003">
      <Effects />
      <Transitions />
      <BoundProperties>
        <BoundPropertyInt Name="rotateStepNinety" Value="0" />
      </BoundProperties>
    </ImageClip>
    <ImageClip extentID="1634" gapBefore="0" mediaItemID="1630" duration="0.040000000000000001">
      <Effects />
      <Transitions />
      <BoundProperties>
        <BoundPropertyInt Name="rotateStepNinety" Value="0" />
      </BoundProperties>
    </ImageClip>
    <ImageClip extentID="7" gapBefore="0" mediaItemID="3" duration="0.050000000000000003">
      <Effects />
      <Transitions />
      <BoundProperties>
        <BoundPropertyInt Name="rotateStepNinety" Value="0" />
      </BoundProperties>
    </ImageClip>
    <ImageClip extentID="1635" gapBefore="0" mediaItemID="1631" duration="0.040000000000000001">
      <Effects />
      <Transitions />
      <BoundProperties>
        <BoundPropertyInt Name="rotateStepNinety" Value="0" />
      </BoundProperties>
    </ImageClip>
    <ImageClip extentID="8" gapBefore="0" mediaItemID="4" duration="0.050000000000000003">
      <Effects />
      <Transitions />
      <BoundProperties>
        <BoundPropertyInt Name="rotateStepNinety" Value="0" />
      </BoundProperties>
    </ImageClip>
    <ImageClip extentID="1636" gapBefore="0" mediaItemID="1632" duration="0.040000000000000001">
      <Effects />
      <Transitions />
      <BoundProperties>
        <BoundPropertyInt Name="rotateStepNinety" Value="0" />
      </BoundProperties>
    </ImageClip>
    <ImageClip extentID="9" gapBefore="0" mediaItemID="5" duration="0.050000000000000003">
      <Effects />
      <Transitions />
      <BoundProperties>
        <BoundPropertyInt Name="rotateStepNinety" Value="0" />
      </BoundProperties>
    </ImageClip>
    <ImageClip extentID="1637" gapBefore="0" mediaItemID="1633" duration="0.040000000000000001">
      <Effects />
      <Transitions />
      <BoundProperties>
        <BoundPropertyInt Name="rotateStepNinety" Value="0" />
      </BoundProperties>
    </ImageClip>
    <ImageClip extentID="10" gapBefore="0" mediaItemID="6" duration="0.050000000000000003">
      <Effects />
      <Transitions />
      <BoundProperties>
        <BoundPropertyInt Name="rotateStepNinety" Value="0" />
      </BoundProperties>
    </ImageClip>
    <ImageClip extentID="1638" gapBefore="0" mediaItemID="1634" duration="0.040000000000000001">
      <Effects />
      <Transitions />
      <BoundProperties>
        <BoundPropertyInt Name="rotateStepNinety" Value="0" />
      </BoundProperties>
    </ImageClip>
    <ImageClip extentID="11" gapBefore="0" mediaItemID="7" duration="0.050000000000000003">
      <Effects />
      <Transitions />
      <BoundProperties>
        <BoundPropertyInt Name="rotateStepNinety" Value="0" />
      </BoundProperties>
    </ImageClip>
    <ImageClip extentID="1639" gapBefore="0" mediaItemID="1635" duration="0.040000000000000001">
      <Effects />
      <Transitions />
      <BoundProperties>
        <BoundPropertyInt Name="rotateStepNinety" Value="0" />
      </BoundProperties>
    </ImageClip>
    <ImageClip extentID="12" gapBefore="0" mediaItemID="8" duration="0.050000000000000003">
      <Effects />
      <Transitions />
      <BoundProperties>
        <BoundPropertyInt Name="rotateStepNinety" Value="0" />
      </BoundProperties>
    </ImageClip>
    <ImageClip extentID="1640" gapBefore="0" mediaItemID="1636" duration="0.040000000000000001">
      <Effects />
      <Transitions />
      <BoundProperties>
        <BoundPropertyInt Name="rotateStepNinety" Value="0" />
      </BoundProperties>
    </ImageClip>
    <ImageClip extentID="13" gapBefore="0" mediaItemID="9" duration="0.050000000000000003">
      <Effects />
      <Transitions />
      <BoundProperties>
        <BoundPropertyInt Name="rotateStepNinety" Value="0" />
      </BoundProperties>
    </ImageClip>
    <ImageClip extentID="1641" gapBefore="0" mediaItemID="1637" duration="0.040000000000000001">
      <Effects />
      <Transitions />
      <BoundProperties>
        <BoundPropertyInt Name="rotateStepNinety" Value="0" />
      </BoundProperties>
    </ImageClip>
    <ImageClip extentID="14" gapBefore="0" mediaItemID="10" duration="0.050000000000000003">
      <Effects />
      <Transitions />
      <BoundProperties>
        <BoundPropertyInt Name="rotateStepNinety" Value="0" />
      </BoundProperties>
    </ImageClip>
    <ImageClip extentID="1642" gapBefore="0" mediaItemID="1638" duration="0.040000000000000001">
      <Effects />
      <Transitions />
      <BoundProperties>
        <BoundPropertyInt Name="rotateStepNinety" Value="0" />
      </BoundProperties>
    </ImageClip>
    <ImageClip extentID="15" gapBefore="0" mediaItemID="11" duration="0.050000000000000003">
      <Effects />
      <Transitions />
      <BoundProperties>
        <BoundPropertyInt Name="rotateStepNinety" Value="0" />
      </BoundProperties>
    </ImageClip>
    <ImageClip extentID="1643" gapBefore="0" mediaItemID="1639" duration="0.040000000000000001">
      <Effects />
      <Transitions />
      <BoundProperties>
        <BoundPropertyInt Name="rotateStepNinety" Value="0" />
      </BoundProperties>
    </ImageClip>
    <ImageClip extentID="16" gapBefore="0" mediaItemID="12" duration="0.050000000000000003">
      <Effects />
      <Transitions />
      <BoundProperties>
        <BoundPropertyInt Name="rotateStepNinety" Value="0" />
      </BoundProperties>
    </ImageClip>
    <ImageClip extentID="1644" gapBefore="0" mediaItemID="1640" duration="0.040000000000000001">
      <Effects />
      <Transitions />
      <BoundProperties>
        <BoundPropertyInt Name="rotateStepNinety" Value="0" />
      </BoundProperties>
    </ImageClip>
    <ImageClip extentID="17" gapBefore="0" mediaItemID="13" duration="0.050000000000000003">
      <Effects />
      <Transitions />
      <BoundProperties>
        <BoundPropertyInt Name="rotateStepNinety" Value="0" />
      </BoundProperties>
    </ImageClip>
    <ImageClip extentID="1645" gapBefore="0" mediaItemID="1641" duration="0.040000000000000001">
      <Effects />
      <Transitions />
      <BoundProperties>
        <BoundPropertyInt Name="rotateStepNinety" Value="0" />
      </BoundProperties>
    </ImageClip>
    <ImageClip extentID="18" gapBefore="0" mediaItemID="14" duration="0.050000000000000003">
      <Effects />
      <Transitions />
      <BoundProperties>
        <BoundPropertyInt Name="rotateStepNinety" Value="0" />
      </BoundProperties>
    </ImageClip>
    <ImageClip extentID="1646" gapBefore="0" mediaItemID="1642" duration="0.040000000000000001">
      <Effects />
      <Transitions />
      <BoundProperties>
        <BoundPropertyInt Name="rotateStepNinety" Value="0" />
      </BoundProperties>
    </ImageClip>
    <ImageClip extentID="19" gapBefore="0" mediaItemID="15" duration="0.050000000000000003">
      <Effects />
      <Transitions />
      <BoundProperties>
        <BoundPropertyInt Name="rotateStepNinety" Value="0" />
      </BoundProperties>
    </ImageClip>
    <ImageClip extentID="1647" gapBefore="0" mediaItemID="1643" duration="0.040000000000000001">
      <Effects />
      <Transitions />
      <BoundProperties>
        <BoundPropertyInt Name="rotateStepNinety" Value="0" />
      </BoundProperties>
    </ImageClip>
    <ImageClip extentID="20" gapBefore="0" mediaItemID="16" duration="0.050000000000000003">
      <Effects />
      <Transitions />
      <BoundProperties>
        <BoundPropertyInt Name="rotateStepNinety" Value="0" />
      </BoundProperties>
    </ImageClip>
    <ImageClip extentID="1648" gapBefore="0" mediaItemID="1644" duration="0.040000000000000001">
      <Effects />
      <Transitions />
      <BoundProperties>
        <BoundPropertyInt Name="rotateStepNinety" Value="0" />
      </BoundProperties>
    </ImageClip>
    <ImageClip extentID="21" gapBefore="0" mediaItemID="17" duration="0.050000000000000003">
      <Effects />
      <Transitions />
      <BoundProperties>
        <BoundPropertyInt Name="rotateStepNinety" Value="0" />
      </BoundProperties>
    </ImageClip>
    <ImageClip extentID="1649" gapBefore="0" mediaItemID="1645" duration="0.040000000000000001">
      <Effects />
      <Transitions />
      <BoundProperties>
        <BoundPropertyInt Name="rotateStepNinety" Value="0" />
      </BoundProperties>
    </ImageClip>
    <ImageClip extentID="22" gapBefore="0" mediaItemID="18" duration="0.050000000000000003">
      <Effects />
      <Transitions />
      <BoundProperties>
        <BoundPropertyInt Name="rotateStepNinety" Value="0" />
      </BoundProperties>
    </ImageClip>
    <ImageClip extentID="1650" gapBefore="0" mediaItemID="1646" duration="0.040000000000000001">
      <Effects />
      <Transitions />
      <BoundProperties>
        <BoundPropertyInt Name="rotateStepNinety" Value="0" />
      </BoundProperties>
    </ImageClip>
    <ImageClip extentID="23" gapBefore="0" mediaItemID="19" duration="0.050000000000000003">
      <Effects />
      <Transitions />
      <BoundProperties>
        <BoundPropertyInt Name="rotateStepNinety" Value="0" />
      </BoundProperties>
    </ImageClip>
    <ImageClip extentID="1651" gapBefore="0" mediaItemID="1647" duration="0.040000000000000001">
      <Effects />
      <Transitions />
      <BoundProperties>
        <BoundPropertyInt Name="rotateStepNinety" Value="0" />
      </BoundProperties>
    </ImageClip>
    <ImageClip extentID="24" gapBefore="0" mediaItemID="20" duration="0.050000000000000003">
      <Effects />
      <Transitions />
      <BoundProperties>
        <BoundPropertyInt Name="rotateStepNinety" Value="0" />
      </BoundProperties>
    </ImageClip>
    <ImageClip extentID="1652" gapBefore="0" mediaItemID="1648" duration="0.040000000000000001">
      <Effects />
      <Transitions />
      <BoundProperties>
        <BoundPropertyInt Name="rotateStepNinety" Value="0" />
      </BoundProperties>
    </ImageClip>
    <ImageClip extentID="25" gapBefore="0" mediaItemID="21" duration="0.050000000000000003">
      <Effects />
      <Transitions />
      <BoundProperties>
        <BoundPropertyInt Name="rotateStepNinety" Value="0" />
      </BoundProperties>
    </ImageClip>
    <ImageClip extentID="1653" gapBefore="0" mediaItemID="1649" duration="0.040000000000000001">
      <Effects />
      <Transitions />
      <BoundProperties>
        <BoundPropertyInt Name="rotateStepNinety" Value="0" />
      </BoundProperties>
    </ImageClip>
    <ImageClip extentID="26" gapBefore="0" mediaItemID="22" duration="0.050000000000000003">
      <Effects />
      <Transitions />
      <BoundProperties>
        <BoundPropertyInt Name="rotateStepNinety" Value="0" />
      </BoundProperties>
    </ImageClip>
    <ImageClip extentID="1654" gapBefore="0" mediaItemID="1650" duration="0.040000000000000001">
      <Effects />
      <Transitions />
      <BoundProperties>
        <BoundPropertyInt Name="rotateStepNinety" Value="0" />
      </BoundProperties>
    </ImageClip>
    <ImageClip extentID="27" gapBefore="0" mediaItemID="23" duration="0.050000000000000003">
      <Effects />
      <Transitions />
      <BoundProperties>
        <BoundPropertyInt Name="rotateStepNinety" Value="0" />
      </BoundProperties>
    </ImageClip>
    <ImageClip extentID="1655" gapBefore="0" mediaItemID="1651" duration="0.040000000000000001">
      <Effects />
      <Transitions />
      <BoundProperties>
        <BoundPropertyInt Name="rotateStepNinety" Value="0" />
      </BoundProperties>
    </ImageClip>
    <ImageClip extentID="28" gapBefore="0" mediaItemID="24" duration="0.050000000000000003">
      <Effects />
      <Transitions />
      <BoundProperties>
        <BoundPropertyInt Name="rotateStepNinety" Value="0" />
      </BoundProperties>
    </ImageClip>
    <ImageClip extentID="1656" gapBefore="0" mediaItemID="1652" duration="0.040000000000000001">
      <Effects />
      <Transitions />
      <BoundProperties>
        <BoundPropertyInt Name="rotateStepNinety" Value="0" />
      </BoundProperties>
    </ImageClip>
    <ImageClip extentID="29" gapBefore="0" mediaItemID="25" duration="0.050000000000000003">
      <Effects />
      <Transitions />
      <BoundProperties>
        <BoundPropertyInt Name="rotateStepNinety" Value="0" />
      </BoundProperties>
    </ImageClip>
    <ImageClip extentID="1657" gapBefore="0" mediaItemID="1653" duration="0.040000000000000001">
      <Effects />
      <Transitions />
      <BoundProperties>
        <BoundPropertyInt Name="rotateStepNinety" Value="0" />
      </BoundProperties>
    </ImageClip>
    <ImageClip extentID="30" gapBefore="0" mediaItemID="26" duration="0.050000000000000003">
      <Effects />
      <Transitions />
      <BoundProperties>
        <BoundPropertyInt Name="rotateStepNinety" Value="0" />
      </BoundProperties>
    </ImageClip>
    <ImageClip extentID="1658" gapBefore="0" mediaItemID="1654" duration="0.040000000000000001">
      <Effects />
      <Transitions />
      <BoundProperties>
        <BoundPropertyInt Name="rotateStepNinety" Value="0" />
      </BoundProperties>
    </ImageClip>
    <ImageClip extentID="31" gapBefore="0" mediaItemID="27" duration="0.050000000000000003">
      <Effects />
      <Transitions />
      <BoundProperties>
        <BoundPropertyInt Name="rotateStepNinety" Value="0" />
      </BoundProperties>
    </ImageClip>
    <ImageClip extentID="1659" gapBefore="0" mediaItemID="1655" duration="0.040000000000000001">
      <Effects />
      <Transitions />
      <BoundProperties>
        <BoundPropertyInt Name="rotateStepNinety" Value="0" />
      </BoundProperties>
    </ImageClip>
    <ImageClip extentID="32" gapBefore="0" mediaItemID="28" duration="0.050000000000000003">
      <Effects />
      <Transitions />
      <BoundProperties>
        <BoundPropertyInt Name="rotateStepNinety" Value="0" />
      </BoundProperties>
    </ImageClip>
    <ImageClip extentID="1660" gapBefore="0" mediaItemID="1656" duration="0.040000000000000001">
      <Effects />
      <Transitions />
      <BoundProperties>
        <BoundPropertyInt Name="rotateStepNinety" Value="0" />
      </BoundProperties>
    </ImageClip>
    <ImageClip extentID="33" gapBefore="0" mediaItemID="29" duration="0.050000000000000003">
      <Effects />
      <Transitions />
      <BoundProperties>
        <BoundPropertyInt Name="rotateStepNinety" Value="0" />
      </BoundProperties>
    </ImageClip>
    <ImageClip extentID="1661" gapBefore="0" mediaItemID="1657" duration="0.040000000000000001">
      <Effects />
      <Transitions />
      <BoundProperties>
        <BoundPropertyInt Name="rotateStepNinety" Value="0" />
      </BoundProperties>
    </ImageClip>
    <ImageClip extentID="34" gapBefore="0" mediaItemID="30" duration="0.050000000000000003">
      <Effects />
      <Transitions />
      <BoundProperties>
        <BoundPropertyInt Name="rotateStepNinety" Value="0" />
      </BoundProperties>
    </ImageClip>
    <ImageClip extentID="1662" gapBefore="0" mediaItemID="1658" duration="0.040000000000000001">
      <Effects />
      <Transitions />
      <BoundProperties>
        <BoundPropertyInt Name="rotateStepNinety" Value="0" />
      </BoundProperties>
    </ImageClip>
    <ImageClip extentID="35" gapBefore="0" mediaItemID="31" duration="0.050000000000000003">
      <Effects />
      <Transitions />
      <BoundProperties>
        <BoundPropertyInt Name="rotateStepNinety" Value="0" />
      </BoundProperties>
    </ImageClip>
    <ImageClip extentID="1663" gapBefore="0" mediaItemID="1659" duration="0.040000000000000001">
      <Effects />
      <Transitions />
      <BoundProperties>
        <BoundPropertyInt Name="rotateStepNinety" Value="0" />
      </BoundProperties>
    </ImageClip>
    <ImageClip extentID="36" gapBefore="0" mediaItemID="32" duration="0.050000000000000003">
      <Effects />
      <Transitions />
      <BoundProperties>
        <BoundPropertyInt Name="rotateStepNinety" Value="0" />
      </BoundProperties>
    </ImageClip>
    <ImageClip extentID="1664" gapBefore="0" mediaItemID="1660" duration="0.040000000000000001">
      <Effects />
      <Transitions />
      <BoundProperties>
        <BoundPropertyInt Name="rotateStepNinety" Value="0" />
      </BoundProperties>
    </ImageClip>
    <ImageClip extentID="37" gapBefore="0" mediaItemID="33" duration="0.050000000000000003">
      <Effects />
      <Transitions />
      <BoundProperties>
        <BoundPropertyInt Name="rotateStepNinety" Value="0" />
      </BoundProperties>
    </ImageClip>
    <ImageClip extentID="1665" gapBefore="0" mediaItemID="1661" duration="0.040000000000000001">
      <Effects />
      <Transitions />
      <BoundProperties>
        <BoundPropertyInt Name="rotateStepNinety" Value="0" />
      </BoundProperties>
    </ImageClip>
    <ImageClip extentID="38" gapBefore="0" mediaItemID="34" duration="0.050000000000000003">
      <Effects />
      <Transitions />
      <BoundProperties>
        <BoundPropertyInt Name="rotateStepNinety" Value="0" />
      </BoundProperties>
    </ImageClip>
    <ImageClip extentID="1666" gapBefore="0" mediaItemID="1662" duration="0.040000000000000001">
      <Effects />
      <Transitions />
      <BoundProperties>
        <BoundPropertyInt Name="rotateStepNinety" Value="0" />
      </BoundProperties>
    </ImageClip>
    <ImageClip extentID="39" gapBefore="0" mediaItemID="35" duration="0.050000000000000003">
      <Effects />
      <Transitions />
      <BoundProperties>
        <BoundPropertyInt Name="rotateStepNinety" Value="0" />
      </BoundProperties>
    </ImageClip>
    <ImageClip extentID="1667" gapBefore="0" mediaItemID="1663" duration="0.040000000000000001">
      <Effects />
      <Transitions />
      <BoundProperties>
        <BoundPropertyInt Name="rotateStepNinety" Value="0" />
      </BoundProperties>
    </ImageClip>
    <ImageClip extentID="40" gapBefore="0" mediaItemID="36" duration="0.050000000000000003">
      <Effects />
      <Transitions />
      <BoundProperties>
        <BoundPropertyInt Name="rotateStepNinety" Value="0" />
      </BoundProperties>
    </ImageClip>
    <ImageClip extentID="1668" gapBefore="0" mediaItemID="1664" duration="0.040000000000000001">
      <Effects />
      <Transitions />
      <BoundProperties>
        <BoundPropertyInt Name="rotateStepNinety" Value="0" />
      </BoundProperties>
    </ImageClip>
    <ImageClip extentID="41" gapBefore="0" mediaItemID="37" duration="0.050000000000000003">
      <Effects />
      <Transitions />
      <BoundProperties>
        <BoundPropertyInt Name="rotateStepNinety" Value="0" />
      </BoundProperties>
    </ImageClip>
    <ImageClip extentID="1669" gapBefore="0" mediaItemID="1665" duration="0.040000000000000001">
      <Effects />
      <Transitions />
      <BoundProperties>
        <BoundPropertyInt Name="rotateStepNinety" Value="0" />
      </BoundProperties>
    </ImageClip>
    <ImageClip extentID="42" gapBefore="0" mediaItemID="38" duration="0.050000000000000003">
      <Effects />
      <Transitions />
      <BoundProperties>
        <BoundPropertyInt Name="rotateStepNinety" Value="0" />
      </BoundProperties>
    </ImageClip>
    <ImageClip extentID="1670" gapBefore="0" mediaItemID="1666" duration="0.040000000000000001">
      <Effects />
      <Transitions />
      <BoundProperties>
        <BoundPropertyInt Name="rotateStepNinety" Value="0" />
      </BoundProperties>
    </ImageClip>
    <ImageClip extentID="43" gapBefore="0" mediaItemID="39" duration="0.050000000000000003">
      <Effects />
      <Transitions />
      <BoundProperties>
        <BoundPropertyInt Name="rotateStepNinety" Value="0" />
      </BoundProperties>
    </ImageClip>
    <ImageClip extentID="1671" gapBefore="0" mediaItemID="1667" duration="0.040000000000000001">
      <Effects />
      <Transitions />
      <BoundProperties>
        <BoundPropertyInt Name="rotateStepNinety" Value="0" />
      </BoundProperties>
    </ImageClip>
    <ImageClip extentID="44" gapBefore="0" mediaItemID="40" duration="0.050000000000000003">
      <Effects />
      <Transitions />
      <BoundProperties>
        <BoundPropertyInt Name="rotateStepNinety" Value="0" />
      </BoundProperties>
    </ImageClip>
    <ImageClip extentID="1672" gapBefore="0" mediaItemID="1668" duration="0.040000000000000001">
      <Effects />
      <Transitions />
      <BoundProperties>
        <BoundPropertyInt Name="rotateStepNinety" Value="0" />
      </BoundProperties>
    </ImageClip>
    <ImageClip extentID="45" gapBefore="0" mediaItemID="41" duration="0.050000000000000003">
      <Effects />
      <Transitions />
      <BoundProperties>
        <BoundPropertyInt Name="rotateStepNinety" Value="0" />
      </BoundProperties>
    </ImageClip>
    <ImageClip extentID="1673" gapBefore="0" mediaItemID="1669" duration="0.040000000000000001">
      <Effects />
      <Transitions />
      <BoundProperties>
        <BoundPropertyInt Name="rotateStepNinety" Value="0" />
      </BoundProperties>
    </ImageClip>
    <ImageClip extentID="46" gapBefore="0" mediaItemID="42" duration="0.050000000000000003">
      <Effects />
      <Transitions />
      <BoundProperties>
        <BoundPropertyInt Name="rotateStepNinety" Value="0" />
      </BoundProperties>
    </ImageClip>
    <ImageClip extentID="1674" gapBefore="0" mediaItemID="1670" duration="0.040000000000000001">
      <Effects />
      <Transitions />
      <BoundProperties>
        <BoundPropertyInt Name="rotateStepNinety" Value="0" />
      </BoundProperties>
    </ImageClip>
    <ImageClip extentID="47" gapBefore="0" mediaItemID="43" duration="0.050000000000000003">
      <Effects />
      <Transitions />
      <BoundProperties>
        <BoundPropertyInt Name="rotateStepNinety" Value="0" />
      </BoundProperties>
    </ImageClip>
    <ImageClip extentID="1675" gapBefore="0" mediaItemID="1671" duration="0.040000000000000001">
      <Effects />
      <Transitions />
      <BoundProperties>
        <BoundPropertyInt Name="rotateStepNinety" Value="0" />
      </BoundProperties>
    </ImageClip>
    <ImageClip extentID="48" gapBefore="0" mediaItemID="44" duration="0.050000000000000003">
      <Effects />
      <Transitions />
      <BoundProperties>
        <BoundPropertyInt Name="rotateStepNinety" Value="0" />
      </BoundProperties>
    </ImageClip>
    <ImageClip extentID="1676" gapBefore="0" mediaItemID="1672" duration="0.040000000000000001">
      <Effects />
      <Transitions />
      <BoundProperties>
        <BoundPropertyInt Name="rotateStepNinety" Value="0" />
      </BoundProperties>
    </ImageClip>
    <ImageClip extentID="49" gapBefore="0" mediaItemID="45" duration="0.050000000000000003">
      <Effects />
      <Transitions />
      <BoundProperties>
        <BoundPropertyInt Name="rotateStepNinety" Value="0" />
      </BoundProperties>
    </ImageClip>
    <ImageClip extentID="1677" gapBefore="0" mediaItemID="1673" duration="0.040000000000000001">
      <Effects />
      <Transitions />
      <BoundProperties>
        <BoundPropertyInt Name="rotateStepNinety" Value="0" />
      </BoundProperties>
    </ImageClip>
    <ImageClip extentID="50" gapBefore="0" mediaItemID="46" duration="0.050000000000000003">
      <Effects />
      <Transitions />
      <BoundProperties>
        <BoundPropertyInt Name="rotateStepNinety" Value="0" />
      </BoundProperties>
    </ImageClip>
    <ImageClip extentID="1678" gapBefore="0" mediaItemID="1674" duration="0.040000000000000001">
      <Effects />
      <Transitions />
      <BoundProperties>
        <BoundPropertyInt Name="rotateStepNinety" Value="0" />
      </BoundProperties>
    </ImageClip>
    <ImageClip extentID="51" gapBefore="0" mediaItemID="47" duration="0.050000000000000003">
      <Effects />
      <Transitions />
      <BoundProperties>
        <BoundPropertyInt Name="rotateStepNinety" Value="0" />
      </BoundProperties>
    </ImageClip>
    <ImageClip extentID="1679" gapBefore="0" mediaItemID="1675" duration="0.040000000000000001">
      <Effects />
      <Transitions />
      <BoundProperties>
        <BoundPropertyInt Name="rotateStepNinety" Value="0" />
      </BoundProperties>
    </ImageClip>
    <ImageClip extentID="52" gapBefore="0" mediaItemID="48" duration="0.050000000000000003">
      <Effects />
      <Transitions />
      <BoundProperties>
        <BoundPropertyInt Name="rotateStepNinety" Value="0" />
      </BoundProperties>
    </ImageClip>
    <ImageClip extentID="1680" gapBefore="0" mediaItemID="1676" duration="0.040000000000000001">
      <Effects />
      <Transitions />
      <BoundProperties>
        <BoundPropertyInt Name="rotateStepNinety" Value="0" />
      </BoundProperties>
    </ImageClip>
    <ImageClip extentID="53" gapBefore="0" mediaItemID="49" duration="0.050000000000000003">
      <Effects />
      <Transitions />
      <BoundProperties>
        <BoundPropertyInt Name="rotateStepNinety" Value="0" />
      </BoundProperties>
    </ImageClip>
    <ImageClip extentID="1681" gapBefore="0" mediaItemID="1677" duration="0.040000000000000001">
      <Effects />
      <Transitions />
      <BoundProperties>
        <BoundPropertyInt Name="rotateStepNinety" Value="0" />
      </BoundProperties>
    </ImageClip>
    <ImageClip extentID="54" gapBefore="0" mediaItemID="50" duration="0.050000000000000003">
      <Effects />
      <Transitions />
      <BoundProperties>
        <BoundPropertyInt Name="rotateStepNinety" Value="0" />
      </BoundProperties>
    </ImageClip>
    <ImageClip extentID="1682" gapBefore="0" mediaItemID="1678" duration="0.040000000000000001">
      <Effects />
      <Transitions />
      <BoundProperties>
        <BoundPropertyInt Name="rotateStepNinety" Value="0" />
      </BoundProperties>
    </ImageClip>
    <ImageClip extentID="55" gapBefore="0" mediaItemID="51" duration="0.050000000000000003">
      <Effects />
      <Transitions />
      <BoundProperties>
        <BoundPropertyInt Name="rotateStepNinety" Value="0" />
      </BoundProperties>
    </ImageClip>
    <ImageClip extentID="1683" gapBefore="0" mediaItemID="1679" duration="0.040000000000000001">
      <Effects />
      <Transitions />
      <BoundProperties>
        <BoundPropertyInt Name="rotateStepNinety" Value="0" />
      </BoundProperties>
    </ImageClip>
    <ImageClip extentID="56" gapBefore="0" mediaItemID="52" duration="0.050000000000000003">
      <Effects />
      <Transitions />
      <BoundProperties>
        <BoundPropertyInt Name="rotateStepNinety" Value="0" />
      </BoundProperties>
    </ImageClip>
    <ImageClip extentID="1684" gapBefore="0" mediaItemID="1680" duration="0.040000000000000001">
      <Effects />
      <Transitions />
      <BoundProperties>
        <BoundPropertyInt Name="rotateStepNinety" Value="0" />
      </BoundProperties>
    </ImageClip>
    <ImageClip extentID="57" gapBefore="0" mediaItemID="53" duration="0.050000000000000003">
      <Effects />
      <Transitions />
      <BoundProperties>
        <BoundPropertyInt Name="rotateStepNinety" Value="0" />
      </BoundProperties>
    </ImageClip>
    <ImageClip extentID="1685" gapBefore="0" mediaItemID="1681" duration="0.040000000000000001">
      <Effects />
      <Transitions />
      <BoundProperties>
        <BoundPropertyInt Name="rotateStepNinety" Value="0" />
      </BoundProperties>
    </ImageClip>
    <ImageClip extentID="58" gapBefore="0" mediaItemID="54" duration="0.050000000000000003">
      <Effects />
      <Transitions />
      <BoundProperties>
        <BoundPropertyInt Name="rotateStepNinety" Value="0" />
      </BoundProperties>
    </ImageClip>
    <ImageClip extentID="1686" gapBefore="0" mediaItemID="1682" duration="0.040000000000000001">
      <Effects />
      <Transitions />
      <BoundProperties>
        <BoundPropertyInt Name="rotateStepNinety" Value="0" />
      </BoundProperties>
    </ImageClip>
    <ImageClip extentID="59" gapBefore="0" mediaItemID="55" duration="0.050000000000000003">
      <Effects />
      <Transitions />
      <BoundProperties>
        <BoundPropertyInt Name="rotateStepNinety" Value="0" />
      </BoundProperties>
    </ImageClip>
    <ImageClip extentID="1687" gapBefore="0" mediaItemID="1683" duration="0.040000000000000001">
      <Effects />
      <Transitions />
      <BoundProperties>
        <BoundPropertyInt Name="rotateStepNinety" Value="0" />
      </BoundProperties>
    </ImageClip>
    <ImageClip extentID="60" gapBefore="0" mediaItemID="56" duration="0.050000000000000003">
      <Effects />
      <Transitions />
      <BoundProperties>
        <BoundPropertyInt Name="rotateStepNinety" Value="0" />
      </BoundProperties>
    </ImageClip>
    <ImageClip extentID="1688" gapBefore="0" mediaItemID="1684" duration="0.040000000000000001">
      <Effects />
      <Transitions />
      <BoundProperties>
        <BoundPropertyInt Name="rotateStepNinety" Value="0" />
      </BoundProperties>
    </ImageClip>
    <ImageClip extentID="61" gapBefore="0" mediaItemID="57" duration="0.050000000000000003">
      <Effects />
      <Transitions />
      <BoundProperties>
        <BoundPropertyInt Name="rotateStepNinety" Value="0" />
      </BoundProperties>
    </ImageClip>
    <ImageClip extentID="1689" gapBefore="0" mediaItemID="1685" duration="0.040000000000000001">
      <Effects />
      <Transitions />
      <BoundProperties>
        <BoundPropertyInt Name="rotateStepNinety" Value="0" />
      </BoundProperties>
    </ImageClip>
    <ImageClip extentID="62" gapBefore="0" mediaItemID="58" duration="0.050000000000000003">
      <Effects />
      <Transitions />
      <BoundProperties>
        <BoundPropertyInt Name="rotateStepNinety" Value="0" />
      </BoundProperties>
    </ImageClip>
    <ImageClip extentID="1690" gapBefore="0" mediaItemID="1686" duration="0.040000000000000001">
      <Effects />
      <Transitions />
      <BoundProperties>
        <BoundPropertyInt Name="rotateStepNinety" Value="0" />
      </BoundProperties>
    </ImageClip>
    <ImageClip extentID="63" gapBefore="0" mediaItemID="59" duration="0.050000000000000003">
      <Effects />
      <Transitions />
      <BoundProperties>
        <BoundPropertyInt Name="rotateStepNinety" Value="0" />
      </BoundProperties>
    </ImageClip>
    <ImageClip extentID="1691" gapBefore="0" mediaItemID="1687" duration="0.040000000000000001">
      <Effects />
      <Transitions />
      <BoundProperties>
        <BoundPropertyInt Name="rotateStepNinety" Value="0" />
      </BoundProperties>
    </ImageClip>
    <ImageClip extentID="64" gapBefore="0" mediaItemID="60" duration="0.050000000000000003">
      <Effects />
      <Transitions />
      <BoundProperties>
        <BoundPropertyInt Name="rotateStepNinety" Value="0" />
      </BoundProperties>
    </ImageClip>
    <ImageClip extentID="1692" gapBefore="0" mediaItemID="1688" duration="0.040000000000000001">
      <Effects />
      <Transitions />
      <BoundProperties>
        <BoundPropertyInt Name="rotateStepNinety" Value="0" />
      </BoundProperties>
    </ImageClip>
    <ImageClip extentID="65" gapBefore="0" mediaItemID="61" duration="0.050000000000000003">
      <Effects />
      <Transitions />
      <BoundProperties>
        <BoundPropertyInt Name="rotateStepNinety" Value="0" />
      </BoundProperties>
    </ImageClip>
    <ImageClip extentID="1693" gapBefore="0" mediaItemID="1689" duration="0.040000000000000001">
      <Effects />
      <Transitions />
      <BoundProperties>
        <BoundPropertyInt Name="rotateStepNinety" Value="0" />
      </BoundProperties>
    </ImageClip>
    <ImageClip extentID="66" gapBefore="0" mediaItemID="62" duration="0.050000000000000003">
      <Effects />
      <Transitions />
      <BoundProperties>
        <BoundPropertyInt Name="rotateStepNinety" Value="0" />
      </BoundProperties>
    </ImageClip>
    <ImageClip extentID="1694" gapBefore="0" mediaItemID="1690" duration="0.040000000000000001">
      <Effects />
      <Transitions />
      <BoundProperties>
        <BoundPropertyInt Name="rotateStepNinety" Value="0" />
      </BoundProperties>
    </ImageClip>
    <ImageClip extentID="67" gapBefore="0" mediaItemID="63" duration="0.050000000000000003">
      <Effects />
      <Transitions />
      <BoundProperties>
        <BoundPropertyInt Name="rotateStepNinety" Value="0" />
      </BoundProperties>
    </ImageClip>
    <ImageClip extentID="1695" gapBefore="0" mediaItemID="1691" duration="0.040000000000000001">
      <Effects />
      <Transitions />
      <BoundProperties>
        <BoundPropertyInt Name="rotateStepNinety" Value="0" />
      </BoundProperties>
    </ImageClip>
    <ImageClip extentID="68" gapBefore="0" mediaItemID="64" duration="0.050000000000000003">
      <Effects />
      <Transitions />
      <BoundProperties>
        <BoundPropertyInt Name="rotateStepNinety" Value="0" />
      </BoundProperties>
    </ImageClip>
    <ImageClip extentID="1696" gapBefore="0" mediaItemID="1692" duration="0.040000000000000001">
      <Effects />
      <Transitions />
      <BoundProperties>
        <BoundPropertyInt Name="rotateStepNinety" Value="0" />
      </BoundProperties>
    </ImageClip>
    <ImageClip extentID="69" gapBefore="0" mediaItemID="65" duration="0.050000000000000003">
      <Effects />
      <Transitions />
      <BoundProperties>
        <BoundPropertyInt Name="rotateStepNinety" Value="0" />
      </BoundProperties>
    </ImageClip>
    <ImageClip extentID="1697" gapBefore="0" mediaItemID="1693" duration="0.040000000000000001">
      <Effects />
      <Transitions />
      <BoundProperties>
        <BoundPropertyInt Name="rotateStepNinety" Value="0" />
      </BoundProperties>
    </ImageClip>
    <ImageClip extentID="70" gapBefore="0" mediaItemID="66" duration="0.050000000000000003">
      <Effects />
      <Transitions />
      <BoundProperties>
        <BoundPropertyInt Name="rotateStepNinety" Value="0" />
      </BoundProperties>
    </ImageClip>
    <ImageClip extentID="1698" gapBefore="0" mediaItemID="1694" duration="0.040000000000000001">
      <Effects />
      <Transitions />
      <BoundProperties>
        <BoundPropertyInt Name="rotateStepNinety" Value="0" />
      </BoundProperties>
    </ImageClip>
    <ImageClip extentID="71" gapBefore="0" mediaItemID="67" duration="0.050000000000000003">
      <Effects />
      <Transitions />
      <BoundProperties>
        <BoundPropertyInt Name="rotateStepNinety" Value="0" />
      </BoundProperties>
    </ImageClip>
    <ImageClip extentID="1699" gapBefore="0" mediaItemID="1695" duration="0.040000000000000001">
      <Effects />
      <Transitions />
      <BoundProperties>
        <BoundPropertyInt Name="rotateStepNinety" Value="0" />
      </BoundProperties>
    </ImageClip>
    <ImageClip extentID="72" gapBefore="0" mediaItemID="68" duration="0.050000000000000003">
      <Effects />
      <Transitions />
      <BoundProperties>
        <BoundPropertyInt Name="rotateStepNinety" Value="0" />
      </BoundProperties>
    </ImageClip>
    <ImageClip extentID="1700" gapBefore="0" mediaItemID="1696" duration="0.040000000000000001">
      <Effects />
      <Transitions />
      <BoundProperties>
        <BoundPropertyInt Name="rotateStepNinety" Value="0" />
      </BoundProperties>
    </ImageClip>
    <ImageClip extentID="73" gapBefore="0" mediaItemID="69" duration="0.050000000000000003">
      <Effects />
      <Transitions />
      <BoundProperties>
        <BoundPropertyInt Name="rotateStepNinety" Value="0" />
      </BoundProperties>
    </ImageClip>
    <ImageClip extentID="1701" gapBefore="0" mediaItemID="1697" duration="0.040000000000000001">
      <Effects />
      <Transitions />
      <BoundProperties>
        <BoundPropertyInt Name="rotateStepNinety" Value="0" />
      </BoundProperties>
    </ImageClip>
    <ImageClip extentID="74" gapBefore="0" mediaItemID="70" duration="0.050000000000000003">
      <Effects />
      <Transitions />
      <BoundProperties>
        <BoundPropertyInt Name="rotateStepNinety" Value="0" />
      </BoundProperties>
    </ImageClip>
    <ImageClip extentID="1702" gapBefore="0" mediaItemID="1698" duration="0.040000000000000001">
      <Effects />
      <Transitions />
      <BoundProperties>
        <BoundPropertyInt Name="rotateStepNinety" Value="0" />
      </BoundProperties>
    </ImageClip>
    <ImageClip extentID="75" gapBefore="0" mediaItemID="71" duration="0.050000000000000003">
      <Effects />
      <Transitions />
      <BoundProperties>
        <BoundPropertyInt Name="rotateStepNinety" Value="0" />
      </BoundProperties>
    </ImageClip>
    <ImageClip extentID="1703" gapBefore="0" mediaItemID="1699" duration="0.040000000000000001">
      <Effects />
      <Transitions />
      <BoundProperties>
        <BoundPropertyInt Name="rotateStepNinety" Value="0" />
      </BoundProperties>
    </ImageClip>
    <ImageClip extentID="76" gapBefore="0" mediaItemID="72" duration="0.050000000000000003">
      <Effects />
      <Transitions />
      <BoundProperties>
        <BoundPropertyInt Name="rotateStepNinety" Value="0" />
      </BoundProperties>
    </ImageClip>
    <ImageClip extentID="1704" gapBefore="0" mediaItemID="1700" duration="0.040000000000000001">
      <Effects />
      <Transitions />
      <BoundProperties>
        <BoundPropertyInt Name="rotateStepNinety" Value="0" />
      </BoundProperties>
    </ImageClip>
    <ImageClip extentID="77" gapBefore="0" mediaItemID="73" duration="0.050000000000000003">
      <Effects />
      <Transitions />
      <BoundProperties>
        <BoundPropertyInt Name="rotateStepNinety" Value="0" />
      </BoundProperties>
    </ImageClip>
    <ImageClip extentID="1705" gapBefore="0" mediaItemID="1701" duration="0.040000000000000001">
      <Effects />
      <Transitions />
      <BoundProperties>
        <BoundPropertyInt Name="rotateStepNinety" Value="0" />
      </BoundProperties>
    </ImageClip>
    <ImageClip extentID="78" gapBefore="0" mediaItemID="74" duration="0.050000000000000003">
      <Effects />
      <Transitions />
      <BoundProperties>
        <BoundPropertyInt Name="rotateStepNinety" Value="0" />
      </BoundProperties>
    </ImageClip>
    <ImageClip extentID="1706" gapBefore="0" mediaItemID="1702" duration="0.040000000000000001">
      <Effects />
      <Transitions />
      <BoundProperties>
        <BoundPropertyInt Name="rotateStepNinety" Value="0" />
      </BoundProperties>
    </ImageClip>
    <ImageClip extentID="79" gapBefore="0" mediaItemID="75" duration="0.050000000000000003">
      <Effects />
      <Transitions />
      <BoundProperties>
        <BoundPropertyInt Name="rotateStepNinety" Value="0" />
      </BoundProperties>
    </ImageClip>
    <ImageClip extentID="1707" gapBefore="0" mediaItemID="1703" duration="0.040000000000000001">
      <Effects />
      <Transitions />
      <BoundProperties>
        <BoundPropertyInt Name="rotateStepNinety" Value="0" />
      </BoundProperties>
    </ImageClip>
    <ImageClip extentID="80" gapBefore="0" mediaItemID="76" duration="0.050000000000000003">
      <Effects />
      <Transitions />
      <BoundProperties>
        <BoundPropertyInt Name="rotateStepNinety" Value="0" />
      </BoundProperties>
    </ImageClip>
    <ImageClip extentID="1708" gapBefore="0" mediaItemID="1704" duration="0.040000000000000001">
      <Effects />
      <Transitions />
      <BoundProperties>
        <BoundPropertyInt Name="rotateStepNinety" Value="0" />
      </BoundProperties>
    </ImageClip>
    <ImageClip extentID="81" gapBefore="0" mediaItemID="77" duration="0.050000000000000003">
      <Effects />
      <Transitions />
      <BoundProperties>
        <BoundPropertyInt Name="rotateStepNinety" Value="0" />
      </BoundProperties>
    </ImageClip>
    <ImageClip extentID="1709" gapBefore="0" mediaItemID="1705" duration="0.040000000000000001">
      <Effects />
      <Transitions />
      <BoundProperties>
        <BoundPropertyInt Name="rotateStepNinety" Value="0" />
      </BoundProperties>
    </ImageClip>
    <ImageClip extentID="82" gapBefore="0" mediaItemID="78" duration="0.050000000000000003">
      <Effects />
      <Transitions />
      <BoundProperties>
        <BoundPropertyInt Name="rotateStepNinety" Value="0" />
      </BoundProperties>
    </ImageClip>
    <ImageClip extentID="1710" gapBefore="0" mediaItemID="1706" duration="0.040000000000000001">
      <Effects />
      <Transitions />
      <BoundProperties>
        <BoundPropertyInt Name="rotateStepNinety" Value="0" />
      </BoundProperties>
    </ImageClip>
    <ImageClip extentID="83" gapBefore="0" mediaItemID="79" duration="0.050000000000000003">
      <Effects />
      <Transitions />
      <BoundProperties>
        <BoundPropertyInt Name="rotateStepNinety" Value="0" />
      </BoundProperties>
    </ImageClip>
    <ImageClip extentID="1711" gapBefore="0" mediaItemID="1707" duration="0.040000000000000001">
      <Effects />
      <Transitions />
      <BoundProperties>
        <BoundPropertyInt Name="rotateStepNinety" Value="0" />
      </BoundProperties>
    </ImageClip>
    <ImageClip extentID="84" gapBefore="0" mediaItemID="80" duration="0.050000000000000003">
      <Effects />
      <Transitions />
      <BoundProperties>
        <BoundPropertyInt Name="rotateStepNinety" Value="0" />
      </BoundProperties>
    </ImageClip>
    <ImageClip extentID="1712" gapBefore="0" mediaItemID="1708" duration="0.040000000000000001">
      <Effects />
      <Transitions />
      <BoundProperties>
        <BoundPropertyInt Name="rotateStepNinety" Value="0" />
      </BoundProperties>
    </ImageClip>
    <ImageClip extentID="85" gapBefore="0" mediaItemID="81" duration="0.050000000000000003">
      <Effects />
      <Transitions />
      <BoundProperties>
        <BoundPropertyInt Name="rotateStepNinety" Value="0" />
      </BoundProperties>
    </ImageClip>
    <ImageClip extentID="1713" gapBefore="0" mediaItemID="1709" duration="0.040000000000000001">
      <Effects />
      <Transitions />
      <BoundProperties>
        <BoundPropertyInt Name="rotateStepNinety" Value="0" />
      </BoundProperties>
    </ImageClip>
    <ImageClip extentID="86" gapBefore="0" mediaItemID="82" duration="0.050000000000000003">
      <Effects />
      <Transitions />
      <BoundProperties>
        <BoundPropertyInt Name="rotateStepNinety" Value="0" />
      </BoundProperties>
    </ImageClip>
    <ImageClip extentID="1714" gapBefore="0" mediaItemID="1710" duration="0.040000000000000001">
      <Effects />
      <Transitions />
      <BoundProperties>
        <BoundPropertyInt Name="rotateStepNinety" Value="0" />
      </BoundProperties>
    </ImageClip>
    <ImageClip extentID="87" gapBefore="0" mediaItemID="83" duration="0.050000000000000003">
      <Effects />
      <Transitions />
      <BoundProperties>
        <BoundPropertyInt Name="rotateStepNinety" Value="0" />
      </BoundProperties>
    </ImageClip>
    <ImageClip extentID="1715" gapBefore="0" mediaItemID="1711" duration="0.040000000000000001">
      <Effects />
      <Transitions />
      <BoundProperties>
        <BoundPropertyInt Name="rotateStepNinety" Value="0" />
      </BoundProperties>
    </ImageClip>
    <ImageClip extentID="88" gapBefore="0" mediaItemID="84" duration="0.050000000000000003">
      <Effects />
      <Transitions />
      <BoundProperties>
        <BoundPropertyInt Name="rotateStepNinety" Value="0" />
      </BoundProperties>
    </ImageClip>
    <ImageClip extentID="1716" gapBefore="0" mediaItemID="1712" duration="0.040000000000000001">
      <Effects />
      <Transitions />
      <BoundProperties>
        <BoundPropertyInt Name="rotateStepNinety" Value="0" />
      </BoundProperties>
    </ImageClip>
    <ImageClip extentID="89" gapBefore="0" mediaItemID="85" duration="0.050000000000000003">
      <Effects />
      <Transitions />
      <BoundProperties>
        <BoundPropertyInt Name="rotateStepNinety" Value="0" />
      </BoundProperties>
    </ImageClip>
    <ImageClip extentID="1717" gapBefore="0" mediaItemID="1713" duration="0.040000000000000001">
      <Effects />
      <Transitions />
      <BoundProperties>
        <BoundPropertyInt Name="rotateStepNinety" Value="0" />
      </BoundProperties>
    </ImageClip>
    <ImageClip extentID="90" gapBefore="0" mediaItemID="86" duration="0.050000000000000003">
      <Effects />
      <Transitions />
      <BoundProperties>
        <BoundPropertyInt Name="rotateStepNinety" Value="0" />
      </BoundProperties>
    </ImageClip>
    <ImageClip extentID="1718" gapBefore="0" mediaItemID="1714" duration="0.040000000000000001">
      <Effects />
      <Transitions />
      <BoundProperties>
        <BoundPropertyInt Name="rotateStepNinety" Value="0" />
      </BoundProperties>
    </ImageClip>
    <ImageClip extentID="91" gapBefore="0" mediaItemID="87" duration="0.050000000000000003">
      <Effects />
      <Transitions />
      <BoundProperties>
        <BoundPropertyInt Name="rotateStepNinety" Value="0" />
      </BoundProperties>
    </ImageClip>
    <ImageClip extentID="1719" gapBefore="0" mediaItemID="1715" duration="0.040000000000000001">
      <Effects />
      <Transitions />
      <BoundProperties>
        <BoundPropertyInt Name="rotateStepNinety" Value="0" />
      </BoundProperties>
    </ImageClip>
    <ImageClip extentID="92" gapBefore="0" mediaItemID="88" duration="0.050000000000000003">
      <Effects />
      <Transitions />
      <BoundProperties>
        <BoundPropertyInt Name="rotateStepNinety" Value="0" />
      </BoundProperties>
    </ImageClip>
    <ImageClip extentID="1720" gapBefore="0" mediaItemID="1716" duration="0.040000000000000001">
      <Effects />
      <Transitions />
      <BoundProperties>
        <BoundPropertyInt Name="rotateStepNinety" Value="0" />
      </BoundProperties>
    </ImageClip>
    <ImageClip extentID="93" gapBefore="0" mediaItemID="89" duration="0.050000000000000003">
      <Effects />
      <Transitions />
      <BoundProperties>
        <BoundPropertyInt Name="rotateStepNinety" Value="0" />
      </BoundProperties>
    </ImageClip>
    <ImageClip extentID="1721" gapBefore="0" mediaItemID="1717" duration="0.040000000000000001">
      <Effects />
      <Transitions />
      <BoundProperties>
        <BoundPropertyInt Name="rotateStepNinety" Value="0" />
      </BoundProperties>
    </ImageClip>
    <ImageClip extentID="94" gapBefore="0" mediaItemID="90" duration="0.050000000000000003">
      <Effects />
      <Transitions />
      <BoundProperties>
        <BoundPropertyInt Name="rotateStepNinety" Value="0" />
      </BoundProperties>
    </ImageClip>
    <ImageClip extentID="1722" gapBefore="0" mediaItemID="1718" duration="0.040000000000000001">
      <Effects />
      <Transitions />
      <BoundProperties>
        <BoundPropertyInt Name="rotateStepNinety" Value="0" />
      </BoundProperties>
    </ImageClip>
    <ImageClip extentID="95" gapBefore="0" mediaItemID="91" duration="0.050000000000000003">
      <Effects />
      <Transitions />
      <BoundProperties>
        <BoundPropertyInt Name="rotateStepNinety" Value="0" />
      </BoundProperties>
    </ImageClip>
    <ImageClip extentID="1723" gapBefore="0" mediaItemID="1719" duration="0.040000000000000001">
      <Effects />
      <Transitions />
      <BoundProperties>
        <BoundPropertyInt Name="rotateStepNinety" Value="0" />
      </BoundProperties>
    </ImageClip>
    <ImageClip extentID="96" gapBefore="0" mediaItemID="92" duration="0.050000000000000003">
      <Effects />
      <Transitions />
      <BoundProperties>
        <BoundPropertyInt Name="rotateStepNinety" Value="0" />
      </BoundProperties>
    </ImageClip>
    <ImageClip extentID="1724" gapBefore="0" mediaItemID="1720" duration="0.040000000000000001">
      <Effects />
      <Transitions />
      <BoundProperties>
        <BoundPropertyInt Name="rotateStepNinety" Value="0" />
      </BoundProperties>
    </ImageClip>
    <ImageClip extentID="97" gapBefore="0" mediaItemID="93" duration="0.050000000000000003">
      <Effects />
      <Transitions />
      <BoundProperties>
        <BoundPropertyInt Name="rotateStepNinety" Value="0" />
      </BoundProperties>
    </ImageClip>
    <ImageClip extentID="1725" gapBefore="0" mediaItemID="1721" duration="0.040000000000000001">
      <Effects />
      <Transitions />
      <BoundProperties>
        <BoundPropertyInt Name="rotateStepNinety" Value="0" />
      </BoundProperties>
    </ImageClip>
    <ImageClip extentID="98" gapBefore="0" mediaItemID="94" duration="0.050000000000000003">
      <Effects />
      <Transitions />
      <BoundProperties>
        <BoundPropertyInt Name="rotateStepNinety" Value="0" />
      </BoundProperties>
    </ImageClip>
    <ImageClip extentID="1726" gapBefore="0" mediaItemID="1722" duration="0.040000000000000001">
      <Effects />
      <Transitions />
      <BoundProperties>
        <BoundPropertyInt Name="rotateStepNinety" Value="0" />
      </BoundProperties>
    </ImageClip>
    <ImageClip extentID="99" gapBefore="0" mediaItemID="95" duration="0.050000000000000003">
      <Effects />
      <Transitions />
      <BoundProperties>
        <BoundPropertyInt Name="rotateStepNinety" Value="0" />
      </BoundProperties>
    </ImageClip>
    <ImageClip extentID="1727" gapBefore="0" mediaItemID="1723" duration="0.040000000000000001">
      <Effects />
      <Transitions />
      <BoundProperties>
        <BoundPropertyInt Name="rotateStepNinety" Value="0" />
      </BoundProperties>
    </ImageClip>
    <ImageClip extentID="100" gapBefore="0" mediaItemID="96" duration="0.050000000000000003">
      <Effects />
      <Transitions />
      <BoundProperties>
        <BoundPropertyInt Name="rotateStepNinety" Value="0" />
      </BoundProperties>
    </ImageClip>
    <ImageClip extentID="1728" gapBefore="0" mediaItemID="1724" duration="0.040000000000000001">
      <Effects />
      <Transitions />
      <BoundProperties>
        <BoundPropertyInt Name="rotateStepNinety" Value="0" />
      </BoundProperties>
    </ImageClip>
    <ImageClip extentID="101" gapBefore="0" mediaItemID="97" duration="0.050000000000000003">
      <Effects />
      <Transitions />
      <BoundProperties>
        <BoundPropertyInt Name="rotateStepNinety" Value="0" />
      </BoundProperties>
    </ImageClip>
    <ImageClip extentID="1729" gapBefore="0" mediaItemID="1725" duration="0.040000000000000001">
      <Effects />
      <Transitions />
      <BoundProperties>
        <BoundPropertyInt Name="rotateStepNinety" Value="0" />
      </BoundProperties>
    </ImageClip>
    <ImageClip extentID="102" gapBefore="0" mediaItemID="98" duration="0.050000000000000003">
      <Effects />
      <Transitions />
      <BoundProperties>
        <BoundPropertyInt Name="rotateStepNinety" Value="0" />
      </BoundProperties>
    </ImageClip>
    <ImageClip extentID="1730" gapBefore="0" mediaItemID="1726" duration="0.040000000000000001">
      <Effects />
      <Transitions />
      <BoundProperties>
        <BoundPropertyInt Name="rotateStepNinety" Value="0" />
      </BoundProperties>
    </ImageClip>
    <ImageClip extentID="103" gapBefore="0" mediaItemID="99" duration="0.050000000000000003">
      <Effects />
      <Transitions />
      <BoundProperties>
        <BoundPropertyInt Name="rotateStepNinety" Value="0" />
      </BoundProperties>
    </ImageClip>
    <ImageClip extentID="1731" gapBefore="0" mediaItemID="1727" duration="0.040000000000000001">
      <Effects />
      <Transitions />
      <BoundProperties>
        <BoundPropertyInt Name="rotateStepNinety" Value="0" />
      </BoundProperties>
    </ImageClip>
    <ImageClip extentID="104" gapBefore="0" mediaItemID="100" duration="0.050000000000000003">
      <Effects />
      <Transitions />
      <BoundProperties>
        <BoundPropertyInt Name="rotateStepNinety" Value="0" />
      </BoundProperties>
    </ImageClip>
    <ImageClip extentID="1732" gapBefore="0" mediaItemID="1728" duration="0.040000000000000001">
      <Effects />
      <Transitions />
      <BoundProperties>
        <BoundPropertyInt Name="rotateStepNinety" Value="0" />
      </BoundProperties>
    </ImageClip>
    <ImageClip extentID="105" gapBefore="0" mediaItemID="101" duration="0.050000000000000003">
      <Effects />
      <Transitions />
      <BoundProperties>
        <BoundPropertyInt Name="rotateStepNinety" Value="0" />
      </BoundProperties>
    </ImageClip>
    <ImageClip extentID="1733" gapBefore="0" mediaItemID="1729" duration="0.040000000000000001">
      <Effects />
      <Transitions />
      <BoundProperties>
        <BoundPropertyInt Name="rotateStepNinety" Value="0" />
      </BoundProperties>
    </ImageClip>
    <ImageClip extentID="106" gapBefore="0" mediaItemID="102" duration="0.050000000000000003">
      <Effects />
      <Transitions />
      <BoundProperties>
        <BoundPropertyInt Name="rotateStepNinety" Value="0" />
      </BoundProperties>
    </ImageClip>
    <ImageClip extentID="1734" gapBefore="0" mediaItemID="1730" duration="0.040000000000000001">
      <Effects />
      <Transitions />
      <BoundProperties>
        <BoundPropertyInt Name="rotateStepNinety" Value="0" />
      </BoundProperties>
    </ImageClip>
    <ImageClip extentID="107" gapBefore="0" mediaItemID="103" duration="0.050000000000000003">
      <Effects />
      <Transitions />
      <BoundProperties>
        <BoundPropertyInt Name="rotateStepNinety" Value="0" />
      </BoundProperties>
    </ImageClip>
    <ImageClip extentID="1735" gapBefore="0" mediaItemID="1731" duration="0.040000000000000001">
      <Effects />
      <Transitions />
      <BoundProperties>
        <BoundPropertyInt Name="rotateStepNinety" Value="0" />
      </BoundProperties>
    </ImageClip>
    <ImageClip extentID="108" gapBefore="0" mediaItemID="104" duration="0.050000000000000003">
      <Effects />
      <Transitions />
      <BoundProperties>
        <BoundPropertyInt Name="rotateStepNinety" Value="0" />
      </BoundProperties>
    </ImageClip>
    <ImageClip extentID="1736" gapBefore="0" mediaItemID="1732" duration="0.040000000000000001">
      <Effects />
      <Transitions />
      <BoundProperties>
        <BoundPropertyInt Name="rotateStepNinety" Value="0" />
      </BoundProperties>
    </ImageClip>
    <ImageClip extentID="109" gapBefore="0" mediaItemID="105" duration="0.050000000000000003">
      <Effects />
      <Transitions />
      <BoundProperties>
        <BoundPropertyInt Name="rotateStepNinety" Value="0" />
      </BoundProperties>
    </ImageClip>
    <ImageClip extentID="1737" gapBefore="0" mediaItemID="1733" duration="0.040000000000000001">
      <Effects />
      <Transitions />
      <BoundProperties>
        <BoundPropertyInt Name="rotateStepNinety" Value="0" />
      </BoundProperties>
    </ImageClip>
    <ImageClip extentID="110" gapBefore="0" mediaItemID="106" duration="0.050000000000000003">
      <Effects />
      <Transitions />
      <BoundProperties>
        <BoundPropertyInt Name="rotateStepNinety" Value="0" />
      </BoundProperties>
    </ImageClip>
    <ImageClip extentID="1738" gapBefore="0" mediaItemID="1734" duration="0.040000000000000001">
      <Effects />
      <Transitions />
      <BoundProperties>
        <BoundPropertyInt Name="rotateStepNinety" Value="0" />
      </BoundProperties>
    </ImageClip>
    <ImageClip extentID="111" gapBefore="0" mediaItemID="107" duration="0.050000000000000003">
      <Effects />
      <Transitions />
      <BoundProperties>
        <BoundPropertyInt Name="rotateStepNinety" Value="0" />
      </BoundProperties>
    </ImageClip>
    <ImageClip extentID="1739" gapBefore="0" mediaItemID="1735" duration="0.040000000000000001">
      <Effects />
      <Transitions />
      <BoundProperties>
        <BoundPropertyInt Name="rotateStepNinety" Value="0" />
      </BoundProperties>
    </ImageClip>
    <ImageClip extentID="112" gapBefore="0" mediaItemID="108" duration="0.050000000000000003">
      <Effects />
      <Transitions />
      <BoundProperties>
        <BoundPropertyInt Name="rotateStepNinety" Value="0" />
      </BoundProperties>
    </ImageClip>
    <ImageClip extentID="1740" gapBefore="0" mediaItemID="1736" duration="0.040000000000000001">
      <Effects />
      <Transitions />
      <BoundProperties>
        <BoundPropertyInt Name="rotateStepNinety" Value="0" />
      </BoundProperties>
    </ImageClip>
    <ImageClip extentID="113" gapBefore="0" mediaItemID="109" duration="0.050000000000000003">
      <Effects />
      <Transitions />
      <BoundProperties>
        <BoundPropertyInt Name="rotateStepNinety" Value="0" />
      </BoundProperties>
    </ImageClip>
    <ImageClip extentID="1741" gapBefore="0" mediaItemID="1737" duration="0.040000000000000001">
      <Effects />
      <Transitions />
      <BoundProperties>
        <BoundPropertyInt Name="rotateStepNinety" Value="0" />
      </BoundProperties>
    </ImageClip>
    <ImageClip extentID="114" gapBefore="0" mediaItemID="110" duration="0.050000000000000003">
      <Effects />
      <Transitions />
      <BoundProperties>
        <BoundPropertyInt Name="rotateStepNinety" Value="0" />
      </BoundProperties>
    </ImageClip>
    <ImageClip extentID="1742" gapBefore="0" mediaItemID="1738" duration="0.040000000000000001">
      <Effects />
      <Transitions />
      <BoundProperties>
        <BoundPropertyInt Name="rotateStepNinety" Value="0" />
      </BoundProperties>
    </ImageClip>
    <ImageClip extentID="115" gapBefore="0" mediaItemID="111" duration="0.050000000000000003">
      <Effects />
      <Transitions />
      <BoundProperties>
        <BoundPropertyInt Name="rotateStepNinety" Value="0" />
      </BoundProperties>
    </ImageClip>
    <ImageClip extentID="1743" gapBefore="0" mediaItemID="1739" duration="0.040000000000000001">
      <Effects />
      <Transitions />
      <BoundProperties>
        <BoundPropertyInt Name="rotateStepNinety" Value="0" />
      </BoundProperties>
    </ImageClip>
    <ImageClip extentID="116" gapBefore="0" mediaItemID="112" duration="0.050000000000000003">
      <Effects />
      <Transitions />
      <BoundProperties>
        <BoundPropertyInt Name="rotateStepNinety" Value="0" />
      </BoundProperties>
    </ImageClip>
    <ImageClip extentID="1744" gapBefore="0" mediaItemID="1740" duration="0.040000000000000001">
      <Effects />
      <Transitions />
      <BoundProperties>
        <BoundPropertyInt Name="rotateStepNinety" Value="0" />
      </BoundProperties>
    </ImageClip>
    <ImageClip extentID="117" gapBefore="0" mediaItemID="113" duration="0.050000000000000003">
      <Effects />
      <Transitions />
      <BoundProperties>
        <BoundPropertyInt Name="rotateStepNinety" Value="0" />
      </BoundProperties>
    </ImageClip>
    <ImageClip extentID="1745" gapBefore="0" mediaItemID="1741" duration="0.040000000000000001">
      <Effects />
      <Transitions />
      <BoundProperties>
        <BoundPropertyInt Name="rotateStepNinety" Value="0" />
      </BoundProperties>
    </ImageClip>
    <ImageClip extentID="118" gapBefore="0" mediaItemID="114" duration="0.050000000000000003">
      <Effects />
      <Transitions />
      <BoundProperties>
        <BoundPropertyInt Name="rotateStepNinety" Value="0" />
      </BoundProperties>
    </ImageClip>
    <ImageClip extentID="1746" gapBefore="0" mediaItemID="1742" duration="0.040000000000000001">
      <Effects />
      <Transitions />
      <BoundProperties>
        <BoundPropertyInt Name="rotateStepNinety" Value="0" />
      </BoundProperties>
    </ImageClip>
    <ImageClip extentID="119" gapBefore="0" mediaItemID="115" duration="0.050000000000000003">
      <Effects />
      <Transitions />
      <BoundProperties>
        <BoundPropertyInt Name="rotateStepNinety" Value="0" />
      </BoundProperties>
    </ImageClip>
    <ImageClip extentID="1747" gapBefore="0" mediaItemID="1743" duration="0.040000000000000001">
      <Effects />
      <Transitions />
      <BoundProperties>
        <BoundPropertyInt Name="rotateStepNinety" Value="0" />
      </BoundProperties>
    </ImageClip>
    <ImageClip extentID="120" gapBefore="0" mediaItemID="116" duration="0.050000000000000003">
      <Effects />
      <Transitions />
      <BoundProperties>
        <BoundPropertyInt Name="rotateStepNinety" Value="0" />
      </BoundProperties>
    </ImageClip>
    <ImageClip extentID="1748" gapBefore="0" mediaItemID="1744" duration="0.040000000000000001">
      <Effects />
      <Transitions />
      <BoundProperties>
        <BoundPropertyInt Name="rotateStepNinety" Value="0" />
      </BoundProperties>
    </ImageClip>
    <ImageClip extentID="121" gapBefore="0" mediaItemID="117" duration="0.050000000000000003">
      <Effects />
      <Transitions />
      <BoundProperties>
        <BoundPropertyInt Name="rotateStepNinety" Value="0" />
      </BoundProperties>
    </ImageClip>
    <ImageClip extentID="1749" gapBefore="0" mediaItemID="1745" duration="0.040000000000000001">
      <Effects />
      <Transitions />
      <BoundProperties>
        <BoundPropertyInt Name="rotateStepNinety" Value="0" />
      </BoundProperties>
    </ImageClip>
    <ImageClip extentID="122" gapBefore="0" mediaItemID="118" duration="0.050000000000000003">
      <Effects />
      <Transitions />
      <BoundProperties>
        <BoundPropertyInt Name="rotateStepNinety" Value="0" />
      </BoundProperties>
    </ImageClip>
    <ImageClip extentID="1750" gapBefore="0" mediaItemID="1746" duration="0.040000000000000001">
      <Effects />
      <Transitions />
      <BoundProperties>
        <BoundPropertyInt Name="rotateStepNinety" Value="0" />
      </BoundProperties>
    </ImageClip>
    <ImageClip extentID="123" gapBefore="0" mediaItemID="119" duration="0.050000000000000003">
      <Effects />
      <Transitions />
      <BoundProperties>
        <BoundPropertyInt Name="rotateStepNinety" Value="0" />
      </BoundProperties>
    </ImageClip>
    <ImageClip extentID="1751" gapBefore="0" mediaItemID="1747" duration="0.040000000000000001">
      <Effects />
      <Transitions />
      <BoundProperties>
        <BoundPropertyInt Name="rotateStepNinety" Value="0" />
      </BoundProperties>
    </ImageClip>
    <ImageClip extentID="124" gapBefore="0" mediaItemID="120" duration="0.050000000000000003">
      <Effects />
      <Transitions />
      <BoundProperties>
        <BoundPropertyInt Name="rotateStepNinety" Value="0" />
      </BoundProperties>
    </ImageClip>
    <ImageClip extentID="1752" gapBefore="0" mediaItemID="1748" duration="0.040000000000000001">
      <Effects />
      <Transitions />
      <BoundProperties>
        <BoundPropertyInt Name="rotateStepNinety" Value="0" />
      </BoundProperties>
    </ImageClip>
    <ImageClip extentID="125" gapBefore="0" mediaItemID="121" duration="0.050000000000000003">
      <Effects />
      <Transitions />
      <BoundProperties>
        <BoundPropertyInt Name="rotateStepNinety" Value="0" />
      </BoundProperties>
    </ImageClip>
    <ImageClip extentID="1753" gapBefore="0" mediaItemID="1749" duration="0.040000000000000001">
      <Effects />
      <Transitions />
      <BoundProperties>
        <BoundPropertyInt Name="rotateStepNinety" Value="0" />
      </BoundProperties>
    </ImageClip>
    <ImageClip extentID="126" gapBefore="0" mediaItemID="122" duration="0.050000000000000003">
      <Effects />
      <Transitions />
      <BoundProperties>
        <BoundPropertyInt Name="rotateStepNinety" Value="0" />
      </BoundProperties>
    </ImageClip>
    <ImageClip extentID="1754" gapBefore="0" mediaItemID="1750" duration="0.040000000000000001">
      <Effects />
      <Transitions />
      <BoundProperties>
        <BoundPropertyInt Name="rotateStepNinety" Value="0" />
      </BoundProperties>
    </ImageClip>
    <ImageClip extentID="127" gapBefore="0" mediaItemID="123" duration="0.050000000000000003">
      <Effects />
      <Transitions />
      <BoundProperties>
        <BoundPropertyInt Name="rotateStepNinety" Value="0" />
      </BoundProperties>
    </ImageClip>
    <ImageClip extentID="1755" gapBefore="0" mediaItemID="1751" duration="0.040000000000000001">
      <Effects />
      <Transitions />
      <BoundProperties>
        <BoundPropertyInt Name="rotateStepNinety" Value="0" />
      </BoundProperties>
    </ImageClip>
    <ImageClip extentID="128" gapBefore="0" mediaItemID="124" duration="0.050000000000000003">
      <Effects />
      <Transitions />
      <BoundProperties>
        <BoundPropertyInt Name="rotateStepNinety" Value="0" />
      </BoundProperties>
    </ImageClip>
    <ImageClip extentID="1756" gapBefore="0" mediaItemID="1752" duration="0.040000000000000001">
      <Effects />
      <Transitions />
      <BoundProperties>
        <BoundPropertyInt Name="rotateStepNinety" Value="0" />
      </BoundProperties>
    </ImageClip>
    <ImageClip extentID="129" gapBefore="0" mediaItemID="125" duration="0.050000000000000003">
      <Effects />
      <Transitions />
      <BoundProperties>
        <BoundPropertyInt Name="rotateStepNinety" Value="0" />
      </BoundProperties>
    </ImageClip>
    <ImageClip extentID="1757" gapBefore="0" mediaItemID="1753" duration="0.040000000000000001">
      <Effects />
      <Transitions />
      <BoundProperties>
        <BoundPropertyInt Name="rotateStepNinety" Value="0" />
      </BoundProperties>
    </ImageClip>
    <ImageClip extentID="130" gapBefore="0" mediaItemID="126" duration="0.050000000000000003">
      <Effects />
      <Transitions />
      <BoundProperties>
        <BoundPropertyInt Name="rotateStepNinety" Value="0" />
      </BoundProperties>
    </ImageClip>
    <ImageClip extentID="1758" gapBefore="0" mediaItemID="1754" duration="0.040000000000000001">
      <Effects />
      <Transitions />
      <BoundProperties>
        <BoundPropertyInt Name="rotateStepNinety" Value="0" />
      </BoundProperties>
    </ImageClip>
    <ImageClip extentID="131" gapBefore="0" mediaItemID="127" duration="0.050000000000000003">
      <Effects />
      <Transitions />
      <BoundProperties>
        <BoundPropertyInt Name="rotateStepNinety" Value="0" />
      </BoundProperties>
    </ImageClip>
    <ImageClip extentID="1759" gapBefore="0" mediaItemID="1755" duration="0.040000000000000001">
      <Effects />
      <Transitions />
      <BoundProperties>
        <BoundPropertyInt Name="rotateStepNinety" Value="0" />
      </BoundProperties>
    </ImageClip>
    <ImageClip extentID="132" gapBefore="0" mediaItemID="128" duration="0.050000000000000003">
      <Effects />
      <Transitions />
      <BoundProperties>
        <BoundPropertyInt Name="rotateStepNinety" Value="0" />
      </BoundProperties>
    </ImageClip>
    <ImageClip extentID="1760" gapBefore="0" mediaItemID="1756" duration="0.040000000000000001">
      <Effects />
      <Transitions />
      <BoundProperties>
        <BoundPropertyInt Name="rotateStepNinety" Value="0" />
      </BoundProperties>
    </ImageClip>
    <ImageClip extentID="133" gapBefore="0" mediaItemID="129" duration="0.050000000000000003">
      <Effects />
      <Transitions />
      <BoundProperties>
        <BoundPropertyInt Name="rotateStepNinety" Value="0" />
      </BoundProperties>
    </ImageClip>
    <ImageClip extentID="1761" gapBefore="0" mediaItemID="1757" duration="0.040000000000000001">
      <Effects />
      <Transitions />
      <BoundProperties>
        <BoundPropertyInt Name="rotateStepNinety" Value="0" />
      </BoundProperties>
    </ImageClip>
    <ImageClip extentID="134" gapBefore="0" mediaItemID="130" duration="0.050000000000000003">
      <Effects />
      <Transitions />
      <BoundProperties>
        <BoundPropertyInt Name="rotateStepNinety" Value="0" />
      </BoundProperties>
    </ImageClip>
    <ImageClip extentID="1762" gapBefore="0" mediaItemID="1758" duration="0.040000000000000001">
      <Effects />
      <Transitions />
      <BoundProperties>
        <BoundPropertyInt Name="rotateStepNinety" Value="0" />
      </BoundProperties>
    </ImageClip>
    <ImageClip extentID="135" gapBefore="0" mediaItemID="131" duration="0.050000000000000003">
      <Effects />
      <Transitions />
      <BoundProperties>
        <BoundPropertyInt Name="rotateStepNinety" Value="0" />
      </BoundProperties>
    </ImageClip>
    <ImageClip extentID="1763" gapBefore="0" mediaItemID="1759" duration="0.040000000000000001">
      <Effects />
      <Transitions />
      <BoundProperties>
        <BoundPropertyInt Name="rotateStepNinety" Value="0" />
      </BoundProperties>
    </ImageClip>
    <ImageClip extentID="136" gapBefore="0" mediaItemID="132" duration="0.050000000000000003">
      <Effects />
      <Transitions />
      <BoundProperties>
        <BoundPropertyInt Name="rotateStepNinety" Value="0" />
      </BoundProperties>
    </ImageClip>
    <ImageClip extentID="1764" gapBefore="0" mediaItemID="1760" duration="0.040000000000000001">
      <Effects />
      <Transitions />
      <BoundProperties>
        <BoundPropertyInt Name="rotateStepNinety" Value="0" />
      </BoundProperties>
    </ImageClip>
    <ImageClip extentID="137" gapBefore="0" mediaItemID="133" duration="0.050000000000000003">
      <Effects />
      <Transitions />
      <BoundProperties>
        <BoundPropertyInt Name="rotateStepNinety" Value="0" />
      </BoundProperties>
    </ImageClip>
    <ImageClip extentID="1765" gapBefore="0" mediaItemID="1761" duration="0.040000000000000001">
      <Effects />
      <Transitions />
      <BoundProperties>
        <BoundPropertyInt Name="rotateStepNinety" Value="0" />
      </BoundProperties>
    </ImageClip>
    <ImageClip extentID="138" gapBefore="0" mediaItemID="134" duration="0.050000000000000003">
      <Effects />
      <Transitions />
      <BoundProperties>
        <BoundPropertyInt Name="rotateStepNinety" Value="0" />
      </BoundProperties>
    </ImageClip>
    <ImageClip extentID="1766" gapBefore="0" mediaItemID="1762" duration="0.040000000000000001">
      <Effects />
      <Transitions />
      <BoundProperties>
        <BoundPropertyInt Name="rotateStepNinety" Value="0" />
      </BoundProperties>
    </ImageClip>
    <ImageClip extentID="139" gapBefore="0" mediaItemID="135" duration="0.050000000000000003">
      <Effects />
      <Transitions />
      <BoundProperties>
        <BoundPropertyInt Name="rotateStepNinety" Value="0" />
      </BoundProperties>
    </ImageClip>
    <ImageClip extentID="1767" gapBefore="0" mediaItemID="1763" duration="0.040000000000000001">
      <Effects />
      <Transitions />
      <BoundProperties>
        <BoundPropertyInt Name="rotateStepNinety" Value="0" />
      </BoundProperties>
    </ImageClip>
    <ImageClip extentID="140" gapBefore="0" mediaItemID="136" duration="0.050000000000000003">
      <Effects />
      <Transitions />
      <BoundProperties>
        <BoundPropertyInt Name="rotateStepNinety" Value="0" />
      </BoundProperties>
    </ImageClip>
    <ImageClip extentID="1768" gapBefore="0" mediaItemID="1764" duration="0.040000000000000001">
      <Effects />
      <Transitions />
      <BoundProperties>
        <BoundPropertyInt Name="rotateStepNinety" Value="0" />
      </BoundProperties>
    </ImageClip>
    <ImageClip extentID="141" gapBefore="0" mediaItemID="137" duration="0.050000000000000003">
      <Effects />
      <Transitions />
      <BoundProperties>
        <BoundPropertyInt Name="rotateStepNinety" Value="0" />
      </BoundProperties>
    </ImageClip>
    <ImageClip extentID="1769" gapBefore="0" mediaItemID="1765" duration="0.040000000000000001">
      <Effects />
      <Transitions />
      <BoundProperties>
        <BoundPropertyInt Name="rotateStepNinety" Value="0" />
      </BoundProperties>
    </ImageClip>
    <ImageClip extentID="142" gapBefore="0" mediaItemID="138" duration="0.050000000000000003">
      <Effects />
      <Transitions />
      <BoundProperties>
        <BoundPropertyInt Name="rotateStepNinety" Value="0" />
      </BoundProperties>
    </ImageClip>
    <ImageClip extentID="1770" gapBefore="0" mediaItemID="1766" duration="0.040000000000000001">
      <Effects />
      <Transitions />
      <BoundProperties>
        <BoundPropertyInt Name="rotateStepNinety" Value="0" />
      </BoundProperties>
    </ImageClip>
    <ImageClip extentID="143" gapBefore="0" mediaItemID="139" duration="0.050000000000000003">
      <Effects />
      <Transitions />
      <BoundProperties>
        <BoundPropertyInt Name="rotateStepNinety" Value="0" />
      </BoundProperties>
    </ImageClip>
    <ImageClip extentID="1771" gapBefore="0" mediaItemID="1767" duration="0.040000000000000001">
      <Effects />
      <Transitions />
      <BoundProperties>
        <BoundPropertyInt Name="rotateStepNinety" Value="0" />
      </BoundProperties>
    </ImageClip>
    <ImageClip extentID="144" gapBefore="0" mediaItemID="140" duration="0.050000000000000003">
      <Effects />
      <Transitions />
      <BoundProperties>
        <BoundPropertyInt Name="rotateStepNinety" Value="0" />
      </BoundProperties>
    </ImageClip>
    <ImageClip extentID="1772" gapBefore="0" mediaItemID="1768" duration="0.040000000000000001">
      <Effects />
      <Transitions />
      <BoundProperties>
        <BoundPropertyInt Name="rotateStepNinety" Value="0" />
      </BoundProperties>
    </ImageClip>
    <ImageClip extentID="145" gapBefore="0" mediaItemID="141" duration="0.050000000000000003">
      <Effects />
      <Transitions />
      <BoundProperties>
        <BoundPropertyInt Name="rotateStepNinety" Value="0" />
      </BoundProperties>
    </ImageClip>
    <ImageClip extentID="1773" gapBefore="0" mediaItemID="1769" duration="0.040000000000000001">
      <Effects />
      <Transitions />
      <BoundProperties>
        <BoundPropertyInt Name="rotateStepNinety" Value="0" />
      </BoundProperties>
    </ImageClip>
    <ImageClip extentID="146" gapBefore="0" mediaItemID="142" duration="0.050000000000000003">
      <Effects />
      <Transitions />
      <BoundProperties>
        <BoundPropertyInt Name="rotateStepNinety" Value="0" />
      </BoundProperties>
    </ImageClip>
    <ImageClip extentID="1774" gapBefore="0" mediaItemID="1770" duration="0.040000000000000001">
      <Effects />
      <Transitions />
      <BoundProperties>
        <BoundPropertyInt Name="rotateStepNinety" Value="0" />
      </BoundProperties>
    </ImageClip>
    <ImageClip extentID="147" gapBefore="0" mediaItemID="143" duration="0.050000000000000003">
      <Effects />
      <Transitions />
      <BoundProperties>
        <BoundPropertyInt Name="rotateStepNinety" Value="0" />
      </BoundProperties>
    </ImageClip>
    <ImageClip extentID="1775" gapBefore="0" mediaItemID="1771" duration="0.040000000000000001">
      <Effects />
      <Transitions />
      <BoundProperties>
        <BoundPropertyInt Name="rotateStepNinety" Value="0" />
      </BoundProperties>
    </ImageClip>
    <ImageClip extentID="148" gapBefore="0" mediaItemID="144" duration="0.050000000000000003">
      <Effects />
      <Transitions />
      <BoundProperties>
        <BoundPropertyInt Name="rotateStepNinety" Value="0" />
      </BoundProperties>
    </ImageClip>
    <ImageClip extentID="1776" gapBefore="0" mediaItemID="1772" duration="0.040000000000000001">
      <Effects />
      <Transitions />
      <BoundProperties>
        <BoundPropertyInt Name="rotateStepNinety" Value="0" />
      </BoundProperties>
    </ImageClip>
    <ImageClip extentID="149" gapBefore="0" mediaItemID="145" duration="0.050000000000000003">
      <Effects />
      <Transitions />
      <BoundProperties>
        <BoundPropertyInt Name="rotateStepNinety" Value="0" />
      </BoundProperties>
    </ImageClip>
    <ImageClip extentID="1777" gapBefore="0" mediaItemID="1773" duration="0.040000000000000001">
      <Effects />
      <Transitions />
      <BoundProperties>
        <BoundPropertyInt Name="rotateStepNinety" Value="0" />
      </BoundProperties>
    </ImageClip>
    <ImageClip extentID="150" gapBefore="0" mediaItemID="146" duration="0.050000000000000003">
      <Effects />
      <Transitions />
      <BoundProperties>
        <BoundPropertyInt Name="rotateStepNinety" Value="0" />
      </BoundProperties>
    </ImageClip>
    <ImageClip extentID="1778" gapBefore="0" mediaItemID="1774" duration="0.040000000000000001">
      <Effects />
      <Transitions />
      <BoundProperties>
        <BoundPropertyInt Name="rotateStepNinety" Value="0" />
      </BoundProperties>
    </ImageClip>
    <ImageClip extentID="151" gapBefore="0" mediaItemID="147" duration="0.050000000000000003">
      <Effects />
      <Transitions />
      <BoundProperties>
        <BoundPropertyInt Name="rotateStepNinety" Value="0" />
      </BoundProperties>
    </ImageClip>
    <ImageClip extentID="1779" gapBefore="0" mediaItemID="1775" duration="0.040000000000000001">
      <Effects />
      <Transitions />
      <BoundProperties>
        <BoundPropertyInt Name="rotateStepNinety" Value="0" />
      </BoundProperties>
    </ImageClip>
    <ImageClip extentID="152" gapBefore="0" mediaItemID="148" duration="0.050000000000000003">
      <Effects />
      <Transitions />
      <BoundProperties>
        <BoundPropertyInt Name="rotateStepNinety" Value="0" />
      </BoundProperties>
    </ImageClip>
    <ImageClip extentID="1780" gapBefore="0" mediaItemID="1776" duration="0.040000000000000001">
      <Effects />
      <Transitions />
      <BoundProperties>
        <BoundPropertyInt Name="rotateStepNinety" Value="0" />
      </BoundProperties>
    </ImageClip>
    <ImageClip extentID="153" gapBefore="0" mediaItemID="149" duration="0.050000000000000003">
      <Effects />
      <Transitions />
      <BoundProperties>
        <BoundPropertyInt Name="rotateStepNinety" Value="0" />
      </BoundProperties>
    </ImageClip>
    <ImageClip extentID="1781" gapBefore="0" mediaItemID="1777" duration="0.040000000000000001">
      <Effects />
      <Transitions />
      <BoundProperties>
        <BoundPropertyInt Name="rotateStepNinety" Value="0" />
      </BoundProperties>
    </ImageClip>
    <ImageClip extentID="154" gapBefore="0" mediaItemID="150" duration="0.050000000000000003">
      <Effects />
      <Transitions />
      <BoundProperties>
        <BoundPropertyInt Name="rotateStepNinety" Value="0" />
      </BoundProperties>
    </ImageClip>
    <ImageClip extentID="1782" gapBefore="0" mediaItemID="1778" duration="0.040000000000000001">
      <Effects />
      <Transitions />
      <BoundProperties>
        <BoundPropertyInt Name="rotateStepNinety" Value="0" />
      </BoundProperties>
    </ImageClip>
    <ImageClip extentID="155" gapBefore="0" mediaItemID="151" duration="0.050000000000000003">
      <Effects />
      <Transitions />
      <BoundProperties>
        <BoundPropertyInt Name="rotateStepNinety" Value="0" />
      </BoundProperties>
    </ImageClip>
    <ImageClip extentID="1783" gapBefore="0" mediaItemID="1779" duration="0.040000000000000001">
      <Effects />
      <Transitions />
      <BoundProperties>
        <BoundPropertyInt Name="rotateStepNinety" Value="0" />
      </BoundProperties>
    </ImageClip>
    <ImageClip extentID="156" gapBefore="0" mediaItemID="152" duration="0.050000000000000003">
      <Effects />
      <Transitions />
      <BoundProperties>
        <BoundPropertyInt Name="rotateStepNinety" Value="0" />
      </BoundProperties>
    </ImageClip>
    <ImageClip extentID="1784" gapBefore="0" mediaItemID="1780" duration="0.040000000000000001">
      <Effects />
      <Transitions />
      <BoundProperties>
        <BoundPropertyInt Name="rotateStepNinety" Value="0" />
      </BoundProperties>
    </ImageClip>
    <ImageClip extentID="157" gapBefore="0" mediaItemID="153" duration="0.050000000000000003">
      <Effects />
      <Transitions />
      <BoundProperties>
        <BoundPropertyInt Name="rotateStepNinety" Value="0" />
      </BoundProperties>
    </ImageClip>
    <ImageClip extentID="1785" gapBefore="0" mediaItemID="1781" duration="0.040000000000000001">
      <Effects />
      <Transitions />
      <BoundProperties>
        <BoundPropertyInt Name="rotateStepNinety" Value="0" />
      </BoundProperties>
    </ImageClip>
    <ImageClip extentID="158" gapBefore="0" mediaItemID="154" duration="0.050000000000000003">
      <Effects />
      <Transitions />
      <BoundProperties>
        <BoundPropertyInt Name="rotateStepNinety" Value="0" />
      </BoundProperties>
    </ImageClip>
    <ImageClip extentID="1786" gapBefore="0" mediaItemID="1782" duration="0.040000000000000001">
      <Effects />
      <Transitions />
      <BoundProperties>
        <BoundPropertyInt Name="rotateStepNinety" Value="0" />
      </BoundProperties>
    </ImageClip>
    <ImageClip extentID="159" gapBefore="0" mediaItemID="155" duration="0.050000000000000003">
      <Effects />
      <Transitions />
      <BoundProperties>
        <BoundPropertyInt Name="rotateStepNinety" Value="0" />
      </BoundProperties>
    </ImageClip>
    <ImageClip extentID="1787" gapBefore="0" mediaItemID="1783" duration="0.040000000000000001">
      <Effects />
      <Transitions />
      <BoundProperties>
        <BoundPropertyInt Name="rotateStepNinety" Value="0" />
      </BoundProperties>
    </ImageClip>
    <ImageClip extentID="160" gapBefore="0" mediaItemID="156" duration="0.050000000000000003">
      <Effects />
      <Transitions />
      <BoundProperties>
        <BoundPropertyInt Name="rotateStepNinety" Value="0" />
      </BoundProperties>
    </ImageClip>
    <ImageClip extentID="1788" gapBefore="0" mediaItemID="1784" duration="0.040000000000000001">
      <Effects />
      <Transitions />
      <BoundProperties>
        <BoundPropertyInt Name="rotateStepNinety" Value="0" />
      </BoundProperties>
    </ImageClip>
    <ImageClip extentID="161" gapBefore="0" mediaItemID="157" duration="0.050000000000000003">
      <Effects />
      <Transitions />
      <BoundProperties>
        <BoundPropertyInt Name="rotateStepNinety" Value="0" />
      </BoundProperties>
    </ImageClip>
    <ImageClip extentID="1789" gapBefore="0" mediaItemID="1785" duration="0.040000000000000001">
      <Effects />
      <Transitions />
      <BoundProperties>
        <BoundPropertyInt Name="rotateStepNinety" Value="0" />
      </BoundProperties>
    </ImageClip>
    <ImageClip extentID="162" gapBefore="0" mediaItemID="158" duration="0.050000000000000003">
      <Effects />
      <Transitions />
      <BoundProperties>
        <BoundPropertyInt Name="rotateStepNinety" Value="0" />
      </BoundProperties>
    </ImageClip>
    <ImageClip extentID="1790" gapBefore="0" mediaItemID="1786" duration="0.040000000000000001">
      <Effects />
      <Transitions />
      <BoundProperties>
        <BoundPropertyInt Name="rotateStepNinety" Value="0" />
      </BoundProperties>
    </ImageClip>
    <ImageClip extentID="163" gapBefore="0" mediaItemID="159" duration="0.050000000000000003">
      <Effects />
      <Transitions />
      <BoundProperties>
        <BoundPropertyInt Name="rotateStepNinety" Value="0" />
      </BoundProperties>
    </ImageClip>
    <ImageClip extentID="1791" gapBefore="0" mediaItemID="1787" duration="0.040000000000000001">
      <Effects />
      <Transitions />
      <BoundProperties>
        <BoundPropertyInt Name="rotateStepNinety" Value="0" />
      </BoundProperties>
    </ImageClip>
    <ImageClip extentID="164" gapBefore="0" mediaItemID="160" duration="0.050000000000000003">
      <Effects />
      <Transitions />
      <BoundProperties>
        <BoundPropertyInt Name="rotateStepNinety" Value="0" />
      </BoundProperties>
    </ImageClip>
    <ImageClip extentID="1792" gapBefore="0" mediaItemID="1788" duration="0.040000000000000001">
      <Effects />
      <Transitions />
      <BoundProperties>
        <BoundPropertyInt Name="rotateStepNinety" Value="0" />
      </BoundProperties>
    </ImageClip>
    <ImageClip extentID="165" gapBefore="0" mediaItemID="161" duration="0.050000000000000003">
      <Effects />
      <Transitions />
      <BoundProperties>
        <BoundPropertyInt Name="rotateStepNinety" Value="0" />
      </BoundProperties>
    </ImageClip>
    <ImageClip extentID="1793" gapBefore="0" mediaItemID="1789" duration="0.040000000000000001">
      <Effects />
      <Transitions />
      <BoundProperties>
        <BoundPropertyInt Name="rotateStepNinety" Value="0" />
      </BoundProperties>
    </ImageClip>
    <ImageClip extentID="166" gapBefore="0" mediaItemID="162" duration="0.050000000000000003">
      <Effects />
      <Transitions />
      <BoundProperties>
        <BoundPropertyInt Name="rotateStepNinety" Value="0" />
      </BoundProperties>
    </ImageClip>
    <ImageClip extentID="1794" gapBefore="0" mediaItemID="1790" duration="0.040000000000000001">
      <Effects />
      <Transitions />
      <BoundProperties>
        <BoundPropertyInt Name="rotateStepNinety" Value="0" />
      </BoundProperties>
    </ImageClip>
    <ImageClip extentID="167" gapBefore="0" mediaItemID="163" duration="0.050000000000000003">
      <Effects />
      <Transitions />
      <BoundProperties>
        <BoundPropertyInt Name="rotateStepNinety" Value="0" />
      </BoundProperties>
    </ImageClip>
    <ImageClip extentID="1795" gapBefore="0" mediaItemID="1791" duration="0.040000000000000001">
      <Effects />
      <Transitions />
      <BoundProperties>
        <BoundPropertyInt Name="rotateStepNinety" Value="0" />
      </BoundProperties>
    </ImageClip>
    <ImageClip extentID="168" gapBefore="0" mediaItemID="164" duration="0.050000000000000003">
      <Effects />
      <Transitions />
      <BoundProperties>
        <BoundPropertyInt Name="rotateStepNinety" Value="0" />
      </BoundProperties>
    </ImageClip>
    <ImageClip extentID="1796" gapBefore="0" mediaItemID="1792" duration="0.040000000000000001">
      <Effects />
      <Transitions />
      <BoundProperties>
        <BoundPropertyInt Name="rotateStepNinety" Value="0" />
      </BoundProperties>
    </ImageClip>
    <ImageClip extentID="169" gapBefore="0" mediaItemID="165" duration="0.050000000000000003">
      <Effects />
      <Transitions />
      <BoundProperties>
        <BoundPropertyInt Name="rotateStepNinety" Value="0" />
      </BoundProperties>
    </ImageClip>
    <ImageClip extentID="1797" gapBefore="0" mediaItemID="1793" duration="0.040000000000000001">
      <Effects />
      <Transitions />
      <BoundProperties>
        <BoundPropertyInt Name="rotateStepNinety" Value="0" />
      </BoundProperties>
    </ImageClip>
    <ImageClip extentID="170" gapBefore="0" mediaItemID="166" duration="0.050000000000000003">
      <Effects />
      <Transitions />
      <BoundProperties>
        <BoundPropertyInt Name="rotateStepNinety" Value="0" />
      </BoundProperties>
    </ImageClip>
    <ImageClip extentID="1798" gapBefore="0" mediaItemID="1794" duration="0.040000000000000001">
      <Effects />
      <Transitions />
      <BoundProperties>
        <BoundPropertyInt Name="rotateStepNinety" Value="0" />
      </BoundProperties>
    </ImageClip>
    <ImageClip extentID="171" gapBefore="0" mediaItemID="167" duration="0.050000000000000003">
      <Effects />
      <Transitions />
      <BoundProperties>
        <BoundPropertyInt Name="rotateStepNinety" Value="0" />
      </BoundProperties>
    </ImageClip>
    <ImageClip extentID="1799" gapBefore="0" mediaItemID="1795" duration="0.040000000000000001">
      <Effects />
      <Transitions />
      <BoundProperties>
        <BoundPropertyInt Name="rotateStepNinety" Value="0" />
      </BoundProperties>
    </ImageClip>
    <ImageClip extentID="172" gapBefore="0" mediaItemID="168" duration="0.050000000000000003">
      <Effects />
      <Transitions />
      <BoundProperties>
        <BoundPropertyInt Name="rotateStepNinety" Value="0" />
      </BoundProperties>
    </ImageClip>
    <ImageClip extentID="1800" gapBefore="0" mediaItemID="1796" duration="0.040000000000000001">
      <Effects />
      <Transitions />
      <BoundProperties>
        <BoundPropertyInt Name="rotateStepNinety" Value="0" />
      </BoundProperties>
    </ImageClip>
    <ImageClip extentID="173" gapBefore="0" mediaItemID="169" duration="0.050000000000000003">
      <Effects />
      <Transitions />
      <BoundProperties>
        <BoundPropertyInt Name="rotateStepNinety" Value="0" />
      </BoundProperties>
    </ImageClip>
    <ImageClip extentID="1801" gapBefore="0" mediaItemID="1797" duration="0.040000000000000001">
      <Effects />
      <Transitions />
      <BoundProperties>
        <BoundPropertyInt Name="rotateStepNinety" Value="0" />
      </BoundProperties>
    </ImageClip>
    <ImageClip extentID="174" gapBefore="0" mediaItemID="170" duration="0.050000000000000003">
      <Effects />
      <Transitions />
      <BoundProperties>
        <BoundPropertyInt Name="rotateStepNinety" Value="0" />
      </BoundProperties>
    </ImageClip>
    <ImageClip extentID="1802" gapBefore="0" mediaItemID="1798" duration="0.040000000000000001">
      <Effects />
      <Transitions />
      <BoundProperties>
        <BoundPropertyInt Name="rotateStepNinety" Value="0" />
      </BoundProperties>
    </ImageClip>
    <ImageClip extentID="175" gapBefore="0" mediaItemID="171" duration="0.050000000000000003">
      <Effects />
      <Transitions />
      <BoundProperties>
        <BoundPropertyInt Name="rotateStepNinety" Value="0" />
      </BoundProperties>
    </ImageClip>
    <ImageClip extentID="1803" gapBefore="0" mediaItemID="1799" duration="0.040000000000000001">
      <Effects />
      <Transitions />
      <BoundProperties>
        <BoundPropertyInt Name="rotateStepNinety" Value="0" />
      </BoundProperties>
    </ImageClip>
    <ImageClip extentID="176" gapBefore="0" mediaItemID="172" duration="0.050000000000000003">
      <Effects />
      <Transitions />
      <BoundProperties>
        <BoundPropertyInt Name="rotateStepNinety" Value="0" />
      </BoundProperties>
    </ImageClip>
    <ImageClip extentID="1804" gapBefore="0" mediaItemID="1800" duration="0.040000000000000001">
      <Effects />
      <Transitions />
      <BoundProperties>
        <BoundPropertyInt Name="rotateStepNinety" Value="0" />
      </BoundProperties>
    </ImageClip>
    <ImageClip extentID="177" gapBefore="0" mediaItemID="173" duration="0.050000000000000003">
      <Effects />
      <Transitions />
      <BoundProperties>
        <BoundPropertyInt Name="rotateStepNinety" Value="0" />
      </BoundProperties>
    </ImageClip>
    <ImageClip extentID="1805" gapBefore="0" mediaItemID="1801" duration="0.040000000000000001">
      <Effects />
      <Transitions />
      <BoundProperties>
        <BoundPropertyInt Name="rotateStepNinety" Value="0" />
      </BoundProperties>
    </ImageClip>
    <ImageClip extentID="178" gapBefore="0" mediaItemID="174" duration="0.050000000000000003">
      <Effects />
      <Transitions />
      <BoundProperties>
        <BoundPropertyInt Name="rotateStepNinety" Value="0" />
      </BoundProperties>
    </ImageClip>
    <ImageClip extentID="1806" gapBefore="0" mediaItemID="1802" duration="0.040000000000000001">
      <Effects />
      <Transitions />
      <BoundProperties>
        <BoundPropertyInt Name="rotateStepNinety" Value="0" />
      </BoundProperties>
    </ImageClip>
    <ImageClip extentID="179" gapBefore="0" mediaItemID="175" duration="0.050000000000000003">
      <Effects />
      <Transitions />
      <BoundProperties>
        <BoundPropertyInt Name="rotateStepNinety" Value="0" />
      </BoundProperties>
    </ImageClip>
    <ImageClip extentID="1807" gapBefore="0" mediaItemID="1803" duration="0.040000000000000001">
      <Effects />
      <Transitions />
      <BoundProperties>
        <BoundPropertyInt Name="rotateStepNinety" Value="0" />
      </BoundProperties>
    </ImageClip>
    <ImageClip extentID="180" gapBefore="0" mediaItemID="176" duration="0.050000000000000003">
      <Effects />
      <Transitions />
      <BoundProperties>
        <BoundPropertyInt Name="rotateStepNinety" Value="0" />
      </BoundProperties>
    </ImageClip>
    <ImageClip extentID="1808" gapBefore="0" mediaItemID="1804" duration="0.040000000000000001">
      <Effects />
      <Transitions />
      <BoundProperties>
        <BoundPropertyInt Name="rotateStepNinety" Value="0" />
      </BoundProperties>
    </ImageClip>
    <ImageClip extentID="181" gapBefore="0" mediaItemID="177" duration="0.050000000000000003">
      <Effects />
      <Transitions />
      <BoundProperties>
        <BoundPropertyInt Name="rotateStepNinety" Value="0" />
      </BoundProperties>
    </ImageClip>
    <ImageClip extentID="1809" gapBefore="0" mediaItemID="1805" duration="0.040000000000000001">
      <Effects />
      <Transitions />
      <BoundProperties>
        <BoundPropertyInt Name="rotateStepNinety" Value="0" />
      </BoundProperties>
    </ImageClip>
    <ImageClip extentID="182" gapBefore="0" mediaItemID="178" duration="0.050000000000000003">
      <Effects />
      <Transitions />
      <BoundProperties>
        <BoundPropertyInt Name="rotateStepNinety" Value="0" />
      </BoundProperties>
    </ImageClip>
    <ImageClip extentID="1810" gapBefore="0" mediaItemID="1806" duration="0.040000000000000001">
      <Effects />
      <Transitions />
      <BoundProperties>
        <BoundPropertyInt Name="rotateStepNinety" Value="0" />
      </BoundProperties>
    </ImageClip>
    <ImageClip extentID="183" gapBefore="0" mediaItemID="179" duration="0.050000000000000003">
      <Effects />
      <Transitions />
      <BoundProperties>
        <BoundPropertyInt Name="rotateStepNinety" Value="0" />
      </BoundProperties>
    </ImageClip>
    <ImageClip extentID="1811" gapBefore="0" mediaItemID="1807" duration="0.040000000000000001">
      <Effects />
      <Transitions />
      <BoundProperties>
        <BoundPropertyInt Name="rotateStepNinety" Value="0" />
      </BoundProperties>
    </ImageClip>
    <ImageClip extentID="184" gapBefore="0" mediaItemID="180" duration="0.050000000000000003">
      <Effects />
      <Transitions />
      <BoundProperties>
        <BoundPropertyInt Name="rotateStepNinety" Value="0" />
      </BoundProperties>
    </ImageClip>
    <ImageClip extentID="1812" gapBefore="0" mediaItemID="1808" duration="0.040000000000000001">
      <Effects />
      <Transitions />
      <BoundProperties>
        <BoundPropertyInt Name="rotateStepNinety" Value="0" />
      </BoundProperties>
    </ImageClip>
    <ImageClip extentID="185" gapBefore="0" mediaItemID="181" duration="0.050000000000000003">
      <Effects />
      <Transitions />
      <BoundProperties>
        <BoundPropertyInt Name="rotateStepNinety" Value="0" />
      </BoundProperties>
    </ImageClip>
    <ImageClip extentID="1813" gapBefore="0" mediaItemID="1809" duration="0.040000000000000001">
      <Effects />
      <Transitions />
      <BoundProperties>
        <BoundPropertyInt Name="rotateStepNinety" Value="0" />
      </BoundProperties>
    </ImageClip>
    <ImageClip extentID="186" gapBefore="0" mediaItemID="182" duration="0.050000000000000003">
      <Effects />
      <Transitions />
      <BoundProperties>
        <BoundPropertyInt Name="rotateStepNinety" Value="0" />
      </BoundProperties>
    </ImageClip>
    <ImageClip extentID="1814" gapBefore="0" mediaItemID="1810" duration="0.040000000000000001">
      <Effects />
      <Transitions />
      <BoundProperties>
        <BoundPropertyInt Name="rotateStepNinety" Value="0" />
      </BoundProperties>
    </ImageClip>
    <ImageClip extentID="187" gapBefore="0" mediaItemID="183" duration="0.050000000000000003">
      <Effects />
      <Transitions />
      <BoundProperties>
        <BoundPropertyInt Name="rotateStepNinety" Value="0" />
      </BoundProperties>
    </ImageClip>
    <ImageClip extentID="1815" gapBefore="0" mediaItemID="1811" duration="0.040000000000000001">
      <Effects />
      <Transitions />
      <BoundProperties>
        <BoundPropertyInt Name="rotateStepNinety" Value="0" />
      </BoundProperties>
    </ImageClip>
    <ImageClip extentID="188" gapBefore="0" mediaItemID="184" duration="0.050000000000000003">
      <Effects />
      <Transitions />
      <BoundProperties>
        <BoundPropertyInt Name="rotateStepNinety" Value="0" />
      </BoundProperties>
    </ImageClip>
    <ImageClip extentID="1816" gapBefore="0" mediaItemID="1812" duration="0.040000000000000001">
      <Effects />
      <Transitions />
      <BoundProperties>
        <BoundPropertyInt Name="rotateStepNinety" Value="0" />
      </BoundProperties>
    </ImageClip>
    <ImageClip extentID="189" gapBefore="0" mediaItemID="185" duration="0.050000000000000003">
      <Effects />
      <Transitions />
      <BoundProperties>
        <BoundPropertyInt Name="rotateStepNinety" Value="0" />
      </BoundProperties>
    </ImageClip>
    <ImageClip extentID="1817" gapBefore="0" mediaItemID="1813" duration="0.040000000000000001">
      <Effects />
      <Transitions />
      <BoundProperties>
        <BoundPropertyInt Name="rotateStepNinety" Value="0" />
      </BoundProperties>
    </ImageClip>
    <ImageClip extentID="190" gapBefore="0" mediaItemID="186" duration="0.050000000000000003">
      <Effects />
      <Transitions />
      <BoundProperties>
        <BoundPropertyInt Name="rotateStepNinety" Value="0" />
      </BoundProperties>
    </ImageClip>
    <ImageClip extentID="1818" gapBefore="0" mediaItemID="1814" duration="0.040000000000000001">
      <Effects />
      <Transitions />
      <BoundProperties>
        <BoundPropertyInt Name="rotateStepNinety" Value="0" />
      </BoundProperties>
    </ImageClip>
    <ImageClip extentID="191" gapBefore="0" mediaItemID="187" duration="0.050000000000000003">
      <Effects />
      <Transitions />
      <BoundProperties>
        <BoundPropertyInt Name="rotateStepNinety" Value="0" />
      </BoundProperties>
    </ImageClip>
    <ImageClip extentID="1819" gapBefore="0" mediaItemID="1815" duration="0.040000000000000001">
      <Effects />
      <Transitions />
      <BoundProperties>
        <BoundPropertyInt Name="rotateStepNinety" Value="0" />
      </BoundProperties>
    </ImageClip>
    <ImageClip extentID="192" gapBefore="0" mediaItemID="188" duration="0.050000000000000003">
      <Effects />
      <Transitions />
      <BoundProperties>
        <BoundPropertyInt Name="rotateStepNinety" Value="0" />
      </BoundProperties>
    </ImageClip>
    <ImageClip extentID="1820" gapBefore="0" mediaItemID="1816" duration="0.040000000000000001">
      <Effects />
      <Transitions />
      <BoundProperties>
        <BoundPropertyInt Name="rotateStepNinety" Value="0" />
      </BoundProperties>
    </ImageClip>
    <ImageClip extentID="193" gapBefore="0" mediaItemID="189" duration="0.050000000000000003">
      <Effects />
      <Transitions />
      <BoundProperties>
        <BoundPropertyInt Name="rotateStepNinety" Value="0" />
      </BoundProperties>
    </ImageClip>
    <ImageClip extentID="1821" gapBefore="0" mediaItemID="1817" duration="0.040000000000000001">
      <Effects />
      <Transitions />
      <BoundProperties>
        <BoundPropertyInt Name="rotateStepNinety" Value="0" />
      </BoundProperties>
    </ImageClip>
    <ImageClip extentID="194" gapBefore="0" mediaItemID="190" duration="0.050000000000000003">
      <Effects />
      <Transitions />
      <BoundProperties>
        <BoundPropertyInt Name="rotateStepNinety" Value="0" />
      </BoundProperties>
    </ImageClip>
    <ImageClip extentID="1822" gapBefore="0" mediaItemID="1818" duration="0.040000000000000001">
      <Effects />
      <Transitions />
      <BoundProperties>
        <BoundPropertyInt Name="rotateStepNinety" Value="0" />
      </BoundProperties>
    </ImageClip>
    <ImageClip extentID="195" gapBefore="0" mediaItemID="191" duration="0.050000000000000003">
      <Effects />
      <Transitions />
      <BoundProperties>
        <BoundPropertyInt Name="rotateStepNinety" Value="0" />
      </BoundProperties>
    </ImageClip>
    <ImageClip extentID="1823" gapBefore="0" mediaItemID="1819" duration="0.040000000000000001">
      <Effects />
      <Transitions />
      <BoundProperties>
        <BoundPropertyInt Name="rotateStepNinety" Value="0" />
      </BoundProperties>
    </ImageClip>
    <ImageClip extentID="196" gapBefore="0" mediaItemID="192" duration="0.050000000000000003">
      <Effects />
      <Transitions />
      <BoundProperties>
        <BoundPropertyInt Name="rotateStepNinety" Value="0" />
      </BoundProperties>
    </ImageClip>
    <ImageClip extentID="1824" gapBefore="0" mediaItemID="1820" duration="0.040000000000000001">
      <Effects />
      <Transitions />
      <BoundProperties>
        <BoundPropertyInt Name="rotateStepNinety" Value="0" />
      </BoundProperties>
    </ImageClip>
    <ImageClip extentID="197" gapBefore="0" mediaItemID="193" duration="0.050000000000000003">
      <Effects />
      <Transitions />
      <BoundProperties>
        <BoundPropertyInt Name="rotateStepNinety" Value="0" />
      </BoundProperties>
    </ImageClip>
    <ImageClip extentID="1825" gapBefore="0" mediaItemID="1821" duration="0.040000000000000001">
      <Effects />
      <Transitions />
      <BoundProperties>
        <BoundPropertyInt Name="rotateStepNinety" Value="0" />
      </BoundProperties>
    </ImageClip>
    <ImageClip extentID="198" gapBefore="0" mediaItemID="194" duration="0.050000000000000003">
      <Effects />
      <Transitions />
      <BoundProperties>
        <BoundPropertyInt Name="rotateStepNinety" Value="0" />
      </BoundProperties>
    </ImageClip>
    <ImageClip extentID="1826" gapBefore="0" mediaItemID="1822" duration="0.040000000000000001">
      <Effects />
      <Transitions />
      <BoundProperties>
        <BoundPropertyInt Name="rotateStepNinety" Value="0" />
      </BoundProperties>
    </ImageClip>
    <ImageClip extentID="199" gapBefore="0" mediaItemID="195" duration="0.050000000000000003">
      <Effects />
      <Transitions />
      <BoundProperties>
        <BoundPropertyInt Name="rotateStepNinety" Value="0" />
      </BoundProperties>
    </ImageClip>
    <ImageClip extentID="1827" gapBefore="0" mediaItemID="1823" duration="0.040000000000000001">
      <Effects />
      <Transitions />
      <BoundProperties>
        <BoundPropertyInt Name="rotateStepNinety" Value="0" />
      </BoundProperties>
    </ImageClip>
    <ImageClip extentID="200" gapBefore="0" mediaItemID="196" duration="0.050000000000000003">
      <Effects />
      <Transitions />
      <BoundProperties>
        <BoundPropertyInt Name="rotateStepNinety" Value="0" />
      </BoundProperties>
    </ImageClip>
    <ImageClip extentID="1828" gapBefore="0" mediaItemID="1824" duration="0.040000000000000001">
      <Effects />
      <Transitions />
      <BoundProperties>
        <BoundPropertyInt Name="rotateStepNinety" Value="0" />
      </BoundProperties>
    </ImageClip>
    <ImageClip extentID="201" gapBefore="0" mediaItemID="197" duration="0.050000000000000003">
      <Effects />
      <Transitions />
      <BoundProperties>
        <BoundPropertyInt Name="rotateStepNinety" Value="0" />
      </BoundProperties>
    </ImageClip>
    <ImageClip extentID="1829" gapBefore="0" mediaItemID="1825" duration="0.040000000000000001">
      <Effects />
      <Transitions />
      <BoundProperties>
        <BoundPropertyInt Name="rotateStepNinety" Value="0" />
      </BoundProperties>
    </ImageClip>
    <ImageClip extentID="202" gapBefore="0" mediaItemID="198" duration="0.050000000000000003">
      <Effects />
      <Transitions />
      <BoundProperties>
        <BoundPropertyInt Name="rotateStepNinety" Value="0" />
      </BoundProperties>
    </ImageClip>
    <ImageClip extentID="1830" gapBefore="0" mediaItemID="1826" duration="0.040000000000000001">
      <Effects />
      <Transitions />
      <BoundProperties>
        <BoundPropertyInt Name="rotateStepNinety" Value="0" />
      </BoundProperties>
    </ImageClip>
    <ImageClip extentID="203" gapBefore="0" mediaItemID="199" duration="0.050000000000000003">
      <Effects />
      <Transitions />
      <BoundProperties>
        <BoundPropertyInt Name="rotateStepNinety" Value="0" />
      </BoundProperties>
    </ImageClip>
    <ImageClip extentID="1831" gapBefore="0" mediaItemID="1827" duration="0.040000000000000001">
      <Effects />
      <Transitions />
      <BoundProperties>
        <BoundPropertyInt Name="rotateStepNinety" Value="0" />
      </BoundProperties>
    </ImageClip>
    <ImageClip extentID="204" gapBefore="0" mediaItemID="200" duration="0.050000000000000003">
      <Effects />
      <Transitions />
      <BoundProperties>
        <BoundPropertyInt Name="rotateStepNinety" Value="0" />
      </BoundProperties>
    </ImageClip>
    <ImageClip extentID="1832" gapBefore="0" mediaItemID="1828" duration="0.040000000000000001">
      <Effects />
      <Transitions />
      <BoundProperties>
        <BoundPropertyInt Name="rotateStepNinety" Value="0" />
      </BoundProperties>
    </ImageClip>
    <ImageClip extentID="205" gapBefore="0" mediaItemID="201" duration="0.050000000000000003">
      <Effects />
      <Transitions />
      <BoundProperties>
        <BoundPropertyInt Name="rotateStepNinety" Value="0" />
      </BoundProperties>
    </ImageClip>
    <ImageClip extentID="1833" gapBefore="0" mediaItemID="1829" duration="0.040000000000000001">
      <Effects />
      <Transitions />
      <BoundProperties>
        <BoundPropertyInt Name="rotateStepNinety" Value="0" />
      </BoundProperties>
    </ImageClip>
    <ImageClip extentID="206" gapBefore="0" mediaItemID="202" duration="0.050000000000000003">
      <Effects />
      <Transitions />
      <BoundProperties>
        <BoundPropertyInt Name="rotateStepNinety" Value="0" />
      </BoundProperties>
    </ImageClip>
    <ImageClip extentID="1834" gapBefore="0" mediaItemID="1830" duration="0.040000000000000001">
      <Effects />
      <Transitions />
      <BoundProperties>
        <BoundPropertyInt Name="rotateStepNinety" Value="0" />
      </BoundProperties>
    </ImageClip>
    <ImageClip extentID="207" gapBefore="0" mediaItemID="203" duration="0.050000000000000003">
      <Effects />
      <Transitions />
      <BoundProperties>
        <BoundPropertyInt Name="rotateStepNinety" Value="0" />
      </BoundProperties>
    </ImageClip>
    <ImageClip extentID="1835" gapBefore="0" mediaItemID="1831" duration="0.040000000000000001">
      <Effects />
      <Transitions />
      <BoundProperties>
        <BoundPropertyInt Name="rotateStepNinety" Value="0" />
      </BoundProperties>
    </ImageClip>
    <ImageClip extentID="208" gapBefore="0" mediaItemID="204" duration="0.050000000000000003">
      <Effects />
      <Transitions />
      <BoundProperties>
        <BoundPropertyInt Name="rotateStepNinety" Value="0" />
      </BoundProperties>
    </ImageClip>
    <ImageClip extentID="1836" gapBefore="0" mediaItemID="1832" duration="0.040000000000000001">
      <Effects />
      <Transitions />
      <BoundProperties>
        <BoundPropertyInt Name="rotateStepNinety" Value="0" />
      </BoundProperties>
    </ImageClip>
    <ImageClip extentID="209" gapBefore="0" mediaItemID="205" duration="0.050000000000000003">
      <Effects />
      <Transitions />
      <BoundProperties>
        <BoundPropertyInt Name="rotateStepNinety" Value="0" />
      </BoundProperties>
    </ImageClip>
    <ImageClip extentID="1837" gapBefore="0" mediaItemID="1833" duration="0.040000000000000001">
      <Effects />
      <Transitions />
      <BoundProperties>
        <BoundPropertyInt Name="rotateStepNinety" Value="0" />
      </BoundProperties>
    </ImageClip>
    <ImageClip extentID="210" gapBefore="0" mediaItemID="206" duration="0.050000000000000003">
      <Effects />
      <Transitions />
      <BoundProperties>
        <BoundPropertyInt Name="rotateStepNinety" Value="0" />
      </BoundProperties>
    </ImageClip>
    <ImageClip extentID="1838" gapBefore="0" mediaItemID="1834" duration="0.040000000000000001">
      <Effects />
      <Transitions />
      <BoundProperties>
        <BoundPropertyInt Name="rotateStepNinety" Value="0" />
      </BoundProperties>
    </ImageClip>
    <ImageClip extentID="211" gapBefore="0" mediaItemID="207" duration="0.050000000000000003">
      <Effects />
      <Transitions />
      <BoundProperties>
        <BoundPropertyInt Name="rotateStepNinety" Value="0" />
      </BoundProperties>
    </ImageClip>
    <ImageClip extentID="1839" gapBefore="0" mediaItemID="1835" duration="0.040000000000000001">
      <Effects />
      <Transitions />
      <BoundProperties>
        <BoundPropertyInt Name="rotateStepNinety" Value="0" />
      </BoundProperties>
    </ImageClip>
    <ImageClip extentID="212" gapBefore="0" mediaItemID="208" duration="0.050000000000000003">
      <Effects />
      <Transitions />
      <BoundProperties>
        <BoundPropertyInt Name="rotateStepNinety" Value="0" />
      </BoundProperties>
    </ImageClip>
    <ImageClip extentID="1840" gapBefore="0" mediaItemID="1836" duration="0.040000000000000001">
      <Effects />
      <Transitions />
      <BoundProperties>
        <BoundPropertyInt Name="rotateStepNinety" Value="0" />
      </BoundProperties>
    </ImageClip>
    <ImageClip extentID="213" gapBefore="0" mediaItemID="209" duration="0.050000000000000003">
      <Effects />
      <Transitions />
      <BoundProperties>
        <BoundPropertyInt Name="rotateStepNinety" Value="0" />
      </BoundProperties>
    </ImageClip>
    <ImageClip extentID="1841" gapBefore="0" mediaItemID="1837" duration="0.040000000000000001">
      <Effects />
      <Transitions />
      <BoundProperties>
        <BoundPropertyInt Name="rotateStepNinety" Value="0" />
      </BoundProperties>
    </ImageClip>
    <ImageClip extentID="214" gapBefore="0" mediaItemID="210" duration="0.050000000000000003">
      <Effects />
      <Transitions />
      <BoundProperties>
        <BoundPropertyInt Name="rotateStepNinety" Value="0" />
      </BoundProperties>
    </ImageClip>
    <ImageClip extentID="1842" gapBefore="0" mediaItemID="1838" duration="0.040000000000000001">
      <Effects />
      <Transitions />
      <BoundProperties>
        <BoundPropertyInt Name="rotateStepNinety" Value="0" />
      </BoundProperties>
    </ImageClip>
    <ImageClip extentID="215" gapBefore="0" mediaItemID="211" duration="0.050000000000000003">
      <Effects />
      <Transitions />
      <BoundProperties>
        <BoundPropertyInt Name="rotateStepNinety" Value="0" />
      </BoundProperties>
    </ImageClip>
    <ImageClip extentID="1843" gapBefore="0" mediaItemID="1839" duration="0.040000000000000001">
      <Effects />
      <Transitions />
      <BoundProperties>
        <BoundPropertyInt Name="rotateStepNinety" Value="0" />
      </BoundProperties>
    </ImageClip>
    <ImageClip extentID="216" gapBefore="0" mediaItemID="212" duration="0.050000000000000003">
      <Effects />
      <Transitions />
      <BoundProperties>
        <BoundPropertyInt Name="rotateStepNinety" Value="0" />
      </BoundProperties>
    </ImageClip>
    <ImageClip extentID="1844" gapBefore="0" mediaItemID="1840" duration="0.040000000000000001">
      <Effects />
      <Transitions />
      <BoundProperties>
        <BoundPropertyInt Name="rotateStepNinety" Value="0" />
      </BoundProperties>
    </ImageClip>
    <ImageClip extentID="217" gapBefore="0" mediaItemID="213" duration="0.050000000000000003">
      <Effects />
      <Transitions />
      <BoundProperties>
        <BoundPropertyInt Name="rotateStepNinety" Value="0" />
      </BoundProperties>
    </ImageClip>
    <ImageClip extentID="1845" gapBefore="0" mediaItemID="1841" duration="0.040000000000000001">
      <Effects />
      <Transitions />
      <BoundProperties>
        <BoundPropertyInt Name="rotateStepNinety" Value="0" />
      </BoundProperties>
    </ImageClip>
    <ImageClip extentID="218" gapBefore="0" mediaItemID="214" duration="0.050000000000000003">
      <Effects />
      <Transitions />
      <BoundProperties>
        <BoundPropertyInt Name="rotateStepNinety" Value="0" />
      </BoundProperties>
    </ImageClip>
    <ImageClip extentID="1846" gapBefore="0" mediaItemID="1842" duration="0.040000000000000001">
      <Effects />
      <Transitions />
      <BoundProperties>
        <BoundPropertyInt Name="rotateStepNinety" Value="0" />
      </BoundProperties>
    </ImageClip>
    <ImageClip extentID="219" gapBefore="0" mediaItemID="215" duration="0.050000000000000003">
      <Effects />
      <Transitions />
      <BoundProperties>
        <BoundPropertyInt Name="rotateStepNinety" Value="0" />
      </BoundProperties>
    </ImageClip>
    <ImageClip extentID="1847" gapBefore="0" mediaItemID="1843" duration="0.040000000000000001">
      <Effects />
      <Transitions />
      <BoundProperties>
        <BoundPropertyInt Name="rotateStepNinety" Value="0" />
      </BoundProperties>
    </ImageClip>
    <ImageClip extentID="220" gapBefore="0" mediaItemID="216" duration="0.050000000000000003">
      <Effects />
      <Transitions />
      <BoundProperties>
        <BoundPropertyInt Name="rotateStepNinety" Value="0" />
      </BoundProperties>
    </ImageClip>
    <ImageClip extentID="1848" gapBefore="0" mediaItemID="1844" duration="0.040000000000000001">
      <Effects />
      <Transitions />
      <BoundProperties>
        <BoundPropertyInt Name="rotateStepNinety" Value="0" />
      </BoundProperties>
    </ImageClip>
    <ImageClip extentID="221" gapBefore="0" mediaItemID="217" duration="0.050000000000000003">
      <Effects />
      <Transitions />
      <BoundProperties>
        <BoundPropertyInt Name="rotateStepNinety" Value="0" />
      </BoundProperties>
    </ImageClip>
    <ImageClip extentID="1849" gapBefore="0" mediaItemID="1845" duration="0.040000000000000001">
      <Effects />
      <Transitions />
      <BoundProperties>
        <BoundPropertyInt Name="rotateStepNinety" Value="0" />
      </BoundProperties>
    </ImageClip>
    <ImageClip extentID="222" gapBefore="0" mediaItemID="218" duration="0.050000000000000003">
      <Effects />
      <Transitions />
      <BoundProperties>
        <BoundPropertyInt Name="rotateStepNinety" Value="0" />
      </BoundProperties>
    </ImageClip>
    <ImageClip extentID="1850" gapBefore="0" mediaItemID="1846" duration="0.040000000000000001">
      <Effects />
      <Transitions />
      <BoundProperties>
        <BoundPropertyInt Name="rotateStepNinety" Value="0" />
      </BoundProperties>
    </ImageClip>
    <ImageClip extentID="223" gapBefore="0" mediaItemID="219" duration="0.050000000000000003">
      <Effects />
      <Transitions />
      <BoundProperties>
        <BoundPropertyInt Name="rotateStepNinety" Value="0" />
      </BoundProperties>
    </ImageClip>
    <ImageClip extentID="1851" gapBefore="0" mediaItemID="1847" duration="0.040000000000000001">
      <Effects />
      <Transitions />
      <BoundProperties>
        <BoundPropertyInt Name="rotateStepNinety" Value="0" />
      </BoundProperties>
    </ImageClip>
    <ImageClip extentID="224" gapBefore="0" mediaItemID="220" duration="0.040000000000000001">
      <Effects />
      <Transitions />
      <BoundProperties>
        <BoundPropertyInt Name="rotateStepNinety" Value="0" />
      </BoundProperties>
    </ImageClip>
    <ImageClip extentID="1852" gapBefore="0" mediaItemID="1848" duration="0.040000000000000001">
      <Effects />
      <Transitions />
      <BoundProperties>
        <BoundPropertyInt Name="rotateStepNinety" Value="0" />
      </BoundProperties>
    </ImageClip>
    <ImageClip extentID="225" gapBefore="0" mediaItemID="221" duration="0.040000000000000001">
      <Effects />
      <Transitions />
      <BoundProperties>
        <BoundPropertyInt Name="rotateStepNinety" Value="0" />
      </BoundProperties>
    </ImageClip>
    <ImageClip extentID="1853" gapBefore="0" mediaItemID="1849" duration="0.040000000000000001">
      <Effects />
      <Transitions />
      <BoundProperties>
        <BoundPropertyInt Name="rotateStepNinety" Value="0" />
      </BoundProperties>
    </ImageClip>
    <ImageClip extentID="226" gapBefore="0" mediaItemID="222" duration="0.040000000000000001">
      <Effects />
      <Transitions />
      <BoundProperties>
        <BoundPropertyInt Name="rotateStepNinety" Value="0" />
      </BoundProperties>
    </ImageClip>
    <ImageClip extentID="1854" gapBefore="0" mediaItemID="1850" duration="0.040000000000000001">
      <Effects />
      <Transitions />
      <BoundProperties>
        <BoundPropertyInt Name="rotateStepNinety" Value="0" />
      </BoundProperties>
    </ImageClip>
    <ImageClip extentID="227" gapBefore="0" mediaItemID="223" duration="0.040000000000000001">
      <Effects />
      <Transitions />
      <BoundProperties>
        <BoundPropertyInt Name="rotateStepNinety" Value="0" />
      </BoundProperties>
    </ImageClip>
    <ImageClip extentID="1855" gapBefore="0" mediaItemID="1851" duration="0.040000000000000001">
      <Effects />
      <Transitions />
      <BoundProperties>
        <BoundPropertyInt Name="rotateStepNinety" Value="0" />
      </BoundProperties>
    </ImageClip>
    <ImageClip extentID="228" gapBefore="0" mediaItemID="224" duration="0.040000000000000001">
      <Effects />
      <Transitions />
      <BoundProperties>
        <BoundPropertyInt Name="rotateStepNinety" Value="0" />
      </BoundProperties>
    </ImageClip>
    <ImageClip extentID="1856" gapBefore="0" mediaItemID="1852" duration="0.040000000000000001">
      <Effects />
      <Transitions />
      <BoundProperties>
        <BoundPropertyInt Name="rotateStepNinety" Value="0" />
      </BoundProperties>
    </ImageClip>
    <ImageClip extentID="229" gapBefore="0" mediaItemID="225" duration="0.040000000000000001">
      <Effects />
      <Transitions />
      <BoundProperties>
        <BoundPropertyInt Name="rotateStepNinety" Value="0" />
      </BoundProperties>
    </ImageClip>
    <ImageClip extentID="1857" gapBefore="0" mediaItemID="1853" duration="0.040000000000000001">
      <Effects />
      <Transitions />
      <BoundProperties>
        <BoundPropertyInt Name="rotateStepNinety" Value="0" />
      </BoundProperties>
    </ImageClip>
    <ImageClip extentID="230" gapBefore="0" mediaItemID="226" duration="0.040000000000000001">
      <Effects />
      <Transitions />
      <BoundProperties>
        <BoundPropertyInt Name="rotateStepNinety" Value="0" />
      </BoundProperties>
    </ImageClip>
    <ImageClip extentID="1858" gapBefore="0" mediaItemID="1854" duration="0.040000000000000001">
      <Effects />
      <Transitions />
      <BoundProperties>
        <BoundPropertyInt Name="rotateStepNinety" Value="0" />
      </BoundProperties>
    </ImageClip>
    <ImageClip extentID="231" gapBefore="0" mediaItemID="227" duration="0.040000000000000001">
      <Effects />
      <Transitions />
      <BoundProperties>
        <BoundPropertyInt Name="rotateStepNinety" Value="0" />
      </BoundProperties>
    </ImageClip>
    <ImageClip extentID="1859" gapBefore="0" mediaItemID="1855" duration="0.040000000000000001">
      <Effects />
      <Transitions />
      <BoundProperties>
        <BoundPropertyInt Name="rotateStepNinety" Value="0" />
      </BoundProperties>
    </ImageClip>
    <ImageClip extentID="232" gapBefore="0" mediaItemID="228" duration="0.040000000000000001">
      <Effects />
      <Transitions />
      <BoundProperties>
        <BoundPropertyInt Name="rotateStepNinety" Value="0" />
      </BoundProperties>
    </ImageClip>
    <ImageClip extentID="1860" gapBefore="0" mediaItemID="1856" duration="0.040000000000000001">
      <Effects />
      <Transitions />
      <BoundProperties>
        <BoundPropertyInt Name="rotateStepNinety" Value="0" />
      </BoundProperties>
    </ImageClip>
    <ImageClip extentID="233" gapBefore="0" mediaItemID="229" duration="0.040000000000000001">
      <Effects />
      <Transitions />
      <BoundProperties>
        <BoundPropertyInt Name="rotateStepNinety" Value="0" />
      </BoundProperties>
    </ImageClip>
    <ImageClip extentID="1861" gapBefore="0" mediaItemID="1857" duration="0.040000000000000001">
      <Effects />
      <Transitions />
      <BoundProperties>
        <BoundPropertyInt Name="rotateStepNinety" Value="0" />
      </BoundProperties>
    </ImageClip>
    <ImageClip extentID="234" gapBefore="0" mediaItemID="230" duration="0.040000000000000001">
      <Effects />
      <Transitions />
      <BoundProperties>
        <BoundPropertyInt Name="rotateStepNinety" Value="0" />
      </BoundProperties>
    </ImageClip>
    <ImageClip extentID="1862" gapBefore="0" mediaItemID="1858" duration="0.040000000000000001">
      <Effects />
      <Transitions />
      <BoundProperties>
        <BoundPropertyInt Name="rotateStepNinety" Value="0" />
      </BoundProperties>
    </ImageClip>
    <ImageClip extentID="235" gapBefore="0" mediaItemID="231" duration="0.040000000000000001">
      <Effects />
      <Transitions />
      <BoundProperties>
        <BoundPropertyInt Name="rotateStepNinety" Value="0" />
      </BoundProperties>
    </ImageClip>
    <ImageClip extentID="1863" gapBefore="0" mediaItemID="1859" duration="0.040000000000000001">
      <Effects />
      <Transitions />
      <BoundProperties>
        <BoundPropertyInt Name="rotateStepNinety" Value="0" />
      </BoundProperties>
    </ImageClip>
    <ImageClip extentID="236" gapBefore="0" mediaItemID="232" duration="0.040000000000000001">
      <Effects />
      <Transitions />
      <BoundProperties>
        <BoundPropertyInt Name="rotateStepNinety" Value="0" />
      </BoundProperties>
    </ImageClip>
    <ImageClip extentID="1864" gapBefore="0" mediaItemID="1860" duration="0.040000000000000001">
      <Effects />
      <Transitions />
      <BoundProperties>
        <BoundPropertyInt Name="rotateStepNinety" Value="0" />
      </BoundProperties>
    </ImageClip>
    <ImageClip extentID="237" gapBefore="0" mediaItemID="233" duration="0.040000000000000001">
      <Effects />
      <Transitions />
      <BoundProperties>
        <BoundPropertyInt Name="rotateStepNinety" Value="0" />
      </BoundProperties>
    </ImageClip>
    <ImageClip extentID="1865" gapBefore="0" mediaItemID="1861" duration="0.040000000000000001">
      <Effects />
      <Transitions />
      <BoundProperties>
        <BoundPropertyInt Name="rotateStepNinety" Value="0" />
      </BoundProperties>
    </ImageClip>
    <ImageClip extentID="238" gapBefore="0" mediaItemID="234" duration="0.040000000000000001">
      <Effects />
      <Transitions />
      <BoundProperties>
        <BoundPropertyInt Name="rotateStepNinety" Value="0" />
      </BoundProperties>
    </ImageClip>
    <ImageClip extentID="1866" gapBefore="0" mediaItemID="1862" duration="0.040000000000000001">
      <Effects />
      <Transitions />
      <BoundProperties>
        <BoundPropertyInt Name="rotateStepNinety" Value="0" />
      </BoundProperties>
    </ImageClip>
    <ImageClip extentID="239" gapBefore="0" mediaItemID="235" duration="0.040000000000000001">
      <Effects />
      <Transitions />
      <BoundProperties>
        <BoundPropertyInt Name="rotateStepNinety" Value="0" />
      </BoundProperties>
    </ImageClip>
    <ImageClip extentID="1867" gapBefore="0" mediaItemID="1863" duration="0.040000000000000001">
      <Effects />
      <Transitions />
      <BoundProperties>
        <BoundPropertyInt Name="rotateStepNinety" Value="0" />
      </BoundProperties>
    </ImageClip>
    <ImageClip extentID="240" gapBefore="0" mediaItemID="236" duration="0.040000000000000001">
      <Effects />
      <Transitions />
      <BoundProperties>
        <BoundPropertyInt Name="rotateStepNinety" Value="0" />
      </BoundProperties>
    </ImageClip>
    <ImageClip extentID="1868" gapBefore="0" mediaItemID="1864" duration="0.040000000000000001">
      <Effects />
      <Transitions />
      <BoundProperties>
        <BoundPropertyInt Name="rotateStepNinety" Value="0" />
      </BoundProperties>
    </ImageClip>
    <ImageClip extentID="241" gapBefore="0" mediaItemID="237" duration="0.040000000000000001">
      <Effects />
      <Transitions />
      <BoundProperties>
        <BoundPropertyInt Name="rotateStepNinety" Value="0" />
      </BoundProperties>
    </ImageClip>
    <ImageClip extentID="1869" gapBefore="0" mediaItemID="1865" duration="0.040000000000000001">
      <Effects />
      <Transitions />
      <BoundProperties>
        <BoundPropertyInt Name="rotateStepNinety" Value="0" />
      </BoundProperties>
    </ImageClip>
    <ImageClip extentID="242" gapBefore="0" mediaItemID="238" duration="0.040000000000000001">
      <Effects />
      <Transitions />
      <BoundProperties>
        <BoundPropertyInt Name="rotateStepNinety" Value="0" />
      </BoundProperties>
    </ImageClip>
    <ImageClip extentID="1870" gapBefore="0" mediaItemID="1866" duration="0.040000000000000001">
      <Effects />
      <Transitions />
      <BoundProperties>
        <BoundPropertyInt Name="rotateStepNinety" Value="0" />
      </BoundProperties>
    </ImageClip>
    <ImageClip extentID="243" gapBefore="0" mediaItemID="239" duration="0.040000000000000001">
      <Effects />
      <Transitions />
      <BoundProperties>
        <BoundPropertyInt Name="rotateStepNinety" Value="0" />
      </BoundProperties>
    </ImageClip>
    <ImageClip extentID="1871" gapBefore="0" mediaItemID="1867" duration="0.040000000000000001">
      <Effects />
      <Transitions />
      <BoundProperties>
        <BoundPropertyInt Name="rotateStepNinety" Value="0" />
      </BoundProperties>
    </ImageClip>
    <ImageClip extentID="244" gapBefore="0" mediaItemID="240" duration="0.040000000000000001">
      <Effects />
      <Transitions />
      <BoundProperties>
        <BoundPropertyInt Name="rotateStepNinety" Value="0" />
      </BoundProperties>
    </ImageClip>
    <ImageClip extentID="1872" gapBefore="0" mediaItemID="1868" duration="0.040000000000000001">
      <Effects />
      <Transitions />
      <BoundProperties>
        <BoundPropertyInt Name="rotateStepNinety" Value="0" />
      </BoundProperties>
    </ImageClip>
    <ImageClip extentID="245" gapBefore="0" mediaItemID="241" duration="0.040000000000000001">
      <Effects />
      <Transitions />
      <BoundProperties>
        <BoundPropertyInt Name="rotateStepNinety" Value="0" />
      </BoundProperties>
    </ImageClip>
    <ImageClip extentID="1873" gapBefore="0" mediaItemID="1869" duration="0.040000000000000001">
      <Effects />
      <Transitions />
      <BoundProperties>
        <BoundPropertyInt Name="rotateStepNinety" Value="0" />
      </BoundProperties>
    </ImageClip>
    <ImageClip extentID="246" gapBefore="0" mediaItemID="242" duration="0.040000000000000001">
      <Effects />
      <Transitions />
      <BoundProperties>
        <BoundPropertyInt Name="rotateStepNinety" Value="0" />
      </BoundProperties>
    </ImageClip>
    <ImageClip extentID="1874" gapBefore="0" mediaItemID="1870" duration="0.040000000000000001">
      <Effects />
      <Transitions />
      <BoundProperties>
        <BoundPropertyInt Name="rotateStepNinety" Value="0" />
      </BoundProperties>
    </ImageClip>
    <ImageClip extentID="247" gapBefore="0" mediaItemID="243" duration="0.040000000000000001">
      <Effects />
      <Transitions />
      <BoundProperties>
        <BoundPropertyInt Name="rotateStepNinety" Value="0" />
      </BoundProperties>
    </ImageClip>
    <ImageClip extentID="1875" gapBefore="0" mediaItemID="1871" duration="0.040000000000000001">
      <Effects />
      <Transitions />
      <BoundProperties>
        <BoundPropertyInt Name="rotateStepNinety" Value="0" />
      </BoundProperties>
    </ImageClip>
    <ImageClip extentID="248" gapBefore="0" mediaItemID="244" duration="0.040000000000000001">
      <Effects />
      <Transitions />
      <BoundProperties>
        <BoundPropertyInt Name="rotateStepNinety" Value="0" />
      </BoundProperties>
    </ImageClip>
    <ImageClip extentID="1876" gapBefore="0" mediaItemID="1872" duration="0.040000000000000001">
      <Effects />
      <Transitions />
      <BoundProperties>
        <BoundPropertyInt Name="rotateStepNinety" Value="0" />
      </BoundProperties>
    </ImageClip>
    <ImageClip extentID="249" gapBefore="0" mediaItemID="245" duration="0.040000000000000001">
      <Effects />
      <Transitions />
      <BoundProperties>
        <BoundPropertyInt Name="rotateStepNinety" Value="0" />
      </BoundProperties>
    </ImageClip>
    <ImageClip extentID="1877" gapBefore="0" mediaItemID="1873" duration="0.040000000000000001">
      <Effects />
      <Transitions />
      <BoundProperties>
        <BoundPropertyInt Name="rotateStepNinety" Value="0" />
      </BoundProperties>
    </ImageClip>
    <ImageClip extentID="250" gapBefore="0" mediaItemID="246" duration="0.040000000000000001">
      <Effects />
      <Transitions />
      <BoundProperties>
        <BoundPropertyInt Name="rotateStepNinety" Value="0" />
      </BoundProperties>
    </ImageClip>
    <ImageClip extentID="1878" gapBefore="0" mediaItemID="1874" duration="0.040000000000000001">
      <Effects />
      <Transitions />
      <BoundProperties>
        <BoundPropertyInt Name="rotateStepNinety" Value="0" />
      </BoundProperties>
    </ImageClip>
    <ImageClip extentID="251" gapBefore="0" mediaItemID="247" duration="0.040000000000000001">
      <Effects />
      <Transitions />
      <BoundProperties>
        <BoundPropertyInt Name="rotateStepNinety" Value="0" />
      </BoundProperties>
    </ImageClip>
    <ImageClip extentID="1879" gapBefore="0" mediaItemID="1875" duration="0.040000000000000001">
      <Effects />
      <Transitions />
      <BoundProperties>
        <BoundPropertyInt Name="rotateStepNinety" Value="0" />
      </BoundProperties>
    </ImageClip>
    <ImageClip extentID="252" gapBefore="0" mediaItemID="248" duration="0.040000000000000001">
      <Effects />
      <Transitions />
      <BoundProperties>
        <BoundPropertyInt Name="rotateStepNinety" Value="0" />
      </BoundProperties>
    </ImageClip>
    <ImageClip extentID="1880" gapBefore="0" mediaItemID="1876" duration="0.040000000000000001">
      <Effects />
      <Transitions />
      <BoundProperties>
        <BoundPropertyInt Name="rotateStepNinety" Value="0" />
      </BoundProperties>
    </ImageClip>
    <ImageClip extentID="253" gapBefore="0" mediaItemID="249" duration="0.040000000000000001">
      <Effects />
      <Transitions />
      <BoundProperties>
        <BoundPropertyInt Name="rotateStepNinety" Value="0" />
      </BoundProperties>
    </ImageClip>
    <ImageClip extentID="1881" gapBefore="0" mediaItemID="1877" duration="0.040000000000000001">
      <Effects />
      <Transitions />
      <BoundProperties>
        <BoundPropertyInt Name="rotateStepNinety" Value="0" />
      </BoundProperties>
    </ImageClip>
    <ImageClip extentID="254" gapBefore="0" mediaItemID="250" duration="0.040000000000000001">
      <Effects />
      <Transitions />
      <BoundProperties>
        <BoundPropertyInt Name="rotateStepNinety" Value="0" />
      </BoundProperties>
    </ImageClip>
    <ImageClip extentID="1882" gapBefore="0" mediaItemID="1878" duration="0.040000000000000001">
      <Effects />
      <Transitions />
      <BoundProperties>
        <BoundPropertyInt Name="rotateStepNinety" Value="0" />
      </BoundProperties>
    </ImageClip>
    <ImageClip extentID="255" gapBefore="0" mediaItemID="251" duration="0.040000000000000001">
      <Effects />
      <Transitions />
      <BoundProperties>
        <BoundPropertyInt Name="rotateStepNinety" Value="0" />
      </BoundProperties>
    </ImageClip>
    <ImageClip extentID="1883" gapBefore="0" mediaItemID="1879" duration="0.040000000000000001">
      <Effects />
      <Transitions />
      <BoundProperties>
        <BoundPropertyInt Name="rotateStepNinety" Value="0" />
      </BoundProperties>
    </ImageClip>
    <ImageClip extentID="256" gapBefore="0" mediaItemID="252" duration="0.040000000000000001">
      <Effects />
      <Transitions />
      <BoundProperties>
        <BoundPropertyInt Name="rotateStepNinety" Value="0" />
      </BoundProperties>
    </ImageClip>
    <ImageClip extentID="1884" gapBefore="0" mediaItemID="1880" duration="0.040000000000000001">
      <Effects />
      <Transitions />
      <BoundProperties>
        <BoundPropertyInt Name="rotateStepNinety" Value="0" />
      </BoundProperties>
    </ImageClip>
    <ImageClip extentID="257" gapBefore="0" mediaItemID="253" duration="0.040000000000000001">
      <Effects />
      <Transitions />
      <BoundProperties>
        <BoundPropertyInt Name="rotateStepNinety" Value="0" />
      </BoundProperties>
    </ImageClip>
    <ImageClip extentID="1885" gapBefore="0" mediaItemID="1881" duration="0.040000000000000001">
      <Effects />
      <Transitions />
      <BoundProperties>
        <BoundPropertyInt Name="rotateStepNinety" Value="0" />
      </BoundProperties>
    </ImageClip>
    <ImageClip extentID="258" gapBefore="0" mediaItemID="254" duration="0.040000000000000001">
      <Effects />
      <Transitions />
      <BoundProperties>
        <BoundPropertyInt Name="rotateStepNinety" Value="0" />
      </BoundProperties>
    </ImageClip>
    <ImageClip extentID="1886" gapBefore="0" mediaItemID="1882" duration="0.040000000000000001">
      <Effects />
      <Transitions />
      <BoundProperties>
        <BoundPropertyInt Name="rotateStepNinety" Value="0" />
      </BoundProperties>
    </ImageClip>
    <ImageClip extentID="259" gapBefore="0" mediaItemID="255" duration="0.040000000000000001">
      <Effects />
      <Transitions />
      <BoundProperties>
        <BoundPropertyInt Name="rotateStepNinety" Value="0" />
      </BoundProperties>
    </ImageClip>
    <ImageClip extentID="1887" gapBefore="0" mediaItemID="1883" duration="0.040000000000000001">
      <Effects />
      <Transitions />
      <BoundProperties>
        <BoundPropertyInt Name="rotateStepNinety" Value="0" />
      </BoundProperties>
    </ImageClip>
    <ImageClip extentID="260" gapBefore="0" mediaItemID="256" duration="0.040000000000000001">
      <Effects />
      <Transitions />
      <BoundProperties>
        <BoundPropertyInt Name="rotateStepNinety" Value="0" />
      </BoundProperties>
    </ImageClip>
    <ImageClip extentID="1888" gapBefore="0" mediaItemID="1884" duration="0.040000000000000001">
      <Effects />
      <Transitions />
      <BoundProperties>
        <BoundPropertyInt Name="rotateStepNinety" Value="0" />
      </BoundProperties>
    </ImageClip>
    <ImageClip extentID="261" gapBefore="0" mediaItemID="257" duration="0.040000000000000001">
      <Effects />
      <Transitions />
      <BoundProperties>
        <BoundPropertyInt Name="rotateStepNinety" Value="0" />
      </BoundProperties>
    </ImageClip>
    <ImageClip extentID="1889" gapBefore="0" mediaItemID="1885" duration="0.040000000000000001">
      <Effects />
      <Transitions />
      <BoundProperties>
        <BoundPropertyInt Name="rotateStepNinety" Value="0" />
      </BoundProperties>
    </ImageClip>
    <ImageClip extentID="262" gapBefore="0" mediaItemID="258" duration="0.040000000000000001">
      <Effects />
      <Transitions />
      <BoundProperties>
        <BoundPropertyInt Name="rotateStepNinety" Value="0" />
      </BoundProperties>
    </ImageClip>
    <ImageClip extentID="1890" gapBefore="0" mediaItemID="1886" duration="0.040000000000000001">
      <Effects />
      <Transitions />
      <BoundProperties>
        <BoundPropertyInt Name="rotateStepNinety" Value="0" />
      </BoundProperties>
    </ImageClip>
    <ImageClip extentID="263" gapBefore="0" mediaItemID="259" duration="0.040000000000000001">
      <Effects />
      <Transitions />
      <BoundProperties>
        <BoundPropertyInt Name="rotateStepNinety" Value="0" />
      </BoundProperties>
    </ImageClip>
    <ImageClip extentID="1891" gapBefore="0" mediaItemID="1887" duration="0.040000000000000001">
      <Effects />
      <Transitions />
      <BoundProperties>
        <BoundPropertyInt Name="rotateStepNinety" Value="0" />
      </BoundProperties>
    </ImageClip>
    <ImageClip extentID="264" gapBefore="0" mediaItemID="260" duration="0.040000000000000001">
      <Effects />
      <Transitions />
      <BoundProperties>
        <BoundPropertyInt Name="rotateStepNinety" Value="0" />
      </BoundProperties>
    </ImageClip>
    <ImageClip extentID="1892" gapBefore="0" mediaItemID="1888" duration="0.040000000000000001">
      <Effects />
      <Transitions />
      <BoundProperties>
        <BoundPropertyInt Name="rotateStepNinety" Value="0" />
      </BoundProperties>
    </ImageClip>
    <ImageClip extentID="265" gapBefore="0" mediaItemID="261" duration="0.040000000000000001">
      <Effects />
      <Transitions />
      <BoundProperties>
        <BoundPropertyInt Name="rotateStepNinety" Value="0" />
      </BoundProperties>
    </ImageClip>
    <ImageClip extentID="1893" gapBefore="0" mediaItemID="1889" duration="0.040000000000000001">
      <Effects />
      <Transitions />
      <BoundProperties>
        <BoundPropertyInt Name="rotateStepNinety" Value="0" />
      </BoundProperties>
    </ImageClip>
    <ImageClip extentID="266" gapBefore="0" mediaItemID="262" duration="0.040000000000000001">
      <Effects />
      <Transitions />
      <BoundProperties>
        <BoundPropertyInt Name="rotateStepNinety" Value="0" />
      </BoundProperties>
    </ImageClip>
    <ImageClip extentID="1894" gapBefore="0" mediaItemID="1890" duration="0.040000000000000001">
      <Effects />
      <Transitions />
      <BoundProperties>
        <BoundPropertyInt Name="rotateStepNinety" Value="0" />
      </BoundProperties>
    </ImageClip>
    <ImageClip extentID="267" gapBefore="0" mediaItemID="263" duration="0.040000000000000001">
      <Effects />
      <Transitions />
      <BoundProperties>
        <BoundPropertyInt Name="rotateStepNinety" Value="0" />
      </BoundProperties>
    </ImageClip>
    <ImageClip extentID="1895" gapBefore="0" mediaItemID="1891" duration="0.040000000000000001">
      <Effects />
      <Transitions />
      <BoundProperties>
        <BoundPropertyInt Name="rotateStepNinety" Value="0" />
      </BoundProperties>
    </ImageClip>
    <ImageClip extentID="268" gapBefore="0" mediaItemID="264" duration="0.040000000000000001">
      <Effects />
      <Transitions />
      <BoundProperties>
        <BoundPropertyInt Name="rotateStepNinety" Value="0" />
      </BoundProperties>
    </ImageClip>
    <ImageClip extentID="1896" gapBefore="0" mediaItemID="1892" duration="0.040000000000000001">
      <Effects />
      <Transitions />
      <BoundProperties>
        <BoundPropertyInt Name="rotateStepNinety" Value="0" />
      </BoundProperties>
    </ImageClip>
    <ImageClip extentID="269" gapBefore="0" mediaItemID="265" duration="0.040000000000000001">
      <Effects />
      <Transitions />
      <BoundProperties>
        <BoundPropertyInt Name="rotateStepNinety" Value="0" />
      </BoundProperties>
    </ImageClip>
    <ImageClip extentID="1897" gapBefore="0" mediaItemID="1893" duration="0.040000000000000001">
      <Effects />
      <Transitions />
      <BoundProperties>
        <BoundPropertyInt Name="rotateStepNinety" Value="0" />
      </BoundProperties>
    </ImageClip>
    <ImageClip extentID="270" gapBefore="0" mediaItemID="266" duration="0.040000000000000001">
      <Effects />
      <Transitions />
      <BoundProperties>
        <BoundPropertyInt Name="rotateStepNinety" Value="0" />
      </BoundProperties>
    </ImageClip>
    <ImageClip extentID="1898" gapBefore="0" mediaItemID="1894" duration="0.040000000000000001">
      <Effects />
      <Transitions />
      <BoundProperties>
        <BoundPropertyInt Name="rotateStepNinety" Value="0" />
      </BoundProperties>
    </ImageClip>
    <ImageClip extentID="271" gapBefore="0" mediaItemID="267" duration="0.040000000000000001">
      <Effects />
      <Transitions />
      <BoundProperties>
        <BoundPropertyInt Name="rotateStepNinety" Value="0" />
      </BoundProperties>
    </ImageClip>
    <ImageClip extentID="1899" gapBefore="0" mediaItemID="1895" duration="0.040000000000000001">
      <Effects />
      <Transitions />
      <BoundProperties>
        <BoundPropertyInt Name="rotateStepNinety" Value="0" />
      </BoundProperties>
    </ImageClip>
    <ImageClip extentID="272" gapBefore="0" mediaItemID="268" duration="0.040000000000000001">
      <Effects />
      <Transitions />
      <BoundProperties>
        <BoundPropertyInt Name="rotateStepNinety" Value="0" />
      </BoundProperties>
    </ImageClip>
    <ImageClip extentID="1900" gapBefore="0" mediaItemID="1896" duration="0.040000000000000001">
      <Effects />
      <Transitions />
      <BoundProperties>
        <BoundPropertyInt Name="rotateStepNinety" Value="0" />
      </BoundProperties>
    </ImageClip>
    <ImageClip extentID="273" gapBefore="0" mediaItemID="269" duration="0.040000000000000001">
      <Effects />
      <Transitions />
      <BoundProperties>
        <BoundPropertyInt Name="rotateStepNinety" Value="0" />
      </BoundProperties>
    </ImageClip>
    <ImageClip extentID="1901" gapBefore="0" mediaItemID="1897" duration="0.040000000000000001">
      <Effects />
      <Transitions />
      <BoundProperties>
        <BoundPropertyInt Name="rotateStepNinety" Value="0" />
      </BoundProperties>
    </ImageClip>
    <ImageClip extentID="274" gapBefore="0" mediaItemID="270" duration="0.040000000000000001">
      <Effects />
      <Transitions />
      <BoundProperties>
        <BoundPropertyInt Name="rotateStepNinety" Value="0" />
      </BoundProperties>
    </ImageClip>
    <ImageClip extentID="1902" gapBefore="0" mediaItemID="1898" duration="0.040000000000000001">
      <Effects />
      <Transitions />
      <BoundProperties>
        <BoundPropertyInt Name="rotateStepNinety" Value="0" />
      </BoundProperties>
    </ImageClip>
    <ImageClip extentID="275" gapBefore="0" mediaItemID="271" duration="0.040000000000000001">
      <Effects />
      <Transitions />
      <BoundProperties>
        <BoundPropertyInt Name="rotateStepNinety" Value="0" />
      </BoundProperties>
    </ImageClip>
    <ImageClip extentID="1903" gapBefore="0" mediaItemID="1899" duration="0.040000000000000001">
      <Effects />
      <Transitions />
      <BoundProperties>
        <BoundPropertyInt Name="rotateStepNinety" Value="0" />
      </BoundProperties>
    </ImageClip>
    <ImageClip extentID="276" gapBefore="0" mediaItemID="272" duration="0.040000000000000001">
      <Effects />
      <Transitions />
      <BoundProperties>
        <BoundPropertyInt Name="rotateStepNinety" Value="0" />
      </BoundProperties>
    </ImageClip>
    <ImageClip extentID="1904" gapBefore="0" mediaItemID="1900" duration="0.040000000000000001">
      <Effects />
      <Transitions />
      <BoundProperties>
        <BoundPropertyInt Name="rotateStepNinety" Value="0" />
      </BoundProperties>
    </ImageClip>
    <ImageClip extentID="277" gapBefore="0" mediaItemID="273" duration="0.040000000000000001">
      <Effects />
      <Transitions />
      <BoundProperties>
        <BoundPropertyInt Name="rotateStepNinety" Value="0" />
      </BoundProperties>
    </ImageClip>
    <ImageClip extentID="1905" gapBefore="0" mediaItemID="1901" duration="0.040000000000000001">
      <Effects />
      <Transitions />
      <BoundProperties>
        <BoundPropertyInt Name="rotateStepNinety" Value="0" />
      </BoundProperties>
    </ImageClip>
    <ImageClip extentID="278" gapBefore="0" mediaItemID="274" duration="0.040000000000000001">
      <Effects />
      <Transitions />
      <BoundProperties>
        <BoundPropertyInt Name="rotateStepNinety" Value="0" />
      </BoundProperties>
    </ImageClip>
    <ImageClip extentID="1906" gapBefore="0" mediaItemID="1902" duration="0.040000000000000001">
      <Effects />
      <Transitions />
      <BoundProperties>
        <BoundPropertyInt Name="rotateStepNinety" Value="0" />
      </BoundProperties>
    </ImageClip>
    <ImageClip extentID="279" gapBefore="0" mediaItemID="275" duration="0.040000000000000001">
      <Effects />
      <Transitions />
      <BoundProperties>
        <BoundPropertyInt Name="rotateStepNinety" Value="0" />
      </BoundProperties>
    </ImageClip>
    <ImageClip extentID="1907" gapBefore="0" mediaItemID="1903" duration="0.040000000000000001">
      <Effects />
      <Transitions />
      <BoundProperties>
        <BoundPropertyInt Name="rotateStepNinety" Value="0" />
      </BoundProperties>
    </ImageClip>
    <ImageClip extentID="280" gapBefore="0" mediaItemID="276" duration="0.040000000000000001">
      <Effects />
      <Transitions />
      <BoundProperties>
        <BoundPropertyInt Name="rotateStepNinety" Value="0" />
      </BoundProperties>
    </ImageClip>
    <ImageClip extentID="1908" gapBefore="0" mediaItemID="1904" duration="0.040000000000000001">
      <Effects />
      <Transitions />
      <BoundProperties>
        <BoundPropertyInt Name="rotateStepNinety" Value="0" />
      </BoundProperties>
    </ImageClip>
    <ImageClip extentID="281" gapBefore="0" mediaItemID="277" duration="0.040000000000000001">
      <Effects />
      <Transitions />
      <BoundProperties>
        <BoundPropertyInt Name="rotateStepNinety" Value="0" />
      </BoundProperties>
    </ImageClip>
    <ImageClip extentID="1909" gapBefore="0" mediaItemID="1905" duration="0.040000000000000001">
      <Effects />
      <Transitions />
      <BoundProperties>
        <BoundPropertyInt Name="rotateStepNinety" Value="0" />
      </BoundProperties>
    </ImageClip>
    <ImageClip extentID="282" gapBefore="0" mediaItemID="278" duration="0.040000000000000001">
      <Effects />
      <Transitions />
      <BoundProperties>
        <BoundPropertyInt Name="rotateStepNinety" Value="0" />
      </BoundProperties>
    </ImageClip>
    <ImageClip extentID="1910" gapBefore="0" mediaItemID="1906" duration="0.040000000000000001">
      <Effects />
      <Transitions />
      <BoundProperties>
        <BoundPropertyInt Name="rotateStepNinety" Value="0" />
      </BoundProperties>
    </ImageClip>
    <ImageClip extentID="283" gapBefore="0" mediaItemID="279" duration="0.040000000000000001">
      <Effects />
      <Transitions />
      <BoundProperties>
        <BoundPropertyInt Name="rotateStepNinety" Value="0" />
      </BoundProperties>
    </ImageClip>
    <ImageClip extentID="1911" gapBefore="0" mediaItemID="1907" duration="0.040000000000000001">
      <Effects />
      <Transitions />
      <BoundProperties>
        <BoundPropertyInt Name="rotateStepNinety" Value="0" />
      </BoundProperties>
    </ImageClip>
    <ImageClip extentID="284" gapBefore="0" mediaItemID="280" duration="0.040000000000000001">
      <Effects />
      <Transitions />
      <BoundProperties>
        <BoundPropertyInt Name="rotateStepNinety" Value="0" />
      </BoundProperties>
    </ImageClip>
    <ImageClip extentID="1912" gapBefore="0" mediaItemID="1908" duration="0.040000000000000001">
      <Effects />
      <Transitions />
      <BoundProperties>
        <BoundPropertyInt Name="rotateStepNinety" Value="0" />
      </BoundProperties>
    </ImageClip>
    <ImageClip extentID="285" gapBefore="0" mediaItemID="281" duration="0.040000000000000001">
      <Effects />
      <Transitions />
      <BoundProperties>
        <BoundPropertyInt Name="rotateStepNinety" Value="0" />
      </BoundProperties>
    </ImageClip>
    <ImageClip extentID="1913" gapBefore="0" mediaItemID="1909" duration="0.040000000000000001">
      <Effects />
      <Transitions />
      <BoundProperties>
        <BoundPropertyInt Name="rotateStepNinety" Value="0" />
      </BoundProperties>
    </ImageClip>
    <ImageClip extentID="286" gapBefore="0" mediaItemID="282" duration="0.040000000000000001">
      <Effects />
      <Transitions />
      <BoundProperties>
        <BoundPropertyInt Name="rotateStepNinety" Value="0" />
      </BoundProperties>
    </ImageClip>
    <ImageClip extentID="1914" gapBefore="0" mediaItemID="1910" duration="0.040000000000000001">
      <Effects />
      <Transitions />
      <BoundProperties>
        <BoundPropertyInt Name="rotateStepNinety" Value="0" />
      </BoundProperties>
    </ImageClip>
    <ImageClip extentID="287" gapBefore="0" mediaItemID="283" duration="0.040000000000000001">
      <Effects />
      <Transitions />
      <BoundProperties>
        <BoundPropertyInt Name="rotateStepNinety" Value="0" />
      </BoundProperties>
    </ImageClip>
    <ImageClip extentID="1915" gapBefore="0" mediaItemID="1911" duration="0.040000000000000001">
      <Effects />
      <Transitions />
      <BoundProperties>
        <BoundPropertyInt Name="rotateStepNinety" Value="0" />
      </BoundProperties>
    </ImageClip>
    <ImageClip extentID="288" gapBefore="0" mediaItemID="284" duration="0.040000000000000001">
      <Effects />
      <Transitions />
      <BoundProperties>
        <BoundPropertyInt Name="rotateStepNinety" Value="0" />
      </BoundProperties>
    </ImageClip>
    <ImageClip extentID="1916" gapBefore="0" mediaItemID="1912" duration="0.040000000000000001">
      <Effects />
      <Transitions />
      <BoundProperties>
        <BoundPropertyInt Name="rotateStepNinety" Value="0" />
      </BoundProperties>
    </ImageClip>
    <ImageClip extentID="289" gapBefore="0" mediaItemID="285" duration="0.040000000000000001">
      <Effects />
      <Transitions />
      <BoundProperties>
        <BoundPropertyInt Name="rotateStepNinety" Value="0" />
      </BoundProperties>
    </ImageClip>
    <ImageClip extentID="1917" gapBefore="0" mediaItemID="1913" duration="0.040000000000000001">
      <Effects />
      <Transitions />
      <BoundProperties>
        <BoundPropertyInt Name="rotateStepNinety" Value="0" />
      </BoundProperties>
    </ImageClip>
    <ImageClip extentID="290" gapBefore="0" mediaItemID="286" duration="0.040000000000000001">
      <Effects />
      <Transitions />
      <BoundProperties>
        <BoundPropertyInt Name="rotateStepNinety" Value="0" />
      </BoundProperties>
    </ImageClip>
    <ImageClip extentID="1918" gapBefore="0" mediaItemID="1914" duration="0.040000000000000001">
      <Effects />
      <Transitions />
      <BoundProperties>
        <BoundPropertyInt Name="rotateStepNinety" Value="0" />
      </BoundProperties>
    </ImageClip>
    <ImageClip extentID="291" gapBefore="0" mediaItemID="287" duration="0.040000000000000001">
      <Effects />
      <Transitions />
      <BoundProperties>
        <BoundPropertyInt Name="rotateStepNinety" Value="0" />
      </BoundProperties>
    </ImageClip>
    <ImageClip extentID="1919" gapBefore="0" mediaItemID="1915" duration="0.040000000000000001">
      <Effects />
      <Transitions />
      <BoundProperties>
        <BoundPropertyInt Name="rotateStepNinety" Value="0" />
      </BoundProperties>
    </ImageClip>
    <ImageClip extentID="292" gapBefore="0" mediaItemID="288" duration="0.040000000000000001">
      <Effects />
      <Transitions />
      <BoundProperties>
        <BoundPropertyInt Name="rotateStepNinety" Value="0" />
      </BoundProperties>
    </ImageClip>
    <ImageClip extentID="1920" gapBefore="0" mediaItemID="1916" duration="0.040000000000000001">
      <Effects />
      <Transitions />
      <BoundProperties>
        <BoundPropertyInt Name="rotateStepNinety" Value="0" />
      </BoundProperties>
    </ImageClip>
    <ImageClip extentID="293" gapBefore="0" mediaItemID="289" duration="0.040000000000000001">
      <Effects />
      <Transitions />
      <BoundProperties>
        <BoundPropertyInt Name="rotateStepNinety" Value="0" />
      </BoundProperties>
    </ImageClip>
    <ImageClip extentID="1921" gapBefore="0" mediaItemID="1917" duration="0.040000000000000001">
      <Effects />
      <Transitions />
      <BoundProperties>
        <BoundPropertyInt Name="rotateStepNinety" Value="0" />
      </BoundProperties>
    </ImageClip>
    <ImageClip extentID="294" gapBefore="0" mediaItemID="290" duration="0.040000000000000001">
      <Effects />
      <Transitions />
      <BoundProperties>
        <BoundPropertyInt Name="rotateStepNinety" Value="0" />
      </BoundProperties>
    </ImageClip>
    <ImageClip extentID="1922" gapBefore="0" mediaItemID="1918" duration="0.040000000000000001">
      <Effects />
      <Transitions />
      <BoundProperties>
        <BoundPropertyInt Name="rotateStepNinety" Value="0" />
      </BoundProperties>
    </ImageClip>
    <ImageClip extentID="295" gapBefore="0" mediaItemID="291" duration="0.040000000000000001">
      <Effects />
      <Transitions />
      <BoundProperties>
        <BoundPropertyInt Name="rotateStepNinety" Value="0" />
      </BoundProperties>
    </ImageClip>
    <ImageClip extentID="1923" gapBefore="0" mediaItemID="1919" duration="0.040000000000000001">
      <Effects />
      <Transitions />
      <BoundProperties>
        <BoundPropertyInt Name="rotateStepNinety" Value="0" />
      </BoundProperties>
    </ImageClip>
    <ImageClip extentID="296" gapBefore="0" mediaItemID="292" duration="0.040000000000000001">
      <Effects />
      <Transitions />
      <BoundProperties>
        <BoundPropertyInt Name="rotateStepNinety" Value="0" />
      </BoundProperties>
    </ImageClip>
    <ImageClip extentID="1924" gapBefore="0" mediaItemID="1920" duration="0.040000000000000001">
      <Effects />
      <Transitions />
      <BoundProperties>
        <BoundPropertyInt Name="rotateStepNinety" Value="0" />
      </BoundProperties>
    </ImageClip>
    <ImageClip extentID="297" gapBefore="0" mediaItemID="293" duration="0.040000000000000001">
      <Effects />
      <Transitions />
      <BoundProperties>
        <BoundPropertyInt Name="rotateStepNinety" Value="0" />
      </BoundProperties>
    </ImageClip>
    <ImageClip extentID="1925" gapBefore="0" mediaItemID="1921" duration="0.040000000000000001">
      <Effects />
      <Transitions />
      <BoundProperties>
        <BoundPropertyInt Name="rotateStepNinety" Value="0" />
      </BoundProperties>
    </ImageClip>
    <ImageClip extentID="298" gapBefore="0" mediaItemID="294" duration="0.040000000000000001">
      <Effects />
      <Transitions />
      <BoundProperties>
        <BoundPropertyInt Name="rotateStepNinety" Value="0" />
      </BoundProperties>
    </ImageClip>
    <ImageClip extentID="1926" gapBefore="0" mediaItemID="1922" duration="0.040000000000000001">
      <Effects />
      <Transitions />
      <BoundProperties>
        <BoundPropertyInt Name="rotateStepNinety" Value="0" />
      </BoundProperties>
    </ImageClip>
    <ImageClip extentID="299" gapBefore="0" mediaItemID="295" duration="0.040000000000000001">
      <Effects />
      <Transitions />
      <BoundProperties>
        <BoundPropertyInt Name="rotateStepNinety" Value="0" />
      </BoundProperties>
    </ImageClip>
    <ImageClip extentID="1927" gapBefore="0" mediaItemID="1923" duration="0.040000000000000001">
      <Effects />
      <Transitions />
      <BoundProperties>
        <BoundPropertyInt Name="rotateStepNinety" Value="0" />
      </BoundProperties>
    </ImageClip>
    <ImageClip extentID="300" gapBefore="0" mediaItemID="296" duration="0.040000000000000001">
      <Effects />
      <Transitions />
      <BoundProperties>
        <BoundPropertyInt Name="rotateStepNinety" Value="0" />
      </BoundProperties>
    </ImageClip>
    <ImageClip extentID="1928" gapBefore="0" mediaItemID="1924" duration="0.040000000000000001">
      <Effects />
      <Transitions />
      <BoundProperties>
        <BoundPropertyInt Name="rotateStepNinety" Value="0" />
      </BoundProperties>
    </ImageClip>
    <ImageClip extentID="301" gapBefore="0" mediaItemID="297" duration="0.040000000000000001">
      <Effects />
      <Transitions />
      <BoundProperties>
        <BoundPropertyInt Name="rotateStepNinety" Value="0" />
      </BoundProperties>
    </ImageClip>
    <ImageClip extentID="1929" gapBefore="0" mediaItemID="1925" duration="0.040000000000000001">
      <Effects />
      <Transitions />
      <BoundProperties>
        <BoundPropertyInt Name="rotateStepNinety" Value="0" />
      </BoundProperties>
    </ImageClip>
    <ImageClip extentID="302" gapBefore="0" mediaItemID="298" duration="0.040000000000000001">
      <Effects />
      <Transitions />
      <BoundProperties>
        <BoundPropertyInt Name="rotateStepNinety" Value="0" />
      </BoundProperties>
    </ImageClip>
    <ImageClip extentID="1930" gapBefore="0" mediaItemID="1926" duration="0.040000000000000001">
      <Effects />
      <Transitions />
      <BoundProperties>
        <BoundPropertyInt Name="rotateStepNinety" Value="0" />
      </BoundProperties>
    </ImageClip>
    <ImageClip extentID="303" gapBefore="0" mediaItemID="299" duration="0.040000000000000001">
      <Effects />
      <Transitions />
      <BoundProperties>
        <BoundPropertyInt Name="rotateStepNinety" Value="0" />
      </BoundProperties>
    </ImageClip>
    <ImageClip extentID="1931" gapBefore="0" mediaItemID="1927" duration="0.040000000000000001">
      <Effects />
      <Transitions />
      <BoundProperties>
        <BoundPropertyInt Name="rotateStepNinety" Value="0" />
      </BoundProperties>
    </ImageClip>
    <ImageClip extentID="304" gapBefore="0" mediaItemID="300" duration="0.040000000000000001">
      <Effects />
      <Transitions />
      <BoundProperties>
        <BoundPropertyInt Name="rotateStepNinety" Value="0" />
      </BoundProperties>
    </ImageClip>
    <ImageClip extentID="1932" gapBefore="0" mediaItemID="1928" duration="0.040000000000000001">
      <Effects />
      <Transitions />
      <BoundProperties>
        <BoundPropertyInt Name="rotateStepNinety" Value="0" />
      </BoundProperties>
    </ImageClip>
    <ImageClip extentID="305" gapBefore="0" mediaItemID="301" duration="0.040000000000000001">
      <Effects />
      <Transitions />
      <BoundProperties>
        <BoundPropertyInt Name="rotateStepNinety" Value="0" />
      </BoundProperties>
    </ImageClip>
    <ImageClip extentID="1933" gapBefore="0" mediaItemID="1929" duration="0.040000000000000001">
      <Effects />
      <Transitions />
      <BoundProperties>
        <BoundPropertyInt Name="rotateStepNinety" Value="0" />
      </BoundProperties>
    </ImageClip>
    <ImageClip extentID="306" gapBefore="0" mediaItemID="302" duration="0.040000000000000001">
      <Effects />
      <Transitions />
      <BoundProperties>
        <BoundPropertyInt Name="rotateStepNinety" Value="0" />
      </BoundProperties>
    </ImageClip>
    <ImageClip extentID="1934" gapBefore="0" mediaItemID="1930" duration="0.040000000000000001">
      <Effects />
      <Transitions />
      <BoundProperties>
        <BoundPropertyInt Name="rotateStepNinety" Value="0" />
      </BoundProperties>
    </ImageClip>
    <ImageClip extentID="307" gapBefore="0" mediaItemID="303" duration="0.040000000000000001">
      <Effects />
      <Transitions />
      <BoundProperties>
        <BoundPropertyInt Name="rotateStepNinety" Value="0" />
      </BoundProperties>
    </ImageClip>
    <ImageClip extentID="1935" gapBefore="0" mediaItemID="1931" duration="0.040000000000000001">
      <Effects />
      <Transitions />
      <BoundProperties>
        <BoundPropertyInt Name="rotateStepNinety" Value="0" />
      </BoundProperties>
    </ImageClip>
    <ImageClip extentID="308" gapBefore="0" mediaItemID="304" duration="0.040000000000000001">
      <Effects />
      <Transitions />
      <BoundProperties>
        <BoundPropertyInt Name="rotateStepNinety" Value="0" />
      </BoundProperties>
    </ImageClip>
    <ImageClip extentID="1936" gapBefore="0" mediaItemID="1932" duration="0.040000000000000001">
      <Effects />
      <Transitions />
      <BoundProperties>
        <BoundPropertyInt Name="rotateStepNinety" Value="0" />
      </BoundProperties>
    </ImageClip>
    <ImageClip extentID="309" gapBefore="0" mediaItemID="305" duration="0.040000000000000001">
      <Effects />
      <Transitions />
      <BoundProperties>
        <BoundPropertyInt Name="rotateStepNinety" Value="0" />
      </BoundProperties>
    </ImageClip>
    <ImageClip extentID="1937" gapBefore="0" mediaItemID="1933" duration="0.040000000000000001">
      <Effects />
      <Transitions />
      <BoundProperties>
        <BoundPropertyInt Name="rotateStepNinety" Value="0" />
      </BoundProperties>
    </ImageClip>
    <ImageClip extentID="310" gapBefore="0" mediaItemID="306" duration="0.040000000000000001">
      <Effects />
      <Transitions />
      <BoundProperties>
        <BoundPropertyInt Name="rotateStepNinety" Value="0" />
      </BoundProperties>
    </ImageClip>
    <ImageClip extentID="1938" gapBefore="0" mediaItemID="1934" duration="0.040000000000000001">
      <Effects />
      <Transitions />
      <BoundProperties>
        <BoundPropertyInt Name="rotateStepNinety" Value="0" />
      </BoundProperties>
    </ImageClip>
    <ImageClip extentID="311" gapBefore="0" mediaItemID="307" duration="0.040000000000000001">
      <Effects />
      <Transitions />
      <BoundProperties>
        <BoundPropertyInt Name="rotateStepNinety" Value="0" />
      </BoundProperties>
    </ImageClip>
    <ImageClip extentID="1939" gapBefore="0" mediaItemID="1935" duration="0.040000000000000001">
      <Effects />
      <Transitions />
      <BoundProperties>
        <BoundPropertyInt Name="rotateStepNinety" Value="0" />
      </BoundProperties>
    </ImageClip>
    <ImageClip extentID="312" gapBefore="0" mediaItemID="308" duration="0.040000000000000001">
      <Effects />
      <Transitions />
      <BoundProperties>
        <BoundPropertyInt Name="rotateStepNinety" Value="0" />
      </BoundProperties>
    </ImageClip>
    <ImageClip extentID="1940" gapBefore="0" mediaItemID="1936" duration="0.040000000000000001">
      <Effects />
      <Transitions />
      <BoundProperties>
        <BoundPropertyInt Name="rotateStepNinety" Value="0" />
      </BoundProperties>
    </ImageClip>
    <ImageClip extentID="313" gapBefore="0" mediaItemID="309" duration="0.040000000000000001">
      <Effects />
      <Transitions />
      <BoundProperties>
        <BoundPropertyInt Name="rotateStepNinety" Value="0" />
      </BoundProperties>
    </ImageClip>
    <ImageClip extentID="1941" gapBefore="0" mediaItemID="1937" duration="0.040000000000000001">
      <Effects />
      <Transitions />
      <BoundProperties>
        <BoundPropertyInt Name="rotateStepNinety" Value="0" />
      </BoundProperties>
    </ImageClip>
    <ImageClip extentID="314" gapBefore="0" mediaItemID="310" duration="0.040000000000000001">
      <Effects />
      <Transitions />
      <BoundProperties>
        <BoundPropertyInt Name="rotateStepNinety" Value="0" />
      </BoundProperties>
    </ImageClip>
    <ImageClip extentID="1942" gapBefore="0" mediaItemID="1938" duration="0.040000000000000001">
      <Effects />
      <Transitions />
      <BoundProperties>
        <BoundPropertyInt Name="rotateStepNinety" Value="0" />
      </BoundProperties>
    </ImageClip>
    <ImageClip extentID="315" gapBefore="0" mediaItemID="311" duration="0.040000000000000001">
      <Effects />
      <Transitions />
      <BoundProperties>
        <BoundPropertyInt Name="rotateStepNinety" Value="0" />
      </BoundProperties>
    </ImageClip>
    <ImageClip extentID="1943" gapBefore="0" mediaItemID="1939" duration="0.040000000000000001">
      <Effects />
      <Transitions />
      <BoundProperties>
        <BoundPropertyInt Name="rotateStepNinety" Value="0" />
      </BoundProperties>
    </ImageClip>
    <ImageClip extentID="316" gapBefore="0" mediaItemID="312" duration="0.040000000000000001">
      <Effects />
      <Transitions />
      <BoundProperties>
        <BoundPropertyInt Name="rotateStepNinety" Value="0" />
      </BoundProperties>
    </ImageClip>
    <ImageClip extentID="1944" gapBefore="0" mediaItemID="1940" duration="0.040000000000000001">
      <Effects />
      <Transitions />
      <BoundProperties>
        <BoundPropertyInt Name="rotateStepNinety" Value="0" />
      </BoundProperties>
    </ImageClip>
    <ImageClip extentID="317" gapBefore="0" mediaItemID="313" duration="0.040000000000000001">
      <Effects />
      <Transitions />
      <BoundProperties>
        <BoundPropertyInt Name="rotateStepNinety" Value="0" />
      </BoundProperties>
    </ImageClip>
    <ImageClip extentID="1945" gapBefore="0" mediaItemID="1941" duration="0.040000000000000001">
      <Effects />
      <Transitions />
      <BoundProperties>
        <BoundPropertyInt Name="rotateStepNinety" Value="0" />
      </BoundProperties>
    </ImageClip>
    <ImageClip extentID="318" gapBefore="0" mediaItemID="314" duration="0.040000000000000001">
      <Effects />
      <Transitions />
      <BoundProperties>
        <BoundPropertyInt Name="rotateStepNinety" Value="0" />
      </BoundProperties>
    </ImageClip>
    <ImageClip extentID="1946" gapBefore="0" mediaItemID="1942" duration="0.040000000000000001">
      <Effects />
      <Transitions />
      <BoundProperties>
        <BoundPropertyInt Name="rotateStepNinety" Value="0" />
      </BoundProperties>
    </ImageClip>
    <ImageClip extentID="319" gapBefore="0" mediaItemID="315" duration="0.040000000000000001">
      <Effects />
      <Transitions />
      <BoundProperties>
        <BoundPropertyInt Name="rotateStepNinety" Value="0" />
      </BoundProperties>
    </ImageClip>
    <ImageClip extentID="1947" gapBefore="0" mediaItemID="1943" duration="0.040000000000000001">
      <Effects />
      <Transitions />
      <BoundProperties>
        <BoundPropertyInt Name="rotateStepNinety" Value="0" />
      </BoundProperties>
    </ImageClip>
    <ImageClip extentID="320" gapBefore="0" mediaItemID="316" duration="0.040000000000000001">
      <Effects />
      <Transitions />
      <BoundProperties>
        <BoundPropertyInt Name="rotateStepNinety" Value="0" />
      </BoundProperties>
    </ImageClip>
    <ImageClip extentID="1948" gapBefore="0" mediaItemID="1944" duration="0.040000000000000001">
      <Effects />
      <Transitions />
      <BoundProperties>
        <BoundPropertyInt Name="rotateStepNinety" Value="0" />
      </BoundProperties>
    </ImageClip>
    <ImageClip extentID="321" gapBefore="0" mediaItemID="317" duration="0.040000000000000001">
      <Effects />
      <Transitions />
      <BoundProperties>
        <BoundPropertyInt Name="rotateStepNinety" Value="0" />
      </BoundProperties>
    </ImageClip>
    <ImageClip extentID="1949" gapBefore="0" mediaItemID="1945" duration="0.040000000000000001">
      <Effects />
      <Transitions />
      <BoundProperties>
        <BoundPropertyInt Name="rotateStepNinety" Value="0" />
      </BoundProperties>
    </ImageClip>
    <ImageClip extentID="322" gapBefore="0" mediaItemID="318" duration="0.040000000000000001">
      <Effects />
      <Transitions />
      <BoundProperties>
        <BoundPropertyInt Name="rotateStepNinety" Value="0" />
      </BoundProperties>
    </ImageClip>
    <ImageClip extentID="1950" gapBefore="0" mediaItemID="1946" duration="0.040000000000000001">
      <Effects />
      <Transitions />
      <BoundProperties>
        <BoundPropertyInt Name="rotateStepNinety" Value="0" />
      </BoundProperties>
    </ImageClip>
    <ImageClip extentID="323" gapBefore="0" mediaItemID="319" duration="0.040000000000000001">
      <Effects />
      <Transitions />
      <BoundProperties>
        <BoundPropertyInt Name="rotateStepNinety" Value="0" />
      </BoundProperties>
    </ImageClip>
    <ImageClip extentID="1951" gapBefore="0" mediaItemID="1947" duration="0.040000000000000001">
      <Effects />
      <Transitions />
      <BoundProperties>
        <BoundPropertyInt Name="rotateStepNinety" Value="0" />
      </BoundProperties>
    </ImageClip>
    <ImageClip extentID="324" gapBefore="0" mediaItemID="320" duration="0.040000000000000001">
      <Effects />
      <Transitions />
      <BoundProperties>
        <BoundPropertyInt Name="rotateStepNinety" Value="0" />
      </BoundProperties>
    </ImageClip>
    <ImageClip extentID="1952" gapBefore="0" mediaItemID="1948" duration="0.040000000000000001">
      <Effects />
      <Transitions />
      <BoundProperties>
        <BoundPropertyInt Name="rotateStepNinety" Value="0" />
      </BoundProperties>
    </ImageClip>
    <ImageClip extentID="325" gapBefore="0" mediaItemID="321" duration="0.040000000000000001">
      <Effects />
      <Transitions />
      <BoundProperties>
        <BoundPropertyInt Name="rotateStepNinety" Value="0" />
      </BoundProperties>
    </ImageClip>
    <ImageClip extentID="1953" gapBefore="0" mediaItemID="1949" duration="0.040000000000000001">
      <Effects />
      <Transitions />
      <BoundProperties>
        <BoundPropertyInt Name="rotateStepNinety" Value="0" />
      </BoundProperties>
    </ImageClip>
    <ImageClip extentID="326" gapBefore="0" mediaItemID="322" duration="0.040000000000000001">
      <Effects />
      <Transitions />
      <BoundProperties>
        <BoundPropertyInt Name="rotateStepNinety" Value="0" />
      </BoundProperties>
    </ImageClip>
    <ImageClip extentID="1954" gapBefore="0" mediaItemID="1950" duration="0.040000000000000001">
      <Effects />
      <Transitions />
      <BoundProperties>
        <BoundPropertyInt Name="rotateStepNinety" Value="0" />
      </BoundProperties>
    </ImageClip>
    <ImageClip extentID="327" gapBefore="0" mediaItemID="323" duration="0.040000000000000001">
      <Effects />
      <Transitions />
      <BoundProperties>
        <BoundPropertyInt Name="rotateStepNinety" Value="0" />
      </BoundProperties>
    </ImageClip>
    <ImageClip extentID="1955" gapBefore="0" mediaItemID="1951" duration="0.040000000000000001">
      <Effects />
      <Transitions />
      <BoundProperties>
        <BoundPropertyInt Name="rotateStepNinety" Value="0" />
      </BoundProperties>
    </ImageClip>
    <ImageClip extentID="328" gapBefore="0" mediaItemID="324" duration="0.040000000000000001">
      <Effects />
      <Transitions />
      <BoundProperties>
        <BoundPropertyInt Name="rotateStepNinety" Value="0" />
      </BoundProperties>
    </ImageClip>
    <ImageClip extentID="1956" gapBefore="0" mediaItemID="1952" duration="0.040000000000000001">
      <Effects />
      <Transitions />
      <BoundProperties>
        <BoundPropertyInt Name="rotateStepNinety" Value="0" />
      </BoundProperties>
    </ImageClip>
    <ImageClip extentID="329" gapBefore="0" mediaItemID="325" duration="0.040000000000000001">
      <Effects />
      <Transitions />
      <BoundProperties>
        <BoundPropertyInt Name="rotateStepNinety" Value="0" />
      </BoundProperties>
    </ImageClip>
    <ImageClip extentID="1957" gapBefore="0" mediaItemID="1953" duration="0.040000000000000001">
      <Effects />
      <Transitions />
      <BoundProperties>
        <BoundPropertyInt Name="rotateStepNinety" Value="0" />
      </BoundProperties>
    </ImageClip>
    <ImageClip extentID="330" gapBefore="0" mediaItemID="326" duration="0.040000000000000001">
      <Effects />
      <Transitions />
      <BoundProperties>
        <BoundPropertyInt Name="rotateStepNinety" Value="0" />
      </BoundProperties>
    </ImageClip>
    <ImageClip extentID="1958" gapBefore="0" mediaItemID="1954" duration="0.040000000000000001">
      <Effects />
      <Transitions />
      <BoundProperties>
        <BoundPropertyInt Name="rotateStepNinety" Value="0" />
      </BoundProperties>
    </ImageClip>
    <ImageClip extentID="331" gapBefore="0" mediaItemID="327" duration="0.040000000000000001">
      <Effects />
      <Transitions />
      <BoundProperties>
        <BoundPropertyInt Name="rotateStepNinety" Value="0" />
      </BoundProperties>
    </ImageClip>
    <ImageClip extentID="1959" gapBefore="0" mediaItemID="1955" duration="0.040000000000000001">
      <Effects />
      <Transitions />
      <BoundProperties>
        <BoundPropertyInt Name="rotateStepNinety" Value="0" />
      </BoundProperties>
    </ImageClip>
    <ImageClip extentID="332" gapBefore="0" mediaItemID="328" duration="0.040000000000000001">
      <Effects />
      <Transitions />
      <BoundProperties>
        <BoundPropertyInt Name="rotateStepNinety" Value="0" />
      </BoundProperties>
    </ImageClip>
    <ImageClip extentID="1960" gapBefore="0" mediaItemID="1956" duration="0.040000000000000001">
      <Effects />
      <Transitions />
      <BoundProperties>
        <BoundPropertyInt Name="rotateStepNinety" Value="0" />
      </BoundProperties>
    </ImageClip>
    <ImageClip extentID="333" gapBefore="0" mediaItemID="329" duration="0.040000000000000001">
      <Effects />
      <Transitions />
      <BoundProperties>
        <BoundPropertyInt Name="rotateStepNinety" Value="0" />
      </BoundProperties>
    </ImageClip>
    <ImageClip extentID="1961" gapBefore="0" mediaItemID="1957" duration="0.040000000000000001">
      <Effects />
      <Transitions />
      <BoundProperties>
        <BoundPropertyInt Name="rotateStepNinety" Value="0" />
      </BoundProperties>
    </ImageClip>
    <ImageClip extentID="334" gapBefore="0" mediaItemID="330" duration="0.040000000000000001">
      <Effects />
      <Transitions />
      <BoundProperties>
        <BoundPropertyInt Name="rotateStepNinety" Value="0" />
      </BoundProperties>
    </ImageClip>
    <ImageClip extentID="1962" gapBefore="0" mediaItemID="1958" duration="0.040000000000000001">
      <Effects />
      <Transitions />
      <BoundProperties>
        <BoundPropertyInt Name="rotateStepNinety" Value="0" />
      </BoundProperties>
    </ImageClip>
    <ImageClip extentID="335" gapBefore="0" mediaItemID="331" duration="0.040000000000000001">
      <Effects />
      <Transitions />
      <BoundProperties>
        <BoundPropertyInt Name="rotateStepNinety" Value="0" />
      </BoundProperties>
    </ImageClip>
    <ImageClip extentID="1963" gapBefore="0" mediaItemID="1959" duration="0.040000000000000001">
      <Effects />
      <Transitions />
      <BoundProperties>
        <BoundPropertyInt Name="rotateStepNinety" Value="0" />
      </BoundProperties>
    </ImageClip>
    <ImageClip extentID="336" gapBefore="0" mediaItemID="332" duration="0.040000000000000001">
      <Effects />
      <Transitions />
      <BoundProperties>
        <BoundPropertyInt Name="rotateStepNinety" Value="0" />
      </BoundProperties>
    </ImageClip>
    <ImageClip extentID="1964" gapBefore="0" mediaItemID="1960" duration="0.040000000000000001">
      <Effects />
      <Transitions />
      <BoundProperties>
        <BoundPropertyInt Name="rotateStepNinety" Value="0" />
      </BoundProperties>
    </ImageClip>
    <ImageClip extentID="337" gapBefore="0" mediaItemID="333" duration="0.040000000000000001">
      <Effects />
      <Transitions />
      <BoundProperties>
        <BoundPropertyInt Name="rotateStepNinety" Value="0" />
      </BoundProperties>
    </ImageClip>
    <ImageClip extentID="1965" gapBefore="0" mediaItemID="1961" duration="0.040000000000000001">
      <Effects />
      <Transitions />
      <BoundProperties>
        <BoundPropertyInt Name="rotateStepNinety" Value="0" />
      </BoundProperties>
    </ImageClip>
    <ImageClip extentID="338" gapBefore="0" mediaItemID="334" duration="0.040000000000000001">
      <Effects />
      <Transitions />
      <BoundProperties>
        <BoundPropertyInt Name="rotateStepNinety" Value="0" />
      </BoundProperties>
    </ImageClip>
    <ImageClip extentID="1966" gapBefore="0" mediaItemID="1962" duration="0.040000000000000001">
      <Effects />
      <Transitions />
      <BoundProperties>
        <BoundPropertyInt Name="rotateStepNinety" Value="0" />
      </BoundProperties>
    </ImageClip>
    <ImageClip extentID="339" gapBefore="0" mediaItemID="335" duration="0.040000000000000001">
      <Effects />
      <Transitions />
      <BoundProperties>
        <BoundPropertyInt Name="rotateStepNinety" Value="0" />
      </BoundProperties>
    </ImageClip>
    <ImageClip extentID="1967" gapBefore="0" mediaItemID="1963" duration="0.040000000000000001">
      <Effects />
      <Transitions />
      <BoundProperties>
        <BoundPropertyInt Name="rotateStepNinety" Value="0" />
      </BoundProperties>
    </ImageClip>
    <ImageClip extentID="340" gapBefore="0" mediaItemID="336" duration="0.040000000000000001">
      <Effects />
      <Transitions />
      <BoundProperties>
        <BoundPropertyInt Name="rotateStepNinety" Value="0" />
      </BoundProperties>
    </ImageClip>
    <ImageClip extentID="1968" gapBefore="0" mediaItemID="1964" duration="0.040000000000000001">
      <Effects />
      <Transitions />
      <BoundProperties>
        <BoundPropertyInt Name="rotateStepNinety" Value="0" />
      </BoundProperties>
    </ImageClip>
    <ImageClip extentID="341" gapBefore="0" mediaItemID="337" duration="0.040000000000000001">
      <Effects />
      <Transitions />
      <BoundProperties>
        <BoundPropertyInt Name="rotateStepNinety" Value="0" />
      </BoundProperties>
    </ImageClip>
    <ImageClip extentID="1969" gapBefore="0" mediaItemID="1965" duration="0.040000000000000001">
      <Effects />
      <Transitions />
      <BoundProperties>
        <BoundPropertyInt Name="rotateStepNinety" Value="0" />
      </BoundProperties>
    </ImageClip>
    <ImageClip extentID="342" gapBefore="0" mediaItemID="338" duration="0.040000000000000001">
      <Effects />
      <Transitions />
      <BoundProperties>
        <BoundPropertyInt Name="rotateStepNinety" Value="0" />
      </BoundProperties>
    </ImageClip>
    <ImageClip extentID="1970" gapBefore="0" mediaItemID="1966" duration="0.040000000000000001">
      <Effects />
      <Transitions />
      <BoundProperties>
        <BoundPropertyInt Name="rotateStepNinety" Value="0" />
      </BoundProperties>
    </ImageClip>
    <ImageClip extentID="343" gapBefore="0" mediaItemID="339" duration="0.040000000000000001">
      <Effects />
      <Transitions />
      <BoundProperties>
        <BoundPropertyInt Name="rotateStepNinety" Value="0" />
      </BoundProperties>
    </ImageClip>
    <ImageClip extentID="1971" gapBefore="0" mediaItemID="1967" duration="0.040000000000000001">
      <Effects />
      <Transitions />
      <BoundProperties>
        <BoundPropertyInt Name="rotateStepNinety" Value="0" />
      </BoundProperties>
    </ImageClip>
    <ImageClip extentID="344" gapBefore="0" mediaItemID="340" duration="0.040000000000000001">
      <Effects />
      <Transitions />
      <BoundProperties>
        <BoundPropertyInt Name="rotateStepNinety" Value="0" />
      </BoundProperties>
    </ImageClip>
    <ImageClip extentID="1972" gapBefore="0" mediaItemID="1968" duration="0.040000000000000001">
      <Effects />
      <Transitions />
      <BoundProperties>
        <BoundPropertyInt Name="rotateStepNinety" Value="0" />
      </BoundProperties>
    </ImageClip>
    <ImageClip extentID="345" gapBefore="0" mediaItemID="341" duration="0.040000000000000001">
      <Effects />
      <Transitions />
      <BoundProperties>
        <BoundPropertyInt Name="rotateStepNinety" Value="0" />
      </BoundProperties>
    </ImageClip>
    <ImageClip extentID="1973" gapBefore="0" mediaItemID="1969" duration="0.040000000000000001">
      <Effects />
      <Transitions />
      <BoundProperties>
        <BoundPropertyInt Name="rotateStepNinety" Value="0" />
      </BoundProperties>
    </ImageClip>
    <ImageClip extentID="346" gapBefore="0" mediaItemID="342" duration="0.040000000000000001">
      <Effects />
      <Transitions />
      <BoundProperties>
        <BoundPropertyInt Name="rotateStepNinety" Value="0" />
      </BoundProperties>
    </ImageClip>
    <ImageClip extentID="1974" gapBefore="0" mediaItemID="1970" duration="0.040000000000000001">
      <Effects />
      <Transitions />
      <BoundProperties>
        <BoundPropertyInt Name="rotateStepNinety" Value="0" />
      </BoundProperties>
    </ImageClip>
    <ImageClip extentID="347" gapBefore="0" mediaItemID="343" duration="0.040000000000000001">
      <Effects />
      <Transitions />
      <BoundProperties>
        <BoundPropertyInt Name="rotateStepNinety" Value="0" />
      </BoundProperties>
    </ImageClip>
    <ImageClip extentID="1975" gapBefore="0" mediaItemID="1971" duration="0.040000000000000001">
      <Effects />
      <Transitions />
      <BoundProperties>
        <BoundPropertyInt Name="rotateStepNinety" Value="0" />
      </BoundProperties>
    </ImageClip>
    <ImageClip extentID="348" gapBefore="0" mediaItemID="344" duration="0.040000000000000001">
      <Effects />
      <Transitions />
      <BoundProperties>
        <BoundPropertyInt Name="rotateStepNinety" Value="0" />
      </BoundProperties>
    </ImageClip>
    <ImageClip extentID="1976" gapBefore="0" mediaItemID="1972" duration="0.040000000000000001">
      <Effects />
      <Transitions />
      <BoundProperties>
        <BoundPropertyInt Name="rotateStepNinety" Value="0" />
      </BoundProperties>
    </ImageClip>
    <ImageClip extentID="349" gapBefore="0" mediaItemID="345" duration="0.040000000000000001">
      <Effects />
      <Transitions />
      <BoundProperties>
        <BoundPropertyInt Name="rotateStepNinety" Value="0" />
      </BoundProperties>
    </ImageClip>
    <ImageClip extentID="1977" gapBefore="0" mediaItemID="1973" duration="0.040000000000000001">
      <Effects />
      <Transitions />
      <BoundProperties>
        <BoundPropertyInt Name="rotateStepNinety" Value="0" />
      </BoundProperties>
    </ImageClip>
    <ImageClip extentID="350" gapBefore="0" mediaItemID="346" duration="0.040000000000000001">
      <Effects />
      <Transitions />
      <BoundProperties>
        <BoundPropertyInt Name="rotateStepNinety" Value="0" />
      </BoundProperties>
    </ImageClip>
    <ImageClip extentID="1978" gapBefore="0" mediaItemID="1974" duration="0.040000000000000001">
      <Effects />
      <Transitions />
      <BoundProperties>
        <BoundPropertyInt Name="rotateStepNinety" Value="0" />
      </BoundProperties>
    </ImageClip>
    <ImageClip extentID="351" gapBefore="0" mediaItemID="347" duration="0.040000000000000001">
      <Effects />
      <Transitions />
      <BoundProperties>
        <BoundPropertyInt Name="rotateStepNinety" Value="0" />
      </BoundProperties>
    </ImageClip>
    <ImageClip extentID="1979" gapBefore="0" mediaItemID="1975" duration="0.040000000000000001">
      <Effects />
      <Transitions />
      <BoundProperties>
        <BoundPropertyInt Name="rotateStepNinety" Value="0" />
      </BoundProperties>
    </ImageClip>
    <ImageClip extentID="352" gapBefore="0" mediaItemID="348" duration="0.040000000000000001">
      <Effects />
      <Transitions />
      <BoundProperties>
        <BoundPropertyInt Name="rotateStepNinety" Value="0" />
      </BoundProperties>
    </ImageClip>
    <ImageClip extentID="1980" gapBefore="0" mediaItemID="1976" duration="0.040000000000000001">
      <Effects />
      <Transitions />
      <BoundProperties>
        <BoundPropertyInt Name="rotateStepNinety" Value="0" />
      </BoundProperties>
    </ImageClip>
    <ImageClip extentID="353" gapBefore="0" mediaItemID="349" duration="0.040000000000000001">
      <Effects />
      <Transitions />
      <BoundProperties>
        <BoundPropertyInt Name="rotateStepNinety" Value="0" />
      </BoundProperties>
    </ImageClip>
    <ImageClip extentID="1981" gapBefore="0" mediaItemID="1977" duration="0.040000000000000001">
      <Effects />
      <Transitions />
      <BoundProperties>
        <BoundPropertyInt Name="rotateStepNinety" Value="0" />
      </BoundProperties>
    </ImageClip>
    <ImageClip extentID="354" gapBefore="0" mediaItemID="350" duration="0.040000000000000001">
      <Effects />
      <Transitions />
      <BoundProperties>
        <BoundPropertyInt Name="rotateStepNinety" Value="0" />
      </BoundProperties>
    </ImageClip>
    <ImageClip extentID="1982" gapBefore="0" mediaItemID="1978" duration="0.040000000000000001">
      <Effects />
      <Transitions />
      <BoundProperties>
        <BoundPropertyInt Name="rotateStepNinety" Value="0" />
      </BoundProperties>
    </ImageClip>
    <ImageClip extentID="355" gapBefore="0" mediaItemID="351" duration="0.040000000000000001">
      <Effects />
      <Transitions />
      <BoundProperties>
        <BoundPropertyInt Name="rotateStepNinety" Value="0" />
      </BoundProperties>
    </ImageClip>
    <ImageClip extentID="1983" gapBefore="0" mediaItemID="1979" duration="0.040000000000000001">
      <Effects />
      <Transitions />
      <BoundProperties>
        <BoundPropertyInt Name="rotateStepNinety" Value="0" />
      </BoundProperties>
    </ImageClip>
    <ImageClip extentID="356" gapBefore="0" mediaItemID="352" duration="0.040000000000000001">
      <Effects />
      <Transitions />
      <BoundProperties>
        <BoundPropertyInt Name="rotateStepNinety" Value="0" />
      </BoundProperties>
    </ImageClip>
    <ImageClip extentID="1984" gapBefore="0" mediaItemID="1980" duration="0.040000000000000001">
      <Effects />
      <Transitions />
      <BoundProperties>
        <BoundPropertyInt Name="rotateStepNinety" Value="0" />
      </BoundProperties>
    </ImageClip>
    <ImageClip extentID="357" gapBefore="0" mediaItemID="353" duration="0.040000000000000001">
      <Effects />
      <Transitions />
      <BoundProperties>
        <BoundPropertyInt Name="rotateStepNinety" Value="0" />
      </BoundProperties>
    </ImageClip>
    <ImageClip extentID="1985" gapBefore="0" mediaItemID="1981" duration="0.040000000000000001">
      <Effects />
      <Transitions />
      <BoundProperties>
        <BoundPropertyInt Name="rotateStepNinety" Value="0" />
      </BoundProperties>
    </ImageClip>
    <ImageClip extentID="358" gapBefore="0" mediaItemID="354" duration="0.040000000000000001">
      <Effects />
      <Transitions />
      <BoundProperties>
        <BoundPropertyInt Name="rotateStepNinety" Value="0" />
      </BoundProperties>
    </ImageClip>
    <ImageClip extentID="1986" gapBefore="0" mediaItemID="1982" duration="0.040000000000000001">
      <Effects />
      <Transitions />
      <BoundProperties>
        <BoundPropertyInt Name="rotateStepNinety" Value="0" />
      </BoundProperties>
    </ImageClip>
    <ImageClip extentID="359" gapBefore="0" mediaItemID="355" duration="0.040000000000000001">
      <Effects />
      <Transitions />
      <BoundProperties>
        <BoundPropertyInt Name="rotateStepNinety" Value="0" />
      </BoundProperties>
    </ImageClip>
    <ImageClip extentID="1987" gapBefore="0" mediaItemID="1983" duration="0.040000000000000001">
      <Effects />
      <Transitions />
      <BoundProperties>
        <BoundPropertyInt Name="rotateStepNinety" Value="0" />
      </BoundProperties>
    </ImageClip>
    <ImageClip extentID="360" gapBefore="0" mediaItemID="356" duration="0.040000000000000001">
      <Effects />
      <Transitions />
      <BoundProperties>
        <BoundPropertyInt Name="rotateStepNinety" Value="0" />
      </BoundProperties>
    </ImageClip>
    <ImageClip extentID="1988" gapBefore="0" mediaItemID="1984" duration="0.040000000000000001">
      <Effects />
      <Transitions />
      <BoundProperties>
        <BoundPropertyInt Name="rotateStepNinety" Value="0" />
      </BoundProperties>
    </ImageClip>
    <ImageClip extentID="361" gapBefore="0" mediaItemID="357" duration="0.040000000000000001">
      <Effects />
      <Transitions />
      <BoundProperties>
        <BoundPropertyInt Name="rotateStepNinety" Value="0" />
      </BoundProperties>
    </ImageClip>
    <ImageClip extentID="1989" gapBefore="0" mediaItemID="1985" duration="0.040000000000000001">
      <Effects />
      <Transitions />
      <BoundProperties>
        <BoundPropertyInt Name="rotateStepNinety" Value="0" />
      </BoundProperties>
    </ImageClip>
    <ImageClip extentID="362" gapBefore="0" mediaItemID="358" duration="0.040000000000000001">
      <Effects />
      <Transitions />
      <BoundProperties>
        <BoundPropertyInt Name="rotateStepNinety" Value="0" />
      </BoundProperties>
    </ImageClip>
    <ImageClip extentID="1990" gapBefore="0" mediaItemID="1986" duration="0.040000000000000001">
      <Effects />
      <Transitions />
      <BoundProperties>
        <BoundPropertyInt Name="rotateStepNinety" Value="0" />
      </BoundProperties>
    </ImageClip>
    <ImageClip extentID="363" gapBefore="0" mediaItemID="359" duration="0.040000000000000001">
      <Effects />
      <Transitions />
      <BoundProperties>
        <BoundPropertyInt Name="rotateStepNinety" Value="0" />
      </BoundProperties>
    </ImageClip>
    <ImageClip extentID="1991" gapBefore="0" mediaItemID="1987" duration="0.040000000000000001">
      <Effects />
      <Transitions />
      <BoundProperties>
        <BoundPropertyInt Name="rotateStepNinety" Value="0" />
      </BoundProperties>
    </ImageClip>
    <ImageClip extentID="364" gapBefore="0" mediaItemID="360" duration="0.040000000000000001">
      <Effects />
      <Transitions />
      <BoundProperties>
        <BoundPropertyInt Name="rotateStepNinety" Value="0" />
      </BoundProperties>
    </ImageClip>
    <ImageClip extentID="1992" gapBefore="0" mediaItemID="1988" duration="0.040000000000000001">
      <Effects />
      <Transitions />
      <BoundProperties>
        <BoundPropertyInt Name="rotateStepNinety" Value="0" />
      </BoundProperties>
    </ImageClip>
    <ImageClip extentID="365" gapBefore="0" mediaItemID="361" duration="0.040000000000000001">
      <Effects />
      <Transitions />
      <BoundProperties>
        <BoundPropertyInt Name="rotateStepNinety" Value="0" />
      </BoundProperties>
    </ImageClip>
    <ImageClip extentID="1993" gapBefore="0" mediaItemID="1989" duration="0.040000000000000001">
      <Effects />
      <Transitions />
      <BoundProperties>
        <BoundPropertyInt Name="rotateStepNinety" Value="0" />
      </BoundProperties>
    </ImageClip>
    <ImageClip extentID="366" gapBefore="0" mediaItemID="362" duration="0.040000000000000001">
      <Effects />
      <Transitions />
      <BoundProperties>
        <BoundPropertyInt Name="rotateStepNinety" Value="0" />
      </BoundProperties>
    </ImageClip>
    <ImageClip extentID="1994" gapBefore="0" mediaItemID="1990" duration="0.040000000000000001">
      <Effects />
      <Transitions />
      <BoundProperties>
        <BoundPropertyInt Name="rotateStepNinety" Value="0" />
      </BoundProperties>
    </ImageClip>
    <ImageClip extentID="367" gapBefore="0" mediaItemID="363" duration="0.040000000000000001">
      <Effects />
      <Transitions />
      <BoundProperties>
        <BoundPropertyInt Name="rotateStepNinety" Value="0" />
      </BoundProperties>
    </ImageClip>
    <ImageClip extentID="1995" gapBefore="0" mediaItemID="1991" duration="0.040000000000000001">
      <Effects />
      <Transitions />
      <BoundProperties>
        <BoundPropertyInt Name="rotateStepNinety" Value="0" />
      </BoundProperties>
    </ImageClip>
    <ImageClip extentID="368" gapBefore="0" mediaItemID="364" duration="0.040000000000000001">
      <Effects />
      <Transitions />
      <BoundProperties>
        <BoundPropertyInt Name="rotateStepNinety" Value="0" />
      </BoundProperties>
    </ImageClip>
    <ImageClip extentID="1996" gapBefore="0" mediaItemID="1992" duration="0.040000000000000001">
      <Effects />
      <Transitions />
      <BoundProperties>
        <BoundPropertyInt Name="rotateStepNinety" Value="0" />
      </BoundProperties>
    </ImageClip>
    <ImageClip extentID="369" gapBefore="0" mediaItemID="365" duration="0.040000000000000001">
      <Effects />
      <Transitions />
      <BoundProperties>
        <BoundPropertyInt Name="rotateStepNinety" Value="0" />
      </BoundProperties>
    </ImageClip>
    <ImageClip extentID="1997" gapBefore="0" mediaItemID="1993" duration="0.040000000000000001">
      <Effects />
      <Transitions />
      <BoundProperties>
        <BoundPropertyInt Name="rotateStepNinety" Value="0" />
      </BoundProperties>
    </ImageClip>
    <ImageClip extentID="370" gapBefore="0" mediaItemID="366" duration="0.040000000000000001">
      <Effects />
      <Transitions />
      <BoundProperties>
        <BoundPropertyInt Name="rotateStepNinety" Value="0" />
      </BoundProperties>
    </ImageClip>
    <ImageClip extentID="1998" gapBefore="0" mediaItemID="1994" duration="0.040000000000000001">
      <Effects />
      <Transitions />
      <BoundProperties>
        <BoundPropertyInt Name="rotateStepNinety" Value="0" />
      </BoundProperties>
    </ImageClip>
    <ImageClip extentID="371" gapBefore="0" mediaItemID="367" duration="0.040000000000000001">
      <Effects />
      <Transitions />
      <BoundProperties>
        <BoundPropertyInt Name="rotateStepNinety" Value="0" />
      </BoundProperties>
    </ImageClip>
    <ImageClip extentID="1999" gapBefore="0" mediaItemID="1995" duration="0.040000000000000001">
      <Effects />
      <Transitions />
      <BoundProperties>
        <BoundPropertyInt Name="rotateStepNinety" Value="0" />
      </BoundProperties>
    </ImageClip>
    <ImageClip extentID="372" gapBefore="0" mediaItemID="368" duration="0.040000000000000001">
      <Effects />
      <Transitions />
      <BoundProperties>
        <BoundPropertyInt Name="rotateStepNinety" Value="0" />
      </BoundProperties>
    </ImageClip>
    <ImageClip extentID="2000" gapBefore="0" mediaItemID="1996" duration="0.040000000000000001">
      <Effects />
      <Transitions />
      <BoundProperties>
        <BoundPropertyInt Name="rotateStepNinety" Value="0" />
      </BoundProperties>
    </ImageClip>
    <ImageClip extentID="373" gapBefore="0" mediaItemID="369" duration="0.040000000000000001">
      <Effects />
      <Transitions />
      <BoundProperties>
        <BoundPropertyInt Name="rotateStepNinety" Value="0" />
      </BoundProperties>
    </ImageClip>
    <ImageClip extentID="2001" gapBefore="0" mediaItemID="1997" duration="0.040000000000000001">
      <Effects />
      <Transitions />
      <BoundProperties>
        <BoundPropertyInt Name="rotateStepNinety" Value="0" />
      </BoundProperties>
    </ImageClip>
    <ImageClip extentID="374" gapBefore="0" mediaItemID="370" duration="0.040000000000000001">
      <Effects />
      <Transitions />
      <BoundProperties>
        <BoundPropertyInt Name="rotateStepNinety" Value="0" />
      </BoundProperties>
    </ImageClip>
    <ImageClip extentID="2002" gapBefore="0" mediaItemID="1998" duration="0.040000000000000001">
      <Effects />
      <Transitions />
      <BoundProperties>
        <BoundPropertyInt Name="rotateStepNinety" Value="0" />
      </BoundProperties>
    </ImageClip>
    <ImageClip extentID="375" gapBefore="0" mediaItemID="371" duration="0.040000000000000001">
      <Effects />
      <Transitions />
      <BoundProperties>
        <BoundPropertyInt Name="rotateStepNinety" Value="0" />
      </BoundProperties>
    </ImageClip>
    <ImageClip extentID="2003" gapBefore="0" mediaItemID="1999" duration="0.040000000000000001">
      <Effects />
      <Transitions />
      <BoundProperties>
        <BoundPropertyInt Name="rotateStepNinety" Value="0" />
      </BoundProperties>
    </ImageClip>
    <ImageClip extentID="376" gapBefore="0" mediaItemID="372" duration="0.040000000000000001">
      <Effects />
      <Transitions />
      <BoundProperties>
        <BoundPropertyInt Name="rotateStepNinety" Value="0" />
      </BoundProperties>
    </ImageClip>
    <ImageClip extentID="2004" gapBefore="0" mediaItemID="2000" duration="0.040000000000000001">
      <Effects />
      <Transitions />
      <BoundProperties>
        <BoundPropertyInt Name="rotateStepNinety" Value="0" />
      </BoundProperties>
    </ImageClip>
    <ImageClip extentID="377" gapBefore="0" mediaItemID="373" duration="0.040000000000000001">
      <Effects />
      <Transitions />
      <BoundProperties>
        <BoundPropertyInt Name="rotateStepNinety" Value="0" />
      </BoundProperties>
    </ImageClip>
    <ImageClip extentID="2005" gapBefore="0" mediaItemID="2001" duration="0.040000000000000001">
      <Effects />
      <Transitions />
      <BoundProperties>
        <BoundPropertyInt Name="rotateStepNinety" Value="0" />
      </BoundProperties>
    </ImageClip>
    <ImageClip extentID="378" gapBefore="0" mediaItemID="374" duration="0.040000000000000001">
      <Effects />
      <Transitions />
      <BoundProperties>
        <BoundPropertyInt Name="rotateStepNinety" Value="0" />
      </BoundProperties>
    </ImageClip>
    <ImageClip extentID="2006" gapBefore="0" mediaItemID="2002" duration="0.040000000000000001">
      <Effects />
      <Transitions />
      <BoundProperties>
        <BoundPropertyInt Name="rotateStepNinety" Value="0" />
      </BoundProperties>
    </ImageClip>
    <ImageClip extentID="379" gapBefore="0" mediaItemID="375" duration="0.040000000000000001">
      <Effects />
      <Transitions />
      <BoundProperties>
        <BoundPropertyInt Name="rotateStepNinety" Value="0" />
      </BoundProperties>
    </ImageClip>
    <ImageClip extentID="2007" gapBefore="0" mediaItemID="2003" duration="0.040000000000000001">
      <Effects />
      <Transitions />
      <BoundProperties>
        <BoundPropertyInt Name="rotateStepNinety" Value="0" />
      </BoundProperties>
    </ImageClip>
    <ImageClip extentID="380" gapBefore="0" mediaItemID="376" duration="0.040000000000000001">
      <Effects />
      <Transitions />
      <BoundProperties>
        <BoundPropertyInt Name="rotateStepNinety" Value="0" />
      </BoundProperties>
    </ImageClip>
    <ImageClip extentID="2008" gapBefore="0" mediaItemID="2004" duration="0.040000000000000001">
      <Effects />
      <Transitions />
      <BoundProperties>
        <BoundPropertyInt Name="rotateStepNinety" Value="0" />
      </BoundProperties>
    </ImageClip>
    <ImageClip extentID="381" gapBefore="0" mediaItemID="377" duration="0.040000000000000001">
      <Effects />
      <Transitions />
      <BoundProperties>
        <BoundPropertyInt Name="rotateStepNinety" Value="0" />
      </BoundProperties>
    </ImageClip>
    <ImageClip extentID="2009" gapBefore="0" mediaItemID="2005" duration="0.040000000000000001">
      <Effects />
      <Transitions />
      <BoundProperties>
        <BoundPropertyInt Name="rotateStepNinety" Value="0" />
      </BoundProperties>
    </ImageClip>
    <ImageClip extentID="382" gapBefore="0" mediaItemID="378" duration="0.040000000000000001">
      <Effects />
      <Transitions />
      <BoundProperties>
        <BoundPropertyInt Name="rotateStepNinety" Value="0" />
      </BoundProperties>
    </ImageClip>
    <ImageClip extentID="2010" gapBefore="0" mediaItemID="2006" duration="0.040000000000000001">
      <Effects />
      <Transitions />
      <BoundProperties>
        <BoundPropertyInt Name="rotateStepNinety" Value="0" />
      </BoundProperties>
    </ImageClip>
    <ImageClip extentID="383" gapBefore="0" mediaItemID="379" duration="0.040000000000000001">
      <Effects />
      <Transitions />
      <BoundProperties>
        <BoundPropertyInt Name="rotateStepNinety" Value="0" />
      </BoundProperties>
    </ImageClip>
    <ImageClip extentID="2011" gapBefore="0" mediaItemID="2007" duration="0.040000000000000001">
      <Effects />
      <Transitions />
      <BoundProperties>
        <BoundPropertyInt Name="rotateStepNinety" Value="0" />
      </BoundProperties>
    </ImageClip>
    <ImageClip extentID="384" gapBefore="0" mediaItemID="380" duration="0.040000000000000001">
      <Effects />
      <Transitions />
      <BoundProperties>
        <BoundPropertyInt Name="rotateStepNinety" Value="0" />
      </BoundProperties>
    </ImageClip>
    <ImageClip extentID="2012" gapBefore="0" mediaItemID="2008" duration="0.040000000000000001">
      <Effects />
      <Transitions />
      <BoundProperties>
        <BoundPropertyInt Name="rotateStepNinety" Value="0" />
      </BoundProperties>
    </ImageClip>
    <ImageClip extentID="385" gapBefore="0" mediaItemID="381" duration="0.040000000000000001">
      <Effects />
      <Transitions />
      <BoundProperties>
        <BoundPropertyInt Name="rotateStepNinety" Value="0" />
      </BoundProperties>
    </ImageClip>
    <ImageClip extentID="2013" gapBefore="0" mediaItemID="2009" duration="0.040000000000000001">
      <Effects />
      <Transitions />
      <BoundProperties>
        <BoundPropertyInt Name="rotateStepNinety" Value="0" />
      </BoundProperties>
    </ImageClip>
    <ImageClip extentID="386" gapBefore="0" mediaItemID="382" duration="0.040000000000000001">
      <Effects />
      <Transitions />
      <BoundProperties>
        <BoundPropertyInt Name="rotateStepNinety" Value="0" />
      </BoundProperties>
    </ImageClip>
    <ImageClip extentID="2014" gapBefore="0" mediaItemID="2010" duration="0.040000000000000001">
      <Effects />
      <Transitions />
      <BoundProperties>
        <BoundPropertyInt Name="rotateStepNinety" Value="0" />
      </BoundProperties>
    </ImageClip>
    <ImageClip extentID="387" gapBefore="0" mediaItemID="383" duration="0.040000000000000001">
      <Effects />
      <Transitions />
      <BoundProperties>
        <BoundPropertyInt Name="rotateStepNinety" Value="0" />
      </BoundProperties>
    </ImageClip>
    <ImageClip extentID="2015" gapBefore="0" mediaItemID="2011" duration="0.040000000000000001">
      <Effects />
      <Transitions />
      <BoundProperties>
        <BoundPropertyInt Name="rotateStepNinety" Value="0" />
      </BoundProperties>
    </ImageClip>
    <ImageClip extentID="388" gapBefore="0" mediaItemID="384" duration="0.040000000000000001">
      <Effects />
      <Transitions />
      <BoundProperties>
        <BoundPropertyInt Name="rotateStepNinety" Value="0" />
      </BoundProperties>
    </ImageClip>
    <ImageClip extentID="2016" gapBefore="0" mediaItemID="2012" duration="0.040000000000000001">
      <Effects />
      <Transitions />
      <BoundProperties>
        <BoundPropertyInt Name="rotateStepNinety" Value="0" />
      </BoundProperties>
    </ImageClip>
    <ImageClip extentID="389" gapBefore="0" mediaItemID="385" duration="0.040000000000000001">
      <Effects />
      <Transitions />
      <BoundProperties>
        <BoundPropertyInt Name="rotateStepNinety" Value="0" />
      </BoundProperties>
    </ImageClip>
    <ImageClip extentID="2017" gapBefore="0" mediaItemID="2013" duration="0.040000000000000001">
      <Effects />
      <Transitions />
      <BoundProperties>
        <BoundPropertyInt Name="rotateStepNinety" Value="0" />
      </BoundProperties>
    </ImageClip>
    <ImageClip extentID="390" gapBefore="0" mediaItemID="386" duration="0.040000000000000001">
      <Effects />
      <Transitions />
      <BoundProperties>
        <BoundPropertyInt Name="rotateStepNinety" Value="0" />
      </BoundProperties>
    </ImageClip>
    <ImageClip extentID="2018" gapBefore="0" mediaItemID="2014" duration="0.040000000000000001">
      <Effects />
      <Transitions />
      <BoundProperties>
        <BoundPropertyInt Name="rotateStepNinety" Value="0" />
      </BoundProperties>
    </ImageClip>
    <ImageClip extentID="391" gapBefore="0" mediaItemID="387" duration="0.040000000000000001">
      <Effects />
      <Transitions />
      <BoundProperties>
        <BoundPropertyInt Name="rotateStepNinety" Value="0" />
      </BoundProperties>
    </ImageClip>
    <ImageClip extentID="2019" gapBefore="0" mediaItemID="2015" duration="0.040000000000000001">
      <Effects />
      <Transitions />
      <BoundProperties>
        <BoundPropertyInt Name="rotateStepNinety" Value="0" />
      </BoundProperties>
    </ImageClip>
    <ImageClip extentID="392" gapBefore="0" mediaItemID="388" duration="0.040000000000000001">
      <Effects />
      <Transitions />
      <BoundProperties>
        <BoundPropertyInt Name="rotateStepNinety" Value="0" />
      </BoundProperties>
    </ImageClip>
    <ImageClip extentID="2020" gapBefore="0" mediaItemID="2016" duration="0.040000000000000001">
      <Effects />
      <Transitions />
      <BoundProperties>
        <BoundPropertyInt Name="rotateStepNinety" Value="0" />
      </BoundProperties>
    </ImageClip>
    <ImageClip extentID="393" gapBefore="0" mediaItemID="389" duration="0.040000000000000001">
      <Effects />
      <Transitions />
      <BoundProperties>
        <BoundPropertyInt Name="rotateStepNinety" Value="0" />
      </BoundProperties>
    </ImageClip>
    <ImageClip extentID="2021" gapBefore="0" mediaItemID="2017" duration="0.040000000000000001">
      <Effects />
      <Transitions />
      <BoundProperties>
        <BoundPropertyInt Name="rotateStepNinety" Value="0" />
      </BoundProperties>
    </ImageClip>
    <ImageClip extentID="394" gapBefore="0" mediaItemID="390" duration="0.040000000000000001">
      <Effects />
      <Transitions />
      <BoundProperties>
        <BoundPropertyInt Name="rotateStepNinety" Value="0" />
      </BoundProperties>
    </ImageClip>
    <ImageClip extentID="2022" gapBefore="0" mediaItemID="2018" duration="0.040000000000000001">
      <Effects />
      <Transitions />
      <BoundProperties>
        <BoundPropertyInt Name="rotateStepNinety" Value="0" />
      </BoundProperties>
    </ImageClip>
    <ImageClip extentID="395" gapBefore="0" mediaItemID="391" duration="0.040000000000000001">
      <Effects />
      <Transitions />
      <BoundProperties>
        <BoundPropertyInt Name="rotateStepNinety" Value="0" />
      </BoundProperties>
    </ImageClip>
    <ImageClip extentID="2023" gapBefore="0" mediaItemID="2019" duration="0.040000000000000001">
      <Effects />
      <Transitions />
      <BoundProperties>
        <BoundPropertyInt Name="rotateStepNinety" Value="0" />
      </BoundProperties>
    </ImageClip>
    <ImageClip extentID="396" gapBefore="0" mediaItemID="392" duration="0.040000000000000001">
      <Effects />
      <Transitions />
      <BoundProperties>
        <BoundPropertyInt Name="rotateStepNinety" Value="0" />
      </BoundProperties>
    </ImageClip>
    <ImageClip extentID="2024" gapBefore="0" mediaItemID="2020" duration="0.040000000000000001">
      <Effects />
      <Transitions />
      <BoundProperties>
        <BoundPropertyInt Name="rotateStepNinety" Value="0" />
      </BoundProperties>
    </ImageClip>
    <ImageClip extentID="397" gapBefore="0" mediaItemID="393" duration="0.040000000000000001">
      <Effects />
      <Transitions />
      <BoundProperties>
        <BoundPropertyInt Name="rotateStepNinety" Value="0" />
      </BoundProperties>
    </ImageClip>
    <ImageClip extentID="2025" gapBefore="0" mediaItemID="2021" duration="0.040000000000000001">
      <Effects />
      <Transitions />
      <BoundProperties>
        <BoundPropertyInt Name="rotateStepNinety" Value="0" />
      </BoundProperties>
    </ImageClip>
    <ImageClip extentID="398" gapBefore="0" mediaItemID="394" duration="0.040000000000000001">
      <Effects />
      <Transitions />
      <BoundProperties>
        <BoundPropertyInt Name="rotateStepNinety" Value="0" />
      </BoundProperties>
    </ImageClip>
    <ImageClip extentID="2026" gapBefore="0" mediaItemID="2022" duration="0.040000000000000001">
      <Effects />
      <Transitions />
      <BoundProperties>
        <BoundPropertyInt Name="rotateStepNinety" Value="0" />
      </BoundProperties>
    </ImageClip>
    <ImageClip extentID="399" gapBefore="0" mediaItemID="395" duration="0.040000000000000001">
      <Effects />
      <Transitions />
      <BoundProperties>
        <BoundPropertyInt Name="rotateStepNinety" Value="0" />
      </BoundProperties>
    </ImageClip>
    <ImageClip extentID="2027" gapBefore="0" mediaItemID="2023" duration="0.040000000000000001">
      <Effects />
      <Transitions />
      <BoundProperties>
        <BoundPropertyInt Name="rotateStepNinety" Value="0" />
      </BoundProperties>
    </ImageClip>
    <ImageClip extentID="400" gapBefore="0" mediaItemID="396" duration="0.040000000000000001">
      <Effects />
      <Transitions />
      <BoundProperties>
        <BoundPropertyInt Name="rotateStepNinety" Value="0" />
      </BoundProperties>
    </ImageClip>
    <ImageClip extentID="2028" gapBefore="0" mediaItemID="2024" duration="0.040000000000000001">
      <Effects />
      <Transitions />
      <BoundProperties>
        <BoundPropertyInt Name="rotateStepNinety" Value="0" />
      </BoundProperties>
    </ImageClip>
    <ImageClip extentID="401" gapBefore="0" mediaItemID="397" duration="0.040000000000000001">
      <Effects />
      <Transitions />
      <BoundProperties>
        <BoundPropertyInt Name="rotateStepNinety" Value="0" />
      </BoundProperties>
    </ImageClip>
    <ImageClip extentID="2029" gapBefore="0" mediaItemID="2025" duration="0.040000000000000001">
      <Effects />
      <Transitions />
      <BoundProperties>
        <BoundPropertyInt Name="rotateStepNinety" Value="0" />
      </BoundProperties>
    </ImageClip>
    <ImageClip extentID="402" gapBefore="0" mediaItemID="398" duration="0.040000000000000001">
      <Effects />
      <Transitions />
      <BoundProperties>
        <BoundPropertyInt Name="rotateStepNinety" Value="0" />
      </BoundProperties>
    </ImageClip>
    <ImageClip extentID="2030" gapBefore="0" mediaItemID="2026" duration="0.040000000000000001">
      <Effects />
      <Transitions />
      <BoundProperties>
        <BoundPropertyInt Name="rotateStepNinety" Value="0" />
      </BoundProperties>
    </ImageClip>
    <ImageClip extentID="403" gapBefore="0" mediaItemID="399" duration="0.040000000000000001">
      <Effects />
      <Transitions />
      <BoundProperties>
        <BoundPropertyInt Name="rotateStepNinety" Value="0" />
      </BoundProperties>
    </ImageClip>
    <ImageClip extentID="2031" gapBefore="0" mediaItemID="2027" duration="0.040000000000000001">
      <Effects />
      <Transitions />
      <BoundProperties>
        <BoundPropertyInt Name="rotateStepNinety" Value="0" />
      </BoundProperties>
    </ImageClip>
    <ImageClip extentID="404" gapBefore="0" mediaItemID="400" duration="0.040000000000000001">
      <Effects />
      <Transitions />
      <BoundProperties>
        <BoundPropertyInt Name="rotateStepNinety" Value="0" />
      </BoundProperties>
    </ImageClip>
    <ImageClip extentID="2032" gapBefore="0" mediaItemID="2028" duration="0.040000000000000001">
      <Effects />
      <Transitions />
      <BoundProperties>
        <BoundPropertyInt Name="rotateStepNinety" Value="0" />
      </BoundProperties>
    </ImageClip>
    <ImageClip extentID="405" gapBefore="0" mediaItemID="401" duration="0.040000000000000001">
      <Effects />
      <Transitions />
      <BoundProperties>
        <BoundPropertyInt Name="rotateStepNinety" Value="0" />
      </BoundProperties>
    </ImageClip>
    <ImageClip extentID="2033" gapBefore="0" mediaItemID="2029" duration="0.040000000000000001">
      <Effects />
      <Transitions />
      <BoundProperties>
        <BoundPropertyInt Name="rotateStepNinety" Value="0" />
      </BoundProperties>
    </ImageClip>
    <ImageClip extentID="406" gapBefore="0" mediaItemID="402" duration="0.040000000000000001">
      <Effects />
      <Transitions />
      <BoundProperties>
        <BoundPropertyInt Name="rotateStepNinety" Value="0" />
      </BoundProperties>
    </ImageClip>
    <ImageClip extentID="2034" gapBefore="0" mediaItemID="2030" duration="0.040000000000000001">
      <Effects />
      <Transitions />
      <BoundProperties>
        <BoundPropertyInt Name="rotateStepNinety" Value="0" />
      </BoundProperties>
    </ImageClip>
    <ImageClip extentID="407" gapBefore="0" mediaItemID="403" duration="0.040000000000000001">
      <Effects />
      <Transitions />
      <BoundProperties>
        <BoundPropertyInt Name="rotateStepNinety" Value="0" />
      </BoundProperties>
    </ImageClip>
    <ImageClip extentID="2035" gapBefore="0" mediaItemID="2031" duration="0.040000000000000001">
      <Effects />
      <Transitions />
      <BoundProperties>
        <BoundPropertyInt Name="rotateStepNinety" Value="0" />
      </BoundProperties>
    </ImageClip>
    <ImageClip extentID="408" gapBefore="0" mediaItemID="404" duration="0.040000000000000001">
      <Effects />
      <Transitions />
      <BoundProperties>
        <BoundPropertyInt Name="rotateStepNinety" Value="0" />
      </BoundProperties>
    </ImageClip>
    <ImageClip extentID="2036" gapBefore="0" mediaItemID="2032" duration="0.040000000000000001">
      <Effects />
      <Transitions />
      <BoundProperties>
        <BoundPropertyInt Name="rotateStepNinety" Value="0" />
      </BoundProperties>
    </ImageClip>
    <ImageClip extentID="409" gapBefore="0" mediaItemID="405" duration="0.040000000000000001">
      <Effects />
      <Transitions />
      <BoundProperties>
        <BoundPropertyInt Name="rotateStepNinety" Value="0" />
      </BoundProperties>
    </ImageClip>
    <ImageClip extentID="2037" gapBefore="0" mediaItemID="2033" duration="0.040000000000000001">
      <Effects />
      <Transitions />
      <BoundProperties>
        <BoundPropertyInt Name="rotateStepNinety" Value="0" />
      </BoundProperties>
    </ImageClip>
    <ImageClip extentID="410" gapBefore="0" mediaItemID="406" duration="0.040000000000000001">
      <Effects />
      <Transitions />
      <BoundProperties>
        <BoundPropertyInt Name="rotateStepNinety" Value="0" />
      </BoundProperties>
    </ImageClip>
    <ImageClip extentID="2038" gapBefore="0" mediaItemID="2034" duration="0.040000000000000001">
      <Effects />
      <Transitions />
      <BoundProperties>
        <BoundPropertyInt Name="rotateStepNinety" Value="0" />
      </BoundProperties>
    </ImageClip>
    <ImageClip extentID="411" gapBefore="0" mediaItemID="407" duration="0.040000000000000001">
      <Effects />
      <Transitions />
      <BoundProperties>
        <BoundPropertyInt Name="rotateStepNinety" Value="0" />
      </BoundProperties>
    </ImageClip>
    <ImageClip extentID="2039" gapBefore="0" mediaItemID="2035" duration="0.040000000000000001">
      <Effects />
      <Transitions />
      <BoundProperties>
        <BoundPropertyInt Name="rotateStepNinety" Value="0" />
      </BoundProperties>
    </ImageClip>
    <ImageClip extentID="412" gapBefore="0" mediaItemID="408" duration="0.040000000000000001">
      <Effects />
      <Transitions />
      <BoundProperties>
        <BoundPropertyInt Name="rotateStepNinety" Value="0" />
      </BoundProperties>
    </ImageClip>
    <ImageClip extentID="2040" gapBefore="0" mediaItemID="2036" duration="0.040000000000000001">
      <Effects />
      <Transitions />
      <BoundProperties>
        <BoundPropertyInt Name="rotateStepNinety" Value="0" />
      </BoundProperties>
    </ImageClip>
    <ImageClip extentID="413" gapBefore="0" mediaItemID="409" duration="0.040000000000000001">
      <Effects />
      <Transitions />
      <BoundProperties>
        <BoundPropertyInt Name="rotateStepNinety" Value="0" />
      </BoundProperties>
    </ImageClip>
    <ImageClip extentID="2041" gapBefore="0" mediaItemID="2037" duration="0.040000000000000001">
      <Effects />
      <Transitions />
      <BoundProperties>
        <BoundPropertyInt Name="rotateStepNinety" Value="0" />
      </BoundProperties>
    </ImageClip>
    <ImageClip extentID="414" gapBefore="0" mediaItemID="410" duration="0.040000000000000001">
      <Effects />
      <Transitions />
      <BoundProperties>
        <BoundPropertyInt Name="rotateStepNinety" Value="0" />
      </BoundProperties>
    </ImageClip>
    <ImageClip extentID="2042" gapBefore="0" mediaItemID="2038" duration="0.040000000000000001">
      <Effects />
      <Transitions />
      <BoundProperties>
        <BoundPropertyInt Name="rotateStepNinety" Value="0" />
      </BoundProperties>
    </ImageClip>
    <ImageClip extentID="415" gapBefore="0" mediaItemID="411" duration="0.040000000000000001">
      <Effects />
      <Transitions />
      <BoundProperties>
        <BoundPropertyInt Name="rotateStepNinety" Value="0" />
      </BoundProperties>
    </ImageClip>
    <ImageClip extentID="2043" gapBefore="0" mediaItemID="2039" duration="0.040000000000000001">
      <Effects />
      <Transitions />
      <BoundProperties>
        <BoundPropertyInt Name="rotateStepNinety" Value="0" />
      </BoundProperties>
    </ImageClip>
    <ImageClip extentID="416" gapBefore="0" mediaItemID="412" duration="0.040000000000000001">
      <Effects />
      <Transitions />
      <BoundProperties>
        <BoundPropertyInt Name="rotateStepNinety" Value="0" />
      </BoundProperties>
    </ImageClip>
    <ImageClip extentID="2044" gapBefore="0" mediaItemID="2040" duration="0.040000000000000001">
      <Effects />
      <Transitions />
      <BoundProperties>
        <BoundPropertyInt Name="rotateStepNinety" Value="0" />
      </BoundProperties>
    </ImageClip>
    <ImageClip extentID="417" gapBefore="0" mediaItemID="413" duration="0.040000000000000001">
      <Effects />
      <Transitions />
      <BoundProperties>
        <BoundPropertyInt Name="rotateStepNinety" Value="0" />
      </BoundProperties>
    </ImageClip>
    <ImageClip extentID="2045" gapBefore="0" mediaItemID="2041" duration="0.040000000000000001">
      <Effects />
      <Transitions />
      <BoundProperties>
        <BoundPropertyInt Name="rotateStepNinety" Value="0" />
      </BoundProperties>
    </ImageClip>
    <ImageClip extentID="418" gapBefore="0" mediaItemID="414" duration="0.040000000000000001">
      <Effects />
      <Transitions />
      <BoundProperties>
        <BoundPropertyInt Name="rotateStepNinety" Value="0" />
      </BoundProperties>
    </ImageClip>
    <ImageClip extentID="2046" gapBefore="0" mediaItemID="2042" duration="0.040000000000000001">
      <Effects />
      <Transitions />
      <BoundProperties>
        <BoundPropertyInt Name="rotateStepNinety" Value="0" />
      </BoundProperties>
    </ImageClip>
    <ImageClip extentID="419" gapBefore="0" mediaItemID="415" duration="0.040000000000000001">
      <Effects />
      <Transitions />
      <BoundProperties>
        <BoundPropertyInt Name="rotateStepNinety" Value="0" />
      </BoundProperties>
    </ImageClip>
    <ImageClip extentID="2047" gapBefore="0" mediaItemID="2043" duration="0.040000000000000001">
      <Effects />
      <Transitions />
      <BoundProperties>
        <BoundPropertyInt Name="rotateStepNinety" Value="0" />
      </BoundProperties>
    </ImageClip>
    <ImageClip extentID="420" gapBefore="0" mediaItemID="416" duration="0.040000000000000001">
      <Effects />
      <Transitions />
      <BoundProperties>
        <BoundPropertyInt Name="rotateStepNinety" Value="0" />
      </BoundProperties>
    </ImageClip>
    <ImageClip extentID="2048" gapBefore="0" mediaItemID="2044" duration="0.040000000000000001">
      <Effects />
      <Transitions />
      <BoundProperties>
        <BoundPropertyInt Name="rotateStepNinety" Value="0" />
      </BoundProperties>
    </ImageClip>
    <ImageClip extentID="421" gapBefore="0" mediaItemID="417" duration="0.040000000000000001">
      <Effects />
      <Transitions />
      <BoundProperties>
        <BoundPropertyInt Name="rotateStepNinety" Value="0" />
      </BoundProperties>
    </ImageClip>
    <ImageClip extentID="2049" gapBefore="0" mediaItemID="2045" duration="0.040000000000000001">
      <Effects />
      <Transitions />
      <BoundProperties>
        <BoundPropertyInt Name="rotateStepNinety" Value="0" />
      </BoundProperties>
    </ImageClip>
    <ImageClip extentID="422" gapBefore="0" mediaItemID="418" duration="0.040000000000000001">
      <Effects />
      <Transitions />
      <BoundProperties>
        <BoundPropertyInt Name="rotateStepNinety" Value="0" />
      </BoundProperties>
    </ImageClip>
    <ImageClip extentID="2050" gapBefore="0" mediaItemID="2046" duration="0.040000000000000001">
      <Effects />
      <Transitions />
      <BoundProperties>
        <BoundPropertyInt Name="rotateStepNinety" Value="0" />
      </BoundProperties>
    </ImageClip>
    <ImageClip extentID="423" gapBefore="0" mediaItemID="419" duration="0.040000000000000001">
      <Effects />
      <Transitions />
      <BoundProperties>
        <BoundPropertyInt Name="rotateStepNinety" Value="0" />
      </BoundProperties>
    </ImageClip>
    <ImageClip extentID="2051" gapBefore="0" mediaItemID="2047" duration="0.040000000000000001">
      <Effects />
      <Transitions />
      <BoundProperties>
        <BoundPropertyInt Name="rotateStepNinety" Value="0" />
      </BoundProperties>
    </ImageClip>
    <ImageClip extentID="424" gapBefore="0" mediaItemID="420" duration="0.040000000000000001">
      <Effects />
      <Transitions />
      <BoundProperties>
        <BoundPropertyInt Name="rotateStepNinety" Value="0" />
      </BoundProperties>
    </ImageClip>
    <ImageClip extentID="2052" gapBefore="0" mediaItemID="2048" duration="0.040000000000000001">
      <Effects />
      <Transitions />
      <BoundProperties>
        <BoundPropertyInt Name="rotateStepNinety" Value="0" />
      </BoundProperties>
    </ImageClip>
    <ImageClip extentID="425" gapBefore="0" mediaItemID="421" duration="0.040000000000000001">
      <Effects />
      <Transitions />
      <BoundProperties>
        <BoundPropertyInt Name="rotateStepNinety" Value="0" />
      </BoundProperties>
    </ImageClip>
    <ImageClip extentID="2053" gapBefore="0" mediaItemID="2049" duration="0.040000000000000001">
      <Effects />
      <Transitions />
      <BoundProperties>
        <BoundPropertyInt Name="rotateStepNinety" Value="0" />
      </BoundProperties>
    </ImageClip>
    <ImageClip extentID="426" gapBefore="0" mediaItemID="422" duration="0.040000000000000001">
      <Effects />
      <Transitions />
      <BoundProperties>
        <BoundPropertyInt Name="rotateStepNinety" Value="0" />
      </BoundProperties>
    </ImageClip>
    <ImageClip extentID="2054" gapBefore="0" mediaItemID="2050" duration="0.040000000000000001">
      <Effects />
      <Transitions />
      <BoundProperties>
        <BoundPropertyInt Name="rotateStepNinety" Value="0" />
      </BoundProperties>
    </ImageClip>
    <ImageClip extentID="427" gapBefore="0" mediaItemID="423" duration="0.040000000000000001">
      <Effects />
      <Transitions />
      <BoundProperties>
        <BoundPropertyInt Name="rotateStepNinety" Value="0" />
      </BoundProperties>
    </ImageClip>
    <ImageClip extentID="2055" gapBefore="0" mediaItemID="2051" duration="0.040000000000000001">
      <Effects />
      <Transitions />
      <BoundProperties>
        <BoundPropertyInt Name="rotateStepNinety" Value="0" />
      </BoundProperties>
    </ImageClip>
    <ImageClip extentID="428" gapBefore="0" mediaItemID="424" duration="0.040000000000000001">
      <Effects />
      <Transitions />
      <BoundProperties>
        <BoundPropertyInt Name="rotateStepNinety" Value="0" />
      </BoundProperties>
    </ImageClip>
    <ImageClip extentID="2056" gapBefore="0" mediaItemID="2052" duration="0.040000000000000001">
      <Effects />
      <Transitions />
      <BoundProperties>
        <BoundPropertyInt Name="rotateStepNinety" Value="0" />
      </BoundProperties>
    </ImageClip>
    <ImageClip extentID="429" gapBefore="0" mediaItemID="425" duration="0.040000000000000001">
      <Effects />
      <Transitions />
      <BoundProperties>
        <BoundPropertyInt Name="rotateStepNinety" Value="0" />
      </BoundProperties>
    </ImageClip>
    <ImageClip extentID="2057" gapBefore="0" mediaItemID="2053" duration="0.040000000000000001">
      <Effects />
      <Transitions />
      <BoundProperties>
        <BoundPropertyInt Name="rotateStepNinety" Value="0" />
      </BoundProperties>
    </ImageClip>
    <ImageClip extentID="430" gapBefore="0" mediaItemID="426" duration="0.040000000000000001">
      <Effects />
      <Transitions />
      <BoundProperties>
        <BoundPropertyInt Name="rotateStepNinety" Value="0" />
      </BoundProperties>
    </ImageClip>
    <ImageClip extentID="2058" gapBefore="0" mediaItemID="2054" duration="0.040000000000000001">
      <Effects />
      <Transitions />
      <BoundProperties>
        <BoundPropertyInt Name="rotateStepNinety" Value="0" />
      </BoundProperties>
    </ImageClip>
    <ImageClip extentID="431" gapBefore="0" mediaItemID="427" duration="0.040000000000000001">
      <Effects />
      <Transitions />
      <BoundProperties>
        <BoundPropertyInt Name="rotateStepNinety" Value="0" />
      </BoundProperties>
    </ImageClip>
    <ImageClip extentID="2059" gapBefore="0" mediaItemID="2055" duration="0.040000000000000001">
      <Effects />
      <Transitions />
      <BoundProperties>
        <BoundPropertyInt Name="rotateStepNinety" Value="0" />
      </BoundProperties>
    </ImageClip>
    <ImageClip extentID="432" gapBefore="0" mediaItemID="428" duration="0.040000000000000001">
      <Effects />
      <Transitions />
      <BoundProperties>
        <BoundPropertyInt Name="rotateStepNinety" Value="0" />
      </BoundProperties>
    </ImageClip>
    <ImageClip extentID="2060" gapBefore="0" mediaItemID="2056" duration="0.040000000000000001">
      <Effects />
      <Transitions />
      <BoundProperties>
        <BoundPropertyInt Name="rotateStepNinety" Value="0" />
      </BoundProperties>
    </ImageClip>
    <ImageClip extentID="433" gapBefore="0" mediaItemID="429" duration="0.040000000000000001">
      <Effects />
      <Transitions />
      <BoundProperties>
        <BoundPropertyInt Name="rotateStepNinety" Value="0" />
      </BoundProperties>
    </ImageClip>
    <ImageClip extentID="2061" gapBefore="0" mediaItemID="2057" duration="0.040000000000000001">
      <Effects />
      <Transitions />
      <BoundProperties>
        <BoundPropertyInt Name="rotateStepNinety" Value="0" />
      </BoundProperties>
    </ImageClip>
    <ImageClip extentID="434" gapBefore="0" mediaItemID="430" duration="0.040000000000000001">
      <Effects />
      <Transitions />
      <BoundProperties>
        <BoundPropertyInt Name="rotateStepNinety" Value="0" />
      </BoundProperties>
    </ImageClip>
    <ImageClip extentID="2062" gapBefore="0" mediaItemID="2058" duration="0.040000000000000001">
      <Effects />
      <Transitions />
      <BoundProperties>
        <BoundPropertyInt Name="rotateStepNinety" Value="0" />
      </BoundProperties>
    </ImageClip>
    <ImageClip extentID="435" gapBefore="0" mediaItemID="431" duration="0.040000000000000001">
      <Effects />
      <Transitions />
      <BoundProperties>
        <BoundPropertyInt Name="rotateStepNinety" Value="0" />
      </BoundProperties>
    </ImageClip>
    <ImageClip extentID="2063" gapBefore="0" mediaItemID="2059" duration="0.040000000000000001">
      <Effects />
      <Transitions />
      <BoundProperties>
        <BoundPropertyInt Name="rotateStepNinety" Value="0" />
      </BoundProperties>
    </ImageClip>
    <ImageClip extentID="436" gapBefore="0" mediaItemID="432" duration="0.040000000000000001">
      <Effects />
      <Transitions />
      <BoundProperties>
        <BoundPropertyInt Name="rotateStepNinety" Value="0" />
      </BoundProperties>
    </ImageClip>
    <ImageClip extentID="2064" gapBefore="0" mediaItemID="2060" duration="0.040000000000000001">
      <Effects />
      <Transitions />
      <BoundProperties>
        <BoundPropertyInt Name="rotateStepNinety" Value="0" />
      </BoundProperties>
    </ImageClip>
    <ImageClip extentID="437" gapBefore="0" mediaItemID="433" duration="0.040000000000000001">
      <Effects />
      <Transitions />
      <BoundProperties>
        <BoundPropertyInt Name="rotateStepNinety" Value="0" />
      </BoundProperties>
    </ImageClip>
    <ImageClip extentID="2065" gapBefore="0" mediaItemID="2061" duration="0.040000000000000001">
      <Effects />
      <Transitions />
      <BoundProperties>
        <BoundPropertyInt Name="rotateStepNinety" Value="0" />
      </BoundProperties>
    </ImageClip>
    <ImageClip extentID="438" gapBefore="0" mediaItemID="434" duration="0.040000000000000001">
      <Effects />
      <Transitions />
      <BoundProperties>
        <BoundPropertyInt Name="rotateStepNinety" Value="0" />
      </BoundProperties>
    </ImageClip>
    <ImageClip extentID="2066" gapBefore="0" mediaItemID="2062" duration="0.040000000000000001">
      <Effects />
      <Transitions />
      <BoundProperties>
        <BoundPropertyInt Name="rotateStepNinety" Value="0" />
      </BoundProperties>
    </ImageClip>
    <ImageClip extentID="439" gapBefore="0" mediaItemID="435" duration="0.040000000000000001">
      <Effects />
      <Transitions />
      <BoundProperties>
        <BoundPropertyInt Name="rotateStepNinety" Value="0" />
      </BoundProperties>
    </ImageClip>
    <ImageClip extentID="2067" gapBefore="0" mediaItemID="2063" duration="0.040000000000000001">
      <Effects />
      <Transitions />
      <BoundProperties>
        <BoundPropertyInt Name="rotateStepNinety" Value="0" />
      </BoundProperties>
    </ImageClip>
    <ImageClip extentID="440" gapBefore="0" mediaItemID="436" duration="0.040000000000000001">
      <Effects />
      <Transitions />
      <BoundProperties>
        <BoundPropertyInt Name="rotateStepNinety" Value="0" />
      </BoundProperties>
    </ImageClip>
    <ImageClip extentID="2068" gapBefore="0" mediaItemID="2064" duration="0.040000000000000001">
      <Effects />
      <Transitions />
      <BoundProperties>
        <BoundPropertyInt Name="rotateStepNinety" Value="0" />
      </BoundProperties>
    </ImageClip>
    <ImageClip extentID="441" gapBefore="0" mediaItemID="437" duration="0.040000000000000001">
      <Effects />
      <Transitions />
      <BoundProperties>
        <BoundPropertyInt Name="rotateStepNinety" Value="0" />
      </BoundProperties>
    </ImageClip>
    <ImageClip extentID="2069" gapBefore="0" mediaItemID="2065" duration="0.040000000000000001">
      <Effects />
      <Transitions />
      <BoundProperties>
        <BoundPropertyInt Name="rotateStepNinety" Value="0" />
      </BoundProperties>
    </ImageClip>
    <ImageClip extentID="442" gapBefore="0" mediaItemID="438" duration="0.040000000000000001">
      <Effects />
      <Transitions />
      <BoundProperties>
        <BoundPropertyInt Name="rotateStepNinety" Value="0" />
      </BoundProperties>
    </ImageClip>
    <ImageClip extentID="2070" gapBefore="0" mediaItemID="2066" duration="0.040000000000000001">
      <Effects />
      <Transitions />
      <BoundProperties>
        <BoundPropertyInt Name="rotateStepNinety" Value="0" />
      </BoundProperties>
    </ImageClip>
    <ImageClip extentID="443" gapBefore="0" mediaItemID="439" duration="0.040000000000000001">
      <Effects />
      <Transitions />
      <BoundProperties>
        <BoundPropertyInt Name="rotateStepNinety" Value="0" />
      </BoundProperties>
    </ImageClip>
    <ImageClip extentID="2071" gapBefore="0" mediaItemID="2067" duration="0.040000000000000001">
      <Effects />
      <Transitions />
      <BoundProperties>
        <BoundPropertyInt Name="rotateStepNinety" Value="0" />
      </BoundProperties>
    </ImageClip>
    <ImageClip extentID="444" gapBefore="0" mediaItemID="440" duration="0.040000000000000001">
      <Effects />
      <Transitions />
      <BoundProperties>
        <BoundPropertyInt Name="rotateStepNinety" Value="0" />
      </BoundProperties>
    </ImageClip>
    <ImageClip extentID="2072" gapBefore="0" mediaItemID="2068" duration="0.040000000000000001">
      <Effects />
      <Transitions />
      <BoundProperties>
        <BoundPropertyInt Name="rotateStepNinety" Value="0" />
      </BoundProperties>
    </ImageClip>
    <ImageClip extentID="445" gapBefore="0" mediaItemID="441" duration="0.040000000000000001">
      <Effects />
      <Transitions />
      <BoundProperties>
        <BoundPropertyInt Name="rotateStepNinety" Value="0" />
      </BoundProperties>
    </ImageClip>
    <ImageClip extentID="2073" gapBefore="0" mediaItemID="2069" duration="0.040000000000000001">
      <Effects />
      <Transitions />
      <BoundProperties>
        <BoundPropertyInt Name="rotateStepNinety" Value="0" />
      </BoundProperties>
    </ImageClip>
    <ImageClip extentID="446" gapBefore="0" mediaItemID="442" duration="0.040000000000000001">
      <Effects />
      <Transitions />
      <BoundProperties>
        <BoundPropertyInt Name="rotateStepNinety" Value="0" />
      </BoundProperties>
    </ImageClip>
    <ImageClip extentID="2074" gapBefore="0" mediaItemID="2070" duration="0.040000000000000001">
      <Effects />
      <Transitions />
      <BoundProperties>
        <BoundPropertyInt Name="rotateStepNinety" Value="0" />
      </BoundProperties>
    </ImageClip>
    <ImageClip extentID="447" gapBefore="0" mediaItemID="443" duration="0.040000000000000001">
      <Effects />
      <Transitions />
      <BoundProperties>
        <BoundPropertyInt Name="rotateStepNinety" Value="0" />
      </BoundProperties>
    </ImageClip>
    <ImageClip extentID="2075" gapBefore="0" mediaItemID="2071" duration="0.040000000000000001">
      <Effects />
      <Transitions />
      <BoundProperties>
        <BoundPropertyInt Name="rotateStepNinety" Value="0" />
      </BoundProperties>
    </ImageClip>
    <ImageClip extentID="448" gapBefore="0" mediaItemID="444" duration="0.040000000000000001">
      <Effects />
      <Transitions />
      <BoundProperties>
        <BoundPropertyInt Name="rotateStepNinety" Value="0" />
      </BoundProperties>
    </ImageClip>
    <ImageClip extentID="2076" gapBefore="0" mediaItemID="2072" duration="0.040000000000000001">
      <Effects />
      <Transitions />
      <BoundProperties>
        <BoundPropertyInt Name="rotateStepNinety" Value="0" />
      </BoundProperties>
    </ImageClip>
    <ImageClip extentID="449" gapBefore="0" mediaItemID="445" duration="0.040000000000000001">
      <Effects />
      <Transitions />
      <BoundProperties>
        <BoundPropertyInt Name="rotateStepNinety" Value="0" />
      </BoundProperties>
    </ImageClip>
    <ImageClip extentID="2077" gapBefore="0" mediaItemID="2073" duration="0.040000000000000001">
      <Effects />
      <Transitions />
      <BoundProperties>
        <BoundPropertyInt Name="rotateStepNinety" Value="0" />
      </BoundProperties>
    </ImageClip>
    <ImageClip extentID="450" gapBefore="0" mediaItemID="446" duration="0.040000000000000001">
      <Effects />
      <Transitions />
      <BoundProperties>
        <BoundPropertyInt Name="rotateStepNinety" Value="0" />
      </BoundProperties>
    </ImageClip>
    <ImageClip extentID="2078" gapBefore="0" mediaItemID="2074" duration="0.040000000000000001">
      <Effects />
      <Transitions />
      <BoundProperties>
        <BoundPropertyInt Name="rotateStepNinety" Value="0" />
      </BoundProperties>
    </ImageClip>
    <ImageClip extentID="451" gapBefore="0" mediaItemID="447" duration="0.040000000000000001">
      <Effects />
      <Transitions />
      <BoundProperties>
        <BoundPropertyInt Name="rotateStepNinety" Value="0" />
      </BoundProperties>
    </ImageClip>
    <ImageClip extentID="2079" gapBefore="0" mediaItemID="2075" duration="0.040000000000000001">
      <Effects />
      <Transitions />
      <BoundProperties>
        <BoundPropertyInt Name="rotateStepNinety" Value="0" />
      </BoundProperties>
    </ImageClip>
    <ImageClip extentID="452" gapBefore="0" mediaItemID="448" duration="0.040000000000000001">
      <Effects />
      <Transitions />
      <BoundProperties>
        <BoundPropertyInt Name="rotateStepNinety" Value="0" />
      </BoundProperties>
    </ImageClip>
    <ImageClip extentID="2080" gapBefore="0" mediaItemID="2076" duration="0.040000000000000001">
      <Effects />
      <Transitions />
      <BoundProperties>
        <BoundPropertyInt Name="rotateStepNinety" Value="0" />
      </BoundProperties>
    </ImageClip>
    <ImageClip extentID="453" gapBefore="0" mediaItemID="449" duration="0.040000000000000001">
      <Effects />
      <Transitions />
      <BoundProperties>
        <BoundPropertyInt Name="rotateStepNinety" Value="0" />
      </BoundProperties>
    </ImageClip>
    <ImageClip extentID="2081" gapBefore="0" mediaItemID="2077" duration="0.040000000000000001">
      <Effects />
      <Transitions />
      <BoundProperties>
        <BoundPropertyInt Name="rotateStepNinety" Value="0" />
      </BoundProperties>
    </ImageClip>
    <ImageClip extentID="454" gapBefore="0" mediaItemID="450" duration="0.040000000000000001">
      <Effects />
      <Transitions />
      <BoundProperties>
        <BoundPropertyInt Name="rotateStepNinety" Value="0" />
      </BoundProperties>
    </ImageClip>
    <ImageClip extentID="2082" gapBefore="0" mediaItemID="2078" duration="0.040000000000000001">
      <Effects />
      <Transitions />
      <BoundProperties>
        <BoundPropertyInt Name="rotateStepNinety" Value="0" />
      </BoundProperties>
    </ImageClip>
    <ImageClip extentID="455" gapBefore="0" mediaItemID="451" duration="0.040000000000000001">
      <Effects />
      <Transitions />
      <BoundProperties>
        <BoundPropertyInt Name="rotateStepNinety" Value="0" />
      </BoundProperties>
    </ImageClip>
    <ImageClip extentID="2083" gapBefore="0" mediaItemID="2079" duration="0.040000000000000001">
      <Effects />
      <Transitions />
      <BoundProperties>
        <BoundPropertyInt Name="rotateStepNinety" Value="0" />
      </BoundProperties>
    </ImageClip>
    <ImageClip extentID="456" gapBefore="0" mediaItemID="452" duration="0.040000000000000001">
      <Effects />
      <Transitions />
      <BoundProperties>
        <BoundPropertyInt Name="rotateStepNinety" Value="0" />
      </BoundProperties>
    </ImageClip>
    <ImageClip extentID="2084" gapBefore="0" mediaItemID="2080" duration="0.040000000000000001">
      <Effects />
      <Transitions />
      <BoundProperties>
        <BoundPropertyInt Name="rotateStepNinety" Value="0" />
      </BoundProperties>
    </ImageClip>
    <ImageClip extentID="457" gapBefore="0" mediaItemID="453" duration="0.040000000000000001">
      <Effects />
      <Transitions />
      <BoundProperties>
        <BoundPropertyInt Name="rotateStepNinety" Value="0" />
      </BoundProperties>
    </ImageClip>
    <ImageClip extentID="2085" gapBefore="0" mediaItemID="2081" duration="0.040000000000000001">
      <Effects />
      <Transitions />
      <BoundProperties>
        <BoundPropertyInt Name="rotateStepNinety" Value="0" />
      </BoundProperties>
    </ImageClip>
    <ImageClip extentID="458" gapBefore="0" mediaItemID="454" duration="0.040000000000000001">
      <Effects />
      <Transitions />
      <BoundProperties>
        <BoundPropertyInt Name="rotateStepNinety" Value="0" />
      </BoundProperties>
    </ImageClip>
    <ImageClip extentID="2086" gapBefore="0" mediaItemID="2082" duration="0.040000000000000001">
      <Effects />
      <Transitions />
      <BoundProperties>
        <BoundPropertyInt Name="rotateStepNinety" Value="0" />
      </BoundProperties>
    </ImageClip>
    <ImageClip extentID="459" gapBefore="0" mediaItemID="455" duration="0.040000000000000001">
      <Effects />
      <Transitions />
      <BoundProperties>
        <BoundPropertyInt Name="rotateStepNinety" Value="0" />
      </BoundProperties>
    </ImageClip>
    <ImageClip extentID="2087" gapBefore="0" mediaItemID="2083" duration="0.040000000000000001">
      <Effects />
      <Transitions />
      <BoundProperties>
        <BoundPropertyInt Name="rotateStepNinety" Value="0" />
      </BoundProperties>
    </ImageClip>
    <ImageClip extentID="460" gapBefore="0" mediaItemID="456" duration="0.040000000000000001">
      <Effects />
      <Transitions />
      <BoundProperties>
        <BoundPropertyInt Name="rotateStepNinety" Value="0" />
      </BoundProperties>
    </ImageClip>
    <ImageClip extentID="2088" gapBefore="0" mediaItemID="2084" duration="0.040000000000000001">
      <Effects />
      <Transitions />
      <BoundProperties>
        <BoundPropertyInt Name="rotateStepNinety" Value="0" />
      </BoundProperties>
    </ImageClip>
    <ImageClip extentID="461" gapBefore="0" mediaItemID="457" duration="0.040000000000000001">
      <Effects />
      <Transitions />
      <BoundProperties>
        <BoundPropertyInt Name="rotateStepNinety" Value="0" />
      </BoundProperties>
    </ImageClip>
    <ImageClip extentID="2089" gapBefore="0" mediaItemID="2085" duration="0.040000000000000001">
      <Effects />
      <Transitions />
      <BoundProperties>
        <BoundPropertyInt Name="rotateStepNinety" Value="0" />
      </BoundProperties>
    </ImageClip>
    <ImageClip extentID="462" gapBefore="0" mediaItemID="458" duration="0.040000000000000001">
      <Effects />
      <Transitions />
      <BoundProperties>
        <BoundPropertyInt Name="rotateStepNinety" Value="0" />
      </BoundProperties>
    </ImageClip>
    <ImageClip extentID="2090" gapBefore="0" mediaItemID="2086" duration="0.040000000000000001">
      <Effects />
      <Transitions />
      <BoundProperties>
        <BoundPropertyInt Name="rotateStepNinety" Value="0" />
      </BoundProperties>
    </ImageClip>
    <ImageClip extentID="463" gapBefore="0" mediaItemID="459" duration="0.040000000000000001">
      <Effects />
      <Transitions />
      <BoundProperties>
        <BoundPropertyInt Name="rotateStepNinety" Value="0" />
      </BoundProperties>
    </ImageClip>
    <ImageClip extentID="2091" gapBefore="0" mediaItemID="2087" duration="0.040000000000000001">
      <Effects />
      <Transitions />
      <BoundProperties>
        <BoundPropertyInt Name="rotateStepNinety" Value="0" />
      </BoundProperties>
    </ImageClip>
    <ImageClip extentID="464" gapBefore="0" mediaItemID="460" duration="0.040000000000000001">
      <Effects />
      <Transitions />
      <BoundProperties>
        <BoundPropertyInt Name="rotateStepNinety" Value="0" />
      </BoundProperties>
    </ImageClip>
    <ImageClip extentID="2092" gapBefore="0" mediaItemID="2088" duration="0.040000000000000001">
      <Effects />
      <Transitions />
      <BoundProperties>
        <BoundPropertyInt Name="rotateStepNinety" Value="0" />
      </BoundProperties>
    </ImageClip>
    <ImageClip extentID="465" gapBefore="0" mediaItemID="461" duration="0.040000000000000001">
      <Effects />
      <Transitions />
      <BoundProperties>
        <BoundPropertyInt Name="rotateStepNinety" Value="0" />
      </BoundProperties>
    </ImageClip>
    <ImageClip extentID="2093" gapBefore="0" mediaItemID="2089" duration="0.040000000000000001">
      <Effects />
      <Transitions />
      <BoundProperties>
        <BoundPropertyInt Name="rotateStepNinety" Value="0" />
      </BoundProperties>
    </ImageClip>
    <ImageClip extentID="466" gapBefore="0" mediaItemID="462" duration="0.040000000000000001">
      <Effects />
      <Transitions />
      <BoundProperties>
        <BoundPropertyInt Name="rotateStepNinety" Value="0" />
      </BoundProperties>
    </ImageClip>
    <ImageClip extentID="2094" gapBefore="0" mediaItemID="2090" duration="0.040000000000000001">
      <Effects />
      <Transitions />
      <BoundProperties>
        <BoundPropertyInt Name="rotateStepNinety" Value="0" />
      </BoundProperties>
    </ImageClip>
    <ImageClip extentID="467" gapBefore="0" mediaItemID="463" duration="0.040000000000000001">
      <Effects />
      <Transitions />
      <BoundProperties>
        <BoundPropertyInt Name="rotateStepNinety" Value="0" />
      </BoundProperties>
    </ImageClip>
    <ImageClip extentID="2095" gapBefore="0" mediaItemID="2091" duration="0.040000000000000001">
      <Effects />
      <Transitions />
      <BoundProperties>
        <BoundPropertyInt Name="rotateStepNinety" Value="0" />
      </BoundProperties>
    </ImageClip>
    <ImageClip extentID="468" gapBefore="0" mediaItemID="464" duration="0.040000000000000001">
      <Effects />
      <Transitions />
      <BoundProperties>
        <BoundPropertyInt Name="rotateStepNinety" Value="0" />
      </BoundProperties>
    </ImageClip>
    <ImageClip extentID="2096" gapBefore="0" mediaItemID="2092" duration="0.040000000000000001">
      <Effects />
      <Transitions />
      <BoundProperties>
        <BoundPropertyInt Name="rotateStepNinety" Value="0" />
      </BoundProperties>
    </ImageClip>
    <ImageClip extentID="469" gapBefore="0" mediaItemID="465" duration="0.040000000000000001">
      <Effects />
      <Transitions />
      <BoundProperties>
        <BoundPropertyInt Name="rotateStepNinety" Value="0" />
      </BoundProperties>
    </ImageClip>
    <ImageClip extentID="2097" gapBefore="0" mediaItemID="2093" duration="0.040000000000000001">
      <Effects />
      <Transitions />
      <BoundProperties>
        <BoundPropertyInt Name="rotateStepNinety" Value="0" />
      </BoundProperties>
    </ImageClip>
    <ImageClip extentID="470" gapBefore="0" mediaItemID="466" duration="0.040000000000000001">
      <Effects />
      <Transitions />
      <BoundProperties>
        <BoundPropertyInt Name="rotateStepNinety" Value="0" />
      </BoundProperties>
    </ImageClip>
    <ImageClip extentID="2098" gapBefore="0" mediaItemID="2094" duration="0.040000000000000001">
      <Effects />
      <Transitions />
      <BoundProperties>
        <BoundPropertyInt Name="rotateStepNinety" Value="0" />
      </BoundProperties>
    </ImageClip>
    <ImageClip extentID="471" gapBefore="0" mediaItemID="467" duration="0.040000000000000001">
      <Effects />
      <Transitions />
      <BoundProperties>
        <BoundPropertyInt Name="rotateStepNinety" Value="0" />
      </BoundProperties>
    </ImageClip>
    <ImageClip extentID="2099" gapBefore="0" mediaItemID="2095" duration="0.040000000000000001">
      <Effects />
      <Transitions />
      <BoundProperties>
        <BoundPropertyInt Name="rotateStepNinety" Value="0" />
      </BoundProperties>
    </ImageClip>
    <ImageClip extentID="472" gapBefore="0" mediaItemID="468" duration="0.040000000000000001">
      <Effects />
      <Transitions />
      <BoundProperties>
        <BoundPropertyInt Name="rotateStepNinety" Value="0" />
      </BoundProperties>
    </ImageClip>
    <ImageClip extentID="2100" gapBefore="0" mediaItemID="2096" duration="0.040000000000000001">
      <Effects />
      <Transitions />
      <BoundProperties>
        <BoundPropertyInt Name="rotateStepNinety" Value="0" />
      </BoundProperties>
    </ImageClip>
    <ImageClip extentID="473" gapBefore="0" mediaItemID="469" duration="0.040000000000000001">
      <Effects />
      <Transitions />
      <BoundProperties>
        <BoundPropertyInt Name="rotateStepNinety" Value="0" />
      </BoundProperties>
    </ImageClip>
    <ImageClip extentID="2101" gapBefore="0" mediaItemID="2097" duration="0.040000000000000001">
      <Effects />
      <Transitions />
      <BoundProperties>
        <BoundPropertyInt Name="rotateStepNinety" Value="0" />
      </BoundProperties>
    </ImageClip>
    <ImageClip extentID="474" gapBefore="0" mediaItemID="470" duration="0.040000000000000001">
      <Effects />
      <Transitions />
      <BoundProperties>
        <BoundPropertyInt Name="rotateStepNinety" Value="0" />
      </BoundProperties>
    </ImageClip>
    <ImageClip extentID="2102" gapBefore="0" mediaItemID="2098" duration="0.040000000000000001">
      <Effects />
      <Transitions />
      <BoundProperties>
        <BoundPropertyInt Name="rotateStepNinety" Value="0" />
      </BoundProperties>
    </ImageClip>
    <ImageClip extentID="475" gapBefore="0" mediaItemID="471" duration="0.040000000000000001">
      <Effects />
      <Transitions />
      <BoundProperties>
        <BoundPropertyInt Name="rotateStepNinety" Value="0" />
      </BoundProperties>
    </ImageClip>
    <ImageClip extentID="2103" gapBefore="0" mediaItemID="2099" duration="0.040000000000000001">
      <Effects />
      <Transitions />
      <BoundProperties>
        <BoundPropertyInt Name="rotateStepNinety" Value="0" />
      </BoundProperties>
    </ImageClip>
    <ImageClip extentID="476" gapBefore="0" mediaItemID="472" duration="0.040000000000000001">
      <Effects />
      <Transitions />
      <BoundProperties>
        <BoundPropertyInt Name="rotateStepNinety" Value="0" />
      </BoundProperties>
    </ImageClip>
    <ImageClip extentID="2104" gapBefore="0" mediaItemID="2100" duration="0.040000000000000001">
      <Effects />
      <Transitions />
      <BoundProperties>
        <BoundPropertyInt Name="rotateStepNinety" Value="0" />
      </BoundProperties>
    </ImageClip>
    <ImageClip extentID="477" gapBefore="0" mediaItemID="473" duration="0.040000000000000001">
      <Effects />
      <Transitions />
      <BoundProperties>
        <BoundPropertyInt Name="rotateStepNinety" Value="0" />
      </BoundProperties>
    </ImageClip>
    <ImageClip extentID="2105" gapBefore="0" mediaItemID="2101" duration="0.040000000000000001">
      <Effects />
      <Transitions />
      <BoundProperties>
        <BoundPropertyInt Name="rotateStepNinety" Value="0" />
      </BoundProperties>
    </ImageClip>
    <ImageClip extentID="478" gapBefore="0" mediaItemID="474" duration="0.040000000000000001">
      <Effects />
      <Transitions />
      <BoundProperties>
        <BoundPropertyInt Name="rotateStepNinety" Value="0" />
      </BoundProperties>
    </ImageClip>
    <ImageClip extentID="479" gapBefore="0" mediaItemID="475" duration="0.040000000000000001">
      <Effects />
      <Transitions />
      <BoundProperties>
        <BoundPropertyInt Name="rotateStepNinety" Value="0" />
      </BoundProperties>
    </ImageClip>
    <ImageClip extentID="480" gapBefore="0" mediaItemID="476" duration="0.040000000000000001">
      <Effects />
      <Transitions />
      <BoundProperties>
        <BoundPropertyInt Name="rotateStepNinety" Value="0" />
      </BoundProperties>
    </ImageClip>
    <ImageClip extentID="481" gapBefore="0" mediaItemID="477" duration="0.040000000000000001">
      <Effects />
      <Transitions />
      <BoundProperties>
        <BoundPropertyInt Name="rotateStepNinety" Value="0" />
      </BoundProperties>
    </ImageClip>
    <ImageClip extentID="482" gapBefore="0" mediaItemID="478" duration="0.040000000000000001">
      <Effects />
      <Transitions />
      <BoundProperties>
        <BoundPropertyInt Name="rotateStepNinety" Value="0" />
      </BoundProperties>
    </ImageClip>
    <AudioClip extentID="2110" gapBefore="0" mediaItemID="2102" inTime="0" outTime="0" speed="1">
      <Effects />
      <Transitions />
      <BoundProperties>
        <BoundPropertyBool Name="Mute" Value="false" />
        <BoundPropertyFloat Name="Volume" Value="1" />
      </BoundProperties>
    </AudioClip>
    <ImageClip extentID="483" gapBefore="0" mediaItemID="479" duration="0.040000000000000001">
      <Effects />
      <Transitions />
      <BoundProperties>
        <BoundPropertyInt Name="rotateStepNinety" Value="0" />
      </BoundProperties>
    </ImageClip>
    <ImageClip extentID="484" gapBefore="0" mediaItemID="480" duration="0.040000000000000001">
      <Effects />
      <Transitions />
      <BoundProperties>
        <BoundPropertyInt Name="rotateStepNinety" Value="0" />
      </BoundProperties>
    </ImageClip>
    <ImageClip extentID="485" gapBefore="0" mediaItemID="481" duration="0.040000000000000001">
      <Effects />
      <Transitions />
      <BoundProperties>
        <BoundPropertyInt Name="rotateStepNinety" Value="0" />
      </BoundProperties>
    </ImageClip>
    <ImageClip extentID="486" gapBefore="0" mediaItemID="482" duration="0.040000000000000001">
      <Effects />
      <Transitions />
      <BoundProperties>
        <BoundPropertyInt Name="rotateStepNinety" Value="0" />
      </BoundProperties>
    </ImageClip>
    <ImageClip extentID="487" gapBefore="0" mediaItemID="483" duration="0.040000000000000001">
      <Effects />
      <Transitions />
      <BoundProperties>
        <BoundPropertyInt Name="rotateStepNinety" Value="0" />
      </BoundProperties>
    </ImageClip>
    <ImageClip extentID="488" gapBefore="0" mediaItemID="484" duration="0.040000000000000001">
      <Effects />
      <Transitions />
      <BoundProperties>
        <BoundPropertyInt Name="rotateStepNinety" Value="0" />
      </BoundProperties>
    </ImageClip>
    <ImageClip extentID="489" gapBefore="0" mediaItemID="485" duration="0.040000000000000001">
      <Effects />
      <Transitions />
      <BoundProperties>
        <BoundPropertyInt Name="rotateStepNinety" Value="0" />
      </BoundProperties>
    </ImageClip>
    <ImageClip extentID="490" gapBefore="0" mediaItemID="486" duration="0.040000000000000001">
      <Effects />
      <Transitions />
      <BoundProperties>
        <BoundPropertyInt Name="rotateStepNinety" Value="0" />
      </BoundProperties>
    </ImageClip>
    <ImageClip extentID="491" gapBefore="0" mediaItemID="487" duration="0.040000000000000001">
      <Effects />
      <Transitions />
      <BoundProperties>
        <BoundPropertyInt Name="rotateStepNinety" Value="0" />
      </BoundProperties>
    </ImageClip>
    <ImageClip extentID="492" gapBefore="0" mediaItemID="488" duration="0.040000000000000001">
      <Effects />
      <Transitions />
      <BoundProperties>
        <BoundPropertyInt Name="rotateStepNinety" Value="0" />
      </BoundProperties>
    </ImageClip>
    <ImageClip extentID="493" gapBefore="0" mediaItemID="489" duration="0.040000000000000001">
      <Effects />
      <Transitions />
      <BoundProperties>
        <BoundPropertyInt Name="rotateStepNinety" Value="0" />
      </BoundProperties>
    </ImageClip>
    <ImageClip extentID="494" gapBefore="0" mediaItemID="490" duration="0.040000000000000001">
      <Effects />
      <Transitions />
      <BoundProperties>
        <BoundPropertyInt Name="rotateStepNinety" Value="0" />
      </BoundProperties>
    </ImageClip>
    <ImageClip extentID="495" gapBefore="0" mediaItemID="491" duration="0.040000000000000001">
      <Effects />
      <Transitions />
      <BoundProperties>
        <BoundPropertyInt Name="rotateStepNinety" Value="0" />
      </BoundProperties>
    </ImageClip>
    <ImageClip extentID="496" gapBefore="0" mediaItemID="492" duration="0.040000000000000001">
      <Effects />
      <Transitions />
      <BoundProperties>
        <BoundPropertyInt Name="rotateStepNinety" Value="0" />
      </BoundProperties>
    </ImageClip>
    <ImageClip extentID="497" gapBefore="0" mediaItemID="493" duration="0.040000000000000001">
      <Effects />
      <Transitions />
      <BoundProperties>
        <BoundPropertyInt Name="rotateStepNinety" Value="0" />
      </BoundProperties>
    </ImageClip>
    <ImageClip extentID="498" gapBefore="0" mediaItemID="494" duration="0.040000000000000001">
      <Effects />
      <Transitions />
      <BoundProperties>
        <BoundPropertyInt Name="rotateStepNinety" Value="0" />
      </BoundProperties>
    </ImageClip>
    <ImageClip extentID="499" gapBefore="0" mediaItemID="495" duration="0.040000000000000001">
      <Effects />
      <Transitions />
      <BoundProperties>
        <BoundPropertyInt Name="rotateStepNinety" Value="0" />
      </BoundProperties>
    </ImageClip>
    <ImageClip extentID="500" gapBefore="0" mediaItemID="496" duration="0.040000000000000001">
      <Effects />
      <Transitions />
      <BoundProperties>
        <BoundPropertyInt Name="rotateStepNinety" Value="0" />
      </BoundProperties>
    </ImageClip>
    <ImageClip extentID="501" gapBefore="0" mediaItemID="497" duration="0.040000000000000001">
      <Effects />
      <Transitions />
      <BoundProperties>
        <BoundPropertyInt Name="rotateStepNinety" Value="0" />
      </BoundProperties>
    </ImageClip>
    <ImageClip extentID="502" gapBefore="0" mediaItemID="498" duration="0.040000000000000001">
      <Effects />
      <Transitions />
      <BoundProperties>
        <BoundPropertyInt Name="rotateStepNinety" Value="0" />
      </BoundProperties>
    </ImageClip>
    <ImageClip extentID="503" gapBefore="0" mediaItemID="499" duration="0.040000000000000001">
      <Effects />
      <Transitions />
      <BoundProperties>
        <BoundPropertyInt Name="rotateStepNinety" Value="0" />
      </BoundProperties>
    </ImageClip>
    <ImageClip extentID="504" gapBefore="0" mediaItemID="500" duration="0.040000000000000001">
      <Effects />
      <Transitions />
      <BoundProperties>
        <BoundPropertyInt Name="rotateStepNinety" Value="0" />
      </BoundProperties>
    </ImageClip>
    <ImageClip extentID="505" gapBefore="0" mediaItemID="501" duration="0.040000000000000001">
      <Effects />
      <Transitions />
      <BoundProperties>
        <BoundPropertyInt Name="rotateStepNinety" Value="0" />
      </BoundProperties>
    </ImageClip>
    <ImageClip extentID="506" gapBefore="0" mediaItemID="502" duration="0.040000000000000001">
      <Effects />
      <Transitions />
      <BoundProperties>
        <BoundPropertyInt Name="rotateStepNinety" Value="0" />
      </BoundProperties>
    </ImageClip>
    <ImageClip extentID="507" gapBefore="0" mediaItemID="503" duration="0.040000000000000001">
      <Effects />
      <Transitions />
      <BoundProperties>
        <BoundPropertyInt Name="rotateStepNinety" Value="0" />
      </BoundProperties>
    </ImageClip>
    <ImageClip extentID="508" gapBefore="0" mediaItemID="504" duration="0.040000000000000001">
      <Effects />
      <Transitions />
      <BoundProperties>
        <BoundPropertyInt Name="rotateStepNinety" Value="0" />
      </BoundProperties>
    </ImageClip>
    <ImageClip extentID="509" gapBefore="0" mediaItemID="505" duration="0.040000000000000001">
      <Effects />
      <Transitions />
      <BoundProperties>
        <BoundPropertyInt Name="rotateStepNinety" Value="0" />
      </BoundProperties>
    </ImageClip>
    <ImageClip extentID="510" gapBefore="0" mediaItemID="506" duration="0.040000000000000001">
      <Effects />
      <Transitions />
      <BoundProperties>
        <BoundPropertyInt Name="rotateStepNinety" Value="0" />
      </BoundProperties>
    </ImageClip>
    <ImageClip extentID="511" gapBefore="0" mediaItemID="507" duration="0.040000000000000001">
      <Effects />
      <Transitions />
      <BoundProperties>
        <BoundPropertyInt Name="rotateStepNinety" Value="0" />
      </BoundProperties>
    </ImageClip>
    <ImageClip extentID="512" gapBefore="0" mediaItemID="508" duration="0.040000000000000001">
      <Effects />
      <Transitions />
      <BoundProperties>
        <BoundPropertyInt Name="rotateStepNinety" Value="0" />
      </BoundProperties>
    </ImageClip>
    <ImageClip extentID="513" gapBefore="0" mediaItemID="509" duration="0.040000000000000001">
      <Effects />
      <Transitions />
      <BoundProperties>
        <BoundPropertyInt Name="rotateStepNinety" Value="0" />
      </BoundProperties>
    </ImageClip>
    <ImageClip extentID="514" gapBefore="0" mediaItemID="510" duration="0.040000000000000001">
      <Effects />
      <Transitions />
      <BoundProperties>
        <BoundPropertyInt Name="rotateStepNinety" Value="0" />
      </BoundProperties>
    </ImageClip>
    <ImageClip extentID="515" gapBefore="0" mediaItemID="511" duration="0.040000000000000001">
      <Effects />
      <Transitions />
      <BoundProperties>
        <BoundPropertyInt Name="rotateStepNinety" Value="0" />
      </BoundProperties>
    </ImageClip>
    <ImageClip extentID="516" gapBefore="0" mediaItemID="512" duration="0.040000000000000001">
      <Effects />
      <Transitions />
      <BoundProperties>
        <BoundPropertyInt Name="rotateStepNinety" Value="0" />
      </BoundProperties>
    </ImageClip>
    <ImageClip extentID="517" gapBefore="0" mediaItemID="513" duration="0.040000000000000001">
      <Effects />
      <Transitions />
      <BoundProperties>
        <BoundPropertyInt Name="rotateStepNinety" Value="0" />
      </BoundProperties>
    </ImageClip>
    <ImageClip extentID="518" gapBefore="0" mediaItemID="514" duration="0.040000000000000001">
      <Effects />
      <Transitions />
      <BoundProperties>
        <BoundPropertyInt Name="rotateStepNinety" Value="0" />
      </BoundProperties>
    </ImageClip>
    <ImageClip extentID="519" gapBefore="0" mediaItemID="515" duration="0.040000000000000001">
      <Effects />
      <Transitions />
      <BoundProperties>
        <BoundPropertyInt Name="rotateStepNinety" Value="0" />
      </BoundProperties>
    </ImageClip>
    <ImageClip extentID="520" gapBefore="0" mediaItemID="516" duration="0.040000000000000001">
      <Effects />
      <Transitions />
      <BoundProperties>
        <BoundPropertyInt Name="rotateStepNinety" Value="0" />
      </BoundProperties>
    </ImageClip>
    <ImageClip extentID="521" gapBefore="0" mediaItemID="517" duration="0.040000000000000001">
      <Effects />
      <Transitions />
      <BoundProperties>
        <BoundPropertyInt Name="rotateStepNinety" Value="0" />
      </BoundProperties>
    </ImageClip>
    <ImageClip extentID="522" gapBefore="0" mediaItemID="518" duration="0.040000000000000001">
      <Effects />
      <Transitions />
      <BoundProperties>
        <BoundPropertyInt Name="rotateStepNinety" Value="0" />
      </BoundProperties>
    </ImageClip>
    <ImageClip extentID="523" gapBefore="0" mediaItemID="519" duration="0.040000000000000001">
      <Effects />
      <Transitions />
      <BoundProperties>
        <BoundPropertyInt Name="rotateStepNinety" Value="0" />
      </BoundProperties>
    </ImageClip>
    <ImageClip extentID="524" gapBefore="0" mediaItemID="520" duration="0.040000000000000001">
      <Effects />
      <Transitions />
      <BoundProperties>
        <BoundPropertyInt Name="rotateStepNinety" Value="0" />
      </BoundProperties>
    </ImageClip>
    <ImageClip extentID="525" gapBefore="0" mediaItemID="521" duration="0.040000000000000001">
      <Effects />
      <Transitions />
      <BoundProperties>
        <BoundPropertyInt Name="rotateStepNinety" Value="0" />
      </BoundProperties>
    </ImageClip>
    <ImageClip extentID="526" gapBefore="0" mediaItemID="522" duration="0.040000000000000001">
      <Effects />
      <Transitions />
      <BoundProperties>
        <BoundPropertyInt Name="rotateStepNinety" Value="0" />
      </BoundProperties>
    </ImageClip>
    <ImageClip extentID="527" gapBefore="0" mediaItemID="523" duration="0.040000000000000001">
      <Effects />
      <Transitions />
      <BoundProperties>
        <BoundPropertyInt Name="rotateStepNinety" Value="0" />
      </BoundProperties>
    </ImageClip>
    <ImageClip extentID="528" gapBefore="0" mediaItemID="524" duration="0.040000000000000001">
      <Effects />
      <Transitions />
      <BoundProperties>
        <BoundPropertyInt Name="rotateStepNinety" Value="0" />
      </BoundProperties>
    </ImageClip>
    <ImageClip extentID="529" gapBefore="0" mediaItemID="525" duration="0.040000000000000001">
      <Effects />
      <Transitions />
      <BoundProperties>
        <BoundPropertyInt Name="rotateStepNinety" Value="0" />
      </BoundProperties>
    </ImageClip>
    <ImageClip extentID="530" gapBefore="0" mediaItemID="526" duration="0.040000000000000001">
      <Effects />
      <Transitions />
      <BoundProperties>
        <BoundPropertyInt Name="rotateStepNinety" Value="0" />
      </BoundProperties>
    </ImageClip>
    <ImageClip extentID="531" gapBefore="0" mediaItemID="527" duration="0.040000000000000001">
      <Effects />
      <Transitions />
      <BoundProperties>
        <BoundPropertyInt Name="rotateStepNinety" Value="0" />
      </BoundProperties>
    </ImageClip>
    <ImageClip extentID="532" gapBefore="0" mediaItemID="528" duration="0.040000000000000001">
      <Effects />
      <Transitions />
      <BoundProperties>
        <BoundPropertyInt Name="rotateStepNinety" Value="0" />
      </BoundProperties>
    </ImageClip>
    <ImageClip extentID="533" gapBefore="0" mediaItemID="529" duration="0.040000000000000001">
      <Effects />
      <Transitions />
      <BoundProperties>
        <BoundPropertyInt Name="rotateStepNinety" Value="0" />
      </BoundProperties>
    </ImageClip>
    <ImageClip extentID="534" gapBefore="0" mediaItemID="530" duration="0.040000000000000001">
      <Effects />
      <Transitions />
      <BoundProperties>
        <BoundPropertyInt Name="rotateStepNinety" Value="0" />
      </BoundProperties>
    </ImageClip>
    <ImageClip extentID="535" gapBefore="0" mediaItemID="531" duration="0.040000000000000001">
      <Effects />
      <Transitions />
      <BoundProperties>
        <BoundPropertyInt Name="rotateStepNinety" Value="0" />
      </BoundProperties>
    </ImageClip>
    <ImageClip extentID="536" gapBefore="0" mediaItemID="532" duration="0.040000000000000001">
      <Effects />
      <Transitions />
      <BoundProperties>
        <BoundPropertyInt Name="rotateStepNinety" Value="0" />
      </BoundProperties>
    </ImageClip>
    <ImageClip extentID="537" gapBefore="0" mediaItemID="533" duration="0.040000000000000001">
      <Effects />
      <Transitions />
      <BoundProperties>
        <BoundPropertyInt Name="rotateStepNinety" Value="0" />
      </BoundProperties>
    </ImageClip>
    <ImageClip extentID="538" gapBefore="0" mediaItemID="534" duration="0.040000000000000001">
      <Effects />
      <Transitions />
      <BoundProperties>
        <BoundPropertyInt Name="rotateStepNinety" Value="0" />
      </BoundProperties>
    </ImageClip>
    <ImageClip extentID="539" gapBefore="0" mediaItemID="535" duration="0.040000000000000001">
      <Effects />
      <Transitions />
      <BoundProperties>
        <BoundPropertyInt Name="rotateStepNinety" Value="0" />
      </BoundProperties>
    </ImageClip>
    <ImageClip extentID="540" gapBefore="0" mediaItemID="536" duration="0.040000000000000001">
      <Effects />
      <Transitions />
      <BoundProperties>
        <BoundPropertyInt Name="rotateStepNinety" Value="0" />
      </BoundProperties>
    </ImageClip>
    <ImageClip extentID="541" gapBefore="0" mediaItemID="537" duration="0.040000000000000001">
      <Effects />
      <Transitions />
      <BoundProperties>
        <BoundPropertyInt Name="rotateStepNinety" Value="0" />
      </BoundProperties>
    </ImageClip>
    <ImageClip extentID="542" gapBefore="0" mediaItemID="538" duration="0.040000000000000001">
      <Effects />
      <Transitions />
      <BoundProperties>
        <BoundPropertyInt Name="rotateStepNinety" Value="0" />
      </BoundProperties>
    </ImageClip>
    <ImageClip extentID="543" gapBefore="0" mediaItemID="539" duration="0.040000000000000001">
      <Effects />
      <Transitions />
      <BoundProperties>
        <BoundPropertyInt Name="rotateStepNinety" Value="0" />
      </BoundProperties>
    </ImageClip>
    <ImageClip extentID="544" gapBefore="0" mediaItemID="540" duration="0.040000000000000001">
      <Effects />
      <Transitions />
      <BoundProperties>
        <BoundPropertyInt Name="rotateStepNinety" Value="0" />
      </BoundProperties>
    </ImageClip>
    <ImageClip extentID="545" gapBefore="0" mediaItemID="541" duration="0.040000000000000001">
      <Effects />
      <Transitions />
      <BoundProperties>
        <BoundPropertyInt Name="rotateStepNinety" Value="0" />
      </BoundProperties>
    </ImageClip>
    <ImageClip extentID="546" gapBefore="0" mediaItemID="542" duration="0.040000000000000001">
      <Effects />
      <Transitions />
      <BoundProperties>
        <BoundPropertyInt Name="rotateStepNinety" Value="0" />
      </BoundProperties>
    </ImageClip>
    <ImageClip extentID="547" gapBefore="0" mediaItemID="543" duration="0.040000000000000001">
      <Effects />
      <Transitions />
      <BoundProperties>
        <BoundPropertyInt Name="rotateStepNinety" Value="0" />
      </BoundProperties>
    </ImageClip>
    <ImageClip extentID="548" gapBefore="0" mediaItemID="544" duration="0.040000000000000001">
      <Effects />
      <Transitions />
      <BoundProperties>
        <BoundPropertyInt Name="rotateStepNinety" Value="0" />
      </BoundProperties>
    </ImageClip>
    <ImageClip extentID="549" gapBefore="0" mediaItemID="545" duration="0.040000000000000001">
      <Effects />
      <Transitions />
      <BoundProperties>
        <BoundPropertyInt Name="rotateStepNinety" Value="0" />
      </BoundProperties>
    </ImageClip>
    <ImageClip extentID="550" gapBefore="0" mediaItemID="546" duration="0.040000000000000001">
      <Effects />
      <Transitions />
      <BoundProperties>
        <BoundPropertyInt Name="rotateStepNinety" Value="0" />
      </BoundProperties>
    </ImageClip>
    <ImageClip extentID="551" gapBefore="0" mediaItemID="547" duration="0.040000000000000001">
      <Effects />
      <Transitions />
      <BoundProperties>
        <BoundPropertyInt Name="rotateStepNinety" Value="0" />
      </BoundProperties>
    </ImageClip>
    <ImageClip extentID="552" gapBefore="0" mediaItemID="548" duration="0.040000000000000001">
      <Effects />
      <Transitions />
      <BoundProperties>
        <BoundPropertyInt Name="rotateStepNinety" Value="0" />
      </BoundProperties>
    </ImageClip>
    <ImageClip extentID="553" gapBefore="0" mediaItemID="549" duration="0.040000000000000001">
      <Effects />
      <Transitions />
      <BoundProperties>
        <BoundPropertyInt Name="rotateStepNinety" Value="0" />
      </BoundProperties>
    </ImageClip>
    <ImageClip extentID="554" gapBefore="0" mediaItemID="550" duration="0.040000000000000001">
      <Effects />
      <Transitions />
      <BoundProperties>
        <BoundPropertyInt Name="rotateStepNinety" Value="0" />
      </BoundProperties>
    </ImageClip>
    <ImageClip extentID="555" gapBefore="0" mediaItemID="551" duration="0.040000000000000001">
      <Effects />
      <Transitions />
      <BoundProperties>
        <BoundPropertyInt Name="rotateStepNinety" Value="0" />
      </BoundProperties>
    </ImageClip>
    <ImageClip extentID="556" gapBefore="0" mediaItemID="552" duration="0.040000000000000001">
      <Effects />
      <Transitions />
      <BoundProperties>
        <BoundPropertyInt Name="rotateStepNinety" Value="0" />
      </BoundProperties>
    </ImageClip>
    <ImageClip extentID="557" gapBefore="0" mediaItemID="553" duration="0.040000000000000001">
      <Effects />
      <Transitions />
      <BoundProperties>
        <BoundPropertyInt Name="rotateStepNinety" Value="0" />
      </BoundProperties>
    </ImageClip>
    <ImageClip extentID="558" gapBefore="0" mediaItemID="554" duration="0.040000000000000001">
      <Effects />
      <Transitions />
      <BoundProperties>
        <BoundPropertyInt Name="rotateStepNinety" Value="0" />
      </BoundProperties>
    </ImageClip>
    <ImageClip extentID="559" gapBefore="0" mediaItemID="555" duration="0.040000000000000001">
      <Effects />
      <Transitions />
      <BoundProperties>
        <BoundPropertyInt Name="rotateStepNinety" Value="0" />
      </BoundProperties>
    </ImageClip>
    <ImageClip extentID="560" gapBefore="0" mediaItemID="556" duration="0.040000000000000001">
      <Effects />
      <Transitions />
      <BoundProperties>
        <BoundPropertyInt Name="rotateStepNinety" Value="0" />
      </BoundProperties>
    </ImageClip>
    <ImageClip extentID="561" gapBefore="0" mediaItemID="557" duration="0.040000000000000001">
      <Effects />
      <Transitions />
      <BoundProperties>
        <BoundPropertyInt Name="rotateStepNinety" Value="0" />
      </BoundProperties>
    </ImageClip>
    <ImageClip extentID="562" gapBefore="0" mediaItemID="558" duration="0.040000000000000001">
      <Effects />
      <Transitions />
      <BoundProperties>
        <BoundPropertyInt Name="rotateStepNinety" Value="0" />
      </BoundProperties>
    </ImageClip>
    <ImageClip extentID="563" gapBefore="0" mediaItemID="559" duration="0.040000000000000001">
      <Effects />
      <Transitions />
      <BoundProperties>
        <BoundPropertyInt Name="rotateStepNinety" Value="0" />
      </BoundProperties>
    </ImageClip>
    <ImageClip extentID="564" gapBefore="0" mediaItemID="560" duration="0.040000000000000001">
      <Effects />
      <Transitions />
      <BoundProperties>
        <BoundPropertyInt Name="rotateStepNinety" Value="0" />
      </BoundProperties>
    </ImageClip>
    <ImageClip extentID="565" gapBefore="0" mediaItemID="561" duration="0.040000000000000001">
      <Effects />
      <Transitions />
      <BoundProperties>
        <BoundPropertyInt Name="rotateStepNinety" Value="0" />
      </BoundProperties>
    </ImageClip>
    <ImageClip extentID="566" gapBefore="0" mediaItemID="562" duration="0.040000000000000001">
      <Effects />
      <Transitions />
      <BoundProperties>
        <BoundPropertyInt Name="rotateStepNinety" Value="0" />
      </BoundProperties>
    </ImageClip>
    <ImageClip extentID="567" gapBefore="0" mediaItemID="563" duration="0.040000000000000001">
      <Effects />
      <Transitions />
      <BoundProperties>
        <BoundPropertyInt Name="rotateStepNinety" Value="0" />
      </BoundProperties>
    </ImageClip>
    <ImageClip extentID="568" gapBefore="0" mediaItemID="564" duration="0.040000000000000001">
      <Effects />
      <Transitions />
      <BoundProperties>
        <BoundPropertyInt Name="rotateStepNinety" Value="0" />
      </BoundProperties>
    </ImageClip>
    <ImageClip extentID="569" gapBefore="0" mediaItemID="565" duration="0.040000000000000001">
      <Effects />
      <Transitions />
      <BoundProperties>
        <BoundPropertyInt Name="rotateStepNinety" Value="0" />
      </BoundProperties>
    </ImageClip>
    <ImageClip extentID="570" gapBefore="0" mediaItemID="566" duration="0.040000000000000001">
      <Effects />
      <Transitions />
      <BoundProperties>
        <BoundPropertyInt Name="rotateStepNinety" Value="0" />
      </BoundProperties>
    </ImageClip>
    <ImageClip extentID="571" gapBefore="0" mediaItemID="567" duration="0.040000000000000001">
      <Effects />
      <Transitions />
      <BoundProperties>
        <BoundPropertyInt Name="rotateStepNinety" Value="0" />
      </BoundProperties>
    </ImageClip>
    <ImageClip extentID="572" gapBefore="0" mediaItemID="568" duration="0.040000000000000001">
      <Effects />
      <Transitions />
      <BoundProperties>
        <BoundPropertyInt Name="rotateStepNinety" Value="0" />
      </BoundProperties>
    </ImageClip>
    <ImageClip extentID="573" gapBefore="0" mediaItemID="569" duration="0.040000000000000001">
      <Effects />
      <Transitions />
      <BoundProperties>
        <BoundPropertyInt Name="rotateStepNinety" Value="0" />
      </BoundProperties>
    </ImageClip>
    <ImageClip extentID="574" gapBefore="0" mediaItemID="570" duration="0.040000000000000001">
      <Effects />
      <Transitions />
      <BoundProperties>
        <BoundPropertyInt Name="rotateStepNinety" Value="0" />
      </BoundProperties>
    </ImageClip>
    <ImageClip extentID="575" gapBefore="0" mediaItemID="571" duration="0.040000000000000001">
      <Effects />
      <Transitions />
      <BoundProperties>
        <BoundPropertyInt Name="rotateStepNinety" Value="0" />
      </BoundProperties>
    </ImageClip>
    <ImageClip extentID="576" gapBefore="0" mediaItemID="572" duration="0.040000000000000001">
      <Effects />
      <Transitions />
      <BoundProperties>
        <BoundPropertyInt Name="rotateStepNinety" Value="0" />
      </BoundProperties>
    </ImageClip>
    <ImageClip extentID="577" gapBefore="0" mediaItemID="573" duration="0.040000000000000001">
      <Effects />
      <Transitions />
      <BoundProperties>
        <BoundPropertyInt Name="rotateStepNinety" Value="0" />
      </BoundProperties>
    </ImageClip>
    <ImageClip extentID="578" gapBefore="0" mediaItemID="574" duration="0.040000000000000001">
      <Effects />
      <Transitions />
      <BoundProperties>
        <BoundPropertyInt Name="rotateStepNinety" Value="0" />
      </BoundProperties>
    </ImageClip>
    <ImageClip extentID="579" gapBefore="0" mediaItemID="575" duration="0.040000000000000001">
      <Effects />
      <Transitions />
      <BoundProperties>
        <BoundPropertyInt Name="rotateStepNinety" Value="0" />
      </BoundProperties>
    </ImageClip>
    <ImageClip extentID="580" gapBefore="0" mediaItemID="576" duration="0.040000000000000001">
      <Effects />
      <Transitions />
      <BoundProperties>
        <BoundPropertyInt Name="rotateStepNinety" Value="0" />
      </BoundProperties>
    </ImageClip>
    <ImageClip extentID="581" gapBefore="0" mediaItemID="577" duration="0.040000000000000001">
      <Effects />
      <Transitions />
      <BoundProperties>
        <BoundPropertyInt Name="rotateStepNinety" Value="0" />
      </BoundProperties>
    </ImageClip>
    <ImageClip extentID="582" gapBefore="0" mediaItemID="578" duration="0.040000000000000001">
      <Effects />
      <Transitions />
      <BoundProperties>
        <BoundPropertyInt Name="rotateStepNinety" Value="0" />
      </BoundProperties>
    </ImageClip>
    <ImageClip extentID="583" gapBefore="0" mediaItemID="579" duration="0.040000000000000001">
      <Effects />
      <Transitions />
      <BoundProperties>
        <BoundPropertyInt Name="rotateStepNinety" Value="0" />
      </BoundProperties>
    </ImageClip>
    <ImageClip extentID="584" gapBefore="0" mediaItemID="580" duration="0.040000000000000001">
      <Effects />
      <Transitions />
      <BoundProperties>
        <BoundPropertyInt Name="rotateStepNinety" Value="0" />
      </BoundProperties>
    </ImageClip>
    <ImageClip extentID="585" gapBefore="0" mediaItemID="581" duration="0.040000000000000001">
      <Effects />
      <Transitions />
      <BoundProperties>
        <BoundPropertyInt Name="rotateStepNinety" Value="0" />
      </BoundProperties>
    </ImageClip>
    <ImageClip extentID="586" gapBefore="0" mediaItemID="582" duration="0.040000000000000001">
      <Effects />
      <Transitions />
      <BoundProperties>
        <BoundPropertyInt Name="rotateStepNinety" Value="0" />
      </BoundProperties>
    </ImageClip>
    <ImageClip extentID="587" gapBefore="0" mediaItemID="583" duration="0.040000000000000001">
      <Effects />
      <Transitions />
      <BoundProperties>
        <BoundPropertyInt Name="rotateStepNinety" Value="0" />
      </BoundProperties>
    </ImageClip>
    <ImageClip extentID="588" gapBefore="0" mediaItemID="584" duration="0.040000000000000001">
      <Effects />
      <Transitions />
      <BoundProperties>
        <BoundPropertyInt Name="rotateStepNinety" Value="0" />
      </BoundProperties>
    </ImageClip>
    <ImageClip extentID="589" gapBefore="0" mediaItemID="585" duration="0.040000000000000001">
      <Effects />
      <Transitions />
      <BoundProperties>
        <BoundPropertyInt Name="rotateStepNinety" Value="0" />
      </BoundProperties>
    </ImageClip>
    <ImageClip extentID="590" gapBefore="0" mediaItemID="586" duration="0.040000000000000001">
      <Effects />
      <Transitions />
      <BoundProperties>
        <BoundPropertyInt Name="rotateStepNinety" Value="0" />
      </BoundProperties>
    </ImageClip>
    <ImageClip extentID="591" gapBefore="0" mediaItemID="587" duration="0.040000000000000001">
      <Effects />
      <Transitions />
      <BoundProperties>
        <BoundPropertyInt Name="rotateStepNinety" Value="0" />
      </BoundProperties>
    </ImageClip>
    <ImageClip extentID="592" gapBefore="0" mediaItemID="588" duration="0.040000000000000001">
      <Effects />
      <Transitions />
      <BoundProperties>
        <BoundPropertyInt Name="rotateStepNinety" Value="0" />
      </BoundProperties>
    </ImageClip>
    <ImageClip extentID="593" gapBefore="0" mediaItemID="589" duration="0.040000000000000001">
      <Effects />
      <Transitions />
      <BoundProperties>
        <BoundPropertyInt Name="rotateStepNinety" Value="0" />
      </BoundProperties>
    </ImageClip>
    <ImageClip extentID="594" gapBefore="0" mediaItemID="590" duration="0.040000000000000001">
      <Effects />
      <Transitions />
      <BoundProperties>
        <BoundPropertyInt Name="rotateStepNinety" Value="0" />
      </BoundProperties>
    </ImageClip>
    <ImageClip extentID="595" gapBefore="0" mediaItemID="591" duration="0.040000000000000001">
      <Effects />
      <Transitions />
      <BoundProperties>
        <BoundPropertyInt Name="rotateStepNinety" Value="0" />
      </BoundProperties>
    </ImageClip>
    <ImageClip extentID="596" gapBefore="0" mediaItemID="592" duration="0.040000000000000001">
      <Effects />
      <Transitions />
      <BoundProperties>
        <BoundPropertyInt Name="rotateStepNinety" Value="0" />
      </BoundProperties>
    </ImageClip>
    <ImageClip extentID="597" gapBefore="0" mediaItemID="593" duration="0.040000000000000001">
      <Effects />
      <Transitions />
      <BoundProperties>
        <BoundPropertyInt Name="rotateStepNinety" Value="0" />
      </BoundProperties>
    </ImageClip>
    <ImageClip extentID="598" gapBefore="0" mediaItemID="594" duration="0.040000000000000001">
      <Effects />
      <Transitions />
      <BoundProperties>
        <BoundPropertyInt Name="rotateStepNinety" Value="0" />
      </BoundProperties>
    </ImageClip>
    <ImageClip extentID="599" gapBefore="0" mediaItemID="595" duration="0.040000000000000001">
      <Effects />
      <Transitions />
      <BoundProperties>
        <BoundPropertyInt Name="rotateStepNinety" Value="0" />
      </BoundProperties>
    </ImageClip>
    <ImageClip extentID="600" gapBefore="0" mediaItemID="596" duration="0.040000000000000001">
      <Effects />
      <Transitions />
      <BoundProperties>
        <BoundPropertyInt Name="rotateStepNinety" Value="0" />
      </BoundProperties>
    </ImageClip>
    <ImageClip extentID="601" gapBefore="0" mediaItemID="597" duration="0.040000000000000001">
      <Effects />
      <Transitions />
      <BoundProperties>
        <BoundPropertyInt Name="rotateStepNinety" Value="0" />
      </BoundProperties>
    </ImageClip>
    <ImageClip extentID="602" gapBefore="0" mediaItemID="598" duration="0.040000000000000001">
      <Effects />
      <Transitions />
      <BoundProperties>
        <BoundPropertyInt Name="rotateStepNinety" Value="0" />
      </BoundProperties>
    </ImageClip>
    <ImageClip extentID="603" gapBefore="0" mediaItemID="599" duration="0.040000000000000001">
      <Effects />
      <Transitions />
      <BoundProperties>
        <BoundPropertyInt Name="rotateStepNinety" Value="0" />
      </BoundProperties>
    </ImageClip>
    <ImageClip extentID="604" gapBefore="0" mediaItemID="600" duration="0.040000000000000001">
      <Effects />
      <Transitions />
      <BoundProperties>
        <BoundPropertyInt Name="rotateStepNinety" Value="0" />
      </BoundProperties>
    </ImageClip>
    <ImageClip extentID="605" gapBefore="0" mediaItemID="601" duration="0.040000000000000001">
      <Effects />
      <Transitions />
      <BoundProperties>
        <BoundPropertyInt Name="rotateStepNinety" Value="0" />
      </BoundProperties>
    </ImageClip>
    <ImageClip extentID="606" gapBefore="0" mediaItemID="602" duration="0.040000000000000001">
      <Effects />
      <Transitions />
      <BoundProperties>
        <BoundPropertyInt Name="rotateStepNinety" Value="0" />
      </BoundProperties>
    </ImageClip>
    <ImageClip extentID="607" gapBefore="0" mediaItemID="603" duration="0.040000000000000001">
      <Effects />
      <Transitions />
      <BoundProperties>
        <BoundPropertyInt Name="rotateStepNinety" Value="0" />
      </BoundProperties>
    </ImageClip>
    <ImageClip extentID="608" gapBefore="0" mediaItemID="604" duration="0.040000000000000001">
      <Effects />
      <Transitions />
      <BoundProperties>
        <BoundPropertyInt Name="rotateStepNinety" Value="0" />
      </BoundProperties>
    </ImageClip>
    <ImageClip extentID="609" gapBefore="0" mediaItemID="605" duration="0.040000000000000001">
      <Effects />
      <Transitions />
      <BoundProperties>
        <BoundPropertyInt Name="rotateStepNinety" Value="0" />
      </BoundProperties>
    </ImageClip>
    <ImageClip extentID="610" gapBefore="0" mediaItemID="606" duration="0.040000000000000001">
      <Effects />
      <Transitions />
      <BoundProperties>
        <BoundPropertyInt Name="rotateStepNinety" Value="0" />
      </BoundProperties>
    </ImageClip>
    <ImageClip extentID="611" gapBefore="0" mediaItemID="607" duration="0.040000000000000001">
      <Effects />
      <Transitions />
      <BoundProperties>
        <BoundPropertyInt Name="rotateStepNinety" Value="0" />
      </BoundProperties>
    </ImageClip>
    <ImageClip extentID="612" gapBefore="0" mediaItemID="608" duration="0.040000000000000001">
      <Effects />
      <Transitions />
      <BoundProperties>
        <BoundPropertyInt Name="rotateStepNinety" Value="0" />
      </BoundProperties>
    </ImageClip>
    <ImageClip extentID="613" gapBefore="0" mediaItemID="609" duration="0.040000000000000001">
      <Effects />
      <Transitions />
      <BoundProperties>
        <BoundPropertyInt Name="rotateStepNinety" Value="0" />
      </BoundProperties>
    </ImageClip>
    <ImageClip extentID="614" gapBefore="0" mediaItemID="610" duration="0.040000000000000001">
      <Effects />
      <Transitions />
      <BoundProperties>
        <BoundPropertyInt Name="rotateStepNinety" Value="0" />
      </BoundProperties>
    </ImageClip>
    <ImageClip extentID="615" gapBefore="0" mediaItemID="611" duration="0.040000000000000001">
      <Effects />
      <Transitions />
      <BoundProperties>
        <BoundPropertyInt Name="rotateStepNinety" Value="0" />
      </BoundProperties>
    </ImageClip>
    <ImageClip extentID="616" gapBefore="0" mediaItemID="612" duration="0.040000000000000001">
      <Effects />
      <Transitions />
      <BoundProperties>
        <BoundPropertyInt Name="rotateStepNinety" Value="0" />
      </BoundProperties>
    </ImageClip>
    <ImageClip extentID="617" gapBefore="0" mediaItemID="613" duration="0.040000000000000001">
      <Effects />
      <Transitions />
      <BoundProperties>
        <BoundPropertyInt Name="rotateStepNinety" Value="0" />
      </BoundProperties>
    </ImageClip>
    <ImageClip extentID="618" gapBefore="0" mediaItemID="614" duration="0.040000000000000001">
      <Effects />
      <Transitions />
      <BoundProperties>
        <BoundPropertyInt Name="rotateStepNinety" Value="0" />
      </BoundProperties>
    </ImageClip>
    <ImageClip extentID="619" gapBefore="0" mediaItemID="615" duration="0.040000000000000001">
      <Effects />
      <Transitions />
      <BoundProperties>
        <BoundPropertyInt Name="rotateStepNinety" Value="0" />
      </BoundProperties>
    </ImageClip>
    <ImageClip extentID="620" gapBefore="0" mediaItemID="616" duration="0.040000000000000001">
      <Effects />
      <Transitions />
      <BoundProperties>
        <BoundPropertyInt Name="rotateStepNinety" Value="0" />
      </BoundProperties>
    </ImageClip>
    <ImageClip extentID="621" gapBefore="0" mediaItemID="617" duration="0.040000000000000001">
      <Effects />
      <Transitions />
      <BoundProperties>
        <BoundPropertyInt Name="rotateStepNinety" Value="0" />
      </BoundProperties>
    </ImageClip>
    <ImageClip extentID="622" gapBefore="0" mediaItemID="618" duration="0.040000000000000001">
      <Effects />
      <Transitions />
      <BoundProperties>
        <BoundPropertyInt Name="rotateStepNinety" Value="0" />
      </BoundProperties>
    </ImageClip>
    <ImageClip extentID="623" gapBefore="0" mediaItemID="619" duration="0.040000000000000001">
      <Effects />
      <Transitions />
      <BoundProperties>
        <BoundPropertyInt Name="rotateStepNinety" Value="0" />
      </BoundProperties>
    </ImageClip>
    <ImageClip extentID="624" gapBefore="0" mediaItemID="620" duration="0.040000000000000001">
      <Effects />
      <Transitions />
      <BoundProperties>
        <BoundPropertyInt Name="rotateStepNinety" Value="0" />
      </BoundProperties>
    </ImageClip>
    <ImageClip extentID="625" gapBefore="0" mediaItemID="621" duration="0.040000000000000001">
      <Effects />
      <Transitions />
      <BoundProperties>
        <BoundPropertyInt Name="rotateStepNinety" Value="0" />
      </BoundProperties>
    </ImageClip>
    <ImageClip extentID="626" gapBefore="0" mediaItemID="622" duration="0.040000000000000001">
      <Effects />
      <Transitions />
      <BoundProperties>
        <BoundPropertyInt Name="rotateStepNinety" Value="0" />
      </BoundProperties>
    </ImageClip>
    <ImageClip extentID="627" gapBefore="0" mediaItemID="623" duration="0.040000000000000001">
      <Effects />
      <Transitions />
      <BoundProperties>
        <BoundPropertyInt Name="rotateStepNinety" Value="0" />
      </BoundProperties>
    </ImageClip>
    <ImageClip extentID="628" gapBefore="0" mediaItemID="624" duration="0.040000000000000001">
      <Effects />
      <Transitions />
      <BoundProperties>
        <BoundPropertyInt Name="rotateStepNinety" Value="0" />
      </BoundProperties>
    </ImageClip>
    <ImageClip extentID="629" gapBefore="0" mediaItemID="625" duration="0.040000000000000001">
      <Effects />
      <Transitions />
      <BoundProperties>
        <BoundPropertyInt Name="rotateStepNinety" Value="0" />
      </BoundProperties>
    </ImageClip>
    <ImageClip extentID="630" gapBefore="0" mediaItemID="626" duration="0.040000000000000001">
      <Effects />
      <Transitions />
      <BoundProperties>
        <BoundPropertyInt Name="rotateStepNinety" Value="0" />
      </BoundProperties>
    </ImageClip>
    <ImageClip extentID="631" gapBefore="0" mediaItemID="627" duration="0.040000000000000001">
      <Effects />
      <Transitions />
      <BoundProperties>
        <BoundPropertyInt Name="rotateStepNinety" Value="0" />
      </BoundProperties>
    </ImageClip>
    <ImageClip extentID="632" gapBefore="0" mediaItemID="628" duration="0.040000000000000001">
      <Effects />
      <Transitions />
      <BoundProperties>
        <BoundPropertyInt Name="rotateStepNinety" Value="0" />
      </BoundProperties>
    </ImageClip>
    <ImageClip extentID="633" gapBefore="0" mediaItemID="629" duration="0.040000000000000001">
      <Effects />
      <Transitions />
      <BoundProperties>
        <BoundPropertyInt Name="rotateStepNinety" Value="0" />
      </BoundProperties>
    </ImageClip>
    <ImageClip extentID="634" gapBefore="0" mediaItemID="630" duration="0.040000000000000001">
      <Effects />
      <Transitions />
      <BoundProperties>
        <BoundPropertyInt Name="rotateStepNinety" Value="0" />
      </BoundProperties>
    </ImageClip>
    <ImageClip extentID="635" gapBefore="0" mediaItemID="631" duration="0.040000000000000001">
      <Effects />
      <Transitions />
      <BoundProperties>
        <BoundPropertyInt Name="rotateStepNinety" Value="0" />
      </BoundProperties>
    </ImageClip>
    <ImageClip extentID="636" gapBefore="0" mediaItemID="632" duration="0.040000000000000001">
      <Effects />
      <Transitions />
      <BoundProperties>
        <BoundPropertyInt Name="rotateStepNinety" Value="0" />
      </BoundProperties>
    </ImageClip>
    <ImageClip extentID="637" gapBefore="0" mediaItemID="633" duration="0.040000000000000001">
      <Effects />
      <Transitions />
      <BoundProperties>
        <BoundPropertyInt Name="rotateStepNinety" Value="0" />
      </BoundProperties>
    </ImageClip>
    <ImageClip extentID="638" gapBefore="0" mediaItemID="634" duration="0.040000000000000001">
      <Effects />
      <Transitions />
      <BoundProperties>
        <BoundPropertyInt Name="rotateStepNinety" Value="0" />
      </BoundProperties>
    </ImageClip>
    <ImageClip extentID="639" gapBefore="0" mediaItemID="635" duration="0.040000000000000001">
      <Effects />
      <Transitions />
      <BoundProperties>
        <BoundPropertyInt Name="rotateStepNinety" Value="0" />
      </BoundProperties>
    </ImageClip>
    <ImageClip extentID="640" gapBefore="0" mediaItemID="636" duration="0.040000000000000001">
      <Effects />
      <Transitions />
      <BoundProperties>
        <BoundPropertyInt Name="rotateStepNinety" Value="0" />
      </BoundProperties>
    </ImageClip>
    <ImageClip extentID="641" gapBefore="0" mediaItemID="637" duration="0.040000000000000001">
      <Effects />
      <Transitions />
      <BoundProperties>
        <BoundPropertyInt Name="rotateStepNinety" Value="0" />
      </BoundProperties>
    </ImageClip>
    <ImageClip extentID="642" gapBefore="0" mediaItemID="638" duration="0.040000000000000001">
      <Effects />
      <Transitions />
      <BoundProperties>
        <BoundPropertyInt Name="rotateStepNinety" Value="0" />
      </BoundProperties>
    </ImageClip>
    <ImageClip extentID="643" gapBefore="0" mediaItemID="639" duration="0.040000000000000001">
      <Effects />
      <Transitions />
      <BoundProperties>
        <BoundPropertyInt Name="rotateStepNinety" Value="0" />
      </BoundProperties>
    </ImageClip>
    <ImageClip extentID="644" gapBefore="0" mediaItemID="640" duration="0.040000000000000001">
      <Effects />
      <Transitions />
      <BoundProperties>
        <BoundPropertyInt Name="rotateStepNinety" Value="0" />
      </BoundProperties>
    </ImageClip>
    <ImageClip extentID="645" gapBefore="0" mediaItemID="641" duration="0.040000000000000001">
      <Effects />
      <Transitions />
      <BoundProperties>
        <BoundPropertyInt Name="rotateStepNinety" Value="0" />
      </BoundProperties>
    </ImageClip>
    <ImageClip extentID="646" gapBefore="0" mediaItemID="642" duration="0.040000000000000001">
      <Effects />
      <Transitions />
      <BoundProperties>
        <BoundPropertyInt Name="rotateStepNinety" Value="0" />
      </BoundProperties>
    </ImageClip>
    <ImageClip extentID="647" gapBefore="0" mediaItemID="643" duration="0.040000000000000001">
      <Effects />
      <Transitions />
      <BoundProperties>
        <BoundPropertyInt Name="rotateStepNinety" Value="0" />
      </BoundProperties>
    </ImageClip>
    <ImageClip extentID="648" gapBefore="0" mediaItemID="644" duration="0.040000000000000001">
      <Effects />
      <Transitions />
      <BoundProperties>
        <BoundPropertyInt Name="rotateStepNinety" Value="0" />
      </BoundProperties>
    </ImageClip>
    <ImageClip extentID="649" gapBefore="0" mediaItemID="645" duration="0.040000000000000001">
      <Effects />
      <Transitions />
      <BoundProperties>
        <BoundPropertyInt Name="rotateStepNinety" Value="0" />
      </BoundProperties>
    </ImageClip>
    <ImageClip extentID="650" gapBefore="0" mediaItemID="646" duration="0.040000000000000001">
      <Effects />
      <Transitions />
      <BoundProperties>
        <BoundPropertyInt Name="rotateStepNinety" Value="0" />
      </BoundProperties>
    </ImageClip>
    <ImageClip extentID="651" gapBefore="0" mediaItemID="647" duration="0.040000000000000001">
      <Effects />
      <Transitions />
      <BoundProperties>
        <BoundPropertyInt Name="rotateStepNinety" Value="0" />
      </BoundProperties>
    </ImageClip>
    <ImageClip extentID="652" gapBefore="0" mediaItemID="648" duration="0.040000000000000001">
      <Effects />
      <Transitions />
      <BoundProperties>
        <BoundPropertyInt Name="rotateStepNinety" Value="0" />
      </BoundProperties>
    </ImageClip>
    <ImageClip extentID="653" gapBefore="0" mediaItemID="649" duration="0.040000000000000001">
      <Effects />
      <Transitions />
      <BoundProperties>
        <BoundPropertyInt Name="rotateStepNinety" Value="0" />
      </BoundProperties>
    </ImageClip>
    <ImageClip extentID="654" gapBefore="0" mediaItemID="650" duration="0.040000000000000001">
      <Effects />
      <Transitions />
      <BoundProperties>
        <BoundPropertyInt Name="rotateStepNinety" Value="0" />
      </BoundProperties>
    </ImageClip>
    <ImageClip extentID="655" gapBefore="0" mediaItemID="651" duration="0.040000000000000001">
      <Effects />
      <Transitions />
      <BoundProperties>
        <BoundPropertyInt Name="rotateStepNinety" Value="0" />
      </BoundProperties>
    </ImageClip>
    <ImageClip extentID="656" gapBefore="0" mediaItemID="652" duration="0.040000000000000001">
      <Effects />
      <Transitions />
      <BoundProperties>
        <BoundPropertyInt Name="rotateStepNinety" Value="0" />
      </BoundProperties>
    </ImageClip>
    <ImageClip extentID="657" gapBefore="0" mediaItemID="653" duration="0.040000000000000001">
      <Effects />
      <Transitions />
      <BoundProperties>
        <BoundPropertyInt Name="rotateStepNinety" Value="0" />
      </BoundProperties>
    </ImageClip>
    <ImageClip extentID="658" gapBefore="0" mediaItemID="654" duration="0.040000000000000001">
      <Effects />
      <Transitions />
      <BoundProperties>
        <BoundPropertyInt Name="rotateStepNinety" Value="0" />
      </BoundProperties>
    </ImageClip>
    <ImageClip extentID="659" gapBefore="0" mediaItemID="655" duration="0.040000000000000001">
      <Effects />
      <Transitions />
      <BoundProperties>
        <BoundPropertyInt Name="rotateStepNinety" Value="0" />
      </BoundProperties>
    </ImageClip>
    <ImageClip extentID="660" gapBefore="0" mediaItemID="656" duration="0.040000000000000001">
      <Effects />
      <Transitions />
      <BoundProperties>
        <BoundPropertyInt Name="rotateStepNinety" Value="0" />
      </BoundProperties>
    </ImageClip>
    <ImageClip extentID="661" gapBefore="0" mediaItemID="657" duration="0.040000000000000001">
      <Effects />
      <Transitions />
      <BoundProperties>
        <BoundPropertyInt Name="rotateStepNinety" Value="0" />
      </BoundProperties>
    </ImageClip>
    <ImageClip extentID="662" gapBefore="0" mediaItemID="658" duration="0.040000000000000001">
      <Effects />
      <Transitions />
      <BoundProperties>
        <BoundPropertyInt Name="rotateStepNinety" Value="0" />
      </BoundProperties>
    </ImageClip>
    <ImageClip extentID="663" gapBefore="0" mediaItemID="659" duration="0.040000000000000001">
      <Effects />
      <Transitions />
      <BoundProperties>
        <BoundPropertyInt Name="rotateStepNinety" Value="0" />
      </BoundProperties>
    </ImageClip>
    <ImageClip extentID="664" gapBefore="0" mediaItemID="660" duration="0.040000000000000001">
      <Effects />
      <Transitions />
      <BoundProperties>
        <BoundPropertyInt Name="rotateStepNinety" Value="0" />
      </BoundProperties>
    </ImageClip>
    <ImageClip extentID="665" gapBefore="0" mediaItemID="661" duration="0.040000000000000001">
      <Effects />
      <Transitions />
      <BoundProperties>
        <BoundPropertyInt Name="rotateStepNinety" Value="0" />
      </BoundProperties>
    </ImageClip>
    <ImageClip extentID="666" gapBefore="0" mediaItemID="662" duration="0.040000000000000001">
      <Effects />
      <Transitions />
      <BoundProperties>
        <BoundPropertyInt Name="rotateStepNinety" Value="0" />
      </BoundProperties>
    </ImageClip>
    <ImageClip extentID="667" gapBefore="0" mediaItemID="663" duration="0.040000000000000001">
      <Effects />
      <Transitions />
      <BoundProperties>
        <BoundPropertyInt Name="rotateStepNinety" Value="0" />
      </BoundProperties>
    </ImageClip>
    <ImageClip extentID="668" gapBefore="0" mediaItemID="664" duration="0.040000000000000001">
      <Effects />
      <Transitions />
      <BoundProperties>
        <BoundPropertyInt Name="rotateStepNinety" Value="0" />
      </BoundProperties>
    </ImageClip>
    <ImageClip extentID="669" gapBefore="0" mediaItemID="665" duration="0.040000000000000001">
      <Effects />
      <Transitions />
      <BoundProperties>
        <BoundPropertyInt Name="rotateStepNinety" Value="0" />
      </BoundProperties>
    </ImageClip>
    <ImageClip extentID="670" gapBefore="0" mediaItemID="666" duration="0.040000000000000001">
      <Effects />
      <Transitions />
      <BoundProperties>
        <BoundPropertyInt Name="rotateStepNinety" Value="0" />
      </BoundProperties>
    </ImageClip>
    <ImageClip extentID="671" gapBefore="0" mediaItemID="667" duration="0.040000000000000001">
      <Effects />
      <Transitions />
      <BoundProperties>
        <BoundPropertyInt Name="rotateStepNinety" Value="0" />
      </BoundProperties>
    </ImageClip>
    <ImageClip extentID="672" gapBefore="0" mediaItemID="668" duration="0.040000000000000001">
      <Effects />
      <Transitions />
      <BoundProperties>
        <BoundPropertyInt Name="rotateStepNinety" Value="0" />
      </BoundProperties>
    </ImageClip>
    <ImageClip extentID="673" gapBefore="0" mediaItemID="669" duration="0.040000000000000001">
      <Effects />
      <Transitions />
      <BoundProperties>
        <BoundPropertyInt Name="rotateStepNinety" Value="0" />
      </BoundProperties>
    </ImageClip>
    <ImageClip extentID="674" gapBefore="0" mediaItemID="670" duration="0.040000000000000001">
      <Effects />
      <Transitions />
      <BoundProperties>
        <BoundPropertyInt Name="rotateStepNinety" Value="0" />
      </BoundProperties>
    </ImageClip>
    <ImageClip extentID="675" gapBefore="0" mediaItemID="671" duration="0.040000000000000001">
      <Effects />
      <Transitions />
      <BoundProperties>
        <BoundPropertyInt Name="rotateStepNinety" Value="0" />
      </BoundProperties>
    </ImageClip>
    <ImageClip extentID="676" gapBefore="0" mediaItemID="672" duration="0.040000000000000001">
      <Effects />
      <Transitions />
      <BoundProperties>
        <BoundPropertyInt Name="rotateStepNinety" Value="0" />
      </BoundProperties>
    </ImageClip>
    <ImageClip extentID="677" gapBefore="0" mediaItemID="673" duration="0.040000000000000001">
      <Effects />
      <Transitions />
      <BoundProperties>
        <BoundPropertyInt Name="rotateStepNinety" Value="0" />
      </BoundProperties>
    </ImageClip>
    <ImageClip extentID="678" gapBefore="0" mediaItemID="674" duration="0.040000000000000001">
      <Effects />
      <Transitions />
      <BoundProperties>
        <BoundPropertyInt Name="rotateStepNinety" Value="0" />
      </BoundProperties>
    </ImageClip>
    <ImageClip extentID="679" gapBefore="0" mediaItemID="675" duration="0.040000000000000001">
      <Effects />
      <Transitions />
      <BoundProperties>
        <BoundPropertyInt Name="rotateStepNinety" Value="0" />
      </BoundProperties>
    </ImageClip>
    <ImageClip extentID="680" gapBefore="0" mediaItemID="676" duration="0.040000000000000001">
      <Effects />
      <Transitions />
      <BoundProperties>
        <BoundPropertyInt Name="rotateStepNinety" Value="0" />
      </BoundProperties>
    </ImageClip>
    <ImageClip extentID="681" gapBefore="0" mediaItemID="677" duration="0.040000000000000001">
      <Effects />
      <Transitions />
      <BoundProperties>
        <BoundPropertyInt Name="rotateStepNinety" Value="0" />
      </BoundProperties>
    </ImageClip>
    <ImageClip extentID="682" gapBefore="0" mediaItemID="678" duration="0.040000000000000001">
      <Effects />
      <Transitions />
      <BoundProperties>
        <BoundPropertyInt Name="rotateStepNinety" Value="0" />
      </BoundProperties>
    </ImageClip>
    <ImageClip extentID="683" gapBefore="0" mediaItemID="679" duration="0.040000000000000001">
      <Effects />
      <Transitions />
      <BoundProperties>
        <BoundPropertyInt Name="rotateStepNinety" Value="0" />
      </BoundProperties>
    </ImageClip>
    <ImageClip extentID="684" gapBefore="0" mediaItemID="680" duration="0.040000000000000001">
      <Effects />
      <Transitions />
      <BoundProperties>
        <BoundPropertyInt Name="rotateStepNinety" Value="0" />
      </BoundProperties>
    </ImageClip>
    <ImageClip extentID="685" gapBefore="0" mediaItemID="681" duration="0.040000000000000001">
      <Effects />
      <Transitions />
      <BoundProperties>
        <BoundPropertyInt Name="rotateStepNinety" Value="0" />
      </BoundProperties>
    </ImageClip>
    <ImageClip extentID="686" gapBefore="0" mediaItemID="682" duration="0.040000000000000001">
      <Effects />
      <Transitions />
      <BoundProperties>
        <BoundPropertyInt Name="rotateStepNinety" Value="0" />
      </BoundProperties>
    </ImageClip>
    <ImageClip extentID="687" gapBefore="0" mediaItemID="683" duration="0.040000000000000001">
      <Effects />
      <Transitions />
      <BoundProperties>
        <BoundPropertyInt Name="rotateStepNinety" Value="0" />
      </BoundProperties>
    </ImageClip>
    <ImageClip extentID="688" gapBefore="0" mediaItemID="684" duration="0.040000000000000001">
      <Effects />
      <Transitions />
      <BoundProperties>
        <BoundPropertyInt Name="rotateStepNinety" Value="0" />
      </BoundProperties>
    </ImageClip>
    <ImageClip extentID="689" gapBefore="0" mediaItemID="685" duration="0.040000000000000001">
      <Effects />
      <Transitions />
      <BoundProperties>
        <BoundPropertyInt Name="rotateStepNinety" Value="0" />
      </BoundProperties>
    </ImageClip>
    <ImageClip extentID="690" gapBefore="0" mediaItemID="686" duration="0.040000000000000001">
      <Effects />
      <Transitions />
      <BoundProperties>
        <BoundPropertyInt Name="rotateStepNinety" Value="0" />
      </BoundProperties>
    </ImageClip>
    <ImageClip extentID="691" gapBefore="0" mediaItemID="687" duration="0.040000000000000001">
      <Effects />
      <Transitions />
      <BoundProperties>
        <BoundPropertyInt Name="rotateStepNinety" Value="0" />
      </BoundProperties>
    </ImageClip>
    <ImageClip extentID="692" gapBefore="0" mediaItemID="688" duration="0.040000000000000001">
      <Effects />
      <Transitions />
      <BoundProperties>
        <BoundPropertyInt Name="rotateStepNinety" Value="0" />
      </BoundProperties>
    </ImageClip>
    <ImageClip extentID="693" gapBefore="0" mediaItemID="689" duration="0.040000000000000001">
      <Effects />
      <Transitions />
      <BoundProperties>
        <BoundPropertyInt Name="rotateStepNinety" Value="0" />
      </BoundProperties>
    </ImageClip>
    <ImageClip extentID="694" gapBefore="0" mediaItemID="690" duration="0.040000000000000001">
      <Effects />
      <Transitions />
      <BoundProperties>
        <BoundPropertyInt Name="rotateStepNinety" Value="0" />
      </BoundProperties>
    </ImageClip>
    <ImageClip extentID="695" gapBefore="0" mediaItemID="691" duration="0.040000000000000001">
      <Effects />
      <Transitions />
      <BoundProperties>
        <BoundPropertyInt Name="rotateStepNinety" Value="0" />
      </BoundProperties>
    </ImageClip>
    <ImageClip extentID="696" gapBefore="0" mediaItemID="692" duration="0.040000000000000001">
      <Effects />
      <Transitions />
      <BoundProperties>
        <BoundPropertyInt Name="rotateStepNinety" Value="0" />
      </BoundProperties>
    </ImageClip>
    <ImageClip extentID="697" gapBefore="0" mediaItemID="693" duration="0.040000000000000001">
      <Effects />
      <Transitions />
      <BoundProperties>
        <BoundPropertyInt Name="rotateStepNinety" Value="0" />
      </BoundProperties>
    </ImageClip>
    <ImageClip extentID="698" gapBefore="0" mediaItemID="694" duration="0.040000000000000001">
      <Effects />
      <Transitions />
      <BoundProperties>
        <BoundPropertyInt Name="rotateStepNinety" Value="0" />
      </BoundProperties>
    </ImageClip>
    <ImageClip extentID="699" gapBefore="0" mediaItemID="695" duration="0.040000000000000001">
      <Effects />
      <Transitions />
      <BoundProperties>
        <BoundPropertyInt Name="rotateStepNinety" Value="0" />
      </BoundProperties>
    </ImageClip>
    <ImageClip extentID="700" gapBefore="0" mediaItemID="696" duration="0.040000000000000001">
      <Effects />
      <Transitions />
      <BoundProperties>
        <BoundPropertyInt Name="rotateStepNinety" Value="0" />
      </BoundProperties>
    </ImageClip>
    <ImageClip extentID="701" gapBefore="0" mediaItemID="697" duration="0.040000000000000001">
      <Effects />
      <Transitions />
      <BoundProperties>
        <BoundPropertyInt Name="rotateStepNinety" Value="0" />
      </BoundProperties>
    </ImageClip>
    <ImageClip extentID="702" gapBefore="0" mediaItemID="698" duration="0.040000000000000001">
      <Effects />
      <Transitions />
      <BoundProperties>
        <BoundPropertyInt Name="rotateStepNinety" Value="0" />
      </BoundProperties>
    </ImageClip>
    <ImageClip extentID="703" gapBefore="0" mediaItemID="699" duration="0.040000000000000001">
      <Effects />
      <Transitions />
      <BoundProperties>
        <BoundPropertyInt Name="rotateStepNinety" Value="0" />
      </BoundProperties>
    </ImageClip>
    <ImageClip extentID="704" gapBefore="0" mediaItemID="700" duration="0.040000000000000001">
      <Effects />
      <Transitions />
      <BoundProperties>
        <BoundPropertyInt Name="rotateStepNinety" Value="0" />
      </BoundProperties>
    </ImageClip>
    <ImageClip extentID="705" gapBefore="0" mediaItemID="701" duration="0.040000000000000001">
      <Effects />
      <Transitions />
      <BoundProperties>
        <BoundPropertyInt Name="rotateStepNinety" Value="0" />
      </BoundProperties>
    </ImageClip>
    <ImageClip extentID="706" gapBefore="0" mediaItemID="702" duration="0.040000000000000001">
      <Effects />
      <Transitions />
      <BoundProperties>
        <BoundPropertyInt Name="rotateStepNinety" Value="0" />
      </BoundProperties>
    </ImageClip>
    <ImageClip extentID="707" gapBefore="0" mediaItemID="703" duration="0.040000000000000001">
      <Effects />
      <Transitions />
      <BoundProperties>
        <BoundPropertyInt Name="rotateStepNinety" Value="0" />
      </BoundProperties>
    </ImageClip>
    <ImageClip extentID="708" gapBefore="0" mediaItemID="704" duration="0.040000000000000001">
      <Effects />
      <Transitions />
      <BoundProperties>
        <BoundPropertyInt Name="rotateStepNinety" Value="0" />
      </BoundProperties>
    </ImageClip>
    <ImageClip extentID="709" gapBefore="0" mediaItemID="705" duration="0.040000000000000001">
      <Effects />
      <Transitions />
      <BoundProperties>
        <BoundPropertyInt Name="rotateStepNinety" Value="0" />
      </BoundProperties>
    </ImageClip>
    <ImageClip extentID="710" gapBefore="0" mediaItemID="706" duration="0.040000000000000001">
      <Effects />
      <Transitions />
      <BoundProperties>
        <BoundPropertyInt Name="rotateStepNinety" Value="0" />
      </BoundProperties>
    </ImageClip>
    <ImageClip extentID="711" gapBefore="0" mediaItemID="707" duration="0.040000000000000001">
      <Effects />
      <Transitions />
      <BoundProperties>
        <BoundPropertyInt Name="rotateStepNinety" Value="0" />
      </BoundProperties>
    </ImageClip>
    <ImageClip extentID="712" gapBefore="0" mediaItemID="708" duration="0.040000000000000001">
      <Effects />
      <Transitions />
      <BoundProperties>
        <BoundPropertyInt Name="rotateStepNinety" Value="0" />
      </BoundProperties>
    </ImageClip>
    <ImageClip extentID="713" gapBefore="0" mediaItemID="709" duration="0.040000000000000001">
      <Effects />
      <Transitions />
      <BoundProperties>
        <BoundPropertyInt Name="rotateStepNinety" Value="0" />
      </BoundProperties>
    </ImageClip>
    <ImageClip extentID="714" gapBefore="0" mediaItemID="710" duration="0.040000000000000001">
      <Effects />
      <Transitions />
      <BoundProperties>
        <BoundPropertyInt Name="rotateStepNinety" Value="0" />
      </BoundProperties>
    </ImageClip>
    <ImageClip extentID="715" gapBefore="0" mediaItemID="711" duration="0.040000000000000001">
      <Effects />
      <Transitions />
      <BoundProperties>
        <BoundPropertyInt Name="rotateStepNinety" Value="0" />
      </BoundProperties>
    </ImageClip>
    <ImageClip extentID="716" gapBefore="0" mediaItemID="712" duration="0.040000000000000001">
      <Effects />
      <Transitions />
      <BoundProperties>
        <BoundPropertyInt Name="rotateStepNinety" Value="0" />
      </BoundProperties>
    </ImageClip>
    <ImageClip extentID="717" gapBefore="0" mediaItemID="713" duration="0.040000000000000001">
      <Effects />
      <Transitions />
      <BoundProperties>
        <BoundPropertyInt Name="rotateStepNinety" Value="0" />
      </BoundProperties>
    </ImageClip>
    <ImageClip extentID="718" gapBefore="0" mediaItemID="714" duration="0.040000000000000001">
      <Effects />
      <Transitions />
      <BoundProperties>
        <BoundPropertyInt Name="rotateStepNinety" Value="0" />
      </BoundProperties>
    </ImageClip>
    <ImageClip extentID="719" gapBefore="0" mediaItemID="715" duration="0.040000000000000001">
      <Effects />
      <Transitions />
      <BoundProperties>
        <BoundPropertyInt Name="rotateStepNinety" Value="0" />
      </BoundProperties>
    </ImageClip>
    <ImageClip extentID="720" gapBefore="0" mediaItemID="716" duration="0.040000000000000001">
      <Effects />
      <Transitions />
      <BoundProperties>
        <BoundPropertyInt Name="rotateStepNinety" Value="0" />
      </BoundProperties>
    </ImageClip>
    <ImageClip extentID="721" gapBefore="0" mediaItemID="717" duration="0.040000000000000001">
      <Effects />
      <Transitions />
      <BoundProperties>
        <BoundPropertyInt Name="rotateStepNinety" Value="0" />
      </BoundProperties>
    </ImageClip>
    <ImageClip extentID="722" gapBefore="0" mediaItemID="718" duration="0.040000000000000001">
      <Effects />
      <Transitions />
      <BoundProperties>
        <BoundPropertyInt Name="rotateStepNinety" Value="0" />
      </BoundProperties>
    </ImageClip>
    <ImageClip extentID="723" gapBefore="0" mediaItemID="719" duration="0.040000000000000001">
      <Effects />
      <Transitions />
      <BoundProperties>
        <BoundPropertyInt Name="rotateStepNinety" Value="0" />
      </BoundProperties>
    </ImageClip>
    <ImageClip extentID="724" gapBefore="0" mediaItemID="720" duration="0.040000000000000001">
      <Effects />
      <Transitions />
      <BoundProperties>
        <BoundPropertyInt Name="rotateStepNinety" Value="0" />
      </BoundProperties>
    </ImageClip>
    <ImageClip extentID="725" gapBefore="0" mediaItemID="721" duration="0.040000000000000001">
      <Effects />
      <Transitions />
      <BoundProperties>
        <BoundPropertyInt Name="rotateStepNinety" Value="0" />
      </BoundProperties>
    </ImageClip>
    <ImageClip extentID="726" gapBefore="0" mediaItemID="722" duration="0.040000000000000001">
      <Effects />
      <Transitions />
      <BoundProperties>
        <BoundPropertyInt Name="rotateStepNinety" Value="0" />
      </BoundProperties>
    </ImageClip>
    <ImageClip extentID="727" gapBefore="0" mediaItemID="723" duration="0.040000000000000001">
      <Effects />
      <Transitions />
      <BoundProperties>
        <BoundPropertyInt Name="rotateStepNinety" Value="0" />
      </BoundProperties>
    </ImageClip>
    <ImageClip extentID="728" gapBefore="0" mediaItemID="724" duration="0.040000000000000001">
      <Effects />
      <Transitions />
      <BoundProperties>
        <BoundPropertyInt Name="rotateStepNinety" Value="0" />
      </BoundProperties>
    </ImageClip>
    <ImageClip extentID="729" gapBefore="0" mediaItemID="725" duration="0.040000000000000001">
      <Effects />
      <Transitions />
      <BoundProperties>
        <BoundPropertyInt Name="rotateStepNinety" Value="0" />
      </BoundProperties>
    </ImageClip>
    <ImageClip extentID="730" gapBefore="0" mediaItemID="726" duration="0.040000000000000001">
      <Effects />
      <Transitions />
      <BoundProperties>
        <BoundPropertyInt Name="rotateStepNinety" Value="0" />
      </BoundProperties>
    </ImageClip>
    <ImageClip extentID="731" gapBefore="0" mediaItemID="727" duration="0.040000000000000001">
      <Effects />
      <Transitions />
      <BoundProperties>
        <BoundPropertyInt Name="rotateStepNinety" Value="0" />
      </BoundProperties>
    </ImageClip>
    <ImageClip extentID="732" gapBefore="0" mediaItemID="728" duration="0.040000000000000001">
      <Effects />
      <Transitions />
      <BoundProperties>
        <BoundPropertyInt Name="rotateStepNinety" Value="0" />
      </BoundProperties>
    </ImageClip>
    <ImageClip extentID="733" gapBefore="0" mediaItemID="729" duration="0.040000000000000001">
      <Effects />
      <Transitions />
      <BoundProperties>
        <BoundPropertyInt Name="rotateStepNinety" Value="0" />
      </BoundProperties>
    </ImageClip>
    <ImageClip extentID="734" gapBefore="0" mediaItemID="730" duration="0.040000000000000001">
      <Effects />
      <Transitions />
      <BoundProperties>
        <BoundPropertyInt Name="rotateStepNinety" Value="0" />
      </BoundProperties>
    </ImageClip>
    <ImageClip extentID="735" gapBefore="0" mediaItemID="731" duration="0.040000000000000001">
      <Effects />
      <Transitions />
      <BoundProperties>
        <BoundPropertyInt Name="rotateStepNinety" Value="0" />
      </BoundProperties>
    </ImageClip>
    <ImageClip extentID="736" gapBefore="0" mediaItemID="732" duration="0.040000000000000001">
      <Effects />
      <Transitions />
      <BoundProperties>
        <BoundPropertyInt Name="rotateStepNinety" Value="0" />
      </BoundProperties>
    </ImageClip>
    <ImageClip extentID="737" gapBefore="0" mediaItemID="733" duration="0.040000000000000001">
      <Effects />
      <Transitions />
      <BoundProperties>
        <BoundPropertyInt Name="rotateStepNinety" Value="0" />
      </BoundProperties>
    </ImageClip>
    <ImageClip extentID="738" gapBefore="0" mediaItemID="734" duration="0.040000000000000001">
      <Effects />
      <Transitions />
      <BoundProperties>
        <BoundPropertyInt Name="rotateStepNinety" Value="0" />
      </BoundProperties>
    </ImageClip>
    <ImageClip extentID="739" gapBefore="0" mediaItemID="735" duration="0.040000000000000001">
      <Effects />
      <Transitions />
      <BoundProperties>
        <BoundPropertyInt Name="rotateStepNinety" Value="0" />
      </BoundProperties>
    </ImageClip>
    <ImageClip extentID="740" gapBefore="0" mediaItemID="736" duration="0.040000000000000001">
      <Effects />
      <Transitions />
      <BoundProperties>
        <BoundPropertyInt Name="rotateStepNinety" Value="0" />
      </BoundProperties>
    </ImageClip>
    <ImageClip extentID="741" gapBefore="0" mediaItemID="737" duration="0.040000000000000001">
      <Effects />
      <Transitions />
      <BoundProperties>
        <BoundPropertyInt Name="rotateStepNinety" Value="0" />
      </BoundProperties>
    </ImageClip>
    <ImageClip extentID="742" gapBefore="0" mediaItemID="738" duration="0.040000000000000001">
      <Effects />
      <Transitions />
      <BoundProperties>
        <BoundPropertyInt Name="rotateStepNinety" Value="0" />
      </BoundProperties>
    </ImageClip>
    <ImageClip extentID="743" gapBefore="0" mediaItemID="739" duration="0.040000000000000001">
      <Effects />
      <Transitions />
      <BoundProperties>
        <BoundPropertyInt Name="rotateStepNinety" Value="0" />
      </BoundProperties>
    </ImageClip>
    <ImageClip extentID="744" gapBefore="0" mediaItemID="740" duration="0.040000000000000001">
      <Effects />
      <Transitions />
      <BoundProperties>
        <BoundPropertyInt Name="rotateStepNinety" Value="0" />
      </BoundProperties>
    </ImageClip>
    <ImageClip extentID="745" gapBefore="0" mediaItemID="741" duration="0.040000000000000001">
      <Effects />
      <Transitions />
      <BoundProperties>
        <BoundPropertyInt Name="rotateStepNinety" Value="0" />
      </BoundProperties>
    </ImageClip>
    <ImageClip extentID="746" gapBefore="0" mediaItemID="742" duration="0.040000000000000001">
      <Effects />
      <Transitions />
      <BoundProperties>
        <BoundPropertyInt Name="rotateStepNinety" Value="0" />
      </BoundProperties>
    </ImageClip>
    <ImageClip extentID="747" gapBefore="0" mediaItemID="743" duration="0.040000000000000001">
      <Effects />
      <Transitions />
      <BoundProperties>
        <BoundPropertyInt Name="rotateStepNinety" Value="0" />
      </BoundProperties>
    </ImageClip>
    <ImageClip extentID="748" gapBefore="0" mediaItemID="744" duration="0.040000000000000001">
      <Effects />
      <Transitions />
      <BoundProperties>
        <BoundPropertyInt Name="rotateStepNinety" Value="0" />
      </BoundProperties>
    </ImageClip>
    <ImageClip extentID="749" gapBefore="0" mediaItemID="745" duration="0.040000000000000001">
      <Effects />
      <Transitions />
      <BoundProperties>
        <BoundPropertyInt Name="rotateStepNinety" Value="0" />
      </BoundProperties>
    </ImageClip>
    <ImageClip extentID="750" gapBefore="0" mediaItemID="746" duration="0.040000000000000001">
      <Effects />
      <Transitions />
      <BoundProperties>
        <BoundPropertyInt Name="rotateStepNinety" Value="0" />
      </BoundProperties>
    </ImageClip>
    <ImageClip extentID="751" gapBefore="0" mediaItemID="747" duration="0.040000000000000001">
      <Effects />
      <Transitions />
      <BoundProperties>
        <BoundPropertyInt Name="rotateStepNinety" Value="0" />
      </BoundProperties>
    </ImageClip>
    <ImageClip extentID="752" gapBefore="0" mediaItemID="748" duration="0.040000000000000001">
      <Effects />
      <Transitions />
      <BoundProperties>
        <BoundPropertyInt Name="rotateStepNinety" Value="0" />
      </BoundProperties>
    </ImageClip>
    <ImageClip extentID="753" gapBefore="0" mediaItemID="749" duration="0.040000000000000001">
      <Effects />
      <Transitions />
      <BoundProperties>
        <BoundPropertyInt Name="rotateStepNinety" Value="0" />
      </BoundProperties>
    </ImageClip>
    <ImageClip extentID="754" gapBefore="0" mediaItemID="750" duration="0.040000000000000001">
      <Effects />
      <Transitions />
      <BoundProperties>
        <BoundPropertyInt Name="rotateStepNinety" Value="0" />
      </BoundProperties>
    </ImageClip>
    <ImageClip extentID="755" gapBefore="0" mediaItemID="751" duration="0.040000000000000001">
      <Effects />
      <Transitions />
      <BoundProperties>
        <BoundPropertyInt Name="rotateStepNinety" Value="0" />
      </BoundProperties>
    </ImageClip>
    <ImageClip extentID="756" gapBefore="0" mediaItemID="752" duration="0.040000000000000001">
      <Effects />
      <Transitions />
      <BoundProperties>
        <BoundPropertyInt Name="rotateStepNinety" Value="0" />
      </BoundProperties>
    </ImageClip>
    <ImageClip extentID="757" gapBefore="0" mediaItemID="753" duration="0.040000000000000001">
      <Effects />
      <Transitions />
      <BoundProperties>
        <BoundPropertyInt Name="rotateStepNinety" Value="0" />
      </BoundProperties>
    </ImageClip>
    <ImageClip extentID="758" gapBefore="0" mediaItemID="754" duration="0.040000000000000001">
      <Effects />
      <Transitions />
      <BoundProperties>
        <BoundPropertyInt Name="rotateStepNinety" Value="0" />
      </BoundProperties>
    </ImageClip>
    <ImageClip extentID="759" gapBefore="0" mediaItemID="755" duration="0.040000000000000001">
      <Effects />
      <Transitions />
      <BoundProperties>
        <BoundPropertyInt Name="rotateStepNinety" Value="0" />
      </BoundProperties>
    </ImageClip>
    <ImageClip extentID="760" gapBefore="0" mediaItemID="756" duration="0.040000000000000001">
      <Effects />
      <Transitions />
      <BoundProperties>
        <BoundPropertyInt Name="rotateStepNinety" Value="0" />
      </BoundProperties>
    </ImageClip>
    <ImageClip extentID="761" gapBefore="0" mediaItemID="757" duration="0.040000000000000001">
      <Effects />
      <Transitions />
      <BoundProperties>
        <BoundPropertyInt Name="rotateStepNinety" Value="0" />
      </BoundProperties>
    </ImageClip>
    <ImageClip extentID="762" gapBefore="0" mediaItemID="758" duration="0.040000000000000001">
      <Effects />
      <Transitions />
      <BoundProperties>
        <BoundPropertyInt Name="rotateStepNinety" Value="0" />
      </BoundProperties>
    </ImageClip>
    <ImageClip extentID="763" gapBefore="0" mediaItemID="759" duration="0.040000000000000001">
      <Effects />
      <Transitions />
      <BoundProperties>
        <BoundPropertyInt Name="rotateStepNinety" Value="0" />
      </BoundProperties>
    </ImageClip>
    <ImageClip extentID="764" gapBefore="0" mediaItemID="760" duration="0.040000000000000001">
      <Effects />
      <Transitions />
      <BoundProperties>
        <BoundPropertyInt Name="rotateStepNinety" Value="0" />
      </BoundProperties>
    </ImageClip>
    <ImageClip extentID="765" gapBefore="0" mediaItemID="761" duration="0.040000000000000001">
      <Effects />
      <Transitions />
      <BoundProperties>
        <BoundPropertyInt Name="rotateStepNinety" Value="0" />
      </BoundProperties>
    </ImageClip>
    <ImageClip extentID="766" gapBefore="0" mediaItemID="762" duration="0.040000000000000001">
      <Effects />
      <Transitions />
      <BoundProperties>
        <BoundPropertyInt Name="rotateStepNinety" Value="0" />
      </BoundProperties>
    </ImageClip>
    <ImageClip extentID="767" gapBefore="0" mediaItemID="763" duration="0.040000000000000001">
      <Effects />
      <Transitions />
      <BoundProperties>
        <BoundPropertyInt Name="rotateStepNinety" Value="0" />
      </BoundProperties>
    </ImageClip>
    <ImageClip extentID="768" gapBefore="0" mediaItemID="764" duration="0.040000000000000001">
      <Effects />
      <Transitions />
      <BoundProperties>
        <BoundPropertyInt Name="rotateStepNinety" Value="0" />
      </BoundProperties>
    </ImageClip>
    <ImageClip extentID="769" gapBefore="0" mediaItemID="765" duration="0.040000000000000001">
      <Effects />
      <Transitions />
      <BoundProperties>
        <BoundPropertyInt Name="rotateStepNinety" Value="0" />
      </BoundProperties>
    </ImageClip>
    <ImageClip extentID="770" gapBefore="0" mediaItemID="766" duration="0.040000000000000001">
      <Effects />
      <Transitions />
      <BoundProperties>
        <BoundPropertyInt Name="rotateStepNinety" Value="0" />
      </BoundProperties>
    </ImageClip>
    <ImageClip extentID="771" gapBefore="0" mediaItemID="767" duration="0.040000000000000001">
      <Effects />
      <Transitions />
      <BoundProperties>
        <BoundPropertyInt Name="rotateStepNinety" Value="0" />
      </BoundProperties>
    </ImageClip>
    <ImageClip extentID="772" gapBefore="0" mediaItemID="768" duration="0.040000000000000001">
      <Effects />
      <Transitions />
      <BoundProperties>
        <BoundPropertyInt Name="rotateStepNinety" Value="0" />
      </BoundProperties>
    </ImageClip>
    <ImageClip extentID="773" gapBefore="0" mediaItemID="769" duration="0.040000000000000001">
      <Effects />
      <Transitions />
      <BoundProperties>
        <BoundPropertyInt Name="rotateStepNinety" Value="0" />
      </BoundProperties>
    </ImageClip>
    <ImageClip extentID="774" gapBefore="0" mediaItemID="770" duration="0.040000000000000001">
      <Effects />
      <Transitions />
      <BoundProperties>
        <BoundPropertyInt Name="rotateStepNinety" Value="0" />
      </BoundProperties>
    </ImageClip>
    <ImageClip extentID="775" gapBefore="0" mediaItemID="771" duration="0.040000000000000001">
      <Effects />
      <Transitions />
      <BoundProperties>
        <BoundPropertyInt Name="rotateStepNinety" Value="0" />
      </BoundProperties>
    </ImageClip>
    <ImageClip extentID="776" gapBefore="0" mediaItemID="772" duration="0.040000000000000001">
      <Effects />
      <Transitions />
      <BoundProperties>
        <BoundPropertyInt Name="rotateStepNinety" Value="0" />
      </BoundProperties>
    </ImageClip>
    <ImageClip extentID="777" gapBefore="0" mediaItemID="773" duration="0.040000000000000001">
      <Effects />
      <Transitions />
      <BoundProperties>
        <BoundPropertyInt Name="rotateStepNinety" Value="0" />
      </BoundProperties>
    </ImageClip>
    <ImageClip extentID="778" gapBefore="0" mediaItemID="774" duration="0.040000000000000001">
      <Effects />
      <Transitions />
      <BoundProperties>
        <BoundPropertyInt Name="rotateStepNinety" Value="0" />
      </BoundProperties>
    </ImageClip>
    <ImageClip extentID="779" gapBefore="0" mediaItemID="775" duration="0.040000000000000001">
      <Effects />
      <Transitions />
      <BoundProperties>
        <BoundPropertyInt Name="rotateStepNinety" Value="0" />
      </BoundProperties>
    </ImageClip>
    <ImageClip extentID="780" gapBefore="0" mediaItemID="776" duration="0.040000000000000001">
      <Effects />
      <Transitions />
      <BoundProperties>
        <BoundPropertyInt Name="rotateStepNinety" Value="0" />
      </BoundProperties>
    </ImageClip>
    <ImageClip extentID="781" gapBefore="0" mediaItemID="777" duration="0.040000000000000001">
      <Effects />
      <Transitions />
      <BoundProperties>
        <BoundPropertyInt Name="rotateStepNinety" Value="0" />
      </BoundProperties>
    </ImageClip>
    <ImageClip extentID="782" gapBefore="0" mediaItemID="778" duration="0.040000000000000001">
      <Effects />
      <Transitions />
      <BoundProperties>
        <BoundPropertyInt Name="rotateStepNinety" Value="0" />
      </BoundProperties>
    </ImageClip>
    <ImageClip extentID="783" gapBefore="0" mediaItemID="779" duration="0.040000000000000001">
      <Effects />
      <Transitions />
      <BoundProperties>
        <BoundPropertyInt Name="rotateStepNinety" Value="0" />
      </BoundProperties>
    </ImageClip>
    <ImageClip extentID="784" gapBefore="0" mediaItemID="780" duration="0.040000000000000001">
      <Effects />
      <Transitions />
      <BoundProperties>
        <BoundPropertyInt Name="rotateStepNinety" Value="0" />
      </BoundProperties>
    </ImageClip>
    <ImageClip extentID="785" gapBefore="0" mediaItemID="781" duration="0.040000000000000001">
      <Effects />
      <Transitions />
      <BoundProperties>
        <BoundPropertyInt Name="rotateStepNinety" Value="0" />
      </BoundProperties>
    </ImageClip>
    <ImageClip extentID="786" gapBefore="0" mediaItemID="782" duration="0.040000000000000001">
      <Effects />
      <Transitions />
      <BoundProperties>
        <BoundPropertyInt Name="rotateStepNinety" Value="0" />
      </BoundProperties>
    </ImageClip>
    <ImageClip extentID="787" gapBefore="0" mediaItemID="783" duration="0.040000000000000001">
      <Effects />
      <Transitions />
      <BoundProperties>
        <BoundPropertyInt Name="rotateStepNinety" Value="0" />
      </BoundProperties>
    </ImageClip>
    <ImageClip extentID="788" gapBefore="0" mediaItemID="784" duration="0.040000000000000001">
      <Effects />
      <Transitions />
      <BoundProperties>
        <BoundPropertyInt Name="rotateStepNinety" Value="0" />
      </BoundProperties>
    </ImageClip>
    <ImageClip extentID="789" gapBefore="0" mediaItemID="785" duration="0.040000000000000001">
      <Effects />
      <Transitions />
      <BoundProperties>
        <BoundPropertyInt Name="rotateStepNinety" Value="0" />
      </BoundProperties>
    </ImageClip>
    <ImageClip extentID="790" gapBefore="0" mediaItemID="786" duration="0.040000000000000001">
      <Effects />
      <Transitions />
      <BoundProperties>
        <BoundPropertyInt Name="rotateStepNinety" Value="0" />
      </BoundProperties>
    </ImageClip>
    <ImageClip extentID="791" gapBefore="0" mediaItemID="787" duration="0.040000000000000001">
      <Effects />
      <Transitions />
      <BoundProperties>
        <BoundPropertyInt Name="rotateStepNinety" Value="0" />
      </BoundProperties>
    </ImageClip>
    <ImageClip extentID="792" gapBefore="0" mediaItemID="788" duration="0.040000000000000001">
      <Effects />
      <Transitions />
      <BoundProperties>
        <BoundPropertyInt Name="rotateStepNinety" Value="0" />
      </BoundProperties>
    </ImageClip>
    <ImageClip extentID="793" gapBefore="0" mediaItemID="789" duration="0.040000000000000001">
      <Effects />
      <Transitions />
      <BoundProperties>
        <BoundPropertyInt Name="rotateStepNinety" Value="0" />
      </BoundProperties>
    </ImageClip>
    <ImageClip extentID="794" gapBefore="0" mediaItemID="790" duration="0.040000000000000001">
      <Effects />
      <Transitions />
      <BoundProperties>
        <BoundPropertyInt Name="rotateStepNinety" Value="0" />
      </BoundProperties>
    </ImageClip>
    <ImageClip extentID="795" gapBefore="0" mediaItemID="791" duration="0.040000000000000001">
      <Effects />
      <Transitions />
      <BoundProperties>
        <BoundPropertyInt Name="rotateStepNinety" Value="0" />
      </BoundProperties>
    </ImageClip>
    <ImageClip extentID="796" gapBefore="0" mediaItemID="792" duration="0.040000000000000001">
      <Effects />
      <Transitions />
      <BoundProperties>
        <BoundPropertyInt Name="rotateStepNinety" Value="0" />
      </BoundProperties>
    </ImageClip>
    <ImageClip extentID="797" gapBefore="0" mediaItemID="793" duration="0.040000000000000001">
      <Effects />
      <Transitions />
      <BoundProperties>
        <BoundPropertyInt Name="rotateStepNinety" Value="0" />
      </BoundProperties>
    </ImageClip>
    <ImageClip extentID="798" gapBefore="0" mediaItemID="794" duration="0.040000000000000001">
      <Effects />
      <Transitions />
      <BoundProperties>
        <BoundPropertyInt Name="rotateStepNinety" Value="0" />
      </BoundProperties>
    </ImageClip>
    <ImageClip extentID="799" gapBefore="0" mediaItemID="795" duration="0.040000000000000001">
      <Effects />
      <Transitions />
      <BoundProperties>
        <BoundPropertyInt Name="rotateStepNinety" Value="0" />
      </BoundProperties>
    </ImageClip>
    <ImageClip extentID="800" gapBefore="0" mediaItemID="796" duration="0.040000000000000001">
      <Effects />
      <Transitions />
      <BoundProperties>
        <BoundPropertyInt Name="rotateStepNinety" Value="0" />
      </BoundProperties>
    </ImageClip>
    <ImageClip extentID="801" gapBefore="0" mediaItemID="797" duration="0.040000000000000001">
      <Effects />
      <Transitions />
      <BoundProperties>
        <BoundPropertyInt Name="rotateStepNinety" Value="0" />
      </BoundProperties>
    </ImageClip>
    <ImageClip extentID="802" gapBefore="0" mediaItemID="798" duration="0.040000000000000001">
      <Effects />
      <Transitions />
      <BoundProperties>
        <BoundPropertyInt Name="rotateStepNinety" Value="0" />
      </BoundProperties>
    </ImageClip>
    <ImageClip extentID="803" gapBefore="0" mediaItemID="799" duration="0.040000000000000001">
      <Effects />
      <Transitions />
      <BoundProperties>
        <BoundPropertyInt Name="rotateStepNinety" Value="0" />
      </BoundProperties>
    </ImageClip>
    <ImageClip extentID="804" gapBefore="0" mediaItemID="800" duration="0.040000000000000001">
      <Effects />
      <Transitions />
      <BoundProperties>
        <BoundPropertyInt Name="rotateStepNinety" Value="0" />
      </BoundProperties>
    </ImageClip>
    <ImageClip extentID="805" gapBefore="0" mediaItemID="801" duration="0.040000000000000001">
      <Effects />
      <Transitions />
      <BoundProperties>
        <BoundPropertyInt Name="rotateStepNinety" Value="0" />
      </BoundProperties>
    </ImageClip>
    <ImageClip extentID="806" gapBefore="0" mediaItemID="802" duration="0.040000000000000001">
      <Effects />
      <Transitions />
      <BoundProperties>
        <BoundPropertyInt Name="rotateStepNinety" Value="0" />
      </BoundProperties>
    </ImageClip>
    <ImageClip extentID="807" gapBefore="0" mediaItemID="803" duration="0.040000000000000001">
      <Effects />
      <Transitions />
      <BoundProperties>
        <BoundPropertyInt Name="rotateStepNinety" Value="0" />
      </BoundProperties>
    </ImageClip>
    <ImageClip extentID="808" gapBefore="0" mediaItemID="804" duration="0.040000000000000001">
      <Effects />
      <Transitions />
      <BoundProperties>
        <BoundPropertyInt Name="rotateStepNinety" Value="0" />
      </BoundProperties>
    </ImageClip>
    <ImageClip extentID="809" gapBefore="0" mediaItemID="805" duration="0.040000000000000001">
      <Effects />
      <Transitions />
      <BoundProperties>
        <BoundPropertyInt Name="rotateStepNinety" Value="0" />
      </BoundProperties>
    </ImageClip>
    <ImageClip extentID="810" gapBefore="0" mediaItemID="806" duration="0.040000000000000001">
      <Effects />
      <Transitions />
      <BoundProperties>
        <BoundPropertyInt Name="rotateStepNinety" Value="0" />
      </BoundProperties>
    </ImageClip>
    <ImageClip extentID="811" gapBefore="0" mediaItemID="807" duration="0.040000000000000001">
      <Effects />
      <Transitions />
      <BoundProperties>
        <BoundPropertyInt Name="rotateStepNinety" Value="0" />
      </BoundProperties>
    </ImageClip>
    <ImageClip extentID="812" gapBefore="0" mediaItemID="808" duration="0.040000000000000001">
      <Effects />
      <Transitions />
      <BoundProperties>
        <BoundPropertyInt Name="rotateStepNinety" Value="0" />
      </BoundProperties>
    </ImageClip>
    <ImageClip extentID="813" gapBefore="0" mediaItemID="809" duration="0.040000000000000001">
      <Effects />
      <Transitions />
      <BoundProperties>
        <BoundPropertyInt Name="rotateStepNinety" Value="0" />
      </BoundProperties>
    </ImageClip>
    <ImageClip extentID="814" gapBefore="0" mediaItemID="810" duration="0.040000000000000001">
      <Effects />
      <Transitions />
      <BoundProperties>
        <BoundPropertyInt Name="rotateStepNinety" Value="0" />
      </BoundProperties>
    </ImageClip>
    <ImageClip extentID="815" gapBefore="0" mediaItemID="811" duration="0.040000000000000001">
      <Effects />
      <Transitions />
      <BoundProperties>
        <BoundPropertyInt Name="rotateStepNinety" Value="0" />
      </BoundProperties>
    </ImageClip>
    <ImageClip extentID="816" gapBefore="0" mediaItemID="812" duration="0.040000000000000001">
      <Effects />
      <Transitions />
      <BoundProperties>
        <BoundPropertyInt Name="rotateStepNinety" Value="0" />
      </BoundProperties>
    </ImageClip>
    <ImageClip extentID="817" gapBefore="0" mediaItemID="813" duration="0.040000000000000001">
      <Effects />
      <Transitions />
      <BoundProperties>
        <BoundPropertyInt Name="rotateStepNinety" Value="0" />
      </BoundProperties>
    </ImageClip>
    <ImageClip extentID="818" gapBefore="0" mediaItemID="814" duration="0.040000000000000001">
      <Effects />
      <Transitions />
      <BoundProperties>
        <BoundPropertyInt Name="rotateStepNinety" Value="0" />
      </BoundProperties>
    </ImageClip>
    <ImageClip extentID="819" gapBefore="0" mediaItemID="815" duration="0.040000000000000001">
      <Effects />
      <Transitions />
      <BoundProperties>
        <BoundPropertyInt Name="rotateStepNinety" Value="0" />
      </BoundProperties>
    </ImageClip>
    <ImageClip extentID="820" gapBefore="0" mediaItemID="816" duration="0.040000000000000001">
      <Effects />
      <Transitions />
      <BoundProperties>
        <BoundPropertyInt Name="rotateStepNinety" Value="0" />
      </BoundProperties>
    </ImageClip>
    <ImageClip extentID="821" gapBefore="0" mediaItemID="817" duration="0.040000000000000001">
      <Effects />
      <Transitions />
      <BoundProperties>
        <BoundPropertyInt Name="rotateStepNinety" Value="0" />
      </BoundProperties>
    </ImageClip>
    <ImageClip extentID="822" gapBefore="0" mediaItemID="818" duration="0.040000000000000001">
      <Effects />
      <Transitions />
      <BoundProperties>
        <BoundPropertyInt Name="rotateStepNinety" Value="0" />
      </BoundProperties>
    </ImageClip>
    <ImageClip extentID="823" gapBefore="0" mediaItemID="819" duration="0.040000000000000001">
      <Effects />
      <Transitions />
      <BoundProperties>
        <BoundPropertyInt Name="rotateStepNinety" Value="0" />
      </BoundProperties>
    </ImageClip>
    <ImageClip extentID="824" gapBefore="0" mediaItemID="820" duration="0.040000000000000001">
      <Effects />
      <Transitions />
      <BoundProperties>
        <BoundPropertyInt Name="rotateStepNinety" Value="0" />
      </BoundProperties>
    </ImageClip>
    <ImageClip extentID="825" gapBefore="0" mediaItemID="821" duration="0.040000000000000001">
      <Effects />
      <Transitions />
      <BoundProperties>
        <BoundPropertyInt Name="rotateStepNinety" Value="0" />
      </BoundProperties>
    </ImageClip>
    <ImageClip extentID="826" gapBefore="0" mediaItemID="822" duration="0.040000000000000001">
      <Effects />
      <Transitions />
      <BoundProperties>
        <BoundPropertyInt Name="rotateStepNinety" Value="0" />
      </BoundProperties>
    </ImageClip>
    <ImageClip extentID="827" gapBefore="0" mediaItemID="823" duration="0.040000000000000001">
      <Effects />
      <Transitions />
      <BoundProperties>
        <BoundPropertyInt Name="rotateStepNinety" Value="0" />
      </BoundProperties>
    </ImageClip>
    <ImageClip extentID="828" gapBefore="0" mediaItemID="824" duration="0.040000000000000001">
      <Effects />
      <Transitions />
      <BoundProperties>
        <BoundPropertyInt Name="rotateStepNinety" Value="0" />
      </BoundProperties>
    </ImageClip>
    <ImageClip extentID="829" gapBefore="0" mediaItemID="825" duration="0.040000000000000001">
      <Effects />
      <Transitions />
      <BoundProperties>
        <BoundPropertyInt Name="rotateStepNinety" Value="0" />
      </BoundProperties>
    </ImageClip>
    <ImageClip extentID="830" gapBefore="0" mediaItemID="826" duration="0.040000000000000001">
      <Effects />
      <Transitions />
      <BoundProperties>
        <BoundPropertyInt Name="rotateStepNinety" Value="0" />
      </BoundProperties>
    </ImageClip>
    <ImageClip extentID="831" gapBefore="0" mediaItemID="827" duration="0.040000000000000001">
      <Effects />
      <Transitions />
      <BoundProperties>
        <BoundPropertyInt Name="rotateStepNinety" Value="0" />
      </BoundProperties>
    </ImageClip>
    <ImageClip extentID="832" gapBefore="0" mediaItemID="828" duration="0.040000000000000001">
      <Effects />
      <Transitions />
      <BoundProperties>
        <BoundPropertyInt Name="rotateStepNinety" Value="0" />
      </BoundProperties>
    </ImageClip>
    <ImageClip extentID="833" gapBefore="0" mediaItemID="829" duration="0.040000000000000001">
      <Effects />
      <Transitions />
      <BoundProperties>
        <BoundPropertyInt Name="rotateStepNinety" Value="0" />
      </BoundProperties>
    </ImageClip>
    <ImageClip extentID="834" gapBefore="0" mediaItemID="830" duration="0.040000000000000001">
      <Effects />
      <Transitions />
      <BoundProperties>
        <BoundPropertyInt Name="rotateStepNinety" Value="0" />
      </BoundProperties>
    </ImageClip>
    <ImageClip extentID="835" gapBefore="0" mediaItemID="831" duration="0.040000000000000001">
      <Effects />
      <Transitions />
      <BoundProperties>
        <BoundPropertyInt Name="rotateStepNinety" Value="0" />
      </BoundProperties>
    </ImageClip>
    <ImageClip extentID="836" gapBefore="0" mediaItemID="832" duration="0.040000000000000001">
      <Effects />
      <Transitions />
      <BoundProperties>
        <BoundPropertyInt Name="rotateStepNinety" Value="0" />
      </BoundProperties>
    </ImageClip>
    <ImageClip extentID="837" gapBefore="0" mediaItemID="833" duration="0.040000000000000001">
      <Effects />
      <Transitions />
      <BoundProperties>
        <BoundPropertyInt Name="rotateStepNinety" Value="0" />
      </BoundProperties>
    </ImageClip>
    <ImageClip extentID="838" gapBefore="0" mediaItemID="834" duration="0.040000000000000001">
      <Effects />
      <Transitions />
      <BoundProperties>
        <BoundPropertyInt Name="rotateStepNinety" Value="0" />
      </BoundProperties>
    </ImageClip>
    <ImageClip extentID="839" gapBefore="0" mediaItemID="835" duration="0.040000000000000001">
      <Effects />
      <Transitions />
      <BoundProperties>
        <BoundPropertyInt Name="rotateStepNinety" Value="0" />
      </BoundProperties>
    </ImageClip>
    <ImageClip extentID="840" gapBefore="0" mediaItemID="836" duration="0.040000000000000001">
      <Effects />
      <Transitions />
      <BoundProperties>
        <BoundPropertyInt Name="rotateStepNinety" Value="0" />
      </BoundProperties>
    </ImageClip>
    <ImageClip extentID="841" gapBefore="0" mediaItemID="837" duration="0.040000000000000001">
      <Effects />
      <Transitions />
      <BoundProperties>
        <BoundPropertyInt Name="rotateStepNinety" Value="0" />
      </BoundProperties>
    </ImageClip>
    <ImageClip extentID="842" gapBefore="0" mediaItemID="838" duration="0.040000000000000001">
      <Effects />
      <Transitions />
      <BoundProperties>
        <BoundPropertyInt Name="rotateStepNinety" Value="0" />
      </BoundProperties>
    </ImageClip>
    <ImageClip extentID="843" gapBefore="0" mediaItemID="839" duration="0.040000000000000001">
      <Effects />
      <Transitions />
      <BoundProperties>
        <BoundPropertyInt Name="rotateStepNinety" Value="0" />
      </BoundProperties>
    </ImageClip>
    <ImageClip extentID="844" gapBefore="0" mediaItemID="840" duration="0.040000000000000001">
      <Effects />
      <Transitions />
      <BoundProperties>
        <BoundPropertyInt Name="rotateStepNinety" Value="0" />
      </BoundProperties>
    </ImageClip>
    <ImageClip extentID="845" gapBefore="0" mediaItemID="841" duration="0.040000000000000001">
      <Effects />
      <Transitions />
      <BoundProperties>
        <BoundPropertyInt Name="rotateStepNinety" Value="0" />
      </BoundProperties>
    </ImageClip>
    <ImageClip extentID="846" gapBefore="0" mediaItemID="842" duration="0.040000000000000001">
      <Effects />
      <Transitions />
      <BoundProperties>
        <BoundPropertyInt Name="rotateStepNinety" Value="0" />
      </BoundProperties>
    </ImageClip>
    <ImageClip extentID="847" gapBefore="0" mediaItemID="843" duration="0.040000000000000001">
      <Effects />
      <Transitions />
      <BoundProperties>
        <BoundPropertyInt Name="rotateStepNinety" Value="0" />
      </BoundProperties>
    </ImageClip>
    <ImageClip extentID="848" gapBefore="0" mediaItemID="844" duration="0.040000000000000001">
      <Effects />
      <Transitions />
      <BoundProperties>
        <BoundPropertyInt Name="rotateStepNinety" Value="0" />
      </BoundProperties>
    </ImageClip>
    <ImageClip extentID="849" gapBefore="0" mediaItemID="845" duration="0.040000000000000001">
      <Effects />
      <Transitions />
      <BoundProperties>
        <BoundPropertyInt Name="rotateStepNinety" Value="0" />
      </BoundProperties>
    </ImageClip>
    <ImageClip extentID="850" gapBefore="0" mediaItemID="846" duration="0.040000000000000001">
      <Effects />
      <Transitions />
      <BoundProperties>
        <BoundPropertyInt Name="rotateStepNinety" Value="0" />
      </BoundProperties>
    </ImageClip>
    <ImageClip extentID="851" gapBefore="0" mediaItemID="847" duration="0.040000000000000001">
      <Effects />
      <Transitions />
      <BoundProperties>
        <BoundPropertyInt Name="rotateStepNinety" Value="0" />
      </BoundProperties>
    </ImageClip>
    <ImageClip extentID="852" gapBefore="0" mediaItemID="848" duration="0.040000000000000001">
      <Effects />
      <Transitions />
      <BoundProperties>
        <BoundPropertyInt Name="rotateStepNinety" Value="0" />
      </BoundProperties>
    </ImageClip>
    <ImageClip extentID="853" gapBefore="0" mediaItemID="849" duration="0.040000000000000001">
      <Effects />
      <Transitions />
      <BoundProperties>
        <BoundPropertyInt Name="rotateStepNinety" Value="0" />
      </BoundProperties>
    </ImageClip>
    <ImageClip extentID="854" gapBefore="0" mediaItemID="850" duration="0.040000000000000001">
      <Effects />
      <Transitions />
      <BoundProperties>
        <BoundPropertyInt Name="rotateStepNinety" Value="0" />
      </BoundProperties>
    </ImageClip>
    <ImageClip extentID="855" gapBefore="0" mediaItemID="851" duration="0.040000000000000001">
      <Effects />
      <Transitions />
      <BoundProperties>
        <BoundPropertyInt Name="rotateStepNinety" Value="0" />
      </BoundProperties>
    </ImageClip>
    <ImageClip extentID="856" gapBefore="0" mediaItemID="852" duration="0.040000000000000001">
      <Effects />
      <Transitions />
      <BoundProperties>
        <BoundPropertyInt Name="rotateStepNinety" Value="0" />
      </BoundProperties>
    </ImageClip>
    <ImageClip extentID="857" gapBefore="0" mediaItemID="853" duration="0.040000000000000001">
      <Effects />
      <Transitions />
      <BoundProperties>
        <BoundPropertyInt Name="rotateStepNinety" Value="0" />
      </BoundProperties>
    </ImageClip>
    <ImageClip extentID="858" gapBefore="0" mediaItemID="854" duration="0.040000000000000001">
      <Effects />
      <Transitions />
      <BoundProperties>
        <BoundPropertyInt Name="rotateStepNinety" Value="0" />
      </BoundProperties>
    </ImageClip>
    <ImageClip extentID="859" gapBefore="0" mediaItemID="855" duration="0.040000000000000001">
      <Effects />
      <Transitions />
      <BoundProperties>
        <BoundPropertyInt Name="rotateStepNinety" Value="0" />
      </BoundProperties>
    </ImageClip>
    <ImageClip extentID="860" gapBefore="0" mediaItemID="856" duration="0.040000000000000001">
      <Effects />
      <Transitions />
      <BoundProperties>
        <BoundPropertyInt Name="rotateStepNinety" Value="0" />
      </BoundProperties>
    </ImageClip>
    <ImageClip extentID="861" gapBefore="0" mediaItemID="857" duration="0.040000000000000001">
      <Effects />
      <Transitions />
      <BoundProperties>
        <BoundPropertyInt Name="rotateStepNinety" Value="0" />
      </BoundProperties>
    </ImageClip>
    <ImageClip extentID="862" gapBefore="0" mediaItemID="858" duration="0.040000000000000001">
      <Effects />
      <Transitions />
      <BoundProperties>
        <BoundPropertyInt Name="rotateStepNinety" Value="0" />
      </BoundProperties>
    </ImageClip>
    <ImageClip extentID="863" gapBefore="0" mediaItemID="859" duration="0.040000000000000001">
      <Effects />
      <Transitions />
      <BoundProperties>
        <BoundPropertyInt Name="rotateStepNinety" Value="0" />
      </BoundProperties>
    </ImageClip>
    <ImageClip extentID="864" gapBefore="0" mediaItemID="860" duration="0.040000000000000001">
      <Effects />
      <Transitions />
      <BoundProperties>
        <BoundPropertyInt Name="rotateStepNinety" Value="0" />
      </BoundProperties>
    </ImageClip>
    <ImageClip extentID="865" gapBefore="0" mediaItemID="861" duration="0.040000000000000001">
      <Effects />
      <Transitions />
      <BoundProperties>
        <BoundPropertyInt Name="rotateStepNinety" Value="0" />
      </BoundProperties>
    </ImageClip>
    <ImageClip extentID="866" gapBefore="0" mediaItemID="862" duration="0.040000000000000001">
      <Effects />
      <Transitions />
      <BoundProperties>
        <BoundPropertyInt Name="rotateStepNinety" Value="0" />
      </BoundProperties>
    </ImageClip>
    <ImageClip extentID="867" gapBefore="0" mediaItemID="863" duration="0.040000000000000001">
      <Effects />
      <Transitions />
      <BoundProperties>
        <BoundPropertyInt Name="rotateStepNinety" Value="0" />
      </BoundProperties>
    </ImageClip>
    <ImageClip extentID="868" gapBefore="0" mediaItemID="864" duration="0.040000000000000001">
      <Effects />
      <Transitions />
      <BoundProperties>
        <BoundPropertyInt Name="rotateStepNinety" Value="0" />
      </BoundProperties>
    </ImageClip>
    <ImageClip extentID="869" gapBefore="0" mediaItemID="865" duration="0.040000000000000001">
      <Effects />
      <Transitions />
      <BoundProperties>
        <BoundPropertyInt Name="rotateStepNinety" Value="0" />
      </BoundProperties>
    </ImageClip>
    <ImageClip extentID="870" gapBefore="0" mediaItemID="866" duration="0.040000000000000001">
      <Effects />
      <Transitions />
      <BoundProperties>
        <BoundPropertyInt Name="rotateStepNinety" Value="0" />
      </BoundProperties>
    </ImageClip>
    <ImageClip extentID="871" gapBefore="0" mediaItemID="867" duration="0.040000000000000001">
      <Effects />
      <Transitions />
      <BoundProperties>
        <BoundPropertyInt Name="rotateStepNinety" Value="0" />
      </BoundProperties>
    </ImageClip>
    <ImageClip extentID="872" gapBefore="0" mediaItemID="868" duration="0.040000000000000001">
      <Effects />
      <Transitions />
      <BoundProperties>
        <BoundPropertyInt Name="rotateStepNinety" Value="0" />
      </BoundProperties>
    </ImageClip>
    <ImageClip extentID="873" gapBefore="0" mediaItemID="869" duration="0.040000000000000001">
      <Effects />
      <Transitions />
      <BoundProperties>
        <BoundPropertyInt Name="rotateStepNinety" Value="0" />
      </BoundProperties>
    </ImageClip>
    <ImageClip extentID="874" gapBefore="0" mediaItemID="870" duration="0.040000000000000001">
      <Effects />
      <Transitions />
      <BoundProperties>
        <BoundPropertyInt Name="rotateStepNinety" Value="0" />
      </BoundProperties>
    </ImageClip>
    <ImageClip extentID="875" gapBefore="0" mediaItemID="871" duration="0.040000000000000001">
      <Effects />
      <Transitions />
      <BoundProperties>
        <BoundPropertyInt Name="rotateStepNinety" Value="0" />
      </BoundProperties>
    </ImageClip>
    <ImageClip extentID="876" gapBefore="0" mediaItemID="872" duration="0.040000000000000001">
      <Effects />
      <Transitions />
      <BoundProperties>
        <BoundPropertyInt Name="rotateStepNinety" Value="0" />
      </BoundProperties>
    </ImageClip>
    <ImageClip extentID="877" gapBefore="0" mediaItemID="873" duration="0.040000000000000001">
      <Effects />
      <Transitions />
      <BoundProperties>
        <BoundPropertyInt Name="rotateStepNinety" Value="0" />
      </BoundProperties>
    </ImageClip>
    <ImageClip extentID="878" gapBefore="0" mediaItemID="874" duration="0.040000000000000001">
      <Effects />
      <Transitions />
      <BoundProperties>
        <BoundPropertyInt Name="rotateStepNinety" Value="0" />
      </BoundProperties>
    </ImageClip>
    <ImageClip extentID="879" gapBefore="0" mediaItemID="875" duration="0.040000000000000001">
      <Effects />
      <Transitions />
      <BoundProperties>
        <BoundPropertyInt Name="rotateStepNinety" Value="0" />
      </BoundProperties>
    </ImageClip>
    <ImageClip extentID="880" gapBefore="0" mediaItemID="876" duration="0.040000000000000001">
      <Effects />
      <Transitions />
      <BoundProperties>
        <BoundPropertyInt Name="rotateStepNinety" Value="0" />
      </BoundProperties>
    </ImageClip>
    <ImageClip extentID="881" gapBefore="0" mediaItemID="877" duration="0.040000000000000001">
      <Effects />
      <Transitions />
      <BoundProperties>
        <BoundPropertyInt Name="rotateStepNinety" Value="0" />
      </BoundProperties>
    </ImageClip>
    <ImageClip extentID="882" gapBefore="0" mediaItemID="878" duration="0.040000000000000001">
      <Effects />
      <Transitions />
      <BoundProperties>
        <BoundPropertyInt Name="rotateStepNinety" Value="0" />
      </BoundProperties>
    </ImageClip>
    <ImageClip extentID="883" gapBefore="0" mediaItemID="879" duration="0.040000000000000001">
      <Effects />
      <Transitions />
      <BoundProperties>
        <BoundPropertyInt Name="rotateStepNinety" Value="0" />
      </BoundProperties>
    </ImageClip>
    <ImageClip extentID="884" gapBefore="0" mediaItemID="880" duration="0.040000000000000001">
      <Effects />
      <Transitions />
      <BoundProperties>
        <BoundPropertyInt Name="rotateStepNinety" Value="0" />
      </BoundProperties>
    </ImageClip>
    <ImageClip extentID="885" gapBefore="0" mediaItemID="881" duration="0.040000000000000001">
      <Effects />
      <Transitions />
      <BoundProperties>
        <BoundPropertyInt Name="rotateStepNinety" Value="0" />
      </BoundProperties>
    </ImageClip>
    <ImageClip extentID="886" gapBefore="0" mediaItemID="882" duration="0.040000000000000001">
      <Effects />
      <Transitions />
      <BoundProperties>
        <BoundPropertyInt Name="rotateStepNinety" Value="0" />
      </BoundProperties>
    </ImageClip>
    <ImageClip extentID="887" gapBefore="0" mediaItemID="883" duration="0.040000000000000001">
      <Effects />
      <Transitions />
      <BoundProperties>
        <BoundPropertyInt Name="rotateStepNinety" Value="0" />
      </BoundProperties>
    </ImageClip>
    <ImageClip extentID="888" gapBefore="0" mediaItemID="884" duration="0.040000000000000001">
      <Effects />
      <Transitions />
      <BoundProperties>
        <BoundPropertyInt Name="rotateStepNinety" Value="0" />
      </BoundProperties>
    </ImageClip>
    <ImageClip extentID="889" gapBefore="0" mediaItemID="885" duration="0.040000000000000001">
      <Effects />
      <Transitions />
      <BoundProperties>
        <BoundPropertyInt Name="rotateStepNinety" Value="0" />
      </BoundProperties>
    </ImageClip>
    <ImageClip extentID="890" gapBefore="0" mediaItemID="886" duration="0.040000000000000001">
      <Effects />
      <Transitions />
      <BoundProperties>
        <BoundPropertyInt Name="rotateStepNinety" Value="0" />
      </BoundProperties>
    </ImageClip>
    <ImageClip extentID="891" gapBefore="0" mediaItemID="887" duration="0.040000000000000001">
      <Effects />
      <Transitions />
      <BoundProperties>
        <BoundPropertyInt Name="rotateStepNinety" Value="0" />
      </BoundProperties>
    </ImageClip>
    <ImageClip extentID="892" gapBefore="0" mediaItemID="888" duration="0.040000000000000001">
      <Effects />
      <Transitions />
      <BoundProperties>
        <BoundPropertyInt Name="rotateStepNinety" Value="0" />
      </BoundProperties>
    </ImageClip>
    <ImageClip extentID="893" gapBefore="0" mediaItemID="889" duration="0.040000000000000001">
      <Effects />
      <Transitions />
      <BoundProperties>
        <BoundPropertyInt Name="rotateStepNinety" Value="0" />
      </BoundProperties>
    </ImageClip>
    <ImageClip extentID="894" gapBefore="0" mediaItemID="890" duration="0.040000000000000001">
      <Effects />
      <Transitions />
      <BoundProperties>
        <BoundPropertyInt Name="rotateStepNinety" Value="0" />
      </BoundProperties>
    </ImageClip>
    <ImageClip extentID="895" gapBefore="0" mediaItemID="891" duration="0.040000000000000001">
      <Effects />
      <Transitions />
      <BoundProperties>
        <BoundPropertyInt Name="rotateStepNinety" Value="0" />
      </BoundProperties>
    </ImageClip>
    <ImageClip extentID="896" gapBefore="0" mediaItemID="892" duration="0.040000000000000001">
      <Effects />
      <Transitions />
      <BoundProperties>
        <BoundPropertyInt Name="rotateStepNinety" Value="0" />
      </BoundProperties>
    </ImageClip>
    <ImageClip extentID="897" gapBefore="0" mediaItemID="893" duration="0.040000000000000001">
      <Effects />
      <Transitions />
      <BoundProperties>
        <BoundPropertyInt Name="rotateStepNinety" Value="0" />
      </BoundProperties>
    </ImageClip>
    <ImageClip extentID="898" gapBefore="0" mediaItemID="894" duration="0.040000000000000001">
      <Effects />
      <Transitions />
      <BoundProperties>
        <BoundPropertyInt Name="rotateStepNinety" Value="0" />
      </BoundProperties>
    </ImageClip>
    <ImageClip extentID="899" gapBefore="0" mediaItemID="895" duration="0.040000000000000001">
      <Effects />
      <Transitions />
      <BoundProperties>
        <BoundPropertyInt Name="rotateStepNinety" Value="0" />
      </BoundProperties>
    </ImageClip>
    <ImageClip extentID="900" gapBefore="0" mediaItemID="896" duration="0.040000000000000001">
      <Effects />
      <Transitions />
      <BoundProperties>
        <BoundPropertyInt Name="rotateStepNinety" Value="0" />
      </BoundProperties>
    </ImageClip>
    <ImageClip extentID="901" gapBefore="0" mediaItemID="897" duration="0.040000000000000001">
      <Effects />
      <Transitions />
      <BoundProperties>
        <BoundPropertyInt Name="rotateStepNinety" Value="0" />
      </BoundProperties>
    </ImageClip>
    <ImageClip extentID="902" gapBefore="0" mediaItemID="898" duration="0.040000000000000001">
      <Effects />
      <Transitions />
      <BoundProperties>
        <BoundPropertyInt Name="rotateStepNinety" Value="0" />
      </BoundProperties>
    </ImageClip>
    <ImageClip extentID="903" gapBefore="0" mediaItemID="899" duration="0.040000000000000001">
      <Effects />
      <Transitions />
      <BoundProperties>
        <BoundPropertyInt Name="rotateStepNinety" Value="0" />
      </BoundProperties>
    </ImageClip>
    <ImageClip extentID="904" gapBefore="0" mediaItemID="900" duration="0.040000000000000001">
      <Effects />
      <Transitions />
      <BoundProperties>
        <BoundPropertyInt Name="rotateStepNinety" Value="0" />
      </BoundProperties>
    </ImageClip>
    <ImageClip extentID="905" gapBefore="0" mediaItemID="901" duration="0.040000000000000001">
      <Effects />
      <Transitions />
      <BoundProperties>
        <BoundPropertyInt Name="rotateStepNinety" Value="0" />
      </BoundProperties>
    </ImageClip>
    <ImageClip extentID="906" gapBefore="0" mediaItemID="902" duration="0.040000000000000001">
      <Effects />
      <Transitions />
      <BoundProperties>
        <BoundPropertyInt Name="rotateStepNinety" Value="0" />
      </BoundProperties>
    </ImageClip>
    <ImageClip extentID="907" gapBefore="0" mediaItemID="903" duration="0.040000000000000001">
      <Effects />
      <Transitions />
      <BoundProperties>
        <BoundPropertyInt Name="rotateStepNinety" Value="0" />
      </BoundProperties>
    </ImageClip>
    <ImageClip extentID="908" gapBefore="0" mediaItemID="904" duration="0.040000000000000001">
      <Effects />
      <Transitions />
      <BoundProperties>
        <BoundPropertyInt Name="rotateStepNinety" Value="0" />
      </BoundProperties>
    </ImageClip>
    <ImageClip extentID="909" gapBefore="0" mediaItemID="905" duration="0.040000000000000001">
      <Effects />
      <Transitions />
      <BoundProperties>
        <BoundPropertyInt Name="rotateStepNinety" Value="0" />
      </BoundProperties>
    </ImageClip>
    <ImageClip extentID="910" gapBefore="0" mediaItemID="906" duration="0.040000000000000001">
      <Effects />
      <Transitions />
      <BoundProperties>
        <BoundPropertyInt Name="rotateStepNinety" Value="0" />
      </BoundProperties>
    </ImageClip>
    <ImageClip extentID="911" gapBefore="0" mediaItemID="907" duration="0.040000000000000001">
      <Effects />
      <Transitions />
      <BoundProperties>
        <BoundPropertyInt Name="rotateStepNinety" Value="0" />
      </BoundProperties>
    </ImageClip>
    <ImageClip extentID="912" gapBefore="0" mediaItemID="908" duration="0.040000000000000001">
      <Effects />
      <Transitions />
      <BoundProperties>
        <BoundPropertyInt Name="rotateStepNinety" Value="0" />
      </BoundProperties>
    </ImageClip>
    <ImageClip extentID="913" gapBefore="0" mediaItemID="909" duration="0.040000000000000001">
      <Effects />
      <Transitions />
      <BoundProperties>
        <BoundPropertyInt Name="rotateStepNinety" Value="0" />
      </BoundProperties>
    </ImageClip>
    <ImageClip extentID="914" gapBefore="0" mediaItemID="910" duration="0.040000000000000001">
      <Effects />
      <Transitions />
      <BoundProperties>
        <BoundPropertyInt Name="rotateStepNinety" Value="0" />
      </BoundProperties>
    </ImageClip>
    <ImageClip extentID="915" gapBefore="0" mediaItemID="911" duration="0.040000000000000001">
      <Effects />
      <Transitions />
      <BoundProperties>
        <BoundPropertyInt Name="rotateStepNinety" Value="0" />
      </BoundProperties>
    </ImageClip>
    <ImageClip extentID="916" gapBefore="0" mediaItemID="912" duration="0.040000000000000001">
      <Effects />
      <Transitions />
      <BoundProperties>
        <BoundPropertyInt Name="rotateStepNinety" Value="0" />
      </BoundProperties>
    </ImageClip>
    <ImageClip extentID="917" gapBefore="0" mediaItemID="913" duration="0.040000000000000001">
      <Effects />
      <Transitions />
      <BoundProperties>
        <BoundPropertyInt Name="rotateStepNinety" Value="0" />
      </BoundProperties>
    </ImageClip>
    <ImageClip extentID="918" gapBefore="0" mediaItemID="914" duration="0.040000000000000001">
      <Effects />
      <Transitions />
      <BoundProperties>
        <BoundPropertyInt Name="rotateStepNinety" Value="0" />
      </BoundProperties>
    </ImageClip>
    <ImageClip extentID="919" gapBefore="0" mediaItemID="915" duration="0.040000000000000001">
      <Effects />
      <Transitions />
      <BoundProperties>
        <BoundPropertyInt Name="rotateStepNinety" Value="0" />
      </BoundProperties>
    </ImageClip>
    <ImageClip extentID="920" gapBefore="0" mediaItemID="916" duration="0.040000000000000001">
      <Effects />
      <Transitions />
      <BoundProperties>
        <BoundPropertyInt Name="rotateStepNinety" Value="0" />
      </BoundProperties>
    </ImageClip>
    <ImageClip extentID="921" gapBefore="0" mediaItemID="917" duration="0.040000000000000001">
      <Effects />
      <Transitions />
      <BoundProperties>
        <BoundPropertyInt Name="rotateStepNinety" Value="0" />
      </BoundProperties>
    </ImageClip>
    <ImageClip extentID="922" gapBefore="0" mediaItemID="918" duration="0.040000000000000001">
      <Effects />
      <Transitions />
      <BoundProperties>
        <BoundPropertyInt Name="rotateStepNinety" Value="0" />
      </BoundProperties>
    </ImageClip>
    <ImageClip extentID="923" gapBefore="0" mediaItemID="919" duration="0.040000000000000001">
      <Effects />
      <Transitions />
      <BoundProperties>
        <BoundPropertyInt Name="rotateStepNinety" Value="0" />
      </BoundProperties>
    </ImageClip>
    <ImageClip extentID="924" gapBefore="0" mediaItemID="920" duration="0.040000000000000001">
      <Effects />
      <Transitions />
      <BoundProperties>
        <BoundPropertyInt Name="rotateStepNinety" Value="0" />
      </BoundProperties>
    </ImageClip>
    <ImageClip extentID="925" gapBefore="0" mediaItemID="921" duration="0.040000000000000001">
      <Effects />
      <Transitions />
      <BoundProperties>
        <BoundPropertyInt Name="rotateStepNinety" Value="0" />
      </BoundProperties>
    </ImageClip>
    <ImageClip extentID="926" gapBefore="0" mediaItemID="922" duration="0.040000000000000001">
      <Effects />
      <Transitions />
      <BoundProperties>
        <BoundPropertyInt Name="rotateStepNinety" Value="0" />
      </BoundProperties>
    </ImageClip>
    <ImageClip extentID="927" gapBefore="0" mediaItemID="923" duration="0.040000000000000001">
      <Effects />
      <Transitions />
      <BoundProperties>
        <BoundPropertyInt Name="rotateStepNinety" Value="0" />
      </BoundProperties>
    </ImageClip>
    <ImageClip extentID="928" gapBefore="0" mediaItemID="924" duration="0.040000000000000001">
      <Effects />
      <Transitions />
      <BoundProperties>
        <BoundPropertyInt Name="rotateStepNinety" Value="0" />
      </BoundProperties>
    </ImageClip>
    <ImageClip extentID="929" gapBefore="0" mediaItemID="925" duration="0.040000000000000001">
      <Effects />
      <Transitions />
      <BoundProperties>
        <BoundPropertyInt Name="rotateStepNinety" Value="0" />
      </BoundProperties>
    </ImageClip>
    <ImageClip extentID="930" gapBefore="0" mediaItemID="926" duration="0.040000000000000001">
      <Effects />
      <Transitions />
      <BoundProperties>
        <BoundPropertyInt Name="rotateStepNinety" Value="0" />
      </BoundProperties>
    </ImageClip>
    <ImageClip extentID="931" gapBefore="0" mediaItemID="927" duration="0.040000000000000001">
      <Effects />
      <Transitions />
      <BoundProperties>
        <BoundPropertyInt Name="rotateStepNinety" Value="0" />
      </BoundProperties>
    </ImageClip>
    <ImageClip extentID="932" gapBefore="0" mediaItemID="928" duration="0.040000000000000001">
      <Effects />
      <Transitions />
      <BoundProperties>
        <BoundPropertyInt Name="rotateStepNinety" Value="0" />
      </BoundProperties>
    </ImageClip>
    <ImageClip extentID="933" gapBefore="0" mediaItemID="929" duration="0.040000000000000001">
      <Effects />
      <Transitions />
      <BoundProperties>
        <BoundPropertyInt Name="rotateStepNinety" Value="0" />
      </BoundProperties>
    </ImageClip>
    <ImageClip extentID="934" gapBefore="0" mediaItemID="930" duration="0.040000000000000001">
      <Effects />
      <Transitions />
      <BoundProperties>
        <BoundPropertyInt Name="rotateStepNinety" Value="0" />
      </BoundProperties>
    </ImageClip>
    <ImageClip extentID="935" gapBefore="0" mediaItemID="931" duration="0.040000000000000001">
      <Effects />
      <Transitions />
      <BoundProperties>
        <BoundPropertyInt Name="rotateStepNinety" Value="0" />
      </BoundProperties>
    </ImageClip>
    <ImageClip extentID="936" gapBefore="0" mediaItemID="932" duration="0.040000000000000001">
      <Effects />
      <Transitions />
      <BoundProperties>
        <BoundPropertyInt Name="rotateStepNinety" Value="0" />
      </BoundProperties>
    </ImageClip>
    <ImageClip extentID="937" gapBefore="0" mediaItemID="933" duration="0.040000000000000001">
      <Effects />
      <Transitions />
      <BoundProperties>
        <BoundPropertyInt Name="rotateStepNinety" Value="0" />
      </BoundProperties>
    </ImageClip>
    <ImageClip extentID="938" gapBefore="0" mediaItemID="934" duration="0.040000000000000001">
      <Effects />
      <Transitions />
      <BoundProperties>
        <BoundPropertyInt Name="rotateStepNinety" Value="0" />
      </BoundProperties>
    </ImageClip>
    <ImageClip extentID="939" gapBefore="0" mediaItemID="935" duration="0.040000000000000001">
      <Effects />
      <Transitions />
      <BoundProperties>
        <BoundPropertyInt Name="rotateStepNinety" Value="0" />
      </BoundProperties>
    </ImageClip>
    <ImageClip extentID="940" gapBefore="0" mediaItemID="936" duration="0.040000000000000001">
      <Effects />
      <Transitions />
      <BoundProperties>
        <BoundPropertyInt Name="rotateStepNinety" Value="0" />
      </BoundProperties>
    </ImageClip>
    <ImageClip extentID="941" gapBefore="0" mediaItemID="937" duration="0.040000000000000001">
      <Effects />
      <Transitions />
      <BoundProperties>
        <BoundPropertyInt Name="rotateStepNinety" Value="0" />
      </BoundProperties>
    </ImageClip>
    <ImageClip extentID="942" gapBefore="0" mediaItemID="938" duration="0.040000000000000001">
      <Effects />
      <Transitions />
      <BoundProperties>
        <BoundPropertyInt Name="rotateStepNinety" Value="0" />
      </BoundProperties>
    </ImageClip>
    <ImageClip extentID="943" gapBefore="0" mediaItemID="939" duration="0.040000000000000001">
      <Effects />
      <Transitions />
      <BoundProperties>
        <BoundPropertyInt Name="rotateStepNinety" Value="0" />
      </BoundProperties>
    </ImageClip>
    <ImageClip extentID="944" gapBefore="0" mediaItemID="940" duration="0.040000000000000001">
      <Effects />
      <Transitions />
      <BoundProperties>
        <BoundPropertyInt Name="rotateStepNinety" Value="0" />
      </BoundProperties>
    </ImageClip>
    <ImageClip extentID="945" gapBefore="0" mediaItemID="941" duration="0.040000000000000001">
      <Effects />
      <Transitions />
      <BoundProperties>
        <BoundPropertyInt Name="rotateStepNinety" Value="0" />
      </BoundProperties>
    </ImageClip>
    <ImageClip extentID="946" gapBefore="0" mediaItemID="942" duration="0.040000000000000001">
      <Effects />
      <Transitions />
      <BoundProperties>
        <BoundPropertyInt Name="rotateStepNinety" Value="0" />
      </BoundProperties>
    </ImageClip>
    <ImageClip extentID="947" gapBefore="0" mediaItemID="943" duration="0.040000000000000001">
      <Effects />
      <Transitions />
      <BoundProperties>
        <BoundPropertyInt Name="rotateStepNinety" Value="0" />
      </BoundProperties>
    </ImageClip>
    <ImageClip extentID="948" gapBefore="0" mediaItemID="944" duration="0.040000000000000001">
      <Effects />
      <Transitions />
      <BoundProperties>
        <BoundPropertyInt Name="rotateStepNinety" Value="0" />
      </BoundProperties>
    </ImageClip>
    <ImageClip extentID="949" gapBefore="0" mediaItemID="945" duration="0.040000000000000001">
      <Effects />
      <Transitions />
      <BoundProperties>
        <BoundPropertyInt Name="rotateStepNinety" Value="0" />
      </BoundProperties>
    </ImageClip>
    <ImageClip extentID="950" gapBefore="0" mediaItemID="946" duration="0.040000000000000001">
      <Effects />
      <Transitions />
      <BoundProperties>
        <BoundPropertyInt Name="rotateStepNinety" Value="0" />
      </BoundProperties>
    </ImageClip>
    <ImageClip extentID="951" gapBefore="0" mediaItemID="947" duration="0.040000000000000001">
      <Effects />
      <Transitions />
      <BoundProperties>
        <BoundPropertyInt Name="rotateStepNinety" Value="0" />
      </BoundProperties>
    </ImageClip>
    <ImageClip extentID="952" gapBefore="0" mediaItemID="948" duration="0.040000000000000001">
      <Effects />
      <Transitions />
      <BoundProperties>
        <BoundPropertyInt Name="rotateStepNinety" Value="0" />
      </BoundProperties>
    </ImageClip>
    <ImageClip extentID="953" gapBefore="0" mediaItemID="949" duration="0.040000000000000001">
      <Effects />
      <Transitions />
      <BoundProperties>
        <BoundPropertyInt Name="rotateStepNinety" Value="0" />
      </BoundProperties>
    </ImageClip>
    <ImageClip extentID="954" gapBefore="0" mediaItemID="950" duration="0.040000000000000001">
      <Effects />
      <Transitions />
      <BoundProperties>
        <BoundPropertyInt Name="rotateStepNinety" Value="0" />
      </BoundProperties>
    </ImageClip>
    <ImageClip extentID="955" gapBefore="0" mediaItemID="951" duration="0.040000000000000001">
      <Effects />
      <Transitions />
      <BoundProperties>
        <BoundPropertyInt Name="rotateStepNinety" Value="0" />
      </BoundProperties>
    </ImageClip>
    <ImageClip extentID="956" gapBefore="0" mediaItemID="952" duration="0.040000000000000001">
      <Effects />
      <Transitions />
      <BoundProperties>
        <BoundPropertyInt Name="rotateStepNinety" Value="0" />
      </BoundProperties>
    </ImageClip>
    <ImageClip extentID="957" gapBefore="0" mediaItemID="953" duration="0.040000000000000001">
      <Effects />
      <Transitions />
      <BoundProperties>
        <BoundPropertyInt Name="rotateStepNinety" Value="0" />
      </BoundProperties>
    </ImageClip>
    <ImageClip extentID="958" gapBefore="0" mediaItemID="954" duration="0.040000000000000001">
      <Effects />
      <Transitions />
      <BoundProperties>
        <BoundPropertyInt Name="rotateStepNinety" Value="0" />
      </BoundProperties>
    </ImageClip>
    <ImageClip extentID="959" gapBefore="0" mediaItemID="955" duration="0.040000000000000001">
      <Effects />
      <Transitions />
      <BoundProperties>
        <BoundPropertyInt Name="rotateStepNinety" Value="0" />
      </BoundProperties>
    </ImageClip>
    <ImageClip extentID="960" gapBefore="0" mediaItemID="956" duration="0.040000000000000001">
      <Effects />
      <Transitions />
      <BoundProperties>
        <BoundPropertyInt Name="rotateStepNinety" Value="0" />
      </BoundProperties>
    </ImageClip>
    <ImageClip extentID="961" gapBefore="0" mediaItemID="957" duration="0.040000000000000001">
      <Effects />
      <Transitions />
      <BoundProperties>
        <BoundPropertyInt Name="rotateStepNinety" Value="0" />
      </BoundProperties>
    </ImageClip>
    <ImageClip extentID="962" gapBefore="0" mediaItemID="958" duration="0.040000000000000001">
      <Effects />
      <Transitions />
      <BoundProperties>
        <BoundPropertyInt Name="rotateStepNinety" Value="0" />
      </BoundProperties>
    </ImageClip>
    <ImageClip extentID="963" gapBefore="0" mediaItemID="959" duration="0.040000000000000001">
      <Effects />
      <Transitions />
      <BoundProperties>
        <BoundPropertyInt Name="rotateStepNinety" Value="0" />
      </BoundProperties>
    </ImageClip>
    <ImageClip extentID="964" gapBefore="0" mediaItemID="960" duration="0.040000000000000001">
      <Effects />
      <Transitions />
      <BoundProperties>
        <BoundPropertyInt Name="rotateStepNinety" Value="0" />
      </BoundProperties>
    </ImageClip>
    <ImageClip extentID="965" gapBefore="0" mediaItemID="961" duration="0.040000000000000001">
      <Effects />
      <Transitions />
      <BoundProperties>
        <BoundPropertyInt Name="rotateStepNinety" Value="0" />
      </BoundProperties>
    </ImageClip>
    <ImageClip extentID="966" gapBefore="0" mediaItemID="962" duration="0.040000000000000001">
      <Effects />
      <Transitions />
      <BoundProperties>
        <BoundPropertyInt Name="rotateStepNinety" Value="0" />
      </BoundProperties>
    </ImageClip>
    <ImageClip extentID="967" gapBefore="0" mediaItemID="963" duration="0.040000000000000001">
      <Effects />
      <Transitions />
      <BoundProperties>
        <BoundPropertyInt Name="rotateStepNinety" Value="0" />
      </BoundProperties>
    </ImageClip>
    <ImageClip extentID="968" gapBefore="0" mediaItemID="964" duration="0.040000000000000001">
      <Effects />
      <Transitions />
      <BoundProperties>
        <BoundPropertyInt Name="rotateStepNinety" Value="0" />
      </BoundProperties>
    </ImageClip>
    <ImageClip extentID="969" gapBefore="0" mediaItemID="965" duration="0.040000000000000001">
      <Effects />
      <Transitions />
      <BoundProperties>
        <BoundPropertyInt Name="rotateStepNinety" Value="0" />
      </BoundProperties>
    </ImageClip>
    <ImageClip extentID="970" gapBefore="0" mediaItemID="966" duration="0.040000000000000001">
      <Effects />
      <Transitions />
      <BoundProperties>
        <BoundPropertyInt Name="rotateStepNinety" Value="0" />
      </BoundProperties>
    </ImageClip>
    <ImageClip extentID="971" gapBefore="0" mediaItemID="967" duration="0.040000000000000001">
      <Effects />
      <Transitions />
      <BoundProperties>
        <BoundPropertyInt Name="rotateStepNinety" Value="0" />
      </BoundProperties>
    </ImageClip>
    <ImageClip extentID="972" gapBefore="0" mediaItemID="968" duration="0.040000000000000001">
      <Effects />
      <Transitions />
      <BoundProperties>
        <BoundPropertyInt Name="rotateStepNinety" Value="0" />
      </BoundProperties>
    </ImageClip>
    <ImageClip extentID="973" gapBefore="0" mediaItemID="969" duration="0.040000000000000001">
      <Effects />
      <Transitions />
      <BoundProperties>
        <BoundPropertyInt Name="rotateStepNinety" Value="0" />
      </BoundProperties>
    </ImageClip>
    <ImageClip extentID="974" gapBefore="0" mediaItemID="970" duration="0.040000000000000001">
      <Effects />
      <Transitions />
      <BoundProperties>
        <BoundPropertyInt Name="rotateStepNinety" Value="0" />
      </BoundProperties>
    </ImageClip>
    <ImageClip extentID="975" gapBefore="0" mediaItemID="971" duration="0.040000000000000001">
      <Effects />
      <Transitions />
      <BoundProperties>
        <BoundPropertyInt Name="rotateStepNinety" Value="0" />
      </BoundProperties>
    </ImageClip>
    <ImageClip extentID="976" gapBefore="0" mediaItemID="972" duration="0.040000000000000001">
      <Effects />
      <Transitions />
      <BoundProperties>
        <BoundPropertyInt Name="rotateStepNinety" Value="0" />
      </BoundProperties>
    </ImageClip>
    <ImageClip extentID="977" gapBefore="0" mediaItemID="973" duration="0.040000000000000001">
      <Effects />
      <Transitions />
      <BoundProperties>
        <BoundPropertyInt Name="rotateStepNinety" Value="0" />
      </BoundProperties>
    </ImageClip>
    <ImageClip extentID="978" gapBefore="0" mediaItemID="974" duration="0.040000000000000001">
      <Effects />
      <Transitions />
      <BoundProperties>
        <BoundPropertyInt Name="rotateStepNinety" Value="0" />
      </BoundProperties>
    </ImageClip>
    <ImageClip extentID="979" gapBefore="0" mediaItemID="975" duration="0.040000000000000001">
      <Effects />
      <Transitions />
      <BoundProperties>
        <BoundPropertyInt Name="rotateStepNinety" Value="0" />
      </BoundProperties>
    </ImageClip>
    <ImageClip extentID="980" gapBefore="0" mediaItemID="976" duration="0.040000000000000001">
      <Effects />
      <Transitions />
      <BoundProperties>
        <BoundPropertyInt Name="rotateStepNinety" Value="0" />
      </BoundProperties>
    </ImageClip>
    <ImageClip extentID="981" gapBefore="0" mediaItemID="977" duration="0.040000000000000001">
      <Effects />
      <Transitions />
      <BoundProperties>
        <BoundPropertyInt Name="rotateStepNinety" Value="0" />
      </BoundProperties>
    </ImageClip>
    <ImageClip extentID="982" gapBefore="0" mediaItemID="978" duration="0.040000000000000001">
      <Effects />
      <Transitions />
      <BoundProperties>
        <BoundPropertyInt Name="rotateStepNinety" Value="0" />
      </BoundProperties>
    </ImageClip>
    <ImageClip extentID="983" gapBefore="0" mediaItemID="979" duration="0.040000000000000001">
      <Effects />
      <Transitions />
      <BoundProperties>
        <BoundPropertyInt Name="rotateStepNinety" Value="0" />
      </BoundProperties>
    </ImageClip>
    <ImageClip extentID="984" gapBefore="0" mediaItemID="980" duration="0.040000000000000001">
      <Effects />
      <Transitions />
      <BoundProperties>
        <BoundPropertyInt Name="rotateStepNinety" Value="0" />
      </BoundProperties>
    </ImageClip>
    <ImageClip extentID="985" gapBefore="0" mediaItemID="981" duration="0.040000000000000001">
      <Effects />
      <Transitions />
      <BoundProperties>
        <BoundPropertyInt Name="rotateStepNinety" Value="0" />
      </BoundProperties>
    </ImageClip>
    <ImageClip extentID="986" gapBefore="0" mediaItemID="982" duration="0.040000000000000001">
      <Effects />
      <Transitions />
      <BoundProperties>
        <BoundPropertyInt Name="rotateStepNinety" Value="0" />
      </BoundProperties>
    </ImageClip>
    <ImageClip extentID="987" gapBefore="0" mediaItemID="983" duration="0.040000000000000001">
      <Effects />
      <Transitions />
      <BoundProperties>
        <BoundPropertyInt Name="rotateStepNinety" Value="0" />
      </BoundProperties>
    </ImageClip>
    <ImageClip extentID="988" gapBefore="0" mediaItemID="984" duration="0.040000000000000001">
      <Effects />
      <Transitions />
      <BoundProperties>
        <BoundPropertyInt Name="rotateStepNinety" Value="0" />
      </BoundProperties>
    </ImageClip>
    <ImageClip extentID="989" gapBefore="0" mediaItemID="985" duration="0.040000000000000001">
      <Effects />
      <Transitions />
      <BoundProperties>
        <BoundPropertyInt Name="rotateStepNinety" Value="0" />
      </BoundProperties>
    </ImageClip>
    <ImageClip extentID="990" gapBefore="0" mediaItemID="986" duration="0.040000000000000001">
      <Effects />
      <Transitions />
      <BoundProperties>
        <BoundPropertyInt Name="rotateStepNinety" Value="0" />
      </BoundProperties>
    </ImageClip>
    <ImageClip extentID="991" gapBefore="0" mediaItemID="987" duration="0.040000000000000001">
      <Effects />
      <Transitions />
      <BoundProperties>
        <BoundPropertyInt Name="rotateStepNinety" Value="0" />
      </BoundProperties>
    </ImageClip>
    <ImageClip extentID="992" gapBefore="0" mediaItemID="988" duration="0.040000000000000001">
      <Effects />
      <Transitions />
      <BoundProperties>
        <BoundPropertyInt Name="rotateStepNinety" Value="0" />
      </BoundProperties>
    </ImageClip>
    <ImageClip extentID="993" gapBefore="0" mediaItemID="989" duration="0.040000000000000001">
      <Effects />
      <Transitions />
      <BoundProperties>
        <BoundPropertyInt Name="rotateStepNinety" Value="0" />
      </BoundProperties>
    </ImageClip>
    <ImageClip extentID="994" gapBefore="0" mediaItemID="990" duration="0.040000000000000001">
      <Effects />
      <Transitions />
      <BoundProperties>
        <BoundPropertyInt Name="rotateStepNinety" Value="0" />
      </BoundProperties>
    </ImageClip>
    <ImageClip extentID="995" gapBefore="0" mediaItemID="991" duration="0.040000000000000001">
      <Effects />
      <Transitions />
      <BoundProperties>
        <BoundPropertyInt Name="rotateStepNinety" Value="0" />
      </BoundProperties>
    </ImageClip>
    <ImageClip extentID="996" gapBefore="0" mediaItemID="992" duration="0.040000000000000001">
      <Effects />
      <Transitions />
      <BoundProperties>
        <BoundPropertyInt Name="rotateStepNinety" Value="0" />
      </BoundProperties>
    </ImageClip>
    <ImageClip extentID="997" gapBefore="0" mediaItemID="993" duration="0.040000000000000001">
      <Effects />
      <Transitions />
      <BoundProperties>
        <BoundPropertyInt Name="rotateStepNinety" Value="0" />
      </BoundProperties>
    </ImageClip>
    <ImageClip extentID="998" gapBefore="0" mediaItemID="994" duration="0.040000000000000001">
      <Effects />
      <Transitions />
      <BoundProperties>
        <BoundPropertyInt Name="rotateStepNinety" Value="0" />
      </BoundProperties>
    </ImageClip>
    <ImageClip extentID="999" gapBefore="0" mediaItemID="995" duration="0.040000000000000001">
      <Effects />
      <Transitions />
      <BoundProperties>
        <BoundPropertyInt Name="rotateStepNinety" Value="0" />
      </BoundProperties>
    </ImageClip>
    <ImageClip extentID="1000" gapBefore="0" mediaItemID="996" duration="0.040000000000000001">
      <Effects />
      <Transitions />
      <BoundProperties>
        <BoundPropertyInt Name="rotateStepNinety" Value="0" />
      </BoundProperties>
    </ImageClip>
    <ImageClip extentID="1001" gapBefore="0" mediaItemID="997" duration="0.040000000000000001">
      <Effects />
      <Transitions />
      <BoundProperties>
        <BoundPropertyInt Name="rotateStepNinety" Value="0" />
      </BoundProperties>
    </ImageClip>
    <ImageClip extentID="1002" gapBefore="0" mediaItemID="998" duration="0.040000000000000001">
      <Effects />
      <Transitions />
      <BoundProperties>
        <BoundPropertyInt Name="rotateStepNinety" Value="0" />
      </BoundProperties>
    </ImageClip>
    <ImageClip extentID="1003" gapBefore="0" mediaItemID="999" duration="0.040000000000000001">
      <Effects />
      <Transitions />
      <BoundProperties>
        <BoundPropertyInt Name="rotateStepNinety" Value="0" />
      </BoundProperties>
    </ImageClip>
    <ImageClip extentID="1004" gapBefore="0" mediaItemID="1000" duration="0.040000000000000001">
      <Effects />
      <Transitions />
      <BoundProperties>
        <BoundPropertyInt Name="rotateStepNinety" Value="0" />
      </BoundProperties>
    </ImageClip>
    <ImageClip extentID="1005" gapBefore="0" mediaItemID="1001" duration="0.040000000000000001">
      <Effects />
      <Transitions />
      <BoundProperties>
        <BoundPropertyInt Name="rotateStepNinety" Value="0" />
      </BoundProperties>
    </ImageClip>
    <ImageClip extentID="1006" gapBefore="0" mediaItemID="1002" duration="0.040000000000000001">
      <Effects />
      <Transitions />
      <BoundProperties>
        <BoundPropertyInt Name="rotateStepNinety" Value="0" />
      </BoundProperties>
    </ImageClip>
    <ImageClip extentID="1007" gapBefore="0" mediaItemID="1003" duration="0.040000000000000001">
      <Effects />
      <Transitions />
      <BoundProperties>
        <BoundPropertyInt Name="rotateStepNinety" Value="0" />
      </BoundProperties>
    </ImageClip>
    <ImageClip extentID="1008" gapBefore="0" mediaItemID="1004" duration="0.040000000000000001">
      <Effects />
      <Transitions />
      <BoundProperties>
        <BoundPropertyInt Name="rotateStepNinety" Value="0" />
      </BoundProperties>
    </ImageClip>
    <ImageClip extentID="1009" gapBefore="0" mediaItemID="1005" duration="0.040000000000000001">
      <Effects />
      <Transitions />
      <BoundProperties>
        <BoundPropertyInt Name="rotateStepNinety" Value="0" />
      </BoundProperties>
    </ImageClip>
    <ImageClip extentID="1010" gapBefore="0" mediaItemID="1006" duration="0.040000000000000001">
      <Effects />
      <Transitions />
      <BoundProperties>
        <BoundPropertyInt Name="rotateStepNinety" Value="0" />
      </BoundProperties>
    </ImageClip>
    <ImageClip extentID="1011" gapBefore="0" mediaItemID="1007" duration="0.040000000000000001">
      <Effects />
      <Transitions />
      <BoundProperties>
        <BoundPropertyInt Name="rotateStepNinety" Value="0" />
      </BoundProperties>
    </ImageClip>
    <ImageClip extentID="1012" gapBefore="0" mediaItemID="1008" duration="0.040000000000000001">
      <Effects />
      <Transitions />
      <BoundProperties>
        <BoundPropertyInt Name="rotateStepNinety" Value="0" />
      </BoundProperties>
    </ImageClip>
    <ImageClip extentID="1013" gapBefore="0" mediaItemID="1009" duration="0.040000000000000001">
      <Effects />
      <Transitions />
      <BoundProperties>
        <BoundPropertyInt Name="rotateStepNinety" Value="0" />
      </BoundProperties>
    </ImageClip>
    <ImageClip extentID="1014" gapBefore="0" mediaItemID="1010" duration="0.040000000000000001">
      <Effects />
      <Transitions />
      <BoundProperties>
        <BoundPropertyInt Name="rotateStepNinety" Value="0" />
      </BoundProperties>
    </ImageClip>
    <ImageClip extentID="1015" gapBefore="0" mediaItemID="1011" duration="0.040000000000000001">
      <Effects />
      <Transitions />
      <BoundProperties>
        <BoundPropertyInt Name="rotateStepNinety" Value="0" />
      </BoundProperties>
    </ImageClip>
    <ImageClip extentID="1016" gapBefore="0" mediaItemID="1012" duration="0.040000000000000001">
      <Effects />
      <Transitions />
      <BoundProperties>
        <BoundPropertyInt Name="rotateStepNinety" Value="0" />
      </BoundProperties>
    </ImageClip>
    <ImageClip extentID="1017" gapBefore="0" mediaItemID="1013" duration="0.040000000000000001">
      <Effects />
      <Transitions />
      <BoundProperties>
        <BoundPropertyInt Name="rotateStepNinety" Value="0" />
      </BoundProperties>
    </ImageClip>
    <ImageClip extentID="1018" gapBefore="0" mediaItemID="1014" duration="0.040000000000000001">
      <Effects />
      <Transitions />
      <BoundProperties>
        <BoundPropertyInt Name="rotateStepNinety" Value="0" />
      </BoundProperties>
    </ImageClip>
    <ImageClip extentID="1019" gapBefore="0" mediaItemID="1015" duration="0.040000000000000001">
      <Effects />
      <Transitions />
      <BoundProperties>
        <BoundPropertyInt Name="rotateStepNinety" Value="0" />
      </BoundProperties>
    </ImageClip>
    <ImageClip extentID="1020" gapBefore="0" mediaItemID="1016" duration="0.040000000000000001">
      <Effects />
      <Transitions />
      <BoundProperties>
        <BoundPropertyInt Name="rotateStepNinety" Value="0" />
      </BoundProperties>
    </ImageClip>
    <ImageClip extentID="1021" gapBefore="0" mediaItemID="1017" duration="0.040000000000000001">
      <Effects />
      <Transitions />
      <BoundProperties>
        <BoundPropertyInt Name="rotateStepNinety" Value="0" />
      </BoundProperties>
    </ImageClip>
    <ImageClip extentID="1022" gapBefore="0" mediaItemID="1018" duration="0.040000000000000001">
      <Effects />
      <Transitions />
      <BoundProperties>
        <BoundPropertyInt Name="rotateStepNinety" Value="0" />
      </BoundProperties>
    </ImageClip>
    <ImageClip extentID="1023" gapBefore="0" mediaItemID="1019" duration="0.040000000000000001">
      <Effects />
      <Transitions />
      <BoundProperties>
        <BoundPropertyInt Name="rotateStepNinety" Value="0" />
      </BoundProperties>
    </ImageClip>
    <ImageClip extentID="1024" gapBefore="0" mediaItemID="1020" duration="0.040000000000000001">
      <Effects />
      <Transitions />
      <BoundProperties>
        <BoundPropertyInt Name="rotateStepNinety" Value="0" />
      </BoundProperties>
    </ImageClip>
    <ImageClip extentID="1025" gapBefore="0" mediaItemID="1021" duration="0.040000000000000001">
      <Effects />
      <Transitions />
      <BoundProperties>
        <BoundPropertyInt Name="rotateStepNinety" Value="0" />
      </BoundProperties>
    </ImageClip>
    <ImageClip extentID="1026" gapBefore="0" mediaItemID="1022" duration="0.040000000000000001">
      <Effects />
      <Transitions />
      <BoundProperties>
        <BoundPropertyInt Name="rotateStepNinety" Value="0" />
      </BoundProperties>
    </ImageClip>
    <ImageClip extentID="1027" gapBefore="0" mediaItemID="1023" duration="0.040000000000000001">
      <Effects />
      <Transitions />
      <BoundProperties>
        <BoundPropertyInt Name="rotateStepNinety" Value="0" />
      </BoundProperties>
    </ImageClip>
    <ImageClip extentID="1028" gapBefore="0" mediaItemID="1024" duration="0.040000000000000001">
      <Effects />
      <Transitions />
      <BoundProperties>
        <BoundPropertyInt Name="rotateStepNinety" Value="0" />
      </BoundProperties>
    </ImageClip>
    <ImageClip extentID="1029" gapBefore="0" mediaItemID="1025" duration="0.040000000000000001">
      <Effects />
      <Transitions />
      <BoundProperties>
        <BoundPropertyInt Name="rotateStepNinety" Value="0" />
      </BoundProperties>
    </ImageClip>
    <ImageClip extentID="1030" gapBefore="0" mediaItemID="1026" duration="0.040000000000000001">
      <Effects />
      <Transitions />
      <BoundProperties>
        <BoundPropertyInt Name="rotateStepNinety" Value="0" />
      </BoundProperties>
    </ImageClip>
    <ImageClip extentID="1031" gapBefore="0" mediaItemID="1027" duration="0.040000000000000001">
      <Effects />
      <Transitions />
      <BoundProperties>
        <BoundPropertyInt Name="rotateStepNinety" Value="0" />
      </BoundProperties>
    </ImageClip>
    <ImageClip extentID="1032" gapBefore="0" mediaItemID="1028" duration="0.040000000000000001">
      <Effects />
      <Transitions />
      <BoundProperties>
        <BoundPropertyInt Name="rotateStepNinety" Value="0" />
      </BoundProperties>
    </ImageClip>
    <ImageClip extentID="1033" gapBefore="0" mediaItemID="1029" duration="0.040000000000000001">
      <Effects />
      <Transitions />
      <BoundProperties>
        <BoundPropertyInt Name="rotateStepNinety" Value="0" />
      </BoundProperties>
    </ImageClip>
    <ImageClip extentID="1034" gapBefore="0" mediaItemID="1030" duration="0.040000000000000001">
      <Effects />
      <Transitions />
      <BoundProperties>
        <BoundPropertyInt Name="rotateStepNinety" Value="0" />
      </BoundProperties>
    </ImageClip>
    <ImageClip extentID="1035" gapBefore="0" mediaItemID="1031" duration="0.040000000000000001">
      <Effects />
      <Transitions />
      <BoundProperties>
        <BoundPropertyInt Name="rotateStepNinety" Value="0" />
      </BoundProperties>
    </ImageClip>
    <ImageClip extentID="1036" gapBefore="0" mediaItemID="1032" duration="0.040000000000000001">
      <Effects />
      <Transitions />
      <BoundProperties>
        <BoundPropertyInt Name="rotateStepNinety" Value="0" />
      </BoundProperties>
    </ImageClip>
    <ImageClip extentID="1037" gapBefore="0" mediaItemID="1033" duration="0.040000000000000001">
      <Effects />
      <Transitions />
      <BoundProperties>
        <BoundPropertyInt Name="rotateStepNinety" Value="0" />
      </BoundProperties>
    </ImageClip>
    <ImageClip extentID="1038" gapBefore="0" mediaItemID="1034" duration="0.040000000000000001">
      <Effects />
      <Transitions />
      <BoundProperties>
        <BoundPropertyInt Name="rotateStepNinety" Value="0" />
      </BoundProperties>
    </ImageClip>
    <ImageClip extentID="1039" gapBefore="0" mediaItemID="1035" duration="0.040000000000000001">
      <Effects />
      <Transitions />
      <BoundProperties>
        <BoundPropertyInt Name="rotateStepNinety" Value="0" />
      </BoundProperties>
    </ImageClip>
    <ImageClip extentID="1040" gapBefore="0" mediaItemID="1036" duration="0.040000000000000001">
      <Effects />
      <Transitions />
      <BoundProperties>
        <BoundPropertyInt Name="rotateStepNinety" Value="0" />
      </BoundProperties>
    </ImageClip>
    <ImageClip extentID="1041" gapBefore="0" mediaItemID="1037" duration="0.040000000000000001">
      <Effects />
      <Transitions />
      <BoundProperties>
        <BoundPropertyInt Name="rotateStepNinety" Value="0" />
      </BoundProperties>
    </ImageClip>
    <ImageClip extentID="1042" gapBefore="0" mediaItemID="1038" duration="0.040000000000000001">
      <Effects />
      <Transitions />
      <BoundProperties>
        <BoundPropertyInt Name="rotateStepNinety" Value="0" />
      </BoundProperties>
    </ImageClip>
    <ImageClip extentID="1043" gapBefore="0" mediaItemID="1039" duration="0.040000000000000001">
      <Effects />
      <Transitions />
      <BoundProperties>
        <BoundPropertyInt Name="rotateStepNinety" Value="0" />
      </BoundProperties>
    </ImageClip>
    <ImageClip extentID="1044" gapBefore="0" mediaItemID="1040" duration="0.040000000000000001">
      <Effects />
      <Transitions />
      <BoundProperties>
        <BoundPropertyInt Name="rotateStepNinety" Value="0" />
      </BoundProperties>
    </ImageClip>
    <ImageClip extentID="1045" gapBefore="0" mediaItemID="1041" duration="0.040000000000000001">
      <Effects />
      <Transitions />
      <BoundProperties>
        <BoundPropertyInt Name="rotateStepNinety" Value="0" />
      </BoundProperties>
    </ImageClip>
    <ImageClip extentID="1046" gapBefore="0" mediaItemID="1042" duration="0.040000000000000001">
      <Effects />
      <Transitions />
      <BoundProperties>
        <BoundPropertyInt Name="rotateStepNinety" Value="0" />
      </BoundProperties>
    </ImageClip>
    <ImageClip extentID="1047" gapBefore="0" mediaItemID="1043" duration="0.040000000000000001">
      <Effects />
      <Transitions />
      <BoundProperties>
        <BoundPropertyInt Name="rotateStepNinety" Value="0" />
      </BoundProperties>
    </ImageClip>
    <ImageClip extentID="1048" gapBefore="0" mediaItemID="1044" duration="0.040000000000000001">
      <Effects />
      <Transitions />
      <BoundProperties>
        <BoundPropertyInt Name="rotateStepNinety" Value="0" />
      </BoundProperties>
    </ImageClip>
    <ImageClip extentID="1049" gapBefore="0" mediaItemID="1045" duration="0.040000000000000001">
      <Effects />
      <Transitions />
      <BoundProperties>
        <BoundPropertyInt Name="rotateStepNinety" Value="0" />
      </BoundProperties>
    </ImageClip>
    <ImageClip extentID="1050" gapBefore="0" mediaItemID="1046" duration="0.040000000000000001">
      <Effects />
      <Transitions />
      <BoundProperties>
        <BoundPropertyInt Name="rotateStepNinety" Value="0" />
      </BoundProperties>
    </ImageClip>
    <ImageClip extentID="1051" gapBefore="0" mediaItemID="1047" duration="0.040000000000000001">
      <Effects />
      <Transitions />
      <BoundProperties>
        <BoundPropertyInt Name="rotateStepNinety" Value="0" />
      </BoundProperties>
    </ImageClip>
    <ImageClip extentID="1052" gapBefore="0" mediaItemID="1048" duration="0.040000000000000001">
      <Effects />
      <Transitions />
      <BoundProperties>
        <BoundPropertyInt Name="rotateStepNinety" Value="0" />
      </BoundProperties>
    </ImageClip>
    <ImageClip extentID="1053" gapBefore="0" mediaItemID="1049" duration="0.040000000000000001">
      <Effects />
      <Transitions />
      <BoundProperties>
        <BoundPropertyInt Name="rotateStepNinety" Value="0" />
      </BoundProperties>
    </ImageClip>
    <ImageClip extentID="1054" gapBefore="0" mediaItemID="1050" duration="0.040000000000000001">
      <Effects />
      <Transitions />
      <BoundProperties>
        <BoundPropertyInt Name="rotateStepNinety" Value="0" />
      </BoundProperties>
    </ImageClip>
    <ImageClip extentID="1055" gapBefore="0" mediaItemID="1051" duration="0.040000000000000001">
      <Effects />
      <Transitions />
      <BoundProperties>
        <BoundPropertyInt Name="rotateStepNinety" Value="0" />
      </BoundProperties>
    </ImageClip>
    <ImageClip extentID="1056" gapBefore="0" mediaItemID="1052" duration="0.040000000000000001">
      <Effects />
      <Transitions />
      <BoundProperties>
        <BoundPropertyInt Name="rotateStepNinety" Value="0" />
      </BoundProperties>
    </ImageClip>
    <ImageClip extentID="1057" gapBefore="0" mediaItemID="1053" duration="0.040000000000000001">
      <Effects />
      <Transitions />
      <BoundProperties>
        <BoundPropertyInt Name="rotateStepNinety" Value="0" />
      </BoundProperties>
    </ImageClip>
    <ImageClip extentID="1058" gapBefore="0" mediaItemID="1054" duration="0.040000000000000001">
      <Effects />
      <Transitions />
      <BoundProperties>
        <BoundPropertyInt Name="rotateStepNinety" Value="0" />
      </BoundProperties>
    </ImageClip>
    <ImageClip extentID="1059" gapBefore="0" mediaItemID="1055" duration="0.040000000000000001">
      <Effects />
      <Transitions />
      <BoundProperties>
        <BoundPropertyInt Name="rotateStepNinety" Value="0" />
      </BoundProperties>
    </ImageClip>
    <ImageClip extentID="1060" gapBefore="0" mediaItemID="1056" duration="0.040000000000000001">
      <Effects />
      <Transitions />
      <BoundProperties>
        <BoundPropertyInt Name="rotateStepNinety" Value="0" />
      </BoundProperties>
    </ImageClip>
    <ImageClip extentID="1061" gapBefore="0" mediaItemID="1057" duration="0.040000000000000001">
      <Effects />
      <Transitions />
      <BoundProperties>
        <BoundPropertyInt Name="rotateStepNinety" Value="0" />
      </BoundProperties>
    </ImageClip>
    <ImageClip extentID="1062" gapBefore="0" mediaItemID="1058" duration="0.040000000000000001">
      <Effects />
      <Transitions />
      <BoundProperties>
        <BoundPropertyInt Name="rotateStepNinety" Value="0" />
      </BoundProperties>
    </ImageClip>
    <ImageClip extentID="1063" gapBefore="0" mediaItemID="1059" duration="0.040000000000000001">
      <Effects />
      <Transitions />
      <BoundProperties>
        <BoundPropertyInt Name="rotateStepNinety" Value="0" />
      </BoundProperties>
    </ImageClip>
    <ImageClip extentID="1064" gapBefore="0" mediaItemID="1060" duration="0.040000000000000001">
      <Effects />
      <Transitions />
      <BoundProperties>
        <BoundPropertyInt Name="rotateStepNinety" Value="0" />
      </BoundProperties>
    </ImageClip>
    <ImageClip extentID="1065" gapBefore="0" mediaItemID="1061" duration="0.040000000000000001">
      <Effects />
      <Transitions />
      <BoundProperties>
        <BoundPropertyInt Name="rotateStepNinety" Value="0" />
      </BoundProperties>
    </ImageClip>
    <ImageClip extentID="1066" gapBefore="0" mediaItemID="1062" duration="0.040000000000000001">
      <Effects />
      <Transitions />
      <BoundProperties>
        <BoundPropertyInt Name="rotateStepNinety" Value="0" />
      </BoundProperties>
    </ImageClip>
    <ImageClip extentID="1067" gapBefore="0" mediaItemID="1063" duration="0.040000000000000001">
      <Effects />
      <Transitions />
      <BoundProperties>
        <BoundPropertyInt Name="rotateStepNinety" Value="0" />
      </BoundProperties>
    </ImageClip>
    <ImageClip extentID="1068" gapBefore="0" mediaItemID="1064" duration="0.040000000000000001">
      <Effects />
      <Transitions />
      <BoundProperties>
        <BoundPropertyInt Name="rotateStepNinety" Value="0" />
      </BoundProperties>
    </ImageClip>
    <ImageClip extentID="1069" gapBefore="0" mediaItemID="1065" duration="0.040000000000000001">
      <Effects />
      <Transitions />
      <BoundProperties>
        <BoundPropertyInt Name="rotateStepNinety" Value="0" />
      </BoundProperties>
    </ImageClip>
    <ImageClip extentID="1070" gapBefore="0" mediaItemID="1066" duration="0.040000000000000001">
      <Effects />
      <Transitions />
      <BoundProperties>
        <BoundPropertyInt Name="rotateStepNinety" Value="0" />
      </BoundProperties>
    </ImageClip>
    <ImageClip extentID="1071" gapBefore="0" mediaItemID="1067" duration="0.040000000000000001">
      <Effects />
      <Transitions />
      <BoundProperties>
        <BoundPropertyInt Name="rotateStepNinety" Value="0" />
      </BoundProperties>
    </ImageClip>
    <ImageClip extentID="1072" gapBefore="0" mediaItemID="1068" duration="0.040000000000000001">
      <Effects />
      <Transitions />
      <BoundProperties>
        <BoundPropertyInt Name="rotateStepNinety" Value="0" />
      </BoundProperties>
    </ImageClip>
    <ImageClip extentID="1073" gapBefore="0" mediaItemID="1069" duration="0.040000000000000001">
      <Effects />
      <Transitions />
      <BoundProperties>
        <BoundPropertyInt Name="rotateStepNinety" Value="0" />
      </BoundProperties>
    </ImageClip>
    <ImageClip extentID="1074" gapBefore="0" mediaItemID="1070" duration="0.040000000000000001">
      <Effects />
      <Transitions />
      <BoundProperties>
        <BoundPropertyInt Name="rotateStepNinety" Value="0" />
      </BoundProperties>
    </ImageClip>
    <ImageClip extentID="1075" gapBefore="0" mediaItemID="1071" duration="0.040000000000000001">
      <Effects />
      <Transitions />
      <BoundProperties>
        <BoundPropertyInt Name="rotateStepNinety" Value="0" />
      </BoundProperties>
    </ImageClip>
    <ImageClip extentID="1076" gapBefore="0" mediaItemID="1072" duration="0.040000000000000001">
      <Effects />
      <Transitions />
      <BoundProperties>
        <BoundPropertyInt Name="rotateStepNinety" Value="0" />
      </BoundProperties>
    </ImageClip>
    <ImageClip extentID="1077" gapBefore="0" mediaItemID="1073" duration="0.040000000000000001">
      <Effects />
      <Transitions />
      <BoundProperties>
        <BoundPropertyInt Name="rotateStepNinety" Value="0" />
      </BoundProperties>
    </ImageClip>
    <ImageClip extentID="1078" gapBefore="0" mediaItemID="1074" duration="0.040000000000000001">
      <Effects />
      <Transitions />
      <BoundProperties>
        <BoundPropertyInt Name="rotateStepNinety" Value="0" />
      </BoundProperties>
    </ImageClip>
    <ImageClip extentID="1079" gapBefore="0" mediaItemID="1075" duration="0.040000000000000001">
      <Effects />
      <Transitions />
      <BoundProperties>
        <BoundPropertyInt Name="rotateStepNinety" Value="0" />
      </BoundProperties>
    </ImageClip>
    <ImageClip extentID="1080" gapBefore="0" mediaItemID="1076" duration="0.040000000000000001">
      <Effects />
      <Transitions />
      <BoundProperties>
        <BoundPropertyInt Name="rotateStepNinety" Value="0" />
      </BoundProperties>
    </ImageClip>
    <ImageClip extentID="1081" gapBefore="0" mediaItemID="1077" duration="0.040000000000000001">
      <Effects />
      <Transitions />
      <BoundProperties>
        <BoundPropertyInt Name="rotateStepNinety" Value="0" />
      </BoundProperties>
    </ImageClip>
    <ImageClip extentID="1082" gapBefore="0" mediaItemID="1078" duration="0.040000000000000001">
      <Effects />
      <Transitions />
      <BoundProperties>
        <BoundPropertyInt Name="rotateStepNinety" Value="0" />
      </BoundProperties>
    </ImageClip>
    <ImageClip extentID="1083" gapBefore="0" mediaItemID="1079" duration="0.040000000000000001">
      <Effects />
      <Transitions />
      <BoundProperties>
        <BoundPropertyInt Name="rotateStepNinety" Value="0" />
      </BoundProperties>
    </ImageClip>
    <ImageClip extentID="1084" gapBefore="0" mediaItemID="1080" duration="0.040000000000000001">
      <Effects />
      <Transitions />
      <BoundProperties>
        <BoundPropertyInt Name="rotateStepNinety" Value="0" />
      </BoundProperties>
    </ImageClip>
    <ImageClip extentID="1085" gapBefore="0" mediaItemID="1081" duration="0.040000000000000001">
      <Effects />
      <Transitions />
      <BoundProperties>
        <BoundPropertyInt Name="rotateStepNinety" Value="0" />
      </BoundProperties>
    </ImageClip>
    <ImageClip extentID="1086" gapBefore="0" mediaItemID="1082" duration="0.040000000000000001">
      <Effects />
      <Transitions />
      <BoundProperties>
        <BoundPropertyInt Name="rotateStepNinety" Value="0" />
      </BoundProperties>
    </ImageClip>
    <ImageClip extentID="1087" gapBefore="0" mediaItemID="1083" duration="0.040000000000000001">
      <Effects />
      <Transitions />
      <BoundProperties>
        <BoundPropertyInt Name="rotateStepNinety" Value="0" />
      </BoundProperties>
    </ImageClip>
    <ImageClip extentID="1088" gapBefore="0" mediaItemID="1084" duration="0.040000000000000001">
      <Effects />
      <Transitions />
      <BoundProperties>
        <BoundPropertyInt Name="rotateStepNinety" Value="0" />
      </BoundProperties>
    </ImageClip>
    <ImageClip extentID="1089" gapBefore="0" mediaItemID="1085" duration="0.040000000000000001">
      <Effects />
      <Transitions />
      <BoundProperties>
        <BoundPropertyInt Name="rotateStepNinety" Value="0" />
      </BoundProperties>
    </ImageClip>
    <ImageClip extentID="1090" gapBefore="0" mediaItemID="1086" duration="0.040000000000000001">
      <Effects />
      <Transitions />
      <BoundProperties>
        <BoundPropertyInt Name="rotateStepNinety" Value="0" />
      </BoundProperties>
    </ImageClip>
    <ImageClip extentID="1091" gapBefore="0" mediaItemID="1087" duration="0.040000000000000001">
      <Effects />
      <Transitions />
      <BoundProperties>
        <BoundPropertyInt Name="rotateStepNinety" Value="0" />
      </BoundProperties>
    </ImageClip>
    <ImageClip extentID="1092" gapBefore="0" mediaItemID="1088" duration="0.040000000000000001">
      <Effects />
      <Transitions />
      <BoundProperties>
        <BoundPropertyInt Name="rotateStepNinety" Value="0" />
      </BoundProperties>
    </ImageClip>
    <ImageClip extentID="1093" gapBefore="0" mediaItemID="1089" duration="0.040000000000000001">
      <Effects />
      <Transitions />
      <BoundProperties>
        <BoundPropertyInt Name="rotateStepNinety" Value="0" />
      </BoundProperties>
    </ImageClip>
    <ImageClip extentID="1094" gapBefore="0" mediaItemID="1090" duration="0.040000000000000001">
      <Effects />
      <Transitions />
      <BoundProperties>
        <BoundPropertyInt Name="rotateStepNinety" Value="0" />
      </BoundProperties>
    </ImageClip>
    <ImageClip extentID="1095" gapBefore="0" mediaItemID="1091" duration="0.040000000000000001">
      <Effects />
      <Transitions />
      <BoundProperties>
        <BoundPropertyInt Name="rotateStepNinety" Value="0" />
      </BoundProperties>
    </ImageClip>
    <ImageClip extentID="1096" gapBefore="0" mediaItemID="1092" duration="0.040000000000000001">
      <Effects />
      <Transitions />
      <BoundProperties>
        <BoundPropertyInt Name="rotateStepNinety" Value="0" />
      </BoundProperties>
    </ImageClip>
    <ImageClip extentID="1097" gapBefore="0" mediaItemID="1093" duration="0.040000000000000001">
      <Effects />
      <Transitions />
      <BoundProperties>
        <BoundPropertyInt Name="rotateStepNinety" Value="0" />
      </BoundProperties>
    </ImageClip>
    <ImageClip extentID="1098" gapBefore="0" mediaItemID="1094" duration="0.040000000000000001">
      <Effects />
      <Transitions />
      <BoundProperties>
        <BoundPropertyInt Name="rotateStepNinety" Value="0" />
      </BoundProperties>
    </ImageClip>
    <ImageClip extentID="1099" gapBefore="0" mediaItemID="1095" duration="0.040000000000000001">
      <Effects />
      <Transitions />
      <BoundProperties>
        <BoundPropertyInt Name="rotateStepNinety" Value="0" />
      </BoundProperties>
    </ImageClip>
    <ImageClip extentID="1100" gapBefore="0" mediaItemID="1096" duration="0.040000000000000001">
      <Effects />
      <Transitions />
      <BoundProperties>
        <BoundPropertyInt Name="rotateStepNinety" Value="0" />
      </BoundProperties>
    </ImageClip>
    <ImageClip extentID="1101" gapBefore="0" mediaItemID="1097" duration="0.040000000000000001">
      <Effects />
      <Transitions />
      <BoundProperties>
        <BoundPropertyInt Name="rotateStepNinety" Value="0" />
      </BoundProperties>
    </ImageClip>
    <ImageClip extentID="1102" gapBefore="0" mediaItemID="1098" duration="0.040000000000000001">
      <Effects />
      <Transitions />
      <BoundProperties>
        <BoundPropertyInt Name="rotateStepNinety" Value="0" />
      </BoundProperties>
    </ImageClip>
    <ImageClip extentID="1103" gapBefore="0" mediaItemID="1099" duration="0.040000000000000001">
      <Effects />
      <Transitions />
      <BoundProperties>
        <BoundPropertyInt Name="rotateStepNinety" Value="0" />
      </BoundProperties>
    </ImageClip>
    <ImageClip extentID="1104" gapBefore="0" mediaItemID="1100" duration="0.040000000000000001">
      <Effects />
      <Transitions />
      <BoundProperties>
        <BoundPropertyInt Name="rotateStepNinety" Value="0" />
      </BoundProperties>
    </ImageClip>
    <ImageClip extentID="1105" gapBefore="0" mediaItemID="1101" duration="0.040000000000000001">
      <Effects />
      <Transitions />
      <BoundProperties>
        <BoundPropertyInt Name="rotateStepNinety" Value="0" />
      </BoundProperties>
    </ImageClip>
    <ImageClip extentID="1106" gapBefore="0" mediaItemID="1102" duration="0.040000000000000001">
      <Effects />
      <Transitions />
      <BoundProperties>
        <BoundPropertyInt Name="rotateStepNinety" Value="0" />
      </BoundProperties>
    </ImageClip>
    <ImageClip extentID="1107" gapBefore="0" mediaItemID="1103" duration="0.040000000000000001">
      <Effects />
      <Transitions />
      <BoundProperties>
        <BoundPropertyInt Name="rotateStepNinety" Value="0" />
      </BoundProperties>
    </ImageClip>
    <ImageClip extentID="1108" gapBefore="0" mediaItemID="1104" duration="0.040000000000000001">
      <Effects />
      <Transitions />
      <BoundProperties>
        <BoundPropertyInt Name="rotateStepNinety" Value="0" />
      </BoundProperties>
    </ImageClip>
    <ImageClip extentID="1109" gapBefore="0" mediaItemID="1105" duration="0.040000000000000001">
      <Effects />
      <Transitions />
      <BoundProperties>
        <BoundPropertyInt Name="rotateStepNinety" Value="0" />
      </BoundProperties>
    </ImageClip>
    <ImageClip extentID="1110" gapBefore="0" mediaItemID="1106" duration="0.040000000000000001">
      <Effects />
      <Transitions />
      <BoundProperties>
        <BoundPropertyInt Name="rotateStepNinety" Value="0" />
      </BoundProperties>
    </ImageClip>
    <ImageClip extentID="1111" gapBefore="0" mediaItemID="1107" duration="0.040000000000000001">
      <Effects />
      <Transitions />
      <BoundProperties>
        <BoundPropertyInt Name="rotateStepNinety" Value="0" />
      </BoundProperties>
    </ImageClip>
    <ImageClip extentID="1112" gapBefore="0" mediaItemID="1108" duration="0.040000000000000001">
      <Effects />
      <Transitions />
      <BoundProperties>
        <BoundPropertyInt Name="rotateStepNinety" Value="0" />
      </BoundProperties>
    </ImageClip>
    <ImageClip extentID="1113" gapBefore="0" mediaItemID="1109" duration="0.040000000000000001">
      <Effects />
      <Transitions />
      <BoundProperties>
        <BoundPropertyInt Name="rotateStepNinety" Value="0" />
      </BoundProperties>
    </ImageClip>
    <ImageClip extentID="1114" gapBefore="0" mediaItemID="1110" duration="0.040000000000000001">
      <Effects />
      <Transitions />
      <BoundProperties>
        <BoundPropertyInt Name="rotateStepNinety" Value="0" />
      </BoundProperties>
    </ImageClip>
    <ImageClip extentID="1115" gapBefore="0" mediaItemID="1111" duration="0.040000000000000001">
      <Effects />
      <Transitions />
      <BoundProperties>
        <BoundPropertyInt Name="rotateStepNinety" Value="0" />
      </BoundProperties>
    </ImageClip>
    <ImageClip extentID="1116" gapBefore="0" mediaItemID="1112" duration="0.040000000000000001">
      <Effects />
      <Transitions />
      <BoundProperties>
        <BoundPropertyInt Name="rotateStepNinety" Value="0" />
      </BoundProperties>
    </ImageClip>
    <ImageClip extentID="1117" gapBefore="0" mediaItemID="1113" duration="0.040000000000000001">
      <Effects />
      <Transitions />
      <BoundProperties>
        <BoundPropertyInt Name="rotateStepNinety" Value="0" />
      </BoundProperties>
    </ImageClip>
    <ImageClip extentID="1118" gapBefore="0" mediaItemID="1114" duration="0.040000000000000001">
      <Effects />
      <Transitions />
      <BoundProperties>
        <BoundPropertyInt Name="rotateStepNinety" Value="0" />
      </BoundProperties>
    </ImageClip>
    <ImageClip extentID="1119" gapBefore="0" mediaItemID="1115" duration="0.040000000000000001">
      <Effects />
      <Transitions />
      <BoundProperties>
        <BoundPropertyInt Name="rotateStepNinety" Value="0" />
      </BoundProperties>
    </ImageClip>
    <ImageClip extentID="1120" gapBefore="0" mediaItemID="1116" duration="0.040000000000000001">
      <Effects />
      <Transitions />
      <BoundProperties>
        <BoundPropertyInt Name="rotateStepNinety" Value="0" />
      </BoundProperties>
    </ImageClip>
    <ImageClip extentID="1121" gapBefore="0" mediaItemID="1117" duration="0.040000000000000001">
      <Effects />
      <Transitions />
      <BoundProperties>
        <BoundPropertyInt Name="rotateStepNinety" Value="0" />
      </BoundProperties>
    </ImageClip>
    <ImageClip extentID="1122" gapBefore="0" mediaItemID="1118" duration="0.040000000000000001">
      <Effects />
      <Transitions />
      <BoundProperties>
        <BoundPropertyInt Name="rotateStepNinety" Value="0" />
      </BoundProperties>
    </ImageClip>
    <ImageClip extentID="1123" gapBefore="0" mediaItemID="1119" duration="0.040000000000000001">
      <Effects />
      <Transitions />
      <BoundProperties>
        <BoundPropertyInt Name="rotateStepNinety" Value="0" />
      </BoundProperties>
    </ImageClip>
    <ImageClip extentID="1124" gapBefore="0" mediaItemID="1120" duration="0.040000000000000001">
      <Effects />
      <Transitions />
      <BoundProperties>
        <BoundPropertyInt Name="rotateStepNinety" Value="0" />
      </BoundProperties>
    </ImageClip>
    <ImageClip extentID="1125" gapBefore="0" mediaItemID="1121" duration="0.040000000000000001">
      <Effects />
      <Transitions />
      <BoundProperties>
        <BoundPropertyInt Name="rotateStepNinety" Value="0" />
      </BoundProperties>
    </ImageClip>
    <ImageClip extentID="1126" gapBefore="0" mediaItemID="1122" duration="0.040000000000000001">
      <Effects />
      <Transitions />
      <BoundProperties>
        <BoundPropertyInt Name="rotateStepNinety" Value="0" />
      </BoundProperties>
    </ImageClip>
    <ImageClip extentID="1127" gapBefore="0" mediaItemID="1123" duration="0.040000000000000001">
      <Effects />
      <Transitions />
      <BoundProperties>
        <BoundPropertyInt Name="rotateStepNinety" Value="0" />
      </BoundProperties>
    </ImageClip>
    <ImageClip extentID="1128" gapBefore="0" mediaItemID="1124" duration="0.040000000000000001">
      <Effects />
      <Transitions />
      <BoundProperties>
        <BoundPropertyInt Name="rotateStepNinety" Value="0" />
      </BoundProperties>
    </ImageClip>
    <ImageClip extentID="1129" gapBefore="0" mediaItemID="1125" duration="0.040000000000000001">
      <Effects />
      <Transitions />
      <BoundProperties>
        <BoundPropertyInt Name="rotateStepNinety" Value="0" />
      </BoundProperties>
    </ImageClip>
    <ImageClip extentID="1130" gapBefore="0" mediaItemID="1126" duration="0.040000000000000001">
      <Effects />
      <Transitions />
      <BoundProperties>
        <BoundPropertyInt Name="rotateStepNinety" Value="0" />
      </BoundProperties>
    </ImageClip>
    <ImageClip extentID="1131" gapBefore="0" mediaItemID="1127" duration="0.040000000000000001">
      <Effects />
      <Transitions />
      <BoundProperties>
        <BoundPropertyInt Name="rotateStepNinety" Value="0" />
      </BoundProperties>
    </ImageClip>
    <ImageClip extentID="1132" gapBefore="0" mediaItemID="1128" duration="0.040000000000000001">
      <Effects />
      <Transitions />
      <BoundProperties>
        <BoundPropertyInt Name="rotateStepNinety" Value="0" />
      </BoundProperties>
    </ImageClip>
    <ImageClip extentID="1133" gapBefore="0" mediaItemID="1129" duration="0.040000000000000001">
      <Effects />
      <Transitions />
      <BoundProperties>
        <BoundPropertyInt Name="rotateStepNinety" Value="0" />
      </BoundProperties>
    </ImageClip>
    <ImageClip extentID="1134" gapBefore="0" mediaItemID="1130" duration="0.040000000000000001">
      <Effects />
      <Transitions />
      <BoundProperties>
        <BoundPropertyInt Name="rotateStepNinety" Value="0" />
      </BoundProperties>
    </ImageClip>
    <ImageClip extentID="1135" gapBefore="0" mediaItemID="1131" duration="0.040000000000000001">
      <Effects />
      <Transitions />
      <BoundProperties>
        <BoundPropertyInt Name="rotateStepNinety" Value="0" />
      </BoundProperties>
    </ImageClip>
    <ImageClip extentID="1136" gapBefore="0" mediaItemID="1132" duration="0.040000000000000001">
      <Effects />
      <Transitions />
      <BoundProperties>
        <BoundPropertyInt Name="rotateStepNinety" Value="0" />
      </BoundProperties>
    </ImageClip>
    <ImageClip extentID="1137" gapBefore="0" mediaItemID="1133" duration="0.040000000000000001">
      <Effects />
      <Transitions />
      <BoundProperties>
        <BoundPropertyInt Name="rotateStepNinety" Value="0" />
      </BoundProperties>
    </ImageClip>
    <ImageClip extentID="1138" gapBefore="0" mediaItemID="1134" duration="0.040000000000000001">
      <Effects />
      <Transitions />
      <BoundProperties>
        <BoundPropertyInt Name="rotateStepNinety" Value="0" />
      </BoundProperties>
    </ImageClip>
    <ImageClip extentID="1139" gapBefore="0" mediaItemID="1135" duration="0.040000000000000001">
      <Effects />
      <Transitions />
      <BoundProperties>
        <BoundPropertyInt Name="rotateStepNinety" Value="0" />
      </BoundProperties>
    </ImageClip>
    <ImageClip extentID="1140" gapBefore="0" mediaItemID="1136" duration="0.040000000000000001">
      <Effects />
      <Transitions />
      <BoundProperties>
        <BoundPropertyInt Name="rotateStepNinety" Value="0" />
      </BoundProperties>
    </ImageClip>
    <ImageClip extentID="1141" gapBefore="0" mediaItemID="1137" duration="0.040000000000000001">
      <Effects />
      <Transitions />
      <BoundProperties>
        <BoundPropertyInt Name="rotateStepNinety" Value="0" />
      </BoundProperties>
    </ImageClip>
    <ImageClip extentID="1142" gapBefore="0" mediaItemID="1138" duration="0.040000000000000001">
      <Effects />
      <Transitions />
      <BoundProperties>
        <BoundPropertyInt Name="rotateStepNinety" Value="0" />
      </BoundProperties>
    </ImageClip>
    <ImageClip extentID="1143" gapBefore="0" mediaItemID="1139" duration="0.040000000000000001">
      <Effects />
      <Transitions />
      <BoundProperties>
        <BoundPropertyInt Name="rotateStepNinety" Value="0" />
      </BoundProperties>
    </ImageClip>
    <ImageClip extentID="1144" gapBefore="0" mediaItemID="1140" duration="0.040000000000000001">
      <Effects />
      <Transitions />
      <BoundProperties>
        <BoundPropertyInt Name="rotateStepNinety" Value="0" />
      </BoundProperties>
    </ImageClip>
    <ImageClip extentID="1145" gapBefore="0" mediaItemID="1141" duration="0.040000000000000001">
      <Effects />
      <Transitions />
      <BoundProperties>
        <BoundPropertyInt Name="rotateStepNinety" Value="0" />
      </BoundProperties>
    </ImageClip>
    <ImageClip extentID="1146" gapBefore="0" mediaItemID="1142" duration="0.040000000000000001">
      <Effects />
      <Transitions />
      <BoundProperties>
        <BoundPropertyInt Name="rotateStepNinety" Value="0" />
      </BoundProperties>
    </ImageClip>
    <ImageClip extentID="1147" gapBefore="0" mediaItemID="1143" duration="0.040000000000000001">
      <Effects />
      <Transitions />
      <BoundProperties>
        <BoundPropertyInt Name="rotateStepNinety" Value="0" />
      </BoundProperties>
    </ImageClip>
    <ImageClip extentID="1148" gapBefore="0" mediaItemID="1144" duration="0.040000000000000001">
      <Effects />
      <Transitions />
      <BoundProperties>
        <BoundPropertyInt Name="rotateStepNinety" Value="0" />
      </BoundProperties>
    </ImageClip>
    <ImageClip extentID="1149" gapBefore="0" mediaItemID="1145" duration="0.040000000000000001">
      <Effects />
      <Transitions />
      <BoundProperties>
        <BoundPropertyInt Name="rotateStepNinety" Value="0" />
      </BoundProperties>
    </ImageClip>
    <ImageClip extentID="1150" gapBefore="0" mediaItemID="1146" duration="0.040000000000000001">
      <Effects />
      <Transitions />
      <BoundProperties>
        <BoundPropertyInt Name="rotateStepNinety" Value="0" />
      </BoundProperties>
    </ImageClip>
    <ImageClip extentID="1151" gapBefore="0" mediaItemID="1147" duration="0.040000000000000001">
      <Effects />
      <Transitions />
      <BoundProperties>
        <BoundPropertyInt Name="rotateStepNinety" Value="0" />
      </BoundProperties>
    </ImageClip>
    <ImageClip extentID="1152" gapBefore="0" mediaItemID="1148" duration="0.040000000000000001">
      <Effects />
      <Transitions />
      <BoundProperties>
        <BoundPropertyInt Name="rotateStepNinety" Value="0" />
      </BoundProperties>
    </ImageClip>
    <ImageClip extentID="1153" gapBefore="0" mediaItemID="1149" duration="0.040000000000000001">
      <Effects />
      <Transitions />
      <BoundProperties>
        <BoundPropertyInt Name="rotateStepNinety" Value="0" />
      </BoundProperties>
    </ImageClip>
    <ImageClip extentID="1154" gapBefore="0" mediaItemID="1150" duration="0.040000000000000001">
      <Effects />
      <Transitions />
      <BoundProperties>
        <BoundPropertyInt Name="rotateStepNinety" Value="0" />
      </BoundProperties>
    </ImageClip>
    <ImageClip extentID="1155" gapBefore="0" mediaItemID="1151" duration="0.040000000000000001">
      <Effects />
      <Transitions />
      <BoundProperties>
        <BoundPropertyInt Name="rotateStepNinety" Value="0" />
      </BoundProperties>
    </ImageClip>
    <ImageClip extentID="1156" gapBefore="0" mediaItemID="1152" duration="0.040000000000000001">
      <Effects />
      <Transitions />
      <BoundProperties>
        <BoundPropertyInt Name="rotateStepNinety" Value="0" />
      </BoundProperties>
    </ImageClip>
    <ImageClip extentID="1157" gapBefore="0" mediaItemID="1153" duration="0.040000000000000001">
      <Effects />
      <Transitions />
      <BoundProperties>
        <BoundPropertyInt Name="rotateStepNinety" Value="0" />
      </BoundProperties>
    </ImageClip>
    <ImageClip extentID="1158" gapBefore="0" mediaItemID="1154" duration="0.040000000000000001">
      <Effects />
      <Transitions />
      <BoundProperties>
        <BoundPropertyInt Name="rotateStepNinety" Value="0" />
      </BoundProperties>
    </ImageClip>
    <ImageClip extentID="1159" gapBefore="0" mediaItemID="1155" duration="0.040000000000000001">
      <Effects />
      <Transitions />
      <BoundProperties>
        <BoundPropertyInt Name="rotateStepNinety" Value="0" />
      </BoundProperties>
    </ImageClip>
    <ImageClip extentID="1160" gapBefore="0" mediaItemID="1156" duration="0.040000000000000001">
      <Effects />
      <Transitions />
      <BoundProperties>
        <BoundPropertyInt Name="rotateStepNinety" Value="0" />
      </BoundProperties>
    </ImageClip>
    <ImageClip extentID="1161" gapBefore="0" mediaItemID="1157" duration="0.040000000000000001">
      <Effects />
      <Transitions />
      <BoundProperties>
        <BoundPropertyInt Name="rotateStepNinety" Value="0" />
      </BoundProperties>
    </ImageClip>
    <ImageClip extentID="1162" gapBefore="0" mediaItemID="1158" duration="0.040000000000000001">
      <Effects />
      <Transitions />
      <BoundProperties>
        <BoundPropertyInt Name="rotateStepNinety" Value="0" />
      </BoundProperties>
    </ImageClip>
    <ImageClip extentID="1163" gapBefore="0" mediaItemID="1159" duration="0.040000000000000001">
      <Effects />
      <Transitions />
      <BoundProperties>
        <BoundPropertyInt Name="rotateStepNinety" Value="0" />
      </BoundProperties>
    </ImageClip>
    <ImageClip extentID="1164" gapBefore="0" mediaItemID="1160" duration="0.040000000000000001">
      <Effects />
      <Transitions />
      <BoundProperties>
        <BoundPropertyInt Name="rotateStepNinety" Value="0" />
      </BoundProperties>
    </ImageClip>
    <ImageClip extentID="1165" gapBefore="0" mediaItemID="1161" duration="0.040000000000000001">
      <Effects />
      <Transitions />
      <BoundProperties>
        <BoundPropertyInt Name="rotateStepNinety" Value="0" />
      </BoundProperties>
    </ImageClip>
    <ImageClip extentID="1166" gapBefore="0" mediaItemID="1162" duration="0.040000000000000001">
      <Effects />
      <Transitions />
      <BoundProperties>
        <BoundPropertyInt Name="rotateStepNinety" Value="0" />
      </BoundProperties>
    </ImageClip>
    <ImageClip extentID="1167" gapBefore="0" mediaItemID="1163" duration="0.040000000000000001">
      <Effects />
      <Transitions />
      <BoundProperties>
        <BoundPropertyInt Name="rotateStepNinety" Value="0" />
      </BoundProperties>
    </ImageClip>
    <ImageClip extentID="1168" gapBefore="0" mediaItemID="1164" duration="0.040000000000000001">
      <Effects />
      <Transitions />
      <BoundProperties>
        <BoundPropertyInt Name="rotateStepNinety" Value="0" />
      </BoundProperties>
    </ImageClip>
    <ImageClip extentID="1169" gapBefore="0" mediaItemID="1165" duration="0.040000000000000001">
      <Effects />
      <Transitions />
      <BoundProperties>
        <BoundPropertyInt Name="rotateStepNinety" Value="0" />
      </BoundProperties>
    </ImageClip>
    <ImageClip extentID="1170" gapBefore="0" mediaItemID="1166" duration="0.040000000000000001">
      <Effects />
      <Transitions />
      <BoundProperties>
        <BoundPropertyInt Name="rotateStepNinety" Value="0" />
      </BoundProperties>
    </ImageClip>
    <ImageClip extentID="1171" gapBefore="0" mediaItemID="1167" duration="0.040000000000000001">
      <Effects />
      <Transitions />
      <BoundProperties>
        <BoundPropertyInt Name="rotateStepNinety" Value="0" />
      </BoundProperties>
    </ImageClip>
    <ImageClip extentID="1172" gapBefore="0" mediaItemID="1168" duration="0.040000000000000001">
      <Effects />
      <Transitions />
      <BoundProperties>
        <BoundPropertyInt Name="rotateStepNinety" Value="0" />
      </BoundProperties>
    </ImageClip>
    <ImageClip extentID="1173" gapBefore="0" mediaItemID="1169" duration="0.040000000000000001">
      <Effects />
      <Transitions />
      <BoundProperties>
        <BoundPropertyInt Name="rotateStepNinety" Value="0" />
      </BoundProperties>
    </ImageClip>
    <ImageClip extentID="1174" gapBefore="0" mediaItemID="1170" duration="0.040000000000000001">
      <Effects />
      <Transitions />
      <BoundProperties>
        <BoundPropertyInt Name="rotateStepNinety" Value="0" />
      </BoundProperties>
    </ImageClip>
    <ImageClip extentID="1175" gapBefore="0" mediaItemID="1171" duration="0.040000000000000001">
      <Effects />
      <Transitions />
      <BoundProperties>
        <BoundPropertyInt Name="rotateStepNinety" Value="0" />
      </BoundProperties>
    </ImageClip>
    <ImageClip extentID="1176" gapBefore="0" mediaItemID="1172" duration="0.040000000000000001">
      <Effects />
      <Transitions />
      <BoundProperties>
        <BoundPropertyInt Name="rotateStepNinety" Value="0" />
      </BoundProperties>
    </ImageClip>
    <ImageClip extentID="1177" gapBefore="0" mediaItemID="1173" duration="0.040000000000000001">
      <Effects />
      <Transitions />
      <BoundProperties>
        <BoundPropertyInt Name="rotateStepNinety" Value="0" />
      </BoundProperties>
    </ImageClip>
    <ImageClip extentID="1178" gapBefore="0" mediaItemID="1174" duration="0.040000000000000001">
      <Effects />
      <Transitions />
      <BoundProperties>
        <BoundPropertyInt Name="rotateStepNinety" Value="0" />
      </BoundProperties>
    </ImageClip>
    <ImageClip extentID="1179" gapBefore="0" mediaItemID="1175" duration="0.040000000000000001">
      <Effects />
      <Transitions />
      <BoundProperties>
        <BoundPropertyInt Name="rotateStepNinety" Value="0" />
      </BoundProperties>
    </ImageClip>
    <ImageClip extentID="1180" gapBefore="0" mediaItemID="1176" duration="0.040000000000000001">
      <Effects />
      <Transitions />
      <BoundProperties>
        <BoundPropertyInt Name="rotateStepNinety" Value="0" />
      </BoundProperties>
    </ImageClip>
    <ImageClip extentID="1181" gapBefore="0" mediaItemID="1177" duration="0.040000000000000001">
      <Effects />
      <Transitions />
      <BoundProperties>
        <BoundPropertyInt Name="rotateStepNinety" Value="0" />
      </BoundProperties>
    </ImageClip>
    <ImageClip extentID="1182" gapBefore="0" mediaItemID="1178" duration="0.040000000000000001">
      <Effects />
      <Transitions />
      <BoundProperties>
        <BoundPropertyInt Name="rotateStepNinety" Value="0" />
      </BoundProperties>
    </ImageClip>
    <ImageClip extentID="1183" gapBefore="0" mediaItemID="1179" duration="0.040000000000000001">
      <Effects />
      <Transitions />
      <BoundProperties>
        <BoundPropertyInt Name="rotateStepNinety" Value="0" />
      </BoundProperties>
    </ImageClip>
    <ImageClip extentID="1184" gapBefore="0" mediaItemID="1180" duration="0.040000000000000001">
      <Effects />
      <Transitions />
      <BoundProperties>
        <BoundPropertyInt Name="rotateStepNinety" Value="0" />
      </BoundProperties>
    </ImageClip>
    <ImageClip extentID="1185" gapBefore="0" mediaItemID="1181" duration="0.040000000000000001">
      <Effects />
      <Transitions />
      <BoundProperties>
        <BoundPropertyInt Name="rotateStepNinety" Value="0" />
      </BoundProperties>
    </ImageClip>
    <ImageClip extentID="1186" gapBefore="0" mediaItemID="1182" duration="0.040000000000000001">
      <Effects />
      <Transitions />
      <BoundProperties>
        <BoundPropertyInt Name="rotateStepNinety" Value="0" />
      </BoundProperties>
    </ImageClip>
    <ImageClip extentID="1187" gapBefore="0" mediaItemID="1183" duration="0.040000000000000001">
      <Effects />
      <Transitions />
      <BoundProperties>
        <BoundPropertyInt Name="rotateStepNinety" Value="0" />
      </BoundProperties>
    </ImageClip>
    <ImageClip extentID="1188" gapBefore="0" mediaItemID="1184" duration="0.040000000000000001">
      <Effects />
      <Transitions />
      <BoundProperties>
        <BoundPropertyInt Name="rotateStepNinety" Value="0" />
      </BoundProperties>
    </ImageClip>
    <ImageClip extentID="1189" gapBefore="0" mediaItemID="1185" duration="0.040000000000000001">
      <Effects />
      <Transitions />
      <BoundProperties>
        <BoundPropertyInt Name="rotateStepNinety" Value="0" />
      </BoundProperties>
    </ImageClip>
    <ImageClip extentID="1190" gapBefore="0" mediaItemID="1186" duration="0.040000000000000001">
      <Effects />
      <Transitions />
      <BoundProperties>
        <BoundPropertyInt Name="rotateStepNinety" Value="0" />
      </BoundProperties>
    </ImageClip>
    <ImageClip extentID="1191" gapBefore="0" mediaItemID="1187" duration="0.040000000000000001">
      <Effects />
      <Transitions />
      <BoundProperties>
        <BoundPropertyInt Name="rotateStepNinety" Value="0" />
      </BoundProperties>
    </ImageClip>
    <ImageClip extentID="1192" gapBefore="0" mediaItemID="1188" duration="0.040000000000000001">
      <Effects />
      <Transitions />
      <BoundProperties>
        <BoundPropertyInt Name="rotateStepNinety" Value="0" />
      </BoundProperties>
    </ImageClip>
    <ImageClip extentID="1193" gapBefore="0" mediaItemID="1189" duration="0.040000000000000001">
      <Effects />
      <Transitions />
      <BoundProperties>
        <BoundPropertyInt Name="rotateStepNinety" Value="0" />
      </BoundProperties>
    </ImageClip>
    <ImageClip extentID="1194" gapBefore="0" mediaItemID="1190" duration="0.040000000000000001">
      <Effects />
      <Transitions />
      <BoundProperties>
        <BoundPropertyInt Name="rotateStepNinety" Value="0" />
      </BoundProperties>
    </ImageClip>
    <ImageClip extentID="1195" gapBefore="0" mediaItemID="1191" duration="0.040000000000000001">
      <Effects />
      <Transitions />
      <BoundProperties>
        <BoundPropertyInt Name="rotateStepNinety" Value="0" />
      </BoundProperties>
    </ImageClip>
    <ImageClip extentID="1196" gapBefore="0" mediaItemID="1192" duration="0.040000000000000001">
      <Effects />
      <Transitions />
      <BoundProperties>
        <BoundPropertyInt Name="rotateStepNinety" Value="0" />
      </BoundProperties>
    </ImageClip>
    <ImageClip extentID="1197" gapBefore="0" mediaItemID="1193" duration="0.040000000000000001">
      <Effects />
      <Transitions />
      <BoundProperties>
        <BoundPropertyInt Name="rotateStepNinety" Value="0" />
      </BoundProperties>
    </ImageClip>
    <ImageClip extentID="1198" gapBefore="0" mediaItemID="1194" duration="0.040000000000000001">
      <Effects />
      <Transitions />
      <BoundProperties>
        <BoundPropertyInt Name="rotateStepNinety" Value="0" />
      </BoundProperties>
    </ImageClip>
    <ImageClip extentID="1199" gapBefore="0" mediaItemID="1195" duration="0.040000000000000001">
      <Effects />
      <Transitions />
      <BoundProperties>
        <BoundPropertyInt Name="rotateStepNinety" Value="0" />
      </BoundProperties>
    </ImageClip>
    <ImageClip extentID="1200" gapBefore="0" mediaItemID="1196" duration="0.040000000000000001">
      <Effects />
      <Transitions />
      <BoundProperties>
        <BoundPropertyInt Name="rotateStepNinety" Value="0" />
      </BoundProperties>
    </ImageClip>
    <ImageClip extentID="1201" gapBefore="0" mediaItemID="1197" duration="0.040000000000000001">
      <Effects />
      <Transitions />
      <BoundProperties>
        <BoundPropertyInt Name="rotateStepNinety" Value="0" />
      </BoundProperties>
    </ImageClip>
    <ImageClip extentID="1202" gapBefore="0" mediaItemID="1198" duration="0.040000000000000001">
      <Effects />
      <Transitions />
      <BoundProperties>
        <BoundPropertyInt Name="rotateStepNinety" Value="0" />
      </BoundProperties>
    </ImageClip>
    <ImageClip extentID="1203" gapBefore="0" mediaItemID="1199" duration="0.040000000000000001">
      <Effects />
      <Transitions />
      <BoundProperties>
        <BoundPropertyInt Name="rotateStepNinety" Value="0" />
      </BoundProperties>
    </ImageClip>
    <ImageClip extentID="1204" gapBefore="0" mediaItemID="1200" duration="0.040000000000000001">
      <Effects />
      <Transitions />
      <BoundProperties>
        <BoundPropertyInt Name="rotateStepNinety" Value="0" />
      </BoundProperties>
    </ImageClip>
    <ImageClip extentID="1205" gapBefore="0" mediaItemID="1201" duration="0.040000000000000001">
      <Effects />
      <Transitions />
      <BoundProperties>
        <BoundPropertyInt Name="rotateStepNinety" Value="0" />
      </BoundProperties>
    </ImageClip>
    <ImageClip extentID="1206" gapBefore="0" mediaItemID="1202" duration="0.040000000000000001">
      <Effects />
      <Transitions />
      <BoundProperties>
        <BoundPropertyInt Name="rotateStepNinety" Value="0" />
      </BoundProperties>
    </ImageClip>
    <ImageClip extentID="1207" gapBefore="0" mediaItemID="1203" duration="0.040000000000000001">
      <Effects />
      <Transitions />
      <BoundProperties>
        <BoundPropertyInt Name="rotateStepNinety" Value="0" />
      </BoundProperties>
    </ImageClip>
    <ImageClip extentID="1208" gapBefore="0" mediaItemID="1204" duration="0.040000000000000001">
      <Effects />
      <Transitions />
      <BoundProperties>
        <BoundPropertyInt Name="rotateStepNinety" Value="0" />
      </BoundProperties>
    </ImageClip>
    <ImageClip extentID="1209" gapBefore="0" mediaItemID="1205" duration="0.040000000000000001">
      <Effects />
      <Transitions />
      <BoundProperties>
        <BoundPropertyInt Name="rotateStepNinety" Value="0" />
      </BoundProperties>
    </ImageClip>
    <ImageClip extentID="1210" gapBefore="0" mediaItemID="1206" duration="0.040000000000000001">
      <Effects />
      <Transitions />
      <BoundProperties>
        <BoundPropertyInt Name="rotateStepNinety" Value="0" />
      </BoundProperties>
    </ImageClip>
    <ImageClip extentID="1211" gapBefore="0" mediaItemID="1207" duration="0.040000000000000001">
      <Effects />
      <Transitions />
      <BoundProperties>
        <BoundPropertyInt Name="rotateStepNinety" Value="0" />
      </BoundProperties>
    </ImageClip>
    <ImageClip extentID="1212" gapBefore="0" mediaItemID="1208" duration="0.040000000000000001">
      <Effects />
      <Transitions />
      <BoundProperties>
        <BoundPropertyInt Name="rotateStepNinety" Value="0" />
      </BoundProperties>
    </ImageClip>
    <ImageClip extentID="1213" gapBefore="0" mediaItemID="1209" duration="0.040000000000000001">
      <Effects />
      <Transitions />
      <BoundProperties>
        <BoundPropertyInt Name="rotateStepNinety" Value="0" />
      </BoundProperties>
    </ImageClip>
    <ImageClip extentID="1214" gapBefore="0" mediaItemID="1210" duration="0.040000000000000001">
      <Effects />
      <Transitions />
      <BoundProperties>
        <BoundPropertyInt Name="rotateStepNinety" Value="0" />
      </BoundProperties>
    </ImageClip>
    <ImageClip extentID="1215" gapBefore="0" mediaItemID="1211" duration="0.040000000000000001">
      <Effects />
      <Transitions />
      <BoundProperties>
        <BoundPropertyInt Name="rotateStepNinety" Value="0" />
      </BoundProperties>
    </ImageClip>
    <ImageClip extentID="1216" gapBefore="0" mediaItemID="1212" duration="0.040000000000000001">
      <Effects />
      <Transitions />
      <BoundProperties>
        <BoundPropertyInt Name="rotateStepNinety" Value="0" />
      </BoundProperties>
    </ImageClip>
    <ImageClip extentID="1217" gapBefore="0" mediaItemID="1213" duration="0.040000000000000001">
      <Effects />
      <Transitions />
      <BoundProperties>
        <BoundPropertyInt Name="rotateStepNinety" Value="0" />
      </BoundProperties>
    </ImageClip>
    <ImageClip extentID="1218" gapBefore="0" mediaItemID="1214" duration="0.040000000000000001">
      <Effects />
      <Transitions />
      <BoundProperties>
        <BoundPropertyInt Name="rotateStepNinety" Value="0" />
      </BoundProperties>
    </ImageClip>
    <ImageClip extentID="1219" gapBefore="0" mediaItemID="1215" duration="0.040000000000000001">
      <Effects />
      <Transitions />
      <BoundProperties>
        <BoundPropertyInt Name="rotateStepNinety" Value="0" />
      </BoundProperties>
    </ImageClip>
    <ImageClip extentID="1220" gapBefore="0" mediaItemID="1216" duration="0.040000000000000001">
      <Effects />
      <Transitions />
      <BoundProperties>
        <BoundPropertyInt Name="rotateStepNinety" Value="0" />
      </BoundProperties>
    </ImageClip>
    <ImageClip extentID="1221" gapBefore="0" mediaItemID="1217" duration="0.040000000000000001">
      <Effects />
      <Transitions />
      <BoundProperties>
        <BoundPropertyInt Name="rotateStepNinety" Value="0" />
      </BoundProperties>
    </ImageClip>
    <ImageClip extentID="1222" gapBefore="0" mediaItemID="1218" duration="0.040000000000000001">
      <Effects />
      <Transitions />
      <BoundProperties>
        <BoundPropertyInt Name="rotateStepNinety" Value="0" />
      </BoundProperties>
    </ImageClip>
    <ImageClip extentID="1223" gapBefore="0" mediaItemID="1219" duration="0.040000000000000001">
      <Effects />
      <Transitions />
      <BoundProperties>
        <BoundPropertyInt Name="rotateStepNinety" Value="0" />
      </BoundProperties>
    </ImageClip>
    <ImageClip extentID="1224" gapBefore="0" mediaItemID="1220" duration="0.040000000000000001">
      <Effects />
      <Transitions />
      <BoundProperties>
        <BoundPropertyInt Name="rotateStepNinety" Value="0" />
      </BoundProperties>
    </ImageClip>
    <ImageClip extentID="1225" gapBefore="0" mediaItemID="1221" duration="0.040000000000000001">
      <Effects />
      <Transitions />
      <BoundProperties>
        <BoundPropertyInt Name="rotateStepNinety" Value="0" />
      </BoundProperties>
    </ImageClip>
    <ImageClip extentID="1226" gapBefore="0" mediaItemID="1222" duration="0.040000000000000001">
      <Effects />
      <Transitions />
      <BoundProperties>
        <BoundPropertyInt Name="rotateStepNinety" Value="0" />
      </BoundProperties>
    </ImageClip>
    <ImageClip extentID="1227" gapBefore="0" mediaItemID="1223" duration="0.040000000000000001">
      <Effects />
      <Transitions />
      <BoundProperties>
        <BoundPropertyInt Name="rotateStepNinety" Value="0" />
      </BoundProperties>
    </ImageClip>
    <ImageClip extentID="1228" gapBefore="0" mediaItemID="1224" duration="0.040000000000000001">
      <Effects />
      <Transitions />
      <BoundProperties>
        <BoundPropertyInt Name="rotateStepNinety" Value="0" />
      </BoundProperties>
    </ImageClip>
    <ImageClip extentID="1229" gapBefore="0" mediaItemID="1225" duration="0.040000000000000001">
      <Effects />
      <Transitions />
      <BoundProperties>
        <BoundPropertyInt Name="rotateStepNinety" Value="0" />
      </BoundProperties>
    </ImageClip>
    <ImageClip extentID="1230" gapBefore="0" mediaItemID="1226" duration="0.040000000000000001">
      <Effects />
      <Transitions />
      <BoundProperties>
        <BoundPropertyInt Name="rotateStepNinety" Value="0" />
      </BoundProperties>
    </ImageClip>
    <ImageClip extentID="1231" gapBefore="0" mediaItemID="1227" duration="0.040000000000000001">
      <Effects />
      <Transitions />
      <BoundProperties>
        <BoundPropertyInt Name="rotateStepNinety" Value="0" />
      </BoundProperties>
    </ImageClip>
    <ImageClip extentID="1232" gapBefore="0" mediaItemID="1228" duration="0.040000000000000001">
      <Effects />
      <Transitions />
      <BoundProperties>
        <BoundPropertyInt Name="rotateStepNinety" Value="0" />
      </BoundProperties>
    </ImageClip>
    <ImageClip extentID="1233" gapBefore="0" mediaItemID="1229" duration="0.040000000000000001">
      <Effects />
      <Transitions />
      <BoundProperties>
        <BoundPropertyInt Name="rotateStepNinety" Value="0" />
      </BoundProperties>
    </ImageClip>
    <ImageClip extentID="1234" gapBefore="0" mediaItemID="1230" duration="0.040000000000000001">
      <Effects />
      <Transitions />
      <BoundProperties>
        <BoundPropertyInt Name="rotateStepNinety" Value="0" />
      </BoundProperties>
    </ImageClip>
    <ImageClip extentID="1235" gapBefore="0" mediaItemID="1231" duration="0.040000000000000001">
      <Effects />
      <Transitions />
      <BoundProperties>
        <BoundPropertyInt Name="rotateStepNinety" Value="0" />
      </BoundProperties>
    </ImageClip>
    <ImageClip extentID="1236" gapBefore="0" mediaItemID="1232" duration="0.040000000000000001">
      <Effects />
      <Transitions />
      <BoundProperties>
        <BoundPropertyInt Name="rotateStepNinety" Value="0" />
      </BoundProperties>
    </ImageClip>
    <ImageClip extentID="1237" gapBefore="0" mediaItemID="1233" duration="0.040000000000000001">
      <Effects />
      <Transitions />
      <BoundProperties>
        <BoundPropertyInt Name="rotateStepNinety" Value="0" />
      </BoundProperties>
    </ImageClip>
    <ImageClip extentID="1238" gapBefore="0" mediaItemID="1234" duration="0.040000000000000001">
      <Effects />
      <Transitions />
      <BoundProperties>
        <BoundPropertyInt Name="rotateStepNinety" Value="0" />
      </BoundProperties>
    </ImageClip>
    <ImageClip extentID="1239" gapBefore="0" mediaItemID="1235" duration="0.040000000000000001">
      <Effects />
      <Transitions />
      <BoundProperties>
        <BoundPropertyInt Name="rotateStepNinety" Value="0" />
      </BoundProperties>
    </ImageClip>
    <ImageClip extentID="1240" gapBefore="0" mediaItemID="1236" duration="0.040000000000000001">
      <Effects />
      <Transitions />
      <BoundProperties>
        <BoundPropertyInt Name="rotateStepNinety" Value="0" />
      </BoundProperties>
    </ImageClip>
    <ImageClip extentID="1241" gapBefore="0" mediaItemID="1237" duration="0.040000000000000001">
      <Effects />
      <Transitions />
      <BoundProperties>
        <BoundPropertyInt Name="rotateStepNinety" Value="0" />
      </BoundProperties>
    </ImageClip>
    <ImageClip extentID="1242" gapBefore="0" mediaItemID="1238" duration="0.040000000000000001">
      <Effects />
      <Transitions />
      <BoundProperties>
        <BoundPropertyInt Name="rotateStepNinety" Value="0" />
      </BoundProperties>
    </ImageClip>
    <ImageClip extentID="1243" gapBefore="0" mediaItemID="1239" duration="0.040000000000000001">
      <Effects />
      <Transitions />
      <BoundProperties>
        <BoundPropertyInt Name="rotateStepNinety" Value="0" />
      </BoundProperties>
    </ImageClip>
    <ImageClip extentID="1244" gapBefore="0" mediaItemID="1240" duration="0.040000000000000001">
      <Effects />
      <Transitions />
      <BoundProperties>
        <BoundPropertyInt Name="rotateStepNinety" Value="0" />
      </BoundProperties>
    </ImageClip>
    <ImageClip extentID="1245" gapBefore="0" mediaItemID="1241" duration="0.040000000000000001">
      <Effects />
      <Transitions />
      <BoundProperties>
        <BoundPropertyInt Name="rotateStepNinety" Value="0" />
      </BoundProperties>
    </ImageClip>
    <ImageClip extentID="1246" gapBefore="0" mediaItemID="1242" duration="0.040000000000000001">
      <Effects />
      <Transitions />
      <BoundProperties>
        <BoundPropertyInt Name="rotateStepNinety" Value="0" />
      </BoundProperties>
    </ImageClip>
    <ImageClip extentID="1247" gapBefore="0" mediaItemID="1243" duration="0.040000000000000001">
      <Effects />
      <Transitions />
      <BoundProperties>
        <BoundPropertyInt Name="rotateStepNinety" Value="0" />
      </BoundProperties>
    </ImageClip>
    <ImageClip extentID="1248" gapBefore="0" mediaItemID="1244" duration="0.040000000000000001">
      <Effects />
      <Transitions />
      <BoundProperties>
        <BoundPropertyInt Name="rotateStepNinety" Value="0" />
      </BoundProperties>
    </ImageClip>
    <ImageClip extentID="1249" gapBefore="0" mediaItemID="1245" duration="0.040000000000000001">
      <Effects />
      <Transitions />
      <BoundProperties>
        <BoundPropertyInt Name="rotateStepNinety" Value="0" />
      </BoundProperties>
    </ImageClip>
    <ImageClip extentID="1250" gapBefore="0" mediaItemID="1246" duration="0.040000000000000001">
      <Effects />
      <Transitions />
      <BoundProperties>
        <BoundPropertyInt Name="rotateStepNinety" Value="0" />
      </BoundProperties>
    </ImageClip>
    <ImageClip extentID="1251" gapBefore="0" mediaItemID="1247" duration="0.040000000000000001">
      <Effects />
      <Transitions />
      <BoundProperties>
        <BoundPropertyInt Name="rotateStepNinety" Value="0" />
      </BoundProperties>
    </ImageClip>
    <ImageClip extentID="1252" gapBefore="0" mediaItemID="1248" duration="0.040000000000000001">
      <Effects />
      <Transitions />
      <BoundProperties>
        <BoundPropertyInt Name="rotateStepNinety" Value="0" />
      </BoundProperties>
    </ImageClip>
    <ImageClip extentID="1253" gapBefore="0" mediaItemID="1249" duration="0.040000000000000001">
      <Effects />
      <Transitions />
      <BoundProperties>
        <BoundPropertyInt Name="rotateStepNinety" Value="0" />
      </BoundProperties>
    </ImageClip>
    <ImageClip extentID="1254" gapBefore="0" mediaItemID="1250" duration="0.040000000000000001">
      <Effects />
      <Transitions />
      <BoundProperties>
        <BoundPropertyInt Name="rotateStepNinety" Value="0" />
      </BoundProperties>
    </ImageClip>
    <ImageClip extentID="1255" gapBefore="0" mediaItemID="1251" duration="0.040000000000000001">
      <Effects />
      <Transitions />
      <BoundProperties>
        <BoundPropertyInt Name="rotateStepNinety" Value="0" />
      </BoundProperties>
    </ImageClip>
    <ImageClip extentID="1256" gapBefore="0" mediaItemID="1252" duration="0.040000000000000001">
      <Effects />
      <Transitions />
      <BoundProperties>
        <BoundPropertyInt Name="rotateStepNinety" Value="0" />
      </BoundProperties>
    </ImageClip>
    <ImageClip extentID="1257" gapBefore="0" mediaItemID="1253" duration="0.040000000000000001">
      <Effects />
      <Transitions />
      <BoundProperties>
        <BoundPropertyInt Name="rotateStepNinety" Value="0" />
      </BoundProperties>
    </ImageClip>
    <ImageClip extentID="1258" gapBefore="0" mediaItemID="1254" duration="0.040000000000000001">
      <Effects />
      <Transitions />
      <BoundProperties>
        <BoundPropertyInt Name="rotateStepNinety" Value="0" />
      </BoundProperties>
    </ImageClip>
    <ImageClip extentID="1259" gapBefore="0" mediaItemID="1255" duration="0.040000000000000001">
      <Effects />
      <Transitions />
      <BoundProperties>
        <BoundPropertyInt Name="rotateStepNinety" Value="0" />
      </BoundProperties>
    </ImageClip>
    <ImageClip extentID="1260" gapBefore="0" mediaItemID="1256" duration="0.040000000000000001">
      <Effects />
      <Transitions />
      <BoundProperties>
        <BoundPropertyInt Name="rotateStepNinety" Value="0" />
      </BoundProperties>
    </ImageClip>
    <ImageClip extentID="1261" gapBefore="0" mediaItemID="1257" duration="0.040000000000000001">
      <Effects />
      <Transitions />
      <BoundProperties>
        <BoundPropertyInt Name="rotateStepNinety" Value="0" />
      </BoundProperties>
    </ImageClip>
    <ImageClip extentID="1262" gapBefore="0" mediaItemID="1258" duration="0.040000000000000001">
      <Effects />
      <Transitions />
      <BoundProperties>
        <BoundPropertyInt Name="rotateStepNinety" Value="0" />
      </BoundProperties>
    </ImageClip>
    <ImageClip extentID="1263" gapBefore="0" mediaItemID="1259" duration="0.040000000000000001">
      <Effects />
      <Transitions />
      <BoundProperties>
        <BoundPropertyInt Name="rotateStepNinety" Value="0" />
      </BoundProperties>
    </ImageClip>
    <ImageClip extentID="1264" gapBefore="0" mediaItemID="1260" duration="0.040000000000000001">
      <Effects />
      <Transitions />
      <BoundProperties>
        <BoundPropertyInt Name="rotateStepNinety" Value="0" />
      </BoundProperties>
    </ImageClip>
    <ImageClip extentID="1265" gapBefore="0" mediaItemID="1261" duration="0.040000000000000001">
      <Effects />
      <Transitions />
      <BoundProperties>
        <BoundPropertyInt Name="rotateStepNinety" Value="0" />
      </BoundProperties>
    </ImageClip>
    <ImageClip extentID="1266" gapBefore="0" mediaItemID="1262" duration="0.040000000000000001">
      <Effects />
      <Transitions />
      <BoundProperties>
        <BoundPropertyInt Name="rotateStepNinety" Value="0" />
      </BoundProperties>
    </ImageClip>
    <ImageClip extentID="1267" gapBefore="0" mediaItemID="1263" duration="0.040000000000000001">
      <Effects />
      <Transitions />
      <BoundProperties>
        <BoundPropertyInt Name="rotateStepNinety" Value="0" />
      </BoundProperties>
    </ImageClip>
    <ImageClip extentID="1268" gapBefore="0" mediaItemID="1264" duration="0.040000000000000001">
      <Effects />
      <Transitions />
      <BoundProperties>
        <BoundPropertyInt Name="rotateStepNinety" Value="0" />
      </BoundProperties>
    </ImageClip>
    <ImageClip extentID="1269" gapBefore="0" mediaItemID="1265" duration="0.040000000000000001">
      <Effects />
      <Transitions />
      <BoundProperties>
        <BoundPropertyInt Name="rotateStepNinety" Value="0" />
      </BoundProperties>
    </ImageClip>
    <ImageClip extentID="1270" gapBefore="0" mediaItemID="1266" duration="0.040000000000000001">
      <Effects />
      <Transitions />
      <BoundProperties>
        <BoundPropertyInt Name="rotateStepNinety" Value="0" />
      </BoundProperties>
    </ImageClip>
    <ImageClip extentID="1271" gapBefore="0" mediaItemID="1267" duration="0.040000000000000001">
      <Effects />
      <Transitions />
      <BoundProperties>
        <BoundPropertyInt Name="rotateStepNinety" Value="0" />
      </BoundProperties>
    </ImageClip>
    <ImageClip extentID="1272" gapBefore="0" mediaItemID="1268" duration="0.040000000000000001">
      <Effects />
      <Transitions />
      <BoundProperties>
        <BoundPropertyInt Name="rotateStepNinety" Value="0" />
      </BoundProperties>
    </ImageClip>
    <ImageClip extentID="1273" gapBefore="0" mediaItemID="1269" duration="0.040000000000000001">
      <Effects />
      <Transitions />
      <BoundProperties>
        <BoundPropertyInt Name="rotateStepNinety" Value="0" />
      </BoundProperties>
    </ImageClip>
    <ImageClip extentID="1274" gapBefore="0" mediaItemID="1270" duration="0.040000000000000001">
      <Effects />
      <Transitions />
      <BoundProperties>
        <BoundPropertyInt Name="rotateStepNinety" Value="0" />
      </BoundProperties>
    </ImageClip>
    <ImageClip extentID="1275" gapBefore="0" mediaItemID="1271" duration="0.040000000000000001">
      <Effects />
      <Transitions />
      <BoundProperties>
        <BoundPropertyInt Name="rotateStepNinety" Value="0" />
      </BoundProperties>
    </ImageClip>
    <ImageClip extentID="1276" gapBefore="0" mediaItemID="1272" duration="0.040000000000000001">
      <Effects />
      <Transitions />
      <BoundProperties>
        <BoundPropertyInt Name="rotateStepNinety" Value="0" />
      </BoundProperties>
    </ImageClip>
    <ImageClip extentID="1277" gapBefore="0" mediaItemID="1273" duration="0.040000000000000001">
      <Effects />
      <Transitions />
      <BoundProperties>
        <BoundPropertyInt Name="rotateStepNinety" Value="0" />
      </BoundProperties>
    </ImageClip>
    <ImageClip extentID="1278" gapBefore="0" mediaItemID="1274" duration="0.040000000000000001">
      <Effects />
      <Transitions />
      <BoundProperties>
        <BoundPropertyInt Name="rotateStepNinety" Value="0" />
      </BoundProperties>
    </ImageClip>
    <ImageClip extentID="1279" gapBefore="0" mediaItemID="1275" duration="0.040000000000000001">
      <Effects />
      <Transitions />
      <BoundProperties>
        <BoundPropertyInt Name="rotateStepNinety" Value="0" />
      </BoundProperties>
    </ImageClip>
    <ImageClip extentID="1280" gapBefore="0" mediaItemID="1276" duration="0.040000000000000001">
      <Effects />
      <Transitions />
      <BoundProperties>
        <BoundPropertyInt Name="rotateStepNinety" Value="0" />
      </BoundProperties>
    </ImageClip>
    <ImageClip extentID="1281" gapBefore="0" mediaItemID="1277" duration="0.040000000000000001">
      <Effects />
      <Transitions />
      <BoundProperties>
        <BoundPropertyInt Name="rotateStepNinety" Value="0" />
      </BoundProperties>
    </ImageClip>
    <ImageClip extentID="1282" gapBefore="0" mediaItemID="1278" duration="0.040000000000000001">
      <Effects />
      <Transitions />
      <BoundProperties>
        <BoundPropertyInt Name="rotateStepNinety" Value="0" />
      </BoundProperties>
    </ImageClip>
    <ImageClip extentID="1283" gapBefore="0" mediaItemID="1279" duration="0.040000000000000001">
      <Effects />
      <Transitions />
      <BoundProperties>
        <BoundPropertyInt Name="rotateStepNinety" Value="0" />
      </BoundProperties>
    </ImageClip>
    <ImageClip extentID="1284" gapBefore="0" mediaItemID="1280" duration="0.040000000000000001">
      <Effects />
      <Transitions />
      <BoundProperties>
        <BoundPropertyInt Name="rotateStepNinety" Value="0" />
      </BoundProperties>
    </ImageClip>
    <ImageClip extentID="1285" gapBefore="0" mediaItemID="1281" duration="0.040000000000000001">
      <Effects />
      <Transitions />
      <BoundProperties>
        <BoundPropertyInt Name="rotateStepNinety" Value="0" />
      </BoundProperties>
    </ImageClip>
    <ImageClip extentID="1286" gapBefore="0" mediaItemID="1282" duration="0.040000000000000001">
      <Effects />
      <Transitions />
      <BoundProperties>
        <BoundPropertyInt Name="rotateStepNinety" Value="0" />
      </BoundProperties>
    </ImageClip>
    <ImageClip extentID="1287" gapBefore="0" mediaItemID="1283" duration="0.040000000000000001">
      <Effects />
      <Transitions />
      <BoundProperties>
        <BoundPropertyInt Name="rotateStepNinety" Value="0" />
      </BoundProperties>
    </ImageClip>
    <ImageClip extentID="1288" gapBefore="0" mediaItemID="1284" duration="0.040000000000000001">
      <Effects />
      <Transitions />
      <BoundProperties>
        <BoundPropertyInt Name="rotateStepNinety" Value="0" />
      </BoundProperties>
    </ImageClip>
    <ImageClip extentID="1289" gapBefore="0" mediaItemID="1285" duration="0.040000000000000001">
      <Effects />
      <Transitions />
      <BoundProperties>
        <BoundPropertyInt Name="rotateStepNinety" Value="0" />
      </BoundProperties>
    </ImageClip>
    <ImageClip extentID="1290" gapBefore="0" mediaItemID="1286" duration="0.040000000000000001">
      <Effects />
      <Transitions />
      <BoundProperties>
        <BoundPropertyInt Name="rotateStepNinety" Value="0" />
      </BoundProperties>
    </ImageClip>
    <ImageClip extentID="1291" gapBefore="0" mediaItemID="1287" duration="0.040000000000000001">
      <Effects />
      <Transitions />
      <BoundProperties>
        <BoundPropertyInt Name="rotateStepNinety" Value="0" />
      </BoundProperties>
    </ImageClip>
    <ImageClip extentID="1292" gapBefore="0" mediaItemID="1288" duration="0.040000000000000001">
      <Effects />
      <Transitions />
      <BoundProperties>
        <BoundPropertyInt Name="rotateStepNinety" Value="0" />
      </BoundProperties>
    </ImageClip>
    <ImageClip extentID="1293" gapBefore="0" mediaItemID="1289" duration="0.040000000000000001">
      <Effects />
      <Transitions />
      <BoundProperties>
        <BoundPropertyInt Name="rotateStepNinety" Value="0" />
      </BoundProperties>
    </ImageClip>
    <ImageClip extentID="1294" gapBefore="0" mediaItemID="1290" duration="0.040000000000000001">
      <Effects />
      <Transitions />
      <BoundProperties>
        <BoundPropertyInt Name="rotateStepNinety" Value="0" />
      </BoundProperties>
    </ImageClip>
    <ImageClip extentID="1295" gapBefore="0" mediaItemID="1291" duration="0.040000000000000001">
      <Effects />
      <Transitions />
      <BoundProperties>
        <BoundPropertyInt Name="rotateStepNinety" Value="0" />
      </BoundProperties>
    </ImageClip>
    <ImageClip extentID="1296" gapBefore="0" mediaItemID="1292" duration="0.040000000000000001">
      <Effects />
      <Transitions />
      <BoundProperties>
        <BoundPropertyInt Name="rotateStepNinety" Value="0" />
      </BoundProperties>
    </ImageClip>
    <ImageClip extentID="1297" gapBefore="0" mediaItemID="1293" duration="0.040000000000000001">
      <Effects />
      <Transitions />
      <BoundProperties>
        <BoundPropertyInt Name="rotateStepNinety" Value="0" />
      </BoundProperties>
    </ImageClip>
    <ImageClip extentID="1298" gapBefore="0" mediaItemID="1294" duration="0.040000000000000001">
      <Effects />
      <Transitions />
      <BoundProperties>
        <BoundPropertyInt Name="rotateStepNinety" Value="0" />
      </BoundProperties>
    </ImageClip>
    <ImageClip extentID="1299" gapBefore="0" mediaItemID="1295" duration="0.040000000000000001">
      <Effects />
      <Transitions />
      <BoundProperties>
        <BoundPropertyInt Name="rotateStepNinety" Value="0" />
      </BoundProperties>
    </ImageClip>
    <ImageClip extentID="1300" gapBefore="0" mediaItemID="1296" duration="0.040000000000000001">
      <Effects />
      <Transitions />
      <BoundProperties>
        <BoundPropertyInt Name="rotateStepNinety" Value="0" />
      </BoundProperties>
    </ImageClip>
    <ImageClip extentID="1301" gapBefore="0" mediaItemID="1297" duration="0.040000000000000001">
      <Effects />
      <Transitions />
      <BoundProperties>
        <BoundPropertyInt Name="rotateStepNinety" Value="0" />
      </BoundProperties>
    </ImageClip>
    <ImageClip extentID="1302" gapBefore="0" mediaItemID="1298" duration="0.040000000000000001">
      <Effects />
      <Transitions />
      <BoundProperties>
        <BoundPropertyInt Name="rotateStepNinety" Value="0" />
      </BoundProperties>
    </ImageClip>
    <ImageClip extentID="1303" gapBefore="0" mediaItemID="1299" duration="0.040000000000000001">
      <Effects />
      <Transitions />
      <BoundProperties>
        <BoundPropertyInt Name="rotateStepNinety" Value="0" />
      </BoundProperties>
    </ImageClip>
    <ImageClip extentID="1304" gapBefore="0" mediaItemID="1300" duration="0.040000000000000001">
      <Effects />
      <Transitions />
      <BoundProperties>
        <BoundPropertyInt Name="rotateStepNinety" Value="0" />
      </BoundProperties>
    </ImageClip>
    <ImageClip extentID="1305" gapBefore="0" mediaItemID="1301" duration="0.040000000000000001">
      <Effects />
      <Transitions />
      <BoundProperties>
        <BoundPropertyInt Name="rotateStepNinety" Value="0" />
      </BoundProperties>
    </ImageClip>
    <ImageClip extentID="1306" gapBefore="0" mediaItemID="1302" duration="0.040000000000000001">
      <Effects />
      <Transitions />
      <BoundProperties>
        <BoundPropertyInt Name="rotateStepNinety" Value="0" />
      </BoundProperties>
    </ImageClip>
    <ImageClip extentID="1307" gapBefore="0" mediaItemID="1303" duration="0.040000000000000001">
      <Effects />
      <Transitions />
      <BoundProperties>
        <BoundPropertyInt Name="rotateStepNinety" Value="0" />
      </BoundProperties>
    </ImageClip>
    <ImageClip extentID="1308" gapBefore="0" mediaItemID="1304" duration="0.040000000000000001">
      <Effects />
      <Transitions />
      <BoundProperties>
        <BoundPropertyInt Name="rotateStepNinety" Value="0" />
      </BoundProperties>
    </ImageClip>
    <ImageClip extentID="1309" gapBefore="0" mediaItemID="1305" duration="0.040000000000000001">
      <Effects />
      <Transitions />
      <BoundProperties>
        <BoundPropertyInt Name="rotateStepNinety" Value="0" />
      </BoundProperties>
    </ImageClip>
    <ImageClip extentID="1310" gapBefore="0" mediaItemID="1306" duration="0.040000000000000001">
      <Effects />
      <Transitions />
      <BoundProperties>
        <BoundPropertyInt Name="rotateStepNinety" Value="0" />
      </BoundProperties>
    </ImageClip>
    <ImageClip extentID="1311" gapBefore="0" mediaItemID="1307" duration="0.040000000000000001">
      <Effects />
      <Transitions />
      <BoundProperties>
        <BoundPropertyInt Name="rotateStepNinety" Value="0" />
      </BoundProperties>
    </ImageClip>
    <ImageClip extentID="1312" gapBefore="0" mediaItemID="1308" duration="0.040000000000000001">
      <Effects />
      <Transitions />
      <BoundProperties>
        <BoundPropertyInt Name="rotateStepNinety" Value="0" />
      </BoundProperties>
    </ImageClip>
    <ImageClip extentID="1313" gapBefore="0" mediaItemID="1309" duration="0.040000000000000001">
      <Effects />
      <Transitions />
      <BoundProperties>
        <BoundPropertyInt Name="rotateStepNinety" Value="0" />
      </BoundProperties>
    </ImageClip>
    <ImageClip extentID="1314" gapBefore="0" mediaItemID="1310" duration="0.040000000000000001">
      <Effects />
      <Transitions />
      <BoundProperties>
        <BoundPropertyInt Name="rotateStepNinety" Value="0" />
      </BoundProperties>
    </ImageClip>
    <ImageClip extentID="1315" gapBefore="0" mediaItemID="1311" duration="0.040000000000000001">
      <Effects />
      <Transitions />
      <BoundProperties>
        <BoundPropertyInt Name="rotateStepNinety" Value="0" />
      </BoundProperties>
    </ImageClip>
    <ImageClip extentID="1316" gapBefore="0" mediaItemID="1312" duration="0.040000000000000001">
      <Effects />
      <Transitions />
      <BoundProperties>
        <BoundPropertyInt Name="rotateStepNinety" Value="0" />
      </BoundProperties>
    </ImageClip>
    <ImageClip extentID="1317" gapBefore="0" mediaItemID="1313" duration="0.040000000000000001">
      <Effects />
      <Transitions />
      <BoundProperties>
        <BoundPropertyInt Name="rotateStepNinety" Value="0" />
      </BoundProperties>
    </ImageClip>
    <ImageClip extentID="1318" gapBefore="0" mediaItemID="1314" duration="0.040000000000000001">
      <Effects />
      <Transitions />
      <BoundProperties>
        <BoundPropertyInt Name="rotateStepNinety" Value="0" />
      </BoundProperties>
    </ImageClip>
    <ImageClip extentID="1319" gapBefore="0" mediaItemID="1315" duration="0.040000000000000001">
      <Effects />
      <Transitions />
      <BoundProperties>
        <BoundPropertyInt Name="rotateStepNinety" Value="0" />
      </BoundProperties>
    </ImageClip>
    <ImageClip extentID="1320" gapBefore="0" mediaItemID="1316" duration="0.040000000000000001">
      <Effects />
      <Transitions />
      <BoundProperties>
        <BoundPropertyInt Name="rotateStepNinety" Value="0" />
      </BoundProperties>
    </ImageClip>
    <ImageClip extentID="1321" gapBefore="0" mediaItemID="1317" duration="0.040000000000000001">
      <Effects />
      <Transitions />
      <BoundProperties>
        <BoundPropertyInt Name="rotateStepNinety" Value="0" />
      </BoundProperties>
    </ImageClip>
    <ImageClip extentID="1322" gapBefore="0" mediaItemID="1318" duration="0.040000000000000001">
      <Effects />
      <Transitions />
      <BoundProperties>
        <BoundPropertyInt Name="rotateStepNinety" Value="0" />
      </BoundProperties>
    </ImageClip>
    <ImageClip extentID="1323" gapBefore="0" mediaItemID="1319" duration="0.040000000000000001">
      <Effects />
      <Transitions />
      <BoundProperties>
        <BoundPropertyInt Name="rotateStepNinety" Value="0" />
      </BoundProperties>
    </ImageClip>
    <ImageClip extentID="1324" gapBefore="0" mediaItemID="1320" duration="0.040000000000000001">
      <Effects />
      <Transitions />
      <BoundProperties>
        <BoundPropertyInt Name="rotateStepNinety" Value="0" />
      </BoundProperties>
    </ImageClip>
    <ImageClip extentID="1325" gapBefore="0" mediaItemID="1321" duration="0.040000000000000001">
      <Effects />
      <Transitions />
      <BoundProperties>
        <BoundPropertyInt Name="rotateStepNinety" Value="0" />
      </BoundProperties>
    </ImageClip>
    <ImageClip extentID="1326" gapBefore="0" mediaItemID="1322" duration="0.040000000000000001">
      <Effects />
      <Transitions />
      <BoundProperties>
        <BoundPropertyInt Name="rotateStepNinety" Value="0" />
      </BoundProperties>
    </ImageClip>
    <ImageClip extentID="1327" gapBefore="0" mediaItemID="1323" duration="0.040000000000000001">
      <Effects />
      <Transitions />
      <BoundProperties>
        <BoundPropertyInt Name="rotateStepNinety" Value="0" />
      </BoundProperties>
    </ImageClip>
    <ImageClip extentID="1328" gapBefore="0" mediaItemID="1324" duration="0.040000000000000001">
      <Effects />
      <Transitions />
      <BoundProperties>
        <BoundPropertyInt Name="rotateStepNinety" Value="0" />
      </BoundProperties>
    </ImageClip>
    <ImageClip extentID="1329" gapBefore="0" mediaItemID="1325" duration="0.040000000000000001">
      <Effects />
      <Transitions />
      <BoundProperties>
        <BoundPropertyInt Name="rotateStepNinety" Value="0" />
      </BoundProperties>
    </ImageClip>
    <ImageClip extentID="1330" gapBefore="0" mediaItemID="1326" duration="0.040000000000000001">
      <Effects />
      <Transitions />
      <BoundProperties>
        <BoundPropertyInt Name="rotateStepNinety" Value="0" />
      </BoundProperties>
    </ImageClip>
    <ImageClip extentID="1331" gapBefore="0" mediaItemID="1327" duration="0.040000000000000001">
      <Effects />
      <Transitions />
      <BoundProperties>
        <BoundPropertyInt Name="rotateStepNinety" Value="0" />
      </BoundProperties>
    </ImageClip>
    <ImageClip extentID="1332" gapBefore="0" mediaItemID="1328" duration="0.040000000000000001">
      <Effects />
      <Transitions />
      <BoundProperties>
        <BoundPropertyInt Name="rotateStepNinety" Value="0" />
      </BoundProperties>
    </ImageClip>
    <ImageClip extentID="1333" gapBefore="0" mediaItemID="1329" duration="0.040000000000000001">
      <Effects />
      <Transitions />
      <BoundProperties>
        <BoundPropertyInt Name="rotateStepNinety" Value="0" />
      </BoundProperties>
    </ImageClip>
    <ImageClip extentID="1334" gapBefore="0" mediaItemID="1330" duration="0.040000000000000001">
      <Effects />
      <Transitions />
      <BoundProperties>
        <BoundPropertyInt Name="rotateStepNinety" Value="0" />
      </BoundProperties>
    </ImageClip>
    <ImageClip extentID="1335" gapBefore="0" mediaItemID="1331" duration="0.040000000000000001">
      <Effects />
      <Transitions />
      <BoundProperties>
        <BoundPropertyInt Name="rotateStepNinety" Value="0" />
      </BoundProperties>
    </ImageClip>
    <ImageClip extentID="1336" gapBefore="0" mediaItemID="1332" duration="0.040000000000000001">
      <Effects />
      <Transitions />
      <BoundProperties>
        <BoundPropertyInt Name="rotateStepNinety" Value="0" />
      </BoundProperties>
    </ImageClip>
    <ImageClip extentID="1337" gapBefore="0" mediaItemID="1333" duration="0.040000000000000001">
      <Effects />
      <Transitions />
      <BoundProperties>
        <BoundPropertyInt Name="rotateStepNinety" Value="0" />
      </BoundProperties>
    </ImageClip>
    <ImageClip extentID="1338" gapBefore="0" mediaItemID="1334" duration="0.040000000000000001">
      <Effects />
      <Transitions />
      <BoundProperties>
        <BoundPropertyInt Name="rotateStepNinety" Value="0" />
      </BoundProperties>
    </ImageClip>
    <ImageClip extentID="1339" gapBefore="0" mediaItemID="1335" duration="0.040000000000000001">
      <Effects />
      <Transitions />
      <BoundProperties>
        <BoundPropertyInt Name="rotateStepNinety" Value="0" />
      </BoundProperties>
    </ImageClip>
    <ImageClip extentID="1340" gapBefore="0" mediaItemID="1336" duration="0.040000000000000001">
      <Effects />
      <Transitions />
      <BoundProperties>
        <BoundPropertyInt Name="rotateStepNinety" Value="0" />
      </BoundProperties>
    </ImageClip>
    <ImageClip extentID="1341" gapBefore="0" mediaItemID="1337" duration="0.040000000000000001">
      <Effects />
      <Transitions />
      <BoundProperties>
        <BoundPropertyInt Name="rotateStepNinety" Value="0" />
      </BoundProperties>
    </ImageClip>
    <ImageClip extentID="1342" gapBefore="0" mediaItemID="1338" duration="0.040000000000000001">
      <Effects />
      <Transitions />
      <BoundProperties>
        <BoundPropertyInt Name="rotateStepNinety" Value="0" />
      </BoundProperties>
    </ImageClip>
    <ImageClip extentID="1343" gapBefore="0" mediaItemID="1339" duration="0.040000000000000001">
      <Effects />
      <Transitions />
      <BoundProperties>
        <BoundPropertyInt Name="rotateStepNinety" Value="0" />
      </BoundProperties>
    </ImageClip>
    <ImageClip extentID="1344" gapBefore="0" mediaItemID="1340" duration="0.040000000000000001">
      <Effects />
      <Transitions />
      <BoundProperties>
        <BoundPropertyInt Name="rotateStepNinety" Value="0" />
      </BoundProperties>
    </ImageClip>
    <ImageClip extentID="1345" gapBefore="0" mediaItemID="1341" duration="0.040000000000000001">
      <Effects />
      <Transitions />
      <BoundProperties>
        <BoundPropertyInt Name="rotateStepNinety" Value="0" />
      </BoundProperties>
    </ImageClip>
    <ImageClip extentID="1346" gapBefore="0" mediaItemID="1342" duration="0.040000000000000001">
      <Effects />
      <Transitions />
      <BoundProperties>
        <BoundPropertyInt Name="rotateStepNinety" Value="0" />
      </BoundProperties>
    </ImageClip>
    <ImageClip extentID="1347" gapBefore="0" mediaItemID="1343" duration="0.040000000000000001">
      <Effects />
      <Transitions />
      <BoundProperties>
        <BoundPropertyInt Name="rotateStepNinety" Value="0" />
      </BoundProperties>
    </ImageClip>
    <ImageClip extentID="1348" gapBefore="0" mediaItemID="1344" duration="0.040000000000000001">
      <Effects />
      <Transitions />
      <BoundProperties>
        <BoundPropertyInt Name="rotateStepNinety" Value="0" />
      </BoundProperties>
    </ImageClip>
    <ImageClip extentID="1349" gapBefore="0" mediaItemID="1345" duration="0.040000000000000001">
      <Effects />
      <Transitions />
      <BoundProperties>
        <BoundPropertyInt Name="rotateStepNinety" Value="0" />
      </BoundProperties>
    </ImageClip>
    <ImageClip extentID="1350" gapBefore="0" mediaItemID="1346" duration="0.040000000000000001">
      <Effects />
      <Transitions />
      <BoundProperties>
        <BoundPropertyInt Name="rotateStepNinety" Value="0" />
      </BoundProperties>
    </ImageClip>
    <ImageClip extentID="1351" gapBefore="0" mediaItemID="1347" duration="0.040000000000000001">
      <Effects />
      <Transitions />
      <BoundProperties>
        <BoundPropertyInt Name="rotateStepNinety" Value="0" />
      </BoundProperties>
    </ImageClip>
    <ImageClip extentID="1352" gapBefore="0" mediaItemID="1348" duration="0.040000000000000001">
      <Effects />
      <Transitions />
      <BoundProperties>
        <BoundPropertyInt Name="rotateStepNinety" Value="0" />
      </BoundProperties>
    </ImageClip>
    <ImageClip extentID="1353" gapBefore="0" mediaItemID="1349" duration="0.040000000000000001">
      <Effects />
      <Transitions />
      <BoundProperties>
        <BoundPropertyInt Name="rotateStepNinety" Value="0" />
      </BoundProperties>
    </ImageClip>
    <ImageClip extentID="1354" gapBefore="0" mediaItemID="1350" duration="0.040000000000000001">
      <Effects />
      <Transitions />
      <BoundProperties>
        <BoundPropertyInt Name="rotateStepNinety" Value="0" />
      </BoundProperties>
    </ImageClip>
    <ImageClip extentID="1355" gapBefore="0" mediaItemID="1351" duration="0.040000000000000001">
      <Effects />
      <Transitions />
      <BoundProperties>
        <BoundPropertyInt Name="rotateStepNinety" Value="0" />
      </BoundProperties>
    </ImageClip>
    <ImageClip extentID="1356" gapBefore="0" mediaItemID="1352" duration="0.040000000000000001">
      <Effects />
      <Transitions />
      <BoundProperties>
        <BoundPropertyInt Name="rotateStepNinety" Value="0" />
      </BoundProperties>
    </ImageClip>
    <ImageClip extentID="1357" gapBefore="0" mediaItemID="1353" duration="0.040000000000000001">
      <Effects />
      <Transitions />
      <BoundProperties>
        <BoundPropertyInt Name="rotateStepNinety" Value="0" />
      </BoundProperties>
    </ImageClip>
    <ImageClip extentID="1358" gapBefore="0" mediaItemID="1354" duration="0.040000000000000001">
      <Effects />
      <Transitions />
      <BoundProperties>
        <BoundPropertyInt Name="rotateStepNinety" Value="0" />
      </BoundProperties>
    </ImageClip>
    <ImageClip extentID="1359" gapBefore="0" mediaItemID="1355" duration="0.040000000000000001">
      <Effects />
      <Transitions />
      <BoundProperties>
        <BoundPropertyInt Name="rotateStepNinety" Value="0" />
      </BoundProperties>
    </ImageClip>
    <ImageClip extentID="1360" gapBefore="0" mediaItemID="1356" duration="0.040000000000000001">
      <Effects />
      <Transitions />
      <BoundProperties>
        <BoundPropertyInt Name="rotateStepNinety" Value="0" />
      </BoundProperties>
    </ImageClip>
    <ImageClip extentID="1361" gapBefore="0" mediaItemID="1357" duration="0.040000000000000001">
      <Effects />
      <Transitions />
      <BoundProperties>
        <BoundPropertyInt Name="rotateStepNinety" Value="0" />
      </BoundProperties>
    </ImageClip>
    <ImageClip extentID="1362" gapBefore="0" mediaItemID="1358" duration="0.040000000000000001">
      <Effects />
      <Transitions />
      <BoundProperties>
        <BoundPropertyInt Name="rotateStepNinety" Value="0" />
      </BoundProperties>
    </ImageClip>
    <ImageClip extentID="1363" gapBefore="0" mediaItemID="1359" duration="0.040000000000000001">
      <Effects />
      <Transitions />
      <BoundProperties>
        <BoundPropertyInt Name="rotateStepNinety" Value="0" />
      </BoundProperties>
    </ImageClip>
    <ImageClip extentID="1364" gapBefore="0" mediaItemID="1360" duration="0.040000000000000001">
      <Effects />
      <Transitions />
      <BoundProperties>
        <BoundPropertyInt Name="rotateStepNinety" Value="0" />
      </BoundProperties>
    </ImageClip>
    <ImageClip extentID="1365" gapBefore="0" mediaItemID="1361" duration="0.040000000000000001">
      <Effects />
      <Transitions />
      <BoundProperties>
        <BoundPropertyInt Name="rotateStepNinety" Value="0" />
      </BoundProperties>
    </ImageClip>
    <ImageClip extentID="1366" gapBefore="0" mediaItemID="1362" duration="0.040000000000000001">
      <Effects />
      <Transitions />
      <BoundProperties>
        <BoundPropertyInt Name="rotateStepNinety" Value="0" />
      </BoundProperties>
    </ImageClip>
    <ImageClip extentID="1367" gapBefore="0" mediaItemID="1363" duration="0.040000000000000001">
      <Effects />
      <Transitions />
      <BoundProperties>
        <BoundPropertyInt Name="rotateStepNinety" Value="0" />
      </BoundProperties>
    </ImageClip>
    <ImageClip extentID="1368" gapBefore="0" mediaItemID="1364" duration="0.040000000000000001">
      <Effects />
      <Transitions />
      <BoundProperties>
        <BoundPropertyInt Name="rotateStepNinety" Value="0" />
      </BoundProperties>
    </ImageClip>
    <ImageClip extentID="1369" gapBefore="0" mediaItemID="1365" duration="0.040000000000000001">
      <Effects />
      <Transitions />
      <BoundProperties>
        <BoundPropertyInt Name="rotateStepNinety" Value="0" />
      </BoundProperties>
    </ImageClip>
    <ImageClip extentID="1370" gapBefore="0" mediaItemID="1366" duration="0.040000000000000001">
      <Effects />
      <Transitions />
      <BoundProperties>
        <BoundPropertyInt Name="rotateStepNinety" Value="0" />
      </BoundProperties>
    </ImageClip>
    <ImageClip extentID="1371" gapBefore="0" mediaItemID="1367" duration="0.040000000000000001">
      <Effects />
      <Transitions />
      <BoundProperties>
        <BoundPropertyInt Name="rotateStepNinety" Value="0" />
      </BoundProperties>
    </ImageClip>
    <ImageClip extentID="1372" gapBefore="0" mediaItemID="1368" duration="0.040000000000000001">
      <Effects />
      <Transitions />
      <BoundProperties>
        <BoundPropertyInt Name="rotateStepNinety" Value="0" />
      </BoundProperties>
    </ImageClip>
    <ImageClip extentID="1373" gapBefore="0" mediaItemID="1369" duration="0.040000000000000001">
      <Effects />
      <Transitions />
      <BoundProperties>
        <BoundPropertyInt Name="rotateStepNinety" Value="0" />
      </BoundProperties>
    </ImageClip>
    <ImageClip extentID="1374" gapBefore="0" mediaItemID="1370" duration="0.040000000000000001">
      <Effects />
      <Transitions />
      <BoundProperties>
        <BoundPropertyInt Name="rotateStepNinety" Value="0" />
      </BoundProperties>
    </ImageClip>
    <ImageClip extentID="1375" gapBefore="0" mediaItemID="1371" duration="0.040000000000000001">
      <Effects />
      <Transitions />
      <BoundProperties>
        <BoundPropertyInt Name="rotateStepNinety" Value="0" />
      </BoundProperties>
    </ImageClip>
    <ImageClip extentID="1376" gapBefore="0" mediaItemID="1372" duration="0.040000000000000001">
      <Effects />
      <Transitions />
      <BoundProperties>
        <BoundPropertyInt Name="rotateStepNinety" Value="0" />
      </BoundProperties>
    </ImageClip>
    <ImageClip extentID="1377" gapBefore="0" mediaItemID="1373" duration="0.040000000000000001">
      <Effects />
      <Transitions />
      <BoundProperties>
        <BoundPropertyInt Name="rotateStepNinety" Value="0" />
      </BoundProperties>
    </ImageClip>
    <ImageClip extentID="1378" gapBefore="0" mediaItemID="1374" duration="0.040000000000000001">
      <Effects />
      <Transitions />
      <BoundProperties>
        <BoundPropertyInt Name="rotateStepNinety" Value="0" />
      </BoundProperties>
    </ImageClip>
    <ImageClip extentID="1379" gapBefore="0" mediaItemID="1375" duration="0.040000000000000001">
      <Effects />
      <Transitions />
      <BoundProperties>
        <BoundPropertyInt Name="rotateStepNinety" Value="0" />
      </BoundProperties>
    </ImageClip>
    <ImageClip extentID="1380" gapBefore="0" mediaItemID="1376" duration="0.040000000000000001">
      <Effects />
      <Transitions />
      <BoundProperties>
        <BoundPropertyInt Name="rotateStepNinety" Value="0" />
      </BoundProperties>
    </ImageClip>
    <ImageClip extentID="1381" gapBefore="0" mediaItemID="1377" duration="0.040000000000000001">
      <Effects />
      <Transitions />
      <BoundProperties>
        <BoundPropertyInt Name="rotateStepNinety" Value="0" />
      </BoundProperties>
    </ImageClip>
    <ImageClip extentID="1382" gapBefore="0" mediaItemID="1378" duration="0.040000000000000001">
      <Effects />
      <Transitions />
      <BoundProperties>
        <BoundPropertyInt Name="rotateStepNinety" Value="0" />
      </BoundProperties>
    </ImageClip>
    <ImageClip extentID="1383" gapBefore="0" mediaItemID="1379" duration="0.040000000000000001">
      <Effects />
      <Transitions />
      <BoundProperties>
        <BoundPropertyInt Name="rotateStepNinety" Value="0" />
      </BoundProperties>
    </ImageClip>
    <ImageClip extentID="1384" gapBefore="0" mediaItemID="1380" duration="0.040000000000000001">
      <Effects />
      <Transitions />
      <BoundProperties>
        <BoundPropertyInt Name="rotateStepNinety" Value="0" />
      </BoundProperties>
    </ImageClip>
    <ImageClip extentID="1385" gapBefore="0" mediaItemID="1381" duration="0.040000000000000001">
      <Effects />
      <Transitions />
      <BoundProperties>
        <BoundPropertyInt Name="rotateStepNinety" Value="0" />
      </BoundProperties>
    </ImageClip>
    <ImageClip extentID="1386" gapBefore="0" mediaItemID="1382" duration="0.040000000000000001">
      <Effects />
      <Transitions />
      <BoundProperties>
        <BoundPropertyInt Name="rotateStepNinety" Value="0" />
      </BoundProperties>
    </ImageClip>
    <ImageClip extentID="1387" gapBefore="0" mediaItemID="1383" duration="0.040000000000000001">
      <Effects />
      <Transitions />
      <BoundProperties>
        <BoundPropertyInt Name="rotateStepNinety" Value="0" />
      </BoundProperties>
    </ImageClip>
    <ImageClip extentID="1388" gapBefore="0" mediaItemID="1384" duration="0.040000000000000001">
      <Effects />
      <Transitions />
      <BoundProperties>
        <BoundPropertyInt Name="rotateStepNinety" Value="0" />
      </BoundProperties>
    </ImageClip>
    <ImageClip extentID="1389" gapBefore="0" mediaItemID="1385" duration="0.040000000000000001">
      <Effects />
      <Transitions />
      <BoundProperties>
        <BoundPropertyInt Name="rotateStepNinety" Value="0" />
      </BoundProperties>
    </ImageClip>
    <ImageClip extentID="1390" gapBefore="0" mediaItemID="1386" duration="0.040000000000000001">
      <Effects />
      <Transitions />
      <BoundProperties>
        <BoundPropertyInt Name="rotateStepNinety" Value="0" />
      </BoundProperties>
    </ImageClip>
    <ImageClip extentID="1391" gapBefore="0" mediaItemID="1387" duration="0.040000000000000001">
      <Effects />
      <Transitions />
      <BoundProperties>
        <BoundPropertyInt Name="rotateStepNinety" Value="0" />
      </BoundProperties>
    </ImageClip>
    <ImageClip extentID="1392" gapBefore="0" mediaItemID="1388" duration="0.040000000000000001">
      <Effects />
      <Transitions />
      <BoundProperties>
        <BoundPropertyInt Name="rotateStepNinety" Value="0" />
      </BoundProperties>
    </ImageClip>
    <ImageClip extentID="1393" gapBefore="0" mediaItemID="1389" duration="0.040000000000000001">
      <Effects />
      <Transitions />
      <BoundProperties>
        <BoundPropertyInt Name="rotateStepNinety" Value="0" />
      </BoundProperties>
    </ImageClip>
    <ImageClip extentID="1394" gapBefore="0" mediaItemID="1390" duration="0.040000000000000001">
      <Effects />
      <Transitions />
      <BoundProperties>
        <BoundPropertyInt Name="rotateStepNinety" Value="0" />
      </BoundProperties>
    </ImageClip>
    <ImageClip extentID="1395" gapBefore="0" mediaItemID="1391" duration="0.040000000000000001">
      <Effects />
      <Transitions />
      <BoundProperties>
        <BoundPropertyInt Name="rotateStepNinety" Value="0" />
      </BoundProperties>
    </ImageClip>
    <ImageClip extentID="1396" gapBefore="0" mediaItemID="1392" duration="0.040000000000000001">
      <Effects />
      <Transitions />
      <BoundProperties>
        <BoundPropertyInt Name="rotateStepNinety" Value="0" />
      </BoundProperties>
    </ImageClip>
    <ImageClip extentID="1397" gapBefore="0" mediaItemID="1393" duration="0.040000000000000001">
      <Effects />
      <Transitions />
      <BoundProperties>
        <BoundPropertyInt Name="rotateStepNinety" Value="0" />
      </BoundProperties>
    </ImageClip>
    <ImageClip extentID="1398" gapBefore="0" mediaItemID="1394" duration="0.040000000000000001">
      <Effects />
      <Transitions />
      <BoundProperties>
        <BoundPropertyInt Name="rotateStepNinety" Value="0" />
      </BoundProperties>
    </ImageClip>
    <ImageClip extentID="1399" gapBefore="0" mediaItemID="1395" duration="0.040000000000000001">
      <Effects />
      <Transitions />
      <BoundProperties>
        <BoundPropertyInt Name="rotateStepNinety" Value="0" />
      </BoundProperties>
    </ImageClip>
    <ImageClip extentID="1400" gapBefore="0" mediaItemID="1396" duration="0.040000000000000001">
      <Effects />
      <Transitions />
      <BoundProperties>
        <BoundPropertyInt Name="rotateStepNinety" Value="0" />
      </BoundProperties>
    </ImageClip>
    <ImageClip extentID="1401" gapBefore="0" mediaItemID="1397" duration="0.040000000000000001">
      <Effects />
      <Transitions />
      <BoundProperties>
        <BoundPropertyInt Name="rotateStepNinety" Value="0" />
      </BoundProperties>
    </ImageClip>
    <ImageClip extentID="1402" gapBefore="0" mediaItemID="1398" duration="0.040000000000000001">
      <Effects />
      <Transitions />
      <BoundProperties>
        <BoundPropertyInt Name="rotateStepNinety" Value="0" />
      </BoundProperties>
    </ImageClip>
    <ImageClip extentID="1403" gapBefore="0" mediaItemID="1399" duration="0.040000000000000001">
      <Effects />
      <Transitions />
      <BoundProperties>
        <BoundPropertyInt Name="rotateStepNinety" Value="0" />
      </BoundProperties>
    </ImageClip>
    <ImageClip extentID="1404" gapBefore="0" mediaItemID="1400" duration="0.040000000000000001">
      <Effects />
      <Transitions />
      <BoundProperties>
        <BoundPropertyInt Name="rotateStepNinety" Value="0" />
      </BoundProperties>
    </ImageClip>
    <ImageClip extentID="1405" gapBefore="0" mediaItemID="1401" duration="0.040000000000000001">
      <Effects />
      <Transitions />
      <BoundProperties>
        <BoundPropertyInt Name="rotateStepNinety" Value="0" />
      </BoundProperties>
    </ImageClip>
    <ImageClip extentID="1406" gapBefore="0" mediaItemID="1402" duration="0.040000000000000001">
      <Effects />
      <Transitions />
      <BoundProperties>
        <BoundPropertyInt Name="rotateStepNinety" Value="0" />
      </BoundProperties>
    </ImageClip>
    <ImageClip extentID="1407" gapBefore="0" mediaItemID="1403" duration="0.040000000000000001">
      <Effects />
      <Transitions />
      <BoundProperties>
        <BoundPropertyInt Name="rotateStepNinety" Value="0" />
      </BoundProperties>
    </ImageClip>
    <ImageClip extentID="1408" gapBefore="0" mediaItemID="1404" duration="0.040000000000000001">
      <Effects />
      <Transitions />
      <BoundProperties>
        <BoundPropertyInt Name="rotateStepNinety" Value="0" />
      </BoundProperties>
    </ImageClip>
    <ImageClip extentID="1409" gapBefore="0" mediaItemID="1405" duration="0.040000000000000001">
      <Effects />
      <Transitions />
      <BoundProperties>
        <BoundPropertyInt Name="rotateStepNinety" Value="0" />
      </BoundProperties>
    </ImageClip>
    <ImageClip extentID="1410" gapBefore="0" mediaItemID="1406" duration="0.040000000000000001">
      <Effects />
      <Transitions />
      <BoundProperties>
        <BoundPropertyInt Name="rotateStepNinety" Value="0" />
      </BoundProperties>
    </ImageClip>
    <ImageClip extentID="1411" gapBefore="0" mediaItemID="1407" duration="0.040000000000000001">
      <Effects />
      <Transitions />
      <BoundProperties>
        <BoundPropertyInt Name="rotateStepNinety" Value="0" />
      </BoundProperties>
    </ImageClip>
    <ImageClip extentID="1412" gapBefore="0" mediaItemID="1408" duration="0.040000000000000001">
      <Effects />
      <Transitions />
      <BoundProperties>
        <BoundPropertyInt Name="rotateStepNinety" Value="0" />
      </BoundProperties>
    </ImageClip>
    <ImageClip extentID="1413" gapBefore="0" mediaItemID="1409" duration="0.040000000000000001">
      <Effects />
      <Transitions />
      <BoundProperties>
        <BoundPropertyInt Name="rotateStepNinety" Value="0" />
      </BoundProperties>
    </ImageClip>
    <ImageClip extentID="1414" gapBefore="0" mediaItemID="1410" duration="0.040000000000000001">
      <Effects />
      <Transitions />
      <BoundProperties>
        <BoundPropertyInt Name="rotateStepNinety" Value="0" />
      </BoundProperties>
    </ImageClip>
    <ImageClip extentID="1415" gapBefore="0" mediaItemID="1411" duration="0.040000000000000001">
      <Effects />
      <Transitions />
      <BoundProperties>
        <BoundPropertyInt Name="rotateStepNinety" Value="0" />
      </BoundProperties>
    </ImageClip>
    <ImageClip extentID="1416" gapBefore="0" mediaItemID="1412" duration="0.040000000000000001">
      <Effects />
      <Transitions />
      <BoundProperties>
        <BoundPropertyInt Name="rotateStepNinety" Value="0" />
      </BoundProperties>
    </ImageClip>
    <ImageClip extentID="1417" gapBefore="0" mediaItemID="1413" duration="0.040000000000000001">
      <Effects />
      <Transitions />
      <BoundProperties>
        <BoundPropertyInt Name="rotateStepNinety" Value="0" />
      </BoundProperties>
    </ImageClip>
    <ImageClip extentID="1418" gapBefore="0" mediaItemID="1414" duration="0.040000000000000001">
      <Effects />
      <Transitions />
      <BoundProperties>
        <BoundPropertyInt Name="rotateStepNinety" Value="0" />
      </BoundProperties>
    </ImageClip>
    <ImageClip extentID="1419" gapBefore="0" mediaItemID="1415" duration="0.040000000000000001">
      <Effects />
      <Transitions />
      <BoundProperties>
        <BoundPropertyInt Name="rotateStepNinety" Value="0" />
      </BoundProperties>
    </ImageClip>
    <ImageClip extentID="1420" gapBefore="0" mediaItemID="1416" duration="0.040000000000000001">
      <Effects />
      <Transitions />
      <BoundProperties>
        <BoundPropertyInt Name="rotateStepNinety" Value="0" />
      </BoundProperties>
    </ImageClip>
    <ImageClip extentID="1421" gapBefore="0" mediaItemID="1417" duration="0.040000000000000001">
      <Effects />
      <Transitions />
      <BoundProperties>
        <BoundPropertyInt Name="rotateStepNinety" Value="0" />
      </BoundProperties>
    </ImageClip>
    <ImageClip extentID="1422" gapBefore="0" mediaItemID="1418" duration="0.040000000000000001">
      <Effects />
      <Transitions />
      <BoundProperties>
        <BoundPropertyInt Name="rotateStepNinety" Value="0" />
      </BoundProperties>
    </ImageClip>
    <ImageClip extentID="1423" gapBefore="0" mediaItemID="1419" duration="0.040000000000000001">
      <Effects />
      <Transitions />
      <BoundProperties>
        <BoundPropertyInt Name="rotateStepNinety" Value="0" />
      </BoundProperties>
    </ImageClip>
    <ImageClip extentID="1424" gapBefore="0" mediaItemID="1420" duration="0.040000000000000001">
      <Effects />
      <Transitions />
      <BoundProperties>
        <BoundPropertyInt Name="rotateStepNinety" Value="0" />
      </BoundProperties>
    </ImageClip>
    <ImageClip extentID="1425" gapBefore="0" mediaItemID="1421" duration="0.040000000000000001">
      <Effects />
      <Transitions />
      <BoundProperties>
        <BoundPropertyInt Name="rotateStepNinety" Value="0" />
      </BoundProperties>
    </ImageClip>
    <ImageClip extentID="1426" gapBefore="0" mediaItemID="1422" duration="0.040000000000000001">
      <Effects />
      <Transitions />
      <BoundProperties>
        <BoundPropertyInt Name="rotateStepNinety" Value="0" />
      </BoundProperties>
    </ImageClip>
    <ImageClip extentID="1427" gapBefore="0" mediaItemID="1423" duration="0.040000000000000001">
      <Effects />
      <Transitions />
      <BoundProperties>
        <BoundPropertyInt Name="rotateStepNinety" Value="0" />
      </BoundProperties>
    </ImageClip>
    <ImageClip extentID="1428" gapBefore="0" mediaItemID="1424" duration="0.040000000000000001">
      <Effects />
      <Transitions />
      <BoundProperties>
        <BoundPropertyInt Name="rotateStepNinety" Value="0" />
      </BoundProperties>
    </ImageClip>
    <ImageClip extentID="1429" gapBefore="0" mediaItemID="1425" duration="0.040000000000000001">
      <Effects />
      <Transitions />
      <BoundProperties>
        <BoundPropertyInt Name="rotateStepNinety" Value="0" />
      </BoundProperties>
    </ImageClip>
    <ImageClip extentID="1430" gapBefore="0" mediaItemID="1426" duration="0.040000000000000001">
      <Effects />
      <Transitions />
      <BoundProperties>
        <BoundPropertyInt Name="rotateStepNinety" Value="0" />
      </BoundProperties>
    </ImageClip>
    <ImageClip extentID="1431" gapBefore="0" mediaItemID="1427" duration="0.040000000000000001">
      <Effects />
      <Transitions />
      <BoundProperties>
        <BoundPropertyInt Name="rotateStepNinety" Value="0" />
      </BoundProperties>
    </ImageClip>
    <ImageClip extentID="1432" gapBefore="0" mediaItemID="1428" duration="0.040000000000000001">
      <Effects />
      <Transitions />
      <BoundProperties>
        <BoundPropertyInt Name="rotateStepNinety" Value="0" />
      </BoundProperties>
    </ImageClip>
    <ImageClip extentID="1433" gapBefore="0" mediaItemID="1429" duration="0.040000000000000001">
      <Effects />
      <Transitions />
      <BoundProperties>
        <BoundPropertyInt Name="rotateStepNinety" Value="0" />
      </BoundProperties>
    </ImageClip>
    <ImageClip extentID="1434" gapBefore="0" mediaItemID="1430" duration="0.040000000000000001">
      <Effects />
      <Transitions />
      <BoundProperties>
        <BoundPropertyInt Name="rotateStepNinety" Value="0" />
      </BoundProperties>
    </ImageClip>
    <ImageClip extentID="1435" gapBefore="0" mediaItemID="1431" duration="0.040000000000000001">
      <Effects />
      <Transitions />
      <BoundProperties>
        <BoundPropertyInt Name="rotateStepNinety" Value="0" />
      </BoundProperties>
    </ImageClip>
    <ImageClip extentID="1436" gapBefore="0" mediaItemID="1432" duration="0.040000000000000001">
      <Effects />
      <Transitions />
      <BoundProperties>
        <BoundPropertyInt Name="rotateStepNinety" Value="0" />
      </BoundProperties>
    </ImageClip>
    <ImageClip extentID="1437" gapBefore="0" mediaItemID="1433" duration="0.040000000000000001">
      <Effects />
      <Transitions />
      <BoundProperties>
        <BoundPropertyInt Name="rotateStepNinety" Value="0" />
      </BoundProperties>
    </ImageClip>
    <ImageClip extentID="1438" gapBefore="0" mediaItemID="1434" duration="0.040000000000000001">
      <Effects />
      <Transitions />
      <BoundProperties>
        <BoundPropertyInt Name="rotateStepNinety" Value="0" />
      </BoundProperties>
    </ImageClip>
    <ImageClip extentID="1439" gapBefore="0" mediaItemID="1435" duration="0.040000000000000001">
      <Effects />
      <Transitions />
      <BoundProperties>
        <BoundPropertyInt Name="rotateStepNinety" Value="0" />
      </BoundProperties>
    </ImageClip>
    <ImageClip extentID="1440" gapBefore="0" mediaItemID="1436" duration="0.040000000000000001">
      <Effects />
      <Transitions />
      <BoundProperties>
        <BoundPropertyInt Name="rotateStepNinety" Value="0" />
      </BoundProperties>
    </ImageClip>
    <ImageClip extentID="1441" gapBefore="0" mediaItemID="1437" duration="0.040000000000000001">
      <Effects />
      <Transitions />
      <BoundProperties>
        <BoundPropertyInt Name="rotateStepNinety" Value="0" />
      </BoundProperties>
    </ImageClip>
    <ImageClip extentID="1442" gapBefore="0" mediaItemID="1438" duration="0.040000000000000001">
      <Effects />
      <Transitions />
      <BoundProperties>
        <BoundPropertyInt Name="rotateStepNinety" Value="0" />
      </BoundProperties>
    </ImageClip>
    <ImageClip extentID="1443" gapBefore="0" mediaItemID="1439" duration="0.040000000000000001">
      <Effects />
      <Transitions />
      <BoundProperties>
        <BoundPropertyInt Name="rotateStepNinety" Value="0" />
      </BoundProperties>
    </ImageClip>
    <ImageClip extentID="1444" gapBefore="0" mediaItemID="1440" duration="0.040000000000000001">
      <Effects />
      <Transitions />
      <BoundProperties>
        <BoundPropertyInt Name="rotateStepNinety" Value="0" />
      </BoundProperties>
    </ImageClip>
    <ImageClip extentID="1445" gapBefore="0" mediaItemID="1441" duration="0.040000000000000001">
      <Effects />
      <Transitions />
      <BoundProperties>
        <BoundPropertyInt Name="rotateStepNinety" Value="0" />
      </BoundProperties>
    </ImageClip>
    <ImageClip extentID="1446" gapBefore="0" mediaItemID="1442" duration="0.040000000000000001">
      <Effects />
      <Transitions />
      <BoundProperties>
        <BoundPropertyInt Name="rotateStepNinety" Value="0" />
      </BoundProperties>
    </ImageClip>
    <ImageClip extentID="1447" gapBefore="0" mediaItemID="1443" duration="0.040000000000000001">
      <Effects />
      <Transitions />
      <BoundProperties>
        <BoundPropertyInt Name="rotateStepNinety" Value="0" />
      </BoundProperties>
    </ImageClip>
    <ImageClip extentID="1448" gapBefore="0" mediaItemID="1444" duration="0.040000000000000001">
      <Effects />
      <Transitions />
      <BoundProperties>
        <BoundPropertyInt Name="rotateStepNinety" Value="0" />
      </BoundProperties>
    </ImageClip>
    <ImageClip extentID="1449" gapBefore="0" mediaItemID="1445" duration="0.040000000000000001">
      <Effects />
      <Transitions />
      <BoundProperties>
        <BoundPropertyInt Name="rotateStepNinety" Value="0" />
      </BoundProperties>
    </ImageClip>
    <ImageClip extentID="1450" gapBefore="0" mediaItemID="1446" duration="0.040000000000000001">
      <Effects />
      <Transitions />
      <BoundProperties>
        <BoundPropertyInt Name="rotateStepNinety" Value="0" />
      </BoundProperties>
    </ImageClip>
    <ImageClip extentID="1451" gapBefore="0" mediaItemID="1447" duration="0.040000000000000001">
      <Effects />
      <Transitions />
      <BoundProperties>
        <BoundPropertyInt Name="rotateStepNinety" Value="0" />
      </BoundProperties>
    </ImageClip>
    <ImageClip extentID="1452" gapBefore="0" mediaItemID="1448" duration="0.040000000000000001">
      <Effects />
      <Transitions />
      <BoundProperties>
        <BoundPropertyInt Name="rotateStepNinety" Value="0" />
      </BoundProperties>
    </ImageClip>
    <ImageClip extentID="1453" gapBefore="0" mediaItemID="1449" duration="0.040000000000000001">
      <Effects />
      <Transitions />
      <BoundProperties>
        <BoundPropertyInt Name="rotateStepNinety" Value="0" />
      </BoundProperties>
    </ImageClip>
    <ImageClip extentID="1454" gapBefore="0" mediaItemID="1450" duration="0.040000000000000001">
      <Effects />
      <Transitions />
      <BoundProperties>
        <BoundPropertyInt Name="rotateStepNinety" Value="0" />
      </BoundProperties>
    </ImageClip>
    <ImageClip extentID="1455" gapBefore="0" mediaItemID="1451" duration="0.040000000000000001">
      <Effects />
      <Transitions />
      <BoundProperties>
        <BoundPropertyInt Name="rotateStepNinety" Value="0" />
      </BoundProperties>
    </ImageClip>
    <ImageClip extentID="1456" gapBefore="0" mediaItemID="1452" duration="0.040000000000000001">
      <Effects />
      <Transitions />
      <BoundProperties>
        <BoundPropertyInt Name="rotateStepNinety" Value="0" />
      </BoundProperties>
    </ImageClip>
    <ImageClip extentID="1457" gapBefore="0" mediaItemID="1453" duration="0.040000000000000001">
      <Effects />
      <Transitions />
      <BoundProperties>
        <BoundPropertyInt Name="rotateStepNinety" Value="0" />
      </BoundProperties>
    </ImageClip>
    <ImageClip extentID="1458" gapBefore="0" mediaItemID="1454" duration="0.040000000000000001">
      <Effects />
      <Transitions />
      <BoundProperties>
        <BoundPropertyInt Name="rotateStepNinety" Value="0" />
      </BoundProperties>
    </ImageClip>
    <ImageClip extentID="1459" gapBefore="0" mediaItemID="1455" duration="0.040000000000000001">
      <Effects />
      <Transitions />
      <BoundProperties>
        <BoundPropertyInt Name="rotateStepNinety" Value="0" />
      </BoundProperties>
    </ImageClip>
    <ImageClip extentID="1460" gapBefore="0" mediaItemID="1456" duration="0.040000000000000001">
      <Effects />
      <Transitions />
      <BoundProperties>
        <BoundPropertyInt Name="rotateStepNinety" Value="0" />
      </BoundProperties>
    </ImageClip>
    <ImageClip extentID="1461" gapBefore="0" mediaItemID="1457" duration="0.040000000000000001">
      <Effects />
      <Transitions />
      <BoundProperties>
        <BoundPropertyInt Name="rotateStepNinety" Value="0" />
      </BoundProperties>
    </ImageClip>
    <ImageClip extentID="1462" gapBefore="0" mediaItemID="1458" duration="0.040000000000000001">
      <Effects />
      <Transitions />
      <BoundProperties>
        <BoundPropertyInt Name="rotateStepNinety" Value="0" />
      </BoundProperties>
    </ImageClip>
    <ImageClip extentID="1463" gapBefore="0" mediaItemID="1459" duration="0.040000000000000001">
      <Effects />
      <Transitions />
      <BoundProperties>
        <BoundPropertyInt Name="rotateStepNinety" Value="0" />
      </BoundProperties>
    </ImageClip>
    <ImageClip extentID="1464" gapBefore="0" mediaItemID="1460" duration="0.040000000000000001">
      <Effects />
      <Transitions />
      <BoundProperties>
        <BoundPropertyInt Name="rotateStepNinety" Value="0" />
      </BoundProperties>
    </ImageClip>
    <ImageClip extentID="1465" gapBefore="0" mediaItemID="1461" duration="0.040000000000000001">
      <Effects />
      <Transitions />
      <BoundProperties>
        <BoundPropertyInt Name="rotateStepNinety" Value="0" />
      </BoundProperties>
    </ImageClip>
    <ImageClip extentID="1466" gapBefore="0" mediaItemID="1462" duration="0.040000000000000001">
      <Effects />
      <Transitions />
      <BoundProperties>
        <BoundPropertyInt Name="rotateStepNinety" Value="0" />
      </BoundProperties>
    </ImageClip>
    <ImageClip extentID="1467" gapBefore="0" mediaItemID="1463" duration="0.040000000000000001">
      <Effects />
      <Transitions />
      <BoundProperties>
        <BoundPropertyInt Name="rotateStepNinety" Value="0" />
      </BoundProperties>
    </ImageClip>
    <ImageClip extentID="1468" gapBefore="0" mediaItemID="1464" duration="0.040000000000000001">
      <Effects />
      <Transitions />
      <BoundProperties>
        <BoundPropertyInt Name="rotateStepNinety" Value="0" />
      </BoundProperties>
    </ImageClip>
    <ImageClip extentID="1469" gapBefore="0" mediaItemID="1465" duration="0.040000000000000001">
      <Effects />
      <Transitions />
      <BoundProperties>
        <BoundPropertyInt Name="rotateStepNinety" Value="0" />
      </BoundProperties>
    </ImageClip>
    <ImageClip extentID="1470" gapBefore="0" mediaItemID="1466" duration="0.040000000000000001">
      <Effects />
      <Transitions />
      <BoundProperties>
        <BoundPropertyInt Name="rotateStepNinety" Value="0" />
      </BoundProperties>
    </ImageClip>
    <ImageClip extentID="1471" gapBefore="0" mediaItemID="1467" duration="0.040000000000000001">
      <Effects />
      <Transitions />
      <BoundProperties>
        <BoundPropertyInt Name="rotateStepNinety" Value="0" />
      </BoundProperties>
    </ImageClip>
    <ImageClip extentID="1472" gapBefore="0" mediaItemID="1468" duration="0.040000000000000001">
      <Effects />
      <Transitions />
      <BoundProperties>
        <BoundPropertyInt Name="rotateStepNinety" Value="0" />
      </BoundProperties>
    </ImageClip>
    <ImageClip extentID="1473" gapBefore="0" mediaItemID="1469" duration="0.040000000000000001">
      <Effects />
      <Transitions />
      <BoundProperties>
        <BoundPropertyInt Name="rotateStepNinety" Value="0" />
      </BoundProperties>
    </ImageClip>
    <ImageClip extentID="1474" gapBefore="0" mediaItemID="1470" duration="0.040000000000000001">
      <Effects />
      <Transitions />
      <BoundProperties>
        <BoundPropertyInt Name="rotateStepNinety" Value="0" />
      </BoundProperties>
    </ImageClip>
    <ImageClip extentID="1475" gapBefore="0" mediaItemID="1471" duration="0.040000000000000001">
      <Effects />
      <Transitions />
      <BoundProperties>
        <BoundPropertyInt Name="rotateStepNinety" Value="0" />
      </BoundProperties>
    </ImageClip>
    <ImageClip extentID="1476" gapBefore="0" mediaItemID="1472" duration="0.040000000000000001">
      <Effects />
      <Transitions />
      <BoundProperties>
        <BoundPropertyInt Name="rotateStepNinety" Value="0" />
      </BoundProperties>
    </ImageClip>
    <ImageClip extentID="1477" gapBefore="0" mediaItemID="1473" duration="0.040000000000000001">
      <Effects />
      <Transitions />
      <BoundProperties>
        <BoundPropertyInt Name="rotateStepNinety" Value="0" />
      </BoundProperties>
    </ImageClip>
    <ImageClip extentID="1478" gapBefore="0" mediaItemID="1474" duration="0.040000000000000001">
      <Effects />
      <Transitions />
      <BoundProperties>
        <BoundPropertyInt Name="rotateStepNinety" Value="0" />
      </BoundProperties>
    </ImageClip>
    <ImageClip extentID="1479" gapBefore="0" mediaItemID="1475" duration="0.040000000000000001">
      <Effects />
      <Transitions />
      <BoundProperties>
        <BoundPropertyInt Name="rotateStepNinety" Value="0" />
      </BoundProperties>
    </ImageClip>
    <ImageClip extentID="1480" gapBefore="0" mediaItemID="1476" duration="0.040000000000000001">
      <Effects />
      <Transitions />
      <BoundProperties>
        <BoundPropertyInt Name="rotateStepNinety" Value="0" />
      </BoundProperties>
    </ImageClip>
    <ImageClip extentID="1481" gapBefore="0" mediaItemID="1477" duration="0.040000000000000001">
      <Effects />
      <Transitions />
      <BoundProperties>
        <BoundPropertyInt Name="rotateStepNinety" Value="0" />
      </BoundProperties>
    </ImageClip>
    <ImageClip extentID="1482" gapBefore="0" mediaItemID="1478" duration="0.040000000000000001">
      <Effects />
      <Transitions />
      <BoundProperties>
        <BoundPropertyInt Name="rotateStepNinety" Value="0" />
      </BoundProperties>
    </ImageClip>
    <ImageClip extentID="1483" gapBefore="0" mediaItemID="1479" duration="0.040000000000000001">
      <Effects />
      <Transitions />
      <BoundProperties>
        <BoundPropertyInt Name="rotateStepNinety" Value="0" />
      </BoundProperties>
    </ImageClip>
    <ImageClip extentID="1484" gapBefore="0" mediaItemID="1480" duration="0.040000000000000001">
      <Effects />
      <Transitions />
      <BoundProperties>
        <BoundPropertyInt Name="rotateStepNinety" Value="0" />
      </BoundProperties>
    </ImageClip>
    <ImageClip extentID="1485" gapBefore="0" mediaItemID="1481" duration="0.040000000000000001">
      <Effects />
      <Transitions />
      <BoundProperties>
        <BoundPropertyInt Name="rotateStepNinety" Value="0" />
      </BoundProperties>
    </ImageClip>
    <ImageClip extentID="1486" gapBefore="0" mediaItemID="1482" duration="0.040000000000000001">
      <Effects />
      <Transitions />
      <BoundProperties>
        <BoundPropertyInt Name="rotateStepNinety" Value="0" />
      </BoundProperties>
    </ImageClip>
    <ImageClip extentID="1487" gapBefore="0" mediaItemID="1483" duration="0.040000000000000001">
      <Effects />
      <Transitions />
      <BoundProperties>
        <BoundPropertyInt Name="rotateStepNinety" Value="0" />
      </BoundProperties>
    </ImageClip>
    <ImageClip extentID="1488" gapBefore="0" mediaItemID="1484" duration="0.040000000000000001">
      <Effects />
      <Transitions />
      <BoundProperties>
        <BoundPropertyInt Name="rotateStepNinety" Value="0" />
      </BoundProperties>
    </ImageClip>
    <ImageClip extentID="1489" gapBefore="0" mediaItemID="1485" duration="0.040000000000000001">
      <Effects />
      <Transitions />
      <BoundProperties>
        <BoundPropertyInt Name="rotateStepNinety" Value="0" />
      </BoundProperties>
    </ImageClip>
    <ImageClip extentID="1490" gapBefore="0" mediaItemID="1486" duration="0.040000000000000001">
      <Effects />
      <Transitions />
      <BoundProperties>
        <BoundPropertyInt Name="rotateStepNinety" Value="0" />
      </BoundProperties>
    </ImageClip>
    <ImageClip extentID="1491" gapBefore="0" mediaItemID="1487" duration="0.040000000000000001">
      <Effects />
      <Transitions />
      <BoundProperties>
        <BoundPropertyInt Name="rotateStepNinety" Value="0" />
      </BoundProperties>
    </ImageClip>
    <ImageClip extentID="1492" gapBefore="0" mediaItemID="1488" duration="0.040000000000000001">
      <Effects />
      <Transitions />
      <BoundProperties>
        <BoundPropertyInt Name="rotateStepNinety" Value="0" />
      </BoundProperties>
    </ImageClip>
    <ImageClip extentID="1493" gapBefore="0" mediaItemID="1489" duration="0.040000000000000001">
      <Effects />
      <Transitions />
      <BoundProperties>
        <BoundPropertyInt Name="rotateStepNinety" Value="0" />
      </BoundProperties>
    </ImageClip>
    <ImageClip extentID="1494" gapBefore="0" mediaItemID="1490" duration="0.040000000000000001">
      <Effects />
      <Transitions />
      <BoundProperties>
        <BoundPropertyInt Name="rotateStepNinety" Value="0" />
      </BoundProperties>
    </ImageClip>
    <ImageClip extentID="1495" gapBefore="0" mediaItemID="1491" duration="0.040000000000000001">
      <Effects />
      <Transitions />
      <BoundProperties>
        <BoundPropertyInt Name="rotateStepNinety" Value="0" />
      </BoundProperties>
    </ImageClip>
    <ImageClip extentID="1496" gapBefore="0" mediaItemID="1492" duration="0.040000000000000001">
      <Effects />
      <Transitions />
      <BoundProperties>
        <BoundPropertyInt Name="rotateStepNinety" Value="0" />
      </BoundProperties>
    </ImageClip>
    <ImageClip extentID="1497" gapBefore="0" mediaItemID="1493" duration="0.040000000000000001">
      <Effects />
      <Transitions />
      <BoundProperties>
        <BoundPropertyInt Name="rotateStepNinety" Value="0" />
      </BoundProperties>
    </ImageClip>
    <ImageClip extentID="1498" gapBefore="0" mediaItemID="1494" duration="0.040000000000000001">
      <Effects />
      <Transitions />
      <BoundProperties>
        <BoundPropertyInt Name="rotateStepNinety" Value="0" />
      </BoundProperties>
    </ImageClip>
    <ImageClip extentID="1499" gapBefore="0" mediaItemID="1495" duration="0.040000000000000001">
      <Effects />
      <Transitions />
      <BoundProperties>
        <BoundPropertyInt Name="rotateStepNinety" Value="0" />
      </BoundProperties>
    </ImageClip>
    <ImageClip extentID="1500" gapBefore="0" mediaItemID="1496" duration="0.040000000000000001">
      <Effects />
      <Transitions />
      <BoundProperties>
        <BoundPropertyInt Name="rotateStepNinety" Value="0" />
      </BoundProperties>
    </ImageClip>
    <ImageClip extentID="1501" gapBefore="0" mediaItemID="1497" duration="0.040000000000000001">
      <Effects />
      <Transitions />
      <BoundProperties>
        <BoundPropertyInt Name="rotateStepNinety" Value="0" />
      </BoundProperties>
    </ImageClip>
    <ImageClip extentID="1502" gapBefore="0" mediaItemID="1498" duration="0.040000000000000001">
      <Effects />
      <Transitions />
      <BoundProperties>
        <BoundPropertyInt Name="rotateStepNinety" Value="0" />
      </BoundProperties>
    </ImageClip>
    <ImageClip extentID="1503" gapBefore="0" mediaItemID="1499" duration="0.040000000000000001">
      <Effects />
      <Transitions />
      <BoundProperties>
        <BoundPropertyInt Name="rotateStepNinety" Value="0" />
      </BoundProperties>
    </ImageClip>
    <ImageClip extentID="1504" gapBefore="0" mediaItemID="1500" duration="0.040000000000000001">
      <Effects />
      <Transitions />
      <BoundProperties>
        <BoundPropertyInt Name="rotateStepNinety" Value="0" />
      </BoundProperties>
    </ImageClip>
    <ImageClip extentID="1505" gapBefore="0" mediaItemID="1501" duration="0.040000000000000001">
      <Effects />
      <Transitions />
      <BoundProperties>
        <BoundPropertyInt Name="rotateStepNinety" Value="0" />
      </BoundProperties>
    </ImageClip>
    <ImageClip extentID="1506" gapBefore="0" mediaItemID="1502" duration="0.040000000000000001">
      <Effects />
      <Transitions />
      <BoundProperties>
        <BoundPropertyInt Name="rotateStepNinety" Value="0" />
      </BoundProperties>
    </ImageClip>
    <ImageClip extentID="1507" gapBefore="0" mediaItemID="1503" duration="0.040000000000000001">
      <Effects />
      <Transitions />
      <BoundProperties>
        <BoundPropertyInt Name="rotateStepNinety" Value="0" />
      </BoundProperties>
    </ImageClip>
    <ImageClip extentID="1508" gapBefore="0" mediaItemID="1504" duration="0.040000000000000001">
      <Effects />
      <Transitions />
      <BoundProperties>
        <BoundPropertyInt Name="rotateStepNinety" Value="0" />
      </BoundProperties>
    </ImageClip>
    <ImageClip extentID="1509" gapBefore="0" mediaItemID="1505" duration="0.040000000000000001">
      <Effects />
      <Transitions />
      <BoundProperties>
        <BoundPropertyInt Name="rotateStepNinety" Value="0" />
      </BoundProperties>
    </ImageClip>
    <ImageClip extentID="1510" gapBefore="0" mediaItemID="1506" duration="0.040000000000000001">
      <Effects />
      <Transitions />
      <BoundProperties>
        <BoundPropertyInt Name="rotateStepNinety" Value="0" />
      </BoundProperties>
    </ImageClip>
    <ImageClip extentID="1511" gapBefore="0" mediaItemID="1507" duration="0.040000000000000001">
      <Effects />
      <Transitions />
      <BoundProperties>
        <BoundPropertyInt Name="rotateStepNinety" Value="0" />
      </BoundProperties>
    </ImageClip>
    <ImageClip extentID="1512" gapBefore="0" mediaItemID="1508" duration="0.040000000000000001">
      <Effects />
      <Transitions />
      <BoundProperties>
        <BoundPropertyInt Name="rotateStepNinety" Value="0" />
      </BoundProperties>
    </ImageClip>
    <ImageClip extentID="1513" gapBefore="0" mediaItemID="1509" duration="0.040000000000000001">
      <Effects />
      <Transitions />
      <BoundProperties>
        <BoundPropertyInt Name="rotateStepNinety" Value="0" />
      </BoundProperties>
    </ImageClip>
    <ImageClip extentID="1514" gapBefore="0" mediaItemID="1510" duration="0.040000000000000001">
      <Effects />
      <Transitions />
      <BoundProperties>
        <BoundPropertyInt Name="rotateStepNinety" Value="0" />
      </BoundProperties>
    </ImageClip>
    <ImageClip extentID="1515" gapBefore="0" mediaItemID="1511" duration="0.040000000000000001">
      <Effects />
      <Transitions />
      <BoundProperties>
        <BoundPropertyInt Name="rotateStepNinety" Value="0" />
      </BoundProperties>
    </ImageClip>
    <ImageClip extentID="1516" gapBefore="0" mediaItemID="1512" duration="0.040000000000000001">
      <Effects />
      <Transitions />
      <BoundProperties>
        <BoundPropertyInt Name="rotateStepNinety" Value="0" />
      </BoundProperties>
    </ImageClip>
    <ImageClip extentID="1517" gapBefore="0" mediaItemID="1513" duration="0.040000000000000001">
      <Effects />
      <Transitions />
      <BoundProperties>
        <BoundPropertyInt Name="rotateStepNinety" Value="0" />
      </BoundProperties>
    </ImageClip>
    <ImageClip extentID="1518" gapBefore="0" mediaItemID="1514" duration="0.040000000000000001">
      <Effects />
      <Transitions />
      <BoundProperties>
        <BoundPropertyInt Name="rotateStepNinety" Value="0" />
      </BoundProperties>
    </ImageClip>
    <ImageClip extentID="1519" gapBefore="0" mediaItemID="1515" duration="0.040000000000000001">
      <Effects />
      <Transitions />
      <BoundProperties>
        <BoundPropertyInt Name="rotateStepNinety" Value="0" />
      </BoundProperties>
    </ImageClip>
    <ImageClip extentID="1520" gapBefore="0" mediaItemID="1516" duration="0.040000000000000001">
      <Effects />
      <Transitions />
      <BoundProperties>
        <BoundPropertyInt Name="rotateStepNinety" Value="0" />
      </BoundProperties>
    </ImageClip>
    <ImageClip extentID="1521" gapBefore="0" mediaItemID="1517" duration="0.040000000000000001">
      <Effects />
      <Transitions />
      <BoundProperties>
        <BoundPropertyInt Name="rotateStepNinety" Value="0" />
      </BoundProperties>
    </ImageClip>
    <ImageClip extentID="1522" gapBefore="0" mediaItemID="1518" duration="0.040000000000000001">
      <Effects />
      <Transitions />
      <BoundProperties>
        <BoundPropertyInt Name="rotateStepNinety" Value="0" />
      </BoundProperties>
    </ImageClip>
    <ImageClip extentID="1523" gapBefore="0" mediaItemID="1519" duration="0.040000000000000001">
      <Effects />
      <Transitions />
      <BoundProperties>
        <BoundPropertyInt Name="rotateStepNinety" Value="0" />
      </BoundProperties>
    </ImageClip>
    <ImageClip extentID="1524" gapBefore="0" mediaItemID="1520" duration="0.040000000000000001">
      <Effects />
      <Transitions />
      <BoundProperties>
        <BoundPropertyInt Name="rotateStepNinety" Value="0" />
      </BoundProperties>
    </ImageClip>
    <ImageClip extentID="1525" gapBefore="0" mediaItemID="1521" duration="0.040000000000000001">
      <Effects />
      <Transitions />
      <BoundProperties>
        <BoundPropertyInt Name="rotateStepNinety" Value="0" />
      </BoundProperties>
    </ImageClip>
    <ImageClip extentID="1526" gapBefore="0" mediaItemID="1522" duration="0.040000000000000001">
      <Effects />
      <Transitions />
      <BoundProperties>
        <BoundPropertyInt Name="rotateStepNinety" Value="0" />
      </BoundProperties>
    </ImageClip>
    <ImageClip extentID="1527" gapBefore="0" mediaItemID="1523" duration="0.040000000000000001">
      <Effects />
      <Transitions />
      <BoundProperties>
        <BoundPropertyInt Name="rotateStepNinety" Value="0" />
      </BoundProperties>
    </ImageClip>
    <ImageClip extentID="1528" gapBefore="0" mediaItemID="1524" duration="0.040000000000000001">
      <Effects />
      <Transitions />
      <BoundProperties>
        <BoundPropertyInt Name="rotateStepNinety" Value="0" />
      </BoundProperties>
    </ImageClip>
    <ImageClip extentID="1529" gapBefore="0" mediaItemID="1525" duration="0.040000000000000001">
      <Effects />
      <Transitions />
      <BoundProperties>
        <BoundPropertyInt Name="rotateStepNinety" Value="0" />
      </BoundProperties>
    </ImageClip>
    <ImageClip extentID="1530" gapBefore="0" mediaItemID="1526" duration="0.040000000000000001">
      <Effects />
      <Transitions />
      <BoundProperties>
        <BoundPropertyInt Name="rotateStepNinety" Value="0" />
      </BoundProperties>
    </ImageClip>
    <ImageClip extentID="1531" gapBefore="0" mediaItemID="1527" duration="0.040000000000000001">
      <Effects />
      <Transitions />
      <BoundProperties>
        <BoundPropertyInt Name="rotateStepNinety" Value="0" />
      </BoundProperties>
    </ImageClip>
    <ImageClip extentID="1532" gapBefore="0" mediaItemID="1528" duration="0.040000000000000001">
      <Effects />
      <Transitions />
      <BoundProperties>
        <BoundPropertyInt Name="rotateStepNinety" Value="0" />
      </BoundProperties>
    </ImageClip>
    <ImageClip extentID="1533" gapBefore="0" mediaItemID="1529" duration="0.040000000000000001">
      <Effects />
      <Transitions />
      <BoundProperties>
        <BoundPropertyInt Name="rotateStepNinety" Value="0" />
      </BoundProperties>
    </ImageClip>
    <ImageClip extentID="1534" gapBefore="0" mediaItemID="1530" duration="0.040000000000000001">
      <Effects />
      <Transitions />
      <BoundProperties>
        <BoundPropertyInt Name="rotateStepNinety" Value="0" />
      </BoundProperties>
    </ImageClip>
    <ImageClip extentID="1535" gapBefore="0" mediaItemID="1531" duration="0.040000000000000001">
      <Effects />
      <Transitions />
      <BoundProperties>
        <BoundPropertyInt Name="rotateStepNinety" Value="0" />
      </BoundProperties>
    </ImageClip>
    <ImageClip extentID="1536" gapBefore="0" mediaItemID="1532" duration="0.040000000000000001">
      <Effects />
      <Transitions />
      <BoundProperties>
        <BoundPropertyInt Name="rotateStepNinety" Value="0" />
      </BoundProperties>
    </ImageClip>
    <ImageClip extentID="1537" gapBefore="0" mediaItemID="1533" duration="0.040000000000000001">
      <Effects />
      <Transitions />
      <BoundProperties>
        <BoundPropertyInt Name="rotateStepNinety" Value="0" />
      </BoundProperties>
    </ImageClip>
    <ImageClip extentID="1538" gapBefore="0" mediaItemID="1534" duration="0.040000000000000001">
      <Effects />
      <Transitions />
      <BoundProperties>
        <BoundPropertyInt Name="rotateStepNinety" Value="0" />
      </BoundProperties>
    </ImageClip>
    <ImageClip extentID="1539" gapBefore="0" mediaItemID="1535" duration="0.040000000000000001">
      <Effects />
      <Transitions />
      <BoundProperties>
        <BoundPropertyInt Name="rotateStepNinety" Value="0" />
      </BoundProperties>
    </ImageClip>
    <ImageClip extentID="1540" gapBefore="0" mediaItemID="1536" duration="0.040000000000000001">
      <Effects />
      <Transitions />
      <BoundProperties>
        <BoundPropertyInt Name="rotateStepNinety" Value="0" />
      </BoundProperties>
    </ImageClip>
    <ImageClip extentID="1541" gapBefore="0" mediaItemID="1537" duration="0.040000000000000001">
      <Effects />
      <Transitions />
      <BoundProperties>
        <BoundPropertyInt Name="rotateStepNinety" Value="0" />
      </BoundProperties>
    </ImageClip>
    <ImageClip extentID="1542" gapBefore="0" mediaItemID="1538" duration="0.040000000000000001">
      <Effects />
      <Transitions />
      <BoundProperties>
        <BoundPropertyInt Name="rotateStepNinety" Value="0" />
      </BoundProperties>
    </ImageClip>
    <ImageClip extentID="1543" gapBefore="0" mediaItemID="1539" duration="0.040000000000000001">
      <Effects />
      <Transitions />
      <BoundProperties>
        <BoundPropertyInt Name="rotateStepNinety" Value="0" />
      </BoundProperties>
    </ImageClip>
    <ImageClip extentID="1544" gapBefore="0" mediaItemID="1540" duration="0.040000000000000001">
      <Effects />
      <Transitions />
      <BoundProperties>
        <BoundPropertyInt Name="rotateStepNinety" Value="0" />
      </BoundProperties>
    </ImageClip>
    <ImageClip extentID="1545" gapBefore="0" mediaItemID="1541" duration="0.040000000000000001">
      <Effects />
      <Transitions />
      <BoundProperties>
        <BoundPropertyInt Name="rotateStepNinety" Value="0" />
      </BoundProperties>
    </ImageClip>
    <ImageClip extentID="1546" gapBefore="0" mediaItemID="1542" duration="0.040000000000000001">
      <Effects />
      <Transitions />
      <BoundProperties>
        <BoundPropertyInt Name="rotateStepNinety" Value="0" />
      </BoundProperties>
    </ImageClip>
    <ImageClip extentID="1547" gapBefore="0" mediaItemID="1543" duration="0.040000000000000001">
      <Effects />
      <Transitions />
      <BoundProperties>
        <BoundPropertyInt Name="rotateStepNinety" Value="0" />
      </BoundProperties>
    </ImageClip>
    <ImageClip extentID="1548" gapBefore="0" mediaItemID="1544" duration="0.040000000000000001">
      <Effects />
      <Transitions />
      <BoundProperties>
        <BoundPropertyInt Name="rotateStepNinety" Value="0" />
      </BoundProperties>
    </ImageClip>
    <ImageClip extentID="1549" gapBefore="0" mediaItemID="1545" duration="0.040000000000000001">
      <Effects />
      <Transitions />
      <BoundProperties>
        <BoundPropertyInt Name="rotateStepNinety" Value="0" />
      </BoundProperties>
    </ImageClip>
    <ImageClip extentID="1550" gapBefore="0" mediaItemID="1546" duration="0.040000000000000001">
      <Effects />
      <Transitions />
      <BoundProperties>
        <BoundPropertyInt Name="rotateStepNinety" Value="0" />
      </BoundProperties>
    </ImageClip>
    <ImageClip extentID="1551" gapBefore="0" mediaItemID="1547" duration="0.040000000000000001">
      <Effects />
      <Transitions />
      <BoundProperties>
        <BoundPropertyInt Name="rotateStepNinety" Value="0" />
      </BoundProperties>
    </ImageClip>
    <ImageClip extentID="1552" gapBefore="0" mediaItemID="1548" duration="0.040000000000000001">
      <Effects />
      <Transitions />
      <BoundProperties>
        <BoundPropertyInt Name="rotateStepNinety" Value="0" />
      </BoundProperties>
    </ImageClip>
    <ImageClip extentID="1553" gapBefore="0" mediaItemID="1549" duration="0.040000000000000001">
      <Effects />
      <Transitions />
      <BoundProperties>
        <BoundPropertyInt Name="rotateStepNinety" Value="0" />
      </BoundProperties>
    </ImageClip>
    <ImageClip extentID="1554" gapBefore="0" mediaItemID="1550" duration="0.040000000000000001">
      <Effects />
      <Transitions />
      <BoundProperties>
        <BoundPropertyInt Name="rotateStepNinety" Value="0" />
      </BoundProperties>
    </ImageClip>
    <ImageClip extentID="1555" gapBefore="0" mediaItemID="1551" duration="0.040000000000000001">
      <Effects />
      <Transitions />
      <BoundProperties>
        <BoundPropertyInt Name="rotateStepNinety" Value="0" />
      </BoundProperties>
    </ImageClip>
    <ImageClip extentID="1556" gapBefore="0" mediaItemID="1552" duration="0.040000000000000001">
      <Effects />
      <Transitions />
      <BoundProperties>
        <BoundPropertyInt Name="rotateStepNinety" Value="0" />
      </BoundProperties>
    </ImageClip>
    <ImageClip extentID="1557" gapBefore="0" mediaItemID="1553" duration="0.040000000000000001">
      <Effects />
      <Transitions />
      <BoundProperties>
        <BoundPropertyInt Name="rotateStepNinety" Value="0" />
      </BoundProperties>
    </ImageClip>
    <ImageClip extentID="1558" gapBefore="0" mediaItemID="1554" duration="0.040000000000000001">
      <Effects />
      <Transitions />
      <BoundProperties>
        <BoundPropertyInt Name="rotateStepNinety" Value="0" />
      </BoundProperties>
    </ImageClip>
    <ImageClip extentID="1559" gapBefore="0" mediaItemID="1555" duration="0.040000000000000001">
      <Effects />
      <Transitions />
      <BoundProperties>
        <BoundPropertyInt Name="rotateStepNinety" Value="0" />
      </BoundProperties>
    </ImageClip>
    <ImageClip extentID="1560" gapBefore="0" mediaItemID="1556" duration="0.040000000000000001">
      <Effects />
      <Transitions />
      <BoundProperties>
        <BoundPropertyInt Name="rotateStepNinety" Value="0" />
      </BoundProperties>
    </ImageClip>
    <ImageClip extentID="1561" gapBefore="0" mediaItemID="1557" duration="0.040000000000000001">
      <Effects />
      <Transitions />
      <BoundProperties>
        <BoundPropertyInt Name="rotateStepNinety" Value="0" />
      </BoundProperties>
    </ImageClip>
    <ImageClip extentID="1562" gapBefore="0" mediaItemID="1558" duration="0.040000000000000001">
      <Effects />
      <Transitions />
      <BoundProperties>
        <BoundPropertyInt Name="rotateStepNinety" Value="0" />
      </BoundProperties>
    </ImageClip>
    <ImageClip extentID="1563" gapBefore="0" mediaItemID="1559" duration="0.040000000000000001">
      <Effects />
      <Transitions />
      <BoundProperties>
        <BoundPropertyInt Name="rotateStepNinety" Value="0" />
      </BoundProperties>
    </ImageClip>
    <ImageClip extentID="1564" gapBefore="0" mediaItemID="1560" duration="0.040000000000000001">
      <Effects />
      <Transitions />
      <BoundProperties>
        <BoundPropertyInt Name="rotateStepNinety" Value="0" />
      </BoundProperties>
    </ImageClip>
    <ImageClip extentID="1565" gapBefore="0" mediaItemID="1561" duration="0.040000000000000001">
      <Effects />
      <Transitions />
      <BoundProperties>
        <BoundPropertyInt Name="rotateStepNinety" Value="0" />
      </BoundProperties>
    </ImageClip>
    <ImageClip extentID="1566" gapBefore="0" mediaItemID="1562" duration="0.040000000000000001">
      <Effects />
      <Transitions />
      <BoundProperties>
        <BoundPropertyInt Name="rotateStepNinety" Value="0" />
      </BoundProperties>
    </ImageClip>
    <ImageClip extentID="1567" gapBefore="0" mediaItemID="1563" duration="0.040000000000000001">
      <Effects />
      <Transitions />
      <BoundProperties>
        <BoundPropertyInt Name="rotateStepNinety" Value="0" />
      </BoundProperties>
    </ImageClip>
    <ImageClip extentID="1568" gapBefore="0" mediaItemID="1564" duration="0.040000000000000001">
      <Effects />
      <Transitions />
      <BoundProperties>
        <BoundPropertyInt Name="rotateStepNinety" Value="0" />
      </BoundProperties>
    </ImageClip>
    <ImageClip extentID="1569" gapBefore="0" mediaItemID="1565" duration="0.040000000000000001">
      <Effects />
      <Transitions />
      <BoundProperties>
        <BoundPropertyInt Name="rotateStepNinety" Value="0" />
      </BoundProperties>
    </ImageClip>
    <ImageClip extentID="1570" gapBefore="0" mediaItemID="1566" duration="0.040000000000000001">
      <Effects />
      <Transitions />
      <BoundProperties>
        <BoundPropertyInt Name="rotateStepNinety" Value="0" />
      </BoundProperties>
    </ImageClip>
    <ImageClip extentID="1571" gapBefore="0" mediaItemID="1567" duration="0.040000000000000001">
      <Effects />
      <Transitions />
      <BoundProperties>
        <BoundPropertyInt Name="rotateStepNinety" Value="0" />
      </BoundProperties>
    </ImageClip>
    <ImageClip extentID="1572" gapBefore="0" mediaItemID="1568" duration="0.040000000000000001">
      <Effects />
      <Transitions />
      <BoundProperties>
        <BoundPropertyInt Name="rotateStepNinety" Value="0" />
      </BoundProperties>
    </ImageClip>
    <ImageClip extentID="1573" gapBefore="0" mediaItemID="1569" duration="0.040000000000000001">
      <Effects />
      <Transitions />
      <BoundProperties>
        <BoundPropertyInt Name="rotateStepNinety" Value="0" />
      </BoundProperties>
    </ImageClip>
    <ImageClip extentID="1574" gapBefore="0" mediaItemID="1570" duration="0.040000000000000001">
      <Effects />
      <Transitions />
      <BoundProperties>
        <BoundPropertyInt Name="rotateStepNinety" Value="0" />
      </BoundProperties>
    </ImageClip>
    <ImageClip extentID="1575" gapBefore="0" mediaItemID="1571" duration="0.040000000000000001">
      <Effects />
      <Transitions />
      <BoundProperties>
        <BoundPropertyInt Name="rotateStepNinety" Value="0" />
      </BoundProperties>
    </ImageClip>
    <ImageClip extentID="1576" gapBefore="0" mediaItemID="1572" duration="0.040000000000000001">
      <Effects />
      <Transitions />
      <BoundProperties>
        <BoundPropertyInt Name="rotateStepNinety" Value="0" />
      </BoundProperties>
    </ImageClip>
    <ImageClip extentID="1577" gapBefore="0" mediaItemID="1573" duration="0.040000000000000001">
      <Effects />
      <Transitions />
      <BoundProperties>
        <BoundPropertyInt Name="rotateStepNinety" Value="0" />
      </BoundProperties>
    </ImageClip>
    <ImageClip extentID="1578" gapBefore="0" mediaItemID="1574" duration="0.040000000000000001">
      <Effects />
      <Transitions />
      <BoundProperties>
        <BoundPropertyInt Name="rotateStepNinety" Value="0" />
      </BoundProperties>
    </ImageClip>
    <ImageClip extentID="1579" gapBefore="0" mediaItemID="1575" duration="0.040000000000000001">
      <Effects />
      <Transitions />
      <BoundProperties>
        <BoundPropertyInt Name="rotateStepNinety" Value="0" />
      </BoundProperties>
    </ImageClip>
    <ImageClip extentID="1580" gapBefore="0" mediaItemID="1576" duration="0.040000000000000001">
      <Effects />
      <Transitions />
      <BoundProperties>
        <BoundPropertyInt Name="rotateStepNinety" Value="0" />
      </BoundProperties>
    </ImageClip>
    <ImageClip extentID="1581" gapBefore="0" mediaItemID="1577" duration="0.040000000000000001">
      <Effects />
      <Transitions />
      <BoundProperties>
        <BoundPropertyInt Name="rotateStepNinety" Value="0" />
      </BoundProperties>
    </ImageClip>
    <ImageClip extentID="1582" gapBefore="0" mediaItemID="1578" duration="0.040000000000000001">
      <Effects />
      <Transitions />
      <BoundProperties>
        <BoundPropertyInt Name="rotateStepNinety" Value="0" />
      </BoundProperties>
    </ImageClip>
    <ImageClip extentID="1583" gapBefore="0" mediaItemID="1579" duration="0.040000000000000001">
      <Effects />
      <Transitions />
      <BoundProperties>
        <BoundPropertyInt Name="rotateStepNinety" Value="0" />
      </BoundProperties>
    </ImageClip>
    <ImageClip extentID="1584" gapBefore="0" mediaItemID="1580" duration="0.040000000000000001">
      <Effects />
      <Transitions />
      <BoundProperties>
        <BoundPropertyInt Name="rotateStepNinety" Value="0" />
      </BoundProperties>
    </ImageClip>
    <ImageClip extentID="1585" gapBefore="0" mediaItemID="1581" duration="0.040000000000000001">
      <Effects />
      <Transitions />
      <BoundProperties>
        <BoundPropertyInt Name="rotateStepNinety" Value="0" />
      </BoundProperties>
    </ImageClip>
    <ImageClip extentID="1586" gapBefore="0" mediaItemID="1582" duration="0.040000000000000001">
      <Effects />
      <Transitions />
      <BoundProperties>
        <BoundPropertyInt Name="rotateStepNinety" Value="0" />
      </BoundProperties>
    </ImageClip>
    <ImageClip extentID="1587" gapBefore="0" mediaItemID="1583" duration="0.040000000000000001">
      <Effects />
      <Transitions />
      <BoundProperties>
        <BoundPropertyInt Name="rotateStepNinety" Value="0" />
      </BoundProperties>
    </ImageClip>
    <ImageClip extentID="1588" gapBefore="0" mediaItemID="1584" duration="0.040000000000000001">
      <Effects />
      <Transitions />
      <BoundProperties>
        <BoundPropertyInt Name="rotateStepNinety" Value="0" />
      </BoundProperties>
    </ImageClip>
    <ImageClip extentID="1589" gapBefore="0" mediaItemID="1585" duration="0.040000000000000001">
      <Effects />
      <Transitions />
      <BoundProperties>
        <BoundPropertyInt Name="rotateStepNinety" Value="0" />
      </BoundProperties>
    </ImageClip>
    <ImageClip extentID="1590" gapBefore="0" mediaItemID="1586" duration="0.040000000000000001">
      <Effects />
      <Transitions />
      <BoundProperties>
        <BoundPropertyInt Name="rotateStepNinety" Value="0" />
      </BoundProperties>
    </ImageClip>
    <ImageClip extentID="1591" gapBefore="0" mediaItemID="1587" duration="0.040000000000000001">
      <Effects />
      <Transitions />
      <BoundProperties>
        <BoundPropertyInt Name="rotateStepNinety" Value="0" />
      </BoundProperties>
    </ImageClip>
    <ImageClip extentID="1592" gapBefore="0" mediaItemID="1588" duration="0.040000000000000001">
      <Effects />
      <Transitions />
      <BoundProperties>
        <BoundPropertyInt Name="rotateStepNinety" Value="0" />
      </BoundProperties>
    </ImageClip>
    <ImageClip extentID="1593" gapBefore="0" mediaItemID="1589" duration="0.040000000000000001">
      <Effects />
      <Transitions />
      <BoundProperties>
        <BoundPropertyInt Name="rotateStepNinety" Value="0" />
      </BoundProperties>
    </ImageClip>
    <ImageClip extentID="1594" gapBefore="0" mediaItemID="1590" duration="0.040000000000000001">
      <Effects />
      <Transitions />
      <BoundProperties>
        <BoundPropertyInt Name="rotateStepNinety" Value="0" />
      </BoundProperties>
    </ImageClip>
    <ImageClip extentID="1595" gapBefore="0" mediaItemID="1591" duration="0.040000000000000001">
      <Effects />
      <Transitions />
      <BoundProperties>
        <BoundPropertyInt Name="rotateStepNinety" Value="0" />
      </BoundProperties>
    </ImageClip>
    <ImageClip extentID="1596" gapBefore="0" mediaItemID="1592" duration="0.040000000000000001">
      <Effects />
      <Transitions />
      <BoundProperties>
        <BoundPropertyInt Name="rotateStepNinety" Value="0" />
      </BoundProperties>
    </ImageClip>
    <ImageClip extentID="1597" gapBefore="0" mediaItemID="1593" duration="0.040000000000000001">
      <Effects />
      <Transitions />
      <BoundProperties>
        <BoundPropertyInt Name="rotateStepNinety" Value="0" />
      </BoundProperties>
    </ImageClip>
    <ImageClip extentID="1598" gapBefore="0" mediaItemID="1594" duration="0.040000000000000001">
      <Effects />
      <Transitions />
      <BoundProperties>
        <BoundPropertyInt Name="rotateStepNinety" Value="0" />
      </BoundProperties>
    </ImageClip>
    <ImageClip extentID="1599" gapBefore="0" mediaItemID="1595" duration="0.040000000000000001">
      <Effects />
      <Transitions />
      <BoundProperties>
        <BoundPropertyInt Name="rotateStepNinety" Value="0" />
      </BoundProperties>
    </ImageClip>
    <ImageClip extentID="1600" gapBefore="0" mediaItemID="1596" duration="0.040000000000000001">
      <Effects />
      <Transitions />
      <BoundProperties>
        <BoundPropertyInt Name="rotateStepNinety" Value="0" />
      </BoundProperties>
    </ImageClip>
    <ImageClip extentID="1601" gapBefore="0" mediaItemID="1597" duration="0.040000000000000001">
      <Effects />
      <Transitions />
      <BoundProperties>
        <BoundPropertyInt Name="rotateStepNinety" Value="0" />
      </BoundProperties>
    </ImageClip>
    <ImageClip extentID="1602" gapBefore="0" mediaItemID="1598" duration="0.040000000000000001">
      <Effects />
      <Transitions />
      <BoundProperties>
        <BoundPropertyInt Name="rotateStepNinety" Value="0" />
      </BoundProperties>
    </ImageClip>
    <ImageClip extentID="1603" gapBefore="0" mediaItemID="1599" duration="0.040000000000000001">
      <Effects />
      <Transitions />
      <BoundProperties>
        <BoundPropertyInt Name="rotateStepNinety" Value="0" />
      </BoundProperties>
    </ImageClip>
    <ImageClip extentID="1604" gapBefore="0" mediaItemID="1600" duration="0.040000000000000001">
      <Effects />
      <Transitions />
      <BoundProperties>
        <BoundPropertyInt Name="rotateStepNinety" Value="0" />
      </BoundProperties>
    </ImageClip>
    <ImageClip extentID="1605" gapBefore="0" mediaItemID="1601" duration="0.040000000000000001">
      <Effects />
      <Transitions />
      <BoundProperties>
        <BoundPropertyInt Name="rotateStepNinety" Value="0" />
      </BoundProperties>
    </ImageClip>
    <ImageClip extentID="1606" gapBefore="0" mediaItemID="1602" duration="0.040000000000000001">
      <Effects />
      <Transitions />
      <BoundProperties>
        <BoundPropertyInt Name="rotateStepNinety" Value="0" />
      </BoundProperties>
    </ImageClip>
    <ImageClip extentID="1607" gapBefore="0" mediaItemID="1603" duration="0.040000000000000001">
      <Effects />
      <Transitions />
      <BoundProperties>
        <BoundPropertyInt Name="rotateStepNinety" Value="0" />
      </BoundProperties>
    </ImageClip>
    <ImageClip extentID="1608" gapBefore="0" mediaItemID="1604" duration="0.040000000000000001">
      <Effects />
      <Transitions />
      <BoundProperties>
        <BoundPropertyInt Name="rotateStepNinety" Value="0" />
      </BoundProperties>
    </ImageClip>
    <ImageClip extentID="1609" gapBefore="0" mediaItemID="1605" duration="0.040000000000000001">
      <Effects />
      <Transitions />
      <BoundProperties>
        <BoundPropertyInt Name="rotateStepNinety" Value="0" />
      </BoundProperties>
    </ImageClip>
    <ImageClip extentID="1610" gapBefore="0" mediaItemID="1606" duration="0.040000000000000001">
      <Effects />
      <Transitions />
      <BoundProperties>
        <BoundPropertyInt Name="rotateStepNinety" Value="0" />
      </BoundProperties>
    </ImageClip>
    <ImageClip extentID="1611" gapBefore="0" mediaItemID="1607" duration="0.040000000000000001">
      <Effects />
      <Transitions />
      <BoundProperties>
        <BoundPropertyInt Name="rotateStepNinety" Value="0" />
      </BoundProperties>
    </ImageClip>
    <ImageClip extentID="1612" gapBefore="0" mediaItemID="1608" duration="0.040000000000000001">
      <Effects />
      <Transitions />
      <BoundProperties>
        <BoundPropertyInt Name="rotateStepNinety" Value="0" />
      </BoundProperties>
    </ImageClip>
    <ImageClip extentID="1613" gapBefore="0" mediaItemID="1609" duration="0.040000000000000001">
      <Effects />
      <Transitions />
      <BoundProperties>
        <BoundPropertyInt Name="rotateStepNinety" Value="0" />
      </BoundProperties>
    </ImageClip>
    <ImageClip extentID="1614" gapBefore="0" mediaItemID="1610" duration="0.040000000000000001">
      <Effects />
      <Transitions />
      <BoundProperties>
        <BoundPropertyInt Name="rotateStepNinety" Value="0" />
      </BoundProperties>
    </ImageClip>
    <ImageClip extentID="1615" gapBefore="0" mediaItemID="1611" duration="0.040000000000000001">
      <Effects />
      <Transitions />
      <BoundProperties>
        <BoundPropertyInt Name="rotateStepNinety" Value="0" />
      </BoundProperties>
    </ImageClip>
    <ImageClip extentID="1616" gapBefore="0" mediaItemID="1612" duration="0.040000000000000001">
      <Effects />
      <Transitions />
      <BoundProperties>
        <BoundPropertyInt Name="rotateStepNinety" Value="0" />
      </BoundProperties>
    </ImageClip>
    <ImageClip extentID="1617" gapBefore="0" mediaItemID="1613" duration="0.040000000000000001">
      <Effects />
      <Transitions />
      <BoundProperties>
        <BoundPropertyInt Name="rotateStepNinety" Value="0" />
      </BoundProperties>
    </ImageClip>
    <ImageClip extentID="1618" gapBefore="0" mediaItemID="1614" duration="0.040000000000000001">
      <Effects />
      <Transitions />
      <BoundProperties>
        <BoundPropertyInt Name="rotateStepNinety" Value="0" />
      </BoundProperties>
    </ImageClip>
    <ImageClip extentID="1619" gapBefore="0" mediaItemID="1615" duration="0.040000000000000001">
      <Effects />
      <Transitions />
      <BoundProperties>
        <BoundPropertyInt Name="rotateStepNinety" Value="0" />
      </BoundProperties>
    </ImageClip>
    <ImageClip extentID="1620" gapBefore="0" mediaItemID="1616" duration="0.040000000000000001">
      <Effects />
      <Transitions />
      <BoundProperties>
        <BoundPropertyInt Name="rotateStepNinety" Value="0" />
      </BoundProperties>
    </ImageClip>
    <ImageClip extentID="1621" gapBefore="0" mediaItemID="1617" duration="0.040000000000000001">
      <Effects />
      <Transitions />
      <BoundProperties>
        <BoundPropertyInt Name="rotateStepNinety" Value="0" />
      </BoundProperties>
    </ImageClip>
    <ImageClip extentID="1622" gapBefore="0" mediaItemID="1618" duration="0.040000000000000001">
      <Effects />
      <Transitions />
      <BoundProperties>
        <BoundPropertyInt Name="rotateStepNinety" Value="0" />
      </BoundProperties>
    </ImageClip>
    <ImageClip extentID="1623" gapBefore="0" mediaItemID="1619" duration="0.040000000000000001">
      <Effects />
      <Transitions />
      <BoundProperties>
        <BoundPropertyInt Name="rotateStepNinety" Value="0" />
      </BoundProperties>
    </ImageClip>
    <ImageClip extentID="1624" gapBefore="0" mediaItemID="1620" duration="0.040000000000000001">
      <Effects />
      <Transitions />
      <BoundProperties>
        <BoundPropertyInt Name="rotateStepNinety" Value="0" />
      </BoundProperties>
    </ImageClip>
    <ImageClip extentID="1625" gapBefore="0" mediaItemID="1621" duration="0.040000000000000001">
      <Effects />
      <Transitions />
      <BoundProperties>
        <BoundPropertyInt Name="rotateStepNinety" Value="0" />
      </BoundProperties>
    </ImageClip>
    <ImageClip extentID="1626" gapBefore="0" mediaItemID="1622" duration="0.040000000000000001">
      <Effects />
      <Transitions />
      <BoundProperties>
        <BoundPropertyInt Name="rotateStepNinety" Value="0" />
      </BoundProperties>
    </ImageClip>
    <ExtentSelector extentID="1" gapBefore="0" primaryTrack="true">
      <Effects />
      <Transitions />
      <BoundProperties />
      <ExtentRefs>
        <ExtentRef id="5" />
        <ExtentRef id="6" />
        <ExtentRef id="7" />
        <ExtentRef id="8" />
        <ExtentRef id="9" />
        <ExtentRef id="10" />
        <ExtentRef id="11" />
        <ExtentRef id="12" />
        <ExtentRef id="13" />
        <ExtentRef id="14" />
        <ExtentRef id="15" />
        <ExtentRef id="16" />
        <ExtentRef id="17" />
        <ExtentRef id="18" />
        <ExtentRef id="19" />
        <ExtentRef id="20" />
        <ExtentRef id="21" />
        <ExtentRef id="22" />
        <ExtentRef id="23" />
        <ExtentRef id="24" />
        <ExtentRef id="25" />
        <ExtentRef id="26" />
        <ExtentRef id="27" />
        <ExtentRef id="28" />
        <ExtentRef id="29" />
        <ExtentRef id="30" />
        <ExtentRef id="31" />
        <ExtentRef id="32" />
        <ExtentRef id="33" />
        <ExtentRef id="34" />
        <ExtentRef id="35" />
        <ExtentRef id="36" />
        <ExtentRef id="37" />
        <ExtentRef id="38" />
        <ExtentRef id="39" />
        <ExtentRef id="40" />
        <ExtentRef id="41" />
        <ExtentRef id="42" />
        <ExtentRef id="43" />
        <ExtentRef id="44" />
        <ExtentRef id="45" />
        <ExtentRef id="46" />
        <ExtentRef id="47" />
        <ExtentRef id="48" />
        <ExtentRef id="49" />
        <ExtentRef id="50" />
        <ExtentRef id="51" />
        <ExtentRef id="52" />
        <ExtentRef id="53" />
        <ExtentRef id="54" />
        <ExtentRef id="55" />
        <ExtentRef id="56" />
        <ExtentRef id="57" />
        <ExtentRef id="58" />
        <ExtentRef id="59" />
        <ExtentRef id="60" />
        <ExtentRef id="61" />
        <ExtentRef id="62" />
        <ExtentRef id="63" />
        <ExtentRef id="64" />
        <ExtentRef id="65" />
        <ExtentRef id="66" />
        <ExtentRef id="67" />
        <ExtentRef id="68" />
        <ExtentRef id="69" />
        <ExtentRef id="70" />
        <ExtentRef id="71" />
        <ExtentRef id="72" />
        <ExtentRef id="73" />
        <ExtentRef id="74" />
        <ExtentRef id="75" />
        <ExtentRef id="76" />
        <ExtentRef id="77" />
        <ExtentRef id="78" />
        <ExtentRef id="79" />
        <ExtentRef id="80" />
        <ExtentRef id="81" />
        <ExtentRef id="82" />
        <ExtentRef id="83" />
        <ExtentRef id="84" />
        <ExtentRef id="85" />
        <ExtentRef id="86" />
        <ExtentRef id="87" />
        <ExtentRef id="88" />
        <ExtentRef id="89" />
        <ExtentRef id="90" />
        <ExtentRef id="91" />
        <ExtentRef id="92" />
        <ExtentRef id="93" />
        <ExtentRef id="94" />
        <ExtentRef id="95" />
        <ExtentRef id="96" />
        <ExtentRef id="97" />
        <ExtentRef id="98" />
        <ExtentRef id="99" />
        <ExtentRef id="100" />
        <ExtentRef id="101" />
        <ExtentRef id="102" />
        <ExtentRef id="103" />
        <ExtentRef id="104" />
        <ExtentRef id="105" />
        <ExtentRef id="106" />
        <ExtentRef id="107" />
        <ExtentRef id="108" />
        <ExtentRef id="109" />
        <ExtentRef id="110" />
        <ExtentRef id="111" />
        <ExtentRef id="112" />
        <ExtentRef id="113" />
        <ExtentRef id="114" />
        <ExtentRef id="115" />
        <ExtentRef id="116" />
        <ExtentRef id="117" />
        <ExtentRef id="118" />
        <ExtentRef id="119" />
        <ExtentRef id="120" />
        <ExtentRef id="121" />
        <ExtentRef id="122" />
        <ExtentRef id="123" />
        <ExtentRef id="124" />
        <ExtentRef id="125" />
        <ExtentRef id="126" />
        <ExtentRef id="127" />
        <ExtentRef id="128" />
        <ExtentRef id="129" />
        <ExtentRef id="130" />
        <ExtentRef id="131" />
        <ExtentRef id="132" />
        <ExtentRef id="133" />
        <ExtentRef id="134" />
        <ExtentRef id="135" />
        <ExtentRef id="136" />
        <ExtentRef id="137" />
        <ExtentRef id="138" />
        <ExtentRef id="139" />
        <ExtentRef id="140" />
        <ExtentRef id="141" />
        <ExtentRef id="142" />
        <ExtentRef id="143" />
        <ExtentRef id="144" />
        <ExtentRef id="145" />
        <ExtentRef id="146" />
        <ExtentRef id="147" />
        <ExtentRef id="148" />
        <ExtentRef id="149" />
        <ExtentRef id="150" />
        <ExtentRef id="151" />
        <ExtentRef id="152" />
        <ExtentRef id="153" />
        <ExtentRef id="154" />
        <ExtentRef id="155" />
        <ExtentRef id="156" />
        <ExtentRef id="157" />
        <ExtentRef id="158" />
        <ExtentRef id="159" />
        <ExtentRef id="160" />
        <ExtentRef id="161" />
        <ExtentRef id="162" />
        <ExtentRef id="163" />
        <ExtentRef id="164" />
        <ExtentRef id="165" />
        <ExtentRef id="166" />
        <ExtentRef id="167" />
        <ExtentRef id="168" />
        <ExtentRef id="169" />
        <ExtentRef id="170" />
        <ExtentRef id="171" />
        <ExtentRef id="172" />
        <ExtentRef id="173" />
        <ExtentRef id="174" />
        <ExtentRef id="175" />
        <ExtentRef id="176" />
        <ExtentRef id="177" />
        <ExtentRef id="178" />
        <ExtentRef id="179" />
        <ExtentRef id="180" />
        <ExtentRef id="181" />
        <ExtentRef id="182" />
        <ExtentRef id="183" />
        <ExtentRef id="184" />
        <ExtentRef id="185" />
        <ExtentRef id="186" />
        <ExtentRef id="187" />
        <ExtentRef id="188" />
        <ExtentRef id="189" />
        <ExtentRef id="190" />
        <ExtentRef id="191" />
        <ExtentRef id="192" />
        <ExtentRef id="193" />
        <ExtentRef id="194" />
        <ExtentRef id="195" />
        <ExtentRef id="196" />
        <ExtentRef id="197" />
        <ExtentRef id="198" />
        <ExtentRef id="199" />
        <ExtentRef id="200" />
        <ExtentRef id="201" />
        <ExtentRef id="202" />
        <ExtentRef id="203" />
        <ExtentRef id="204" />
        <ExtentRef id="205" />
        <ExtentRef id="206" />
        <ExtentRef id="207" />
        <ExtentRef id="208" />
        <ExtentRef id="209" />
        <ExtentRef id="210" />
        <ExtentRef id="211" />
        <ExtentRef id="212" />
        <ExtentRef id="213" />
        <ExtentRef id="214" />
        <ExtentRef id="215" />
        <ExtentRef id="216" />
        <ExtentRef id="217" />
        <ExtentRef id="218" />
        <ExtentRef id="219" />
        <ExtentRef id="220" />
        <ExtentRef id="221" />
        <ExtentRef id="222" />
        <ExtentRef id="223" />
        <ExtentRef id="224" />
        <ExtentRef id="225" />
        <ExtentRef id="226" />
        <ExtentRef id="227" />
        <ExtentRef id="228" />
        <ExtentRef id="229" />
        <ExtentRef id="230" />
        <ExtentRef id="231" />
        <ExtentRef id="232" />
        <ExtentRef id="233" />
        <ExtentRef id="234" />
        <ExtentRef id="235" />
        <ExtentRef id="236" />
        <ExtentRef id="237" />
        <ExtentRef id="238" />
        <ExtentRef id="239" />
        <ExtentRef id="240" />
        <ExtentRef id="241" />
        <ExtentRef id="242" />
        <ExtentRef id="243" />
        <ExtentRef id="244" />
        <ExtentRef id="245" />
        <ExtentRef id="246" />
        <ExtentRef id="247" />
        <ExtentRef id="248" />
        <ExtentRef id="249" />
        <ExtentRef id="250" />
        <ExtentRef id="251" />
        <ExtentRef id="252" />
        <ExtentRef id="253" />
        <ExtentRef id="254" />
        <ExtentRef id="255" />
        <ExtentRef id="256" />
        <ExtentRef id="257" />
        <ExtentRef id="258" />
        <ExtentRef id="259" />
        <ExtentRef id="260" />
        <ExtentRef id="261" />
        <ExtentRef id="262" />
        <ExtentRef id="263" />
        <ExtentRef id="264" />
        <ExtentRef id="265" />
        <ExtentRef id="266" />
        <ExtentRef id="267" />
        <ExtentRef id="268" />
        <ExtentRef id="269" />
        <ExtentRef id="270" />
        <ExtentRef id="271" />
        <ExtentRef id="272" />
        <ExtentRef id="273" />
        <ExtentRef id="274" />
        <ExtentRef id="275" />
        <ExtentRef id="276" />
        <ExtentRef id="277" />
        <ExtentRef id="278" />
        <ExtentRef id="279" />
        <ExtentRef id="280" />
        <ExtentRef id="281" />
        <ExtentRef id="282" />
        <ExtentRef id="283" />
        <ExtentRef id="284" />
        <ExtentRef id="285" />
        <ExtentRef id="286" />
        <ExtentRef id="287" />
        <ExtentRef id="288" />
        <ExtentRef id="289" />
        <ExtentRef id="290" />
        <ExtentRef id="291" />
        <ExtentRef id="292" />
        <ExtentRef id="293" />
        <ExtentRef id="294" />
        <ExtentRef id="295" />
        <ExtentRef id="296" />
        <ExtentRef id="297" />
        <ExtentRef id="298" />
        <ExtentRef id="299" />
        <ExtentRef id="300" />
        <ExtentRef id="301" />
        <ExtentRef id="302" />
        <ExtentRef id="303" />
        <ExtentRef id="304" />
        <ExtentRef id="305" />
        <ExtentRef id="306" />
        <ExtentRef id="307" />
        <ExtentRef id="308" />
        <ExtentRef id="309" />
        <ExtentRef id="310" />
        <ExtentRef id="311" />
        <ExtentRef id="312" />
        <ExtentRef id="313" />
        <ExtentRef id="314" />
        <ExtentRef id="315" />
        <ExtentRef id="316" />
        <ExtentRef id="317" />
        <ExtentRef id="318" />
        <ExtentRef id="319" />
        <ExtentRef id="320" />
        <ExtentRef id="321" />
        <ExtentRef id="322" />
        <ExtentRef id="323" />
        <ExtentRef id="324" />
        <ExtentRef id="325" />
        <ExtentRef id="326" />
        <ExtentRef id="327" />
        <ExtentRef id="328" />
        <ExtentRef id="329" />
        <ExtentRef id="330" />
        <ExtentRef id="331" />
        <ExtentRef id="332" />
        <ExtentRef id="333" />
        <ExtentRef id="334" />
        <ExtentRef id="335" />
        <ExtentRef id="336" />
        <ExtentRef id="337" />
        <ExtentRef id="338" />
        <ExtentRef id="339" />
        <ExtentRef id="340" />
        <ExtentRef id="341" />
        <ExtentRef id="342" />
        <ExtentRef id="343" />
        <ExtentRef id="344" />
        <ExtentRef id="345" />
        <ExtentRef id="346" />
        <ExtentRef id="347" />
        <ExtentRef id="348" />
        <ExtentRef id="349" />
        <ExtentRef id="350" />
        <ExtentRef id="351" />
        <ExtentRef id="352" />
        <ExtentRef id="353" />
        <ExtentRef id="354" />
        <ExtentRef id="355" />
        <ExtentRef id="356" />
        <ExtentRef id="357" />
        <ExtentRef id="358" />
        <ExtentRef id="359" />
        <ExtentRef id="360" />
        <ExtentRef id="361" />
        <ExtentRef id="362" />
        <ExtentRef id="363" />
        <ExtentRef id="364" />
        <ExtentRef id="365" />
        <ExtentRef id="366" />
        <ExtentRef id="367" />
        <ExtentRef id="368" />
        <ExtentRef id="369" />
        <ExtentRef id="370" />
        <ExtentRef id="371" />
        <ExtentRef id="372" />
        <ExtentRef id="373" />
        <ExtentRef id="374" />
        <ExtentRef id="375" />
        <ExtentRef id="376" />
        <ExtentRef id="377" />
        <ExtentRef id="378" />
        <ExtentRef id="379" />
        <ExtentRef id="380" />
        <ExtentRef id="381" />
        <ExtentRef id="382" />
        <ExtentRef id="383" />
        <ExtentRef id="384" />
        <ExtentRef id="385" />
        <ExtentRef id="386" />
        <ExtentRef id="387" />
        <ExtentRef id="388" />
        <ExtentRef id="389" />
        <ExtentRef id="390" />
        <ExtentRef id="391" />
        <ExtentRef id="392" />
        <ExtentRef id="393" />
        <ExtentRef id="394" />
        <ExtentRef id="395" />
        <ExtentRef id="396" />
        <ExtentRef id="397" />
        <ExtentRef id="398" />
        <ExtentRef id="399" />
        <ExtentRef id="400" />
        <ExtentRef id="401" />
        <ExtentRef id="402" />
        <ExtentRef id="403" />
        <ExtentRef id="404" />
        <ExtentRef id="405" />
        <ExtentRef id="406" />
        <ExtentRef id="407" />
        <ExtentRef id="408" />
        <ExtentRef id="409" />
        <ExtentRef id="410" />
        <ExtentRef id="411" />
        <ExtentRef id="412" />
        <ExtentRef id="413" />
        <ExtentRef id="414" />
        <ExtentRef id="415" />
        <ExtentRef id="416" />
        <ExtentRef id="417" />
        <ExtentRef id="418" />
        <ExtentRef id="419" />
        <ExtentRef id="420" />
        <ExtentRef id="421" />
        <ExtentRef id="422" />
        <ExtentRef id="423" />
        <ExtentRef id="424" />
        <ExtentRef id="425" />
        <ExtentRef id="426" />
        <ExtentRef id="427" />
        <ExtentRef id="428" />
        <ExtentRef id="429" />
        <ExtentRef id="430" />
        <ExtentRef id="431" />
        <ExtentRef id="432" />
        <ExtentRef id="433" />
        <ExtentRef id="434" />
        <ExtentRef id="435" />
        <ExtentRef id="436" />
        <ExtentRef id="437" />
        <ExtentRef id="438" />
        <ExtentRef id="439" />
        <ExtentRef id="440" />
        <ExtentRef id="441" />
        <ExtentRef id="442" />
        <ExtentRef id="443" />
        <ExtentRef id="444" />
        <ExtentRef id="445" />
        <ExtentRef id="446" />
        <ExtentRef id="447" />
        <ExtentRef id="448" />
        <ExtentRef id="449" />
        <ExtentRef id="450" />
        <ExtentRef id="451" />
        <ExtentRef id="452" />
        <ExtentRef id="453" />
        <ExtentRef id="454" />
        <ExtentRef id="455" />
        <ExtentRef id="456" />
        <ExtentRef id="457" />
        <ExtentRef id="458" />
        <ExtentRef id="459" />
        <ExtentRef id="460" />
        <ExtentRef id="461" />
        <ExtentRef id="462" />
        <ExtentRef id="463" />
        <ExtentRef id="464" />
        <ExtentRef id="465" />
        <ExtentRef id="466" />
        <ExtentRef id="467" />
        <ExtentRef id="468" />
        <ExtentRef id="469" />
        <ExtentRef id="470" />
        <ExtentRef id="471" />
        <ExtentRef id="472" />
        <ExtentRef id="473" />
        <ExtentRef id="474" />
        <ExtentRef id="475" />
        <ExtentRef id="476" />
        <ExtentRef id="477" />
        <ExtentRef id="478" />
        <ExtentRef id="479" />
        <ExtentRef id="480" />
        <ExtentRef id="481" />
        <ExtentRef id="482" />
        <ExtentRef id="483" />
        <ExtentRef id="484" />
        <ExtentRef id="485" />
        <ExtentRef id="486" />
        <ExtentRef id="487" />
        <ExtentRef id="488" />
        <ExtentRef id="489" />
        <ExtentRef id="490" />
        <ExtentRef id="491" />
        <ExtentRef id="492" />
        <ExtentRef id="493" />
        <ExtentRef id="494" />
        <ExtentRef id="495" />
        <ExtentRef id="496" />
        <ExtentRef id="497" />
        <ExtentRef id="498" />
        <ExtentRef id="499" />
        <ExtentRef id="500" />
        <ExtentRef id="501" />
        <ExtentRef id="502" />
        <ExtentRef id="503" />
        <ExtentRef id="504" />
        <ExtentRef id="505" />
        <ExtentRef id="506" />
        <ExtentRef id="507" />
        <ExtentRef id="508" />
        <ExtentRef id="509" />
        <ExtentRef id="510" />
        <ExtentRef id="511" />
        <ExtentRef id="512" />
        <ExtentRef id="513" />
        <ExtentRef id="514" />
        <ExtentRef id="515" />
        <ExtentRef id="516" />
        <ExtentRef id="517" />
        <ExtentRef id="518" />
        <ExtentRef id="519" />
        <ExtentRef id="520" />
        <ExtentRef id="521" />
        <ExtentRef id="522" />
        <ExtentRef id="523" />
        <ExtentRef id="524" />
        <ExtentRef id="525" />
        <ExtentRef id="526" />
        <ExtentRef id="527" />
        <ExtentRef id="528" />
        <ExtentRef id="529" />
        <ExtentRef id="530" />
        <ExtentRef id="531" />
        <ExtentRef id="532" />
        <ExtentRef id="533" />
        <ExtentRef id="534" />
        <ExtentRef id="535" />
        <ExtentRef id="536" />
        <ExtentRef id="537" />
        <ExtentRef id="538" />
        <ExtentRef id="539" />
        <ExtentRef id="540" />
        <ExtentRef id="541" />
        <ExtentRef id="542" />
        <ExtentRef id="543" />
        <ExtentRef id="544" />
        <ExtentRef id="545" />
        <ExtentRef id="546" />
        <ExtentRef id="547" />
        <ExtentRef id="548" />
        <ExtentRef id="549" />
        <ExtentRef id="550" />
        <ExtentRef id="551" />
        <ExtentRef id="552" />
        <ExtentRef id="553" />
        <ExtentRef id="554" />
        <ExtentRef id="555" />
        <ExtentRef id="556" />
        <ExtentRef id="557" />
        <ExtentRef id="558" />
        <ExtentRef id="559" />
        <ExtentRef id="560" />
        <ExtentRef id="561" />
        <ExtentRef id="562" />
        <ExtentRef id="563" />
        <ExtentRef id="564" />
        <ExtentRef id="565" />
        <ExtentRef id="566" />
        <ExtentRef id="567" />
        <ExtentRef id="568" />
        <ExtentRef id="569" />
        <ExtentRef id="570" />
        <ExtentRef id="571" />
        <ExtentRef id="572" />
        <ExtentRef id="573" />
        <ExtentRef id="574" />
        <ExtentRef id="575" />
        <ExtentRef id="576" />
        <ExtentRef id="577" />
        <ExtentRef id="578" />
        <ExtentRef id="579" />
        <ExtentRef id="580" />
        <ExtentRef id="581" />
        <ExtentRef id="582" />
        <ExtentRef id="583" />
        <ExtentRef id="584" />
        <ExtentRef id="585" />
        <ExtentRef id="586" />
        <ExtentRef id="587" />
        <ExtentRef id="588" />
        <ExtentRef id="589" />
        <ExtentRef id="590" />
        <ExtentRef id="591" />
        <ExtentRef id="592" />
        <ExtentRef id="593" />
        <ExtentRef id="594" />
        <ExtentRef id="595" />
        <ExtentRef id="596" />
        <ExtentRef id="597" />
        <ExtentRef id="598" />
        <ExtentRef id="599" />
        <ExtentRef id="600" />
        <ExtentRef id="601" />
        <ExtentRef id="602" />
        <ExtentRef id="603" />
        <ExtentRef id="604" />
        <ExtentRef id="605" />
        <ExtentRef id="606" />
        <ExtentRef id="607" />
        <ExtentRef id="608" />
        <ExtentRef id="609" />
        <ExtentRef id="610" />
        <ExtentRef id="611" />
        <ExtentRef id="612" />
        <ExtentRef id="613" />
        <ExtentRef id="614" />
        <ExtentRef id="615" />
        <ExtentRef id="616" />
        <ExtentRef id="617" />
        <ExtentRef id="618" />
        <ExtentRef id="619" />
        <ExtentRef id="620" />
        <ExtentRef id="621" />
        <ExtentRef id="622" />
        <ExtentRef id="623" />
        <ExtentRef id="624" />
        <ExtentRef id="625" />
        <ExtentRef id="626" />
        <ExtentRef id="627" />
        <ExtentRef id="628" />
        <ExtentRef id="629" />
        <ExtentRef id="630" />
        <ExtentRef id="631" />
        <ExtentRef id="632" />
        <ExtentRef id="633" />
        <ExtentRef id="634" />
        <ExtentRef id="635" />
        <ExtentRef id="636" />
        <ExtentRef id="637" />
        <ExtentRef id="638" />
        <ExtentRef id="639" />
        <ExtentRef id="640" />
        <ExtentRef id="641" />
        <ExtentRef id="642" />
        <ExtentRef id="643" />
        <ExtentRef id="644" />
        <ExtentRef id="645" />
        <ExtentRef id="646" />
        <ExtentRef id="647" />
        <ExtentRef id="648" />
        <ExtentRef id="649" />
        <ExtentRef id="650" />
        <ExtentRef id="651" />
        <ExtentRef id="652" />
        <ExtentRef id="653" />
        <ExtentRef id="654" />
        <ExtentRef id="655" />
        <ExtentRef id="656" />
        <ExtentRef id="657" />
        <ExtentRef id="658" />
        <ExtentRef id="659" />
        <ExtentRef id="660" />
        <ExtentRef id="661" />
        <ExtentRef id="662" />
        <ExtentRef id="663" />
        <ExtentRef id="664" />
        <ExtentRef id="665" />
        <ExtentRef id="666" />
        <ExtentRef id="667" />
        <ExtentRef id="668" />
        <ExtentRef id="669" />
        <ExtentRef id="670" />
        <ExtentRef id="671" />
        <ExtentRef id="672" />
        <ExtentRef id="673" />
        <ExtentRef id="674" />
        <ExtentRef id="675" />
        <ExtentRef id="676" />
        <ExtentRef id="677" />
        <ExtentRef id="678" />
        <ExtentRef id="679" />
        <ExtentRef id="680" />
        <ExtentRef id="681" />
        <ExtentRef id="682" />
        <ExtentRef id="683" />
        <ExtentRef id="684" />
        <ExtentRef id="685" />
        <ExtentRef id="686" />
        <ExtentRef id="687" />
        <ExtentRef id="688" />
        <ExtentRef id="689" />
        <ExtentRef id="690" />
        <ExtentRef id="691" />
        <ExtentRef id="692" />
        <ExtentRef id="693" />
        <ExtentRef id="694" />
        <ExtentRef id="695" />
        <ExtentRef id="696" />
        <ExtentRef id="697" />
        <ExtentRef id="698" />
        <ExtentRef id="699" />
        <ExtentRef id="700" />
        <ExtentRef id="701" />
        <ExtentRef id="702" />
        <ExtentRef id="703" />
        <ExtentRef id="704" />
        <ExtentRef id="705" />
        <ExtentRef id="706" />
        <ExtentRef id="707" />
        <ExtentRef id="708" />
        <ExtentRef id="709" />
        <ExtentRef id="710" />
        <ExtentRef id="711" />
        <ExtentRef id="712" />
        <ExtentRef id="713" />
        <ExtentRef id="714" />
        <ExtentRef id="715" />
        <ExtentRef id="716" />
        <ExtentRef id="717" />
        <ExtentRef id="718" />
        <ExtentRef id="719" />
        <ExtentRef id="720" />
        <ExtentRef id="721" />
        <ExtentRef id="722" />
        <ExtentRef id="723" />
        <ExtentRef id="724" />
        <ExtentRef id="725" />
        <ExtentRef id="726" />
        <ExtentRef id="727" />
        <ExtentRef id="728" />
        <ExtentRef id="729" />
        <ExtentRef id="730" />
        <ExtentRef id="731" />
        <ExtentRef id="732" />
        <ExtentRef id="733" />
        <ExtentRef id="734" />
        <ExtentRef id="735" />
        <ExtentRef id="736" />
        <ExtentRef id="737" />
        <ExtentRef id="738" />
        <ExtentRef id="739" />
        <ExtentRef id="740" />
        <ExtentRef id="741" />
        <ExtentRef id="742" />
        <ExtentRef id="743" />
        <ExtentRef id="744" />
        <ExtentRef id="745" />
        <ExtentRef id="746" />
        <ExtentRef id="747" />
        <ExtentRef id="748" />
        <ExtentRef id="749" />
        <ExtentRef id="750" />
        <ExtentRef id="751" />
        <ExtentRef id="752" />
        <ExtentRef id="753" />
        <ExtentRef id="754" />
        <ExtentRef id="755" />
        <ExtentRef id="756" />
        <ExtentRef id="757" />
        <ExtentRef id="758" />
        <ExtentRef id="759" />
        <ExtentRef id="760" />
        <ExtentRef id="761" />
        <ExtentRef id="762" />
        <ExtentRef id="763" />
        <ExtentRef id="764" />
        <ExtentRef id="765" />
        <ExtentRef id="766" />
        <ExtentRef id="767" />
        <ExtentRef id="768" />
        <ExtentRef id="769" />
        <ExtentRef id="770" />
        <ExtentRef id="771" />
        <ExtentRef id="772" />
        <ExtentRef id="773" />
        <ExtentRef id="774" />
        <ExtentRef id="775" />
        <ExtentRef id="776" />
        <ExtentRef id="777" />
        <ExtentRef id="778" />
        <ExtentRef id="779" />
        <ExtentRef id="780" />
        <ExtentRef id="781" />
        <ExtentRef id="782" />
        <ExtentRef id="783" />
        <ExtentRef id="784" />
        <ExtentRef id="785" />
        <ExtentRef id="786" />
        <ExtentRef id="787" />
        <ExtentRef id="788" />
        <ExtentRef id="789" />
        <ExtentRef id="790" />
        <ExtentRef id="791" />
        <ExtentRef id="792" />
        <ExtentRef id="793" />
        <ExtentRef id="794" />
        <ExtentRef id="795" />
        <ExtentRef id="796" />
        <ExtentRef id="797" />
        <ExtentRef id="798" />
        <ExtentRef id="799" />
        <ExtentRef id="800" />
        <ExtentRef id="801" />
        <ExtentRef id="802" />
        <ExtentRef id="803" />
        <ExtentRef id="804" />
        <ExtentRef id="805" />
        <ExtentRef id="806" />
        <ExtentRef id="807" />
        <ExtentRef id="808" />
        <ExtentRef id="809" />
        <ExtentRef id="810" />
        <ExtentRef id="811" />
        <ExtentRef id="812" />
        <ExtentRef id="813" />
        <ExtentRef id="814" />
        <ExtentRef id="815" />
        <ExtentRef id="816" />
        <ExtentRef id="817" />
        <ExtentRef id="818" />
        <ExtentRef id="819" />
        <ExtentRef id="820" />
        <ExtentRef id="821" />
        <ExtentRef id="822" />
        <ExtentRef id="823" />
        <ExtentRef id="824" />
        <ExtentRef id="825" />
        <ExtentRef id="826" />
        <ExtentRef id="827" />
        <ExtentRef id="828" />
        <ExtentRef id="829" />
        <ExtentRef id="830" />
        <ExtentRef id="831" />
        <ExtentRef id="832" />
        <ExtentRef id="833" />
        <ExtentRef id="834" />
        <ExtentRef id="835" />
        <ExtentRef id="836" />
        <ExtentRef id="837" />
        <ExtentRef id="838" />
        <ExtentRef id="839" />
        <ExtentRef id="840" />
        <ExtentRef id="841" />
        <ExtentRef id="842" />
        <ExtentRef id="843" />
        <ExtentRef id="844" />
        <ExtentRef id="845" />
        <ExtentRef id="846" />
        <ExtentRef id="847" />
        <ExtentRef id="848" />
        <ExtentRef id="849" />
        <ExtentRef id="850" />
        <ExtentRef id="851" />
        <ExtentRef id="852" />
        <ExtentRef id="853" />
        <ExtentRef id="854" />
        <ExtentRef id="855" />
        <ExtentRef id="856" />
        <ExtentRef id="857" />
        <ExtentRef id="858" />
        <ExtentRef id="859" />
        <ExtentRef id="860" />
        <ExtentRef id="861" />
        <ExtentRef id="862" />
        <ExtentRef id="863" />
        <ExtentRef id="864" />
        <ExtentRef id="865" />
        <ExtentRef id="866" />
        <ExtentRef id="867" />
        <ExtentRef id="868" />
        <ExtentRef id="869" />
        <ExtentRef id="870" />
        <ExtentRef id="871" />
        <ExtentRef id="872" />
        <ExtentRef id="873" />
        <ExtentRef id="874" />
        <ExtentRef id="875" />
        <ExtentRef id="876" />
        <ExtentRef id="877" />
        <ExtentRef id="878" />
        <ExtentRef id="879" />
        <ExtentRef id="880" />
        <ExtentRef id="881" />
        <ExtentRef id="882" />
        <ExtentRef id="883" />
        <ExtentRef id="884" />
        <ExtentRef id="885" />
        <ExtentRef id="886" />
        <ExtentRef id="887" />
        <ExtentRef id="888" />
        <ExtentRef id="889" />
        <ExtentRef id="890" />
        <ExtentRef id="891" />
        <ExtentRef id="892" />
        <ExtentRef id="893" />
        <ExtentRef id="894" />
        <ExtentRef id="895" />
        <ExtentRef id="896" />
        <ExtentRef id="897" />
        <ExtentRef id="898" />
        <ExtentRef id="899" />
        <ExtentRef id="900" />
        <ExtentRef id="901" />
        <ExtentRef id="902" />
        <ExtentRef id="903" />
        <ExtentRef id="904" />
        <ExtentRef id="905" />
        <ExtentRef id="906" />
        <ExtentRef id="907" />
        <ExtentRef id="908" />
        <ExtentRef id="909" />
        <ExtentRef id="910" />
        <ExtentRef id="911" />
        <ExtentRef id="912" />
        <ExtentRef id="913" />
        <ExtentRef id="914" />
        <ExtentRef id="915" />
        <ExtentRef id="916" />
        <ExtentRef id="917" />
        <ExtentRef id="918" />
        <ExtentRef id="919" />
        <ExtentRef id="920" />
        <ExtentRef id="921" />
        <ExtentRef id="922" />
        <ExtentRef id="923" />
        <ExtentRef id="924" />
        <ExtentRef id="925" />
        <ExtentRef id="926" />
        <ExtentRef id="927" />
        <ExtentRef id="928" />
        <ExtentRef id="929" />
        <ExtentRef id="930" />
        <ExtentRef id="931" />
        <ExtentRef id="932" />
        <ExtentRef id="933" />
        <ExtentRef id="934" />
        <ExtentRef id="935" />
        <ExtentRef id="936" />
        <ExtentRef id="937" />
        <ExtentRef id="938" />
        <ExtentRef id="939" />
        <ExtentRef id="940" />
        <ExtentRef id="941" />
        <ExtentRef id="942" />
        <ExtentRef id="943" />
        <ExtentRef id="944" />
        <ExtentRef id="945" />
        <ExtentRef id="946" />
        <ExtentRef id="947" />
        <ExtentRef id="948" />
        <ExtentRef id="949" />
        <ExtentRef id="950" />
        <ExtentRef id="951" />
        <ExtentRef id="952" />
        <ExtentRef id="953" />
        <ExtentRef id="954" />
        <ExtentRef id="955" />
        <ExtentRef id="956" />
        <ExtentRef id="957" />
        <ExtentRef id="958" />
        <ExtentRef id="959" />
        <ExtentRef id="960" />
        <ExtentRef id="961" />
        <ExtentRef id="962" />
        <ExtentRef id="963" />
        <ExtentRef id="964" />
        <ExtentRef id="965" />
        <ExtentRef id="966" />
        <ExtentRef id="967" />
        <ExtentRef id="968" />
        <ExtentRef id="969" />
        <ExtentRef id="970" />
        <ExtentRef id="971" />
        <ExtentRef id="972" />
        <ExtentRef id="973" />
        <ExtentRef id="974" />
        <ExtentRef id="975" />
        <ExtentRef id="976" />
        <ExtentRef id="977" />
        <ExtentRef id="978" />
        <ExtentRef id="979" />
        <ExtentRef id="980" />
        <ExtentRef id="981" />
        <ExtentRef id="982" />
        <ExtentRef id="983" />
        <ExtentRef id="984" />
        <ExtentRef id="985" />
        <ExtentRef id="986" />
        <ExtentRef id="987" />
        <ExtentRef id="988" />
        <ExtentRef id="989" />
        <ExtentRef id="990" />
        <ExtentRef id="991" />
        <ExtentRef id="992" />
        <ExtentRef id="993" />
        <ExtentRef id="994" />
        <ExtentRef id="995" />
        <ExtentRef id="996" />
        <ExtentRef id="997" />
        <ExtentRef id="998" />
        <ExtentRef id="999" />
        <ExtentRef id="1000" />
        <ExtentRef id="1001" />
        <ExtentRef id="1002" />
        <ExtentRef id="1003" />
        <ExtentRef id="1004" />
        <ExtentRef id="1005" />
        <ExtentRef id="1006" />
        <ExtentRef id="1007" />
        <ExtentRef id="1008" />
        <ExtentRef id="1009" />
        <ExtentRef id="1010" />
        <ExtentRef id="1011" />
        <ExtentRef id="1012" />
        <ExtentRef id="1013" />
        <ExtentRef id="1014" />
        <ExtentRef id="1015" />
        <ExtentRef id="1016" />
        <ExtentRef id="1017" />
        <ExtentRef id="1018" />
        <ExtentRef id="1019" />
        <ExtentRef id="1020" />
        <ExtentRef id="1021" />
        <ExtentRef id="1022" />
        <ExtentRef id="1023" />
        <ExtentRef id="1024" />
        <ExtentRef id="1025" />
        <ExtentRef id="1026" />
        <ExtentRef id="1027" />
        <ExtentRef id="1028" />
        <ExtentRef id="1029" />
        <ExtentRef id="1030" />
        <ExtentRef id="1031" />
        <ExtentRef id="1032" />
        <ExtentRef id="1033" />
        <ExtentRef id="1034" />
        <ExtentRef id="1035" />
        <ExtentRef id="1036" />
        <ExtentRef id="1037" />
        <ExtentRef id="1038" />
        <ExtentRef id="1039" />
        <ExtentRef id="1040" />
        <ExtentRef id="1041" />
        <ExtentRef id="1042" />
        <ExtentRef id="1043" />
        <ExtentRef id="1044" />
        <ExtentRef id="1045" />
        <ExtentRef id="1046" />
        <ExtentRef id="1047" />
        <ExtentRef id="1048" />
        <ExtentRef id="1049" />
        <ExtentRef id="1050" />
        <ExtentRef id="1051" />
        <ExtentRef id="1052" />
        <ExtentRef id="1053" />
        <ExtentRef id="1054" />
        <ExtentRef id="1055" />
        <ExtentRef id="1056" />
        <ExtentRef id="1057" />
        <ExtentRef id="1058" />
        <ExtentRef id="1059" />
        <ExtentRef id="1060" />
        <ExtentRef id="1061" />
        <ExtentRef id="1062" />
        <ExtentRef id="1063" />
        <ExtentRef id="1064" />
        <ExtentRef id="1065" />
        <ExtentRef id="1066" />
        <ExtentRef id="1067" />
        <ExtentRef id="1068" />
        <ExtentRef id="1069" />
        <ExtentRef id="1070" />
        <ExtentRef id="1071" />
        <ExtentRef id="1072" />
        <ExtentRef id="1073" />
        <ExtentRef id="1074" />
        <ExtentRef id="1075" />
        <ExtentRef id="1076" />
        <ExtentRef id="1077" />
        <ExtentRef id="1078" />
        <ExtentRef id="1079" />
        <ExtentRef id="1080" />
        <ExtentRef id="1081" />
        <ExtentRef id="1082" />
        <ExtentRef id="1083" />
        <ExtentRef id="1084" />
        <ExtentRef id="1085" />
        <ExtentRef id="1086" />
        <ExtentRef id="1087" />
        <ExtentRef id="1088" />
        <ExtentRef id="1089" />
        <ExtentRef id="1090" />
        <ExtentRef id="1091" />
        <ExtentRef id="1092" />
        <ExtentRef id="1093" />
        <ExtentRef id="1094" />
        <ExtentRef id="1095" />
        <ExtentRef id="1096" />
        <ExtentRef id="1097" />
        <ExtentRef id="1098" />
        <ExtentRef id="1099" />
        <ExtentRef id="1100" />
        <ExtentRef id="1101" />
        <ExtentRef id="1102" />
        <ExtentRef id="1103" />
        <ExtentRef id="1104" />
        <ExtentRef id="1105" />
        <ExtentRef id="1106" />
        <ExtentRef id="1107" />
        <ExtentRef id="1108" />
        <ExtentRef id="1109" />
        <ExtentRef id="1110" />
        <ExtentRef id="1111" />
        <ExtentRef id="1112" />
        <ExtentRef id="1113" />
        <ExtentRef id="1114" />
        <ExtentRef id="1115" />
        <ExtentRef id="1116" />
        <ExtentRef id="1117" />
        <ExtentRef id="1118" />
        <ExtentRef id="1119" />
        <ExtentRef id="1120" />
        <ExtentRef id="1121" />
        <ExtentRef id="1122" />
        <ExtentRef id="1123" />
        <ExtentRef id="1124" />
        <ExtentRef id="1125" />
        <ExtentRef id="1126" />
        <ExtentRef id="1127" />
        <ExtentRef id="1128" />
        <ExtentRef id="1129" />
        <ExtentRef id="1130" />
        <ExtentRef id="1131" />
        <ExtentRef id="1132" />
        <ExtentRef id="1133" />
        <ExtentRef id="1134" />
        <ExtentRef id="1135" />
        <ExtentRef id="1136" />
        <ExtentRef id="1137" />
        <ExtentRef id="1138" />
        <ExtentRef id="1139" />
        <ExtentRef id="1140" />
        <ExtentRef id="1141" />
        <ExtentRef id="1142" />
        <ExtentRef id="1143" />
        <ExtentRef id="1144" />
        <ExtentRef id="1145" />
        <ExtentRef id="1146" />
        <ExtentRef id="1147" />
        <ExtentRef id="1148" />
        <ExtentRef id="1149" />
        <ExtentRef id="1150" />
        <ExtentRef id="1151" />
        <ExtentRef id="1152" />
        <ExtentRef id="1153" />
        <ExtentRef id="1154" />
        <ExtentRef id="1155" />
        <ExtentRef id="1156" />
        <ExtentRef id="1157" />
        <ExtentRef id="1158" />
        <ExtentRef id="1159" />
        <ExtentRef id="1160" />
        <ExtentRef id="1161" />
        <ExtentRef id="1162" />
        <ExtentRef id="1163" />
        <ExtentRef id="1164" />
        <ExtentRef id="1165" />
        <ExtentRef id="1166" />
        <ExtentRef id="1167" />
        <ExtentRef id="1168" />
        <ExtentRef id="1169" />
        <ExtentRef id="1170" />
        <ExtentRef id="1171" />
        <ExtentRef id="1172" />
        <ExtentRef id="1173" />
        <ExtentRef id="1174" />
        <ExtentRef id="1175" />
        <ExtentRef id="1176" />
        <ExtentRef id="1177" />
        <ExtentRef id="1178" />
        <ExtentRef id="1179" />
        <ExtentRef id="1180" />
        <ExtentRef id="1181" />
        <ExtentRef id="1182" />
        <ExtentRef id="1183" />
        <ExtentRef id="1184" />
        <ExtentRef id="1185" />
        <ExtentRef id="1186" />
        <ExtentRef id="1187" />
        <ExtentRef id="1188" />
        <ExtentRef id="1189" />
        <ExtentRef id="1190" />
        <ExtentRef id="1191" />
        <ExtentRef id="1192" />
        <ExtentRef id="1193" />
        <ExtentRef id="1194" />
        <ExtentRef id="1195" />
        <ExtentRef id="1196" />
        <ExtentRef id="1197" />
        <ExtentRef id="1198" />
        <ExtentRef id="1199" />
        <ExtentRef id="1200" />
        <ExtentRef id="1201" />
        <ExtentRef id="1202" />
        <ExtentRef id="1203" />
        <ExtentRef id="1204" />
        <ExtentRef id="1205" />
        <ExtentRef id="1206" />
        <ExtentRef id="1207" />
        <ExtentRef id="1208" />
        <ExtentRef id="1209" />
        <ExtentRef id="1210" />
        <ExtentRef id="1211" />
        <ExtentRef id="1212" />
        <ExtentRef id="1213" />
        <ExtentRef id="1214" />
        <ExtentRef id="1215" />
        <ExtentRef id="1216" />
        <ExtentRef id="1217" />
        <ExtentRef id="1218" />
        <ExtentRef id="1219" />
        <ExtentRef id="1220" />
        <ExtentRef id="1221" />
        <ExtentRef id="1222" />
        <ExtentRef id="1223" />
        <ExtentRef id="1224" />
        <ExtentRef id="1225" />
        <ExtentRef id="1226" />
        <ExtentRef id="1227" />
        <ExtentRef id="1228" />
        <ExtentRef id="1229" />
        <ExtentRef id="1230" />
        <ExtentRef id="1231" />
        <ExtentRef id="1232" />
        <ExtentRef id="1233" />
        <ExtentRef id="1234" />
        <ExtentRef id="1235" />
        <ExtentRef id="1236" />
        <ExtentRef id="1237" />
        <ExtentRef id="1238" />
        <ExtentRef id="1239" />
        <ExtentRef id="1240" />
        <ExtentRef id="1241" />
        <ExtentRef id="1242" />
        <ExtentRef id="1243" />
        <ExtentRef id="1244" />
        <ExtentRef id="1245" />
        <ExtentRef id="1246" />
        <ExtentRef id="1247" />
        <ExtentRef id="1248" />
        <ExtentRef id="1249" />
        <ExtentRef id="1250" />
        <ExtentRef id="1251" />
        <ExtentRef id="1252" />
        <ExtentRef id="1253" />
        <ExtentRef id="1254" />
        <ExtentRef id="1255" />
        <ExtentRef id="1256" />
        <ExtentRef id="1257" />
        <ExtentRef id="1258" />
        <ExtentRef id="1259" />
        <ExtentRef id="1260" />
        <ExtentRef id="1261" />
        <ExtentRef id="1262" />
        <ExtentRef id="1263" />
        <ExtentRef id="1264" />
        <ExtentRef id="1265" />
        <ExtentRef id="1266" />
        <ExtentRef id="1267" />
        <ExtentRef id="1268" />
        <ExtentRef id="1269" />
        <ExtentRef id="1270" />
        <ExtentRef id="1271" />
        <ExtentRef id="1272" />
        <ExtentRef id="1273" />
        <ExtentRef id="1274" />
        <ExtentRef id="1275" />
        <ExtentRef id="1276" />
        <ExtentRef id="1277" />
        <ExtentRef id="1278" />
        <ExtentRef id="1279" />
        <ExtentRef id="1280" />
        <ExtentRef id="1281" />
        <ExtentRef id="1282" />
        <ExtentRef id="1283" />
        <ExtentRef id="1284" />
        <ExtentRef id="1285" />
        <ExtentRef id="1286" />
        <ExtentRef id="1287" />
        <ExtentRef id="1288" />
        <ExtentRef id="1289" />
        <ExtentRef id="1290" />
        <ExtentRef id="1291" />
        <ExtentRef id="1292" />
        <ExtentRef id="1293" />
        <ExtentRef id="1294" />
        <ExtentRef id="1295" />
        <ExtentRef id="1296" />
        <ExtentRef id="1297" />
        <ExtentRef id="1298" />
        <ExtentRef id="1299" />
        <ExtentRef id="1300" />
        <ExtentRef id="1301" />
        <ExtentRef id="1302" />
        <ExtentRef id="1303" />
        <ExtentRef id="1304" />
        <ExtentRef id="1305" />
        <ExtentRef id="1306" />
        <ExtentRef id="1307" />
        <ExtentRef id="1308" />
        <ExtentRef id="1309" />
        <ExtentRef id="1310" />
        <ExtentRef id="1311" />
        <ExtentRef id="1312" />
        <ExtentRef id="1313" />
        <ExtentRef id="1314" />
        <ExtentRef id="1315" />
        <ExtentRef id="1316" />
        <ExtentRef id="1317" />
        <ExtentRef id="1318" />
        <ExtentRef id="1319" />
        <ExtentRef id="1320" />
        <ExtentRef id="1321" />
        <ExtentRef id="1322" />
        <ExtentRef id="1323" />
        <ExtentRef id="1324" />
        <ExtentRef id="1325" />
        <ExtentRef id="1326" />
        <ExtentRef id="1327" />
        <ExtentRef id="1328" />
        <ExtentRef id="1329" />
        <ExtentRef id="1330" />
        <ExtentRef id="1331" />
        <ExtentRef id="1332" />
        <ExtentRef id="1333" />
        <ExtentRef id="1334" />
        <ExtentRef id="1335" />
        <ExtentRef id="1336" />
        <ExtentRef id="1337" />
        <ExtentRef id="1338" />
        <ExtentRef id="1339" />
        <ExtentRef id="1340" />
        <ExtentRef id="1341" />
        <ExtentRef id="1342" />
        <ExtentRef id="1343" />
        <ExtentRef id="1344" />
        <ExtentRef id="1345" />
        <ExtentRef id="1346" />
        <ExtentRef id="1347" />
        <ExtentRef id="1348" />
        <ExtentRef id="1349" />
        <ExtentRef id="1350" />
        <ExtentRef id="1351" />
        <ExtentRef id="1352" />
        <ExtentRef id="1353" />
        <ExtentRef id="1354" />
        <ExtentRef id="1355" />
        <ExtentRef id="1356" />
        <ExtentRef id="1357" />
        <ExtentRef id="1358" />
        <ExtentRef id="1359" />
        <ExtentRef id="1360" />
        <ExtentRef id="1361" />
        <ExtentRef id="1362" />
        <ExtentRef id="1363" />
        <ExtentRef id="1364" />
        <ExtentRef id="1365" />
        <ExtentRef id="1366" />
        <ExtentRef id="1367" />
        <ExtentRef id="1368" />
        <ExtentRef id="1369" />
        <ExtentRef id="1370" />
        <ExtentRef id="1371" />
        <ExtentRef id="1372" />
        <ExtentRef id="1373" />
        <ExtentRef id="1374" />
        <ExtentRef id="1375" />
        <ExtentRef id="1376" />
        <ExtentRef id="1377" />
        <ExtentRef id="1378" />
        <ExtentRef id="1379" />
        <ExtentRef id="1380" />
        <ExtentRef id="1381" />
        <ExtentRef id="1382" />
        <ExtentRef id="1383" />
        <ExtentRef id="1384" />
        <ExtentRef id="1385" />
        <ExtentRef id="1386" />
        <ExtentRef id="1387" />
        <ExtentRef id="1388" />
        <ExtentRef id="1389" />
        <ExtentRef id="1390" />
        <ExtentRef id="1391" />
        <ExtentRef id="1392" />
        <ExtentRef id="1393" />
        <ExtentRef id="1394" />
        <ExtentRef id="1395" />
        <ExtentRef id="1396" />
        <ExtentRef id="1397" />
        <ExtentRef id="1398" />
        <ExtentRef id="1399" />
        <ExtentRef id="1400" />
        <ExtentRef id="1401" />
        <ExtentRef id="1402" />
        <ExtentRef id="1403" />
        <ExtentRef id="1404" />
        <ExtentRef id="1405" />
        <ExtentRef id="1406" />
        <ExtentRef id="1407" />
        <ExtentRef id="1408" />
        <ExtentRef id="1409" />
        <ExtentRef id="1410" />
        <ExtentRef id="1411" />
        <ExtentRef id="1412" />
        <ExtentRef id="1413" />
        <ExtentRef id="1414" />
        <ExtentRef id="1415" />
        <ExtentRef id="1416" />
        <ExtentRef id="1417" />
        <ExtentRef id="1418" />
        <ExtentRef id="1419" />
        <ExtentRef id="1420" />
        <ExtentRef id="1421" />
        <ExtentRef id="1422" />
        <ExtentRef id="1423" />
        <ExtentRef id="1424" />
        <ExtentRef id="1425" />
        <ExtentRef id="1426" />
        <ExtentRef id="1427" />
        <ExtentRef id="1428" />
        <ExtentRef id="1429" />
        <ExtentRef id="1430" />
        <ExtentRef id="1431" />
        <ExtentRef id="1432" />
        <ExtentRef id="1433" />
        <ExtentRef id="1434" />
        <ExtentRef id="1435" />
        <ExtentRef id="1436" />
        <ExtentRef id="1437" />
        <ExtentRef id="1438" />
        <ExtentRef id="1439" />
        <ExtentRef id="1440" />
        <ExtentRef id="1441" />
        <ExtentRef id="1442" />
        <ExtentRef id="1443" />
        <ExtentRef id="1444" />
        <ExtentRef id="1445" />
        <ExtentRef id="1446" />
        <ExtentRef id="1447" />
        <ExtentRef id="1448" />
        <ExtentRef id="1449" />
        <ExtentRef id="1450" />
        <ExtentRef id="1451" />
        <ExtentRef id="1452" />
        <ExtentRef id="1453" />
        <ExtentRef id="1454" />
        <ExtentRef id="1455" />
        <ExtentRef id="1456" />
        <ExtentRef id="1457" />
        <ExtentRef id="1458" />
        <ExtentRef id="1459" />
        <ExtentRef id="1460" />
        <ExtentRef id="1461" />
        <ExtentRef id="1462" />
        <ExtentRef id="1463" />
        <ExtentRef id="1464" />
        <ExtentRef id="1465" />
        <ExtentRef id="1466" />
        <ExtentRef id="1467" />
        <ExtentRef id="1468" />
        <ExtentRef id="1469" />
        <ExtentRef id="1470" />
        <ExtentRef id="1471" />
        <ExtentRef id="1472" />
        <ExtentRef id="1473" />
        <ExtentRef id="1474" />
        <ExtentRef id="1475" />
        <ExtentRef id="1476" />
        <ExtentRef id="1477" />
        <ExtentRef id="1478" />
        <ExtentRef id="1479" />
        <ExtentRef id="1480" />
        <ExtentRef id="1481" />
        <ExtentRef id="1482" />
        <ExtentRef id="1483" />
        <ExtentRef id="1484" />
        <ExtentRef id="1485" />
        <ExtentRef id="1486" />
        <ExtentRef id="1487" />
        <ExtentRef id="1488" />
        <ExtentRef id="1489" />
        <ExtentRef id="1490" />
        <ExtentRef id="1491" />
        <ExtentRef id="1492" />
        <ExtentRef id="1493" />
        <ExtentRef id="1494" />
        <ExtentRef id="1495" />
        <ExtentRef id="1496" />
        <ExtentRef id="1497" />
        <ExtentRef id="1498" />
        <ExtentRef id="1499" />
        <ExtentRef id="1500" />
        <ExtentRef id="1501" />
        <ExtentRef id="1502" />
        <ExtentRef id="1503" />
        <ExtentRef id="1504" />
        <ExtentRef id="1505" />
        <ExtentRef id="1506" />
        <ExtentRef id="1507" />
        <ExtentRef id="1508" />
        <ExtentRef id="1509" />
        <ExtentRef id="1510" />
        <ExtentRef id="1511" />
        <ExtentRef id="1512" />
        <ExtentRef id="1513" />
        <ExtentRef id="1514" />
        <ExtentRef id="1515" />
        <ExtentRef id="1516" />
        <ExtentRef id="1517" />
        <ExtentRef id="1518" />
        <ExtentRef id="1519" />
        <ExtentRef id="1520" />
        <ExtentRef id="1521" />
        <ExtentRef id="1522" />
        <ExtentRef id="1523" />
        <ExtentRef id="1524" />
        <ExtentRef id="1525" />
        <ExtentRef id="1526" />
        <ExtentRef id="1527" />
        <ExtentRef id="1528" />
        <ExtentRef id="1529" />
        <ExtentRef id="1530" />
        <ExtentRef id="1531" />
        <ExtentRef id="1532" />
        <ExtentRef id="1533" />
        <ExtentRef id="1534" />
        <ExtentRef id="1535" />
        <ExtentRef id="1536" />
        <ExtentRef id="1537" />
        <ExtentRef id="1538" />
        <ExtentRef id="1539" />
        <ExtentRef id="1540" />
        <ExtentRef id="1541" />
        <ExtentRef id="1542" />
        <ExtentRef id="1543" />
        <ExtentRef id="1544" />
        <ExtentRef id="1545" />
        <ExtentRef id="1546" />
        <ExtentRef id="1547" />
        <ExtentRef id="1548" />
        <ExtentRef id="1549" />
        <ExtentRef id="1550" />
        <ExtentRef id="1551" />
        <ExtentRef id="1552" />
        <ExtentRef id="1553" />
        <ExtentRef id="1554" />
        <ExtentRef id="1555" />
        <ExtentRef id="1556" />
        <ExtentRef id="1557" />
        <ExtentRef id="1558" />
        <ExtentRef id="1559" />
        <ExtentRef id="1560" />
        <ExtentRef id="1561" />
        <ExtentRef id="1562" />
        <ExtentRef id="1563" />
        <ExtentRef id="1564" />
        <ExtentRef id="1565" />
        <ExtentRef id="1566" />
        <ExtentRef id="1567" />
        <ExtentRef id="1568" />
        <ExtentRef id="1569" />
        <ExtentRef id="1570" />
        <ExtentRef id="1571" />
        <ExtentRef id="1572" />
        <ExtentRef id="1573" />
        <ExtentRef id="1574" />
        <ExtentRef id="1575" />
        <ExtentRef id="1576" />
        <ExtentRef id="1577" />
        <ExtentRef id="1578" />
        <ExtentRef id="1579" />
        <ExtentRef id="1580" />
        <ExtentRef id="1581" />
        <ExtentRef id="1582" />
        <ExtentRef id="1583" />
        <ExtentRef id="1584" />
        <ExtentRef id="1585" />
        <ExtentRef id="1586" />
        <ExtentRef id="1587" />
        <ExtentRef id="1588" />
        <ExtentRef id="1589" />
        <ExtentRef id="1590" />
        <ExtentRef id="1591" />
        <ExtentRef id="1592" />
        <ExtentRef id="1593" />
        <ExtentRef id="1594" />
        <ExtentRef id="1595" />
        <ExtentRef id="1596" />
        <ExtentRef id="1597" />
        <ExtentRef id="1598" />
        <ExtentRef id="1599" />
        <ExtentRef id="1600" />
        <ExtentRef id="1601" />
        <ExtentRef id="1602" />
        <ExtentRef id="1603" />
        <ExtentRef id="1604" />
        <ExtentRef id="1605" />
        <ExtentRef id="1606" />
        <ExtentRef id="1607" />
        <ExtentRef id="1608" />
        <ExtentRef id="1609" />
        <ExtentRef id="1610" />
        <ExtentRef id="1611" />
        <ExtentRef id="1612" />
        <ExtentRef id="1613" />
        <ExtentRef id="1614" />
        <ExtentRef id="1615" />
        <ExtentRef id="1616" />
        <ExtentRef id="1617" />
        <ExtentRef id="1618" />
        <ExtentRef id="1619" />
        <ExtentRef id="1620" />
        <ExtentRef id="1621" />
        <ExtentRef id="1622" />
        <ExtentRef id="1623" />
        <ExtentRef id="1624" />
        <ExtentRef id="1625" />
        <ExtentRef id="1626" />
        <ExtentRef id="1627" />
        <ExtentRef id="1628" />
        <ExtentRef id="1629" />
        <ExtentRef id="1630" />
        <ExtentRef id="1631" />
        <ExtentRef id="1632" />
        <ExtentRef id="1633" />
        <ExtentRef id="1634" />
        <ExtentRef id="1635" />
        <ExtentRef id="1636" />
        <ExtentRef id="1637" />
        <ExtentRef id="1638" />
        <ExtentRef id="1639" />
        <ExtentRef id="1640" />
        <ExtentRef id="1641" />
        <ExtentRef id="1642" />
        <ExtentRef id="1643" />
        <ExtentRef id="1644" />
        <ExtentRef id="1645" />
        <ExtentRef id="1646" />
        <ExtentRef id="1647" />
        <ExtentRef id="1648" />
        <ExtentRef id="1649" />
        <ExtentRef id="1650" />
        <ExtentRef id="1651" />
        <ExtentRef id="1652" />
        <ExtentRef id="1653" />
        <ExtentRef id="1654" />
        <ExtentRef id="1655" />
        <ExtentRef id="1656" />
        <ExtentRef id="1657" />
        <ExtentRef id="1658" />
        <ExtentRef id="1659" />
        <ExtentRef id="1660" />
        <ExtentRef id="1661" />
        <ExtentRef id="1662" />
        <ExtentRef id="1663" />
        <ExtentRef id="1664" />
        <ExtentRef id="1665" />
        <ExtentRef id="1666" />
        <ExtentRef id="1667" />
        <ExtentRef id="1668" />
        <ExtentRef id="1669" />
        <ExtentRef id="1670" />
        <ExtentRef id="1671" />
        <ExtentRef id="1672" />
        <ExtentRef id="1673" />
        <ExtentRef id="1674" />
        <ExtentRef id="1675" />
        <ExtentRef id="1676" />
        <ExtentRef id="1677" />
        <ExtentRef id="1678" />
        <ExtentRef id="1679" />
        <ExtentRef id="1680" />
        <ExtentRef id="1681" />
        <ExtentRef id="1682" />
        <ExtentRef id="1683" />
        <ExtentRef id="1684" />
        <ExtentRef id="1685" />
        <ExtentRef id="1686" />
        <ExtentRef id="1687" />
        <ExtentRef id="1688" />
        <ExtentRef id="1689" />
        <ExtentRef id="1690" />
        <ExtentRef id="1691" />
        <ExtentRef id="1692" />
        <ExtentRef id="1693" />
        <ExtentRef id="1694" />
        <ExtentRef id="1695" />
        <ExtentRef id="1696" />
        <ExtentRef id="1697" />
        <ExtentRef id="1698" />
        <ExtentRef id="1699" />
        <ExtentRef id="1700" />
        <ExtentRef id="1701" />
        <ExtentRef id="1702" />
        <ExtentRef id="1703" />
        <ExtentRef id="1704" />
        <ExtentRef id="1705" />
        <ExtentRef id="1706" />
        <ExtentRef id="1707" />
        <ExtentRef id="1708" />
        <ExtentRef id="1709" />
        <ExtentRef id="1710" />
        <ExtentRef id="1711" />
        <ExtentRef id="1712" />
        <ExtentRef id="1713" />
        <ExtentRef id="1714" />
        <ExtentRef id="1715" />
        <ExtentRef id="1716" />
        <ExtentRef id="1717" />
        <ExtentRef id="1718" />
        <ExtentRef id="1719" />
        <ExtentRef id="1720" />
        <ExtentRef id="1721" />
        <ExtentRef id="1722" />
        <ExtentRef id="1723" />
        <ExtentRef id="1724" />
        <ExtentRef id="1725" />
        <ExtentRef id="1726" />
        <ExtentRef id="1727" />
        <ExtentRef id="1728" />
        <ExtentRef id="1729" />
        <ExtentRef id="1730" />
        <ExtentRef id="1731" />
        <ExtentRef id="1732" />
        <ExtentRef id="1733" />
        <ExtentRef id="1734" />
        <ExtentRef id="1735" />
        <ExtentRef id="1736" />
        <ExtentRef id="1737" />
        <ExtentRef id="1738" />
        <ExtentRef id="1739" />
        <ExtentRef id="1740" />
        <ExtentRef id="1741" />
        <ExtentRef id="1742" />
        <ExtentRef id="1743" />
        <ExtentRef id="1744" />
        <ExtentRef id="1745" />
        <ExtentRef id="1746" />
        <ExtentRef id="1747" />
        <ExtentRef id="1748" />
        <ExtentRef id="1749" />
        <ExtentRef id="1750" />
        <ExtentRef id="1751" />
        <ExtentRef id="1752" />
        <ExtentRef id="1753" />
        <ExtentRef id="1754" />
        <ExtentRef id="1755" />
        <ExtentRef id="1756" />
        <ExtentRef id="1757" />
        <ExtentRef id="1758" />
        <ExtentRef id="1759" />
        <ExtentRef id="1760" />
        <ExtentRef id="1761" />
        <ExtentRef id="1762" />
        <ExtentRef id="1763" />
        <ExtentRef id="1764" />
        <ExtentRef id="1765" />
        <ExtentRef id="1766" />
        <ExtentRef id="1767" />
        <ExtentRef id="1768" />
        <ExtentRef id="1769" />
        <ExtentRef id="1770" />
        <ExtentRef id="1771" />
        <ExtentRef id="1772" />
        <ExtentRef id="1773" />
        <ExtentRef id="1774" />
        <ExtentRef id="1775" />
        <ExtentRef id="1776" />
        <ExtentRef id="1777" />
        <ExtentRef id="1778" />
        <ExtentRef id="1779" />
        <ExtentRef id="1780" />
        <ExtentRef id="1781" />
        <ExtentRef id="1782" />
        <ExtentRef id="1783" />
        <ExtentRef id="1784" />
        <ExtentRef id="1785" />
        <ExtentRef id="1786" />
        <ExtentRef id="1787" />
        <ExtentRef id="1788" />
        <ExtentRef id="1789" />
        <ExtentRef id="1790" />
        <ExtentRef id="1791" />
        <ExtentRef id="1792" />
        <ExtentRef id="1793" />
        <ExtentRef id="1794" />
        <ExtentRef id="1795" />
        <ExtentRef id="1796" />
        <ExtentRef id="1797" />
        <ExtentRef id="1798" />
        <ExtentRef id="1799" />
        <ExtentRef id="1800" />
        <ExtentRef id="1801" />
        <ExtentRef id="1802" />
        <ExtentRef id="1803" />
        <ExtentRef id="1804" />
        <ExtentRef id="1805" />
        <ExtentRef id="1806" />
        <ExtentRef id="1807" />
        <ExtentRef id="1808" />
        <ExtentRef id="1809" />
        <ExtentRef id="1810" />
        <ExtentRef id="1811" />
        <ExtentRef id="1812" />
        <ExtentRef id="1813" />
        <ExtentRef id="1814" />
        <ExtentRef id="1815" />
        <ExtentRef id="1816" />
        <ExtentRef id="1817" />
        <ExtentRef id="1818" />
        <ExtentRef id="1819" />
        <ExtentRef id="1820" />
        <ExtentRef id="1821" />
        <ExtentRef id="1822" />
        <ExtentRef id="1823" />
        <ExtentRef id="1824" />
        <ExtentRef id="1825" />
        <ExtentRef id="1826" />
        <ExtentRef id="1827" />
        <ExtentRef id="1828" />
        <ExtentRef id="1829" />
        <ExtentRef id="1830" />
        <ExtentRef id="1831" />
        <ExtentRef id="1832" />
        <ExtentRef id="1833" />
        <ExtentRef id="1834" />
        <ExtentRef id="1835" />
        <ExtentRef id="1836" />
        <ExtentRef id="1837" />
        <ExtentRef id="1838" />
        <ExtentRef id="1839" />
        <ExtentRef id="1840" />
        <ExtentRef id="1841" />
        <ExtentRef id="1842" />
        <ExtentRef id="1843" />
        <ExtentRef id="1844" />
        <ExtentRef id="1845" />
        <ExtentRef id="1846" />
        <ExtentRef id="1847" />
        <ExtentRef id="1848" />
        <ExtentRef id="1849" />
        <ExtentRef id="1850" />
        <ExtentRef id="1851" />
        <ExtentRef id="1852" />
        <ExtentRef id="1853" />
        <ExtentRef id="1854" />
        <ExtentRef id="1855" />
        <ExtentRef id="1856" />
        <ExtentRef id="1857" />
        <ExtentRef id="1858" />
        <ExtentRef id="1859" />
        <ExtentRef id="1860" />
        <ExtentRef id="1861" />
        <ExtentRef id="1862" />
        <ExtentRef id="1863" />
        <ExtentRef id="1864" />
        <ExtentRef id="1865" />
        <ExtentRef id="1866" />
        <ExtentRef id="1867" />
        <ExtentRef id="1868" />
        <ExtentRef id="1869" />
        <ExtentRef id="1870" />
        <ExtentRef id="1871" />
        <ExtentRef id="1872" />
        <ExtentRef id="1873" />
        <ExtentRef id="1874" />
        <ExtentRef id="1875" />
        <ExtentRef id="1876" />
        <ExtentRef id="1877" />
        <ExtentRef id="1878" />
        <ExtentRef id="1879" />
        <ExtentRef id="1880" />
        <ExtentRef id="1881" />
        <ExtentRef id="1882" />
        <ExtentRef id="1883" />
        <ExtentRef id="1884" />
        <ExtentRef id="1885" />
        <ExtentRef id="1886" />
        <ExtentRef id="1887" />
        <ExtentRef id="1888" />
        <ExtentRef id="1889" />
        <ExtentRef id="1890" />
        <ExtentRef id="1891" />
        <ExtentRef id="1892" />
        <ExtentRef id="1893" />
        <ExtentRef id="1894" />
        <ExtentRef id="1895" />
        <ExtentRef id="1896" />
        <ExtentRef id="1897" />
        <ExtentRef id="1898" />
        <ExtentRef id="1899" />
        <ExtentRef id="1900" />
        <ExtentRef id="1901" />
        <ExtentRef id="1902" />
        <ExtentRef id="1903" />
        <ExtentRef id="1904" />
        <ExtentRef id="1905" />
        <ExtentRef id="1906" />
        <ExtentRef id="1907" />
        <ExtentRef id="1908" />
        <ExtentRef id="1909" />
        <ExtentRef id="1910" />
        <ExtentRef id="1911" />
        <ExtentRef id="1912" />
        <ExtentRef id="1913" />
        <ExtentRef id="1914" />
        <ExtentRef id="1915" />
        <ExtentRef id="1916" />
        <ExtentRef id="1917" />
        <ExtentRef id="1918" />
        <ExtentRef id="1919" />
        <ExtentRef id="1920" />
        <ExtentRef id="1921" />
        <ExtentRef id="1922" />
        <ExtentRef id="1923" />
        <ExtentRef id="1924" />
        <ExtentRef id="1925" />
        <ExtentRef id="1926" />
        <ExtentRef id="1927" />
        <ExtentRef id="1928" />
        <ExtentRef id="1929" />
        <ExtentRef id="1930" />
        <ExtentRef id="1931" />
        <ExtentRef id="1932" />
        <ExtentRef id="1933" />
        <ExtentRef id="1934" />
        <ExtentRef id="1935" />
        <ExtentRef id="1936" />
        <ExtentRef id="1937" />
        <ExtentRef id="1938" />
        <ExtentRef id="1939" />
        <ExtentRef id="1940" />
        <ExtentRef id="1941" />
        <ExtentRef id="1942" />
        <ExtentRef id="1943" />
        <ExtentRef id="1944" />
        <ExtentRef id="1945" />
        <ExtentRef id="1946" />
        <ExtentRef id="1947" />
        <ExtentRef id="1948" />
        <ExtentRef id="1949" />
        <ExtentRef id="1950" />
        <ExtentRef id="1951" />
        <ExtentRef id="1952" />
        <ExtentRef id="1953" />
        <ExtentRef id="1954" />
        <ExtentRef id="1955" />
        <ExtentRef id="1956" />
        <ExtentRef id="1957" />
        <ExtentRef id="1958" />
        <ExtentRef id="1959" />
        <ExtentRef id="1960" />
        <ExtentRef id="1961" />
        <ExtentRef id="1962" />
        <ExtentRef id="1963" />
        <ExtentRef id="1964" />
        <ExtentRef id="1965" />
        <ExtentRef id="1966" />
        <ExtentRef id="1967" />
        <ExtentRef id="1968" />
        <ExtentRef id="1969" />
        <ExtentRef id="1970" />
        <ExtentRef id="1971" />
        <ExtentRef id="1972" />
        <ExtentRef id="1973" />
        <ExtentRef id="1974" />
        <ExtentRef id="1975" />
        <ExtentRef id="1976" />
        <ExtentRef id="1977" />
        <ExtentRef id="1978" />
        <ExtentRef id="1979" />
        <ExtentRef id="1980" />
        <ExtentRef id="1981" />
        <ExtentRef id="1982" />
        <ExtentRef id="1983" />
        <ExtentRef id="1984" />
        <ExtentRef id="1985" />
        <ExtentRef id="1986" />
        <ExtentRef id="1987" />
        <ExtentRef id="1988" />
        <ExtentRef id="1989" />
        <ExtentRef id="1990" />
        <ExtentRef id="1991" />
        <ExtentRef id="1992" />
        <ExtentRef id="1993" />
        <ExtentRef id="1994" />
        <ExtentRef id="1995" />
        <ExtentRef id="1996" />
        <ExtentRef id="1997" />
        <ExtentRef id="1998" />
        <ExtentRef id="1999" />
        <ExtentRef id="2000" />
        <ExtentRef id="2001" />
        <ExtentRef id="2002" />
        <ExtentRef id="2003" />
        <ExtentRef id="2004" />
        <ExtentRef id="2005" />
        <ExtentRef id="2006" />
        <ExtentRef id="2007" />
        <ExtentRef id="2008" />
        <ExtentRef id="2009" />
        <ExtentRef id="2010" />
        <ExtentRef id="2011" />
        <ExtentRef id="2012" />
        <ExtentRef id="2013" />
        <ExtentRef id="2014" />
        <ExtentRef id="2015" />
        <ExtentRef id="2016" />
        <ExtentRef id="2017" />
        <ExtentRef id="2018" />
        <ExtentRef id="2019" />
        <ExtentRef id="2020" />
        <ExtentRef id="2021" />
        <ExtentRef id="2022" />
        <ExtentRef id="2023" />
        <ExtentRef id="2024" />
        <ExtentRef id="2025" />
        <ExtentRef id="2026" />
        <ExtentRef id="2027" />
        <ExtentRef id="2028" />
        <ExtentRef id="2029" />
        <ExtentRef id="2030" />
        <ExtentRef id="2031" />
        <ExtentRef id="2032" />
        <ExtentRef id="2033" />
        <ExtentRef id="2034" />
        <ExtentRef id="2035" />
        <ExtentRef id="2036" />
        <ExtentRef id="2037" />
        <ExtentRef id="2038" />
        <ExtentRef id="2039" />
        <ExtentRef id="2040" />
        <ExtentRef id="2041" />
        <ExtentRef id="2042" />
        <ExtentRef id="2043" />
        <ExtentRef id="2044" />
        <ExtentRef id="2045" />
        <ExtentRef id="2046" />
        <ExtentRef id="2047" />
        <ExtentRef id="2048" />
        <ExtentRef id="2049" />
        <ExtentRef id="2050" />
        <ExtentRef id="2051" />
        <ExtentRef id="2052" />
        <ExtentRef id="2053" />
        <ExtentRef id="2054" />
        <ExtentRef id="2055" />
        <ExtentRef id="2056" />
        <ExtentRef id="2057" />
        <ExtentRef id="2058" />
        <ExtentRef id="2059" />
        <ExtentRef id="2060" />
        <ExtentRef id="2061" />
        <ExtentRef id="2062" />
        <ExtentRef id="2063" />
        <ExtentRef id="2064" />
        <ExtentRef id="2065" />
        <ExtentRef id="2066" />
        <ExtentRef id="2067" />
        <ExtentRef id="2068" />
        <ExtentRef id="2069" />
        <ExtentRef id="2070" />
        <ExtentRef id="2071" />
        <ExtentRef id="2072" />
        <ExtentRef id="2073" />
        <ExtentRef id="2074" />
        <ExtentRef id="2075" />
        <ExtentRef id="2076" />
        <ExtentRef id="2077" />
        <ExtentRef id="2078" />
        <ExtentRef id="2079" />
        <ExtentRef id="2080" />
        <ExtentRef id="2081" />
        <ExtentRef id="2082" />
        <ExtentRef id="2083" />
        <ExtentRef id="2084" />
        <ExtentRef id="2085" />
        <ExtentRef id="2086" />
        <ExtentRef id="2087" />
        <ExtentRef id="2088" />
        <ExtentRef id="2089" />
        <ExtentRef id="2090" />
        <ExtentRef id="2091" />
        <ExtentRef id="2092" />
        <ExtentRef id="2093" />
        <ExtentRef id="2094" />
        <ExtentRef id="2095" />
        <ExtentRef id="2096" />
        <ExtentRef id="2097" />
        <ExtentRef id="2098" />
        <ExtentRef id="2099" />
        <ExtentRef id="2100" />
        <ExtentRef id="2101" />
        <ExtentRef id="2102" />
        <ExtentRef id="2103" />
        <ExtentRef id="2104" />
        <ExtentRef id="2105" />
      </ExtentRefs>
    </ExtentSelector>
    <ExtentSelector extentID="2" gapBefore="0" primaryTrack="false">
      <Effects />
      <Transitions />
      <BoundProperties />
      <ExtentRefs>
        <ExtentRef id="2110" />
      </ExtentRefs>
    </ExtentSelector>
    <ExtentSelector extentID="3" gapBefore="0" primaryTrack="false">
      <Effects />
      <Transitions />
      <BoundProperties />
      <ExtentRefs />
    </ExtentSelector>
    <ExtentSelector extentID="4" gapBefore="0" primaryTrack="false">
      <Effects />
      <Transitions />
      <BoundProperties />
      <ExtentRefs />
    </ExtentSelector>
  </Extents>
  <BoundPlaceholders>
    <BoundPlaceholder placeholderID="SingleExtentView" extentID="0" />
    <BoundPlaceholder placeholderID="Main" extentID="1" />
    <BoundPlaceholder placeholderID="SoundTrack" extentID="2" />
    <BoundPlaceholder placeholderID="Text" extentID="4" />
    <BoundPlaceholder placeholderID="Narration" extentID="3" />
  </BoundPlaceholders>
  <BoundProperties>
    <BoundPropertyFloatSet Name="AspectRatio">
      <BoundPropertyFloatElement Value="1.3333332538604736" />
    </BoundPropertyFloatSet>
    <BoundPropertyFloat Name="SoundTrackMix" Value="1" />
  </BoundProperties>
  <ThemeOperationLog themeID="0">
    <MonolithicThemeOperations />
  </ThemeOperationLog>
</Project>